<?xml version="1.0" encoding="UTF-8" standalone="no"?>
<svg
   height="345.6pt"
   version="1.1"
   viewBox="0 0 460.8 345.6"
   width="460.8pt"
   id="svg450"
   sodipodi:docname="interpolate_schatten_1.svg"
   inkscape:version="1.1.2 (0a00cf5339, 2022-02-04)"
   inkscape:export-filename="/home/sia/interpolate_schatten_1.png"
   inkscape:export-xdpi="500"
   inkscape:export-ydpi="500"
   xmlns:inkscape="http://www.inkscape.org/namespaces/inkscape"
   xmlns:sodipodi="http://sodipodi.sourceforge.net/DTD/sodipodi-0.dtd"
   xmlns:xlink="http://www.w3.org/1999/xlink"
   xmlns="http://www.w3.org/2000/svg"
   xmlns:svg="http://www.w3.org/2000/svg"
   xmlns:rdf="http://www.w3.org/1999/02/22-rdf-syntax-ns#"
   xmlns:cc="http://creativecommons.org/ns#"
   xmlns:dc="http://purl.org/dc/elements/1.1/">
  <sodipodi:namedview
     id="namedview452"
     pagecolor="#ffffff"
     bordercolor="#666666"
     borderopacity="1.0"
     inkscape:pageshadow="2"
     inkscape:pageopacity="0.0"
     inkscape:pagecheckerboard="0"
     inkscape:document-units="pt"
     showgrid="false"
     inkscape:zoom="1.4800347"
     inkscape:cx="285.12845"
     inkscape:cy="230.4"
     inkscape:window-width="1920"
     inkscape:window-height="1006"
     inkscape:window-x="0"
     inkscape:window-y="25"
     inkscape:window-maximized="1"
     inkscape:current-layer="svg450" />
  <metadata
     id="metadata2">
    <rdf:RDF>
      <cc:Work>
        <dc:type
           rdf:resource="http://purl.org/dc/dcmitype/StillImage" />
        <dc:date>2022-09-03T14:31:19.644663</dc:date>
        <dc:format>image/svg+xml</dc:format>
        <dc:creator>
          <cc:Agent>
            <dc:title>Matplotlib v3.4.2, https://matplotlib.org/</dc:title>
          </cc:Agent>
        </dc:creator>
      </cc:Work>
    </rdf:RDF>
  </metadata>
  <defs
     id="defs6">
    <style
       type="text/css"
       id="style4">*{stroke-linecap:butt;stroke-linejoin:round;}</style>
  </defs>
  <g
     id="patch_1"
     style="fill:none;stroke:none">
    <path
       d="M 0,345.6 H 460.8 V 0 H 0 Z"
       style="fill:none;stroke:none"
       id="path8" />
  </g>
  <g
     id="matplotlib.axis_1">
    <g
       id="xtick_1">
      <g
         id="line2d_1">
        <defs
           id="defs15">
          <path
             d="M 0,0 V 6"
             id="m93a0a8a25a"
             style="stroke:#262626;stroke-width:1.25" />
        </defs>
        <g
           id="g19">
          <use
             style="fill:#262626;stroke:#262626;stroke-width:1.25"
             x="57.599998"
             xlink:href="#m93a0a8a25a"
             y="307.58401"
             id="use17"
             width="100%"
             height="100%" />
        </g>
      </g>
      <g
         id="text_1">
        <!-- $\mathdefault{10^{-2}}$ -->
        <g
           style="fill:#262626"
           transform="matrix(0.1265,0,0,-0.1265,45.44144,325.83588)"
           id="g36">
          <defs
             id="defs26">
            <path
               d="m 1702,4058 c 0,134 -6,134 -96,134 -249,-276 -627,-365 -985,-365 -19,0 -51,0 -58,-19 -6,-13 -6,-26 -6,-160 198,0 531,38 787,191 V 461 C 1344,236 1331,160 781,160 H 589 V 0 c 307,0 627,0 934,0 307,0 627,0 935,0 v 160 h -192 c -551,0 -564,70 -564,298 z"
               id="CMR17-31"
               transform="scale(0.015625)" />
            <path
               d="m 2688,2025 c 0,391 -6,1055 -275,1566 -237,448 -615,607 -947,607 -308,0 -698,-140 -941,-601 C 269,3118 243,2524 243,2025 c 0,-364 7,-919 205,-1406 275,-658 768,-747 1018,-747 294,0 742,121 1004,728 192,442 218,959 218,1425 z M 1466,-26 c -410,0 -653,351 -743,838 -70,376 -70,926 -70,1284 0,492 0,901 83,1291 122,542 480,709 730,709 262,0 601,-173 723,-696 83,-364 89,-793 89,-1304 0,-416 0,-927 -76,-1304 C 2067,95 1690,-26 1466,-26 Z"
               id="CMR17-30"
               transform="scale(0.015625)" />
            <path
               d="m 4218,1472 c 108,0 224,0 224,128 0,128 -116,128 -224,128 H 755 c -109,0 -224,0 -224,-128 0,-128 115,-128 224,-128 z"
               id="CMSY10-0"
               transform="scale(0.015625)" />
            <path
               d="M 2669,989 H 2554 C 2490,536 2438,459 2413,420 2381,369 1920,369 1830,369 H 602 c 230,250 678,703 1222,1228 390,370 845,805 845,1438 0,755 -602,1189 -1274,1189 -704,0 -1133,-620 -1133,-1194 0,-250 186,-282 263,-282 64,0 256,39 256,262 0,197 -167,254 -256,254 -39,0 -77,-6 -103,-19 122,545 493,813 884,813 556,0 921,-441 921,-1023 0,-556 -326,-1035 -691,-1451 L 262,146 V 0 h 2253 z"
               id="CMR17-32"
               transform="scale(0.015625)" />
          </defs>
          <use
             transform="scale(0.996264)"
             xlink:href="#CMR17-31"
             id="use28"
             x="0"
             y="0"
             width="100%"
             height="100%" />
          <use
             transform="matrix(0.996264,0,0,0.996264,45.690477,0)"
             xlink:href="#CMR17-30"
             id="use30"
             x="0"
             y="0"
             width="100%"
             height="100%" />
          <use
             transform="matrix(0.697382,0,0,0.697382,91.380954,36.153639)"
             xlink:href="#CMSY10-0"
             id="use32"
             x="0"
             y="0"
             width="100%"
             height="100%" />
          <use
             transform="matrix(0.697382,0,0,0.697382,145.62195,36.153639)"
             xlink:href="#CMR17-32"
             id="use34"
             x="0"
             y="0"
             width="100%"
             height="100%" />
        </g>
      </g>
    </g>
    <g
       id="xtick_2">
      <g
         id="line2d_2">
        <g
           id="g42">
          <use
             style="fill:#262626;stroke:#262626;stroke-width:1.25"
             x="176.64"
             xlink:href="#m93a0a8a25a"
             y="307.58401"
             id="use40"
             width="100%"
             height="100%" />
        </g>
      </g>
      <g
         id="text_2">
        <!-- $\mathdefault{10^{-1}}$ -->
        <g
           style="fill:#262626"
           transform="matrix(0.1265,0,0,-0.1265,164.48144,325.83588)"
           id="g53">
          <use
             transform="scale(0.996264)"
             xlink:href="#CMR17-31"
             id="use45"
             x="0"
             y="0"
             width="100%"
             height="100%" />
          <use
             transform="matrix(0.996264,0,0,0.996264,45.690477,0)"
             xlink:href="#CMR17-30"
             id="use47"
             x="0"
             y="0"
             width="100%"
             height="100%" />
          <use
             transform="matrix(0.697382,0,0,0.697382,91.380954,36.153639)"
             xlink:href="#CMSY10-0"
             id="use49"
             x="0"
             y="0"
             width="100%"
             height="100%" />
          <use
             transform="matrix(0.697382,0,0,0.697382,145.62195,36.153639)"
             xlink:href="#CMR17-31"
             id="use51"
             x="0"
             y="0"
             width="100%"
             height="100%" />
        </g>
      </g>
    </g>
    <g
       id="xtick_3">
      <g
         id="line2d_3">
        <g
           id="g59">
          <use
             style="fill:#262626;stroke:#262626;stroke-width:1.25"
             x="295.67999"
             xlink:href="#m93a0a8a25a"
             y="307.58401"
             id="use57"
             width="100%"
             height="100%" />
        </g>
      </g>
      <g
         id="text_3">
        <!-- $\mathdefault{10^{0}}$ -->
        <g
           style="fill:#262626"
           transform="matrix(0.1265,0,0,-0.1265,287.16664,325.83588)"
           id="g68">
          <use
             transform="scale(0.996264)"
             xlink:href="#CMR17-31"
             id="use62"
             x="0"
             y="0"
             width="100%"
             height="100%" />
          <use
             transform="matrix(0.996264,0,0,0.996264,45.690477,0)"
             xlink:href="#CMR17-30"
             id="use64"
             x="0"
             y="0"
             width="100%"
             height="100%" />
          <use
             transform="matrix(0.697382,0,0,0.697382,91.380954,36.153639)"
             xlink:href="#CMR17-30"
             id="use66"
             x="0"
             y="0"
             width="100%"
             height="100%" />
        </g>
      </g>
    </g>
    <g
       id="xtick_4">
      <g
         id="line2d_4">
        <g
           id="g74">
          <use
             style="fill:#262626;stroke:#262626;stroke-width:1.25"
             x="414.72"
             xlink:href="#m93a0a8a25a"
             y="307.58401"
             id="use72"
             width="100%"
             height="100%" />
        </g>
      </g>
      <g
         id="text_4">
        <!-- $\mathdefault{10^{1}}$ -->
        <g
           style="fill:#262626"
           transform="matrix(0.1265,0,0,-0.1265,406.20664,325.83588)"
           id="g83">
          <use
             transform="scale(0.996264)"
             xlink:href="#CMR17-31"
             id="use77"
             x="0"
             y="0"
             width="100%"
             height="100%" />
          <use
             transform="matrix(0.996264,0,0,0.996264,45.690477,0)"
             xlink:href="#CMR17-30"
             id="use79"
             x="0"
             y="0"
             width="100%"
             height="100%" />
          <use
             transform="matrix(0.697382,0,0,0.697382,91.380954,36.153639)"
             xlink:href="#CMR17-31"
             id="use81"
             x="0"
             y="0"
             width="100%"
             height="100%" />
        </g>
      </g>
    </g>
    <g
       id="xtick_5">
      <g
         id="line2d_5">
        <defs
           id="defs88">
          <path
             d="M 0,0 V 4"
             id="ma346141721"
             style="stroke:#262626" />
        </defs>
        <g
           id="g92">
          <use
             style="fill:#262626;stroke:#262626"
             x="93.434608"
             xlink:href="#ma346141721"
             y="307.58401"
             id="use90"
             width="100%"
             height="100%" />
        </g>
      </g>
    </g>
    <g
       id="xtick_6">
      <g
         id="line2d_6">
        <g
           id="g98">
          <use
             style="fill:#262626;stroke:#262626"
             x="114.39651"
             xlink:href="#ma346141721"
             y="307.58401"
             id="use96"
             width="100%"
             height="100%" />
        </g>
      </g>
    </g>
    <g
       id="xtick_7">
      <g
         id="line2d_7">
        <g
           id="g104">
          <use
             style="fill:#262626;stroke:#262626"
             x="129.26923"
             xlink:href="#ma346141721"
             y="307.58401"
             id="use102"
             width="100%"
             height="100%" />
        </g>
      </g>
    </g>
    <g
       id="xtick_8">
      <g
         id="line2d_8">
        <g
           id="g110">
          <use
             style="fill:#262626;stroke:#262626"
             x="140.80539"
             xlink:href="#ma346141721"
             y="307.58401"
             id="use108"
             width="100%"
             height="100%" />
        </g>
      </g>
    </g>
    <g
       id="xtick_9">
      <g
         id="line2d_9">
        <g
           id="g116">
          <use
             style="fill:#262626;stroke:#262626"
             x="150.23112"
             xlink:href="#ma346141721"
             y="307.58401"
             id="use114"
             width="100%"
             height="100%" />
        </g>
      </g>
    </g>
    <g
       id="xtick_10">
      <g
         id="line2d_10">
        <g
           id="g122">
          <use
             style="fill:#262626;stroke:#262626"
             x="158.20047"
             xlink:href="#ma346141721"
             y="307.58401"
             id="use120"
             width="100%"
             height="100%" />
        </g>
      </g>
    </g>
    <g
       id="xtick_11">
      <g
         id="line2d_11">
        <g
           id="g128">
          <use
             style="fill:#262626;stroke:#262626"
             x="165.10384"
             xlink:href="#ma346141721"
             y="307.58401"
             id="use126"
             width="100%"
             height="100%" />
        </g>
      </g>
    </g>
    <g
       id="xtick_12">
      <g
         id="line2d_12">
        <g
           id="g134">
          <use
             style="fill:#262626;stroke:#262626"
             x="171.19302"
             xlink:href="#ma346141721"
             y="307.58401"
             id="use132"
             width="100%"
             height="100%" />
        </g>
      </g>
    </g>
    <g
       id="xtick_13">
      <g
         id="line2d_13">
        <g
           id="g140">
          <use
             style="fill:#262626;stroke:#262626"
             x="212.47461"
             xlink:href="#ma346141721"
             y="307.58401"
             id="use138"
             width="100%"
             height="100%" />
        </g>
      </g>
    </g>
    <g
       id="xtick_14">
      <g
         id="line2d_14">
        <g
           id="g146">
          <use
             style="fill:#262626;stroke:#262626"
             x="233.43651"
             xlink:href="#ma346141721"
             y="307.58401"
             id="use144"
             width="100%"
             height="100%" />
        </g>
      </g>
    </g>
    <g
       id="xtick_15">
      <g
         id="line2d_15">
        <g
           id="g152">
          <use
             style="fill:#262626;stroke:#262626"
             x="248.30922"
             xlink:href="#ma346141721"
             y="307.58401"
             id="use150"
             width="100%"
             height="100%" />
        </g>
      </g>
    </g>
    <g
       id="xtick_16">
      <g
         id="line2d_16">
        <g
           id="g158">
          <use
             style="fill:#262626;stroke:#262626"
             x="259.8454"
             xlink:href="#ma346141721"
             y="307.58401"
             id="use156"
             width="100%"
             height="100%" />
        </g>
      </g>
    </g>
    <g
       id="xtick_17">
      <g
         id="line2d_17">
        <g
           id="g164">
          <use
             style="fill:#262626;stroke:#262626"
             x="269.27112"
             xlink:href="#ma346141721"
             y="307.58401"
             id="use162"
             width="100%"
             height="100%" />
        </g>
      </g>
    </g>
    <g
       id="xtick_18">
      <g
         id="line2d_18">
        <g
           id="g170">
          <use
             style="fill:#262626;stroke:#262626"
             x="277.24048"
             xlink:href="#ma346141721"
             y="307.58401"
             id="use168"
             width="100%"
             height="100%" />
        </g>
      </g>
    </g>
    <g
       id="xtick_19">
      <g
         id="line2d_19">
        <g
           id="g176">
          <use
             style="fill:#262626;stroke:#262626"
             x="284.14383"
             xlink:href="#ma346141721"
             y="307.58401"
             id="use174"
             width="100%"
             height="100%" />
        </g>
      </g>
    </g>
    <g
       id="xtick_20">
      <g
         id="line2d_20">
        <g
           id="g182">
          <use
             style="fill:#262626;stroke:#262626"
             x="290.23303"
             xlink:href="#ma346141721"
             y="307.58401"
             id="use180"
             width="100%"
             height="100%" />
        </g>
      </g>
    </g>
    <g
       id="xtick_21">
      <g
         id="line2d_21">
        <g
           id="g188">
          <use
             style="fill:#262626;stroke:#262626"
             x="331.51462"
             xlink:href="#ma346141721"
             y="307.58401"
             id="use186"
             width="100%"
             height="100%" />
        </g>
      </g>
    </g>
    <g
       id="xtick_22">
      <g
         id="line2d_22">
        <g
           id="g194">
          <use
             style="fill:#262626;stroke:#262626"
             x="352.4765"
             xlink:href="#ma346141721"
             y="307.58401"
             id="use192"
             width="100%"
             height="100%" />
        </g>
      </g>
    </g>
    <g
       id="xtick_23">
      <g
         id="line2d_23">
        <g
           id="g200">
          <use
             style="fill:#262626;stroke:#262626"
             x="367.34921"
             xlink:href="#ma346141721"
             y="307.58401"
             id="use198"
             width="100%"
             height="100%" />
        </g>
      </g>
    </g>
    <g
       id="xtick_24">
      <g
         id="line2d_24">
        <g
           id="g206">
          <use
             style="fill:#262626;stroke:#262626"
             x="378.88538"
             xlink:href="#ma346141721"
             y="307.58401"
             id="use204"
             width="100%"
             height="100%" />
        </g>
      </g>
    </g>
    <g
       id="xtick_25">
      <g
         id="line2d_25">
        <g
           id="g212">
          <use
             style="fill:#262626;stroke:#262626"
             x="388.31113"
             xlink:href="#ma346141721"
             y="307.58401"
             id="use210"
             width="100%"
             height="100%" />
        </g>
      </g>
    </g>
    <g
       id="xtick_26">
      <g
         id="line2d_26">
        <g
           id="g218">
          <use
             style="fill:#262626;stroke:#262626"
             x="396.28046"
             xlink:href="#ma346141721"
             y="307.58401"
             id="use216"
             width="100%"
             height="100%" />
        </g>
      </g>
    </g>
    <g
       id="xtick_27">
      <g
         id="line2d_27">
        <g
           id="g224">
          <use
             style="fill:#262626;stroke:#262626"
             x="403.18384"
             xlink:href="#ma346141721"
             y="307.58401"
             id="use222"
             width="100%"
             height="100%" />
        </g>
      </g>
    </g>
    <g
       id="xtick_28">
      <g
         id="line2d_28">
        <g
           id="g230">
          <use
             style="fill:#262626;stroke:#262626"
             x="409.27304"
             xlink:href="#ma346141721"
             y="307.58401"
             id="use228"
             width="100%"
             height="100%" />
        </g>
      </g>
    </g>
    <g
       id="text_5">
      <!-- $t$ -->
      <g
         style="fill:#262626"
         transform="matrix(0.138,0,0,-0.138,233.72939,341.8339)"
         id="g239">
        <defs
           id="defs235">
          <path
             d="m 1286,2566 h 589 c 122,0 186,0 186,115 0,71 -39,71 -167,71 h -563 l 237,940 c 26,89 26,102 26,148 0,103 -84,160 -167,160 -51,0 -198,-19 -249,-225 L 928,2752 H 326 c -128,0 -185,0 -185,-122 0,-64 45,-64 166,-64 H 877 L 454,881 C 403,658 384,594 384,511 384,211 595,-64 954,-64 c 646,0 992,932 992,976 0,39 -26,58 -64,58 -13,0 -39,0 -52,-26 -6,-6 -12,-13 -57,-115 C 1638,511 1344,64 973,64 781,64 768,224 768,364 c 0,6 0,128 19,204 z"
             id="CMMI12-74"
             transform="scale(0.015625)" />
        </defs>
        <use
           transform="scale(0.996264)"
           xlink:href="#CMMI12-74"
           id="use237"
           x="0"
           y="0"
           width="100%"
           height="100%" />
      </g>
    </g>
  </g>
  <g
     id="matplotlib.axis_2">
    <g
       id="ytick_1">
      <g
         id="line2d_29">
        <defs
           id="defs244">
          <path
             d="M 0,0 H -6"
             id="m674d4b3bef"
             style="stroke:#262626;stroke-width:1.25" />
        </defs>
        <g
           id="g248">
          <use
             style="fill:#262626;stroke:#262626;stroke-width:1.25"
             x="57.599998"
             xlink:href="#m674d4b3bef"
             y="307.58401"
             id="use246"
             width="100%"
             height="100%" />
        </g>
      </g>
      <g
         id="text_6">
        <!-- $\mathdefault{0}$ -->
        <g
           style="fill:#262626"
           transform="matrix(0.1265,0,0,-0.1265,41.929977,311.95994)"
           id="g253">
          <use
             transform="scale(0.996264)"
             xlink:href="#CMR17-30"
             id="use251"
             x="0"
             y="0"
             width="100%"
             height="100%" />
        </g>
      </g>
    </g>
    <g
       id="ytick_2">
      <g
         id="line2d_30">
        <g
           id="g259">
          <use
             style="fill:#262626;stroke:#262626;stroke-width:1.25"
             x="57.599998"
             xlink:href="#m674d4b3bef"
             y="254.3616"
             id="use257"
             width="100%"
             height="100%" />
        </g>
      </g>
      <g
         id="text_7">
        <!-- $\mathdefault{2}$ -->
        <g
           style="fill:#262626"
           transform="matrix(0.1265,0,0,-0.1265,41.929977,258.73754)"
           id="g264">
          <use
             transform="scale(0.996264)"
             xlink:href="#CMR17-32"
             id="use262"
             x="0"
             y="0"
             width="100%"
             height="100%" />
        </g>
      </g>
    </g>
    <g
       id="ytick_3">
      <g
         id="line2d_31">
        <g
           id="g270">
          <use
             style="fill:#262626;stroke:#262626;stroke-width:1.25"
             x="57.599998"
             xlink:href="#m674d4b3bef"
             y="201.13921"
             id="use268"
             width="100%"
             height="100%" />
        </g>
      </g>
      <g
         id="text_8">
        <!-- $\mathdefault{4}$ -->
        <g
           style="fill:#262626"
           transform="matrix(0.1265,0,0,-0.1265,41.929977,205.51514)"
           id="g278">
          <defs
             id="defs274">
            <path
               d="m 2150,4122 c 0,134 -6,134 -121,134 L 128,1254 V 1088 H 1779 V 457 c 0,-233 -13,-297 -461,-297 H 1197 V 0 c 205,0 550,0 768,0 217,0 563,0 768,0 v 160 h -122 c -448,0 -461,64 -461,297 v 631 h 653 v 166 H 2150 Z M 1798,3703 V 1254 H 256 Z"
               id="CMR17-34"
               transform="scale(0.015625)" />
          </defs>
          <use
             transform="scale(0.996264)"
             xlink:href="#CMR17-34"
             id="use276"
             x="0"
             y="0"
             width="100%"
             height="100%" />
        </g>
      </g>
    </g>
    <g
       id="ytick_4">
      <g
         id="line2d_32">
        <g
           id="g284">
          <use
             style="fill:#262626;stroke:#262626;stroke-width:1.25"
             x="57.599998"
             xlink:href="#m674d4b3bef"
             y="147.91679"
             id="use282"
             width="100%"
             height="100%" />
        </g>
      </g>
      <g
         id="text_9">
        <!-- $\mathdefault{6}$ -->
        <g
           style="fill:#262626"
           transform="matrix(0.1265,0,0,-0.1265,41.929977,152.29274)"
           id="g292">
          <defs
             id="defs288">
            <path
               d="m 678,2176 c 0,1514 717,1856 1133,1856 135,0 461,-23 589,-256 -102,0 -294,0 -294,-223 0,-172 140,-230 230,-230 58,0 230,25 230,237 0,394 -320,619 -761,619 -762,0 -1562,-789 -1562,-2195 0,-1731 723,-2112 1235,-2112 621,0 1210,555 1210,1411 0,798 -518,1379 -1171,1379 -391,0 -679,-255 -839,-702 z M 1478,25 c -787,0 -787,1175 -787,1411 0,460 218,1124 813,1124 109,0 422,0 634,-440 115,-250 115,-511 115,-831 0,-345 0,-599 -135,-855 C 1978,171 1773,25 1478,25 Z"
               id="CMR17-36"
               transform="scale(0.015625)" />
          </defs>
          <use
             transform="scale(0.996264)"
             xlink:href="#CMR17-36"
             id="use290"
             x="0"
             y="0"
             width="100%"
             height="100%" />
        </g>
      </g>
    </g>
    <g
       id="ytick_5">
      <g
         id="line2d_33">
        <g
           id="g298">
          <use
             style="fill:#262626;stroke:#262626;stroke-width:1.25"
             x="57.599998"
             xlink:href="#m674d4b3bef"
             y="94.694397"
             id="use296"
             width="100%"
             height="100%" />
        </g>
      </g>
      <g
         id="text_10">
        <!-- $\mathdefault{8}$ -->
        <g
           style="fill:#262626"
           transform="matrix(0.1265,0,0,-0.1265,41.929977,99.070339)"
           id="g306">
          <defs
             id="defs302">
            <path
               d="m 1741,2264 c 403,203 813,509 813,999 0,578 -564,916 -1082,916 -582,0 -1094,-420 -1094,-999 0,-159 38,-433 288,-675 64,-63 332,-254 505,-375 C 883,1983 211,1634 211,934 211,279 838,-128 1459,-128 c 685,0 1261,490 1261,1138 0,580 -390,847 -646,1019 z m -839,558 c -51,32 -307,229 -307,529 0,388 403,681 864,681 506,0 877,-356 877,-770 0,-593 -666,-931 -698,-931 -6,0 -12,0 -64,39 z M 2080,1519 c 96,-70 403,-279 403,-668 C 2483,381 2010,25 1472,25 890,25 448,438 448,940 c 0,503 390,922 832,1120 z"
               id="CMR17-38"
               transform="scale(0.015625)" />
          </defs>
          <use
             transform="scale(0.996264)"
             xlink:href="#CMR17-38"
             id="use304"
             x="0"
             y="0"
             width="100%"
             height="100%" />
        </g>
      </g>
    </g>
    <g
       id="ytick_6">
      <g
         id="line2d_34">
        <g
           id="g312">
          <use
             style="fill:#262626;stroke:#262626;stroke-width:1.25"
             x="57.599998"
             xlink:href="#m674d4b3bef"
             y="41.472"
             id="use310"
             width="100%"
             height="100%" />
        </g>
      </g>
      <g
         id="text_11">
        <!-- $\mathdefault{10}$ -->
        <g
           style="fill:#262626"
           transform="matrix(0.1265,0,0,-0.1265,35.759953,45.847939)"
           id="g319">
          <use
             transform="scale(0.996264)"
             xlink:href="#CMR17-31"
             id="use315"
             x="0"
             y="0"
             width="100%"
             height="100%" />
          <use
             transform="matrix(0.996264,0,0,0.996264,45.690477,0)"
             xlink:href="#CMR17-30"
             id="use317"
             x="0"
             y="0"
             width="100%"
             height="100%" />
        </g>
      </g>
    </g>
    <g
       id="text_12">
      <!-- $\Vert \mathbf{A} + t \mathbf{B} \Vert_{2}$ -->
      <g
         style="fill:#262626"
         transform="matrix(0,-0.138,-0.138,0,28.322845,205.93371)"
         id="g343">
        <defs
           id="defs327">
          <path
             d="m 1103,4582 c 0,103 0,218 -128,218 -128,0 -128,-141 -128,-237 v -5926 c 0,-103 0,-237 128,-237 128,0 128,115 128,218 z m 1248,-19 c 0,103 0,237 -128,237 -128,0 -128,-115 -128,-218 v -5964 c 0,-103 0,-218 128,-218 128,0 128,141 128,237 z"
             id="CMSY10-6b"
             transform="scale(0.015625)" />
          <path
             d="m 2931,4301 c -45,115 -57,147 -211,147 -160,0 -173,-32 -218,-147 L 915,413 C 870,311 870,299 691,279 531,260 506,260 365,260 H 250 V -13 C 416,0 800,0 986,0 c 172,0 640,0 787,-13 v 273 c -141,0 -384,0 -563,71 19,59 19,71 32,97 l 339,834 H 3296 L 3699,260 H 3098 V 0 c 204,0 825,0 1068,0 205,0 858,0 1018,-13 V 260 H 4576 Z M 2438,3367 3181,1536 H 1690 Z"
             id="CMBX12-41"
             transform="scale(0.015625)" />
          <path
             d="m 2413,1472 h 1696 c 89,0 198,0 198,108 0,115 -102,115 -198,115 H 2413 v 1691 c 0,89 0,198 -109,198 -115,0 -115,-102 -115,-198 V 1695 H 493 c -90,0 -199,0 -199,-108 0,-115 103,-115 199,-115 H 2189 V -218 c 0,-89 0,-198 109,-198 115,0 115,102 115,198 z"
             id="CMR17-2b"
             transform="scale(0.015625)" />
          <path
             d="M 250,4370 V 4096 H 928 V 273 H 250 V 0 h 2892 c 1056,0 1575,565 1575,1174 0,604 -531,1042 -1306,1099 922,173 1101,697 1101,997 0,588 -538,1100 -1562,1100 z M 1715,2368 v 1728 h 1159 c 659,0 793,-499 793,-820 0,-448 -249,-908 -998,-908 z m 0,-2095 v 1885 h 1274 c 749,0 857,-686 857,-971 0,-400 -217,-914 -953,-914 z"
             id="CMBX12-42"
             transform="scale(0.015625)" />
        </defs>
        <use
           transform="scale(0.996264)"
           xlink:href="#CMSY10-6b"
           id="use329"
           x="0"
           y="0"
           width="100%"
           height="100%" />
        <use
           transform="matrix(0.996264,0,0,0.996264,49.813383,0)"
           xlink:href="#CMBX12-41"
           id="use331"
           x="0"
           y="0"
           width="100%"
           height="100%" />
        <use
           transform="matrix(0.996264,0,0,0.996264,156.58898,0)"
           xlink:href="#CMR17-2b"
           id="use333"
           x="0"
           y="0"
           width="100%"
           height="100%" />
        <use
           transform="matrix(0.996264,0,0,0.996264,250.44298,0)"
           xlink:href="#CMMI12-74"
           id="use335"
           x="0"
           y="0"
           width="100%"
           height="100%" />
        <use
           transform="matrix(0.996264,0,0,0.996264,285.66931,0)"
           xlink:href="#CMBX12-42"
           id="use337"
           x="0"
           y="0"
           width="100%"
           height="100%" />
        <use
           transform="matrix(0.996264,0,0,0.996264,365.34745,0)"
           xlink:href="#CMSY10-6b"
           id="use339"
           x="0"
           y="0"
           width="100%"
           height="100%" />
        <use
           transform="matrix(0.697382,0,0,0.697382,415.16083,-14.943915)"
           xlink:href="#CMR17-32"
           id="use341"
           x="0"
           y="0"
           width="100%"
           height="100%" />
      </g>
    </g>
  </g>
  <g
     id="line2d_35">
    <path
       clip-path="url(#p0ba4bc4b25)"
       d="m 57.6,269.84009 58.62631,-0.53224 30.38558,-0.48903 21.44865,-0.55635 17.15892,-0.65963 14.2991,-0.76632 12.15423,-0.86441 10.72433,-0.97507 9.65189,-1.09194 8.93694,-1.23344 8.22198,-1.36229 7.50702,-1.46951 6.79208,-1.5461 6.43459,-1.68322 6.07712,-1.8122 5.71964,-1.92885 5.36216,-2.02894 5.36216,-2.26733 5.00469,-2.35508 5.00468,-2.61061 4.64721,-2.67634 4.64721,-2.94336 4.28973,-2.97621 4.28973,-3.24782 4.28973,-3.54348 3.93225,-3.53022 3.93225,-3.8224 3.93225,-4.13811 3.93225,-4.47922 3.93226,-4.84771 3.57477,-4.75162 3.57478,-5.10444 3.57477,-5.48285 3.57478,-5.88868 3.57477,-6.3239 3.57478,-6.79057 3.57477,-7.29099 3.57477,-7.82754 3.57478,-8.40281 3.57478,-9.01957 3.57477,-9.68077 3.57477,-10.3896 3.57478,-11.14944 3.57477,-11.96396 3.2173,-11.512288 3.2173,-12.265006 3.2173,-13.066222 3.21729,-13.919037 3.2173,-14.826756 3.2173,-15.792891 1.07243,-5.489624 v 0"
       style="fill:none;stroke:#000000;stroke-width:1.5;stroke-linecap:round"
       id="path347" />
  </g>
  <g
     id="patch_3">
    <path
       d="M 57.6,307.584 V 41.472"
       style="fill:none;stroke:#262626;stroke-width:1.25;stroke-linecap:square;stroke-linejoin:miter"
       id="path350" />
  </g>
  <g
     id="patch_4">
    <path
       d="M 414.72,307.584 V 41.472"
       style="fill:none;stroke:#262626;stroke-width:1.25;stroke-linecap:square;stroke-linejoin:miter"
       id="path353" />
  </g>
  <g
     id="patch_5">
    <path
       d="M 57.6,307.584 H 414.72"
       style="fill:none;stroke:#262626;stroke-width:1.25;stroke-linecap:square;stroke-linejoin:miter"
       id="path356" />
  </g>
  <g
     id="patch_6">
    <path
       d="M 57.6,41.472 H 414.72"
       style="fill:none;stroke:#262626;stroke-width:1.25;stroke-linecap:square;stroke-linejoin:miter"
       id="path359" />
  </g>
  <g
     id="text_13">
    <!-- Interpolation of Schatten 2-Norm -->
    <g
       style="fill:#262626"
       transform="matrix(0.138,0,0,-0.138,142.54359,35.472)"
       id="g440">
      <defs
         id="defs380">
        <path
           d="M 1094,4416 H 557 V 0 h 537 z"
           id="CMSS17-49"
           transform="scale(0.015625)" />
        <path
           d="m 2618,1877 c 0,406 -96,939 -820,939 -409,0 -678,-210 -857,-427 v 369 H 474 V 0 h 486 v 1559 c 0,405 154,869 589,869 563,0 582,-380 582,-599 V 0 h 487 z"
           id="CMSS17-6e"
           transform="scale(0.015625)" />
        <path
           d="m 1069,2368 h 832 v 369 h -832 v 783 H 614 V 2737 H 109 V 2368 H 602 V 749 c 0,-365 83,-813 505,-813 320,0 615,89 896,236 L 1901,548 C 1747,414 1562,337 1363,337 c -281,0 -294,359 -294,519 z"
           id="CMSS17-74"
           transform="scale(0.015625)" />
        <path
           d="m 2502,1377 c 0,213 -12,626 -217,968 -224,368 -589,471 -864,471 C 755,2816 192,2188 192,1375 192,582 774,-64 1510,-64 c 288,0 640,83 960,312 0,26 -12,166 -19,172 0,13 -19,210 -19,236 C 2125,407 1773,325 1517,325 1107,325 666,667 646,1377 Z M 698,1728 c 83,356 364,693 723,693 96,0 544,0 659,-693 z"
           id="CMSS17-65"
           transform="scale(0.015625)" />
        <path
           d="m 954,1363 c 0,602 441,1005 1004,1005 v 421 c -409,0 -793,-204 -1024,-536 v 505 H 480 V 0 h 474 z"
           id="CMSS17-72"
           transform="scale(0.015625)" />
        <path
           d="m 966,333 c 212,-204 500,-338 807,-338 595,0 1107,608 1107,1417 0,747 -384,1404 -934,1404 -320,0 -704,-114 -992,-344 v 293 H 480 v -3981 h 486 z m 0,1767 c 52,76 269,315 621,315 448,0 807,-455 807,-1003 0,-625 -436,-1028 -864,-1028 -128,0 -263,31 -391,139 C 966,674 966,768 966,857 Z"
           id="CMSS17-70"
           transform="scale(0.015625)" />
        <path
           d="m 2829,1356 c 0,820 -608,1460 -1325,1460 C 768,2816 173,2157 173,1356 173,544 787,-64 1498,-64 c 729,0 1331,627 1331,1420 z M 1504,337 c -454,0 -845,372 -845,1071 0,743 455,1019 839,1019 416,0 844,-301 844,-1019 0,-725 -416,-1071 -838,-1071 z"
           id="CMSS17-6f"
           transform="scale(0.015625)" />
        <path
           d="M 947,4416 H 474 V 0 h 473 z"
           id="CMSS17-6c"
           transform="scale(0.015625)" />
        <path
           d="m 2406,1791 c 0,601 -428,1017 -1004,1017 -282,0 -589,-51 -941,-255 l 38,-418 c 160,113 435,297 896,297 327,0 525,-252 525,-650 V 1536 C 896,1536 256,1238 256,726 256,461 416,-64 947,-64 c 96,0 615,0 986,281 V -19 h 473 z M 1920,816 c 0,-115 0,-268 -192,-382 -166,-109 -378,-109 -467,-109 -320,0 -538,186 -538,419 0,467 999,467 1197,467 z"
           id="CMSS17-61"
           transform="scale(0.015625)" />
        <path
           d="M 979,4183 H 442 V 3648 H 979 Z M 947,2739 H 474 V 0 h 473 z"
           id="CMSS17-69"
           transform="scale(0.015625)" />
        <path
           d="m 1075,2368 h 647 v 369 h -660 v 822 c 0,455 346,533 544,533 64,0 244,0 474,-83 v 420 c -147,32 -326,51 -467,51 C 1018,4480 602,3993 602,3359 V 2737 H 160 V 2368 H 602 V 0 h 473 z"
           id="CMSS17-66"
           transform="scale(0.015625)" />
        <path
           d="m 2797,4169 c -282,165 -589,311 -1107,311 -826,0 -1357,-601 -1357,-1214 0,-241 70,-513 320,-791 249,-279 531,-354 889,-442 148,-39 397,-109 442,-127 358,-139 531,-462 531,-766 0,-398 -313,-822 -870,-822 -192,0 -755,0 -1287,501 L 269,318 c 525,-382 1094,-446 1382,-446 787,0 1351,616 1351,1314 0,254 -77,577 -346,875 -262,286 -493,349 -1018,488 -300,77 -492,128 -652,324 -109,140 -167,273 -167,444 0,356 307,743 871,743 281,0 646,-58 1017,-400 z"
           id="CMSS17-53"
           transform="scale(0.015625)" />
        <path
           d="m 2464,2541 c 0,44 -294,173 -371,198 -211,77 -480,77 -551,77 C 710,2816 211,2093 211,1363 211,595 768,-64 1517,-64 c 429,0 736,140 985,306 l -38,422 C 2189,453 1869,337 1523,337 c -499,0 -825,437 -825,1032 0,462 211,1045 851,1045 352,0 550,-71 845,-269 z"
           id="CMSS17-63"
           transform="scale(0.015625)" />
        <path
           d="m 2618,1891 c 0,401 -96,929 -820,929 -403,0 -665,-197 -851,-413 V 4448 H 474 V 32 h 486 v 1541 c 0,400 154,859 589,859 563,0 582,-376 582,-593 V 32 h 487 z"
           id="CMSS17-68"
           transform="scale(0.015625)" />
        <path
           d="m 1651,1357 c 179,184 448,407 634,630 179,217 416,524 416,970 0,700 -474,1331 -1280,1331 -634,0 -999,-395 -1171,-1014 l 249,-345 c 141,581 339,951 839,951 550,0 857,-447 857,-938 0,-587 -448,-1041 -787,-1379 C 1030,1187 659,804 301,408 V 0 H 2701 V 433 H 1613 c -77,0 -154,0 -231,0 H 742 v 6 z"
           id="CMSS17-32"
           transform="scale(0.015625)" />
        <path
           d="m 1664,1216 v 369 H 64 v -369 z"
           id="CMSS17-2d"
           transform="scale(0.015625)" />
        <path
           d="m 1466,4180 -116,236 H 563 V 0 h 499 v 3926 l 7,6 c 45,-115 70,-172 333,-738 L 2771,236 2886,0 h 788 V 4416 H 3174 V 490 l -6,-7 c -45,115 -70,172 -333,738 z"
           id="CMSS17-4e"
           transform="scale(0.015625)" />
        <path
           d="m 4288,1877 c 0,431 -109,939 -826,939 -480,0 -768,-300 -896,-485 -115,339 -384,485 -768,485 -435,0 -710,-248 -857,-427 v 369 H 474 V 0 h 486 v 1559 c 0,380 141,869 595,869 583,0 583,-412 583,-599 V 0 h 486 v 1559 c 0,380 141,869 595,869 583,0 583,-412 583,-599 V 0 h 486 z"
           id="CMSS17-6d"
           transform="scale(0.015625)" />
      </defs>
      <use
         transform="scale(0.996264)"
         xlink:href="#CMSS17-49"
         id="use382"
         x="0"
         y="0"
         width="100%"
         height="100%" />
      <use
         transform="matrix(0.996264,0,0,0.996264,25.783926,0)"
         xlink:href="#CMSS17-6e"
         id="use384"
         x="0"
         y="0"
         width="100%"
         height="100%" />
      <use
         transform="matrix(0.996264,0,0,0.996264,73.988869,0)"
         xlink:href="#CMSS17-74"
         id="use386"
         x="0"
         y="0"
         width="100%"
         height="100%" />
      <use
         transform="matrix(0.996264,0,0,0.996264,107.82044,0)"
         xlink:href="#CMSS17-65"
         id="use388"
         x="0"
         y="0"
         width="100%"
         height="100%" />
      <use
         transform="matrix(0.996264,0,0,0.996264,149.45926,0)"
         xlink:href="#CMSS17-72"
         id="use390"
         x="0"
         y="0"
         width="100%"
         height="100%" />
      <use
         transform="matrix(0.996264,0,0,0.996264,181.36903,0)"
         xlink:href="#CMSS17-70"
         id="use392"
         x="0"
         y="0"
         width="100%"
         height="100%" />
      <use
         transform="matrix(0.996264,0,0,0.996264,232.17641,0)"
         xlink:href="#CMSS17-6f"
         id="use394"
         x="0"
         y="0"
         width="100%"
         height="100%" />
      <use
         transform="matrix(0.996264,0,0,0.996264,279.02003,0)"
         xlink:href="#CMSS17-6c"
         id="use396"
         x="0"
         y="0"
         width="100%"
         height="100%" />
      <use
         transform="matrix(0.996264,0,0,0.996264,301.20076,0)"
         xlink:href="#CMSS17-61"
         id="use398"
         x="0"
         y="0"
         width="100%"
         height="100%" />
      <use
         transform="matrix(0.996264,0,0,0.996264,346.12268,0)"
         xlink:href="#CMSS17-74"
         id="use400"
         x="0"
         y="0"
         width="100%"
         height="100%" />
      <use
         transform="matrix(0.996264,0,0,0.996264,379.95425,0)"
         xlink:href="#CMSS17-69"
         id="use402"
         x="0"
         y="0"
         width="100%"
         height="100%" />
      <use
         transform="matrix(0.996264,0,0,0.996264,402.13497,0)"
         xlink:href="#CMSS17-6f"
         id="use404"
         x="0"
         y="0"
         width="100%"
         height="100%" />
      <use
         transform="matrix(0.996264,0,0,0.996264,448.97859,0)"
         xlink:href="#CMSS17-6e"
         id="use406"
         x="0"
         y="0"
         width="100%"
         height="100%" />
      <use
         transform="matrix(0.996264,0,0,0.996264,528.41265,0)"
         xlink:href="#CMSS17-6f"
         id="use408"
         x="0"
         y="0"
         width="100%"
         height="100%" />
      <use
         transform="matrix(0.996264,0,0,0.996264,575.25627,0)"
         xlink:href="#CMSS17-66"
         id="use410"
         x="0"
         y="0"
         width="100%"
         height="100%" />
      <use
         transform="matrix(0.996264,0,0,0.996264,635.11204,0)"
         xlink:href="#CMSS17-53"
         id="use412"
         x="0"
         y="0"
         width="100%"
         height="100%" />
      <use
         transform="matrix(0.996264,0,0,0.996264,687.16056,0)"
         xlink:href="#CMSS17-63"
         id="use414"
         x="0"
         y="0"
         width="100%"
         height="100%" />
      <use
         transform="matrix(0.996264,0,0,0.996264,728.79938,0)"
         xlink:href="#CMSS17-68"
         id="use416"
         x="0"
         y="0"
         width="100%"
         height="100%" />
      <use
         transform="matrix(0.996264,0,0,0.996264,777.00432,0)"
         xlink:href="#CMSS17-61"
         id="use418"
         x="0"
         y="0"
         width="100%"
         height="100%" />
      <use
         transform="matrix(0.996264,0,0,0.996264,821.92624,0)"
         xlink:href="#CMSS17-74"
         id="use420"
         x="0"
         y="0"
         width="100%"
         height="100%" />
      <use
         transform="matrix(0.996264,0,0,0.996264,855.75781,0)"
         xlink:href="#CMSS17-74"
         id="use422"
         x="0"
         y="0"
         width="100%"
         height="100%" />
      <use
         transform="matrix(0.996264,0,0,0.996264,889.58938,0)"
         xlink:href="#CMSS17-65"
         id="use424"
         x="0"
         y="0"
         width="100%"
         height="100%" />
      <use
         transform="matrix(0.996264,0,0,0.996264,931.2282,0)"
         xlink:href="#CMSS17-6e"
         id="use426"
         x="0"
         y="0"
         width="100%"
         height="100%" />
      <use
         transform="matrix(0.996264,0,0,0.996264,1010.6623,0)"
         xlink:href="#CMSS17-32"
         id="use428"
         x="0"
         y="0"
         width="100%"
         height="100%" />
      <use
         transform="matrix(0.996264,0,0,0.996264,1057.5059,0)"
         xlink:href="#CMSS17-2d"
         id="use430"
         x="0"
         y="0"
         width="100%"
         height="100%" />
      <use
         transform="matrix(0.996264,0,0,0.996264,1088.735,0)"
         xlink:href="#CMSS17-4e"
         id="use432"
         x="0"
         y="0"
         width="100%"
         height="100%" />
      <use
         transform="matrix(0.996264,0,0,0.996264,1154.7965,0)"
         xlink:href="#CMSS17-6f"
         id="use434"
         x="0"
         y="0"
         width="100%"
         height="100%" />
      <use
         transform="matrix(0.996264,0,0,0.996264,1199.0377,0)"
         xlink:href="#CMSS17-72"
         id="use436"
         x="0"
         y="0"
         width="100%"
         height="100%" />
      <use
         transform="matrix(0.996264,0,0,0.996264,1230.9475,0)"
         xlink:href="#CMSS17-6d"
         id="use438"
         x="0"
         y="0"
         width="100%"
         height="100%" />
    </g>
  </g>
  <defs
     id="defs448">
    <clipPath
       id="p0ba4bc4b25">
      <rect
         height="266.112"
         width="357.12"
         x="57.6"
         y="41.472"
         id="rect445" />
    </clipPath>
  </defs>
</svg>
