<?xml version="1.0" encoding="utf-8" standalone="no"?>
<!DOCTYPE svg PUBLIC "-//W3C//DTD SVG 1.1//EN"
  "http://www.w3.org/Graphics/SVG/1.1/DTD/svg11.dtd">
<svg height="360pt" version="1.1" viewBox="0 0 597.6 360" width="597.6pt" xmlns="http://www.w3.org/2000/svg" xmlns:xlink="http://www.w3.org/1999/xlink">
 <metadata>
  <rdf:RDF xmlns:cc="http://creativecommons.org/ns#" xmlns:dc="http://purl.org/dc/elements/1.1/" xmlns:rdf="http://www.w3.org/1999/02/22-rdf-syntax-ns#">
   <cc:Work>
    <dc:type rdf:resource="http://purl.org/dc/dcmitype/StillImage"/>
    <dc:date>2022-08-28T22:21:33.915482</dc:date>
    <dc:format>image/svg+xml</dc:format>
    <dc:creator>
     <cc:Agent>
      <dc:title>Matplotlib v3.4.2, https://matplotlib.org/</dc:title>
     </cc:Agent>
    </dc:creator>
   </cc:Work>
  </rdf:RDF>
 </metadata>
 <defs>
  <style type="text/css">*{stroke-linecap:butt;stroke-linejoin:round;}</style>
 </defs>
 <g id="figure_1">
  <g id="patch_1">
   <path d="M 0 360 
L 597.6 360 
L 597.6 0 
L 0 0 
z
" style="fill:#ffffff;"/>
  </g>
  <g id="axes_1">
   <g id="matplotlib.axis_1">
    <g id="xtick_1">
     <g id="line2d_1">
      <defs>
       <path d="M 0 0 
L 0 6 
" id="m0b37cb5187" style="stroke:#262626;stroke-width:1.25;"/>
      </defs>
      <g>
       <use style="fill:#262626;stroke:#262626;stroke-width:1.25;" x="106.780458" xlink:href="#m0b37cb5187" y="306.506392"/>
      </g>
     </g>
     <g id="text_1">
      <!-- $\mathdefault{15}$ -->
      <g style="fill:#262626;" transform="translate(100.342184 325.138787)scale(0.132 -0.132)">
       <defs>
        <path d="M 1702 4058 
C 1702 4192 1696 4192 1606 4192 
C 1357 3916 979 3827 621 3827 
C 602 3827 570 3827 563 3808 
C 557 3795 557 3782 557 3648 
C 755 3648 1088 3686 1344 3839 
L 1344 461 
C 1344 236 1331 160 781 160 
L 589 160 
L 589 0 
C 896 0 1216 0 1523 0 
C 1830 0 2150 0 2458 0 
L 2458 160 
L 2266 160 
C 1715 160 1702 230 1702 458 
L 1702 4058 
z
" id="CMR17-31" transform="scale(0.015625)"/>
        <path d="M 730 3692 
C 794 3666 1056 3584 1325 3584 
C 1920 3584 2246 3911 2432 4100 
C 2432 4157 2432 4192 2394 4192 
C 2387 4192 2374 4192 2323 4163 
C 2099 4058 1837 3973 1517 3973 
C 1325 3973 1037 3999 723 4139 
C 653 4171 640 4171 634 4171 
C 602 4171 595 4164 595 4037 
L 595 2203 
C 595 2089 595 2057 659 2057 
C 691 2057 704 2070 736 2114 
C 941 2401 1222 2522 1542 2522 
C 1766 2522 2246 2382 2246 1289 
C 2246 1085 2246 715 2054 421 
C 1894 159 1645 25 1370 25 
C 947 25 518 320 403 814 
C 429 807 480 795 506 795 
C 589 795 749 840 749 1038 
C 749 1210 627 1280 506 1280 
C 358 1280 262 1190 262 1011 
C 262 454 704 -128 1382 -128 
C 2042 -128 2669 440 2669 1264 
C 2669 2030 2170 2624 1549 2624 
C 1222 2624 947 2503 730 2274 
L 730 3692 
z
" id="CMR17-35" transform="scale(0.015625)"/>
       </defs>
       <use transform="scale(0.996264)" xlink:href="#CMR17-31"/>
       <use transform="translate(45.690477 0)scale(0.996264)" xlink:href="#CMR17-35"/>
      </g>
     </g>
    </g>
    <g id="xtick_2">
     <g id="line2d_2">
      <g>
       <use style="fill:#262626;stroke:#262626;stroke-width:1.25;" x="140.374248" xlink:href="#m0b37cb5187" y="306.506392"/>
      </g>
     </g>
     <g id="text_2">
      <!-- $\mathdefault{30}$ -->
      <g style="fill:#262626;" transform="translate(133.935974 325.138787)scale(0.132 -0.132)">
       <defs>
        <path d="M 1414 2157 
C 1984 2157 2234 1662 2234 1090 
C 2234 320 1824 25 1453 25 
C 1114 25 563 194 390 693 
C 422 680 454 680 486 680 
C 640 680 755 782 755 948 
C 755 1133 614 1216 486 1216 
C 378 1216 211 1165 211 926 
C 211 335 787 -128 1466 -128 
C 2176 -128 2720 430 2720 1085 
C 2720 1707 2208 2157 1600 2227 
C 2086 2328 2554 2756 2554 3329 
C 2554 3820 2048 4179 1472 4179 
C 890 4179 378 3829 378 3329 
C 378 3110 544 3072 627 3072 
C 762 3072 877 3155 877 3321 
C 877 3486 762 3569 627 3569 
C 602 3569 570 3569 544 3557 
C 730 3959 1235 4032 1459 4032 
C 1683 4032 2106 3925 2106 3320 
C 2106 3143 2080 2828 1862 2550 
C 1670 2304 1453 2304 1242 2284 
C 1210 2284 1062 2269 1037 2269 
C 992 2263 966 2257 966 2208 
C 966 2163 973 2157 1101 2157 
L 1414 2157 
z
" id="CMR17-33" transform="scale(0.015625)"/>
        <path d="M 2688 2025 
C 2688 2416 2682 3080 2413 3591 
C 2176 4039 1798 4198 1466 4198 
C 1158 4198 768 4058 525 3597 
C 269 3118 243 2524 243 2025 
C 243 1661 250 1106 448 619 
C 723 -39 1216 -128 1466 -128 
C 1760 -128 2208 -7 2470 600 
C 2662 1042 2688 1559 2688 2025 
z
M 1466 -26 
C 1056 -26 813 325 723 812 
C 653 1188 653 1738 653 2096 
C 653 2588 653 2997 736 3387 
C 858 3929 1216 4096 1466 4096 
C 1728 4096 2067 3923 2189 3400 
C 2272 3036 2278 2607 2278 2096 
C 2278 1680 2278 1169 2202 792 
C 2067 95 1690 -26 1466 -26 
z
" id="CMR17-30" transform="scale(0.015625)"/>
       </defs>
       <use transform="scale(0.996264)" xlink:href="#CMR17-33"/>
       <use transform="translate(45.690477 0)scale(0.996264)" xlink:href="#CMR17-30"/>
      </g>
     </g>
    </g>
    <g id="xtick_3">
     <g id="line2d_3">
      <g>
       <use style="fill:#262626;stroke:#262626;stroke-width:1.25;" x="173.968038" xlink:href="#m0b37cb5187" y="306.506392"/>
      </g>
     </g>
     <g id="text_3">
      <!-- $\mathdefault{45}$ -->
      <g style="fill:#262626;" transform="translate(167.529764 325.138787)scale(0.132 -0.132)">
       <defs>
        <path d="M 2150 4122 
C 2150 4256 2144 4256 2029 4256 
L 128 1254 
L 128 1088 
L 1779 1088 
L 1779 457 
C 1779 224 1766 160 1318 160 
L 1197 160 
L 1197 0 
C 1402 0 1747 0 1965 0 
C 2182 0 2528 0 2733 0 
L 2733 160 
L 2611 160 
C 2163 160 2150 224 2150 457 
L 2150 1088 
L 2803 1088 
L 2803 1254 
L 2150 1254 
L 2150 4122 
z
M 1798 3703 
L 1798 1254 
L 256 1254 
L 1798 3703 
z
" id="CMR17-34" transform="scale(0.015625)"/>
       </defs>
       <use transform="scale(0.996264)" xlink:href="#CMR17-34"/>
       <use transform="translate(45.690477 0)scale(0.996264)" xlink:href="#CMR17-35"/>
      </g>
     </g>
    </g>
    <g id="xtick_4">
     <g id="line2d_4">
      <g>
       <use style="fill:#262626;stroke:#262626;stroke-width:1.25;" x="207.561829" xlink:href="#m0b37cb5187" y="306.506392"/>
      </g>
     </g>
     <g id="text_4">
      <!-- $\mathdefault{60}$ -->
      <g style="fill:#262626;" transform="translate(201.123555 325.138787)scale(0.132 -0.132)">
       <defs>
        <path d="M 678 2176 
C 678 3690 1395 4032 1811 4032 
C 1946 4032 2272 4009 2400 3776 
C 2298 3776 2106 3776 2106 3553 
C 2106 3381 2246 3323 2336 3323 
C 2394 3323 2566 3348 2566 3560 
C 2566 3954 2246 4179 1805 4179 
C 1043 4179 243 3390 243 1984 
C 243 253 966 -128 1478 -128 
C 2099 -128 2688 427 2688 1283 
C 2688 2081 2170 2662 1517 2662 
C 1126 2662 838 2407 678 1960 
L 678 2176 
z
M 1478 25 
C 691 25 691 1200 691 1436 
C 691 1896 909 2560 1504 2560 
C 1613 2560 1926 2560 2138 2120 
C 2253 1870 2253 1609 2253 1289 
C 2253 944 2253 690 2118 434 
C 1978 171 1773 25 1478 25 
z
" id="CMR17-36" transform="scale(0.015625)"/>
       </defs>
       <use transform="scale(0.996264)" xlink:href="#CMR17-36"/>
       <use transform="translate(45.690477 0)scale(0.996264)" xlink:href="#CMR17-30"/>
      </g>
     </g>
    </g>
    <g id="xtick_5">
     <g id="line2d_5">
      <g>
       <use style="fill:#262626;stroke:#262626;stroke-width:1.25;" x="241.155619" xlink:href="#m0b37cb5187" y="306.506392"/>
      </g>
     </g>
     <g id="text_5">
      <!-- $\mathdefault{75}$ -->
      <g style="fill:#262626;" transform="translate(234.717345 325.138787)scale(0.132 -0.132)">
       <defs>
        <path d="M 2886 3941 
L 2886 4081 
L 1382 4081 
C 634 4081 621 4165 595 4288 
L 480 4288 
L 294 3094 
L 410 3094 
C 429 3215 474 3540 550 3661 
C 589 3712 1062 3712 1171 3712 
L 2579 3712 
L 1869 2661 
C 1395 1954 1069 999 1069 165 
C 1069 89 1069 -128 1299 -128 
C 1530 -128 1530 89 1530 171 
L 1530 465 
C 1530 1508 1709 2196 2003 2636 
L 2886 3941 
z
" id="CMR17-37" transform="scale(0.015625)"/>
       </defs>
       <use transform="scale(0.996264)" xlink:href="#CMR17-37"/>
       <use transform="translate(45.690477 0)scale(0.996264)" xlink:href="#CMR17-35"/>
      </g>
     </g>
    </g>
    <g id="xtick_6">
     <g id="line2d_6">
      <g>
       <use style="fill:#262626;stroke:#262626;stroke-width:1.25;" x="274.74941" xlink:href="#m0b37cb5187" y="306.506392"/>
      </g>
     </g>
     <g id="text_6">
      <!-- $\mathdefault{90}$ -->
      <g style="fill:#262626;" transform="translate(268.311136 325.138787)scale(0.132 -0.132)">
       <defs>
        <path d="M 2253 1864 
C 2253 464 1670 31 1190 31 
C 1043 31 685 31 538 294 
C 704 268 826 357 826 518 
C 826 692 685 749 595 749 
C 538 749 365 723 365 506 
C 365 71 742 -128 1203 -128 
C 1939 -128 2688 674 2688 2073 
C 2688 3817 1971 4179 1485 4179 
C 851 4179 243 3628 243 2778 
C 243 1991 762 1408 1414 1408 
C 1952 1408 2189 1903 2253 2112 
L 2253 1864 
z
M 1427 1510 
C 1254 1510 1011 1542 813 1922 
C 678 2169 678 2461 678 2771 
C 678 3146 678 3405 858 3684 
C 947 3817 1114 4032 1485 4032 
C 2240 4032 2240 2885 2240 2632 
C 2240 2182 2035 1510 1427 1510 
z
" id="CMR17-39" transform="scale(0.015625)"/>
       </defs>
       <use transform="scale(0.996264)" xlink:href="#CMR17-39"/>
       <use transform="translate(45.690477 0)scale(0.996264)" xlink:href="#CMR17-30"/>
      </g>
     </g>
    </g>
    <g id="xtick_7">
     <g id="line2d_7">
      <g>
       <use style="fill:#262626;stroke:#262626;stroke-width:1.25;" x="308.3432" xlink:href="#m0b37cb5187" y="306.506392"/>
      </g>
     </g>
     <g id="text_7">
      <!-- $\mathdefault{105}$ -->
      <g style="fill:#262626;" transform="translate(298.685789 325.138787)scale(0.132 -0.132)">
       <use transform="scale(0.996264)" xlink:href="#CMR17-31"/>
       <use transform="translate(45.690477 0)scale(0.996264)" xlink:href="#CMR17-30"/>
       <use transform="translate(91.380954 0)scale(0.996264)" xlink:href="#CMR17-35"/>
      </g>
     </g>
    </g>
    <g id="xtick_8">
     <g id="line2d_8">
      <g>
       <use style="fill:#262626;stroke:#262626;stroke-width:1.25;" x="341.93699" xlink:href="#m0b37cb5187" y="306.506392"/>
      </g>
     </g>
     <g id="text_8">
      <!-- $\mathdefault{120}$ -->
      <g style="fill:#262626;" transform="translate(332.279579 325.138787)scale(0.132 -0.132)">
       <defs>
        <path d="M 2669 989 
L 2554 989 
C 2490 536 2438 459 2413 420 
C 2381 369 1920 369 1830 369 
L 602 369 
C 832 619 1280 1072 1824 1597 
C 2214 1967 2669 2402 2669 3035 
C 2669 3790 2067 4224 1395 4224 
C 691 4224 262 3604 262 3030 
C 262 2780 448 2748 525 2748 
C 589 2748 781 2787 781 3010 
C 781 3207 614 3264 525 3264 
C 486 3264 448 3258 422 3245 
C 544 3790 915 4058 1306 4058 
C 1862 4058 2227 3617 2227 3035 
C 2227 2479 1901 2000 1536 1584 
L 262 146 
L 262 0 
L 2515 0 
L 2669 989 
z
" id="CMR17-32" transform="scale(0.015625)"/>
       </defs>
       <use transform="scale(0.996264)" xlink:href="#CMR17-31"/>
       <use transform="translate(45.690477 0)scale(0.996264)" xlink:href="#CMR17-32"/>
       <use transform="translate(91.380954 0)scale(0.996264)" xlink:href="#CMR17-30"/>
      </g>
     </g>
    </g>
    <g id="xtick_9">
     <g id="line2d_9">
      <g>
       <use style="fill:#262626;stroke:#262626;stroke-width:1.25;" x="375.530781" xlink:href="#m0b37cb5187" y="306.506392"/>
      </g>
     </g>
     <g id="text_9">
      <!-- $\mathdefault{135}$ -->
      <g style="fill:#262626;" transform="translate(365.87337 325.138787)scale(0.132 -0.132)">
       <use transform="scale(0.996264)" xlink:href="#CMR17-31"/>
       <use transform="translate(45.690477 0)scale(0.996264)" xlink:href="#CMR17-33"/>
       <use transform="translate(91.380954 0)scale(0.996264)" xlink:href="#CMR17-35"/>
      </g>
     </g>
    </g>
    <g id="xtick_10">
     <g id="line2d_10">
      <g>
       <use style="fill:#262626;stroke:#262626;stroke-width:1.25;" x="409.124571" xlink:href="#m0b37cb5187" y="306.506392"/>
      </g>
     </g>
     <g id="text_10">
      <!-- $\mathdefault{150}$ -->
      <g style="fill:#262626;" transform="translate(399.46716 325.138787)scale(0.132 -0.132)">
       <use transform="scale(0.996264)" xlink:href="#CMR17-31"/>
       <use transform="translate(45.690477 0)scale(0.996264)" xlink:href="#CMR17-35"/>
       <use transform="translate(91.380954 0)scale(0.996264)" xlink:href="#CMR17-30"/>
      </g>
     </g>
    </g>
    <g id="text_11">
     <!-- sample index -->
     <g style="fill:#262626;" transform="translate(202.241047 341.658473)scale(0.144 -0.144)">
      <defs>
       <path d="M 1978 2697 
C 1978 2813 1971 2819 1933 2819 
C 1907 2819 1901 2813 1824 2717 
C 1805 2691 1747 2626 1728 2601 
C 1523 2819 1235 2819 1126 2819 
C 416 2819 160 2447 160 2076 
C 160 1498 813 1365 998 1325 
C 1402 1243 1542 1217 1677 1101 
C 1760 1025 1901 884 1901 654 
C 1901 384 1747 38 1158 38 
C 602 38 403 460 288 1021 
C 269 1110 269 1117 218 1117 
C 166 1117 160 1110 160 983 
L 160 63 
C 160 -51 166 -58 205 -58 
C 237 -58 243 -51 275 0 
C 314 57 410 211 448 276 
C 576 103 800 -64 1158 -64 
C 1792 -64 2131 283 2131 784 
C 2131 1112 1958 1285 1875 1362 
C 1683 1561 1459 1606 1190 1657 
C 838 1735 390 1825 390 2217 
C 390 2383 480 2737 1126 2737 
C 1811 2737 1850 2094 1862 1888 
C 1869 1856 1901 1849 1920 1849 
C 1978 1849 1978 1869 1978 1978 
L 1978 2697 
z
" id="CMR17-73" transform="scale(0.015625)"/>
       <path d="M 2304 1653 
C 2304 2072 2304 2294 2035 2543 
C 1798 2752 1523 2816 1306 2816 
C 800 2816 435 2407 435 1971 
C 435 1728 627 1728 666 1728 
C 749 1728 896 1778 896 1954 
C 896 2112 774 2181 666 2181 
C 640 2181 608 2174 589 2168 
C 723 2592 1069 2714 1293 2714 
C 1613 2714 1965 2429 1965 1885 
L 1965 1600 
C 1587 1600 1133 1549 774 1357 
C 371 1133 256 813 256 570 
C 256 77 832 -64 1171 -64 
C 1523 -64 1850 139 1990 511 
C 2003 233 2182 -18 2464 -18 
C 2598 -18 2938 70 2938 567 
L 2938 920 
L 2822 920 
L 2822 562 
C 2822 178 2650 128 2566 128 
C 2304 128 2304 458 2304 738 
L 2304 1653 
z
M 1965 870 
C 1965 317 1568 38 1216 38 
C 896 38 646 275 646 570 
C 646 761 730 1100 1101 1305 
C 1408 1478 1760 1504 1965 1504 
L 1965 870 
z
" id="CMR17-61" transform="scale(0.015625)"/>
       <path d="M 4326 1933 
C 4326 2252 4269 2790 3507 2790 
C 3072 2790 2771 2496 2656 2151 
L 2650 2151 
C 2573 2676 2195 2790 1837 2790 
C 1331 2790 1069 2400 973 2144 
L 966 2144 
L 966 2790 
L 211 2720 
L 211 2554 
C 589 2554 646 2515 646 2208 
L 646 428 
C 646 184 621 153 211 153 
L 211 -13 
C 365 0 646 0 813 0 
C 979 0 1267 0 1421 -13 
L 1421 153 
C 1011 153 986 178 986 428 
L 986 1658 
C 986 2247 1344 2688 1792 2688 
C 2266 2688 2317 2266 2317 1958 
L 2317 428 
C 2317 184 2291 153 1882 153 
L 1882 -13 
C 2035 0 2317 0 2483 0 
C 2650 0 2938 0 3091 -13 
L 3091 153 
C 2682 153 2656 178 2656 428 
L 2656 1658 
C 2656 2247 3014 2688 3462 2688 
C 3936 2688 3987 2266 3987 1958 
L 3987 428 
C 3987 184 3962 153 3552 153 
L 3552 -13 
C 3706 0 3987 0 4154 0 
C 4320 0 4608 0 4762 -13 
L 4762 153 
C 4352 153 4326 178 4326 428 
L 4326 1933 
z
" id="CMR17-6d" transform="scale(0.015625)"/>
       <path d="M 1408 -1063 
C 998 -1063 973 -1037 973 -789 
L 973 402 
C 1158 134 1427 -38 1766 -38 
C 2406 -38 3053 523 3053 1388 
C 3053 2191 2496 2802 1837 2802 
C 1453 2802 1139 2592 960 2338 
L 960 2802 
L 198 2732 
L 198 2567 
C 576 2567 634 2528 634 2223 
L 634 -789 
C 634 -1031 608 -1063 198 -1063 
L 198 -1228 
C 352 -1216 634 -1216 800 -1216 
C 966 -1216 1254 -1216 1408 -1228 
L 1408 -1063 
z
M 973 2012 
C 973 2102 973 2235 1222 2471 
C 1254 2497 1472 2688 1792 2688 
C 2259 2688 2643 2108 2643 1382 
C 2643 656 2234 64 1728 64 
C 1498 64 1248 172 1056 472 
C 973 612 973 650 973 752 
L 973 2012 
z
" id="CMR17-70" transform="scale(0.015625)"/>
       <path d="M 979 4396 
L 218 4326 
L 218 4160 
C 595 4160 653 4122 653 3817 
L 653 426 
C 653 184 627 153 218 153 
L 218 -13 
C 371 0 653 0 813 0 
C 979 0 1261 0 1414 -13 
L 1414 153 
C 1005 153 979 178 979 426 
L 979 4396 
z
" id="CMR17-6c" transform="scale(0.015625)"/>
       <path d="M 2438 1472 
C 2464 1498 2464 1511 2464 1576 
C 2464 2238 2118 2816 1389 2816 
C 710 2816 173 2169 173 1383 
C 173 551 781 -64 1459 -64 
C 2176 -64 2458 607 2458 740 
C 2458 784 2419 784 2406 784 
C 2362 784 2355 771 2330 696 
C 2189 265 1837 51 1504 51 
C 1229 51 954 203 781 480 
C 582 803 582 1176 582 1472 
L 2438 1472 
z
M 589 1568 
C 634 2505 1126 2714 1382 2714 
C 1818 2714 2112 2297 2118 1568 
L 589 1568 
z
" id="CMR17-65" transform="scale(0.015625)"/>
       <path d="M 992 3909 
C 992 4049 877 4170 730 4170 
C 589 4170 467 4056 467 3909 
C 467 3769 582 3648 730 3648 
C 870 3648 992 3763 992 3909 
z
M 243 2706 
L 243 2541 
C 602 2541 653 2502 653 2197 
L 653 427 
C 653 184 627 153 218 153 
L 218 -13 
C 371 0 646 0 806 0 
C 960 0 1222 0 1370 -13 
L 1370 153 
C 992 153 979 191 979 420 
L 979 2776 
L 243 2706 
z
" id="CMR17-69" transform="scale(0.015625)"/>
       <path d="M 2656 1933 
C 2656 2259 2592 2790 1837 2790 
C 1331 2790 1069 2400 973 2144 
L 966 2144 
L 966 2790 
L 211 2720 
L 211 2554 
C 589 2554 646 2515 646 2208 
L 646 428 
C 646 184 621 153 211 153 
L 211 -13 
C 365 0 646 0 813 0 
C 979 0 1267 0 1421 -13 
L 1421 153 
C 1011 153 986 178 986 428 
L 986 1658 
C 986 2247 1344 2688 1792 2688 
C 2266 2688 2317 2266 2317 1958 
L 2317 428 
C 2317 184 2291 153 1882 153 
L 1882 -13 
C 2035 0 2317 0 2483 0 
C 2650 0 2938 0 3091 -13 
L 3091 153 
C 2682 153 2656 178 2656 428 
L 2656 1933 
z
" id="CMR17-6e" transform="scale(0.015625)"/>
       <path d="M 1869 4326 
L 1869 4160 
C 2246 4160 2304 4122 2304 3820 
L 2304 2345 
C 2278 2377 2016 2790 1498 2790 
C 845 2790 211 2208 211 1364 
C 211 525 806 -64 1434 -64 
C 1978 -64 2259 337 2291 380 
L 2291 -63 
L 3066 -63 
L 3066 128 
C 2688 128 2630 166 2630 473 
L 2630 4396 
L 1869 4326 
z
M 2291 755 
C 2291 563 2176 390 2029 262 
C 1811 70 1594 38 1472 38 
C 1286 38 621 134 621 1356 
C 621 2612 1363 2688 1530 2688 
C 1824 2688 2061 2522 2208 2291 
C 2291 2157 2291 2138 2291 2023 
L 2291 755 
z
" id="CMR17-64" transform="scale(0.015625)"/>
       <path d="M 1664 1477 
C 1856 1726 2074 2006 2253 2216 
C 2464 2458 2707 2560 2989 2560 
L 2989 2726 
C 2880 2726 2656 2726 2541 2726 
C 2368 2726 2170 2726 2022 2732 
L 2022 2566 
C 2112 2553 2163 2489 2163 2400 
C 2163 2285 2099 2215 2067 2171 
L 1594 1573 
L 1030 2306 
C 973 2376 973 2388 973 2420 
C 973 2497 1037 2560 1146 2560 
L 1146 2732 
C 992 2726 717 2726 557 2726 
C 384 2726 179 2726 38 2732 
L 38 2560 
C 384 2560 461 2534 614 2343 
L 1350 1395 
C 1363 1382 1395 1344 1395 1325 
C 1395 1299 838 619 768 530 
C 480 185 179 160 6 160 
L 6 0 
C 115 0 339 0 454 0 
C 582 0 864 0 979 -6 
L 979 160 
C 941 166 838 179 838 325 
C 838 440 890 510 947 586 
L 1478 1236 
L 2035 512 
C 2086 442 2163 346 2163 301 
C 2163 211 2086 160 1984 160 
L 1984 -6 
C 2138 0 2413 0 2573 0 
C 2746 0 2950 0 3091 -6 
L 3091 160 
C 2771 160 2675 172 2522 370 
L 1664 1477 
z
" id="CMR17-78" transform="scale(0.015625)"/>
      </defs>
      <use transform="scale(0.996264)" xlink:href="#CMR17-73"/>
      <use transform="translate(35.801338 0)scale(0.996264)" xlink:href="#CMR17-61"/>
      <use transform="translate(81.491815 0)scale(0.996264)" xlink:href="#CMR17-6d"/>
      <use transform="translate(158.411405 0)scale(0.996264)" xlink:href="#CMR17-70"/>
      <use transform="translate(209.306774 0)scale(0.996264)" xlink:href="#CMR17-6c"/>
      <use transform="translate(234.177833 0)scale(0.996264)" xlink:href="#CMR17-65"/>
      <use transform="translate(304.73946 0)scale(0.996264)" xlink:href="#CMR17-69"/>
      <use transform="translate(329.610518 0)scale(0.996264)" xlink:href="#CMR17-6e"/>
      <use transform="translate(380.505888 0)scale(0.996264)" xlink:href="#CMR17-64"/>
      <use transform="translate(431.401258 0)scale(0.996264)" xlink:href="#CMR17-65"/>
      <use transform="translate(471.886918 0)scale(0.996264)" xlink:href="#CMR17-78"/>
     </g>
    </g>
   </g>
   <g id="matplotlib.axis_2">
    <g id="ytick_1">
     <g id="line2d_11">
      <defs>
       <path d="M 0 0 
L -6 0 
" id="m1d6034733d" style="stroke:#262626;stroke-width:1.25;"/>
      </defs>
      <g>
       <use style="fill:#262626;stroke:#262626;stroke-width:1.25;" x="75.426253" xlink:href="#m1d6034733d" y="306.506392"/>
      </g>
     </g>
     <g id="text_12">
      <!-- 0.00\% -->
      <g style="fill:#262626;" transform="translate(32.304152 311.072589)scale(0.132 -0.132)">
       <defs>
        <path d="M 1062 261 
C 1062 420 934 522 800 522 
C 672 522 538 420 538 261 
C 538 102 666 0 800 0 
C 928 0 1062 102 1062 261 
z
" id="CMR17-2e" transform="scale(0.015625)"/>
        <path d="M 4640 959 
C 4640 1698 4275 2240 3846 2240 
C 3411 2240 2970 1736 2970 959 
C 2970 183 3405 -320 3846 -320 
C 4275 -320 4640 215 4640 959 
z
M 3853 -218 
C 3686 -218 3270 -66 3270 959 
C 3270 1991 3686 2138 3853 2138 
C 4205 2138 4525 1634 4525 959 
C 4525 285 4205 -218 3853 -218 
z
M 4083 4577 
C 4128 4647 4134 4653 4134 4685 
C 4134 4761 4077 4800 4026 4800 
C 3962 4800 3936 4756 3891 4706 
C 3520 4190 3008 4134 2746 4134 
C 2106 4134 1715 4494 1594 4607 
C 1510 4682 1389 4800 1171 4800 
C 736 4800 294 4296 294 3519 
C 294 2743 730 2240 1171 2240 
C 1600 2240 1965 2778 1965 3527 
C 1965 3969 1830 4270 1811 4308 
C 2202 4064 2586 4032 2752 4032 
C 3162 4032 3456 4183 3616 4289 
L 3622 4283 
L 858 -84 
C 800 -174 800 -187 800 -206 
C 800 -276 858 -320 915 -320 
C 973 -320 992 -289 1037 -218 
L 4083 4577 
z
M 1178 2342 
C 1011 2342 595 2494 595 3519 
C 595 4551 1011 4698 1178 4698 
C 1530 4698 1850 4194 1850 3519 
C 1850 2845 1530 2342 1178 2342 
z
" id="CMR17-25" transform="scale(0.015625)"/>
       </defs>
       <use transform="scale(0.996264)" xlink:href="#CMR17-30"/>
       <use transform="translate(45.690477 0)scale(0.996264)" xlink:href="#CMR17-2e"/>
       <use transform="translate(70.561536 0)scale(0.996264)" xlink:href="#CMR17-30"/>
       <use transform="translate(116.252013 0)scale(0.996264)" xlink:href="#CMR17-30"/>
       <use transform="translate(161.94249 0)scale(0.996264)" xlink:href="#CMR17-25"/>
      </g>
     </g>
    </g>
    <g id="ytick_2">
     <g id="line2d_12">
      <g>
       <use style="fill:#262626;stroke:#262626;stroke-width:1.25;" x="75.426253" xlink:href="#m1d6034733d" y="262.439396"/>
      </g>
     </g>
     <g id="text_13">
      <!-- 0.10\% -->
      <g style="fill:#262626;" transform="translate(32.304152 267.005593)scale(0.132 -0.132)">
       <use transform="scale(0.996264)" xlink:href="#CMR17-30"/>
       <use transform="translate(45.690477 0)scale(0.996264)" xlink:href="#CMR17-2e"/>
       <use transform="translate(70.561536 0)scale(0.996264)" xlink:href="#CMR17-31"/>
       <use transform="translate(116.252013 0)scale(0.996264)" xlink:href="#CMR17-30"/>
       <use transform="translate(161.94249 0)scale(0.996264)" xlink:href="#CMR17-25"/>
      </g>
     </g>
    </g>
    <g id="ytick_3">
     <g id="line2d_13">
      <g>
       <use style="fill:#262626;stroke:#262626;stroke-width:1.25;" x="75.426253" xlink:href="#m1d6034733d" y="218.3724"/>
      </g>
     </g>
     <g id="text_14">
      <!-- 0.20\% -->
      <g style="fill:#262626;" transform="translate(32.304152 222.938598)scale(0.132 -0.132)">
       <use transform="scale(0.996264)" xlink:href="#CMR17-30"/>
       <use transform="translate(45.690477 0)scale(0.996264)" xlink:href="#CMR17-2e"/>
       <use transform="translate(70.561536 0)scale(0.996264)" xlink:href="#CMR17-32"/>
       <use transform="translate(116.252013 0)scale(0.996264)" xlink:href="#CMR17-30"/>
       <use transform="translate(161.94249 0)scale(0.996264)" xlink:href="#CMR17-25"/>
      </g>
     </g>
    </g>
    <g id="ytick_4">
     <g id="line2d_14">
      <g>
       <use style="fill:#262626;stroke:#262626;stroke-width:1.25;" x="75.426253" xlink:href="#m1d6034733d" y="174.305404"/>
      </g>
     </g>
     <g id="text_15">
      <!-- 0.30\% -->
      <g style="fill:#262626;" transform="translate(32.304152 178.871602)scale(0.132 -0.132)">
       <use transform="scale(0.996264)" xlink:href="#CMR17-30"/>
       <use transform="translate(45.690477 0)scale(0.996264)" xlink:href="#CMR17-2e"/>
       <use transform="translate(70.561536 0)scale(0.996264)" xlink:href="#CMR17-33"/>
       <use transform="translate(116.252013 0)scale(0.996264)" xlink:href="#CMR17-30"/>
       <use transform="translate(161.94249 0)scale(0.996264)" xlink:href="#CMR17-25"/>
      </g>
     </g>
    </g>
    <g id="ytick_5">
     <g id="line2d_15">
      <g>
       <use style="fill:#262626;stroke:#262626;stroke-width:1.25;" x="75.426253" xlink:href="#m1d6034733d" y="130.238408"/>
      </g>
     </g>
     <g id="text_16">
      <!-- 0.40\% -->
      <g style="fill:#262626;" transform="translate(32.304152 134.804606)scale(0.132 -0.132)">
       <use transform="scale(0.996264)" xlink:href="#CMR17-30"/>
       <use transform="translate(45.690477 0)scale(0.996264)" xlink:href="#CMR17-2e"/>
       <use transform="translate(70.561536 0)scale(0.996264)" xlink:href="#CMR17-34"/>
       <use transform="translate(116.252013 0)scale(0.996264)" xlink:href="#CMR17-30"/>
       <use transform="translate(161.94249 0)scale(0.996264)" xlink:href="#CMR17-25"/>
      </g>
     </g>
    </g>
    <g id="ytick_6">
     <g id="line2d_16">
      <g>
       <use style="fill:#262626;stroke:#262626;stroke-width:1.25;" x="75.426253" xlink:href="#m1d6034733d" y="86.171413"/>
      </g>
     </g>
     <g id="text_17">
      <!-- 0.50\% -->
      <g style="fill:#262626;" transform="translate(32.304152 90.73761)scale(0.132 -0.132)">
       <use transform="scale(0.996264)" xlink:href="#CMR17-30"/>
       <use transform="translate(45.690477 0)scale(0.996264)" xlink:href="#CMR17-2e"/>
       <use transform="translate(70.561536 0)scale(0.996264)" xlink:href="#CMR17-35"/>
       <use transform="translate(116.252013 0)scale(0.996264)" xlink:href="#CMR17-30"/>
       <use transform="translate(161.94249 0)scale(0.996264)" xlink:href="#CMR17-25"/>
      </g>
     </g>
    </g>
    <g id="ytick_7">
     <g id="line2d_17">
      <g>
       <use style="fill:#262626;stroke:#262626;stroke-width:1.25;" x="75.426253" xlink:href="#m1d6034733d" y="42.104417"/>
      </g>
     </g>
     <g id="text_18">
      <!-- 0.60\% -->
      <g style="fill:#262626;" transform="translate(32.304152 46.670614)scale(0.132 -0.132)">
       <use transform="scale(0.996264)" xlink:href="#CMR17-30"/>
       <use transform="translate(45.690477 0)scale(0.996264)" xlink:href="#CMR17-2e"/>
       <use transform="translate(70.561536 0)scale(0.996264)" xlink:href="#CMR17-36"/>
       <use transform="translate(116.252013 0)scale(0.996264)" xlink:href="#CMR17-30"/>
       <use transform="translate(161.94249 0)scale(0.996264)" xlink:href="#CMR17-25"/>
      </g>
     </g>
    </g>
    <g id="text_19">
     <!-- relative error -->
     <g style="fill:#262626;" transform="translate(25.514625 208.810736)rotate(-90)scale(0.144 -0.144)">
      <defs>
       <path d="M 960 1497 
C 960 2112 1222 2688 1702 2688 
C 1747 2688 1792 2682 1837 2662 
C 1837 2662 1696 2617 1696 2452 
C 1696 2298 1818 2234 1914 2234 
C 1990 2234 2131 2279 2131 2458 
C 2131 2663 1926 2790 1709 2790 
C 1222 2790 1011 2317 947 2093 
L 941 2093 
L 941 2790 
L 198 2720 
L 198 2554 
C 576 2554 634 2515 634 2208 
L 634 428 
C 634 184 608 153 198 153 
L 198 -13 
C 352 0 646 0 813 0 
C 998 0 1325 0 1498 -13 
L 1498 153 
C 1037 153 960 153 960 440 
L 960 1497 
z
" id="CMR17-72" transform="scale(0.015625)"/>
       <path d="M 966 2560 
L 1862 2560 
L 1862 2725 
L 966 2725 
L 966 3904 
L 851 3904 
C 838 3245 614 2668 70 2668 
L 70 2560 
L 627 2560 
L 627 771 
C 627 650 627 -64 1370 -64 
C 1747 -64 1965 306 1965 777 
L 1965 1140 
L 1850 1140 
L 1850 783 
C 1850 344 1677 51 1408 51 
C 1222 51 966 178 966 758 
L 966 2560 
z
" id="CMR17-74" transform="scale(0.015625)"/>
       <path d="M 2502 2163 
C 2560 2304 2662 2560 3034 2560 
L 3034 2726 
C 2912 2726 2752 2726 2630 2726 
C 2496 2726 2285 2726 2157 2732 
L 2157 2566 
C 2317 2553 2406 2477 2406 2311 
C 2406 2253 2406 2240 2368 2151 
L 1664 377 
L 902 2286 
C 864 2369 864 2381 864 2407 
C 864 2560 1075 2560 1171 2560 
L 1171 2732 
C 1018 2726 736 2726 576 2726 
C 403 2726 205 2726 64 2732 
L 64 2560 
C 307 2560 442 2560 518 2362 
L 1446 44 
C 1485 -51 1491 -64 1549 -64 
C 1606 -64 1613 -51 1651 44 
L 2502 2163 
z
" id="CMR17-76" transform="scale(0.015625)"/>
       <path d="M 2758 1356 
C 2758 2176 2163 2816 1466 2816 
C 768 2816 173 2176 173 1356 
C 173 551 768 -64 1466 -64 
C 2163 -64 2758 551 2758 1356 
z
M 1466 51 
C 1165 51 909 230 762 480 
C 602 767 582 1126 582 1408 
C 582 1677 595 2010 762 2298 
C 890 2509 1139 2714 1466 2714 
C 1754 2714 1997 2554 2150 2330 
C 2349 2029 2349 1607 2349 1408 
C 2349 1158 2336 775 2163 467 
C 1984 173 1709 51 1466 51 
z
" id="CMR17-6f" transform="scale(0.015625)"/>
      </defs>
      <use transform="scale(0.996264)" xlink:href="#CMR17-72"/>
      <use transform="translate(35.280768 0)scale(0.996264)" xlink:href="#CMR17-65"/>
      <use transform="translate(75.766428 0)scale(0.996264)" xlink:href="#CMR17-6c"/>
      <use transform="translate(100.637487 0)scale(0.996264)" xlink:href="#CMR17-61"/>
      <use transform="translate(146.327964 0)scale(0.996264)" xlink:href="#CMR17-74"/>
      <use transform="translate(181.608732 0)scale(0.996264)" xlink:href="#CMR17-69"/>
      <use transform="translate(206.47979 0)scale(0.996264)" xlink:href="#CMR17-76"/>
      <use transform="translate(252.170252 0)scale(0.996264)" xlink:href="#CMR17-65"/>
      <use transform="translate(322.731879 0)scale(0.996264)" xlink:href="#CMR17-65"/>
      <use transform="translate(363.217539 0)scale(0.996264)" xlink:href="#CMR17-72"/>
      <use transform="translate(398.498307 0)scale(0.996264)" xlink:href="#CMR17-72"/>
      <use transform="translate(433.779075 0)scale(0.996264)" xlink:href="#CMR17-6f"/>
      <use transform="translate(479.469552 0)scale(0.996264)" xlink:href="#CMR17-72"/>
     </g>
    </g>
   </g>
   <g id="patch_2">
    <path clip-path="url(#p6ef9f6a0bd)" d="M 75.426253 306.506392 
L 75.426253 31.514625 
L 185.165969 31.514625 
L 185.165969 306.506392 
z
" style="fill:#808080;opacity:0.2;"/>
   </g>
   <g id="patch_3">
    <path clip-path="url(#p6ef9f6a0bd)" d="M 290.426512 306.506392 
L 290.426512 31.514625 
L 409.124571 31.514625 
L 409.124571 306.506392 
z
" style="fill:#808080;opacity:0.07;"/>
   </g>
   <g id="line2d_18">
    <path clip-path="url(#p6ef9f6a0bd)" d="M 75.426253 306.506392 
L 77.665839 144.516093 
L 79.905425 178.289064 
L 82.145011 210.341479 
L 84.384597 142.99172 
L 86.624183 56.513876 
L 88.863769 88.187003 
L 91.103355 113.824476 
L 93.342941 133.119647 
L 95.582528 145.147397 
L 97.822114 150.451388 
L 100.0617 163.392742 
L 102.301286 159.003833 
L 104.540872 108.732797 
L 106.780458 117.559966 
L 109.020044 121.558376 
L 111.25963 131.655249 
L 113.499216 133.397647 
L 115.738802 141.647649 
L 117.978388 140.094724 
L 120.217974 139.203854 
L 122.45756 129.693841 
L 124.697146 130.359557 
L 126.936732 135.667451 
L 129.176318 131.264454 
L 131.415904 137.869105 
L 133.65549 142.401978 
L 135.895076 146.070231 
L 138.134662 150.04485 
L 140.374248 155.252062 
L 142.613834 158.533334 
L 144.85342 162.324934 
L 147.093006 157.174821 
L 149.332592 159.791807 
L 151.572178 160.716493 
L 153.811764 163.487997 
L 156.05135 167.179397 
L 158.290936 167.188438 
L 160.530522 170.189391 
L 162.770108 173.190917 
L 165.009694 175.642599 
L 167.24928 177.883825 
L 169.488866 177.206121 
L 171.728452 179.850418 
L 173.968038 179.688802 
L 176.207624 182.296476 
L 178.44721 184.906641 
L 180.686797 184.339916 
L 182.926383 186.72795 
L 185.165969 189.12277 
L 187.405555 190.797399 
L 189.645141 191.704549 
L 191.884727 192.254889 
L 194.124313 193.089417 
L 196.363899 193.472689 
L 198.603485 194.625753 
L 200.843071 196.434577 
L 203.082657 198.313976 
L 205.322243 200.125788 
L 207.561829 201.87468 
L 209.801415 202.671309 
L 212.041001 204.118868 
L 214.280587 204.634318 
L 216.520173 204.131476 
L 218.759759 204.773749 
L 220.999345 206.242782 
L 223.238931 207.72871 
L 225.478517 208.116465 
L 227.718103 208.987551 
L 229.957689 210.372549 
L 232.197275 210.590252 
L 234.436861 211.021537 
L 236.676447 208.534612 
L 238.916033 209.549325 
L 241.155619 209.153274 
L 243.395205 209.603076 
L 245.634791 210.273411 
L 247.874377 211.469627 
L 250.113963 211.241794 
L 252.353549 212.133211 
L 254.593135 211.342035 
L 256.832721 212.373782 
L 259.072307 213.335343 
L 261.311893 214.165834 
L 263.551479 215.132476 
L 265.791065 216.152218 
L 268.030652 217.189235 
L 270.270238 218.170442 
L 272.509824 217.363303 
L 274.74941 218.332383 
L 276.988996 218.725731 
L 279.228582 219.671595 
L 281.468168 220.450785 
L 283.707754 221.288008 
L 285.94734 221.927529 
L 288.186926 220.589388 
L 290.426512 221.186092 
" style="fill:none;stroke:#1f77b4;stroke-linecap:round;stroke-width:1.5;"/>
   </g>
   <g id="line2d_19">
    <path clip-path="url(#p6ef9f6a0bd)" d="M 75.426253 306.506392 
L 77.665839 152.764701 
L 79.905425 194.369806 
L 82.145011 222.340218 
L 84.384597 167.356771 
L 86.624183 84.188775 
L 88.863769 110.52645 
L 91.103355 132.885943 
L 93.342941 149.480441 
L 95.582528 159.964931 
L 97.822114 167.029181 
L 100.0617 178.52354 
L 102.301286 176.309792 
L 104.540872 130.936841 
L 106.780458 139.657091 
L 109.020044 143.29564 
L 111.25963 152.581289 
L 113.499216 154.126552 
L 115.738802 161.429354 
L 117.978388 160.635571 
L 120.217974 158.828084 
L 122.45756 150.582142 
L 124.697146 151.506766 
L 126.936732 156.617655 
L 129.176318 152.338414 
L 131.415904 157.944525 
L 133.65549 161.988001 
L 135.895076 165.339609 
L 138.134662 169.161822 
L 140.374248 173.719604 
L 142.613834 176.774774 
L 144.85342 180.230999 
L 147.093006 176.399505 
L 149.332592 178.91547 
L 151.572178 179.668725 
L 153.811764 182.285501 
L 156.05135 185.502093 
L 158.290936 184.976098 
L 160.530522 187.680336 
L 162.770108 190.417036 
L 165.009694 192.46825 
L 167.24928 194.319239 
L 169.488866 193.413842 
L 171.728452 195.798139 
L 173.968038 195.724781 
L 176.207624 198.040259 
L 178.44721 200.341842 
L 180.686797 199.938756 
L 182.926383 202.057449 
L 185.165969 204.139662 
L 187.405555 205.41825 
L 189.645141 206.151763 
L 191.884727 206.612062 
L 194.124313 207.472799 
L 196.363899 207.888942 
L 198.603485 208.810095 
L 200.843071 210.426646 
L 203.082657 212.034098 
L 205.322243 213.585462 
L 207.561829 215.117142 
L 209.801415 216.018922 
L 212.041001 217.35018 
L 214.280587 217.900489 
L 216.520173 217.437356 
L 218.759759 218.044947 
L 220.999345 219.336368 
L 223.238931 220.632699 
L 225.478517 221.188282 
L 227.718103 222.05729 
L 229.957689 223.226258 
L 232.197275 223.177218 
L 234.436861 223.526409 
L 236.676447 221.516995 
L 238.916033 222.411583 
L 241.155619 222.119431 
L 243.395205 222.551982 
L 245.634791 223.19917 
L 247.874377 224.241404 
L 250.113963 224.025139 
L 252.353549 224.826839 
L 254.593135 224.222058 
L 256.832721 225.089879 
L 259.072307 225.943465 
L 261.311893 226.565948 
L 263.551479 227.412552 
L 265.791065 228.301547 
L 268.030652 229.199051 
L 270.270238 230.057188 
L 272.509824 229.358838 
L 274.74941 230.206617 
L 276.988996 230.532083 
L 279.228582 231.352539 
L 281.468168 231.992967 
L 283.707754 232.71696 
L 285.94734 233.2595 
L 288.186926 231.94907 
L 290.426512 232.495262 
" style="fill:none;stroke:#ff7f0e;stroke-linecap:round;stroke-width:1.5;"/>
   </g>
   <g id="line2d_20">
    <path clip-path="url(#p6ef9f6a0bd)" d="M 75.426253 306.506392 
L 77.665839 164.092734 
L 79.905425 206.888271 
L 82.145011 231.722135 
L 84.384597 185.006873 
L 86.624183 106.137733 
L 88.863769 128.581183 
L 91.103355 148.34255 
L 93.342941 162.864772 
L 95.582528 172.234849 
L 97.822114 179.86234 
L 100.0617 190.227367 
L 102.301286 189.365546 
L 104.540872 148.160286 
L 106.780458 156.518686 
L 109.020044 159.872397 
L 111.25963 168.393483 
L 113.499216 169.845149 
L 115.738802 176.405042 
L 117.978388 176.099967 
L 120.217974 173.868005 
L 122.45756 166.588053 
L 124.697146 167.616905 
L 126.936732 172.473491 
L 129.176318 168.320188 
L 131.415904 173.158562 
L 133.65549 176.855218 
L 135.895076 179.937724 
L 138.134662 183.552618 
L 140.374248 187.622374 
L 142.613834 190.446846 
L 144.85342 193.613451 
L 147.093006 190.613314 
L 149.332592 192.993478 
L 151.572178 193.609645 
L 153.811764 196.043 
L 156.05135 198.910197 
L 158.290936 198.07054 
L 160.530522 200.542316 
L 162.770108 203.042698 
L 165.009694 204.808555 
L 167.24928 206.388564 
L 169.488866 205.385598 
L 171.728452 207.562829 
L 173.968038 207.560246 
L 176.207624 209.650328 
L 178.44721 211.711054 
L 180.686797 211.424591 
L 182.926383 213.334201 
L 185.165969 215.1837 
L 187.405555 216.208877 
L 189.645141 216.823012 
L 191.884727 217.227291 
L 194.124313 218.081114 
L 196.363899 218.516135 
L 198.603485 219.282254 
L 200.843071 220.746072 
L 203.082657 222.15041 
L 205.322243 223.508043 
L 207.561829 224.879132 
L 209.801415 225.807425 
L 212.041001 227.031624 
L 214.280587 227.587051 
L 216.520173 227.171366 
L 218.759759 227.734745 
L 220.999345 228.894302 
L 223.238931 230.050552 
L 225.478517 230.67135 
L 227.718103 231.505881 
L 229.957689 232.509571 
L 232.197275 232.312567 
L 234.436861 232.621861 
L 236.676447 230.923719 
L 238.916033 231.729622 
L 241.155619 231.511447 
L 243.395205 231.924455 
L 245.634791 232.540993 
L 247.874377 233.470353 
L 250.113963 233.273605 
L 252.353549 234.003554 
L 254.593135 233.517192 
L 256.832721 234.267159 
L 259.072307 235.036104 
L 261.311893 235.523029 
L 263.551479 236.282107 
L 265.791065 237.074464 
L 268.030652 237.870975 
L 270.270238 238.637437 
L 272.509824 238.013061 
L 274.74941 238.770153 
L 276.988996 239.052352 
L 279.228582 239.782038 
L 281.468168 240.327952 
L 283.707754 240.970922 
L 285.94734 241.44609 
L 288.186926 240.194924 
L 290.426512 240.696929 
" style="fill:none;stroke:#2ca02c;stroke-linecap:round;stroke-width:1.5;"/>
   </g>
   <g id="line2d_21">
    <path clip-path="url(#p6ef9f6a0bd)" d="M 75.426253 218.3724 
L 409.124571 218.3724 
" style="fill:none;stroke:#000000;stroke-dasharray:5.55,2.4;stroke-dashoffset:0;stroke-width:1.5;"/>
   </g>
   <g id="line2d_22">
    <path clip-path="url(#p6ef9f6a0bd)" d="M 185.165969 306.506392 
L 185.165969 31.514625 
" style="fill:none;stroke:#808080;stroke-dasharray:1.5,2.475;stroke-dashoffset:0;stroke-width:1.5;"/>
   </g>
   <g id="patch_4">
    <path d="M 75.426253 306.506392 
L 75.426253 31.514625 
" style="fill:none;stroke:#262626;stroke-linecap:square;stroke-linejoin:miter;stroke-width:1.25;"/>
   </g>
   <g id="patch_5">
    <path d="M 409.124571 306.506392 
L 409.124571 31.514625 
" style="fill:none;stroke:#262626;stroke-linecap:square;stroke-linejoin:miter;stroke-width:1.25;"/>
   </g>
   <g id="patch_6">
    <path d="M 75.426253 306.506392 
L 409.124571 306.506392 
" style="fill:none;stroke:#262626;stroke-linecap:square;stroke-linejoin:miter;stroke-width:1.25;"/>
   </g>
   <g id="patch_7">
    <path d="M 75.426253 31.514625 
L 409.124571 31.514625 
" style="fill:none;stroke:#262626;stroke-linecap:square;stroke-linejoin:miter;stroke-width:1.25;"/>
   </g>
   <g id="text_20">
    <!-- Convergence of Errors -->
    <g style="fill:#262626;" transform="translate(174.245551 25.514625)scale(0.144 -0.144)">
     <defs>
      <path d="M 3974 4289 
C 3974 4403 3968 4410 3930 4410 
C 3904 4410 3898 4403 3853 4327 
L 3571 3792 
C 3258 4187 2874 4416 2381 4416 
C 1286 4416 294 3456 294 2148 
C 294 826 1286 -128 2387 -128 
C 3366 -128 3974 730 3974 1461 
C 3974 1524 3974 1550 3917 1550 
C 3866 1550 3866 1531 3859 1474 
C 3808 585 3168 38 2477 38 
C 1824 38 781 495 781 2147 
C 781 3805 1843 4250 2464 4250 
C 3187 4250 3712 3628 3834 2745 
C 3846 2668 3846 2655 3904 2655 
C 3974 2655 3974 2668 3974 2783 
L 3974 4289 
z
" id="CMR17-43" transform="scale(0.015625)"/>
      <path d="M 710 1164 
C 832 1068 1043 960 1299 960 
C 1805 960 2240 1357 2240 1888 
C 2240 2054 2189 2310 1997 2509 
C 2176 2692 2438 2752 2586 2752 
C 2611 2752 2650 2752 2682 2734 
C 2656 2728 2598 2703 2598 2605 
C 2598 2527 2656 2471 2739 2471 
C 2835 2471 2886 2533 2886 2614 
C 2886 2731 2790 2854 2586 2854 
C 2330 2854 2106 2738 1926 2580 
C 1734 2753 1504 2816 1299 2816 
C 794 2816 358 2419 358 1888 
C 358 1522 570 1292 634 1228 
C 442 1004 442 743 442 711 
C 442 545 506 302 723 168 
C 390 85 128 -169 128 -486 
C 128 -943 736 -1280 1466 -1280 
C 2170 -1280 2803 -956 2803 -479 
C 2803 384 1856 384 1363 384 
C 1216 384 954 384 922 391 
C 723 423 589 602 589 826 
C 589 883 589 1024 710 1164 
z
M 1299 1068 
C 736 1068 736 1760 736 1889 
C 736 2016 736 2708 1299 2708 
C 1862 2708 1862 2016 1862 1889 
C 1862 1760 1862 1068 1299 1068 
z
M 1466 -1171 
C 826 -1171 384 -835 384 -486 
C 384 -289 493 -105 634 -4 
C 794 104 858 104 1293 104 
C 1818 104 2547 104 2547 -486 
C 2547 -835 2106 -1171 1466 -1171 
z
" id="CMR17-67" transform="scale(0.015625)"/>
      <path d="M 2234 2240 
C 2112 2240 1933 2240 1933 2017 
C 1933 1838 2080 1787 2163 1787 
C 2208 1787 2394 1807 2394 2024 
C 2394 2467 1958 2803 1466 2803 
C 787 2803 211 2178 211 1363 
C 211 516 813 -64 1466 -64 
C 2259 -64 2458 677 2458 748 
C 2458 774 2451 793 2406 793 
C 2362 793 2355 787 2330 703 
C 2163 180 1798 51 1523 51 
C 1114 51 621 427 621 1369 
C 621 2338 1094 2688 1472 2688 
C 1722 2688 2093 2573 2234 2240 
z
" id="CMR17-63" transform="scale(0.015625)"/>
      <path d="M 979 2560 
L 1709 2560 
L 1709 2725 
L 966 2725 
L 966 3494 
C 966 4022 1235 4352 1510 4352 
C 1594 4352 1690 4327 1754 4282 
C 1702 4269 1568 4225 1568 4067 
C 1568 3901 1696 3850 1786 3850 
C 1875 3850 2003 3901 2003 4067 
C 2003 4308 1773 4454 1517 4454 
C 1152 4454 653 4156 653 3481 
L 653 2725 
L 141 2725 
L 141 2560 
L 653 2560 
L 653 427 
C 653 184 627 153 218 153 
L 218 -13 
C 371 0 666 0 832 0 
C 1018 0 1344 0 1517 -13 
L 1517 153 
C 1056 153 979 153 979 439 
L 979 2560 
z
" id="CMR17-66" transform="scale(0.015625)"/>
      <path d="M 3885 1615 
L 3770 1615 
C 3629 676 3546 166 2419 166 
L 1530 166 
C 1274 166 1261 197 1261 414 
L 1261 2176 
L 1862 2176 
C 2464 2176 2522 1960 2522 1430 
L 2637 1430 
L 2637 3081 
L 2522 3081 
C 2522 2557 2464 2342 1862 2342 
L 1261 2342 
L 1261 3913 
C 1261 4128 1274 4160 1530 4160 
L 2406 4160 
C 3398 4160 3514 3769 3603 2929 
L 3718 2929 
L 3565 4325 
L 326 4325 
L 326 4160 
C 768 4160 838 4160 838 3874 
L 838 451 
C 838 166 768 166 326 166 
L 326 0 
L 3654 0 
L 3885 1615 
z
" id="CMR17-45" transform="scale(0.015625)"/>
     </defs>
     <use transform="scale(0.996264)" xlink:href="#CMR17-43"/>
     <use transform="translate(66.509881 0)scale(0.996264)" xlink:href="#CMR17-6f"/>
     <use transform="translate(112.200358 0)scale(0.996264)" xlink:href="#CMR17-6e"/>
     <use transform="translate(160.493274 0)scale(0.996264)" xlink:href="#CMR17-76"/>
     <use transform="translate(206.183735 0)scale(0.996264)" xlink:href="#CMR17-65"/>
     <use transform="translate(246.669396 0)scale(0.996264)" xlink:href="#CMR17-72"/>
     <use transform="translate(281.950164 0)scale(0.996264)" xlink:href="#CMR17-67"/>
     <use transform="translate(327.640641 0)scale(0.996264)" xlink:href="#CMR17-65"/>
     <use transform="translate(368.126301 0)scale(0.996264)" xlink:href="#CMR17-6e"/>
     <use transform="translate(419.021671 0)scale(0.996264)" xlink:href="#CMR17-63"/>
     <use transform="translate(459.507332 0)scale(0.996264)" xlink:href="#CMR17-65"/>
     <use transform="translate(530.068958 0)scale(0.996264)" xlink:href="#CMR17-6f"/>
     <use transform="translate(575.759435 0)scale(0.996264)" xlink:href="#CMR17-66"/>
     <use transform="translate(633.308914 0)scale(0.996264)" xlink:href="#CMR17-45"/>
     <use transform="translate(695.895215 0)scale(0.996264)" xlink:href="#CMR17-72"/>
     <use transform="translate(731.175983 0)scale(0.996264)" xlink:href="#CMR17-72"/>
     <use transform="translate(766.45675 0)scale(0.996264)" xlink:href="#CMR17-6f"/>
     <use transform="translate(812.147227 0)scale(0.996264)" xlink:href="#CMR17-72"/>
     <use transform="translate(847.427995 0)scale(0.996264)" xlink:href="#CMR17-73"/>
    </g>
   </g>
   <g id="legend_1">
    <g id="patch_8">
     <path d="M 421.701554 164.804236 
L 578.113583 164.804236 
Q 580.753583 164.804236 580.753583 162.164236 
L 580.753583 34.704806 
Q 580.753583 32.064806 578.113583 32.064806 
L 421.701554 32.064806 
Q 419.061554 32.064806 419.061554 34.704806 
L 419.061554 162.164236 
Q 419.061554 164.804236 421.701554 164.804236 
z
" style="fill:#ffffff;opacity:0.8;stroke:#cccccc;stroke-linejoin:miter;"/>
    </g>
    <g id="line2d_23">
     <path d="M 424.341554 41.964806 
L 450.741554 41.964806 
" style="fill:none;stroke:#1f77b4;stroke-linecap:round;stroke-width:1.5;"/>
    </g>
    <g id="line2d_24"/>
    <g id="text_21">
     <!-- inquiry: 1 -->
     <g style="fill:#262626;" transform="translate(461.301554 46.584806)scale(0.132 -0.132)">
      <defs>
       <path d="M 2630 2802 
L 2528 2802 
L 2336 2172 
C 2189 2509 1920 2802 1491 2802 
C 838 2802 211 2223 211 1383 
C 211 548 800 -38 1440 -38 
C 1933 -38 2208 338 2291 478 
L 2291 -789 
C 2291 -1031 2266 -1063 1856 -1063 
L 1856 -1228 
C 2010 -1216 2291 -1216 2458 -1216 
C 2624 -1216 2912 -1216 3066 -1228 
L 3066 -1063 
C 2656 -1063 2630 -1037 2630 -789 
L 2630 2802 
z
M 2304 886 
C 2304 612 2074 357 2054 338 
C 1856 115 1626 64 1472 64 
C 992 64 621 669 621 1375 
C 621 2121 1043 2688 1536 2688 
C 2048 2688 2304 2108 2304 1777 
L 2304 886 
z
" id="CMR17-71" transform="scale(0.015625)"/>
       <path d="M 1882 2693 
L 1882 2528 
C 2259 2528 2317 2489 2317 2186 
L 2317 1032 
C 2317 500 2029 38 1555 38 
C 1030 38 986 348 986 678 
L 986 2763 
L 211 2693 
L 211 2528 
C 467 2528 640 2528 646 2274 
L 646 1058 
C 646 633 646 361 813 183 
C 896 101 1056 -64 1517 -64 
C 2061 -64 2272 377 2323 506 
L 2330 506 
L 2330 -63 
L 3091 -63 
L 3091 128 
C 2714 128 2656 166 2656 473 
L 2656 2763 
L 1882 2693 
z
" id="CMR17-75" transform="scale(0.015625)"/>
       <path d="M 2496 2197 
C 2656 2586 2944 2586 3034 2586 
L 3034 2752 
C 2912 2752 2752 2752 2630 2752 
C 2496 2752 2285 2752 2157 2758 
L 2157 2592 
C 2400 2573 2406 2394 2406 2343 
C 2406 2280 2394 2248 2362 2171 
L 1664 449 
L 902 2306 
C 870 2382 870 2426 870 2433 
C 870 2573 1018 2586 1171 2586 
L 1171 2758 
C 1018 2752 742 2752 582 2752 
C 410 2752 205 2752 64 2758 
L 64 2586 
C 410 2586 448 2554 531 2350 
L 1485 15 
C 1197 -738 1030 -1178 627 -1178 
C 557 -1178 397 -1159 282 -1044 
C 429 -1031 493 -942 493 -833 
C 493 -725 416 -629 288 -629 
C 147 -629 77 -725 77 -840 
C 77 -1095 339 -1280 627 -1280 
C 998 -1280 1229 -922 1357 -604 
L 2496 2197 
z
" id="CMR17-79" transform="scale(0.015625)"/>
       <path d="M 1062 2491 
C 1062 2650 934 2752 800 2752 
C 672 2752 538 2650 538 2491 
C 538 2332 666 2230 800 2230 
C 928 2230 1062 2332 1062 2491 
z
M 1062 261 
C 1062 420 934 522 800 522 
C 672 522 538 420 538 261 
C 538 102 666 0 800 0 
C 928 0 1062 102 1062 261 
z
" id="CMR17-3a" transform="scale(0.015625)"/>
      </defs>
      <use transform="scale(0.996264)" xlink:href="#CMR17-69"/>
      <use transform="translate(24.871058 0)scale(0.996264)" xlink:href="#CMR17-6e"/>
      <use transform="translate(75.766428 0)scale(0.996264)" xlink:href="#CMR17-71"/>
      <use transform="translate(124.059344 0)scale(0.996264)" xlink:href="#CMR17-75"/>
      <use transform="translate(174.954714 0)scale(0.996264)" xlink:href="#CMR17-69"/>
      <use transform="translate(199.825772 0)scale(0.996264)" xlink:href="#CMR17-72"/>
      <use transform="translate(235.10654 0)scale(0.996264)" xlink:href="#CMR17-79"/>
      <use transform="translate(283.399456 0)scale(0.996264)" xlink:href="#CMR17-3a"/>
      <use transform="translate(348.756175 0)scale(0.996264)" xlink:href="#CMR17-31"/>
     </g>
    </g>
    <g id="line2d_25">
     <path d="M 424.341554 60.361867 
L 450.741554 60.361867 
" style="fill:none;stroke:#ff7f0e;stroke-linecap:round;stroke-width:1.5;"/>
    </g>
    <g id="line2d_26"/>
    <g id="text_22">
     <!-- inquiry: 2 -->
     <g style="fill:#262626;" transform="translate(461.301554 64.981867)scale(0.132 -0.132)">
      <use transform="scale(0.996264)" xlink:href="#CMR17-69"/>
      <use transform="translate(24.871058 0)scale(0.996264)" xlink:href="#CMR17-6e"/>
      <use transform="translate(75.766428 0)scale(0.996264)" xlink:href="#CMR17-71"/>
      <use transform="translate(124.059344 0)scale(0.996264)" xlink:href="#CMR17-75"/>
      <use transform="translate(174.954714 0)scale(0.996264)" xlink:href="#CMR17-69"/>
      <use transform="translate(199.825772 0)scale(0.996264)" xlink:href="#CMR17-72"/>
      <use transform="translate(235.10654 0)scale(0.996264)" xlink:href="#CMR17-79"/>
      <use transform="translate(283.399456 0)scale(0.996264)" xlink:href="#CMR17-3a"/>
      <use transform="translate(348.756175 0)scale(0.996264)" xlink:href="#CMR17-32"/>
     </g>
    </g>
    <g id="line2d_27">
     <path d="M 424.341554 78.758929 
L 450.741554 78.758929 
" style="fill:none;stroke:#2ca02c;stroke-linecap:round;stroke-width:1.5;"/>
    </g>
    <g id="line2d_28"/>
    <g id="text_23">
     <!-- inquiry: 3 -->
     <g style="fill:#262626;" transform="translate(461.301554 83.378929)scale(0.132 -0.132)">
      <use transform="scale(0.996264)" xlink:href="#CMR17-69"/>
      <use transform="translate(24.871058 0)scale(0.996264)" xlink:href="#CMR17-6e"/>
      <use transform="translate(75.766428 0)scale(0.996264)" xlink:href="#CMR17-71"/>
      <use transform="translate(124.059344 0)scale(0.996264)" xlink:href="#CMR17-75"/>
      <use transform="translate(174.954714 0)scale(0.996264)" xlink:href="#CMR17-69"/>
      <use transform="translate(199.825772 0)scale(0.996264)" xlink:href="#CMR17-72"/>
      <use transform="translate(235.10654 0)scale(0.996264)" xlink:href="#CMR17-79"/>
      <use transform="translate(283.399456 0)scale(0.996264)" xlink:href="#CMR17-3a"/>
      <use transform="translate(348.756175 0)scale(0.996264)" xlink:href="#CMR17-33"/>
     </g>
    </g>
    <g id="line2d_29">
     <path d="M 424.341554 97.15599 
L 450.741554 97.15599 
" style="fill:none;stroke:#000000;stroke-dasharray:5.55,2.4;stroke-dashoffset:0;stroke-width:1.5;"/>
    </g>
    <g id="line2d_30"/>
    <g id="text_24">
     <!-- relative error tol -->
     <g style="fill:#262626;" transform="translate(461.301554 101.77599)scale(0.132 -0.132)">
      <use transform="scale(0.996264)" xlink:href="#CMR17-72"/>
      <use transform="translate(35.280768 0)scale(0.996264)" xlink:href="#CMR17-65"/>
      <use transform="translate(75.766428 0)scale(0.996264)" xlink:href="#CMR17-6c"/>
      <use transform="translate(100.637487 0)scale(0.996264)" xlink:href="#CMR17-61"/>
      <use transform="translate(146.327964 0)scale(0.996264)" xlink:href="#CMR17-74"/>
      <use transform="translate(181.608732 0)scale(0.996264)" xlink:href="#CMR17-69"/>
      <use transform="translate(206.47979 0)scale(0.996264)" xlink:href="#CMR17-76"/>
      <use transform="translate(252.170252 0)scale(0.996264)" xlink:href="#CMR17-65"/>
      <use transform="translate(322.731879 0)scale(0.996264)" xlink:href="#CMR17-65"/>
      <use transform="translate(363.217539 0)scale(0.996264)" xlink:href="#CMR17-72"/>
      <use transform="translate(398.498307 0)scale(0.996264)" xlink:href="#CMR17-72"/>
      <use transform="translate(433.779075 0)scale(0.996264)" xlink:href="#CMR17-6f"/>
      <use transform="translate(479.469552 0)scale(0.996264)" xlink:href="#CMR17-72"/>
      <use transform="translate(544.826286 0)scale(0.996264)" xlink:href="#CMR17-74"/>
      <use transform="translate(580.107054 0)scale(0.996264)" xlink:href="#CMR17-6f"/>
      <use transform="translate(625.797531 0)scale(0.996264)" xlink:href="#CMR17-6c"/>
     </g>
    </g>
    <g id="line2d_31">
     <path d="M 424.341554 115.553052 
L 450.741554 115.553052 
" style="fill:none;stroke:#808080;stroke-dasharray:1.5,2.475;stroke-dashoffset:0;stroke-width:1.5;"/>
    </g>
    <g id="line2d_32"/>
    <g id="text_25">
     <!-- min num samples -->
     <g style="fill:#262626;" transform="translate(461.301554 120.173052)scale(0.132 -0.132)">
      <use transform="scale(0.996264)" xlink:href="#CMR17-6d"/>
      <use transform="translate(76.91959 0)scale(0.996264)" xlink:href="#CMR17-69"/>
      <use transform="translate(101.790648 0)scale(0.996264)" xlink:href="#CMR17-6e"/>
      <use transform="translate(182.761984 0)scale(0.996264)" xlink:href="#CMR17-6e"/>
      <use transform="translate(231.0549 0)scale(0.996264)" xlink:href="#CMR17-75"/>
      <use transform="translate(281.95027 0)scale(0.996264)" xlink:href="#CMR17-6d"/>
      <use transform="translate(388.945826 0)scale(0.996264)" xlink:href="#CMR17-73"/>
      <use transform="translate(424.747164 0)scale(0.996264)" xlink:href="#CMR17-61"/>
      <use transform="translate(470.437641 0)scale(0.996264)" xlink:href="#CMR17-6d"/>
      <use transform="translate(547.357231 0)scale(0.996264)" xlink:href="#CMR17-70"/>
      <use transform="translate(598.252601 0)scale(0.996264)" xlink:href="#CMR17-6c"/>
      <use transform="translate(623.123659 0)scale(0.996264)" xlink:href="#CMR17-65"/>
      <use transform="translate(663.60932 0)scale(0.996264)" xlink:href="#CMR17-73"/>
     </g>
    </g>
    <g id="line2d_33"/>
    <g id="line2d_34">
     <defs>
      <path d="M 0 2 
C 0.530406 2 1.03916 1.789267 1.414214 1.414214 
C 1.789267 1.03916 2 0.530406 2 0 
C 2 -0.530406 1.789267 -1.03916 1.414214 -1.414214 
C 1.03916 -1.789267 0.530406 -2 0 -2 
C -0.530406 -2 -1.03916 -1.789267 -1.414214 -1.414214 
C -1.789267 -1.03916 -2 -0.530406 -2 0 
C -2 0.530406 -1.789267 1.03916 -1.414214 1.414214 
C -1.03916 1.789267 -0.530406 2 0 2 
z
" id="m1f58c3f304" style="stroke:#1f77b4;"/>
     </defs>
     <g>
      <use style="fill:#1f77b4;stroke:#1f77b4;" x="437.541554" xlink:href="#m1f58c3f304" y="133.950113"/>
     </g>
    </g>
    <g id="text_26">
     <!-- convergence reached -->
     <g style="fill:#262626;" transform="translate(461.301554 138.570113)scale(0.132 -0.132)">
      <defs>
       <path d="M 2656 1933 
C 2656 2259 2592 2790 1837 2790 
C 1312 2790 1056 2368 979 2157 
L 973 2157 
L 973 4396 
L 211 4326 
L 211 4160 
C 589 4160 646 4122 646 3817 
L 646 426 
C 646 184 621 153 211 153 
L 211 -13 
C 365 0 646 0 813 0 
C 979 0 1267 0 1421 -13 
L 1421 153 
C 1011 153 986 178 986 428 
L 986 1658 
C 986 2247 1344 2688 1792 2688 
C 2266 2688 2317 2266 2317 1958 
L 2317 428 
C 2317 184 2291 153 1882 153 
L 1882 -13 
C 2035 0 2317 0 2483 0 
C 2650 0 2938 0 3091 -13 
L 3091 153 
C 2682 153 2656 178 2656 428 
L 2656 1933 
z
" id="CMR17-68" transform="scale(0.015625)"/>
      </defs>
      <use transform="scale(0.996264)" xlink:href="#CMR17-63"/>
      <use transform="translate(40.48566 0)scale(0.996264)" xlink:href="#CMR17-6f"/>
      <use transform="translate(86.176138 0)scale(0.996264)" xlink:href="#CMR17-6e"/>
      <use transform="translate(134.469053 0)scale(0.996264)" xlink:href="#CMR17-76"/>
      <use transform="translate(180.159515 0)scale(0.996264)" xlink:href="#CMR17-65"/>
      <use transform="translate(220.645176 0)scale(0.996264)" xlink:href="#CMR17-72"/>
      <use transform="translate(255.925944 0)scale(0.996264)" xlink:href="#CMR17-67"/>
      <use transform="translate(301.616421 0)scale(0.996264)" xlink:href="#CMR17-65"/>
      <use transform="translate(342.102081 0)scale(0.996264)" xlink:href="#CMR17-6e"/>
      <use transform="translate(392.997451 0)scale(0.996264)" xlink:href="#CMR17-63"/>
      <use transform="translate(433.483111 0)scale(0.996264)" xlink:href="#CMR17-65"/>
      <use transform="translate(504.044738 0)scale(0.996264)" xlink:href="#CMR17-72"/>
      <use transform="translate(539.325506 0)scale(0.996264)" xlink:href="#CMR17-65"/>
      <use transform="translate(579.811166 0)scale(0.996264)" xlink:href="#CMR17-61"/>
      <use transform="translate(625.501644 0)scale(0.996264)" xlink:href="#CMR17-63"/>
      <use transform="translate(663.38485 0)scale(0.996264)" xlink:href="#CMR17-68"/>
      <use transform="translate(714.28022 0)scale(0.996264)" xlink:href="#CMR17-65"/>
      <use transform="translate(754.76588 0)scale(0.996264)" xlink:href="#CMR17-64"/>
     </g>
    </g>
    <g id="patch_9">
     <path d="M 424.341554 156.967174 
L 450.741554 156.967174 
L 450.741554 147.727174 
L 424.341554 147.727174 
z
" style="fill:#808080;opacity:0.2;"/>
    </g>
    <g id="text_27">
     <!-- convergence skipped -->
     <g style="fill:#262626;" transform="translate(461.301554 156.967174)scale(0.132 -0.132)">
      <defs>
       <path d="M 1670 1673 
C 1664 1686 1632 1724 1632 1743 
C 1632 1756 2086 2171 2144 2222 
C 2509 2528 2739 2560 2906 2560 
L 2906 2733 
C 2867 2733 2854 2733 2848 2720 
L 2534 2720 
C 2355 2720 2080 2720 1907 2733 
L 1907 2566 
C 1997 2559 2061 2508 2061 2419 
C 2061 2291 1933 2170 1926 2170 
L 960 1289 
L 960 4396 
L 198 4326 
L 198 4160 
C 576 4160 634 4122 634 3817 
L 634 426 
C 634 184 608 153 198 153 
L 198 -13 
C 352 0 634 0 794 0 
C 954 0 1235 0 1389 -13 
L 1389 153 
C 979 153 954 178 954 428 
L 954 1130 
L 1395 1532 
L 2042 574 
C 2118 459 2182 369 2182 286 
C 2182 172 2067 153 1990 153 
L 1990 -13 
C 2144 0 2419 0 2579 0 
C 2694 0 2931 0 3040 0 
L 3040 153 
C 2739 153 2669 210 2477 491 
L 1670 1673 
z
" id="CMR17-6b" transform="scale(0.015625)"/>
      </defs>
      <use transform="scale(0.996264)" xlink:href="#CMR17-63"/>
      <use transform="translate(40.48566 0)scale(0.996264)" xlink:href="#CMR17-6f"/>
      <use transform="translate(86.176138 0)scale(0.996264)" xlink:href="#CMR17-6e"/>
      <use transform="translate(134.469053 0)scale(0.996264)" xlink:href="#CMR17-76"/>
      <use transform="translate(180.159515 0)scale(0.996264)" xlink:href="#CMR17-65"/>
      <use transform="translate(220.645176 0)scale(0.996264)" xlink:href="#CMR17-72"/>
      <use transform="translate(255.925944 0)scale(0.996264)" xlink:href="#CMR17-67"/>
      <use transform="translate(301.616421 0)scale(0.996264)" xlink:href="#CMR17-65"/>
      <use transform="translate(342.102081 0)scale(0.996264)" xlink:href="#CMR17-6e"/>
      <use transform="translate(392.997451 0)scale(0.996264)" xlink:href="#CMR17-63"/>
      <use transform="translate(433.483111 0)scale(0.996264)" xlink:href="#CMR17-65"/>
      <use transform="translate(504.044738 0)scale(0.996264)" xlink:href="#CMR17-73"/>
      <use transform="translate(539.846076 0)scale(0.996264)" xlink:href="#CMR17-6b"/>
      <use transform="translate(588.138992 0)scale(0.996264)" xlink:href="#CMR17-69"/>
      <use transform="translate(613.01005 0)scale(0.996264)" xlink:href="#CMR17-70"/>
      <use transform="translate(663.90542 0)scale(0.996264)" xlink:href="#CMR17-70"/>
      <use transform="translate(717.403228 0)scale(0.996264)" xlink:href="#CMR17-65"/>
      <use transform="translate(757.888889 0)scale(0.996264)" xlink:href="#CMR17-64"/>
     </g>
    </g>
   </g>
   <g id="line2d_35">
    <g clip-path="url(#p6ef9f6a0bd)">
     <use style="fill:#1f77b4;stroke:#1f77b4;" x="290.426512" xlink:href="#m1f58c3f304" y="221.186092"/>
    </g>
   </g>
   <g id="line2d_36">
    <defs>
     <path d="M 0 2 
C 0.530406 2 1.03916 1.789267 1.414214 1.414214 
C 1.789267 1.03916 2 0.530406 2 0 
C 2 -0.530406 1.789267 -1.03916 1.414214 -1.414214 
C 1.03916 -1.789267 0.530406 -2 0 -2 
C -0.530406 -2 -1.03916 -1.789267 -1.414214 -1.414214 
C -1.789267 -1.03916 -2 -0.530406 -2 0 
C -2 0.530406 -1.789267 1.03916 -1.414214 1.414214 
C -1.03916 1.789267 -0.530406 2 0 2 
z
" id="m52f631cddf" style="stroke:#ff7f0e;"/>
    </defs>
    <g clip-path="url(#p6ef9f6a0bd)">
     <use style="fill:#ff7f0e;stroke:#ff7f0e;" x="290.426512" xlink:href="#m52f631cddf" y="232.495262"/>
    </g>
   </g>
   <g id="line2d_37">
    <defs>
     <path d="M 0 2 
C 0.530406 2 1.03916 1.789267 1.414214 1.414214 
C 1.789267 1.03916 2 0.530406 2 0 
C 2 -0.530406 1.789267 -1.03916 1.414214 -1.414214 
C 1.03916 -1.789267 0.530406 -2 0 -2 
C -0.530406 -2 -1.03916 -1.789267 -1.414214 -1.414214 
C -1.789267 -1.03916 -2 -0.530406 -2 0 
C -2 0.530406 -1.789267 1.03916 -1.414214 1.414214 
C -1.03916 1.789267 -0.530406 2 0 2 
z
" id="m8b0fa6f874" style="stroke:#2ca02c;"/>
    </defs>
    <g clip-path="url(#p6ef9f6a0bd)">
     <use style="fill:#2ca02c;stroke:#2ca02c;" x="290.426512" xlink:href="#m8b0fa6f874" y="240.696929"/>
    </g>
   </g>
  </g>
 </g>
 <defs>
  <clipPath id="p6ef9f6a0bd">
   <rect height="274.991767" width="333.698318" x="75.426253" y="31.514625"/>
  </clipPath>
 </defs>
</svg>
