<?xml version="1.0" encoding="UTF-8" standalone="no"?>
<!DOCTYPE svg PUBLIC "-//W3C//DTD SVG 1.1//EN"
 "http://www.w3.org/Graphics/SVG/1.1/DTD/svg11.dtd">
<!-- Generated by graphviz version 2.43.0 (0)
 -->
<!-- Title: /home/sia/work/ADCP/Noise&#45;Estimation/code/imate/imate/_c_linear_operator/c_csc_matrix.cpp Pages: 1 -->
<svg width="251pt" height="352pt"
 viewBox="0.00 0.00 250.50 352.00" xmlns="http://www.w3.org/2000/svg" xmlns:xlink="http://www.w3.org/1999/xlink">
<g id="graph0" class="graph" transform="scale(1 1) rotate(0) translate(4 348)">
<title>/home/sia/work/ADCP/Noise&#45;Estimation/code/imate/imate/_c_linear_operator/c_csc_matrix.cpp</title>
<polygon fill="white" stroke="transparent" points="-4,4 -4,-348 246.5,-348 246.5,4 -4,4"/>
<!-- Node1 -->
<g id="node1" class="node">
<title>Node1</title>
<g id="a_node1"><a xlink:title=" ">
<polygon fill="#bfbfbf" stroke="black" points="63,-291.5 63,-343.5 200,-343.5 200,-291.5 63,-291.5"/>
<text text-anchor="start" x="71" y="-331.5" font-family="Helvetica,sans-Serif" font-size="10.00">/home/sia/work/ADCP</text>
<text text-anchor="start" x="71" y="-320.5" font-family="Helvetica,sans-Serif" font-size="10.00">/Noise&#45;Estimation/code</text>
<text text-anchor="start" x="71" y="-309.5" font-family="Helvetica,sans-Serif" font-size="10.00">/imate/imate/_c_linear</text>
<text text-anchor="middle" x="131.5" y="-298.5" font-family="Helvetica,sans-Serif" font-size="10.00">_operator/c_csc_matrix.cpp</text>
</a>
</g>
</g>
<!-- Node2 -->
<g id="node2" class="node">
<title>Node2</title>
<g id="a_node2"><a xlink:href="c__csc__matrix_8h.html" target="_top" xlink:title=" ">
<polygon fill="white" stroke="black" points="0,-235.5 0,-254.5 89,-254.5 89,-235.5 0,-235.5"/>
<text text-anchor="middle" x="44.5" y="-242.5" font-family="Helvetica,sans-Serif" font-size="10.00">./c_csc_matrix.h</text>
</a>
</g>
</g>
<!-- Node1&#45;&gt;Node2 -->
<g id="edge1" class="edge">
<title>Node1&#45;&gt;Node2</title>
<path fill="none" stroke="midnightblue" d="M100.58,-291.45C88.1,-281.33 74.1,-269.98 63.21,-261.16"/>
<polygon fill="midnightblue" stroke="midnightblue" points="65.2,-258.27 55.23,-254.7 60.8,-263.71 65.2,-258.27"/>
</g>
<!-- Node7 -->
<g id="node7" class="node">
<title>Node7</title>
<g id="a_node7"><a xlink:title=" ">
<polygon fill="white" stroke="#bfbfbf" points="107,-235.5 107,-254.5 156,-254.5 156,-235.5 107,-235.5"/>
<text text-anchor="middle" x="131.5" y="-242.5" font-family="Helvetica,sans-Serif" font-size="10.00">cstddef</text>
</a>
</g>
</g>
<!-- Node1&#45;&gt;Node7 -->
<g id="edge8" class="edge">
<title>Node1&#45;&gt;Node7</title>
<path fill="none" stroke="midnightblue" d="M131.5,-291.45C131.5,-282.73 131.5,-273.1 131.5,-264.96"/>
<polygon fill="midnightblue" stroke="midnightblue" points="135,-264.7 131.5,-254.7 128,-264.7 135,-264.7"/>
</g>
<!-- Node8 -->
<g id="node8" class="node">
<title>Node8</title>
<g id="a_node8"><a xlink:href="c__matrix__operations_8h.html" target="_top" xlink:title=" ">
<polygon fill="white" stroke="black" points="126.5,-168.5 126.5,-198.5 242.5,-198.5 242.5,-168.5 126.5,-168.5"/>
<text text-anchor="start" x="134.5" y="-186.5" font-family="Helvetica,sans-Serif" font-size="10.00">../_c_basic_algebra</text>
<text text-anchor="middle" x="184.5" y="-175.5" font-family="Helvetica,sans-Serif" font-size="10.00">/c_matrix_operations.h</text>
</a>
</g>
</g>
<!-- Node1&#45;&gt;Node8 -->
<g id="edge9" class="edge">
<title>Node1&#45;&gt;Node8</title>
<path fill="none" stroke="midnightblue" d="M146.58,-291.36C152.71,-280.45 159.5,-267.36 164.5,-255 170.62,-239.87 175.63,-222.2 179.1,-208.33"/>
<polygon fill="midnightblue" stroke="midnightblue" points="182.52,-209.12 181.46,-198.58 175.71,-207.48 182.52,-209.12"/>
</g>
<!-- Node3 -->
<g id="node3" class="node">
<title>Node3</title>
<g id="a_node3"><a xlink:href="types_8h.html" target="_top" xlink:title=" ">
<polygon fill="white" stroke="black" points="9.5,-56.5 9.5,-75.5 119.5,-75.5 119.5,-56.5 9.5,-56.5"/>
<text text-anchor="middle" x="64.5" y="-63.5" font-family="Helvetica,sans-Serif" font-size="10.00">../_definitions/types.h</text>
</a>
</g>
</g>
<!-- Node2&#45;&gt;Node3 -->
<g id="edge2" class="edge">
<title>Node2&#45;&gt;Node3</title>
<path fill="none" stroke="midnightblue" d="M33.51,-235.37C24.05,-227.17 11.06,-213.92 5.5,-199 0.68,-186.09 1.96,-181.32 5.5,-168 14.14,-135.47 36.32,-102.72 50.89,-83.68"/>
<polygon fill="midnightblue" stroke="midnightblue" points="53.72,-85.74 57.16,-75.72 48.22,-81.41 53.72,-85.74"/>
</g>
<!-- Node5 -->
<g id="node5" class="node">
<title>Node5</title>
<g id="a_node5"><a xlink:href="c__matrix_8h.html" target="_top" xlink:title=" ">
<polygon fill="white" stroke="black" points="14.5,-174 14.5,-193 82.5,-193 82.5,-174 14.5,-174"/>
<text text-anchor="middle" x="48.5" y="-181" font-family="Helvetica,sans-Serif" font-size="10.00">./c_matrix.h</text>
</a>
</g>
</g>
<!-- Node2&#45;&gt;Node5 -->
<g id="edge4" class="edge">
<title>Node2&#45;&gt;Node5</title>
<path fill="none" stroke="midnightblue" d="M45.07,-235.48C45.64,-227.08 46.52,-213.98 47.25,-203.16"/>
<polygon fill="midnightblue" stroke="midnightblue" points="50.75,-203.22 47.93,-193.01 43.76,-202.75 50.75,-203.22"/>
</g>
<!-- Node4 -->
<g id="node4" class="node">
<title>Node4</title>
<g id="a_node4"><a xlink:href="definitions_8h.html" target="_top" xlink:title=" ">
<polygon fill="white" stroke="black" points="27,-0.5 27,-19.5 102,-19.5 102,-0.5 27,-0.5"/>
<text text-anchor="middle" x="64.5" y="-7.5" font-family="Helvetica,sans-Serif" font-size="10.00">./definitions.h</text>
</a>
</g>
</g>
<!-- Node3&#45;&gt;Node4 -->
<g id="edge3" class="edge">
<title>Node3&#45;&gt;Node4</title>
<path fill="none" stroke="midnightblue" d="M64.5,-56.08C64.5,-49.01 64.5,-38.86 64.5,-29.99"/>
<polygon fill="midnightblue" stroke="midnightblue" points="68,-29.75 64.5,-19.75 61,-29.75 68,-29.75"/>
</g>
<!-- Node5&#45;&gt;Node3 -->
<g id="edge5" class="edge">
<title>Node5&#45;&gt;Node3</title>
<path fill="none" stroke="midnightblue" d="M46.28,-173.7C43.23,-160.24 38.66,-133.8 43.5,-112 45.62,-102.43 50.01,-92.48 54.22,-84.37"/>
<polygon fill="midnightblue" stroke="midnightblue" points="57.32,-86 59.12,-75.56 51.2,-82.6 57.32,-86"/>
</g>
<!-- Node6 -->
<g id="node6" class="node">
<title>Node6</title>
<g id="a_node6"><a xlink:href="c__linear__operator_8h.html" target="_top" xlink:title=" ">
<polygon fill="white" stroke="black" points="52.5,-112.5 52.5,-131.5 156.5,-131.5 156.5,-112.5 52.5,-112.5"/>
<text text-anchor="middle" x="104.5" y="-119.5" font-family="Helvetica,sans-Serif" font-size="10.00">./c_linear_operator.h</text>
</a>
</g>
</g>
<!-- Node5&#45;&gt;Node6 -->
<g id="edge6" class="edge">
<title>Node5&#45;&gt;Node6</title>
<path fill="none" stroke="midnightblue" d="M56.52,-173.98C65.09,-164.87 78.86,-150.24 89.46,-138.98"/>
<polygon fill="midnightblue" stroke="midnightblue" points="92.19,-141.19 96.49,-131.51 87.09,-136.39 92.19,-141.19"/>
</g>
<!-- Node6&#45;&gt;Node3 -->
<g id="edge7" class="edge">
<title>Node6&#45;&gt;Node3</title>
<path fill="none" stroke="midnightblue" d="M97.89,-112.08C92.24,-104.46 83.96,-93.26 77.05,-83.94"/>
<polygon fill="midnightblue" stroke="midnightblue" points="79.75,-81.7 70.98,-75.75 74.12,-85.87 79.75,-81.7"/>
</g>
<!-- Node8&#45;&gt;Node3 -->
<g id="edge10" class="edge">
<title>Node8&#45;&gt;Node3</title>
<path fill="none" stroke="midnightblue" d="M184.18,-168.42C183.1,-152.89 179.18,-127.99 165.5,-112 151.95,-96.16 131.73,-85.66 112.93,-78.82"/>
<polygon fill="midnightblue" stroke="midnightblue" points="113.87,-75.44 103.27,-75.57 111.63,-82.08 113.87,-75.44"/>
</g>
</g>
</svg>
