<?xml version="1.0" encoding="UTF-8" standalone="no"?>
<!DOCTYPE svg PUBLIC "-//W3C//DTD SVG 1.1//EN"
 "http://www.w3.org/Graphics/SVG/1.1/DTD/svg11.dtd">
<!-- Generated by graphviz version 2.43.0 (0)
 -->
<!-- Title: /home/sia/work/ADCP/Noise&#45;Estimation/code/imate/imate/_c_linear_operator/c_dense_affine_matrix_function.h Pages: 1 -->
<svg width="262pt" height="352pt"
 viewBox="0.00 0.00 262.20 352.00" xmlns="http://www.w3.org/2000/svg" xmlns:xlink="http://www.w3.org/1999/xlink">
<g id="graph0" class="graph" transform="scale(1 1) rotate(0) translate(4 348)">
<title>/home/sia/work/ADCP/Noise&#45;Estimation/code/imate/imate/_c_linear_operator/c_dense_affine_matrix_function.h</title>
<polygon fill="white" stroke="transparent" points="-4,4 -4,-348 258.2,-348 258.2,4 -4,4"/>
<!-- Node1 -->
<g id="node1" class="node">
<title>Node1</title>
<g id="a_node1"><a xlink:title=" ">
<polygon fill="#bfbfbf" stroke="black" points="20.2,-280.5 20.2,-343.5 146.2,-343.5 146.2,-280.5 20.2,-280.5"/>
<text text-anchor="start" x="28.2" y="-331.5" font-family="Helvetica,sans-Serif" font-size="10.00">/home/sia/work/ADCP</text>
<text text-anchor="start" x="28.2" y="-320.5" font-family="Helvetica,sans-Serif" font-size="10.00">/Noise&#45;Estimation/code</text>
<text text-anchor="start" x="28.2" y="-309.5" font-family="Helvetica,sans-Serif" font-size="10.00">/imate/imate/_c_linear</text>
<text text-anchor="start" x="28.2" y="-298.5" font-family="Helvetica,sans-Serif" font-size="10.00">_operator/c_dense_affine</text>
<text text-anchor="middle" x="83.2" y="-287.5" font-family="Helvetica,sans-Serif" font-size="10.00">_matrix_function.h</text>
</a>
</g>
</g>
<!-- Node2 -->
<g id="node2" class="node">
<title>Node2</title>
<g id="a_node2"><a xlink:href="types_8h.html" target="_top" xlink:title=" ">
<polygon fill="white" stroke="black" points="81.2,-56.5 81.2,-75.5 191.2,-75.5 191.2,-56.5 81.2,-56.5"/>
<text text-anchor="middle" x="136.2" y="-63.5" font-family="Helvetica,sans-Serif" font-size="10.00">../_definitions/types.h</text>
</a>
</g>
</g>
<!-- Node1&#45;&gt;Node2 -->
<g id="edge1" class="edge">
<title>Node1&#45;&gt;Node2</title>
<path fill="none" stroke="midnightblue" d="M47.85,-280.25C19.67,-251.8 -12.38,-208 5.2,-168 24.21,-124.76 72.87,-95.39 105.23,-79.91"/>
<polygon fill="midnightblue" stroke="midnightblue" points="107.08,-82.92 114.7,-75.56 104.16,-76.56 107.08,-82.92"/>
</g>
<!-- Node4 -->
<g id="node4" class="node">
<title>Node4</title>
<g id="a_node4"><a xlink:href="c__affine__matrix__function_8h.html" target="_top" xlink:title=" ">
<polygon fill="white" stroke="black" points="14.7,-168.5 14.7,-187.5 151.7,-187.5 151.7,-168.5 14.7,-168.5"/>
<text text-anchor="middle" x="83.2" y="-175.5" font-family="Helvetica,sans-Serif" font-size="10.00">./c_affine_matrix_function.h</text>
</a>
</g>
</g>
<!-- Node1&#45;&gt;Node4 -->
<g id="edge3" class="edge">
<title>Node1&#45;&gt;Node4</title>
<path fill="none" stroke="midnightblue" d="M83.2,-280.38C83.2,-254.82 83.2,-219.2 83.2,-197.7"/>
<polygon fill="midnightblue" stroke="midnightblue" points="86.7,-197.61 83.2,-187.61 79.7,-197.61 86.7,-197.61"/>
</g>
<!-- Node6 -->
<g id="node6" class="node">
<title>Node6</title>
<g id="a_node6"><a xlink:href="c__dense__matrix_8h.html" target="_top" xlink:title=" ">
<polygon fill="white" stroke="black" points="154.2,-224.5 154.2,-243.5 254.2,-243.5 254.2,-224.5 154.2,-224.5"/>
<text text-anchor="middle" x="204.2" y="-231.5" font-family="Helvetica,sans-Serif" font-size="10.00">./c_dense_matrix.h</text>
</a>
</g>
</g>
<!-- Node1&#45;&gt;Node6 -->
<g id="edge7" class="edge">
<title>Node1&#45;&gt;Node6</title>
<path fill="none" stroke="midnightblue" d="M132.07,-280.31C149.23,-269.53 167.68,-257.94 181.63,-249.17"/>
<polygon fill="midnightblue" stroke="midnightblue" points="183.89,-251.89 190.5,-243.61 180.17,-245.96 183.89,-251.89"/>
</g>
<!-- Node3 -->
<g id="node3" class="node">
<title>Node3</title>
<g id="a_node3"><a xlink:href="definitions_8h.html" target="_top" xlink:title=" ">
<polygon fill="white" stroke="black" points="98.7,-0.5 98.7,-19.5 173.7,-19.5 173.7,-0.5 98.7,-0.5"/>
<text text-anchor="middle" x="136.2" y="-7.5" font-family="Helvetica,sans-Serif" font-size="10.00">./definitions.h</text>
</a>
</g>
</g>
<!-- Node2&#45;&gt;Node3 -->
<g id="edge2" class="edge">
<title>Node2&#45;&gt;Node3</title>
<path fill="none" stroke="midnightblue" d="M136.2,-56.08C136.2,-49.01 136.2,-38.86 136.2,-29.99"/>
<polygon fill="midnightblue" stroke="midnightblue" points="139.7,-29.75 136.2,-19.75 132.7,-29.75 139.7,-29.75"/>
</g>
<!-- Node4&#45;&gt;Node2 -->
<g id="edge4" class="edge">
<title>Node4&#45;&gt;Node2</title>
<path fill="none" stroke="midnightblue" d="M79.24,-168.48C73.85,-155.53 65.87,-130.47 75.2,-112 82.01,-98.52 94.97,-88.08 107.2,-80.67"/>
<polygon fill="midnightblue" stroke="midnightblue" points="109.27,-83.52 116.29,-75.59 105.86,-77.41 109.27,-83.52"/>
</g>
<!-- Node5 -->
<g id="node5" class="node">
<title>Node5</title>
<g id="a_node5"><a xlink:href="c__linear__operator_8h.html" target="_top" xlink:title=" ">
<polygon fill="white" stroke="black" points="84.2,-112.5 84.2,-131.5 188.2,-131.5 188.2,-112.5 84.2,-112.5"/>
<text text-anchor="middle" x="136.2" y="-119.5" font-family="Helvetica,sans-Serif" font-size="10.00">./c_linear_operator.h</text>
</a>
</g>
</g>
<!-- Node4&#45;&gt;Node5 -->
<g id="edge5" class="edge">
<title>Node4&#45;&gt;Node5</title>
<path fill="none" stroke="midnightblue" d="M91.95,-168.08C99.67,-160.22 111.11,-148.57 120.42,-139.08"/>
<polygon fill="midnightblue" stroke="midnightblue" points="123.11,-141.34 127.61,-131.75 118.11,-136.44 123.11,-141.34"/>
</g>
<!-- Node5&#45;&gt;Node2 -->
<g id="edge6" class="edge">
<title>Node5&#45;&gt;Node2</title>
<path fill="none" stroke="midnightblue" d="M136.2,-112.08C136.2,-105.01 136.2,-94.86 136.2,-85.99"/>
<polygon fill="midnightblue" stroke="midnightblue" points="139.7,-85.75 136.2,-75.75 132.7,-85.75 139.7,-85.75"/>
</g>
<!-- Node6&#45;&gt;Node2 -->
<g id="edge8" class="edge">
<title>Node6&#45;&gt;Node2</title>
<path fill="none" stroke="midnightblue" d="M216.7,-224.3C227.08,-216.25 241.09,-203.24 247.2,-188 250.51,-179.75 249.54,-176.58 247.2,-168 239.6,-140.13 234.72,-132.33 214.2,-112 200.59,-98.51 182.13,-87.63 166.59,-79.94"/>
<polygon fill="midnightblue" stroke="midnightblue" points="167.9,-76.69 157.36,-75.57 164.9,-83.01 167.9,-76.69"/>
</g>
<!-- Node7 -->
<g id="node7" class="node">
<title>Node7</title>
<g id="a_node7"><a xlink:href="c__matrix_8h.html" target="_top" xlink:title=" ">
<polygon fill="white" stroke="black" points="170.2,-168.5 170.2,-187.5 238.2,-187.5 238.2,-168.5 170.2,-168.5"/>
<text text-anchor="middle" x="204.2" y="-175.5" font-family="Helvetica,sans-Serif" font-size="10.00">./c_matrix.h</text>
</a>
</g>
</g>
<!-- Node6&#45;&gt;Node7 -->
<g id="edge9" class="edge">
<title>Node6&#45;&gt;Node7</title>
<path fill="none" stroke="midnightblue" d="M204.2,-224.08C204.2,-217.01 204.2,-206.86 204.2,-197.99"/>
<polygon fill="midnightblue" stroke="midnightblue" points="207.7,-197.75 204.2,-187.75 200.7,-197.75 207.7,-197.75"/>
</g>
<!-- Node7&#45;&gt;Node2 -->
<g id="edge10" class="edge">
<title>Node7&#45;&gt;Node2</title>
<path fill="none" stroke="midnightblue" d="M205.36,-168.34C206.69,-155.21 207.49,-129.91 197.2,-112 189.58,-98.72 176.28,-88.22 164.05,-80.71"/>
<polygon fill="midnightblue" stroke="midnightblue" points="165.43,-77.47 155.01,-75.56 161.96,-83.55 165.43,-77.47"/>
</g>
<!-- Node7&#45;&gt;Node5 -->
<g id="edge11" class="edge">
<title>Node7&#45;&gt;Node5</title>
<path fill="none" stroke="midnightblue" d="M193.28,-168.32C183.03,-160.18 167.48,-147.84 155.2,-138.09"/>
<polygon fill="midnightblue" stroke="midnightblue" points="157.33,-135.31 147.33,-131.83 152.98,-140.79 157.33,-135.31"/>
</g>
</g>
</svg>
