<?xml version="1.0" encoding="UTF-8" standalone="no"?>
<!DOCTYPE svg PUBLIC "-//W3C//DTD SVG 1.1//EN"
 "http://www.w3.org/Graphics/SVG/1.1/DTD/svg11.dtd">
<!-- Generated by graphviz version 2.43.0 (0)
 -->
<!-- Title: /home/sia/work/ADCP/Noise&#45;Estimation/code/imate/imate/_c_linear_operator/c_dense_matrix.cpp Pages: 1 -->
<svg width="262pt" height="352pt"
 viewBox="0.00 0.00 262.00 352.00" xmlns="http://www.w3.org/2000/svg" xmlns:xlink="http://www.w3.org/1999/xlink">
<g id="graph0" class="graph" transform="scale(1 1) rotate(0) translate(4 348)">
<title>/home/sia/work/ADCP/Noise&#45;Estimation/code/imate/imate/_c_linear_operator/c_dense_matrix.cpp</title>
<polygon fill="white" stroke="transparent" points="-4,4 -4,-348 258,-348 258,4 -4,4"/>
<!-- Node1 -->
<g id="node1" class="node">
<title>Node1</title>
<g id="a_node1"><a xlink:title=" ">
<polygon fill="#bfbfbf" stroke="black" points="69,-291.5 69,-343.5 217,-343.5 217,-291.5 69,-291.5"/>
<text text-anchor="start" x="77" y="-331.5" font-family="Helvetica,sans-Serif" font-size="10.00">/home/sia/work/ADCP</text>
<text text-anchor="start" x="77" y="-320.5" font-family="Helvetica,sans-Serif" font-size="10.00">/Noise&#45;Estimation/code</text>
<text text-anchor="start" x="77" y="-309.5" font-family="Helvetica,sans-Serif" font-size="10.00">/imate/imate/_c_linear</text>
<text text-anchor="middle" x="143" y="-298.5" font-family="Helvetica,sans-Serif" font-size="10.00">_operator/c_dense_matrix.cpp</text>
</a>
</g>
</g>
<!-- Node2 -->
<g id="node2" class="node">
<title>Node2</title>
<g id="a_node2"><a xlink:href="c__dense__matrix_8h.html" target="_top" xlink:title=" ">
<polygon fill="white" stroke="black" points="0,-235.5 0,-254.5 100,-254.5 100,-235.5 0,-235.5"/>
<text text-anchor="middle" x="50" y="-242.5" font-family="Helvetica,sans-Serif" font-size="10.00">./c_dense_matrix.h</text>
</a>
</g>
</g>
<!-- Node1&#45;&gt;Node2 -->
<g id="edge1" class="edge">
<title>Node1&#45;&gt;Node2</title>
<path fill="none" stroke="midnightblue" d="M109.95,-291.45C96.47,-281.23 81.34,-269.76 69.65,-260.9"/>
<polygon fill="midnightblue" stroke="midnightblue" points="71.55,-257.95 61.47,-254.7 67.33,-263.53 71.55,-257.95"/>
</g>
<!-- Node7 -->
<g id="node7" class="node">
<title>Node7</title>
<g id="a_node7"><a xlink:title=" ">
<polygon fill="white" stroke="#bfbfbf" points="118.5,-235.5 118.5,-254.5 167.5,-254.5 167.5,-235.5 118.5,-235.5"/>
<text text-anchor="middle" x="143" y="-242.5" font-family="Helvetica,sans-Serif" font-size="10.00">cstddef</text>
</a>
</g>
</g>
<!-- Node1&#45;&gt;Node7 -->
<g id="edge8" class="edge">
<title>Node1&#45;&gt;Node7</title>
<path fill="none" stroke="midnightblue" d="M143,-291.45C143,-282.73 143,-273.1 143,-264.96"/>
<polygon fill="midnightblue" stroke="midnightblue" points="146.5,-264.7 143,-254.7 139.5,-264.7 146.5,-264.7"/>
</g>
<!-- Node8 -->
<g id="node8" class="node">
<title>Node8</title>
<g id="a_node8"><a xlink:href="c__matrix__operations_8h.html" target="_top" xlink:title=" ">
<polygon fill="white" stroke="black" points="138,-168.5 138,-198.5 254,-198.5 254,-168.5 138,-168.5"/>
<text text-anchor="start" x="146" y="-186.5" font-family="Helvetica,sans-Serif" font-size="10.00">../_c_basic_algebra</text>
<text text-anchor="middle" x="196" y="-175.5" font-family="Helvetica,sans-Serif" font-size="10.00">/c_matrix_operations.h</text>
</a>
</g>
</g>
<!-- Node1&#45;&gt;Node8 -->
<g id="edge9" class="edge">
<title>Node1&#45;&gt;Node8</title>
<path fill="none" stroke="midnightblue" d="M158.08,-291.36C164.21,-280.45 171,-267.36 176,-255 182.12,-239.87 187.13,-222.2 190.6,-208.33"/>
<polygon fill="midnightblue" stroke="midnightblue" points="194.02,-209.12 192.96,-198.58 187.21,-207.48 194.02,-209.12"/>
</g>
<!-- Node3 -->
<g id="node3" class="node">
<title>Node3</title>
<g id="a_node3"><a xlink:href="types_8h.html" target="_top" xlink:title=" ">
<polygon fill="white" stroke="black" points="21,-56.5 21,-75.5 131,-75.5 131,-56.5 21,-56.5"/>
<text text-anchor="middle" x="76" y="-63.5" font-family="Helvetica,sans-Serif" font-size="10.00">../_definitions/types.h</text>
</a>
</g>
</g>
<!-- Node2&#45;&gt;Node3 -->
<g id="edge2" class="edge">
<title>Node2&#45;&gt;Node3</title>
<path fill="none" stroke="midnightblue" d="M40.98,-235.34C32.93,-226.93 21.7,-213.36 17,-199 12.71,-185.91 13.46,-181.32 17,-168 25.64,-135.47 47.82,-102.72 62.39,-83.68"/>
<polygon fill="midnightblue" stroke="midnightblue" points="65.22,-85.74 68.66,-75.72 59.72,-81.41 65.22,-85.74"/>
</g>
<!-- Node5 -->
<g id="node5" class="node">
<title>Node5</title>
<g id="a_node5"><a xlink:href="c__matrix_8h.html" target="_top" xlink:title=" ">
<polygon fill="white" stroke="black" points="26,-174 26,-193 94,-193 94,-174 26,-174"/>
<text text-anchor="middle" x="60" y="-181" font-family="Helvetica,sans-Serif" font-size="10.00">./c_matrix.h</text>
</a>
</g>
</g>
<!-- Node2&#45;&gt;Node5 -->
<g id="edge4" class="edge">
<title>Node2&#45;&gt;Node5</title>
<path fill="none" stroke="midnightblue" d="M51.43,-235.48C52.84,-227.08 55.05,-213.98 56.86,-203.16"/>
<polygon fill="midnightblue" stroke="midnightblue" points="60.36,-203.45 58.57,-193.01 53.46,-202.29 60.36,-203.45"/>
</g>
<!-- Node4 -->
<g id="node4" class="node">
<title>Node4</title>
<g id="a_node4"><a xlink:href="definitions_8h.html" target="_top" xlink:title=" ">
<polygon fill="white" stroke="black" points="38.5,-0.5 38.5,-19.5 113.5,-19.5 113.5,-0.5 38.5,-0.5"/>
<text text-anchor="middle" x="76" y="-7.5" font-family="Helvetica,sans-Serif" font-size="10.00">./definitions.h</text>
</a>
</g>
</g>
<!-- Node3&#45;&gt;Node4 -->
<g id="edge3" class="edge">
<title>Node3&#45;&gt;Node4</title>
<path fill="none" stroke="midnightblue" d="M76,-56.08C76,-49.01 76,-38.86 76,-29.99"/>
<polygon fill="midnightblue" stroke="midnightblue" points="79.5,-29.75 76,-19.75 72.5,-29.75 79.5,-29.75"/>
</g>
<!-- Node5&#45;&gt;Node3 -->
<g id="edge5" class="edge">
<title>Node5&#45;&gt;Node3</title>
<path fill="none" stroke="midnightblue" d="M57.78,-173.7C54.73,-160.24 50.16,-133.8 55,-112 57.12,-102.43 61.51,-92.48 65.72,-84.37"/>
<polygon fill="midnightblue" stroke="midnightblue" points="68.82,-86 70.62,-75.56 62.7,-82.6 68.82,-86"/>
</g>
<!-- Node6 -->
<g id="node6" class="node">
<title>Node6</title>
<g id="a_node6"><a xlink:href="c__linear__operator_8h.html" target="_top" xlink:title=" ">
<polygon fill="white" stroke="black" points="64,-112.5 64,-131.5 168,-131.5 168,-112.5 64,-112.5"/>
<text text-anchor="middle" x="116" y="-119.5" font-family="Helvetica,sans-Serif" font-size="10.00">./c_linear_operator.h</text>
</a>
</g>
</g>
<!-- Node5&#45;&gt;Node6 -->
<g id="edge6" class="edge">
<title>Node5&#45;&gt;Node6</title>
<path fill="none" stroke="midnightblue" d="M68.02,-173.98C76.59,-164.87 90.36,-150.24 100.96,-138.98"/>
<polygon fill="midnightblue" stroke="midnightblue" points="103.69,-141.19 107.99,-131.51 98.59,-136.39 103.69,-141.19"/>
</g>
<!-- Node6&#45;&gt;Node3 -->
<g id="edge7" class="edge">
<title>Node6&#45;&gt;Node3</title>
<path fill="none" stroke="midnightblue" d="M109.39,-112.08C103.74,-104.46 95.46,-93.26 88.55,-83.94"/>
<polygon fill="midnightblue" stroke="midnightblue" points="91.25,-81.7 82.48,-75.75 85.62,-85.87 91.25,-81.7"/>
</g>
<!-- Node8&#45;&gt;Node3 -->
<g id="edge10" class="edge">
<title>Node8&#45;&gt;Node3</title>
<path fill="none" stroke="midnightblue" d="M195.68,-168.42C194.6,-152.89 190.68,-127.99 177,-112 163.45,-96.16 143.23,-85.66 124.43,-78.82"/>
<polygon fill="midnightblue" stroke="midnightblue" points="125.37,-75.44 114.77,-75.57 123.13,-82.08 125.37,-75.44"/>
</g>
</g>
</svg>
