<?xml version="1.0" encoding="UTF-8" standalone="no"?>
<!DOCTYPE svg PUBLIC "-//W3C//DTD SVG 1.1//EN"
 "http://www.w3.org/Graphics/SVG/1.1/DTD/svg11.dtd">
<!-- Generated by graphviz version 2.43.0 (0)
 -->
<!-- Title: /home/sia/work/ADCP/Noise&#45;Estimation/code/imate/imate/_c_trace_estimator/c_golub_kahn_bidiagonalization.cpp Pages: 1 -->
<svg width="420pt" height="307pt"
 viewBox="0.00 0.00 419.50 307.00" xmlns="http://www.w3.org/2000/svg" xmlns:xlink="http://www.w3.org/1999/xlink">
<g id="graph0" class="graph" transform="scale(1 1) rotate(0) translate(4 303)">
<title>/home/sia/work/ADCP/Noise&#45;Estimation/code/imate/imate/_c_trace_estimator/c_golub_kahn_bidiagonalization.cpp</title>
<polygon fill="white" stroke="transparent" points="-4,4 -4,-303 415.5,-303 415.5,4 -4,4"/>
<!-- Node1 -->
<g id="node1" class="node">
<title>Node1</title>
<g id="a_node1"><a xlink:title=" ">
<polygon fill="#bfbfbf" stroke="black" points="179,-235.5 179,-298.5 304,-298.5 304,-235.5 179,-235.5"/>
<text text-anchor="start" x="187" y="-286.5" font-family="Helvetica,sans-Serif" font-size="10.00">/home/sia/work/ADCP</text>
<text text-anchor="start" x="187" y="-275.5" font-family="Helvetica,sans-Serif" font-size="10.00">/Noise&#45;Estimation/code</text>
<text text-anchor="start" x="187" y="-264.5" font-family="Helvetica,sans-Serif" font-size="10.00">/imate/imate/_c_trace</text>
<text text-anchor="start" x="187" y="-253.5" font-family="Helvetica,sans-Serif" font-size="10.00">_estimator/c_golub_kahn</text>
<text text-anchor="middle" x="241.5" y="-242.5" font-family="Helvetica,sans-Serif" font-size="10.00">_bidiagonalization.cpp</text>
</a>
</g>
</g>
<!-- Node2 -->
<g id="node2" class="node">
<title>Node2</title>
<g id="a_node2"><a xlink:href="c__golub__kahn__bidiagonalization_8h.html" target="_top" xlink:title=" ">
<polygon fill="white" stroke="black" points="8.5,-179.5 8.5,-198.5 176.5,-198.5 176.5,-179.5 8.5,-179.5"/>
<text text-anchor="middle" x="92.5" y="-186.5" font-family="Helvetica,sans-Serif" font-size="10.00">./c_golub_kahn_bidiagonalization.h</text>
</a>
</g>
</g>
<!-- Node1&#45;&gt;Node2 -->
<g id="edge1" class="edge">
<title>Node1&#45;&gt;Node2</title>
<path fill="none" stroke="midnightblue" d="M181.33,-235.31C159.38,-224.11 135.72,-212.04 118.33,-203.18"/>
<polygon fill="midnightblue" stroke="midnightblue" points="119.87,-200.03 109.37,-198.61 116.69,-206.27 119.87,-200.03"/>
</g>
<!-- Node6 -->
<g id="node6" class="node">
<title>Node6</title>
<g id="a_node6"><a xlink:title=" ">
<polygon fill="white" stroke="#bfbfbf" points="194.5,-179.5 194.5,-198.5 238.5,-198.5 238.5,-179.5 194.5,-179.5"/>
<text text-anchor="middle" x="216.5" y="-186.5" font-family="Helvetica,sans-Serif" font-size="10.00">cmath</text>
</a>
</g>
</g>
<!-- Node1&#45;&gt;Node6 -->
<g id="edge6" class="edge">
<title>Node1&#45;&gt;Node6</title>
<path fill="none" stroke="midnightblue" d="M231.33,-235.09C228.36,-226.05 225.2,-216.45 222.57,-208.45"/>
<polygon fill="midnightblue" stroke="midnightblue" points="225.82,-207.12 219.37,-198.72 219.17,-209.31 225.82,-207.12"/>
</g>
<!-- Node7 -->
<g id="node7" class="node">
<title>Node7</title>
<g id="a_node7"><a xlink:href="c__orthogonalization_8h.html" target="_top" xlink:title=" ">
<polygon fill="white" stroke="black" points="162,-118 162,-137 277,-137 277,-118 162,-118"/>
<text text-anchor="middle" x="219.5" y="-125" font-family="Helvetica,sans-Serif" font-size="10.00">./c_orthogonalization.h</text>
</a>
</g>
</g>
<!-- Node1&#45;&gt;Node7 -->
<g id="edge7" class="edge">
<title>Node1&#45;&gt;Node7</title>
<path fill="none" stroke="midnightblue" d="M248.33,-235.36C250.92,-218.49 252.24,-197.32 247.5,-179 244.41,-167.06 237.83,-154.94 231.82,-145.56"/>
<polygon fill="midnightblue" stroke="midnightblue" points="234.66,-143.52 226.15,-137.21 228.87,-147.45 234.66,-143.52"/>
</g>
<!-- Node8 -->
<g id="node8" class="node">
<title>Node8</title>
<g id="a_node8"><a xlink:href="c__vector__operations_8h.html" target="_top" xlink:title=" ">
<polygon fill="white" stroke="black" points="295.5,-112.5 295.5,-142.5 411.5,-142.5 411.5,-112.5 295.5,-112.5"/>
<text text-anchor="start" x="303.5" y="-130.5" font-family="Helvetica,sans-Serif" font-size="10.00">../_c_basic_algebra</text>
<text text-anchor="middle" x="353.5" y="-119.5" font-family="Helvetica,sans-Serif" font-size="10.00">/c_vector_operations.h</text>
</a>
</g>
</g>
<!-- Node1&#45;&gt;Node8 -->
<g id="edge9" class="edge">
<title>Node1&#45;&gt;Node8</title>
<path fill="none" stroke="midnightblue" d="M266.36,-235.48C287.36,-209.69 316.94,-173.38 335.67,-150.39"/>
<polygon fill="midnightblue" stroke="midnightblue" points="338.44,-152.54 342.04,-142.57 333.01,-148.12 338.44,-152.54"/>
</g>
<!-- Node3 -->
<g id="node3" class="node">
<title>Node3</title>
<g id="a_node3"><a xlink:href="c__linear__operator_8h.html" target="_top" xlink:title=" ">
<polygon fill="white" stroke="black" points="0,-112.5 0,-142.5 105,-142.5 105,-112.5 0,-112.5"/>
<text text-anchor="start" x="8" y="-130.5" font-family="Helvetica,sans-Serif" font-size="10.00">../_c_linear_operator</text>
<text text-anchor="middle" x="52.5" y="-119.5" font-family="Helvetica,sans-Serif" font-size="10.00">/c_linear_operator.h</text>
</a>
</g>
</g>
<!-- Node2&#45;&gt;Node3 -->
<g id="edge2" class="edge">
<title>Node2&#45;&gt;Node3</title>
<path fill="none" stroke="midnightblue" d="M86.77,-179.48C81.76,-172.02 74.25,-160.85 67.54,-150.87"/>
<polygon fill="midnightblue" stroke="midnightblue" points="70.41,-148.87 61.93,-142.52 64.6,-152.77 70.41,-148.87"/>
</g>
<!-- Node4 -->
<g id="node4" class="node">
<title>Node4</title>
<g id="a_node4"><a xlink:href="types_8h.html" target="_top" xlink:title=" ">
<polygon fill="white" stroke="black" points="121.5,-56.5 121.5,-75.5 231.5,-75.5 231.5,-56.5 121.5,-56.5"/>
<text text-anchor="middle" x="176.5" y="-63.5" font-family="Helvetica,sans-Serif" font-size="10.00">../_definitions/types.h</text>
</a>
</g>
</g>
<!-- Node2&#45;&gt;Node4 -->
<g id="edge5" class="edge">
<title>Node2&#45;&gt;Node4</title>
<path fill="none" stroke="midnightblue" d="M98.54,-179.3C112.34,-159.41 146.4,-110.35 164.6,-84.15"/>
<polygon fill="midnightblue" stroke="midnightblue" points="167.69,-85.83 170.51,-75.62 161.94,-81.84 167.69,-85.83"/>
</g>
<!-- Node3&#45;&gt;Node4 -->
<g id="edge3" class="edge">
<title>Node3&#45;&gt;Node4</title>
<path fill="none" stroke="midnightblue" d="M81.89,-112.4C102.32,-102.59 129.36,-89.62 149.3,-80.05"/>
<polygon fill="midnightblue" stroke="midnightblue" points="150.96,-83.14 158.46,-75.66 147.93,-76.83 150.96,-83.14"/>
</g>
<!-- Node5 -->
<g id="node5" class="node">
<title>Node5</title>
<g id="a_node5"><a xlink:href="definitions_8h.html" target="_top" xlink:title=" ">
<polygon fill="white" stroke="black" points="139,-0.5 139,-19.5 214,-19.5 214,-0.5 139,-0.5"/>
<text text-anchor="middle" x="176.5" y="-7.5" font-family="Helvetica,sans-Serif" font-size="10.00">./definitions.h</text>
</a>
</g>
</g>
<!-- Node4&#45;&gt;Node5 -->
<g id="edge4" class="edge">
<title>Node4&#45;&gt;Node5</title>
<path fill="none" stroke="midnightblue" d="M176.5,-56.08C176.5,-49.01 176.5,-38.86 176.5,-29.99"/>
<polygon fill="midnightblue" stroke="midnightblue" points="180,-29.75 176.5,-19.75 173,-29.75 180,-29.75"/>
</g>
<!-- Node7&#45;&gt;Node4 -->
<g id="edge8" class="edge">
<title>Node7&#45;&gt;Node4</title>
<path fill="none" stroke="midnightblue" d="M213.34,-117.98C206.89,-109.05 196.6,-94.81 188.53,-83.64"/>
<polygon fill="midnightblue" stroke="midnightblue" points="191.34,-81.56 182.65,-75.51 185.67,-85.66 191.34,-81.56"/>
</g>
<!-- Node8&#45;&gt;Node4 -->
<g id="edge10" class="edge">
<title>Node8&#45;&gt;Node4</title>
<path fill="none" stroke="midnightblue" d="M311.55,-112.4C281.1,-102.16 240.37,-88.47 211.63,-78.81"/>
<polygon fill="midnightblue" stroke="midnightblue" points="212.59,-75.44 202,-75.57 210.36,-82.07 212.59,-75.44"/>
</g>
</g>
</svg>
