<?xml version="1.0" encoding="UTF-8" standalone="no"?>
<!DOCTYPE svg PUBLIC "-//W3C//DTD SVG 1.1//EN"
 "http://www.w3.org/Graphics/SVG/1.1/DTD/svg11.dtd">
<!-- Generated by graphviz version 2.43.0 (0)
 -->
<!-- Title: /home/sia/work/ADCP/Noise&#45;Estimation/code/imate/imate/_c_trace_estimator/c_lanczos_tridiagonalization.h Pages: 1 -->
<svg width="394pt" height="150pt"
 viewBox="0.00 0.00 393.50 150.00" xmlns="http://www.w3.org/2000/svg" xmlns:xlink="http://www.w3.org/1999/xlink">
<g id="graph0" class="graph" transform="scale(1 1) rotate(0) translate(4 146)">
<title>/home/sia/work/ADCP/Noise&#45;Estimation/code/imate/imate/_c_trace_estimator/c_lanczos_tridiagonalization.h</title>
<polygon fill="white" stroke="transparent" points="-4,4 -4,-146 389.5,-146 389.5,4 -4,4"/>
<!-- Node1 -->
<g id="node1" class="node">
<title>Node1</title>
<g id="a_node1"><a xlink:title=" ">
<polygon fill="#bfbfbf" stroke="black" points="106,-89.5 106,-141.5 302,-141.5 302,-89.5 106,-89.5"/>
<text text-anchor="start" x="114" y="-129.5" font-family="Helvetica,sans-Serif" font-size="10.00">/home/sia/work/ADCP</text>
<text text-anchor="start" x="114" y="-118.5" font-family="Helvetica,sans-Serif" font-size="10.00">/Noise&#45;Estimation/code</text>
<text text-anchor="start" x="114" y="-107.5" font-family="Helvetica,sans-Serif" font-size="10.00">/imate/imate/_c_trace</text>
<text text-anchor="middle" x="204" y="-96.5" font-family="Helvetica,sans-Serif" font-size="10.00">_estimator/c_lanczos_tridiagonalization.h</text>
</a>
</g>
</g>
<!-- Node2 -->
<g id="node2" class="node">
<title>Node2</title>
<g id="a_node2"><a xlink:href="c__lanczos__tridiagonalization_8cpp.html" target="_top" xlink:title=" ">
<polygon fill="white" stroke="black" points="0,-0.5 0,-52.5 206,-52.5 206,-0.5 0,-0.5"/>
<text text-anchor="start" x="8" y="-40.5" font-family="Helvetica,sans-Serif" font-size="10.00">/home/sia/work/ADCP</text>
<text text-anchor="start" x="8" y="-29.5" font-family="Helvetica,sans-Serif" font-size="10.00">/Noise&#45;Estimation/code</text>
<text text-anchor="start" x="8" y="-18.5" font-family="Helvetica,sans-Serif" font-size="10.00">/imate/imate/_c_trace</text>
<text text-anchor="middle" x="103" y="-7.5" font-family="Helvetica,sans-Serif" font-size="10.00">_estimator/c_lanczos_tridiagonalization.cpp</text>
</a>
</g>
</g>
<!-- Node1&#45;&gt;Node2 -->
<g id="edge1" class="edge">
<title>Node1&#45;&gt;Node2</title>
<path fill="none" stroke="midnightblue" d="M167.02,-82.65C155.53,-72.75 143.03,-61.98 132.15,-52.61"/>
<polygon fill="midnightblue" stroke="midnightblue" points="164.93,-85.46 174.79,-89.34 169.49,-80.16 164.93,-85.46"/>
</g>
<!-- Node3 -->
<g id="node3" class="node">
<title>Node3</title>
<g id="a_node3"><a xlink:href="c__trace__estimator_8cpp.html" target="_top" xlink:title=" ">
<polygon fill="white" stroke="black" points="224.5,-0.5 224.5,-52.5 385.5,-52.5 385.5,-0.5 224.5,-0.5"/>
<text text-anchor="start" x="232.5" y="-40.5" font-family="Helvetica,sans-Serif" font-size="10.00">/home/sia/work/ADCP</text>
<text text-anchor="start" x="232.5" y="-29.5" font-family="Helvetica,sans-Serif" font-size="10.00">/Noise&#45;Estimation/code</text>
<text text-anchor="start" x="232.5" y="-18.5" font-family="Helvetica,sans-Serif" font-size="10.00">/imate/imate/_c_trace</text>
<text text-anchor="middle" x="305" y="-7.5" font-family="Helvetica,sans-Serif" font-size="10.00">_estimator/c_trace_estimator.cpp</text>
</a>
</g>
</g>
<!-- Node1&#45;&gt;Node3 -->
<g id="edge2" class="edge">
<title>Node1&#45;&gt;Node3</title>
<path fill="none" stroke="midnightblue" d="M240.98,-82.65C252.47,-72.75 264.97,-61.98 275.85,-52.61"/>
<polygon fill="midnightblue" stroke="midnightblue" points="238.51,-80.16 233.21,-89.34 243.07,-85.46 238.51,-80.16"/>
</g>
</g>
</svg>
