<?xml version="1.0" encoding="UTF-8" standalone="no"?>
<!DOCTYPE svg PUBLIC "-//W3C//DTD SVG 1.1//EN"
 "http://www.w3.org/Graphics/SVG/1.1/DTD/svg11.dtd">
<!-- Generated by graphviz version 2.43.0 (0)
 -->
<!-- Title: /home/sia/work/ADCP/Noise&#45;Estimation/code/imate/imate/_c_linear_operator/c_linear_operator.cpp Pages: 1 -->
<svg width="186pt" height="229pt"
 viewBox="0.00 0.00 186.00 229.00" xmlns="http://www.w3.org/2000/svg" xmlns:xlink="http://www.w3.org/1999/xlink">
<g id="graph0" class="graph" transform="scale(1 1) rotate(0) translate(4 225)">
<title>/home/sia/work/ADCP/Noise&#45;Estimation/code/imate/imate/_c_linear_operator/c_linear_operator.cpp</title>
<polygon fill="white" stroke="transparent" points="-4,4 -4,-225 182,-225 182,4 -4,4"/>
<!-- Node1 -->
<g id="node1" class="node">
<title>Node1</title>
<g id="a_node1"><a xlink:title=" ">
<polygon fill="#bfbfbf" stroke="black" points="26,-168.5 26,-220.5 178,-220.5 178,-168.5 26,-168.5"/>
<text text-anchor="start" x="34" y="-208.5" font-family="Helvetica,sans-Serif" font-size="10.00">/home/sia/work/ADCP</text>
<text text-anchor="start" x="34" y="-197.5" font-family="Helvetica,sans-Serif" font-size="10.00">/Noise&#45;Estimation/code</text>
<text text-anchor="start" x="34" y="-186.5" font-family="Helvetica,sans-Serif" font-size="10.00">/imate/imate/_c_linear</text>
<text text-anchor="middle" x="102" y="-175.5" font-family="Helvetica,sans-Serif" font-size="10.00">_operator/c_linear_operator.cpp</text>
</a>
</g>
</g>
<!-- Node2 -->
<g id="node2" class="node">
<title>Node2</title>
<g id="a_node2"><a xlink:href="c__linear__operator_8h.html" target="_top" xlink:title=" ">
<polygon fill="white" stroke="black" points="3,-112.5 3,-131.5 107,-131.5 107,-112.5 3,-112.5"/>
<text text-anchor="middle" x="55" y="-119.5" font-family="Helvetica,sans-Serif" font-size="10.00">./c_linear_operator.h</text>
</a>
</g>
</g>
<!-- Node1&#45;&gt;Node2 -->
<g id="edge1" class="edge">
<title>Node1&#45;&gt;Node2</title>
<path fill="none" stroke="midnightblue" d="M85.3,-168.45C79.02,-159.03 72.03,-148.55 66.35,-140.03"/>
<polygon fill="midnightblue" stroke="midnightblue" points="69.26,-138.07 60.8,-131.7 63.43,-141.96 69.26,-138.07"/>
</g>
<!-- Node5 -->
<g id="node5" class="node">
<title>Node5</title>
<g id="a_node5"><a xlink:title=" ">
<polygon fill="white" stroke="#bfbfbf" points="125.5,-112.5 125.5,-131.5 174.5,-131.5 174.5,-112.5 125.5,-112.5"/>
<text text-anchor="middle" x="150" y="-119.5" font-family="Helvetica,sans-Serif" font-size="10.00">cstddef</text>
</a>
</g>
</g>
<!-- Node1&#45;&gt;Node5 -->
<g id="edge4" class="edge">
<title>Node1&#45;&gt;Node5</title>
<path fill="none" stroke="midnightblue" d="M119.06,-168.45C125.47,-159.03 132.6,-148.55 138.41,-140.03"/>
<polygon fill="midnightblue" stroke="midnightblue" points="141.34,-141.93 144.08,-131.7 135.56,-137.99 141.34,-141.93"/>
</g>
<!-- Node3 -->
<g id="node3" class="node">
<title>Node3</title>
<g id="a_node3"><a xlink:href="types_8h.html" target="_top" xlink:title=" ">
<polygon fill="white" stroke="black" points="0,-56.5 0,-75.5 110,-75.5 110,-56.5 0,-56.5"/>
<text text-anchor="middle" x="55" y="-63.5" font-family="Helvetica,sans-Serif" font-size="10.00">../_definitions/types.h</text>
</a>
</g>
</g>
<!-- Node2&#45;&gt;Node3 -->
<g id="edge2" class="edge">
<title>Node2&#45;&gt;Node3</title>
<path fill="none" stroke="midnightblue" d="M55,-112.08C55,-105.01 55,-94.86 55,-85.99"/>
<polygon fill="midnightblue" stroke="midnightblue" points="58.5,-85.75 55,-75.75 51.5,-85.75 58.5,-85.75"/>
</g>
<!-- Node4 -->
<g id="node4" class="node">
<title>Node4</title>
<g id="a_node4"><a xlink:href="definitions_8h.html" target="_top" xlink:title=" ">
<polygon fill="white" stroke="black" points="17.5,-0.5 17.5,-19.5 92.5,-19.5 92.5,-0.5 17.5,-0.5"/>
<text text-anchor="middle" x="55" y="-7.5" font-family="Helvetica,sans-Serif" font-size="10.00">./definitions.h</text>
</a>
</g>
</g>
<!-- Node3&#45;&gt;Node4 -->
<g id="edge3" class="edge">
<title>Node3&#45;&gt;Node4</title>
<path fill="none" stroke="midnightblue" d="M55,-56.08C55,-49.01 55,-38.86 55,-29.99"/>
<polygon fill="midnightblue" stroke="midnightblue" points="58.5,-29.75 55,-19.75 51.5,-29.75 58.5,-29.75"/>
</g>
</g>
</svg>
