<?xml version="1.0" encoding="UTF-8" standalone="no"?>
<!DOCTYPE svg PUBLIC "-//W3C//DTD SVG 1.1//EN"
 "http://www.w3.org/Graphics/SVG/1.1/DTD/svg11.dtd">
<!-- Generated by graphviz version 2.43.0 (0)
 -->
<!-- Title: /home/sia/work/ADCP/Noise&#45;Estimation/code/imate/imate/_c_trace_estimator/c_lanczos_tridiagonalization.cpp Pages: 1 -->
<svg width="420pt" height="296pt"
 viewBox="0.00 0.00 419.50 296.00" xmlns="http://www.w3.org/2000/svg" xmlns:xlink="http://www.w3.org/1999/xlink">
<g id="graph0" class="graph" transform="scale(1 1) rotate(0) translate(4 292)">
<title>/home/sia/work/ADCP/Noise&#45;Estimation/code/imate/imate/_c_trace_estimator/c_lanczos_tridiagonalization.cpp</title>
<polygon fill="white" stroke="transparent" points="-4,4 -4,-292 415.5,-292 415.5,4 -4,4"/>
<!-- Node1 -->
<g id="node1" class="node">
<title>Node1</title>
<g id="a_node1"><a xlink:title=" ">
<polygon fill="#bfbfbf" stroke="black" points="115.5,-235.5 115.5,-287.5 321.5,-287.5 321.5,-235.5 115.5,-235.5"/>
<text text-anchor="start" x="123.5" y="-275.5" font-family="Helvetica,sans-Serif" font-size="10.00">/home/sia/work/ADCP</text>
<text text-anchor="start" x="123.5" y="-264.5" font-family="Helvetica,sans-Serif" font-size="10.00">/Noise&#45;Estimation/code</text>
<text text-anchor="start" x="123.5" y="-253.5" font-family="Helvetica,sans-Serif" font-size="10.00">/imate/imate/_c_trace</text>
<text text-anchor="middle" x="218.5" y="-242.5" font-family="Helvetica,sans-Serif" font-size="10.00">_estimator/c_lanczos_tridiagonalization.cpp</text>
</a>
</g>
</g>
<!-- Node2 -->
<g id="node2" class="node">
<title>Node2</title>
<g id="a_node2"><a xlink:href="c__lanczos__tridiagonalization_8h.html" target="_top" xlink:title=" ">
<polygon fill="white" stroke="black" points="0,-179.5 0,-198.5 153,-198.5 153,-179.5 0,-179.5"/>
<text text-anchor="middle" x="76.5" y="-186.5" font-family="Helvetica,sans-Serif" font-size="10.00">./c_lanczos_tridiagonalization.h</text>
</a>
</g>
</g>
<!-- Node1&#45;&gt;Node2 -->
<g id="edge1" class="edge">
<title>Node1&#45;&gt;Node2</title>
<path fill="none" stroke="midnightblue" d="M168.04,-235.45C146.01,-224.51 121.09,-212.14 102.83,-203.07"/>
<polygon fill="midnightblue" stroke="midnightblue" points="104.19,-199.84 93.67,-198.53 101.08,-206.11 104.19,-199.84"/>
</g>
<!-- Node6 -->
<g id="node6" class="node">
<title>Node6</title>
<g id="a_node6"><a xlink:title=" ">
<polygon fill="white" stroke="#bfbfbf" points="171.5,-179.5 171.5,-198.5 215.5,-198.5 215.5,-179.5 171.5,-179.5"/>
<text text-anchor="middle" x="193.5" y="-186.5" font-family="Helvetica,sans-Serif" font-size="10.00">cmath</text>
</a>
</g>
</g>
<!-- Node1&#45;&gt;Node6 -->
<g id="edge6" class="edge">
<title>Node1&#45;&gt;Node6</title>
<path fill="none" stroke="midnightblue" d="M209.62,-235.45C206.42,-226.43 202.88,-216.44 199.93,-208.13"/>
<polygon fill="midnightblue" stroke="midnightblue" points="203.22,-206.95 196.58,-198.7 196.63,-209.29 203.22,-206.95"/>
</g>
<!-- Node7 -->
<g id="node7" class="node">
<title>Node7</title>
<g id="a_node7"><a xlink:href="c__orthogonalization_8h.html" target="_top" xlink:title=" ">
<polygon fill="white" stroke="black" points="162,-118 162,-137 277,-137 277,-118 162,-118"/>
<text text-anchor="middle" x="219.5" y="-125" font-family="Helvetica,sans-Serif" font-size="10.00">./c_orthogonalization.h</text>
</a>
</g>
</g>
<!-- Node1&#45;&gt;Node7 -->
<g id="edge7" class="edge">
<title>Node1&#45;&gt;Node7</title>
<path fill="none" stroke="midnightblue" d="M221.97,-235.19C223.77,-219.11 225.43,-197.85 224.5,-179 223.98,-168.37 222.83,-156.54 221.77,-147"/>
<polygon fill="midnightblue" stroke="midnightblue" points="225.25,-146.58 220.61,-137.06 218.3,-147.4 225.25,-146.58"/>
</g>
<!-- Node8 -->
<g id="node8" class="node">
<title>Node8</title>
<g id="a_node8"><a xlink:href="c__vector__operations_8h.html" target="_top" xlink:title=" ">
<polygon fill="white" stroke="black" points="295.5,-112.5 295.5,-142.5 411.5,-142.5 411.5,-112.5 295.5,-112.5"/>
<text text-anchor="start" x="303.5" y="-130.5" font-family="Helvetica,sans-Serif" font-size="10.00">../_c_basic_algebra</text>
<text text-anchor="middle" x="353.5" y="-119.5" font-family="Helvetica,sans-Serif" font-size="10.00">/c_vector_operations.h</text>
</a>
</g>
</g>
<!-- Node1&#45;&gt;Node8 -->
<g id="edge9" class="edge">
<title>Node1&#45;&gt;Node8</title>
<path fill="none" stroke="midnightblue" d="M244.21,-235.36C269.61,-210.52 308.04,-172.95 331.91,-149.61"/>
<polygon fill="midnightblue" stroke="midnightblue" points="334.41,-152.07 339.11,-142.57 329.51,-147.06 334.41,-152.07"/>
</g>
<!-- Node3 -->
<g id="node3" class="node">
<title>Node3</title>
<g id="a_node3"><a xlink:href="c__linear__operator_8h.html" target="_top" xlink:title=" ">
<polygon fill="white" stroke="black" points="0,-112.5 0,-142.5 105,-142.5 105,-112.5 0,-112.5"/>
<text text-anchor="start" x="8" y="-130.5" font-family="Helvetica,sans-Serif" font-size="10.00">../_c_linear_operator</text>
<text text-anchor="middle" x="52.5" y="-119.5" font-family="Helvetica,sans-Serif" font-size="10.00">/c_linear_operator.h</text>
</a>
</g>
</g>
<!-- Node2&#45;&gt;Node3 -->
<g id="edge2" class="edge">
<title>Node2&#45;&gt;Node3</title>
<path fill="none" stroke="midnightblue" d="M73.06,-179.48C70.18,-172.32 65.91,-161.75 62.01,-152.08"/>
<polygon fill="midnightblue" stroke="midnightblue" points="65.14,-150.49 58.16,-142.52 58.65,-153.11 65.14,-150.49"/>
</g>
<!-- Node4 -->
<g id="node4" class="node">
<title>Node4</title>
<g id="a_node4"><a xlink:href="types_8h.html" target="_top" xlink:title=" ">
<polygon fill="white" stroke="black" points="121.5,-56.5 121.5,-75.5 231.5,-75.5 231.5,-56.5 121.5,-56.5"/>
<text text-anchor="middle" x="176.5" y="-63.5" font-family="Helvetica,sans-Serif" font-size="10.00">../_definitions/types.h</text>
</a>
</g>
</g>
<!-- Node2&#45;&gt;Node4 -->
<g id="edge5" class="edge">
<title>Node2&#45;&gt;Node4</title>
<path fill="none" stroke="midnightblue" d="M83.69,-179.3C100.27,-159.24 141.38,-109.49 162.89,-83.46"/>
<polygon fill="midnightblue" stroke="midnightblue" points="165.7,-85.56 169.37,-75.62 160.31,-81.1 165.7,-85.56"/>
</g>
<!-- Node3&#45;&gt;Node4 -->
<g id="edge3" class="edge">
<title>Node3&#45;&gt;Node4</title>
<path fill="none" stroke="midnightblue" d="M81.89,-112.4C102.32,-102.59 129.36,-89.62 149.3,-80.05"/>
<polygon fill="midnightblue" stroke="midnightblue" points="150.96,-83.14 158.46,-75.66 147.93,-76.83 150.96,-83.14"/>
</g>
<!-- Node5 -->
<g id="node5" class="node">
<title>Node5</title>
<g id="a_node5"><a xlink:href="definitions_8h.html" target="_top" xlink:title=" ">
<polygon fill="white" stroke="black" points="139,-0.5 139,-19.5 214,-19.5 214,-0.5 139,-0.5"/>
<text text-anchor="middle" x="176.5" y="-7.5" font-family="Helvetica,sans-Serif" font-size="10.00">./definitions.h</text>
</a>
</g>
</g>
<!-- Node4&#45;&gt;Node5 -->
<g id="edge4" class="edge">
<title>Node4&#45;&gt;Node5</title>
<path fill="none" stroke="midnightblue" d="M176.5,-56.08C176.5,-49.01 176.5,-38.86 176.5,-29.99"/>
<polygon fill="midnightblue" stroke="midnightblue" points="180,-29.75 176.5,-19.75 173,-29.75 180,-29.75"/>
</g>
<!-- Node7&#45;&gt;Node4 -->
<g id="edge8" class="edge">
<title>Node7&#45;&gt;Node4</title>
<path fill="none" stroke="midnightblue" d="M213.34,-117.98C206.89,-109.05 196.6,-94.81 188.53,-83.64"/>
<polygon fill="midnightblue" stroke="midnightblue" points="191.34,-81.56 182.65,-75.51 185.67,-85.66 191.34,-81.56"/>
</g>
<!-- Node8&#45;&gt;Node4 -->
<g id="edge10" class="edge">
<title>Node8&#45;&gt;Node4</title>
<path fill="none" stroke="midnightblue" d="M311.55,-112.4C281.1,-102.16 240.37,-88.47 211.63,-78.81"/>
<polygon fill="midnightblue" stroke="midnightblue" points="212.59,-75.44 202,-75.57 210.36,-82.07 212.59,-75.44"/>
</g>
</g>
</svg>
