<?xml version="1.0" encoding="UTF-8" standalone="no"?>
<!DOCTYPE svg PUBLIC "-//W3C//DTD SVG 1.1//EN"
 "http://www.w3.org/Graphics/SVG/1.1/DTD/svg11.dtd">
<!-- Generated by graphviz version 2.43.0 (0)
 -->
<!-- Title: c_lanczos_tridiagonalization Pages: 1 -->
<svg width="461pt" height="282pt"
 viewBox="0.00 0.00 461.00 282.00" xmlns="http://www.w3.org/2000/svg" xmlns:xlink="http://www.w3.org/1999/xlink">
<g id="graph0" class="graph" transform="scale(1 1) rotate(0) translate(4 278)">
<title>c_lanczos_tridiagonalization</title>
<polygon fill="white" stroke="transparent" points="-4,4 -4,-278 457,-278 457,4 -4,4"/>
<!-- Node1 -->
<g id="node1" class="node">
<title>Node1</title>
<g id="a_node1"><a xlink:title="Tri&#45;diagonalizes matrix A to T using the start vector v. is the Lanczos degree, which will be the siz...">
<polygon fill="#bfbfbf" stroke="black" points="0,-118 0,-137 139,-137 139,-118 0,-118"/>
<text text-anchor="middle" x="69.5" y="-125" font-family="Helvetica,sans-Serif" font-size="10.00">c_lanczos_tridiagonalization</text>
</a>
</g>
</g>
<!-- Node2 -->
<g id="node2" class="node">
<title>Node2</title>
<g id="a_node2"><a xlink:href="classcVectorOperations.html#a6627fe95659faa224dca2af1dab1fab3" target="_top" xlink:title="Scales a vector and stores to a new vector.">
<polygon fill="white" stroke="black" points="185,-243.5 185,-273.5 289,-273.5 289,-243.5 185,-243.5"/>
<text text-anchor="start" x="193" y="-261.5" font-family="Helvetica,sans-Serif" font-size="10.00">cVectorOperations::</text>
<text text-anchor="middle" x="237" y="-250.5" font-family="Helvetica,sans-Serif" font-size="10.00">copy_scaled_vector</text>
</a>
</g>
</g>
<!-- Node1&#45;&gt;Node2 -->
<g id="edge1" class="edge">
<title>Node1&#45;&gt;Node2</title>
<path fill="none" stroke="midnightblue" d="M77.57,-137.11C93.08,-157.61 132.17,-206.07 175,-234.5 177.28,-236.01 179.66,-237.45 182.12,-238.82"/>
<polygon fill="midnightblue" stroke="midnightblue" points="180.74,-242.04 191.24,-243.45 183.91,-235.8 180.74,-242.04"/>
</g>
<!-- Node3 -->
<g id="node3" class="node">
<title>Node3</title>
<g id="a_node3"><a xlink:href="classcVectorOperations.html#a492894cdc368a4f60b28aa15109cf9bc" target="_top" xlink:title="Copies a vector to a new vector. Result is written in&#45;place.">
<polygon fill="white" stroke="black" points="185,-194.5 185,-224.5 289,-224.5 289,-194.5 185,-194.5"/>
<text text-anchor="start" x="193" y="-212.5" font-family="Helvetica,sans-Serif" font-size="10.00">cVectorOperations::</text>
<text text-anchor="middle" x="237" y="-201.5" font-family="Helvetica,sans-Serif" font-size="10.00">copy_vector</text>
</a>
</g>
</g>
<!-- Node1&#45;&gt;Node3 -->
<g id="edge2" class="edge">
<title>Node1&#45;&gt;Node3</title>
<path fill="none" stroke="midnightblue" d="M86.86,-137.16C107.18,-148.98 143.09,-169.32 175,-184.5 179.12,-186.46 183.44,-188.42 187.8,-190.33"/>
<polygon fill="midnightblue" stroke="midnightblue" points="186.75,-193.69 197.32,-194.4 189.5,-187.25 186.75,-193.69"/>
</g>
<!-- Node4 -->
<g id="node4" class="node">
<title>Node4</title>
<g id="a_node4"><a xlink:href="classcLinearOperator.html#a48c76860a74f00fefaa1297368d17a77" target="_top" xlink:title=" ">
<polygon fill="white" stroke="black" points="184.5,-156 184.5,-175 289.5,-175 289.5,-156 184.5,-156"/>
<text text-anchor="middle" x="237" y="-163" font-family="Helvetica,sans-Serif" font-size="10.00">cLinearOperator::dot</text>
</a>
</g>
</g>
<!-- Node1&#45;&gt;Node4 -->
<g id="edge3" class="edge">
<title>Node1&#45;&gt;Node4</title>
<path fill="none" stroke="midnightblue" d="M112.26,-137.09C134.2,-142.13 161.28,-148.34 184.51,-153.68"/>
<polygon fill="midnightblue" stroke="midnightblue" points="184.01,-157.15 194.54,-155.98 185.57,-150.33 184.01,-157.15"/>
</g>
<!-- Node5 -->
<g id="node5" class="node">
<title>Node5</title>
<g id="a_node5"><a xlink:href="classcVectorOperations.html#abd0d2c941f9d3598f42026755cbc4709" target="_top" xlink:title="Computes the Euclidean norm of a 1D array.">
<polygon fill="white" stroke="black" points="342,-108.5 342,-138.5 446,-138.5 446,-108.5 342,-108.5"/>
<text text-anchor="start" x="350" y="-126.5" font-family="Helvetica,sans-Serif" font-size="10.00">cVectorOperations::</text>
<text text-anchor="middle" x="394" y="-115.5" font-family="Helvetica,sans-Serif" font-size="10.00">euclidean_norm</text>
</a>
</g>
</g>
<!-- Node1&#45;&gt;Node5 -->
<g id="edge4" class="edge">
<title>Node1&#45;&gt;Node5</title>
<path fill="none" stroke="midnightblue" d="M139.29,-126.65C196.29,-125.94 276.58,-124.94 331.47,-124.26"/>
<polygon fill="midnightblue" stroke="midnightblue" points="331.8,-127.76 341.76,-124.14 331.72,-120.76 331.8,-127.76"/>
</g>
<!-- Node6 -->
<g id="node6" class="node">
<title>Node6</title>
<g id="a_node6"><a xlink:href="classcOrthogonalization.html#a1b1bcbb636f1a1608ce7a22d4538b3b3" target="_top" xlink:title="Modified Gram&#45;Schmidt orthogonalization process to orthogonalize the vector v against a subset of the...">
<polygon fill="white" stroke="black" points="175,-30.5 175,-60.5 299,-60.5 299,-30.5 175,-30.5"/>
<text text-anchor="start" x="183" y="-48.5" font-family="Helvetica,sans-Serif" font-size="10.00">cOrthogonalization</text>
<text text-anchor="middle" x="237" y="-37.5" font-family="Helvetica,sans-Serif" font-size="10.00">::gram_schmidt_process</text>
</a>
</g>
</g>
<!-- Node1&#45;&gt;Node6 -->
<g id="edge5" class="edge">
<title>Node1&#45;&gt;Node6</title>
<path fill="none" stroke="midnightblue" d="M89.75,-117.89C110.7,-107.43 145.21,-90.24 175,-75.5 181.76,-72.15 188.95,-68.61 195.94,-65.17"/>
<polygon fill="midnightblue" stroke="midnightblue" points="197.84,-68.13 205.27,-60.58 194.75,-61.85 197.84,-68.13"/>
</g>
<!-- Node7 -->
<g id="node7" class="node">
<title>Node7</title>
<g id="a_node7"><a xlink:href="classcVectorOperations.html#ab8b945baba573b4479e8095ca87f8b3f" target="_top" xlink:title="Computes Euclidean inner product of two vectors.">
<polygon fill="white" stroke="black" points="342,-56.5 342,-86.5 446,-86.5 446,-56.5 342,-56.5"/>
<text text-anchor="start" x="350" y="-74.5" font-family="Helvetica,sans-Serif" font-size="10.00">cVectorOperations::</text>
<text text-anchor="middle" x="394" y="-63.5" font-family="Helvetica,sans-Serif" font-size="10.00">inner_product</text>
</a>
</g>
</g>
<!-- Node1&#45;&gt;Node7 -->
<g id="edge9" class="edge">
<title>Node1&#45;&gt;Node7</title>
<path fill="none" stroke="midnightblue" d="M125.57,-117.94C182.88,-107.99 272.41,-92.44 331.87,-82.11"/>
<polygon fill="midnightblue" stroke="midnightblue" points="332.62,-85.54 341.88,-80.38 331.43,-78.64 332.62,-85.54"/>
</g>
<!-- Node8 -->
<g id="node8" class="node">
<title>Node8</title>
<g id="a_node8"><a xlink:href="classcVectorOperations.html#a9bd28bd08f5a6b096d99a4a2f7d23e90" target="_top" xlink:title="Subtracts the scaled input vector from the output vector.">
<polygon fill="white" stroke="black" points="335,-0.5 335,-30.5 453,-30.5 453,-0.5 335,-0.5"/>
<text text-anchor="start" x="343" y="-18.5" font-family="Helvetica,sans-Serif" font-size="10.00">cVectorOperations::</text>
<text text-anchor="middle" x="394" y="-7.5" font-family="Helvetica,sans-Serif" font-size="10.00">subtract_scaled_vector</text>
</a>
</g>
</g>
<!-- Node1&#45;&gt;Node8 -->
<g id="edge10" class="edge">
<title>Node1&#45;&gt;Node8</title>
<path fill="none" stroke="midnightblue" d="M76.27,-117.69C90.01,-95.4 127.14,-41.31 175,-20.5 222.03,-0.06 280.32,0.15 324.79,-4.18"/>
<polygon fill="midnightblue" stroke="midnightblue" points="324.6,-7.68 334.92,-5.27 325.35,-0.72 324.6,-7.68"/>
</g>
<!-- Node6&#45;&gt;Node5 -->
<g id="edge6" class="edge">
<title>Node6&#45;&gt;Node5</title>
<path fill="none" stroke="midnightblue" d="M265.83,-60.59C285.12,-70.94 311.47,-84.85 335,-96.5 340.04,-99 345.35,-101.56 350.64,-104.07"/>
<polygon fill="midnightblue" stroke="midnightblue" points="349.51,-107.41 360.05,-108.5 352.49,-101.07 349.51,-107.41"/>
</g>
<!-- Node6&#45;&gt;Node7 -->
<g id="edge7" class="edge">
<title>Node6&#45;&gt;Node7</title>
<path fill="none" stroke="midnightblue" d="M299.26,-55.78C309.9,-57.56 320.98,-59.42 331.63,-61.2"/>
<polygon fill="midnightblue" stroke="midnightblue" points="331.24,-64.69 341.68,-62.89 332.39,-57.78 331.24,-64.69"/>
</g>
<!-- Node6&#45;&gt;Node8 -->
<g id="edge8" class="edge">
<title>Node6&#45;&gt;Node8</title>
<path fill="none" stroke="midnightblue" d="M299.26,-33.64C307.71,-32.01 316.44,-30.32 325,-28.66"/>
<polygon fill="midnightblue" stroke="midnightblue" points="325.81,-32.07 334.96,-26.73 324.48,-25.2 325.81,-32.07"/>
</g>
</g>
</svg>
