<?xml version="1.0" encoding="UTF-8" standalone="no"?>
<!DOCTYPE svg PUBLIC "-//W3C//DTD SVG 1.1//EN"
 "http://www.w3.org/Graphics/SVG/1.1/DTD/svg11.dtd">
<!-- Generated by graphviz version 2.43.0 (0)
 -->
<!-- Title: /home/sia/work/ADCP/Noise&#45;Estimation/code/imate/imate/_c_basic_algebra/c_matrix_operations.h Pages: 1 -->
<svg width="646pt" height="150pt"
 viewBox="0.00 0.00 645.50 150.00" xmlns="http://www.w3.org/2000/svg" xmlns:xlink="http://www.w3.org/1999/xlink">
<g id="graph0" class="graph" transform="scale(1 1) rotate(0) translate(4 146)">
<title>/home/sia/work/ADCP/Noise&#45;Estimation/code/imate/imate/_c_basic_algebra/c_matrix_operations.h</title>
<polygon fill="white" stroke="transparent" points="-4,4 -4,-146 641.5,-146 641.5,4 -4,4"/>
<!-- Node1 -->
<g id="node1" class="node">
<title>Node1</title>
<g id="a_node1"><a xlink:title=" ">
<polygon fill="#bfbfbf" stroke="black" points="250.5,-89.5 250.5,-141.5 402.5,-141.5 402.5,-89.5 250.5,-89.5"/>
<text text-anchor="start" x="258.5" y="-129.5" font-family="Helvetica,sans-Serif" font-size="10.00">/home/sia/work/ADCP</text>
<text text-anchor="start" x="258.5" y="-118.5" font-family="Helvetica,sans-Serif" font-size="10.00">/Noise&#45;Estimation/code</text>
<text text-anchor="start" x="258.5" y="-107.5" font-family="Helvetica,sans-Serif" font-size="10.00">/imate/imate/_c_basic</text>
<text text-anchor="middle" x="326.5" y="-96.5" font-family="Helvetica,sans-Serif" font-size="10.00">_algebra/c_matrix_operations.h</text>
</a>
</g>
</g>
<!-- Node2 -->
<g id="node2" class="node">
<title>Node2</title>
<g id="a_node2"><a xlink:href="c__matrix__operations_8cpp.html" target="_top" xlink:title=" ">
<polygon fill="white" stroke="black" points="0,-0.5 0,-52.5 163,-52.5 163,-0.5 0,-0.5"/>
<text text-anchor="start" x="8" y="-40.5" font-family="Helvetica,sans-Serif" font-size="10.00">/home/sia/work/ADCP</text>
<text text-anchor="start" x="8" y="-29.5" font-family="Helvetica,sans-Serif" font-size="10.00">/Noise&#45;Estimation/code</text>
<text text-anchor="start" x="8" y="-18.5" font-family="Helvetica,sans-Serif" font-size="10.00">/imate/imate/_c_basic</text>
<text text-anchor="middle" x="81.5" y="-7.5" font-family="Helvetica,sans-Serif" font-size="10.00">_algebra/c_matrix_operations.cpp</text>
</a>
</g>
</g>
<!-- Node1&#45;&gt;Node2 -->
<g id="edge1" class="edge">
<title>Node1&#45;&gt;Node2</title>
<path fill="none" stroke="midnightblue" d="M246.24,-86C215.81,-75.19 181.42,-62.98 151.96,-52.52"/>
<polygon fill="midnightblue" stroke="midnightblue" points="245.37,-89.4 255.96,-89.45 247.71,-82.81 245.37,-89.4"/>
</g>
<!-- Node3 -->
<g id="node3" class="node">
<title>Node3</title>
<g id="a_node3"><a xlink:href="c__csc__matrix_8cpp.html" target="_top" xlink:title=" ">
<polygon fill="white" stroke="black" points="181,-0.5 181,-52.5 318,-52.5 318,-0.5 181,-0.5"/>
<text text-anchor="start" x="189" y="-40.5" font-family="Helvetica,sans-Serif" font-size="10.00">/home/sia/work/ADCP</text>
<text text-anchor="start" x="189" y="-29.5" font-family="Helvetica,sans-Serif" font-size="10.00">/Noise&#45;Estimation/code</text>
<text text-anchor="start" x="189" y="-18.5" font-family="Helvetica,sans-Serif" font-size="10.00">/imate/imate/_c_linear</text>
<text text-anchor="middle" x="249.5" y="-7.5" font-family="Helvetica,sans-Serif" font-size="10.00">_operator/c_csc_matrix.cpp</text>
</a>
</g>
</g>
<!-- Node1&#45;&gt;Node3 -->
<g id="edge2" class="edge">
<title>Node1&#45;&gt;Node3</title>
<path fill="none" stroke="midnightblue" d="M297.55,-81.79C289,-72.13 279.78,-61.71 271.72,-52.61"/>
<polygon fill="midnightblue" stroke="midnightblue" points="294.98,-84.17 304.23,-89.34 300.22,-79.53 294.98,-84.17"/>
</g>
<!-- Node4 -->
<g id="node4" class="node">
<title>Node4</title>
<g id="a_node4"><a xlink:href="c__csr__matrix_8cpp.html" target="_top" xlink:title=" ">
<polygon fill="white" stroke="black" points="336,-0.5 336,-52.5 471,-52.5 471,-0.5 336,-0.5"/>
<text text-anchor="start" x="344" y="-40.5" font-family="Helvetica,sans-Serif" font-size="10.00">/home/sia/work/ADCP</text>
<text text-anchor="start" x="344" y="-29.5" font-family="Helvetica,sans-Serif" font-size="10.00">/Noise&#45;Estimation/code</text>
<text text-anchor="start" x="344" y="-18.5" font-family="Helvetica,sans-Serif" font-size="10.00">/imate/imate/_c_linear</text>
<text text-anchor="middle" x="403.5" y="-7.5" font-family="Helvetica,sans-Serif" font-size="10.00">_operator/c_csr_matrix.cpp</text>
</a>
</g>
</g>
<!-- Node1&#45;&gt;Node4 -->
<g id="edge3" class="edge">
<title>Node1&#45;&gt;Node4</title>
<path fill="none" stroke="midnightblue" d="M355.45,-81.79C364,-72.13 373.22,-61.71 381.28,-52.61"/>
<polygon fill="midnightblue" stroke="midnightblue" points="352.78,-79.53 348.77,-89.34 358.02,-84.17 352.78,-79.53"/>
</g>
<!-- Node5 -->
<g id="node5" class="node">
<title>Node5</title>
<g id="a_node5"><a xlink:href="c__dense__matrix_8cpp.html" target="_top" xlink:title=" ">
<polygon fill="white" stroke="black" points="489.5,-0.5 489.5,-52.5 637.5,-52.5 637.5,-0.5 489.5,-0.5"/>
<text text-anchor="start" x="497.5" y="-40.5" font-family="Helvetica,sans-Serif" font-size="10.00">/home/sia/work/ADCP</text>
<text text-anchor="start" x="497.5" y="-29.5" font-family="Helvetica,sans-Serif" font-size="10.00">/Noise&#45;Estimation/code</text>
<text text-anchor="start" x="497.5" y="-18.5" font-family="Helvetica,sans-Serif" font-size="10.00">/imate/imate/_c_linear</text>
<text text-anchor="middle" x="563.5" y="-7.5" font-family="Helvetica,sans-Serif" font-size="10.00">_operator/c_dense_matrix.cpp</text>
</a>
</g>
</g>
<!-- Node1&#45;&gt;Node5 -->
<g id="edge4" class="edge">
<title>Node1&#45;&gt;Node5</title>
<path fill="none" stroke="midnightblue" d="M404.14,-86C433.58,-75.19 466.84,-62.98 495.34,-52.52"/>
<polygon fill="midnightblue" stroke="midnightblue" points="402.91,-82.72 394.73,-89.45 405.33,-89.29 402.91,-82.72"/>
</g>
</g>
</svg>
