<?xml version="1.0" encoding="UTF-8" standalone="no"?>
<!DOCTYPE svg PUBLIC "-//W3C//DTD SVG 1.1//EN"
 "http://www.w3.org/Graphics/SVG/1.1/DTD/svg11.dtd">
<!-- Generated by graphviz version 2.43.0 (0)
 -->
<!-- Title: /home/sia/work/ADCP/Noise&#45;Estimation/code/imate/imate/_c_trace_estimator/c_orthogonalization.cpp Pages: 1 -->
<svg width="719pt" height="240pt"
 viewBox="0.00 0.00 718.50 240.00" xmlns="http://www.w3.org/2000/svg" xmlns:xlink="http://www.w3.org/1999/xlink">
<g id="graph0" class="graph" transform="scale(1 1) rotate(0) translate(4 236)">
<title>/home/sia/work/ADCP/Noise&#45;Estimation/code/imate/imate/_c_trace_estimator/c_orthogonalization.cpp</title>
<polygon fill="white" stroke="transparent" points="-4,4 -4,-236 714.5,-236 714.5,4 -4,4"/>
<!-- Node1 -->
<g id="node1" class="node">
<title>Node1</title>
<g id="a_node1"><a xlink:title=" ">
<polygon fill="#bfbfbf" stroke="black" points="236.5,-179.5 236.5,-231.5 404.5,-231.5 404.5,-179.5 236.5,-179.5"/>
<text text-anchor="start" x="244.5" y="-219.5" font-family="Helvetica,sans-Serif" font-size="10.00">/home/sia/work/ADCP</text>
<text text-anchor="start" x="244.5" y="-208.5" font-family="Helvetica,sans-Serif" font-size="10.00">/Noise&#45;Estimation/code</text>
<text text-anchor="start" x="244.5" y="-197.5" font-family="Helvetica,sans-Serif" font-size="10.00">/imate/imate/_c_trace</text>
<text text-anchor="middle" x="320.5" y="-186.5" font-family="Helvetica,sans-Serif" font-size="10.00">_estimator/c_orthogonalization.cpp</text>
</a>
</g>
</g>
<!-- Node2 -->
<g id="node2" class="node">
<title>Node2</title>
<g id="a_node2"><a xlink:href="c__orthogonalization_8h.html" target="_top" xlink:title=" ">
<polygon fill="white" stroke="black" points="0,-118 0,-137 115,-137 115,-118 0,-118"/>
<text text-anchor="middle" x="57.5" y="-125" font-family="Helvetica,sans-Serif" font-size="10.00">./c_orthogonalization.h</text>
</a>
</g>
</g>
<!-- Node1&#45;&gt;Node2 -->
<g id="edge1" class="edge">
<title>Node1&#45;&gt;Node2</title>
<path fill="none" stroke="midnightblue" d="M236.2,-180.14C189.51,-166.65 133.66,-150.51 96.97,-139.91"/>
<polygon fill="midnightblue" stroke="midnightblue" points="97.73,-136.48 87.16,-137.07 95.79,-143.21 97.73,-136.48"/>
</g>
<!-- Node5 -->
<g id="node5" class="node">
<title>Node5</title>
<g id="a_node5"><a xlink:title=" ">
<polygon fill="white" stroke="#bfbfbf" points="133,-118 133,-137 178,-137 178,-118 133,-118"/>
<text text-anchor="middle" x="155.5" y="-125" font-family="Helvetica,sans-Serif" font-size="10.00">cstdlib</text>
</a>
</g>
</g>
<!-- Node1&#45;&gt;Node5 -->
<g id="edge4" class="edge">
<title>Node1&#45;&gt;Node5</title>
<path fill="none" stroke="midnightblue" d="M266.02,-179.4C238.38,-166.67 205.98,-151.75 183.44,-141.37"/>
<polygon fill="midnightblue" stroke="midnightblue" points="184.67,-138.08 174.12,-137.08 181.74,-144.44 184.67,-138.08"/>
</g>
<!-- Node6 -->
<g id="node6" class="node">
<title>Node6</title>
<g id="a_node6"><a xlink:title=" ">
<polygon fill="white" stroke="#bfbfbf" points="196.5,-118 196.5,-137 250.5,-137 250.5,-118 196.5,-118"/>
<text text-anchor="middle" x="223.5" y="-125" font-family="Helvetica,sans-Serif" font-size="10.00">iostream</text>
</a>
</g>
</g>
<!-- Node1&#45;&gt;Node6 -->
<g id="edge5" class="edge">
<title>Node1&#45;&gt;Node6</title>
<path fill="none" stroke="midnightblue" d="M288.47,-179.4C273.4,-167.6 255.93,-153.91 242.91,-143.7"/>
<polygon fill="midnightblue" stroke="midnightblue" points="244.71,-140.67 234.68,-137.26 240.39,-146.18 244.71,-140.67"/>
</g>
<!-- Node7 -->
<g id="node7" class="node">
<title>Node7</title>
<g id="a_node7"><a xlink:title=" ">
<polygon fill="white" stroke="#bfbfbf" points="268.5,-118 268.5,-137 312.5,-137 312.5,-118 268.5,-118"/>
<text text-anchor="middle" x="290.5" y="-125" font-family="Helvetica,sans-Serif" font-size="10.00">cmath</text>
</a>
</g>
</g>
<!-- Node1&#45;&gt;Node7 -->
<g id="edge6" class="edge">
<title>Node1&#45;&gt;Node7</title>
<path fill="none" stroke="midnightblue" d="M310.51,-179.19C306.3,-168.54 301.5,-156.38 297.66,-146.64"/>
<polygon fill="midnightblue" stroke="midnightblue" points="300.86,-145.23 293.94,-137.21 294.35,-147.8 300.86,-145.23"/>
</g>
<!-- Node8 -->
<g id="node8" class="node">
<title>Node8</title>
<g id="a_node8"><a xlink:title=" ">
<polygon fill="white" stroke="#bfbfbf" points="330.5,-118 330.5,-137 370.5,-137 370.5,-118 330.5,-118"/>
<text text-anchor="middle" x="350.5" y="-125" font-family="Helvetica,sans-Serif" font-size="10.00">limits</text>
</a>
</g>
</g>
<!-- Node1&#45;&gt;Node8 -->
<g id="edge7" class="edge">
<title>Node1&#45;&gt;Node8</title>
<path fill="none" stroke="midnightblue" d="M330.49,-179.19C334.7,-168.54 339.5,-156.38 343.34,-146.64"/>
<polygon fill="midnightblue" stroke="midnightblue" points="346.65,-147.8 347.06,-137.21 340.14,-145.23 346.65,-147.8"/>
</g>
<!-- Node9 -->
<g id="node9" class="node">
<title>Node9</title>
<g id="a_node9"><a xlink:href="c__vector__operations_8h.html" target="_top" xlink:title=" ">
<polygon fill="white" stroke="black" points="388.5,-112.5 388.5,-142.5 504.5,-142.5 504.5,-112.5 388.5,-112.5"/>
<text text-anchor="start" x="396.5" y="-130.5" font-family="Helvetica,sans-Serif" font-size="10.00">../_c_basic_algebra</text>
<text text-anchor="middle" x="446.5" y="-119.5" font-family="Helvetica,sans-Serif" font-size="10.00">/c_vector_operations.h</text>
</a>
</g>
</g>
<!-- Node1&#45;&gt;Node9 -->
<g id="edge8" class="edge">
<title>Node1&#45;&gt;Node9</title>
<path fill="none" stroke="midnightblue" d="M362.11,-179.4C379,-169.21 398.23,-157.61 414.06,-148.07"/>
<polygon fill="midnightblue" stroke="midnightblue" points="416.19,-150.87 422.95,-142.71 412.58,-144.87 416.19,-150.87"/>
</g>
<!-- Node10 -->
<g id="node10" class="node">
<title>Node10</title>
<g id="a_node10"><a xlink:href="random__array__generator_8h.html" target="_top" xlink:title=" ">
<polygon fill="white" stroke="black" points="522.5,-112.5 522.5,-142.5 654.5,-142.5 654.5,-112.5 522.5,-112.5"/>
<text text-anchor="start" x="530.5" y="-130.5" font-family="Helvetica,sans-Serif" font-size="10.00">../_random_generator</text>
<text text-anchor="middle" x="588.5" y="-119.5" font-family="Helvetica,sans-Serif" font-size="10.00">/random_array_generator.h</text>
</a>
</g>
</g>
<!-- Node1&#45;&gt;Node10 -->
<g id="edge10" class="edge">
<title>Node1&#45;&gt;Node10</title>
<path fill="none" stroke="midnightblue" d="M404.56,-180.66C444.97,-169.2 492.45,-155.74 529.05,-145.36"/>
<polygon fill="midnightblue" stroke="midnightblue" points="530.41,-148.61 539.07,-142.52 528.5,-141.88 530.41,-148.61"/>
</g>
<!-- Node11 -->
<g id="node11" class="node">
<title>Node11</title>
<g id="a_node11"><a xlink:href="random__number__generator_8h.html" target="_top" xlink:title=" ">
<polygon fill="white" stroke="black" points="564.5,-56.5 564.5,-75.5 710.5,-75.5 710.5,-56.5 564.5,-56.5"/>
<text text-anchor="middle" x="637.5" y="-63.5" font-family="Helvetica,sans-Serif" font-size="10.00">./random_number_generator.h</text>
</a>
</g>
</g>
<!-- Node1&#45;&gt;Node11 -->
<g id="edge14" class="edge">
<title>Node1&#45;&gt;Node11</title>
<path fill="none" stroke="midnightblue" d="M404.7,-201.39C495.4,-196.07 631.13,-181.69 663.5,-143 677.69,-126.03 664.32,-100.91 652.08,-84.26"/>
<polygon fill="midnightblue" stroke="midnightblue" points="654.52,-81.69 645.59,-75.98 649.01,-86.01 654.52,-81.69"/>
</g>
<!-- Node3 -->
<g id="node3" class="node">
<title>Node3</title>
<g id="a_node3"><a xlink:href="types_8h.html" target="_top" xlink:title=" ">
<polygon fill="white" stroke="black" points="391.5,-56.5 391.5,-75.5 501.5,-75.5 501.5,-56.5 391.5,-56.5"/>
<text text-anchor="middle" x="446.5" y="-63.5" font-family="Helvetica,sans-Serif" font-size="10.00">../_definitions/types.h</text>
</a>
</g>
</g>
<!-- Node2&#45;&gt;Node3 -->
<g id="edge2" class="edge">
<title>Node2&#45;&gt;Node3</title>
<path fill="none" stroke="midnightblue" d="M94.05,-117.94C103.61,-115.85 113.92,-113.72 123.5,-112 212.37,-96.07 315.86,-82.53 381.27,-74.58"/>
<polygon fill="midnightblue" stroke="midnightblue" points="381.92,-78.02 391.43,-73.35 381.08,-71.07 381.92,-78.02"/>
</g>
<!-- Node4 -->
<g id="node4" class="node">
<title>Node4</title>
<g id="a_node4"><a xlink:href="definitions_8h.html" target="_top" xlink:title=" ">
<polygon fill="white" stroke="black" points="409,-0.5 409,-19.5 484,-19.5 484,-0.5 409,-0.5"/>
<text text-anchor="middle" x="446.5" y="-7.5" font-family="Helvetica,sans-Serif" font-size="10.00">./definitions.h</text>
</a>
</g>
</g>
<!-- Node3&#45;&gt;Node4 -->
<g id="edge3" class="edge">
<title>Node3&#45;&gt;Node4</title>
<path fill="none" stroke="midnightblue" d="M446.5,-56.08C446.5,-49.01 446.5,-38.86 446.5,-29.99"/>
<polygon fill="midnightblue" stroke="midnightblue" points="450,-29.75 446.5,-19.75 443,-29.75 450,-29.75"/>
</g>
<!-- Node9&#45;&gt;Node3 -->
<g id="edge9" class="edge">
<title>Node9&#45;&gt;Node3</title>
<path fill="none" stroke="midnightblue" d="M446.5,-112.4C446.5,-104.47 446.5,-94.46 446.5,-85.86"/>
<polygon fill="midnightblue" stroke="midnightblue" points="450,-85.66 446.5,-75.66 443,-85.66 450,-85.66"/>
</g>
<!-- Node10&#45;&gt;Node3 -->
<g id="edge11" class="edge">
<title>Node10&#45;&gt;Node3</title>
<path fill="none" stroke="midnightblue" d="M554.85,-112.4C531.02,-102.42 499.35,-89.15 476.41,-79.53"/>
<polygon fill="midnightblue" stroke="midnightblue" points="477.74,-76.29 467.16,-75.66 475.03,-82.75 477.74,-76.29"/>
</g>
<!-- Node10&#45;&gt;Node11 -->
<g id="edge12" class="edge">
<title>Node10&#45;&gt;Node11</title>
<path fill="none" stroke="midnightblue" d="M600.11,-112.4C607.23,-103.75 616.38,-92.64 623.85,-83.58"/>
<polygon fill="midnightblue" stroke="midnightblue" points="626.71,-85.6 630.37,-75.66 621.31,-81.15 626.71,-85.6"/>
</g>
<!-- Node12 -->
<g id="node12" class="node">
<title>Node12</title>
<g id="a_node12"><a xlink:title=" ">
<polygon fill="white" stroke="#bfbfbf" points="613,-0.5 613,-19.5 662,-19.5 662,-0.5 613,-0.5"/>
<text text-anchor="middle" x="637.5" y="-7.5" font-family="Helvetica,sans-Serif" font-size="10.00">stdint.h</text>
</a>
</g>
</g>
<!-- Node11&#45;&gt;Node12 -->
<g id="edge13" class="edge">
<title>Node11&#45;&gt;Node12</title>
<path fill="none" stroke="midnightblue" d="M637.5,-56.08C637.5,-49.01 637.5,-38.86 637.5,-29.99"/>
<polygon fill="midnightblue" stroke="midnightblue" points="641,-29.75 637.5,-19.75 634,-29.75 641,-29.75"/>
</g>
</g>
</svg>
