<?xml version="1.0" encoding="UTF-8" standalone="no"?>
<!DOCTYPE svg PUBLIC "-//W3C//DTD SVG 1.1//EN"
 "http://www.w3.org/Graphics/SVG/1.1/DTD/svg11.dtd">
<!-- Generated by graphviz version 2.43.0 (0)
 -->
<!-- Title: /home/sia/work/ADCP/Noise&#45;Estimation/code/imate/imate/_c_basic_algebra/c_vector_operations.h Pages: 1 -->
<svg width="1045pt" height="161pt"
 viewBox="0.00 0.00 1045.00 161.00" xmlns="http://www.w3.org/2000/svg" xmlns:xlink="http://www.w3.org/1999/xlink">
<g id="graph0" class="graph" transform="scale(1 1) rotate(0) translate(4 157)">
<title>/home/sia/work/ADCP/Noise&#45;Estimation/code/imate/imate/_c_basic_algebra/c_vector_operations.h</title>
<polygon fill="white" stroke="transparent" points="-4,4 -4,-157 1041,-157 1041,4 -4,4"/>
<!-- Node1 -->
<g id="node1" class="node">
<title>Node1</title>
<g id="a_node1"><a xlink:title=" ">
<polygon fill="#bfbfbf" stroke="black" points="404.5,-100.5 404.5,-152.5 556.5,-152.5 556.5,-100.5 404.5,-100.5"/>
<text text-anchor="start" x="412.5" y="-140.5" font-family="Helvetica,sans-Serif" font-size="10.00">/home/sia/work/ADCP</text>
<text text-anchor="start" x="412.5" y="-129.5" font-family="Helvetica,sans-Serif" font-size="10.00">/Noise&#45;Estimation/code</text>
<text text-anchor="start" x="412.5" y="-118.5" font-family="Helvetica,sans-Serif" font-size="10.00">/imate/imate/_c_basic</text>
<text text-anchor="middle" x="480.5" y="-107.5" font-family="Helvetica,sans-Serif" font-size="10.00">_algebra/c_vector_operations.h</text>
</a>
</g>
</g>
<!-- Node2 -->
<g id="node2" class="node">
<title>Node2</title>
<g id="a_node2"><a xlink:href="c__vector__operations_8cpp.html" target="_top" xlink:title=" ">
<polygon fill="white" stroke="black" points="0,-6 0,-58 163,-58 163,-6 0,-6"/>
<text text-anchor="start" x="8" y="-46" font-family="Helvetica,sans-Serif" font-size="10.00">/home/sia/work/ADCP</text>
<text text-anchor="start" x="8" y="-35" font-family="Helvetica,sans-Serif" font-size="10.00">/Noise&#45;Estimation/code</text>
<text text-anchor="start" x="8" y="-24" font-family="Helvetica,sans-Serif" font-size="10.00">/imate/imate/_c_basic</text>
<text text-anchor="middle" x="81.5" y="-13" font-family="Helvetica,sans-Serif" font-size="10.00">_algebra/c_vector_operations.cpp</text>
</a>
</g>
</g>
<!-- Node1&#45;&gt;Node2 -->
<g id="edge1" class="edge">
<title>Node1&#45;&gt;Node2</title>
<path fill="none" stroke="midnightblue" d="M394.09,-111.53C331.72,-100.67 245.78,-84.08 171.5,-64 164.96,-62.23 158.21,-60.23 151.47,-58.13"/>
<polygon fill="midnightblue" stroke="midnightblue" points="393.83,-115.04 404.28,-113.29 395.02,-108.14 393.83,-115.04"/>
</g>
<!-- Node3 -->
<g id="node3" class="node">
<title>Node3</title>
<g id="a_node3"><a xlink:href="c__affine__matrix__function_8cpp.html" target="_top" xlink:title=" ">
<polygon fill="white" stroke="black" points="181,-0.5 181,-63.5 308,-63.5 308,-0.5 181,-0.5"/>
<text text-anchor="start" x="189" y="-51.5" font-family="Helvetica,sans-Serif" font-size="10.00">/home/sia/work/ADCP</text>
<text text-anchor="start" x="189" y="-40.5" font-family="Helvetica,sans-Serif" font-size="10.00">/Noise&#45;Estimation/code</text>
<text text-anchor="start" x="189" y="-29.5" font-family="Helvetica,sans-Serif" font-size="10.00">/imate/imate/_c_linear</text>
<text text-anchor="start" x="189" y="-18.5" font-family="Helvetica,sans-Serif" font-size="10.00">_operator/c_affine_matrix</text>
<text text-anchor="middle" x="244.5" y="-7.5" font-family="Helvetica,sans-Serif" font-size="10.00">_function.cpp</text>
</a>
</g>
</g>
<!-- Node1&#45;&gt;Node3 -->
<g id="edge2" class="edge">
<title>Node1&#45;&gt;Node3</title>
<path fill="none" stroke="midnightblue" d="M402.12,-96.98C374.91,-86.84 344.26,-75.17 316.5,-64 313.72,-62.88 310.89,-61.73 308.03,-60.55"/>
<polygon fill="midnightblue" stroke="midnightblue" points="401,-100.29 411.6,-100.49 403.44,-93.73 401,-100.29"/>
</g>
<!-- Node4 -->
<g id="node4" class="node">
<title>Node4</title>
<g id="a_node4"><a xlink:href="c__golub__kahn__bidiagonalization_8cpp.html" target="_top" xlink:title=" ">
<polygon fill="white" stroke="black" points="326,-0.5 326,-63.5 451,-63.5 451,-0.5 326,-0.5"/>
<text text-anchor="start" x="334" y="-51.5" font-family="Helvetica,sans-Serif" font-size="10.00">/home/sia/work/ADCP</text>
<text text-anchor="start" x="334" y="-40.5" font-family="Helvetica,sans-Serif" font-size="10.00">/Noise&#45;Estimation/code</text>
<text text-anchor="start" x="334" y="-29.5" font-family="Helvetica,sans-Serif" font-size="10.00">/imate/imate/_c_trace</text>
<text text-anchor="start" x="334" y="-18.5" font-family="Helvetica,sans-Serif" font-size="10.00">_estimator/c_golub_kahn</text>
<text text-anchor="middle" x="388.5" y="-7.5" font-family="Helvetica,sans-Serif" font-size="10.00">_bidiagonalization.cpp</text>
</a>
</g>
</g>
<!-- Node1&#45;&gt;Node4 -->
<g id="edge3" class="edge">
<title>Node1&#45;&gt;Node4</title>
<path fill="none" stroke="midnightblue" d="M448.26,-93.08C438.7,-83.47 428.28,-72.99 418.85,-63.51"/>
<polygon fill="midnightblue" stroke="midnightblue" points="445.83,-95.6 455.36,-100.22 450.79,-90.67 445.83,-95.6"/>
</g>
<!-- Node5 -->
<g id="node5" class="node">
<title>Node5</title>
<g id="a_node5"><a xlink:href="c__lanczos__tridiagonalization_8cpp.html" target="_top" xlink:title=" ">
<polygon fill="white" stroke="black" points="469.5,-6 469.5,-58 675.5,-58 675.5,-6 469.5,-6"/>
<text text-anchor="start" x="477.5" y="-46" font-family="Helvetica,sans-Serif" font-size="10.00">/home/sia/work/ADCP</text>
<text text-anchor="start" x="477.5" y="-35" font-family="Helvetica,sans-Serif" font-size="10.00">/Noise&#45;Estimation/code</text>
<text text-anchor="start" x="477.5" y="-24" font-family="Helvetica,sans-Serif" font-size="10.00">/imate/imate/_c_trace</text>
<text text-anchor="middle" x="572.5" y="-13" font-family="Helvetica,sans-Serif" font-size="10.00">_estimator/c_lanczos_tridiagonalization.cpp</text>
</a>
</g>
</g>
<!-- Node1&#45;&gt;Node5 -->
<g id="edge4" class="edge">
<title>Node1&#45;&gt;Node5</title>
<path fill="none" stroke="midnightblue" d="M512.88,-92.95C524.21,-81.56 536.75,-68.95 547.39,-58.25"/>
<polygon fill="midnightblue" stroke="midnightblue" points="510.21,-90.67 505.64,-100.22 515.17,-95.6 510.21,-90.67"/>
</g>
<!-- Node6 -->
<g id="node6" class="node">
<title>Node6</title>
<g id="a_node6"><a xlink:href="c__orthogonalization_8cpp.html" target="_top" xlink:title=" ">
<polygon fill="white" stroke="black" points="693.5,-6 693.5,-58 861.5,-58 861.5,-6 693.5,-6"/>
<text text-anchor="start" x="701.5" y="-46" font-family="Helvetica,sans-Serif" font-size="10.00">/home/sia/work/ADCP</text>
<text text-anchor="start" x="701.5" y="-35" font-family="Helvetica,sans-Serif" font-size="10.00">/Noise&#45;Estimation/code</text>
<text text-anchor="start" x="701.5" y="-24" font-family="Helvetica,sans-Serif" font-size="10.00">/imate/imate/_c_trace</text>
<text text-anchor="middle" x="777.5" y="-13" font-family="Helvetica,sans-Serif" font-size="10.00">_estimator/c_orthogonalization.cpp</text>
</a>
</g>
</g>
<!-- Node1&#45;&gt;Node6 -->
<g id="edge5" class="edge">
<title>Node1&#45;&gt;Node6</title>
<path fill="none" stroke="midnightblue" d="M566.33,-100.23C602.83,-89.32 645.82,-76.27 684.5,-64 690.5,-62.1 696.71,-60.09 702.94,-58.06"/>
<polygon fill="midnightblue" stroke="midnightblue" points="565.29,-96.88 556.71,-103.1 567.29,-103.59 565.29,-96.88"/>
</g>
<!-- Node7 -->
<g id="node7" class="node">
<title>Node7</title>
<g id="a_node7"><a xlink:href="random__array__generator_8cpp.html" target="_top" xlink:title=" ">
<polygon fill="white" stroke="black" points="880,-6 880,-58 1037,-58 1037,-6 880,-6"/>
<text text-anchor="start" x="888" y="-46" font-family="Helvetica,sans-Serif" font-size="10.00">/home/sia/work/ADCP</text>
<text text-anchor="start" x="888" y="-35" font-family="Helvetica,sans-Serif" font-size="10.00">/Noise&#45;Estimation/code</text>
<text text-anchor="start" x="888" y="-24" font-family="Helvetica,sans-Serif" font-size="10.00">/imate/imate/_random_generator</text>
<text text-anchor="middle" x="958.5" y="-13" font-family="Helvetica,sans-Serif" font-size="10.00">/random_array_generator.cpp</text>
</a>
</g>
</g>
<!-- Node1&#45;&gt;Node7 -->
<g id="edge6" class="edge">
<title>Node1&#45;&gt;Node7</title>
<path fill="none" stroke="midnightblue" d="M566.81,-116.47C646.44,-107.06 767.58,-90.01 870.5,-64 877.25,-62.29 884.22,-60.29 891.14,-58.13"/>
<polygon fill="midnightblue" stroke="midnightblue" points="566.35,-113 556.82,-117.63 567.16,-119.95 566.35,-113"/>
</g>
</g>
</svg>
