<?xml version="1.0" encoding="UTF-8" standalone="no"?>
<!DOCTYPE svg PUBLIC "-//W3C//DTD SVG 1.1//EN"
 "http://www.w3.org/Graphics/SVG/1.1/DTD/svg11.dtd">
<!-- Generated by graphviz version 2.43.0 (0)
 -->
<!-- Title: cVectorOperations::normalize_vector_and_copy Pages: 1 -->
<svg width="286pt" height="88pt"
 viewBox="0.00 0.00 286.00 88.00" xmlns="http://www.w3.org/2000/svg" xmlns:xlink="http://www.w3.org/1999/xlink">
<g id="graph0" class="graph" transform="scale(1 1) rotate(0) translate(4 84)">
<title>cVectorOperations::normalize_vector_and_copy</title>
<polygon fill="white" stroke="transparent" points="-4,4 -4,-84 282,-84 282,4 -4,4"/>
<!-- Node1 -->
<g id="node1" class="node">
<title>Node1</title>
<g id="a_node1"><a xlink:title="Normalizes a vector based on Euclidean 2&#45;norm. The result is written into another vector.">
<polygon fill="#bfbfbf" stroke="black" points="0,-24.5 0,-54.5 138,-54.5 138,-24.5 0,-24.5"/>
<text text-anchor="start" x="8" y="-42.5" font-family="Helvetica,sans-Serif" font-size="10.00">cVectorOperations::</text>
<text text-anchor="middle" x="69" y="-31.5" font-family="Helvetica,sans-Serif" font-size="10.00">normalize_vector_and_copy</text>
</a>
</g>
</g>
<!-- Node2 -->
<g id="node2" class="node">
<title>Node2</title>
<g id="a_node2"><a xlink:href="classcVectorOperations.html#a6627fe95659faa224dca2af1dab1fab3" target="_top" xlink:title="Scales a vector and stores to a new vector.">
<polygon fill="white" stroke="black" points="174,-49.5 174,-79.5 278,-79.5 278,-49.5 174,-49.5"/>
<text text-anchor="start" x="182" y="-67.5" font-family="Helvetica,sans-Serif" font-size="10.00">cVectorOperations::</text>
<text text-anchor="middle" x="226" y="-56.5" font-family="Helvetica,sans-Serif" font-size="10.00">copy_scaled_vector</text>
</a>
</g>
</g>
<!-- Node1&#45;&gt;Node2 -->
<g id="edge1" class="edge">
<title>Node1&#45;&gt;Node2</title>
<path fill="none" stroke="midnightblue" d="M138.44,-50.54C146.85,-51.9 155.42,-53.28 163.72,-54.62"/>
<polygon fill="midnightblue" stroke="midnightblue" points="163.26,-58.09 173.69,-56.22 164.37,-51.18 163.26,-58.09"/>
</g>
<!-- Node3 -->
<g id="node3" class="node">
<title>Node3</title>
<g id="a_node3"><a xlink:href="classcVectorOperations.html#abd0d2c941f9d3598f42026755cbc4709" target="_top" xlink:title="Computes the Euclidean norm of a 1D array.">
<polygon fill="white" stroke="black" points="174,-0.5 174,-30.5 278,-30.5 278,-0.5 174,-0.5"/>
<text text-anchor="start" x="182" y="-18.5" font-family="Helvetica,sans-Serif" font-size="10.00">cVectorOperations::</text>
<text text-anchor="middle" x="226" y="-7.5" font-family="Helvetica,sans-Serif" font-size="10.00">euclidean_norm</text>
</a>
</g>
</g>
<!-- Node1&#45;&gt;Node3 -->
<g id="edge2" class="edge">
<title>Node1&#45;&gt;Node3</title>
<path fill="none" stroke="midnightblue" d="M138.44,-28.9C146.85,-27.6 155.42,-26.27 163.72,-24.99"/>
<polygon fill="midnightblue" stroke="midnightblue" points="164.34,-28.43 173.69,-23.44 163.27,-21.52 164.34,-28.43"/>
</g>
</g>
</svg>
