<?xml version="1.0" encoding="UTF-8" standalone="no"?>
<!DOCTYPE svg PUBLIC "-//W3C//DTD SVG 1.1//EN"
 "http://www.w3.org/Graphics/SVG/1.1/DTD/svg11.dtd">
<!-- Generated by graphviz version 2.43.0 (0)
 -->
<!-- Title: cudartSymbols::get_lib_name Pages: 1 -->
<svg width="289pt" height="560pt"
 viewBox="0.00 0.00 289.00 560.00" xmlns="http://www.w3.org/2000/svg" xmlns:xlink="http://www.w3.org/1999/xlink">
<g id="graph0" class="graph" transform="scale(1 1) rotate(0) translate(4 556)">
<title>cudartSymbols::get_lib_name</title>
<polygon fill="white" stroke="transparent" points="-4,4 -4,-556 285,-556 285,4 -4,4"/>
<!-- Node1 -->
<g id="node1" class="node">
<title>Node1</title>
<g id="a_node1"><a xlink:title="Returns the name of cudart shared library.">
<polygon fill="#bfbfbf" stroke="black" points="180,-261 180,-291 281,-291 281,-261 180,-261"/>
<text text-anchor="start" x="188" y="-279" font-family="Helvetica,sans-Serif" font-size="10.00">cudartSymbols::get</text>
<text text-anchor="middle" x="230.5" y="-268" font-family="Helvetica,sans-Serif" font-size="10.00">_lib_name</text>
</a>
</g>
</g>
<!-- Node2 -->
<g id="node2" class="node">
<title>Node2</title>
<g id="a_node2"><a xlink:href="cudart__symbols_8cpp.html#a0e398a10d2ae6b0f2667c38db583d408" target="_top" xlink:title="Definition of CUDA&#39;s __cudaRegisterFatBinary function using dynamically loaded cudart library.">
<polygon fill="white" stroke="black" points="8.5,-532.5 8.5,-551.5 135.5,-551.5 135.5,-532.5 8.5,-532.5"/>
<text text-anchor="middle" x="72" y="-539.5" font-family="Helvetica,sans-Serif" font-size="10.00">__cudaRegisterFatBinary</text>
</a>
</g>
</g>
<!-- Node1&#45;&gt;Node2 -->
<g id="edge1" class="edge">
<title>Node1&#45;&gt;Node2</title>
<path fill="none" stroke="midnightblue" d="M228.27,-301.3C224.44,-351.22 208.7,-462.79 144,-523 139.89,-526.83 135.1,-529.9 129.97,-532.36"/>
<polygon fill="midnightblue" stroke="midnightblue" points="231.78,-301.29 228.95,-291.08 224.79,-300.82 231.78,-301.29"/>
</g>
<!-- Node3 -->
<g id="node3" class="node">
<title>Node3</title>
<g id="a_node3"><a xlink:href="cudart__symbols_8cpp.html#a5016ff9880d3be90adec7d3e55c44f74" target="_top" xlink:title="Definition of CUDA&#39;s __cudaRegisterFatBinaryEnd function using dynamically loaded cudart library.">
<polygon fill="white" stroke="black" points="0,-494.5 0,-513.5 144,-513.5 144,-494.5 0,-494.5"/>
<text text-anchor="middle" x="72" y="-501.5" font-family="Helvetica,sans-Serif" font-size="10.00">__cudaRegisterFatBinaryEnd</text>
</a>
</g>
</g>
<!-- Node1&#45;&gt;Node3 -->
<g id="edge2" class="edge">
<title>Node1&#45;&gt;Node3</title>
<path fill="none" stroke="midnightblue" d="M226.42,-301.4C219.71,-345.47 199.6,-436.04 144,-485 139.59,-488.88 134.48,-491.98 129.05,-494.45"/>
<polygon fill="midnightblue" stroke="midnightblue" points="229.92,-301.65 227.85,-291.26 222.99,-300.67 229.92,-301.65"/>
</g>
<!-- Node4 -->
<g id="node4" class="node">
<title>Node4</title>
<g id="a_node4"><a xlink:href="cudart__symbols_8cpp.html#aca3de54c4d2838044768ba05ff76cbf1" target="_top" xlink:title="Definition of CUDA&#39;s __cudaUnregisterFatBinary function using dynamically loaded cudart library.">
<polygon fill="white" stroke="black" points="4.5,-456.5 4.5,-475.5 139.5,-475.5 139.5,-456.5 4.5,-456.5"/>
<text text-anchor="middle" x="72" y="-463.5" font-family="Helvetica,sans-Serif" font-size="10.00">__cudaUnregisterFatBinary</text>
</a>
</g>
</g>
<!-- Node1&#45;&gt;Node4 -->
<g id="edge3" class="edge">
<title>Node1&#45;&gt;Node4</title>
<path fill="none" stroke="midnightblue" d="M223.86,-301.29C214.17,-338.82 190.7,-408.9 144,-447 139.25,-450.87 133.79,-453.96 128.05,-456.42"/>
<polygon fill="midnightblue" stroke="midnightblue" points="227.36,-301.74 226.34,-291.19 220.56,-300.07 227.36,-301.74"/>
</g>
<!-- Node5 -->
<g id="node5" class="node">
<title>Node5</title>
<g id="a_node5"><a xlink:href="cudart__symbols_8cpp.html#a320ab51604f3a7a082795202e7eaf774" target="_top" xlink:title="Definition of CUDA&#39;s cudaEventCreate function using dynamically loaded cudart library.">
<polygon fill="white" stroke="black" points="26,-418.5 26,-437.5 118,-437.5 118,-418.5 26,-418.5"/>
<text text-anchor="middle" x="72" y="-425.5" font-family="Helvetica,sans-Serif" font-size="10.00">cudaEventCreate</text>
</a>
</g>
</g>
<!-- Node1&#45;&gt;Node5 -->
<g id="edge4" class="edge">
<title>Node1&#45;&gt;Node5</title>
<path fill="none" stroke="midnightblue" d="M220.16,-300.78C207.51,-330.93 182.05,-381.23 144,-409 136.37,-414.57 127.22,-418.5 118.07,-421.29"/>
<polygon fill="midnightblue" stroke="midnightblue" points="223.45,-301.97 223.95,-291.39 216.96,-299.35 223.45,-301.97"/>
</g>
<!-- Node6 -->
<g id="node6" class="node">
<title>Node6</title>
<g id="a_node6"><a xlink:href="cudart__symbols_8cpp.html#a513a33d6c552db36be7edc5b3e9e0765" target="_top" xlink:title="Definition of CUDA&#39;s cudaEventDestroy function using dynamically loaded cudart library.">
<polygon fill="white" stroke="black" points="23,-380.5 23,-399.5 121,-399.5 121,-380.5 23,-380.5"/>
<text text-anchor="middle" x="72" y="-387.5" font-family="Helvetica,sans-Serif" font-size="10.00">cudaEventDestroy</text>
</a>
</g>
</g>
<!-- Node1&#45;&gt;Node6 -->
<g id="edge5" class="edge">
<title>Node1&#45;&gt;Node6</title>
<path fill="none" stroke="midnightblue" d="M214.19,-299.7C198.95,-321.42 173.6,-352.86 144,-371 137.04,-375.27 129.12,-378.59 121.16,-381.17"/>
<polygon fill="midnightblue" stroke="midnightblue" points="217.16,-301.57 219.9,-291.34 211.37,-297.62 217.16,-301.57"/>
</g>
<!-- Node7 -->
<g id="node7" class="node">
<title>Node7</title>
<g id="a_node7"><a xlink:href="cudart__symbols_8cpp.html#a14c387cc57ce2e328f6669854e6020a5" target="_top" xlink:title="Definition of CUDA&#39;s cudaEventElapsedTime function using dynamically loaded cudart library.">
<polygon fill="white" stroke="black" points="12,-342.5 12,-361.5 132,-361.5 132,-342.5 12,-342.5"/>
<text text-anchor="middle" x="72" y="-349.5" font-family="Helvetica,sans-Serif" font-size="10.00">cudaEventElapsedTime</text>
</a>
</g>
</g>
<!-- Node1&#45;&gt;Node7 -->
<g id="edge6" class="edge">
<title>Node1&#45;&gt;Node7</title>
<path fill="none" stroke="midnightblue" d="M202.45,-297.37C186.26,-309.28 164.85,-323.57 144,-333 135.75,-336.73 126.61,-339.86 117.71,-342.42"/>
<polygon fill="midnightblue" stroke="midnightblue" points="204.98,-299.85 210.87,-291.05 200.77,-294.26 204.98,-299.85"/>
</g>
<!-- Node8 -->
<g id="node8" class="node">
<title>Node8</title>
<g id="a_node8"><a xlink:href="cudart__symbols_8cpp.html#aa50793c0412e7d1aa9b184c576888732" target="_top" xlink:title="Definition of CUDA&#39;s cudaEventRecord function using dynamically loaded cudart library.">
<polygon fill="white" stroke="black" points="24.5,-304.5 24.5,-323.5 119.5,-323.5 119.5,-304.5 24.5,-304.5"/>
<text text-anchor="middle" x="72" y="-311.5" font-family="Helvetica,sans-Serif" font-size="10.00">cudaEventRecord</text>
</a>
</g>
</g>
<!-- Node1&#45;&gt;Node8 -->
<g id="edge7" class="edge">
<title>Node1&#45;&gt;Node8</title>
<path fill="none" stroke="midnightblue" d="M170.05,-290.44C150.72,-295.13 129.76,-300.22 112.29,-304.46"/>
<polygon fill="midnightblue" stroke="midnightblue" points="171.09,-293.78 179.98,-288.02 169.44,-286.98 171.09,-293.78"/>
</g>
<!-- Node9 -->
<g id="node9" class="node">
<title>Node9</title>
<g id="a_node9"><a xlink:href="cudart__symbols_8cpp.html#a08241bcf5c5cb686b1882a8492f1e2d9" target="_top" xlink:title="Definition of CUDA&#39;s cudaEventSynchronize function using dynamically loaded cudart library.">
<polygon fill="white" stroke="black" points="13.5,-266.5 13.5,-285.5 130.5,-285.5 130.5,-266.5 13.5,-266.5"/>
<text text-anchor="middle" x="72" y="-273.5" font-family="Helvetica,sans-Serif" font-size="10.00">cudaEventSynchronize</text>
</a>
</g>
</g>
<!-- Node1&#45;&gt;Node9 -->
<g id="edge8" class="edge">
<title>Node1&#45;&gt;Node9</title>
<path fill="none" stroke="midnightblue" d="M169.86,-276C157,-276 143.44,-276 130.66,-276"/>
<polygon fill="midnightblue" stroke="midnightblue" points="169.98,-279.5 179.98,-276 169.98,-272.5 169.98,-279.5"/>
</g>
<!-- Node10 -->
<g id="node10" class="node">
<title>Node10</title>
<g id="a_node10"><a xlink:href="cudart__symbols_8cpp.html#ab17fef862d4d1fefb9dba35bd62a187e" target="_top" xlink:title="Definition of CUDA&#39;s cudaFree function using dynamically loaded cudart library.">
<polygon fill="white" stroke="black" points="43.5,-228.5 43.5,-247.5 100.5,-247.5 100.5,-228.5 43.5,-228.5"/>
<text text-anchor="middle" x="72" y="-235.5" font-family="Helvetica,sans-Serif" font-size="10.00">cudaFree</text>
</a>
</g>
</g>
<!-- Node1&#45;&gt;Node10 -->
<g id="edge9" class="edge">
<title>Node1&#45;&gt;Node10</title>
<path fill="none" stroke="midnightblue" d="M169.97,-261.55C146.2,-255.77 119.97,-249.41 100.8,-244.75"/>
<polygon fill="midnightblue" stroke="midnightblue" points="169.44,-265.02 179.98,-263.98 171.09,-258.22 169.44,-265.02"/>
</g>
<!-- Node11 -->
<g id="node11" class="node">
<title>Node11</title>
<g id="a_node11"><a xlink:href="cudart__symbols_8cpp.html#a1795645d53ca669d84d2aff6f3706917" target="_top" xlink:title="Definition of CUDA&#39;s cudaGetDevice function using dynamically loaded cudart library.">
<polygon fill="white" stroke="black" points="30,-190.5 30,-209.5 114,-209.5 114,-190.5 30,-190.5"/>
<text text-anchor="middle" x="72" y="-197.5" font-family="Helvetica,sans-Serif" font-size="10.00">cudaGetDevice</text>
</a>
</g>
</g>
<!-- Node1&#45;&gt;Node11 -->
<g id="edge10" class="edge">
<title>Node1&#45;&gt;Node11</title>
<path fill="none" stroke="midnightblue" d="M202.45,-254.63C186.26,-242.72 164.85,-228.43 144,-219 134.7,-214.79 124.28,-211.36 114.34,-208.63"/>
<polygon fill="midnightblue" stroke="midnightblue" points="200.77,-257.74 210.87,-260.95 204.98,-252.15 200.77,-257.74"/>
</g>
<!-- Node12 -->
<g id="node12" class="node">
<title>Node12</title>
<g id="a_node12"><a xlink:href="cudart__symbols_8cpp.html#a665468e8cb33be42434f11bee2684ec9" target="_top" xlink:title="Definition of CUDA&#39;s cudaGetDeviceCount function using dynamically loaded cudart library.">
<polygon fill="white" stroke="black" points="17,-152.5 17,-171.5 127,-171.5 127,-152.5 17,-152.5"/>
<text text-anchor="middle" x="72" y="-159.5" font-family="Helvetica,sans-Serif" font-size="10.00">cudaGetDeviceCount</text>
</a>
</g>
</g>
<!-- Node1&#45;&gt;Node12 -->
<g id="edge11" class="edge">
<title>Node1&#45;&gt;Node12</title>
<path fill="none" stroke="midnightblue" d="M214.19,-252.3C198.95,-230.58 173.6,-199.14 144,-181 137.69,-177.13 130.59,-174.04 123.39,-171.58"/>
<polygon fill="midnightblue" stroke="midnightblue" points="211.37,-254.38 219.9,-260.66 217.16,-250.43 211.37,-254.38"/>
</g>
<!-- Node13 -->
<g id="node13" class="node">
<title>Node13</title>
<g id="a_node13"><a xlink:href="cudart__symbols_8cpp.html#ae46a70f938468d67438cec2ed2fefbb4" target="_top" xlink:title="Definition of CUDA&#39;s cudaGetDeviceProperties function using dynamically loaded cudart library.">
<polygon fill="white" stroke="black" points="8,-114.5 8,-133.5 136,-133.5 136,-114.5 8,-114.5"/>
<text text-anchor="middle" x="72" y="-121.5" font-family="Helvetica,sans-Serif" font-size="10.00">cudaGetDeviceProperties</text>
</a>
</g>
</g>
<!-- Node1&#45;&gt;Node13 -->
<g id="edge12" class="edge">
<title>Node1&#45;&gt;Node13</title>
<path fill="none" stroke="midnightblue" d="M220.16,-251.22C207.51,-221.07 182.05,-170.77 144,-143 138.64,-139.09 132.53,-135.98 126.19,-133.51"/>
<polygon fill="midnightblue" stroke="midnightblue" points="216.96,-252.65 223.95,-260.61 223.45,-250.03 216.96,-252.65"/>
</g>
<!-- Node14 -->
<g id="node14" class="node">
<title>Node14</title>
<g id="a_node14"><a xlink:href="cudart__symbols_8cpp.html#ac63ffd93e344b939d6399199d8b12fef" target="_top" xlink:title="Definition of CUDA&#39;s cudaMalloc function using dynamically loaded cudart library.">
<polygon fill="white" stroke="black" points="39,-76.5 39,-95.5 105,-95.5 105,-76.5 39,-76.5"/>
<text text-anchor="middle" x="72" y="-83.5" font-family="Helvetica,sans-Serif" font-size="10.00">cudaMalloc</text>
</a>
</g>
</g>
<!-- Node1&#45;&gt;Node14 -->
<g id="edge13" class="edge">
<title>Node1&#45;&gt;Node14</title>
<path fill="none" stroke="midnightblue" d="M223.86,-250.71C214.17,-213.18 190.7,-143.1 144,-105 133.12,-96.13 118.49,-91.37 105.33,-88.83"/>
<polygon fill="midnightblue" stroke="midnightblue" points="220.56,-251.93 226.34,-260.81 227.36,-250.26 220.56,-251.93"/>
</g>
<!-- Node15 -->
<g id="node15" class="node">
<title>Node15</title>
<g id="a_node15"><a xlink:href="cudart__symbols_8cpp.html#ac6037fee0e6fa6d528cb60e1c8e7ba26" target="_top" xlink:title="Definition of CUDA&#39;s cudaMemcpy function using dynamically loaded cudart library.">
<polygon fill="white" stroke="black" points="34.5,-38.5 34.5,-57.5 109.5,-57.5 109.5,-38.5 34.5,-38.5"/>
<text text-anchor="middle" x="72" y="-45.5" font-family="Helvetica,sans-Serif" font-size="10.00">cudaMemcpy</text>
</a>
</g>
</g>
<!-- Node1&#45;&gt;Node15 -->
<g id="edge14" class="edge">
<title>Node1&#45;&gt;Node15</title>
<path fill="none" stroke="midnightblue" d="M226.42,-250.6C219.71,-206.53 199.6,-115.96 144,-67 134.52,-58.65 121.75,-53.92 109.66,-51.25"/>
<polygon fill="midnightblue" stroke="midnightblue" points="222.99,-251.33 227.85,-260.74 229.92,-250.35 222.99,-251.33"/>
</g>
<!-- Node16 -->
<g id="node16" class="node">
<title>Node16</title>
<g id="a_node16"><a xlink:href="cudart__symbols_8cpp.html#a418c299b069c4803bfb7cab4943da383" target="_top" xlink:title="Definition of CUDA&#39;s cudaSetDevice function using dynamically loaded cudart library.">
<polygon fill="white" stroke="black" points="30.5,-0.5 30.5,-19.5 113.5,-19.5 113.5,-0.5 30.5,-0.5"/>
<text text-anchor="middle" x="72" y="-7.5" font-family="Helvetica,sans-Serif" font-size="10.00">cudaSetDevice</text>
</a>
</g>
</g>
<!-- Node1&#45;&gt;Node16 -->
<g id="edge15" class="edge">
<title>Node1&#45;&gt;Node16</title>
<path fill="none" stroke="midnightblue" d="M228.27,-250.7C224.44,-200.78 208.7,-89.21 144,-29 135.69,-21.26 124.57,-16.61 113.61,-13.83"/>
<polygon fill="midnightblue" stroke="midnightblue" points="224.79,-251.18 228.95,-260.92 231.78,-250.71 224.79,-251.18"/>
</g>
</g>
</svg>
