<?xml version="1.0" encoding="UTF-8" standalone="no"?>
<!DOCTYPE svg PUBLIC "-//W3C//DTD SVG 1.1//EN"
 "http://www.w3.org/Graphics/SVG/1.1/DTD/svg11.dtd">
<!-- Generated by graphviz version 2.43.0 (0)
 -->
<!-- Title: Xoshiro256StarStar::jump Pages: 1 -->
<svg width="449pt" height="39pt"
 viewBox="0.00 0.00 449.00 39.00" xmlns="http://www.w3.org/2000/svg" xmlns:xlink="http://www.w3.org/1999/xlink">
<g id="graph0" class="graph" transform="scale(1 1) rotate(0) translate(4 35)">
<title>Xoshiro256StarStar::jump</title>
<polygon fill="white" stroke="transparent" points="-4,4 -4,-35 445,-35 445,4 -4,4"/>
<!-- Node1 -->
<g id="node1" class="node">
<title>Node1</title>
<g id="a_node1"><a xlink:title="Jump function for the generator. It is equivalent to 2^128 calls to next(); it can be used to generat...">
<polygon fill="#bfbfbf" stroke="black" points="340,-0.5 340,-30.5 441,-30.5 441,-0.5 340,-0.5"/>
<text text-anchor="start" x="348" y="-18.5" font-family="Helvetica,sans-Serif" font-size="10.00">Xoshiro256StarStar</text>
<text text-anchor="middle" x="390.5" y="-7.5" font-family="Helvetica,sans-Serif" font-size="10.00">::jump</text>
</a>
</g>
</g>
<!-- Node2 -->
<g id="node2" class="node">
<title>Node2</title>
<g id="a_node2"><a xlink:href="classRandomNumberGenerator.html#a39545f8392c54e0f0ed0174cb1d41ded" target="_top" xlink:title="Initializes an array of xoshiro_256_star_star objects.">
<polygon fill="white" stroke="black" points="173,-0.5 173,-30.5 304,-30.5 304,-0.5 173,-0.5"/>
<text text-anchor="start" x="181" y="-18.5" font-family="Helvetica,sans-Serif" font-size="10.00">RandomNumberGenerator</text>
<text text-anchor="middle" x="238.5" y="-7.5" font-family="Helvetica,sans-Serif" font-size="10.00">::initialize</text>
</a>
</g>
</g>
<!-- Node1&#45;&gt;Node2 -->
<g id="edge1" class="edge">
<title>Node1&#45;&gt;Node2</title>
<path fill="none" stroke="midnightblue" d="M329.86,-15.5C321.43,-15.5 312.74,-15.5 304.23,-15.5"/>
<polygon fill="midnightblue" stroke="midnightblue" points="329.97,-19 339.97,-15.5 329.97,-12 329.97,-19"/>
</g>
<!-- Node3 -->
<g id="node3" class="node">
<title>Node3</title>
<g id="a_node3"><a xlink:href="classRandomNumberGenerator.html#a8e7e711ea58f13f3ed95becbe33684e9" target="_top" xlink:title="Initializes with one parallel thread.">
<polygon fill="white" stroke="black" points="0,-0.5 0,-30.5 137,-30.5 137,-0.5 0,-0.5"/>
<text text-anchor="start" x="8" y="-18.5" font-family="Helvetica,sans-Serif" font-size="10.00">RandomNumberGenerator</text>
<text text-anchor="middle" x="68.5" y="-7.5" font-family="Helvetica,sans-Serif" font-size="10.00">::RandomNumberGenerator</text>
</a>
</g>
</g>
<!-- Node2&#45;&gt;Node3 -->
<g id="edge2" class="edge">
<title>Node2&#45;&gt;Node3</title>
<path fill="none" stroke="midnightblue" d="M162.35,-15.5C153.93,-15.5 145.38,-15.5 137.06,-15.5"/>
<polygon fill="midnightblue" stroke="midnightblue" points="162.55,-19 172.55,-15.5 162.55,-12 162.55,-19"/>
</g>
</g>
</svg>
