<?xml version="1.0" encoding="UTF-8" standalone="no"?>
<!DOCTYPE svg PUBLIC "-//W3C//DTD SVG 1.1//EN"
 "http://www.w3.org/Graphics/SVG/1.1/DTD/svg11.dtd">
<!-- Generated by graphviz version 2.43.0 (0)
 -->
<!-- Title: RandomArrayGenerator::generate_random_array Pages: 1 -->
<svg width="574pt" height="39pt"
 viewBox="0.00 0.00 574.00 39.00" xmlns="http://www.w3.org/2000/svg" xmlns:xlink="http://www.w3.org/1999/xlink">
<g id="graph0" class="graph" transform="scale(1 1) rotate(0) translate(4 35)">
<title>RandomArrayGenerator::generate_random_array</title>
<polygon fill="white" stroke="transparent" points="-4,4 -4,-35 570,-35 570,4 -4,4"/>
<!-- Node1 -->
<g id="node1" class="node">
<title>Node1</title>
<g id="a_node1"><a xlink:title="Generates a pseudo&#45;random array with Rademacher distribution where elements are either +1 or &#45;1.">
<polygon fill="#bfbfbf" stroke="black" points="0,-0.5 0,-30.5 125,-30.5 125,-0.5 0,-0.5"/>
<text text-anchor="start" x="8" y="-18.5" font-family="Helvetica,sans-Serif" font-size="10.00">RandomArrayGenerator</text>
<text text-anchor="middle" x="62.5" y="-7.5" font-family="Helvetica,sans-Serif" font-size="10.00">::generate_random_array</text>
</a>
</g>
</g>
<!-- Node2 -->
<g id="node2" class="node">
<title>Node2</title>
<g id="a_node2"><a xlink:href="classRandomNumberGenerator.html#a91d8b9726bda7dcd40f9b992b2a1bccd" target="_top" xlink:title="Generates the next random number in the sequence, depending on the thread id.">
<polygon fill="white" stroke="black" points="161,-0.5 161,-30.5 292,-30.5 292,-0.5 161,-0.5"/>
<text text-anchor="start" x="169" y="-18.5" font-family="Helvetica,sans-Serif" font-size="10.00">RandomNumberGenerator</text>
<text text-anchor="middle" x="226.5" y="-7.5" font-family="Helvetica,sans-Serif" font-size="10.00">::next</text>
</a>
</g>
</g>
<!-- Node1&#45;&gt;Node2 -->
<g id="edge1" class="edge">
<title>Node1&#45;&gt;Node2</title>
<path fill="none" stroke="midnightblue" d="M125.21,-15.5C133.47,-15.5 142.02,-15.5 150.48,-15.5"/>
<polygon fill="midnightblue" stroke="midnightblue" points="150.73,-19 160.73,-15.5 150.73,-12 150.73,-19"/>
</g>
<!-- Node3 -->
<g id="node3" class="node">
<title>Node3</title>
<g id="a_node3"><a xlink:href="classXoshiro256StarStar.html#a6a99f74d2ed5f6e3667d785c46bf9569" target="_top" xlink:title="Generates the next presudo&#45;random number.">
<polygon fill="white" stroke="black" points="328,-0.5 328,-30.5 429,-30.5 429,-0.5 328,-0.5"/>
<text text-anchor="start" x="336" y="-18.5" font-family="Helvetica,sans-Serif" font-size="10.00">Xoshiro256StarStar</text>
<text text-anchor="middle" x="378.5" y="-7.5" font-family="Helvetica,sans-Serif" font-size="10.00">::next</text>
</a>
</g>
</g>
<!-- Node2&#45;&gt;Node3 -->
<g id="edge2" class="edge">
<title>Node2&#45;&gt;Node3</title>
<path fill="none" stroke="midnightblue" d="M292.42,-15.5C300.86,-15.5 309.48,-15.5 317.83,-15.5"/>
<polygon fill="midnightblue" stroke="midnightblue" points="317.86,-19 327.86,-15.5 317.86,-12 317.86,-19"/>
</g>
<!-- Node4 -->
<g id="node4" class="node">
<title>Node4</title>
<g id="a_node4"><a xlink:href="classXoshiro256StarStar.html#a3b10c22cbac4ff9bf4447e28e57f7a72" target="_top" xlink:title="Rotates the bits of a 64 bit integer toward left.">
<polygon fill="white" stroke="black" points="465,-0.5 465,-30.5 566,-30.5 566,-0.5 465,-0.5"/>
<text text-anchor="start" x="473" y="-18.5" font-family="Helvetica,sans-Serif" font-size="10.00">Xoshiro256StarStar</text>
<text text-anchor="middle" x="515.5" y="-7.5" font-family="Helvetica,sans-Serif" font-size="10.00">::rotation_left</text>
</a>
</g>
</g>
<!-- Node3&#45;&gt;Node4 -->
<g id="edge3" class="edge">
<title>Node3&#45;&gt;Node4</title>
<path fill="none" stroke="midnightblue" d="M429,-15.5C437.24,-15.5 445.87,-15.5 454.34,-15.5"/>
<polygon fill="midnightblue" stroke="midnightblue" points="454.55,-19 464.55,-15.5 454.55,-12 454.55,-19"/>
</g>
</g>
</svg>
