<?xml version="1.0" encoding="UTF-8" standalone="no"?>
<!DOCTYPE svg PUBLIC "-//W3C//DTD SVG 1.1//EN"
 "http://www.w3.org/Graphics/SVG/1.1/DTD/svg11.dtd">
<!-- Generated by graphviz version 2.43.0 (0)
 -->
<!-- Title: RandomNumberGenerator::RandomNumberGenerator Pages: 1 -->
<svg width="723pt" height="39pt"
 viewBox="0.00 0.00 723.00 39.00" xmlns="http://www.w3.org/2000/svg" xmlns:xlink="http://www.w3.org/1999/xlink">
<g id="graph0" class="graph" transform="scale(1 1) rotate(0) translate(4 35)">
<title>RandomNumberGenerator::RandomNumberGenerator</title>
<polygon fill="white" stroke="transparent" points="-4,4 -4,-35 719,-35 719,4 -4,4"/>
<!-- Node1 -->
<g id="node1" class="node">
<title>Node1</title>
<g id="a_node1"><a xlink:title="Initializes with one parallel thread.">
<polygon fill="#bfbfbf" stroke="black" points="0,-0.5 0,-30.5 137,-30.5 137,-0.5 0,-0.5"/>
<text text-anchor="start" x="8" y="-18.5" font-family="Helvetica,sans-Serif" font-size="10.00">RandomNumberGenerator</text>
<text text-anchor="middle" x="68.5" y="-7.5" font-family="Helvetica,sans-Serif" font-size="10.00">::RandomNumberGenerator</text>
</a>
</g>
</g>
<!-- Node2 -->
<g id="node2" class="node">
<title>Node2</title>
<g id="a_node2"><a xlink:href="classRandomNumberGenerator.html#a39545f8392c54e0f0ed0174cb1d41ded" target="_top" xlink:title="Initializes an array of xoshiro_256_star_star objects.">
<polygon fill="white" stroke="black" points="173,-0.5 173,-30.5 304,-30.5 304,-0.5 173,-0.5"/>
<text text-anchor="start" x="181" y="-18.5" font-family="Helvetica,sans-Serif" font-size="10.00">RandomNumberGenerator</text>
<text text-anchor="middle" x="238.5" y="-7.5" font-family="Helvetica,sans-Serif" font-size="10.00">::initialize</text>
</a>
</g>
</g>
<!-- Node1&#45;&gt;Node2 -->
<g id="edge1" class="edge">
<title>Node1&#45;&gt;Node2</title>
<path fill="none" stroke="midnightblue" d="M137.35,-15.5C145.7,-15.5 154.27,-15.5 162.72,-15.5"/>
<polygon fill="midnightblue" stroke="midnightblue" points="162.94,-19 172.94,-15.5 162.94,-12 162.94,-19"/>
</g>
<!-- Node3 -->
<g id="node3" class="node">
<title>Node3</title>
<g id="a_node3"><a xlink:href="classXoshiro256StarStar.html#aced1e35723f858f228bb7bf5cc5fda6a" target="_top" xlink:title="Jump function for the generator. It is equivalent to 2^128 calls to next(); it can be used to generat...">
<polygon fill="white" stroke="black" points="340,-0.5 340,-30.5 441,-30.5 441,-0.5 340,-0.5"/>
<text text-anchor="start" x="348" y="-18.5" font-family="Helvetica,sans-Serif" font-size="10.00">Xoshiro256StarStar</text>
<text text-anchor="middle" x="390.5" y="-7.5" font-family="Helvetica,sans-Serif" font-size="10.00">::jump</text>
</a>
</g>
</g>
<!-- Node2&#45;&gt;Node3 -->
<g id="edge2" class="edge">
<title>Node2&#45;&gt;Node3</title>
<path fill="none" stroke="midnightblue" d="M304.42,-15.5C312.86,-15.5 321.48,-15.5 329.83,-15.5"/>
<polygon fill="midnightblue" stroke="midnightblue" points="329.86,-19 339.86,-15.5 329.86,-12 329.86,-19"/>
</g>
<!-- Node4 -->
<g id="node4" class="node">
<title>Node4</title>
<g id="a_node4"><a xlink:href="classXoshiro256StarStar.html#a6a99f74d2ed5f6e3667d785c46bf9569" target="_top" xlink:title="Generates the next presudo&#45;random number.">
<polygon fill="white" stroke="black" points="477,-0.5 477,-30.5 578,-30.5 578,-0.5 477,-0.5"/>
<text text-anchor="start" x="485" y="-18.5" font-family="Helvetica,sans-Serif" font-size="10.00">Xoshiro256StarStar</text>
<text text-anchor="middle" x="527.5" y="-7.5" font-family="Helvetica,sans-Serif" font-size="10.00">::next</text>
</a>
</g>
</g>
<!-- Node3&#45;&gt;Node4 -->
<g id="edge3" class="edge">
<title>Node3&#45;&gt;Node4</title>
<path fill="none" stroke="midnightblue" d="M441,-15.5C449.24,-15.5 457.87,-15.5 466.34,-15.5"/>
<polygon fill="midnightblue" stroke="midnightblue" points="466.55,-19 476.55,-15.5 466.55,-12 466.55,-19"/>
</g>
<!-- Node5 -->
<g id="node5" class="node">
<title>Node5</title>
<g id="a_node5"><a xlink:href="classXoshiro256StarStar.html#a3b10c22cbac4ff9bf4447e28e57f7a72" target="_top" xlink:title="Rotates the bits of a 64 bit integer toward left.">
<polygon fill="white" stroke="black" points="614,-0.5 614,-30.5 715,-30.5 715,-0.5 614,-0.5"/>
<text text-anchor="start" x="622" y="-18.5" font-family="Helvetica,sans-Serif" font-size="10.00">Xoshiro256StarStar</text>
<text text-anchor="middle" x="664.5" y="-7.5" font-family="Helvetica,sans-Serif" font-size="10.00">::rotation_left</text>
</a>
</g>
</g>
<!-- Node4&#45;&gt;Node5 -->
<g id="edge4" class="edge">
<title>Node4&#45;&gt;Node5</title>
<path fill="none" stroke="midnightblue" d="M578,-15.5C586.24,-15.5 594.87,-15.5 603.34,-15.5"/>
<polygon fill="midnightblue" stroke="midnightblue" points="603.55,-19 613.55,-15.5 603.55,-12 603.55,-19"/>
</g>
</g>
</svg>
