<?xml version="1.0" encoding="UTF-8" standalone="no"?>
<!DOCTYPE svg PUBLIC "-//W3C//DTD SVG 1.1//EN"
 "http://www.w3.org/Graphics/SVG/1.1/DTD/svg11.dtd">
<!-- Generated by graphviz version 2.43.0 (0)
 -->
<!-- Title: cusparseSymbols::get_lib_name Pages: 1 -->
<svg width="291pt" height="294pt"
 viewBox="0.00 0.00 291.00 294.00" xmlns="http://www.w3.org/2000/svg" xmlns:xlink="http://www.w3.org/1999/xlink">
<g id="graph0" class="graph" transform="scale(1 1) rotate(0) translate(4 290)">
<title>cusparseSymbols::get_lib_name</title>
<polygon fill="white" stroke="transparent" points="-4,4 -4,-290 287,-290 287,4 -4,4"/>
<!-- Node1 -->
<g id="node1" class="node">
<title>Node1</title>
<g id="a_node1"><a xlink:title="Returns the name of cusparse shared library.">
<polygon fill="#bfbfbf" stroke="black" points="169,-128 169,-158 283,-158 283,-128 169,-128"/>
<text text-anchor="start" x="177" y="-146" font-family="Helvetica,sans-Serif" font-size="10.00">cusparseSymbols::get</text>
<text text-anchor="middle" x="226" y="-135" font-family="Helvetica,sans-Serif" font-size="10.00">_lib_name</text>
</a>
</g>
</g>
<!-- Node2 -->
<g id="node2" class="node">
<title>Node2</title>
<g id="a_node2"><a xlink:href="cusparse__symbols_8cpp.html#a9e60affbb67ff50ac958838adae4f525" target="_top" xlink:title="Definition of CUDA&#39;s cusparseCreate function using dynamically loaded cublas library.">
<polygon fill="white" stroke="black" points="23.5,-266.5 23.5,-285.5 109.5,-285.5 109.5,-266.5 23.5,-266.5"/>
<text text-anchor="middle" x="66.5" y="-273.5" font-family="Helvetica,sans-Serif" font-size="10.00">cusparseCreate</text>
</a>
</g>
</g>
<!-- Node1&#45;&gt;Node2 -->
<g id="edge1" class="edge">
<title>Node1&#45;&gt;Node2</title>
<path fill="none" stroke="midnightblue" d="M211.82,-166.85C196.28,-192.79 168.08,-233.66 133,-257 126,-261.66 117.85,-265.19 109.71,-267.87"/>
<polygon fill="midnightblue" stroke="midnightblue" points="214.95,-168.43 216.96,-158.03 208.9,-164.91 214.95,-168.43"/>
</g>
<!-- Node3 -->
<g id="node3" class="node">
<title>Node3</title>
<g id="a_node3"><a xlink:href="cusparse__symbols_8cpp.html#ac3d95efa8a28d3a8ab6f5fd5c7b6a2c2" target="_top" xlink:title="Definition of CUDA&#39;s cusparseCreateCsr function using dynamically loaded cublas library.">
<polygon fill="white" stroke="black" points="16,-228.5 16,-247.5 117,-247.5 117,-228.5 16,-228.5"/>
<text text-anchor="middle" x="66.5" y="-235.5" font-family="Helvetica,sans-Serif" font-size="10.00">cusparseCreateCsr</text>
</a>
</g>
</g>
<!-- Node1&#45;&gt;Node3 -->
<g id="edge2" class="edge">
<title>Node1&#45;&gt;Node3</title>
<path fill="none" stroke="midnightblue" d="M203.34,-165.31C185.79,-182.23 159.68,-204.89 133,-219 125.88,-222.76 117.92,-225.87 110.07,-228.4"/>
<polygon fill="midnightblue" stroke="midnightblue" points="206.1,-167.51 210.77,-158 201.19,-162.52 206.1,-167.51"/>
</g>
<!-- Node4 -->
<g id="node4" class="node">
<title>Node4</title>
<g id="a_node4"><a xlink:href="cusparse__symbols_8cpp.html#aabd5c006f736178638163674432f654c" target="_top" xlink:title="Definition of CUDA&#39;s cusparseCreateDnVec function using dynamically loaded cublas library.">
<polygon fill="white" stroke="black" points="8.5,-190.5 8.5,-209.5 124.5,-209.5 124.5,-190.5 8.5,-190.5"/>
<text text-anchor="middle" x="66.5" y="-197.5" font-family="Helvetica,sans-Serif" font-size="10.00">cusparseCreateDnVec</text>
</a>
</g>
</g>
<!-- Node1&#45;&gt;Node4 -->
<g id="edge3" class="edge">
<title>Node1&#45;&gt;Node4</title>
<path fill="none" stroke="midnightblue" d="M181.21,-162.23C166.08,-168.57 148.92,-175.42 133,-181 123.39,-184.37 112.84,-187.62 103.08,-190.45"/>
<polygon fill="midnightblue" stroke="midnightblue" points="182.99,-165.28 190.83,-158.16 180.26,-158.84 182.99,-165.28"/>
</g>
<!-- Node5 -->
<g id="node5" class="node">
<title>Node5</title>
<g id="a_node5"><a xlink:href="cusparse__symbols_8cpp.html#a14faf9a740077f5e320acf8f74e8317b" target="_top" xlink:title="Definition of CUDA&#39;s cusparseDestroy function using dynamically loaded cublas library.">
<polygon fill="white" stroke="black" points="21,-152.5 21,-171.5 112,-171.5 112,-152.5 21,-152.5"/>
<text text-anchor="middle" x="66.5" y="-159.5" font-family="Helvetica,sans-Serif" font-size="10.00">cusparseDestroy</text>
</a>
</g>
</g>
<!-- Node1&#45;&gt;Node5 -->
<g id="edge4" class="edge">
<title>Node1&#45;&gt;Node5</title>
<path fill="none" stroke="midnightblue" d="M158.44,-151.03C142.83,-152.91 126.56,-154.88 112.17,-156.61"/>
<polygon fill="midnightblue" stroke="midnightblue" points="159.07,-154.48 168.58,-149.81 158.24,-147.53 159.07,-154.48"/>
</g>
<!-- Node6 -->
<g id="node6" class="node">
<title>Node6</title>
<g id="a_node6"><a xlink:href="cusparse__symbols_8cpp.html#a60b7ee5f6dbd7a6b7a7e3cd2ac34d69f" target="_top" xlink:title="Definition of CUDA&#39;s cusparseDestroyDnVec function using dynamically loaded cublas library.">
<polygon fill="white" stroke="black" points="6,-114.5 6,-133.5 127,-133.5 127,-114.5 6,-114.5"/>
<text text-anchor="middle" x="66.5" y="-121.5" font-family="Helvetica,sans-Serif" font-size="10.00">cusparseDestroyDnVec</text>
</a>
</g>
</g>
<!-- Node1&#45;&gt;Node6 -->
<g id="edge5" class="edge">
<title>Node1&#45;&gt;Node6</title>
<path fill="none" stroke="midnightblue" d="M158.37,-134.96C148.04,-133.72 137.42,-132.43 127.25,-131.21"/>
<polygon fill="midnightblue" stroke="midnightblue" points="158.24,-138.47 168.58,-136.19 159.07,-131.52 158.24,-138.47"/>
</g>
<!-- Node7 -->
<g id="node7" class="node">
<title>Node7</title>
<g id="a_node7"><a xlink:href="cusparse__symbols_8cpp.html#a153b1bb75420d84c916c15b38471f44e" target="_top" xlink:title="Definition of CUDA&#39;s cusparseDestroySpMat function using dynamically loaded cublas library.">
<polygon fill="white" stroke="black" points="7,-76.5 7,-95.5 126,-95.5 126,-76.5 7,-76.5"/>
<text text-anchor="middle" x="66.5" y="-83.5" font-family="Helvetica,sans-Serif" font-size="10.00">cusparseDestroySpMat</text>
</a>
</g>
</g>
<!-- Node1&#45;&gt;Node7 -->
<g id="edge6" class="edge">
<title>Node1&#45;&gt;Node7</title>
<path fill="none" stroke="midnightblue" d="M181.21,-123.77C166.08,-117.43 148.92,-110.58 133,-105 123.39,-101.63 112.84,-98.38 103.08,-95.55"/>
<polygon fill="midnightblue" stroke="midnightblue" points="180.26,-127.16 190.83,-127.84 182.99,-120.72 180.26,-127.16"/>
</g>
<!-- Node8 -->
<g id="node8" class="node">
<title>Node8</title>
<g id="a_node8"><a xlink:href="cusparse__symbols_8cpp.html#ac9a022042118670f89825676deb60d91" target="_top" xlink:title="Definition of CUDA&#39;s cusparseSmMV function using dynamically loaded cublas library.">
<polygon fill="white" stroke="black" points="25,-38.5 25,-57.5 108,-57.5 108,-38.5 25,-38.5"/>
<text text-anchor="middle" x="66.5" y="-45.5" font-family="Helvetica,sans-Serif" font-size="10.00">cusparseSpMV</text>
</a>
</g>
</g>
<!-- Node1&#45;&gt;Node8 -->
<g id="edge7" class="edge">
<title>Node1&#45;&gt;Node8</title>
<path fill="none" stroke="midnightblue" d="M203.34,-120.69C185.79,-103.77 159.68,-81.11 133,-67 125.25,-62.9 116.51,-59.59 108,-56.94"/>
<polygon fill="midnightblue" stroke="midnightblue" points="201.19,-123.48 210.77,-128 206.1,-118.49 201.19,-123.48"/>
</g>
<!-- Node9 -->
<g id="node9" class="node">
<title>Node9</title>
<g id="a_node9"><a xlink:href="cusparse__symbols_8cpp.html#a8c1212ef2229f15e7f3ae4877a5cb3b0" target="_top" xlink:title="Definition of CUDA&#39;s cusparseSmMV_bufferSize function using dynamically loaded cublas library.">
<polygon fill="white" stroke="black" points="0,-0.5 0,-19.5 133,-19.5 133,-0.5 0,-0.5"/>
<text text-anchor="middle" x="66.5" y="-7.5" font-family="Helvetica,sans-Serif" font-size="10.00">cusparseSpMV_bufferSize</text>
</a>
</g>
</g>
<!-- Node1&#45;&gt;Node9 -->
<g id="edge8" class="edge">
<title>Node1&#45;&gt;Node9</title>
<path fill="none" stroke="midnightblue" d="M211.82,-119.15C196.28,-93.21 168.08,-52.34 133,-29 127.18,-25.13 120.57,-22.04 113.83,-19.56"/>
<polygon fill="midnightblue" stroke="midnightblue" points="208.9,-121.09 216.96,-127.97 214.95,-117.57 208.9,-121.09"/>
</g>
</g>
</svg>
