<?xml version="1.0" encoding="UTF-8" standalone="no"?>
<!DOCTYPE svg PUBLIC "-//W3C//DTD SVG 1.1//EN"
 "http://www.w3.org/Graphics/SVG/1.1/DTD/svg11.dtd">
<!-- Generated by graphviz version 2.43.0 (0)
 -->
<!-- Title: Timer::get_wall_time Pages: 1 -->
<svg width="354pt" height="66pt"
 viewBox="0.00 0.00 354.00 66.00" xmlns="http://www.w3.org/2000/svg" xmlns:xlink="http://www.w3.org/1999/xlink">
<g id="graph0" class="graph" transform="scale(1 1) rotate(0) translate(4 62)">
<title>Timer::get_wall_time</title>
<polygon fill="white" stroke="transparent" points="-4,4 -4,-62 350,-62 350,4 -4,4"/>
<!-- Node1 -->
<g id="node1" class="node">
<title>Node1</title>
<g id="a_node1"><a xlink:title="Returns the wall time since the epoch.">
<polygon fill="#bfbfbf" stroke="black" points="239,-19.5 239,-38.5 346,-38.5 346,-19.5 239,-19.5"/>
<text text-anchor="middle" x="292.5" y="-26.5" font-family="Helvetica,sans-Serif" font-size="10.00">Timer::get_wall_time</text>
</a>
</g>
</g>
<!-- Node2 -->
<g id="node2" class="node">
<title>Node2</title>
<g id="a_node2"><a xlink:href="classTimer.html#a3a8b5272198d029779dc9302a54305a8" target="_top" xlink:title="Starts the timer.">
<polygon fill="white" stroke="black" points="136,-38.5 136,-57.5 203,-57.5 203,-38.5 136,-38.5"/>
<text text-anchor="middle" x="169.5" y="-45.5" font-family="Helvetica,sans-Serif" font-size="10.00">Timer::start</text>
</a>
</g>
</g>
<!-- Node1&#45;&gt;Node2 -->
<g id="edge1" class="edge">
<title>Node1&#45;&gt;Node2</title>
<path fill="none" stroke="midnightblue" d="M228.8,-38.85C219.95,-40.24 211.16,-41.62 203.19,-42.87"/>
<polygon fill="midnightblue" stroke="midnightblue" points="229.44,-42.29 238.78,-37.28 228.36,-35.37 229.44,-42.29"/>
</g>
<!-- Node4 -->
<g id="node4" class="node">
<title>Node4</title>
<g id="a_node4"><a xlink:href="classTimer.html#a63f0eb44b27402196590a03781515dba" target="_top" xlink:title="Stops the timer.">
<polygon fill="white" stroke="black" points="136.5,-0.5 136.5,-19.5 202.5,-19.5 202.5,-0.5 136.5,-0.5"/>
<text text-anchor="middle" x="169.5" y="-7.5" font-family="Helvetica,sans-Serif" font-size="10.00">Timer::stop</text>
</a>
</g>
</g>
<!-- Node1&#45;&gt;Node4 -->
<g id="edge3" class="edge">
<title>Node1&#45;&gt;Node4</title>
<path fill="none" stroke="midnightblue" d="M228.88,-19.17C219.74,-17.73 210.67,-16.31 202.5,-15.03"/>
<polygon fill="midnightblue" stroke="midnightblue" points="228.36,-22.63 238.78,-20.72 229.44,-15.71 228.36,-22.63"/>
</g>
<!-- Node3 -->
<g id="node3" class="node">
<title>Node3</title>
<g id="a_node3"><a xlink:href="classcTraceEstimator.html#a29144b4d62c71f0889002754384f57f4" target="_top" xlink:title="Stochastic Lanczos quadrature method to estimate trace of a function of a linear operator....">
<polygon fill="white" stroke="black" points="0,-14 0,-44 100,-44 100,-14 0,-14"/>
<text text-anchor="start" x="8" y="-32" font-family="Helvetica,sans-Serif" font-size="10.00">cTraceEstimator::c</text>
<text text-anchor="middle" x="50" y="-21" font-family="Helvetica,sans-Serif" font-size="10.00">_trace_estimator</text>
</a>
</g>
</g>
<!-- Node2&#45;&gt;Node3 -->
<g id="edge2" class="edge">
<title>Node2&#45;&gt;Node3</title>
<path fill="none" stroke="midnightblue" d="M125.9,-41.11C117.57,-39.76 108.78,-38.34 100.26,-36.97"/>
<polygon fill="midnightblue" stroke="midnightblue" points="125.34,-44.57 135.77,-42.71 126.46,-37.66 125.34,-44.57"/>
</g>
<!-- Node4&#45;&gt;Node3 -->
<g id="edge4" class="edge">
<title>Node4&#45;&gt;Node3</title>
<path fill="none" stroke="midnightblue" d="M126.38,-16.81C117.92,-18.18 108.95,-19.63 100.28,-21.03"/>
<polygon fill="midnightblue" stroke="midnightblue" points="127.08,-20.24 136.39,-15.19 125.96,-13.33 127.08,-20.24"/>
</g>
</g>
</svg>
