<?xml version="1.0" encoding="UTF-8" standalone="no"?>
<!DOCTYPE svg PUBLIC "-//W3C//DTD SVG 1.1//EN"
 "http://www.w3.org/Graphics/SVG/1.1/DTD/svg11.dtd">
<!-- Generated by graphviz version 2.43.0 (0)
 -->
<!-- Title: cOrthogonalization::orthogonalize_vectors Pages: 1 -->
<svg width="728pt" height="186pt"
 viewBox="0.00 0.00 728.00 186.00" xmlns="http://www.w3.org/2000/svg" xmlns:xlink="http://www.w3.org/1999/xlink">
<g id="graph0" class="graph" transform="scale(1 1) rotate(0) translate(4 182)">
<title>cOrthogonalization::orthogonalize_vectors</title>
<polygon fill="white" stroke="transparent" points="-4,4 -4,-182 724,-182 724,4 -4,4"/>
<!-- Node1 -->
<g id="node1" class="node">
<title>Node1</title>
<g id="a_node1"><a xlink:title="Orthogonalizes set of vectors mutually using modified Gram&#45;Schmidt process.">
<polygon fill="#bfbfbf" stroke="black" points="0,-73.5 0,-103.5 118,-103.5 118,-73.5 0,-73.5"/>
<text text-anchor="start" x="8" y="-91.5" font-family="Helvetica,sans-Serif" font-size="10.00">cOrthogonalization</text>
<text text-anchor="middle" x="59" y="-80.5" font-family="Helvetica,sans-Serif" font-size="10.00">::orthogonalize_vectors</text>
</a>
</g>
</g>
<!-- Node2 -->
<g id="node2" class="node">
<title>Node2</title>
<g id="a_node2"><a xlink:href="classcVectorOperations.html#abd0d2c941f9d3598f42026755cbc4709" target="_top" xlink:title="Computes the Euclidean norm of a 1D array.">
<polygon fill="white" stroke="black" points="164.5,-147.5 164.5,-177.5 268.5,-177.5 268.5,-147.5 164.5,-147.5"/>
<text text-anchor="start" x="172.5" y="-165.5" font-family="Helvetica,sans-Serif" font-size="10.00">cVectorOperations::</text>
<text text-anchor="middle" x="216.5" y="-154.5" font-family="Helvetica,sans-Serif" font-size="10.00">euclidean_norm</text>
</a>
</g>
</g>
<!-- Node1&#45;&gt;Node2 -->
<g id="edge1" class="edge">
<title>Node1&#45;&gt;Node2</title>
<path fill="none" stroke="midnightblue" d="M86.32,-103.57C104.94,-113.96 130.65,-127.78 154,-138.5 157.65,-140.17 161.44,-141.84 165.28,-143.47"/>
<polygon fill="midnightblue" stroke="midnightblue" points="164.28,-146.84 174.86,-147.42 166.95,-140.37 164.28,-146.84"/>
</g>
<!-- Node3 -->
<g id="node3" class="node">
<title>Node3</title>
<g id="a_node3"><a xlink:href="classRandomArrayGenerator.html#a3a577526f391d531fe4d66bdfa0107db" target="_top" xlink:title="Generates a pseudo&#45;random array with Rademacher distribution where elements are either +1 or &#45;1.">
<polygon fill="white" stroke="black" points="154,-98.5 154,-128.5 279,-128.5 279,-98.5 154,-98.5"/>
<text text-anchor="start" x="162" y="-116.5" font-family="Helvetica,sans-Serif" font-size="10.00">RandomArrayGenerator</text>
<text text-anchor="middle" x="216.5" y="-105.5" font-family="Helvetica,sans-Serif" font-size="10.00">::generate_random_array</text>
</a>
</g>
</g>
<!-- Node1&#45;&gt;Node3 -->
<g id="edge2" class="edge">
<title>Node1&#45;&gt;Node3</title>
<path fill="none" stroke="midnightblue" d="M118.34,-97.88C126.71,-99.22 135.39,-100.62 143.97,-102"/>
<polygon fill="midnightblue" stroke="midnightblue" points="143.54,-105.48 153.97,-103.61 144.65,-98.56 143.54,-105.48"/>
</g>
<!-- Node7 -->
<g id="node7" class="node">
<title>Node7</title>
<g id="a_node7"><a xlink:href="classcVectorOperations.html#ab8b945baba573b4479e8095ca87f8b3f" target="_top" xlink:title="Computes Euclidean inner product of two vectors.">
<polygon fill="white" stroke="black" points="164.5,-49.5 164.5,-79.5 268.5,-79.5 268.5,-49.5 164.5,-49.5"/>
<text text-anchor="start" x="172.5" y="-67.5" font-family="Helvetica,sans-Serif" font-size="10.00">cVectorOperations::</text>
<text text-anchor="middle" x="216.5" y="-56.5" font-family="Helvetica,sans-Serif" font-size="10.00">inner_product</text>
</a>
</g>
</g>
<!-- Node1&#45;&gt;Node7 -->
<g id="edge6" class="edge">
<title>Node1&#45;&gt;Node7</title>
<path fill="none" stroke="midnightblue" d="M118.34,-79.5C130.08,-77.68 142.44,-75.78 154.26,-73.95"/>
<polygon fill="midnightblue" stroke="midnightblue" points="155.14,-77.36 164.49,-72.37 154.07,-70.44 155.14,-77.36"/>
</g>
<!-- Node8 -->
<g id="node8" class="node">
<title>Node8</title>
<g id="a_node8"><a xlink:href="classcVectorOperations.html#a9bd28bd08f5a6b096d99a4a2f7d23e90" target="_top" xlink:title="Subtracts the scaled input vector from the output vector.">
<polygon fill="white" stroke="black" points="157.5,-0.5 157.5,-30.5 275.5,-30.5 275.5,-0.5 157.5,-0.5"/>
<text text-anchor="start" x="165.5" y="-18.5" font-family="Helvetica,sans-Serif" font-size="10.00">cVectorOperations::</text>
<text text-anchor="middle" x="216.5" y="-7.5" font-family="Helvetica,sans-Serif" font-size="10.00">subtract_scaled_vector</text>
</a>
</g>
</g>
<!-- Node1&#45;&gt;Node8 -->
<g id="edge7" class="edge">
<title>Node1&#45;&gt;Node8</title>
<path fill="none" stroke="midnightblue" d="M88.07,-73.36C106.59,-63.58 131.51,-50.79 154,-40.5 158.36,-38.51 162.92,-36.5 167.51,-34.54"/>
<polygon fill="midnightblue" stroke="midnightblue" points="169.03,-37.7 176.9,-30.6 166.32,-31.24 169.03,-37.7"/>
</g>
<!-- Node4 -->
<g id="node4" class="node">
<title>Node4</title>
<g id="a_node4"><a xlink:href="classRandomNumberGenerator.html#a91d8b9726bda7dcd40f9b992b2a1bccd" target="_top" xlink:title="Generates the next random number in the sequence, depending on the thread id.">
<polygon fill="white" stroke="black" points="315,-98.5 315,-128.5 446,-128.5 446,-98.5 315,-98.5"/>
<text text-anchor="start" x="323" y="-116.5" font-family="Helvetica,sans-Serif" font-size="10.00">RandomNumberGenerator</text>
<text text-anchor="middle" x="380.5" y="-105.5" font-family="Helvetica,sans-Serif" font-size="10.00">::next</text>
</a>
</g>
</g>
<!-- Node3&#45;&gt;Node4 -->
<g id="edge3" class="edge">
<title>Node3&#45;&gt;Node4</title>
<path fill="none" stroke="midnightblue" d="M279.21,-113.5C287.47,-113.5 296.02,-113.5 304.48,-113.5"/>
<polygon fill="midnightblue" stroke="midnightblue" points="304.73,-117 314.73,-113.5 304.73,-110 304.73,-117"/>
</g>
<!-- Node5 -->
<g id="node5" class="node">
<title>Node5</title>
<g id="a_node5"><a xlink:href="classXoshiro256StarStar.html#a6a99f74d2ed5f6e3667d785c46bf9569" target="_top" xlink:title="Generates the next presudo&#45;random number.">
<polygon fill="white" stroke="black" points="482,-98.5 482,-128.5 583,-128.5 583,-98.5 482,-98.5"/>
<text text-anchor="start" x="490" y="-116.5" font-family="Helvetica,sans-Serif" font-size="10.00">Xoshiro256StarStar</text>
<text text-anchor="middle" x="532.5" y="-105.5" font-family="Helvetica,sans-Serif" font-size="10.00">::next</text>
</a>
</g>
</g>
<!-- Node4&#45;&gt;Node5 -->
<g id="edge4" class="edge">
<title>Node4&#45;&gt;Node5</title>
<path fill="none" stroke="midnightblue" d="M446.42,-113.5C454.86,-113.5 463.48,-113.5 471.83,-113.5"/>
<polygon fill="midnightblue" stroke="midnightblue" points="471.86,-117 481.86,-113.5 471.86,-110 471.86,-117"/>
</g>
<!-- Node6 -->
<g id="node6" class="node">
<title>Node6</title>
<g id="a_node6"><a xlink:href="classXoshiro256StarStar.html#a3b10c22cbac4ff9bf4447e28e57f7a72" target="_top" xlink:title="Rotates the bits of a 64 bit integer toward left.">
<polygon fill="white" stroke="black" points="619,-98.5 619,-128.5 720,-128.5 720,-98.5 619,-98.5"/>
<text text-anchor="start" x="627" y="-116.5" font-family="Helvetica,sans-Serif" font-size="10.00">Xoshiro256StarStar</text>
<text text-anchor="middle" x="669.5" y="-105.5" font-family="Helvetica,sans-Serif" font-size="10.00">::rotation_left</text>
</a>
</g>
</g>
<!-- Node5&#45;&gt;Node6 -->
<g id="edge5" class="edge">
<title>Node5&#45;&gt;Node6</title>
<path fill="none" stroke="midnightblue" d="M583,-113.5C591.24,-113.5 599.87,-113.5 608.34,-113.5"/>
<polygon fill="midnightblue" stroke="midnightblue" points="608.55,-117 618.55,-113.5 608.55,-110 608.55,-117"/>
</g>
</g>
</svg>
