<?xml version="1.0" encoding="UTF-8" standalone="no"?>
<!DOCTYPE svg PUBLIC "-//W3C//DTD SVG 1.1//EN"
 "http://www.w3.org/Graphics/SVG/1.1/DTD/svg11.dtd">
<!-- Generated by graphviz version 2.43.0 (0)
 -->
<!-- Title: cCSCMatrix::transpose_dot_plus Pages: 1 -->
<svg width="309pt" height="39pt"
 viewBox="0.00 0.00 309.00 39.00" xmlns="http://www.w3.org/2000/svg" xmlns:xlink="http://www.w3.org/1999/xlink">
<g id="graph0" class="graph" transform="scale(1 1) rotate(0) translate(4 35)">
<title>cCSCMatrix::transpose_dot_plus</title>
<polygon fill="white" stroke="transparent" points="-4,4 -4,-35 305,-35 305,4 -4,4"/>
<!-- Node1 -->
<g id="node1" class="node">
<title>Node1</title>
<g id="a_node1"><a xlink:title=" ">
<polygon fill="#bfbfbf" stroke="black" points="0,-0.5 0,-30.5 119,-30.5 119,-0.5 0,-0.5"/>
<text text-anchor="start" x="8" y="-18.5" font-family="Helvetica,sans-Serif" font-size="10.00">cCSCMatrix::transpose</text>
<text text-anchor="middle" x="59.5" y="-7.5" font-family="Helvetica,sans-Serif" font-size="10.00">_dot_plus</text>
</a>
</g>
</g>
<!-- Node2 -->
<g id="node2" class="node">
<title>Node2</title>
<g id="a_node2"><a xlink:href="classcMatrixOperations.html#a40a779f4dfbddbabbb2e798280391ca6" target="_top" xlink:title="Computes &#160;where &#160;is compressed sparse column (CSC) matrix and &#160;is a dense vector. The output &#160;is a de...">
<polygon fill="white" stroke="black" points="155,-0.5 155,-30.5 301,-30.5 301,-0.5 155,-0.5"/>
<text text-anchor="start" x="163" y="-18.5" font-family="Helvetica,sans-Serif" font-size="10.00">cMatrixOperations::</text>
<text text-anchor="middle" x="228" y="-7.5" font-family="Helvetica,sans-Serif" font-size="10.00">csc_transposed_matvec_plus</text>
</a>
</g>
</g>
<!-- Node1&#45;&gt;Node2 -->
<g id="edge1" class="edge">
<title>Node1&#45;&gt;Node2</title>
<path fill="none" stroke="midnightblue" d="M119.2,-15.5C127.48,-15.5 136.11,-15.5 144.73,-15.5"/>
<polygon fill="midnightblue" stroke="midnightblue" points="144.82,-19 154.82,-15.5 144.82,-12 144.82,-19"/>
</g>
</g>
</svg>
