<?xml version="1.0" encoding="UTF-8" standalone="no"?>
<!DOCTYPE svg PUBLIC "-//W3C//DTD SVG 1.1//EN"
 "http://www.w3.org/Graphics/SVG/1.1/DTD/svg11.dtd">
<!-- Generated by graphviz version 2.43.0 (0)
 -->
<!-- Title: cuCSRMatrix&lt; DataType &gt; Pages: 1 -->
<svg width="295pt" height="196pt"
 viewBox="0.00 0.00 295.00 196.00" xmlns="http://www.w3.org/2000/svg" xmlns:xlink="http://www.w3.org/1999/xlink">
<g id="graph0" class="graph" transform="scale(1 1) rotate(0) translate(4 192)">
<title>cuCSRMatrix&lt; DataType &gt;</title>
<polygon fill="white" stroke="transparent" points="-4,4 -4,-192 291,-192 291,4 -4,4"/>
<!-- Node1 -->
<g id="node1" class="node">
<title>Node1</title>
<g id="a_node1"><a xlink:title=" ">
<polygon fill="#bfbfbf" stroke="black" points="80.5,-0.5 80.5,-19.5 216.5,-19.5 216.5,-0.5 80.5,-0.5"/>
<text text-anchor="middle" x="148.5" y="-7.5" font-family="Helvetica,sans-Serif" font-size="10.00">cuCSRMatrix&lt; DataType &gt;</text>
</a>
</g>
</g>
<!-- Node2 -->
<g id="node2" class="node">
<title>Node2</title>
<g id="a_node2"><a xlink:href="classcuMatrix.html" target="_top" xlink:title="Base class for constant matrices.">
<polygon fill="white" stroke="black" points="21.5,-56.5 21.5,-75.5 135.5,-75.5 135.5,-56.5 21.5,-56.5"/>
<text text-anchor="middle" x="78.5" y="-63.5" font-family="Helvetica,sans-Serif" font-size="10.00">cuMatrix&lt; DataType &gt;</text>
</a>
</g>
</g>
<!-- Node2&#45;&gt;Node1 -->
<g id="edge1" class="edge">
<title>Node2&#45;&gt;Node1</title>
<path fill="none" stroke="midnightblue" d="M97.81,-50.1C110.41,-40.38 126.43,-28.03 137.05,-19.83"/>
<polygon fill="midnightblue" stroke="midnightblue" points="95.53,-47.44 89.75,-56.32 99.8,-52.99 95.53,-47.44"/>
</g>
<!-- Node3 -->
<g id="node3" class="node">
<title>Node3</title>
<g id="a_node3"><a xlink:href="classcuLinearOperator.html" target="_top" xlink:title="Base class for linear operators. This class serves as interface for all derived classes.">
<polygon fill="white" stroke="black" points="0,-112.5 0,-131.5 151,-131.5 151,-112.5 0,-112.5"/>
<text text-anchor="middle" x="75.5" y="-119.5" font-family="Helvetica,sans-Serif" font-size="10.00">cuLinearOperator&lt; DataType &gt;</text>
</a>
</g>
</g>
<!-- Node3&#45;&gt;Node2 -->
<g id="edge2" class="edge">
<title>Node3&#45;&gt;Node2</title>
<path fill="none" stroke="midnightblue" d="M76.57,-101.8C77.06,-92.91 77.62,-82.78 78.01,-75.75"/>
<polygon fill="midnightblue" stroke="midnightblue" points="73.06,-101.9 76,-112.08 80.04,-102.29 73.06,-101.9"/>
</g>
<!-- Node4 -->
<g id="node4" class="node">
<title>Node4</title>
<g id="a_node4"><a xlink:href="classcLinearOperator.html" target="_top" xlink:title="Base class for linear operators. This class serves as interface for all derived classes.">
<polygon fill="white" stroke="black" points="76.5,-168.5 76.5,-187.5 222.5,-187.5 222.5,-168.5 76.5,-168.5"/>
<text text-anchor="middle" x="149.5" y="-175.5" font-family="Helvetica,sans-Serif" font-size="10.00">cLinearOperator&lt; DataType &gt;</text>
</a>
</g>
</g>
<!-- Node4&#45;&gt;Node3 -->
<g id="edge3" class="edge">
<title>Node4&#45;&gt;Node3</title>
<path fill="none" stroke="midnightblue" d="M129.47,-162.38C116.09,-152.62 98.94,-140.11 87.61,-131.83"/>
<polygon fill="midnightblue" stroke="midnightblue" points="127.47,-165.26 137.61,-168.32 131.6,-159.6 127.47,-165.26"/>
</g>
<!-- Node6 -->
<g id="node6" class="node">
<title>Node6</title>
<g id="a_node6"><a xlink:href="classcMatrix.html" target="_top" xlink:title="Base class for constant matrices.">
<polygon fill="white" stroke="black" points="169,-112.5 169,-131.5 278,-131.5 278,-112.5 169,-112.5"/>
<text text-anchor="middle" x="223.5" y="-119.5" font-family="Helvetica,sans-Serif" font-size="10.00">cMatrix&lt; DataType &gt;</text>
</a>
</g>
</g>
<!-- Node4&#45;&gt;Node6 -->
<g id="edge6" class="edge">
<title>Node4&#45;&gt;Node6</title>
<path fill="none" stroke="midnightblue" d="M169.53,-162.38C182.91,-152.62 200.06,-140.11 211.39,-131.83"/>
<polygon fill="midnightblue" stroke="midnightblue" points="167.4,-159.6 161.39,-168.32 171.53,-165.26 167.4,-159.6"/>
</g>
<!-- Node5 -->
<g id="node5" class="node">
<title>Node5</title>
<g id="a_node5"><a xlink:href="classcCSRMatrix.html" target="_top" xlink:title=" ">
<polygon fill="white" stroke="black" points="156,-56.5 156,-75.5 287,-75.5 287,-56.5 156,-56.5"/>
<text text-anchor="middle" x="221.5" y="-63.5" font-family="Helvetica,sans-Serif" font-size="10.00">cCSRMatrix&lt; DataType &gt;</text>
</a>
</g>
</g>
<!-- Node5&#45;&gt;Node1 -->
<g id="edge4" class="edge">
<title>Node5&#45;&gt;Node1</title>
<path fill="none" stroke="midnightblue" d="M201.36,-50.1C188.22,-40.38 171.52,-28.03 160.44,-19.83"/>
<polygon fill="midnightblue" stroke="midnightblue" points="199.65,-53.19 209.77,-56.32 203.81,-47.56 199.65,-53.19"/>
</g>
<!-- Node6&#45;&gt;Node5 -->
<g id="edge5" class="edge">
<title>Node6&#45;&gt;Node5</title>
<path fill="none" stroke="midnightblue" d="M222.79,-101.8C222.46,-92.91 222.08,-82.78 221.82,-75.75"/>
<polygon fill="midnightblue" stroke="midnightblue" points="219.3,-102.22 223.17,-112.08 226.3,-101.96 219.3,-102.22"/>
</g>
</g>
</svg>
