<?xml version="1.0" encoding="UTF-8" standalone="no"?>
<!DOCTYPE svg PUBLIC "-//W3C//DTD SVG 1.1//EN"
 "http://www.w3.org/Graphics/SVG/1.1/DTD/svg11.dtd">
<!-- Generated by graphviz version 2.43.0 (0)
 -->
<!-- Title: cMatrix&lt; DataType &gt; Pages: 1 -->
<svg width="460pt" height="196pt"
 viewBox="0.00 0.00 459.50 196.00" xmlns="http://www.w3.org/2000/svg" xmlns:xlink="http://www.w3.org/1999/xlink">
<g id="graph0" class="graph" transform="scale(1 1) rotate(0) translate(4 192)">
<title>cMatrix&lt; DataType &gt;</title>
<polygon fill="white" stroke="transparent" points="-4,4 -4,-192 455.5,-192 455.5,4 -4,4"/>
<!-- Node1 -->
<g id="node1" class="node">
<title>Node1</title>
<g id="a_node1"><a xlink:title="Base class for constant matrices.">
<polygon fill="#bfbfbf" stroke="black" points="167.5,-112.5 167.5,-131.5 276.5,-131.5 276.5,-112.5 167.5,-112.5"/>
<text text-anchor="middle" x="222" y="-119.5" font-family="Helvetica,sans-Serif" font-size="10.00">cMatrix&lt; DataType &gt;</text>
</a>
</g>
</g>
<!-- Node3 -->
<g id="node3" class="node">
<title>Node3</title>
<g id="a_node3"><a xlink:href="classcCSCMatrix.html" target="_top" xlink:title=" ">
<polygon fill="white" stroke="black" points="5.5,-56.5 5.5,-75.5 136.5,-75.5 136.5,-56.5 5.5,-56.5"/>
<text text-anchor="middle" x="71" y="-63.5" font-family="Helvetica,sans-Serif" font-size="10.00">cCSCMatrix&lt; DataType &gt;</text>
</a>
</g>
</g>
<!-- Node1&#45;&gt;Node3 -->
<g id="edge2" class="edge">
<title>Node1&#45;&gt;Node3</title>
<path fill="none" stroke="midnightblue" d="M188.55,-109.04C160.14,-98.88 120.06,-84.55 94.81,-75.52"/>
<polygon fill="midnightblue" stroke="midnightblue" points="187.48,-112.37 198.07,-112.44 189.84,-105.78 187.48,-112.37"/>
</g>
<!-- Node5 -->
<g id="node5" class="node">
<title>Node5</title>
<g id="a_node5"><a xlink:href="classcCSRMatrix.html" target="_top" xlink:title=" ">
<polygon fill="white" stroke="black" points="156.5,-56.5 156.5,-75.5 287.5,-75.5 287.5,-56.5 156.5,-56.5"/>
<text text-anchor="middle" x="222" y="-63.5" font-family="Helvetica,sans-Serif" font-size="10.00">cCSRMatrix&lt; DataType &gt;</text>
</a>
</g>
</g>
<!-- Node1&#45;&gt;Node5 -->
<g id="edge4" class="edge">
<title>Node1&#45;&gt;Node5</title>
<path fill="none" stroke="midnightblue" d="M222,-101.8C222,-92.91 222,-82.78 222,-75.75"/>
<polygon fill="midnightblue" stroke="midnightblue" points="218.5,-102.08 222,-112.08 225.5,-102.08 218.5,-102.08"/>
</g>
<!-- Node7 -->
<g id="node7" class="node">
<title>Node7</title>
<g id="a_node7"><a xlink:href="classcDenseMatrix.html" target="_top" xlink:title=" ">
<polygon fill="white" stroke="black" points="308.5,-56.5 308.5,-75.5 445.5,-75.5 445.5,-56.5 308.5,-56.5"/>
<text text-anchor="middle" x="377" y="-63.5" font-family="Helvetica,sans-Serif" font-size="10.00">cDenseMatrix&lt; DataType &gt;</text>
</a>
</g>
</g>
<!-- Node1&#45;&gt;Node7 -->
<g id="edge6" class="edge">
<title>Node1&#45;&gt;Node7</title>
<path fill="none" stroke="midnightblue" d="M256.33,-109.04C285.5,-98.88 326.64,-84.55 352.55,-75.52"/>
<polygon fill="midnightblue" stroke="midnightblue" points="254.85,-105.85 246.56,-112.44 257.16,-112.46 254.85,-105.85"/>
</g>
<!-- Node2 -->
<g id="node2" class="node">
<title>Node2</title>
<g id="a_node2"><a xlink:href="classcLinearOperator.html" target="_top" xlink:title="Base class for linear operators. This class serves as interface for all derived classes.">
<polygon fill="white" stroke="black" points="149,-168.5 149,-187.5 295,-187.5 295,-168.5 149,-168.5"/>
<text text-anchor="middle" x="222" y="-175.5" font-family="Helvetica,sans-Serif" font-size="10.00">cLinearOperator&lt; DataType &gt;</text>
</a>
</g>
</g>
<!-- Node2&#45;&gt;Node1 -->
<g id="edge1" class="edge">
<title>Node2&#45;&gt;Node1</title>
<path fill="none" stroke="midnightblue" d="M222,-157.8C222,-148.91 222,-138.78 222,-131.75"/>
<polygon fill="midnightblue" stroke="midnightblue" points="218.5,-158.08 222,-168.08 225.5,-158.08 218.5,-158.08"/>
</g>
<!-- Node4 -->
<g id="node4" class="node">
<title>Node4</title>
<g id="a_node4"><a xlink:href="classcuCSCMatrix.html" target="_top" xlink:title=" ">
<polygon fill="white" stroke="black" points="0,-0.5 0,-19.5 136,-19.5 136,-0.5 0,-0.5"/>
<text text-anchor="middle" x="68" y="-7.5" font-family="Helvetica,sans-Serif" font-size="10.00">cuCSCMatrix&lt; DataType &gt;</text>
</a>
</g>
</g>
<!-- Node3&#45;&gt;Node4 -->
<g id="edge3" class="edge">
<title>Node3&#45;&gt;Node4</title>
<path fill="none" stroke="midnightblue" d="M69.93,-45.8C69.44,-36.91 68.88,-26.78 68.49,-19.75"/>
<polygon fill="midnightblue" stroke="midnightblue" points="66.46,-46.29 70.5,-56.08 73.44,-45.9 66.46,-46.29"/>
</g>
<!-- Node6 -->
<g id="node6" class="node">
<title>Node6</title>
<g id="a_node6"><a xlink:href="classcuCSRMatrix.html" target="_top" xlink:title=" ">
<polygon fill="white" stroke="black" points="154,-0.5 154,-19.5 290,-19.5 290,-0.5 154,-0.5"/>
<text text-anchor="middle" x="222" y="-7.5" font-family="Helvetica,sans-Serif" font-size="10.00">cuCSRMatrix&lt; DataType &gt;</text>
</a>
</g>
</g>
<!-- Node5&#45;&gt;Node6 -->
<g id="edge5" class="edge">
<title>Node5&#45;&gt;Node6</title>
<path fill="none" stroke="midnightblue" d="M222,-45.8C222,-36.91 222,-26.78 222,-19.75"/>
<polygon fill="midnightblue" stroke="midnightblue" points="218.5,-46.08 222,-56.08 225.5,-46.08 218.5,-46.08"/>
</g>
<!-- Node8 -->
<g id="node8" class="node">
<title>Node8</title>
<g id="a_node8"><a xlink:href="classcuDenseMatrix.html" target="_top" xlink:title=" ">
<polygon fill="white" stroke="black" points="308.5,-0.5 308.5,-19.5 451.5,-19.5 451.5,-0.5 308.5,-0.5"/>
<text text-anchor="middle" x="380" y="-7.5" font-family="Helvetica,sans-Serif" font-size="10.00">cuDenseMatrix&lt; DataType &gt;</text>
</a>
</g>
</g>
<!-- Node7&#45;&gt;Node8 -->
<g id="edge7" class="edge">
<title>Node7&#45;&gt;Node8</title>
<path fill="none" stroke="midnightblue" d="M378.07,-45.8C378.56,-36.91 379.12,-26.78 379.51,-19.75"/>
<polygon fill="midnightblue" stroke="midnightblue" points="374.56,-45.9 377.5,-56.08 381.54,-46.29 374.56,-45.9"/>
</g>
</g>
</svg>
