<?xml version="1.0" encoding="UTF-8" standalone="no"?>
<!DOCTYPE svg PUBLIC "-//W3C//DTD SVG 1.1//EN"
 "http://www.w3.org/Graphics/SVG/1.1/DTD/svg11.dtd">
<!-- Generated by graphviz version 2.43.0 (0)
 -->
<!-- Title: cuAffineMatrixFunction&lt; DataType &gt; Pages: 1 -->
<svg width="676pt" height="137pt"
 viewBox="0.00 0.00 676.00 137.00" xmlns="http://www.w3.org/2000/svg" xmlns:xlink="http://www.w3.org/1999/xlink">
<g id="graph0" class="graph" transform="scale(1 1) rotate(0) translate(4 133)">
<title>cuAffineMatrixFunction&lt; DataType &gt;</title>
<polygon fill="white" stroke="transparent" points="-4,4 -4,-133 672,-133 672,4 -4,4"/>
<!-- Node1 -->
<g id="node1" class="node">
<title>Node1</title>
<g id="a_node1"><a xlink:title="Base class for affine matrix functions of one parameter.">
<polygon fill="#bfbfbf" stroke="black" points="369,-49.5 369,-79.5 486,-79.5 486,-49.5 369,-49.5"/>
<text text-anchor="start" x="377" y="-67.5" font-family="Helvetica,sans-Serif" font-size="10.00">cuAffineMatrixFunction</text>
<text text-anchor="middle" x="427.5" y="-56.5" font-family="Helvetica,sans-Serif" font-size="10.00">&lt; DataType &gt;</text>
</a>
</g>
</g>
<!-- Node4 -->
<g id="node4" class="node">
<title>Node4</title>
<g id="a_node4"><a xlink:href="classcuCSCAffineMatrixFunction.html" target="_top" xlink:title=" ">
<polygon fill="white" stroke="black" points="525.5,-98.5 525.5,-128.5 664.5,-128.5 664.5,-98.5 525.5,-98.5"/>
<text text-anchor="start" x="533.5" y="-116.5" font-family="Helvetica,sans-Serif" font-size="10.00">cuCSCAffineMatrixFunction</text>
<text text-anchor="middle" x="595" y="-105.5" font-family="Helvetica,sans-Serif" font-size="10.00">&lt; DataType &gt;</text>
</a>
</g>
</g>
<!-- Node1&#45;&gt;Node4 -->
<g id="edge3" class="edge">
<title>Node1&#45;&gt;Node4</title>
<path fill="none" stroke="midnightblue" d="M489.18,-82.47C506.92,-87.72 526.11,-93.4 543.16,-98.45"/>
<polygon fill="midnightblue" stroke="midnightblue" points="490.09,-79.08 479.51,-79.6 488.1,-85.8 490.09,-79.08"/>
</g>
<!-- Node5 -->
<g id="node5" class="node">
<title>Node5</title>
<g id="a_node5"><a xlink:href="classcuCSRAffineMatrixFunction.html" target="_top" xlink:title=" ">
<polygon fill="white" stroke="black" points="525.5,-49.5 525.5,-79.5 664.5,-79.5 664.5,-49.5 525.5,-49.5"/>
<text text-anchor="start" x="533.5" y="-67.5" font-family="Helvetica,sans-Serif" font-size="10.00">cuCSRAffineMatrixFunction</text>
<text text-anchor="middle" x="595" y="-56.5" font-family="Helvetica,sans-Serif" font-size="10.00">&lt; DataType &gt;</text>
</a>
</g>
</g>
<!-- Node1&#45;&gt;Node5 -->
<g id="edge4" class="edge">
<title>Node1&#45;&gt;Node5</title>
<path fill="none" stroke="midnightblue" d="M496.57,-64.5C506.07,-64.5 515.84,-64.5 525.35,-64.5"/>
<polygon fill="midnightblue" stroke="midnightblue" points="496.38,-61 486.38,-64.5 496.38,-68 496.38,-61"/>
</g>
<!-- Node6 -->
<g id="node6" class="node">
<title>Node6</title>
<g id="a_node6"><a xlink:href="classcuDenseAffineMatrixFunction.html" target="_top" xlink:title=" ">
<polygon fill="white" stroke="black" points="522,-0.5 522,-30.5 668,-30.5 668,-0.5 522,-0.5"/>
<text text-anchor="start" x="530" y="-18.5" font-family="Helvetica,sans-Serif" font-size="10.00">cuDenseAffineMatrixFunction</text>
<text text-anchor="middle" x="595" y="-7.5" font-family="Helvetica,sans-Serif" font-size="10.00">&lt; DataType &gt;</text>
</a>
</g>
</g>
<!-- Node1&#45;&gt;Node6 -->
<g id="edge5" class="edge">
<title>Node1&#45;&gt;Node6</title>
<path fill="none" stroke="midnightblue" d="M489.18,-46.53C506.92,-41.28 526.11,-35.6 543.16,-30.55"/>
<polygon fill="midnightblue" stroke="midnightblue" points="488.1,-43.2 479.51,-49.4 490.09,-49.92 488.1,-43.2"/>
</g>
<!-- Node2 -->
<g id="node2" class="node">
<title>Node2</title>
<g id="a_node2"><a xlink:href="classcuLinearOperator.html" target="_top" xlink:title="Base class for linear operators. This class serves as interface for all derived classes.">
<polygon fill="white" stroke="black" points="182,-55 182,-74 333,-74 333,-55 182,-55"/>
<text text-anchor="middle" x="257.5" y="-62" font-family="Helvetica,sans-Serif" font-size="10.00">cuLinearOperator&lt; DataType &gt;</text>
</a>
</g>
</g>
<!-- Node2&#45;&gt;Node1 -->
<g id="edge1" class="edge">
<title>Node2&#45;&gt;Node1</title>
<path fill="none" stroke="midnightblue" d="M343.33,-64.5C352.01,-64.5 360.68,-64.5 368.96,-64.5"/>
<polygon fill="midnightblue" stroke="midnightblue" points="343.17,-61 333.17,-64.5 343.17,-68 343.17,-61"/>
</g>
<!-- Node3 -->
<g id="node3" class="node">
<title>Node3</title>
<g id="a_node3"><a xlink:href="classcLinearOperator.html" target="_top" xlink:title="Base class for linear operators. This class serves as interface for all derived classes.">
<polygon fill="white" stroke="black" points="0,-55 0,-74 146,-74 146,-55 0,-55"/>
<text text-anchor="middle" x="73" y="-62" font-family="Helvetica,sans-Serif" font-size="10.00">cLinearOperator&lt; DataType &gt;</text>
</a>
</g>
</g>
<!-- Node3&#45;&gt;Node2 -->
<g id="edge2" class="edge">
<title>Node3&#45;&gt;Node2</title>
<path fill="none" stroke="midnightblue" d="M156.14,-64.5C164.72,-64.5 173.41,-64.5 181.9,-64.5"/>
<polygon fill="midnightblue" stroke="midnightblue" points="156.13,-61 146.13,-64.5 156.13,-68 156.13,-61"/>
</g>
</g>
</svg>
