<?xml version="1.0" encoding="UTF-8" standalone="no"?>
<!DOCTYPE svg PUBLIC "-//W3C//DTD SVG 1.1//EN"
 "http://www.w3.org/Graphics/SVG/1.1/DTD/svg11.dtd">
<!-- Generated by graphviz version 2.43.0 (0)
 -->
<!-- Title: cVectorOperations::euclidean_norm Pages: 1 -->
<svg width="754pt" height="208pt"
 viewBox="0.00 0.00 754.00 208.07" xmlns="http://www.w3.org/2000/svg" xmlns:xlink="http://www.w3.org/1999/xlink">
<g id="graph0" class="graph" transform="scale(1 1) rotate(0) translate(4 204.07)">
<title>cVectorOperations::euclidean_norm</title>
<polygon fill="white" stroke="transparent" points="-4,4 -4,-204.07 750,-204.07 750,4 -4,4"/>
<!-- Node1 -->
<g id="node1" class="node">
<title>Node1</title>
<g id="a_node1"><a xlink:title="Computes the Euclidean norm of a 1D array.">
<polygon fill="#bfbfbf" stroke="black" points="642,-98.5 642,-128.5 746,-128.5 746,-98.5 642,-98.5"/>
<text text-anchor="start" x="650" y="-116.5" font-family="Helvetica,sans-Serif" font-size="10.00">cVectorOperations::</text>
<text text-anchor="middle" x="694" y="-105.5" font-family="Helvetica,sans-Serif" font-size="10.00">euclidean_norm</text>
</a>
</g>
</g>
<!-- Node2 -->
<g id="node2" class="node">
<title>Node2</title>
<g id="a_node2"><a xlink:href="c__lanczos__tridiagonalization_8cpp.html#a88831f1a1ba564b198f446a7c8a8d5ef" target="_top" xlink:title="Tri&#45;diagonalizes matrix A to T using the start vector v. is the Lanczos degree, which will be the siz...">
<polygon fill="white" stroke="black" points="285.5,-153 285.5,-172 424.5,-172 424.5,-153 285.5,-153"/>
<text text-anchor="middle" x="355" y="-160" font-family="Helvetica,sans-Serif" font-size="10.00">c_lanczos_tridiagonalization</text>
</a>
</g>
</g>
<!-- Node1&#45;&gt;Node2 -->
<g id="edge1" class="edge">
<title>Node1&#45;&gt;Node2</title>
<path fill="none" stroke="midnightblue" d="M674.41,-136.39C658.41,-154.13 633.6,-177.35 606,-187.5 527.81,-216.26 427.13,-188.19 381.04,-172.08"/>
<polygon fill="midnightblue" stroke="midnightblue" points="677.19,-138.53 681.12,-128.69 671.91,-133.93 677.19,-138.53"/>
</g>
<!-- Node5 -->
<g id="node5" class="node">
<title>Node5</title>
<g id="a_node5"><a xlink:href="classcOrthogonalization.html#a1b1bcbb636f1a1608ce7a22d4538b3b3" target="_top" xlink:title="Modified Gram&#45;Schmidt orthogonalization process to orthogonalize the vector v against a subset of the...">
<polygon fill="white" stroke="black" points="475,-147.5 475,-177.5 599,-177.5 599,-147.5 475,-147.5"/>
<text text-anchor="start" x="483" y="-165.5" font-family="Helvetica,sans-Serif" font-size="10.00">cOrthogonalization</text>
<text text-anchor="middle" x="537" y="-154.5" font-family="Helvetica,sans-Serif" font-size="10.00">::gram_schmidt_process</text>
</a>
</g>
</g>
<!-- Node1&#45;&gt;Node5 -->
<g id="edge4" class="edge">
<title>Node1&#45;&gt;Node5</title>
<path fill="none" stroke="midnightblue" d="M635.24,-131.76C618.89,-136.93 601.29,-142.49 585.61,-147.45"/>
<polygon fill="midnightblue" stroke="midnightblue" points="636.75,-134.95 645.23,-128.6 634.64,-128.28 636.75,-134.95"/>
</g>
<!-- Node7 -->
<g id="node7" class="node">
<title>Node7</title>
<g id="a_node7"><a xlink:href="classcVectorOperations.html#aeb0171f2644e3036907bbbddf47ce998" target="_top" xlink:title="Normalizes a vector based on Euclidean 2&#45;norm. The result is written into another vector.">
<polygon fill="white" stroke="black" points="468,-98.5 468,-128.5 606,-128.5 606,-98.5 468,-98.5"/>
<text text-anchor="start" x="476" y="-116.5" font-family="Helvetica,sans-Serif" font-size="10.00">cVectorOperations::</text>
<text text-anchor="middle" x="537" y="-105.5" font-family="Helvetica,sans-Serif" font-size="10.00">normalize_vector_and_copy</text>
</a>
</g>
</g>
<!-- Node1&#45;&gt;Node7 -->
<g id="edge8" class="edge">
<title>Node1&#45;&gt;Node7</title>
<path fill="none" stroke="midnightblue" d="M631.77,-113.5C623.39,-113.5 614.76,-113.5 606.27,-113.5"/>
<polygon fill="midnightblue" stroke="midnightblue" points="631.82,-117 641.82,-113.5 631.82,-110 631.82,-117"/>
</g>
<!-- Node8 -->
<g id="node8" class="node">
<title>Node8</title>
<g id="a_node8"><a xlink:href="classcVectorOperations.html#ab0991d74cadf3a3969f0723dbff55dc9" target="_top" xlink:title="Normalizes a vector based on Euclidean 2&#45;norm. The result is written in&#45;place.">
<polygon fill="white" stroke="black" points="471,-49.5 471,-79.5 603,-79.5 603,-49.5 471,-49.5"/>
<text text-anchor="start" x="479" y="-67.5" font-family="Helvetica,sans-Serif" font-size="10.00">cVectorOperations::</text>
<text text-anchor="middle" x="537" y="-56.5" font-family="Helvetica,sans-Serif" font-size="10.00">normalize_vector_in_place</text>
</a>
</g>
</g>
<!-- Node1&#45;&gt;Node8 -->
<g id="edge10" class="edge">
<title>Node1&#45;&gt;Node8</title>
<path fill="none" stroke="midnightblue" d="M635.24,-95.24C618.89,-90.07 601.29,-84.51 585.61,-79.55"/>
<polygon fill="midnightblue" stroke="midnightblue" points="634.64,-98.72 645.23,-98.4 636.75,-92.05 634.64,-98.72"/>
</g>
<!-- Node9 -->
<g id="node9" class="node">
<title>Node9</title>
<g id="a_node9"><a xlink:href="classcOrthogonalization.html#a7b017e5520083a1cf3ac2ed27bb811d8" target="_top" xlink:title="Orthogonalizes set of vectors mutually using modified Gram&#45;Schmidt process.">
<polygon fill="white" stroke="black" points="478,-0.5 478,-30.5 596,-30.5 596,-0.5 478,-0.5"/>
<text text-anchor="start" x="486" y="-18.5" font-family="Helvetica,sans-Serif" font-size="10.00">cOrthogonalization</text>
<text text-anchor="middle" x="537" y="-7.5" font-family="Helvetica,sans-Serif" font-size="10.00">::orthogonalize_vectors</text>
</a>
</g>
</g>
<!-- Node1&#45;&gt;Node9 -->
<g id="edge12" class="edge">
<title>Node1&#45;&gt;Node9</title>
<path fill="none" stroke="midnightblue" d="M671.06,-90.83C654.44,-74.71 630.37,-53.52 606,-39.5 600.25,-36.19 593.96,-33.22 587.61,-30.6"/>
<polygon fill="midnightblue" stroke="midnightblue" points="669.02,-93.74 678.59,-98.28 673.94,-88.76 669.02,-93.74"/>
</g>
<!-- Node3 -->
<g id="node3" class="node">
<title>Node3</title>
<g id="a_node3"><a xlink:href="classcTraceEstimator.html#a02afa505a915c58380b99a62e4d56b30" target="_top" xlink:title="For a given random input vector, computes one Monte&#45;Carlo sample to estimate trace using Lanczos quad...">
<polygon fill="white" stroke="black" points="136,-118 136,-159 242,-159 242,-118 136,-118"/>
<text text-anchor="start" x="144" y="-147" font-family="Helvetica,sans-Serif" font-size="10.00">cTraceEstimator::_c</text>
<text text-anchor="start" x="144" y="-136" font-family="Helvetica,sans-Serif" font-size="10.00">_stochastic_lanczos</text>
<text text-anchor="middle" x="189" y="-125" font-family="Helvetica,sans-Serif" font-size="10.00">_quadrature</text>
</a>
</g>
</g>
<!-- Node2&#45;&gt;Node3 -->
<g id="edge2" class="edge">
<title>Node2&#45;&gt;Node3</title>
<path fill="none" stroke="midnightblue" d="M278.48,-151.45C266.21,-149.65 253.74,-147.83 242.19,-146.14"/>
<polygon fill="midnightblue" stroke="midnightblue" points="278.31,-154.96 288.71,-152.95 279.32,-148.03 278.31,-154.96"/>
</g>
<!-- Node4 -->
<g id="node4" class="node">
<title>Node4</title>
<g id="a_node4"><a xlink:href="classcTraceEstimator.html#a29144b4d62c71f0889002754384f57f4" target="_top" xlink:title="Stochastic Lanczos quadrature method to estimate trace of a function of a linear operator....">
<polygon fill="white" stroke="black" points="0,-123.5 0,-153.5 100,-153.5 100,-123.5 0,-123.5"/>
<text text-anchor="start" x="8" y="-141.5" font-family="Helvetica,sans-Serif" font-size="10.00">cTraceEstimator::c</text>
<text text-anchor="middle" x="50" y="-130.5" font-family="Helvetica,sans-Serif" font-size="10.00">_trace_estimator</text>
</a>
</g>
</g>
<!-- Node3&#45;&gt;Node4 -->
<g id="edge3" class="edge">
<title>Node3&#45;&gt;Node4</title>
<path fill="none" stroke="midnightblue" d="M125.58,-138.5C117.12,-138.5 108.53,-138.5 100.33,-138.5"/>
<polygon fill="midnightblue" stroke="midnightblue" points="125.82,-142 135.82,-138.5 125.82,-135 125.82,-142"/>
</g>
<!-- Node5&#45;&gt;Node2 -->
<g id="edge7" class="edge">
<title>Node5&#45;&gt;Node2</title>
<path fill="none" stroke="midnightblue" d="M464.46,-162.5C451.38,-162.5 437.75,-162.5 424.76,-162.5"/>
<polygon fill="midnightblue" stroke="midnightblue" points="464.81,-166 474.81,-162.5 464.81,-159 464.81,-166"/>
</g>
<!-- Node6 -->
<g id="node6" class="node">
<title>Node6</title>
<g id="a_node6"><a xlink:href="c__golub__kahn__bidiagonalization_8cpp.html#a6125b021cd93b43ab4d9f20813487f85" target="_top" xlink:title="Bi&#45;diagonalizes the positive&#45;definite matrix A using Golub&#45;Kahn&#45;Lanczos method.">
<polygon fill="white" stroke="black" points="278,-110 278,-129 432,-129 432,-110 278,-110"/>
<text text-anchor="middle" x="355" y="-117" font-family="Helvetica,sans-Serif" font-size="10.00">c_golub_kahn_bidiagonalization</text>
</a>
</g>
</g>
<!-- Node5&#45;&gt;Node6 -->
<g id="edge5" class="edge">
<title>Node5&#45;&gt;Node6</title>
<path fill="none" stroke="midnightblue" d="M464.88,-145.51C441.39,-139.9 416.12,-133.86 395.84,-129.02"/>
<polygon fill="midnightblue" stroke="midnightblue" points="464.27,-148.96 474.81,-147.88 465.9,-142.15 464.27,-148.96"/>
</g>
<!-- Node6&#45;&gt;Node3 -->
<g id="edge6" class="edge">
<title>Node6&#45;&gt;Node3</title>
<path fill="none" stroke="midnightblue" d="M267.58,-129.51C258.92,-130.52 250.32,-131.51 242.17,-132.46"/>
<polygon fill="midnightblue" stroke="midnightblue" points="268.23,-132.96 277.76,-128.33 267.43,-126.01 268.23,-132.96"/>
</g>
<!-- Node7&#45;&gt;Node6 -->
<g id="edge9" class="edge">
<title>Node7&#45;&gt;Node6</title>
<path fill="none" stroke="midnightblue" d="M457.74,-116.11C449.29,-116.39 440.71,-116.68 432.29,-116.96"/>
<polygon fill="midnightblue" stroke="midnightblue" points="458.07,-119.6 467.95,-115.77 457.84,-112.6 458.07,-119.6"/>
</g>
<!-- Node8&#45;&gt;Node6 -->
<g id="edge11" class="edge">
<title>Node8&#45;&gt;Node6</title>
<path fill="none" stroke="midnightblue" d="M476.9,-82.56C447,-91.69 411.94,-102.41 387.29,-109.94"/>
<polygon fill="midnightblue" stroke="midnightblue" points="478.27,-85.8 486.81,-79.53 476.23,-79.1 478.27,-85.8"/>
</g>
</g>
</svg>
