<?xml version="1.0" encoding="UTF-8" standalone="no"?>
<!DOCTYPE svg PUBLIC "-//W3C//DTD SVG 1.1//EN"
 "http://www.w3.org/Graphics/SVG/1.1/DTD/svg11.dtd">
<!-- Generated by graphviz version 2.43.0 (0)
 -->
<!-- Title: Xoshiro256StarStar::rotation_left Pages: 1 -->
<svg width="889pt" height="170pt"
 viewBox="0.00 0.00 889.00 170.00" xmlns="http://www.w3.org/2000/svg" xmlns:xlink="http://www.w3.org/1999/xlink">
<g id="graph0" class="graph" transform="scale(1 1) rotate(0) translate(4 166)">
<title>Xoshiro256StarStar::rotation_left</title>
<polygon fill="white" stroke="transparent" points="-4,4 -4,-166 885,-166 885,4 -4,4"/>
<!-- Node1 -->
<g id="node1" class="node">
<title>Node1</title>
<g id="a_node1"><a xlink:title="Rotates the bits of a 64 bit integer toward left.">
<polygon fill="#bfbfbf" stroke="black" points="780,-82.5 780,-112.5 881,-112.5 881,-82.5 780,-82.5"/>
<text text-anchor="start" x="788" y="-100.5" font-family="Helvetica,sans-Serif" font-size="10.00">Xoshiro256StarStar</text>
<text text-anchor="middle" x="830.5" y="-89.5" font-family="Helvetica,sans-Serif" font-size="10.00">::rotation_left</text>
</a>
</g>
</g>
<!-- Node2 -->
<g id="node2" class="node">
<title>Node2</title>
<g id="a_node2"><a xlink:href="classXoshiro256StarStar.html#a6a99f74d2ed5f6e3667d785c46bf9569" target="_top" xlink:title="Generates the next presudo&#45;random number.">
<polygon fill="white" stroke="black" points="643,-82.5 643,-112.5 744,-112.5 744,-82.5 643,-82.5"/>
<text text-anchor="start" x="651" y="-100.5" font-family="Helvetica,sans-Serif" font-size="10.00">Xoshiro256StarStar</text>
<text text-anchor="middle" x="693.5" y="-89.5" font-family="Helvetica,sans-Serif" font-size="10.00">::next</text>
</a>
</g>
</g>
<!-- Node1&#45;&gt;Node2 -->
<g id="edge1" class="edge">
<title>Node1&#45;&gt;Node2</title>
<path fill="none" stroke="midnightblue" d="M769.79,-97.5C761.33,-97.5 752.7,-97.5 744.45,-97.5"/>
<polygon fill="midnightblue" stroke="midnightblue" points="770,-101 780,-97.5 770,-94 770,-101"/>
</g>
<!-- Node3 -->
<g id="node3" class="node">
<title>Node3</title>
<g id="a_node3"><a xlink:href="classXoshiro256StarStar.html#aced1e35723f858f228bb7bf5cc5fda6a" target="_top" xlink:title="Jump function for the generator. It is equivalent to 2^128 calls to next(); it can be used to generat...">
<polygon fill="white" stroke="black" points="491,-131.5 491,-161.5 592,-161.5 592,-131.5 491,-131.5"/>
<text text-anchor="start" x="499" y="-149.5" font-family="Helvetica,sans-Serif" font-size="10.00">Xoshiro256StarStar</text>
<text text-anchor="middle" x="541.5" y="-138.5" font-family="Helvetica,sans-Serif" font-size="10.00">::jump</text>
</a>
</g>
</g>
<!-- Node2&#45;&gt;Node3 -->
<g id="edge2" class="edge">
<title>Node2&#45;&gt;Node3</title>
<path fill="none" stroke="midnightblue" d="M636.6,-115.76C620.78,-120.93 603.75,-126.49 588.58,-131.45"/>
<polygon fill="midnightblue" stroke="midnightblue" points="637.85,-119.03 646.27,-112.6 635.68,-112.38 637.85,-119.03"/>
</g>
<!-- Node6 -->
<g id="node6" class="node">
<title>Node6</title>
<g id="a_node6"><a xlink:href="classXoshiro256StarStar.html#a5da35c894b67e2a4a031f145e3946bb9" target="_top" xlink:title="Long jump function for the generator. It is equivalent to 2^192 calls to next(). It can be used to ge...">
<polygon fill="white" stroke="black" points="491,-82.5 491,-112.5 592,-112.5 592,-82.5 491,-82.5"/>
<text text-anchor="start" x="499" y="-100.5" font-family="Helvetica,sans-Serif" font-size="10.00">Xoshiro256StarStar</text>
<text text-anchor="middle" x="541.5" y="-89.5" font-family="Helvetica,sans-Serif" font-size="10.00">::long_jump</text>
</a>
</g>
</g>
<!-- Node2&#45;&gt;Node6 -->
<g id="edge5" class="edge">
<title>Node2&#45;&gt;Node6</title>
<path fill="none" stroke="midnightblue" d="M632.84,-97.5C619.38,-97.5 605.24,-97.5 592.24,-97.5"/>
<polygon fill="midnightblue" stroke="midnightblue" points="632.97,-101 642.97,-97.5 632.97,-94 632.97,-101"/>
</g>
<!-- Node7 -->
<g id="node7" class="node">
<title>Node7</title>
<g id="a_node7"><a xlink:href="classRandomNumberGenerator.html#a91d8b9726bda7dcd40f9b992b2a1bccd" target="_top" xlink:title="Generates the next random number in the sequence, depending on the thread id.">
<polygon fill="white" stroke="black" points="476,-33.5 476,-63.5 607,-63.5 607,-33.5 476,-33.5"/>
<text text-anchor="start" x="484" y="-51.5" font-family="Helvetica,sans-Serif" font-size="10.00">RandomNumberGenerator</text>
<text text-anchor="middle" x="541.5" y="-40.5" font-family="Helvetica,sans-Serif" font-size="10.00">::next</text>
</a>
</g>
</g>
<!-- Node2&#45;&gt;Node7 -->
<g id="edge6" class="edge">
<title>Node2&#45;&gt;Node7</title>
<path fill="none" stroke="midnightblue" d="M636.6,-79.24C620.78,-74.07 603.75,-68.51 588.58,-63.55"/>
<polygon fill="midnightblue" stroke="midnightblue" points="635.68,-82.62 646.27,-82.4 637.85,-75.97 635.68,-82.62"/>
</g>
<!-- Node4 -->
<g id="node4" class="node">
<title>Node4</title>
<g id="a_node4"><a xlink:href="classRandomNumberGenerator.html#a39545f8392c54e0f0ed0174cb1d41ded" target="_top" xlink:title="Initializes an array of xoshiro_256_star_star objects.">
<polygon fill="white" stroke="black" points="309,-131.5 309,-161.5 440,-161.5 440,-131.5 309,-131.5"/>
<text text-anchor="start" x="317" y="-149.5" font-family="Helvetica,sans-Serif" font-size="10.00">RandomNumberGenerator</text>
<text text-anchor="middle" x="374.5" y="-138.5" font-family="Helvetica,sans-Serif" font-size="10.00">::initialize</text>
</a>
</g>
</g>
<!-- Node3&#45;&gt;Node4 -->
<g id="edge3" class="edge">
<title>Node3&#45;&gt;Node4</title>
<path fill="none" stroke="midnightblue" d="M480.67,-146.5C467.53,-146.5 453.57,-146.5 440.25,-146.5"/>
<polygon fill="midnightblue" stroke="midnightblue" points="480.99,-150 490.99,-146.5 480.99,-143 480.99,-150"/>
</g>
<!-- Node5 -->
<g id="node5" class="node">
<title>Node5</title>
<g id="a_node5"><a xlink:href="classRandomNumberGenerator.html#a8e7e711ea58f13f3ed95becbe33684e9" target="_top" xlink:title="Initializes with one parallel thread.">
<polygon fill="white" stroke="black" points="136,-131.5 136,-161.5 273,-161.5 273,-131.5 136,-131.5"/>
<text text-anchor="start" x="144" y="-149.5" font-family="Helvetica,sans-Serif" font-size="10.00">RandomNumberGenerator</text>
<text text-anchor="middle" x="204.5" y="-138.5" font-family="Helvetica,sans-Serif" font-size="10.00">::RandomNumberGenerator</text>
</a>
</g>
</g>
<!-- Node4&#45;&gt;Node5 -->
<g id="edge4" class="edge">
<title>Node4&#45;&gt;Node5</title>
<path fill="none" stroke="midnightblue" d="M298.35,-146.5C289.93,-146.5 281.38,-146.5 273.06,-146.5"/>
<polygon fill="midnightblue" stroke="midnightblue" points="298.55,-150 308.55,-146.5 298.55,-143 298.55,-150"/>
</g>
<!-- Node8 -->
<g id="node8" class="node">
<title>Node8</title>
<g id="a_node8"><a xlink:href="classRandomArrayGenerator.html#a3a577526f391d531fe4d66bdfa0107db" target="_top" xlink:title="Generates a pseudo&#45;random array with Rademacher distribution where elements are either +1 or &#45;1.">
<polygon fill="white" stroke="black" points="312,-33.5 312,-63.5 437,-63.5 437,-33.5 312,-33.5"/>
<text text-anchor="start" x="320" y="-51.5" font-family="Helvetica,sans-Serif" font-size="10.00">RandomArrayGenerator</text>
<text text-anchor="middle" x="374.5" y="-40.5" font-family="Helvetica,sans-Serif" font-size="10.00">::generate_random_array</text>
</a>
</g>
</g>
<!-- Node7&#45;&gt;Node8 -->
<g id="edge7" class="edge">
<title>Node7&#45;&gt;Node8</title>
<path fill="none" stroke="midnightblue" d="M465.52,-48.5C456,-48.5 446.36,-48.5 437.09,-48.5"/>
<polygon fill="midnightblue" stroke="midnightblue" points="465.76,-52 475.76,-48.5 465.76,-45 465.76,-52"/>
</g>
<!-- Node9 -->
<g id="node9" class="node">
<title>Node9</title>
<g id="a_node9"><a xlink:href="classcTraceEstimator.html#a02afa505a915c58380b99a62e4d56b30" target="_top" xlink:title="For a given random input vector, computes one Monte&#45;Carlo sample to estimate trace using Lanczos quad...">
<polygon fill="white" stroke="black" points="151.5,-50 151.5,-91 257.5,-91 257.5,-50 151.5,-50"/>
<text text-anchor="start" x="159.5" y="-79" font-family="Helvetica,sans-Serif" font-size="10.00">cTraceEstimator::_c</text>
<text text-anchor="start" x="159.5" y="-68" font-family="Helvetica,sans-Serif" font-size="10.00">_stochastic_lanczos</text>
<text text-anchor="middle" x="204.5" y="-57" font-family="Helvetica,sans-Serif" font-size="10.00">_quadrature</text>
</a>
</g>
</g>
<!-- Node8&#45;&gt;Node9 -->
<g id="edge8" class="edge">
<title>Node8&#45;&gt;Node9</title>
<path fill="none" stroke="midnightblue" d="M301.76,-57.89C286.96,-59.83 271.65,-61.84 257.7,-63.66"/>
<polygon fill="midnightblue" stroke="midnightblue" points="302.44,-61.34 311.9,-56.57 301.53,-54.4 302.44,-61.34"/>
</g>
<!-- Node11 -->
<g id="node11" class="node">
<title>Node11</title>
<g id="a_node11"><a xlink:href="classcOrthogonalization.html#a7b017e5520083a1cf3ac2ed27bb811d8" target="_top" xlink:title="Orthogonalizes set of vectors mutually using modified Gram&#45;Schmidt process.">
<polygon fill="white" stroke="black" points="145.5,-0.5 145.5,-30.5 263.5,-30.5 263.5,-0.5 145.5,-0.5"/>
<text text-anchor="start" x="153.5" y="-18.5" font-family="Helvetica,sans-Serif" font-size="10.00">cOrthogonalization</text>
<text text-anchor="middle" x="204.5" y="-7.5" font-family="Helvetica,sans-Serif" font-size="10.00">::orthogonalize_vectors</text>
</a>
</g>
</g>
<!-- Node8&#45;&gt;Node11 -->
<g id="edge10" class="edge">
<title>Node8&#45;&gt;Node11</title>
<path fill="none" stroke="midnightblue" d="M301.81,-34.42C289.11,-31.92 276.02,-29.35 263.74,-26.94"/>
<polygon fill="midnightblue" stroke="midnightblue" points="301.41,-37.91 311.9,-36.4 302.76,-31.04 301.41,-37.91"/>
</g>
<!-- Node10 -->
<g id="node10" class="node">
<title>Node10</title>
<g id="a_node10"><a xlink:href="classcTraceEstimator.html#a29144b4d62c71f0889002754384f57f4" target="_top" xlink:title="Stochastic Lanczos quadrature method to estimate trace of a function of a linear operator....">
<polygon fill="white" stroke="black" points="0,-55.5 0,-85.5 100,-85.5 100,-55.5 0,-55.5"/>
<text text-anchor="start" x="8" y="-73.5" font-family="Helvetica,sans-Serif" font-size="10.00">cTraceEstimator::c</text>
<text text-anchor="middle" x="50" y="-62.5" font-family="Helvetica,sans-Serif" font-size="10.00">_trace_estimator</text>
</a>
</g>
</g>
<!-- Node9&#45;&gt;Node10 -->
<g id="edge9" class="edge">
<title>Node9&#45;&gt;Node10</title>
<path fill="none" stroke="midnightblue" d="M141.17,-70.5C127.54,-70.5 113.29,-70.5 100.25,-70.5"/>
<polygon fill="midnightblue" stroke="midnightblue" points="141.44,-74 151.44,-70.5 141.44,-67 141.44,-74"/>
</g>
</g>
</svg>
