<?xml version="1.0" encoding="UTF-8" standalone="no"?>
<!DOCTYPE svg PUBLIC "-//W3C//DTD SVG 1.1//EN"
 "http://www.w3.org/Graphics/SVG/1.1/DTD/svg11.dtd">
<!-- Generated by graphviz version 2.43.0 (0)
 -->
<!-- Title: RandomNumberGenerator::next Pages: 1 -->
<svg width="413pt" height="39pt"
 viewBox="0.00 0.00 413.00 39.00" xmlns="http://www.w3.org/2000/svg" xmlns:xlink="http://www.w3.org/1999/xlink">
<g id="graph0" class="graph" transform="scale(1 1) rotate(0) translate(4 35)">
<title>RandomNumberGenerator::next</title>
<polygon fill="white" stroke="transparent" points="-4,4 -4,-35 409,-35 409,4 -4,4"/>
<!-- Node1 -->
<g id="node1" class="node">
<title>Node1</title>
<g id="a_node1"><a xlink:title="Generates the next random number in the sequence, depending on the thread id.">
<polygon fill="#bfbfbf" stroke="black" points="0,-0.5 0,-30.5 131,-30.5 131,-0.5 0,-0.5"/>
<text text-anchor="start" x="8" y="-18.5" font-family="Helvetica,sans-Serif" font-size="10.00">RandomNumberGenerator</text>
<text text-anchor="middle" x="65.5" y="-7.5" font-family="Helvetica,sans-Serif" font-size="10.00">::next</text>
</a>
</g>
</g>
<!-- Node2 -->
<g id="node2" class="node">
<title>Node2</title>
<g id="a_node2"><a xlink:href="classXoshiro256StarStar.html#a6a99f74d2ed5f6e3667d785c46bf9569" target="_top" xlink:title="Generates the next presudo&#45;random number.">
<polygon fill="white" stroke="black" points="167,-0.5 167,-30.5 268,-30.5 268,-0.5 167,-0.5"/>
<text text-anchor="start" x="175" y="-18.5" font-family="Helvetica,sans-Serif" font-size="10.00">Xoshiro256StarStar</text>
<text text-anchor="middle" x="217.5" y="-7.5" font-family="Helvetica,sans-Serif" font-size="10.00">::next</text>
</a>
</g>
</g>
<!-- Node1&#45;&gt;Node2 -->
<g id="edge1" class="edge">
<title>Node1&#45;&gt;Node2</title>
<path fill="none" stroke="midnightblue" d="M131.42,-15.5C139.86,-15.5 148.48,-15.5 156.83,-15.5"/>
<polygon fill="midnightblue" stroke="midnightblue" points="156.86,-19 166.86,-15.5 156.86,-12 156.86,-19"/>
</g>
<!-- Node3 -->
<g id="node3" class="node">
<title>Node3</title>
<g id="a_node3"><a xlink:href="classXoshiro256StarStar.html#a3b10c22cbac4ff9bf4447e28e57f7a72" target="_top" xlink:title="Rotates the bits of a 64 bit integer toward left.">
<polygon fill="white" stroke="black" points="304,-0.5 304,-30.5 405,-30.5 405,-0.5 304,-0.5"/>
<text text-anchor="start" x="312" y="-18.5" font-family="Helvetica,sans-Serif" font-size="10.00">Xoshiro256StarStar</text>
<text text-anchor="middle" x="354.5" y="-7.5" font-family="Helvetica,sans-Serif" font-size="10.00">::rotation_left</text>
</a>
</g>
</g>
<!-- Node2&#45;&gt;Node3 -->
<g id="edge2" class="edge">
<title>Node2&#45;&gt;Node3</title>
<path fill="none" stroke="midnightblue" d="M268,-15.5C276.24,-15.5 284.87,-15.5 293.34,-15.5"/>
<polygon fill="midnightblue" stroke="midnightblue" points="293.55,-19 303.55,-15.5 293.55,-12 293.55,-19"/>
</g>
</g>
</svg>
