<?xml version="1.0" encoding="UTF-8" standalone="no"?>
<!DOCTYPE svg PUBLIC "-//W3C//DTD SVG 1.1//EN"
 "http://www.w3.org/Graphics/SVG/1.1/DTD/svg11.dtd">
<!-- Generated by graphviz version 2.43.0 (0)
 -->
<!-- Title: cuMatrix&lt; DataType &gt; Pages: 1 -->
<svg width="460pt" height="196pt"
 viewBox="0.00 0.00 459.50 196.00" xmlns="http://www.w3.org/2000/svg" xmlns:xlink="http://www.w3.org/1999/xlink">
<g id="graph0" class="graph" transform="scale(1 1) rotate(0) translate(4 192)">
<title>cuMatrix&lt; DataType &gt;</title>
<polygon fill="white" stroke="transparent" points="-4,4 -4,-192 455.5,-192 455.5,4 -4,4"/>
<!-- Node1 -->
<g id="node1" class="node">
<title>Node1</title>
<g id="a_node1"><a xlink:title="Base class for constant matrices.">
<polygon fill="#bfbfbf" stroke="black" points="165,-56.5 165,-75.5 279,-75.5 279,-56.5 165,-56.5"/>
<text text-anchor="middle" x="222" y="-63.5" font-family="Helvetica,sans-Serif" font-size="10.00">cuMatrix&lt; DataType &gt;</text>
</a>
</g>
</g>
<!-- Node4 -->
<g id="node4" class="node">
<title>Node4</title>
<g id="a_node4"><a xlink:href="classcuCSCMatrix.html" target="_top" xlink:title=" ">
<polygon fill="white" stroke="black" points="0,-0.5 0,-19.5 136,-19.5 136,-0.5 0,-0.5"/>
<text text-anchor="middle" x="68" y="-7.5" font-family="Helvetica,sans-Serif" font-size="10.00">cuCSCMatrix&lt; DataType &gt;</text>
</a>
</g>
</g>
<!-- Node1&#45;&gt;Node4 -->
<g id="edge3" class="edge">
<title>Node1&#45;&gt;Node4</title>
<path fill="none" stroke="midnightblue" d="M187.89,-53.04C158.91,-42.88 118.04,-28.55 92.29,-19.52"/>
<polygon fill="midnightblue" stroke="midnightblue" points="187,-56.44 197.6,-56.44 189.32,-49.83 187,-56.44"/>
</g>
<!-- Node5 -->
<g id="node5" class="node">
<title>Node5</title>
<g id="a_node5"><a xlink:href="classcuCSRMatrix.html" target="_top" xlink:title=" ">
<polygon fill="white" stroke="black" points="154,-0.5 154,-19.5 290,-19.5 290,-0.5 154,-0.5"/>
<text text-anchor="middle" x="222" y="-7.5" font-family="Helvetica,sans-Serif" font-size="10.00">cuCSRMatrix&lt; DataType &gt;</text>
</a>
</g>
</g>
<!-- Node1&#45;&gt;Node5 -->
<g id="edge4" class="edge">
<title>Node1&#45;&gt;Node5</title>
<path fill="none" stroke="midnightblue" d="M222,-45.8C222,-36.91 222,-26.78 222,-19.75"/>
<polygon fill="midnightblue" stroke="midnightblue" points="218.5,-46.08 222,-56.08 225.5,-46.08 218.5,-46.08"/>
</g>
<!-- Node6 -->
<g id="node6" class="node">
<title>Node6</title>
<g id="a_node6"><a xlink:href="classcuDenseMatrix.html" target="_top" xlink:title=" ">
<polygon fill="white" stroke="black" points="308.5,-0.5 308.5,-19.5 451.5,-19.5 451.5,-0.5 308.5,-0.5"/>
<text text-anchor="middle" x="380" y="-7.5" font-family="Helvetica,sans-Serif" font-size="10.00">cuDenseMatrix&lt; DataType &gt;</text>
</a>
</g>
</g>
<!-- Node1&#45;&gt;Node6 -->
<g id="edge5" class="edge">
<title>Node1&#45;&gt;Node6</title>
<path fill="none" stroke="midnightblue" d="M256.61,-53.17C286.36,-43 328.55,-28.59 355.08,-19.52"/>
<polygon fill="midnightblue" stroke="midnightblue" points="255.37,-49.9 247.04,-56.44 257.63,-56.52 255.37,-49.9"/>
</g>
<!-- Node2 -->
<g id="node2" class="node">
<title>Node2</title>
<g id="a_node2"><a xlink:href="classcuLinearOperator.html" target="_top" xlink:title="Base class for linear operators. This class serves as interface for all derived classes.">
<polygon fill="white" stroke="black" points="146.5,-112.5 146.5,-131.5 297.5,-131.5 297.5,-112.5 146.5,-112.5"/>
<text text-anchor="middle" x="222" y="-119.5" font-family="Helvetica,sans-Serif" font-size="10.00">cuLinearOperator&lt; DataType &gt;</text>
</a>
</g>
</g>
<!-- Node2&#45;&gt;Node1 -->
<g id="edge1" class="edge">
<title>Node2&#45;&gt;Node1</title>
<path fill="none" stroke="midnightblue" d="M222,-101.8C222,-92.91 222,-82.78 222,-75.75"/>
<polygon fill="midnightblue" stroke="midnightblue" points="218.5,-102.08 222,-112.08 225.5,-102.08 218.5,-102.08"/>
</g>
<!-- Node3 -->
<g id="node3" class="node">
<title>Node3</title>
<g id="a_node3"><a xlink:href="classcLinearOperator.html" target="_top" xlink:title="Base class for linear operators. This class serves as interface for all derived classes.">
<polygon fill="white" stroke="black" points="149,-168.5 149,-187.5 295,-187.5 295,-168.5 149,-168.5"/>
<text text-anchor="middle" x="222" y="-175.5" font-family="Helvetica,sans-Serif" font-size="10.00">cLinearOperator&lt; DataType &gt;</text>
</a>
</g>
</g>
<!-- Node3&#45;&gt;Node2 -->
<g id="edge2" class="edge">
<title>Node3&#45;&gt;Node2</title>
<path fill="none" stroke="midnightblue" d="M222,-157.8C222,-148.91 222,-138.78 222,-131.75"/>
<polygon fill="midnightblue" stroke="midnightblue" points="218.5,-158.08 222,-168.08 225.5,-158.08 218.5,-158.08"/>
</g>
</g>
</svg>
