<?xml version="1.0" encoding="UTF-8" standalone="no"?>
<!DOCTYPE svg PUBLIC "-//W3C//DTD SVG 1.1//EN"
 "http://www.w3.org/Graphics/SVG/1.1/DTD/svg11.dtd">
<!-- Generated by graphviz version 2.43.0 (0)
 -->
<!-- Title: /home/sia/work/ADCP/Noise&#45;Estimation/code/imate/imate/_cu_linear_operator/cu_matrix.h Pages: 1 -->
<svg width="367pt" height="296pt"
 viewBox="0.00 0.00 366.50 296.00" xmlns="http://www.w3.org/2000/svg" xmlns:xlink="http://www.w3.org/1999/xlink">
<g id="graph0" class="graph" transform="scale(1 1) rotate(0) translate(4 292)">
<title>/home/sia/work/ADCP/Noise&#45;Estimation/code/imate/imate/_cu_linear_operator/cu_matrix.h</title>
<polygon fill="white" stroke="transparent" points="-4,4 -4,-292 362.5,-292 362.5,4 -4,4"/>
<!-- Node1 -->
<g id="node1" class="node">
<title>Node1</title>
<g id="a_node1"><a xlink:title=" ">
<polygon fill="#bfbfbf" stroke="black" points="7.5,-235.5 7.5,-287.5 126.5,-287.5 126.5,-235.5 7.5,-235.5"/>
<text text-anchor="start" x="15.5" y="-275.5" font-family="Helvetica,sans-Serif" font-size="10.00">/home/sia/work/ADCP</text>
<text text-anchor="start" x="15.5" y="-264.5" font-family="Helvetica,sans-Serif" font-size="10.00">/Noise&#45;Estimation/code</text>
<text text-anchor="start" x="15.5" y="-253.5" font-family="Helvetica,sans-Serif" font-size="10.00">/imate/imate/_cu_linear</text>
<text text-anchor="middle" x="67" y="-242.5" font-family="Helvetica,sans-Serif" font-size="10.00">_operator/cu_matrix.h</text>
</a>
</g>
</g>
<!-- Node2 -->
<g id="node2" class="node">
<title>Node2</title>
<g id="a_node2"><a xlink:href="types_8h.html" target="_top" xlink:title=" ">
<polygon fill="white" stroke="black" points="0,-56.5 0,-75.5 110,-75.5 110,-56.5 0,-56.5"/>
<text text-anchor="middle" x="55" y="-63.5" font-family="Helvetica,sans-Serif" font-size="10.00">../_definitions/types.h</text>
</a>
</g>
</g>
<!-- Node1&#45;&gt;Node2 -->
<g id="edge1" class="edge">
<title>Node1&#45;&gt;Node2</title>
<path fill="none" stroke="midnightblue" d="M60.42,-235.26C57.87,-224.21 55.26,-211.05 54,-199 49.81,-158.88 51.85,-111.52 53.54,-85.85"/>
<polygon fill="midnightblue" stroke="midnightblue" points="57.05,-85.91 54.27,-75.68 50.06,-85.41 57.05,-85.91"/>
</g>
<!-- Node4 -->
<g id="node4" class="node">
<title>Node4</title>
<g id="a_node4"><a xlink:href="cu__linear__operator_8h.html" target="_top" xlink:title=" ">
<polygon fill="white" stroke="black" points="63,-179.5 63,-198.5 173,-198.5 173,-179.5 63,-179.5"/>
<text text-anchor="middle" x="118" y="-186.5" font-family="Helvetica,sans-Serif" font-size="10.00">./cu_linear_operator.h</text>
</a>
</g>
</g>
<!-- Node1&#45;&gt;Node4 -->
<g id="edge3" class="edge">
<title>Node1&#45;&gt;Node4</title>
<path fill="none" stroke="midnightblue" d="M85.12,-235.45C91.94,-226.03 99.52,-215.55 105.68,-207.03"/>
<polygon fill="midnightblue" stroke="midnightblue" points="108.68,-208.85 111.71,-198.7 103.01,-204.75 108.68,-208.85"/>
</g>
<!-- Node3 -->
<g id="node3" class="node">
<title>Node3</title>
<g id="a_node3"><a xlink:href="definitions_8h.html" target="_top" xlink:title=" ">
<polygon fill="white" stroke="black" points="17.5,-0.5 17.5,-19.5 92.5,-19.5 92.5,-0.5 17.5,-0.5"/>
<text text-anchor="middle" x="55" y="-7.5" font-family="Helvetica,sans-Serif" font-size="10.00">./definitions.h</text>
</a>
</g>
</g>
<!-- Node2&#45;&gt;Node3 -->
<g id="edge2" class="edge">
<title>Node2&#45;&gt;Node3</title>
<path fill="none" stroke="midnightblue" d="M55,-56.08C55,-49.01 55,-38.86 55,-29.99"/>
<polygon fill="midnightblue" stroke="midnightblue" points="58.5,-29.75 55,-19.75 51.5,-29.75 58.5,-29.75"/>
</g>
<!-- Node4&#45;&gt;Node2 -->
<g id="edge6" class="edge">
<title>Node4&#45;&gt;Node2</title>
<path fill="none" stroke="midnightblue" d="M106.52,-179.26C96.46,-170.99 82.21,-157.69 74,-143 63.96,-125.04 59.15,-101.77 56.9,-85.73"/>
<polygon fill="midnightblue" stroke="midnightblue" points="60.34,-85.02 55.67,-75.51 53.39,-85.86 60.34,-85.02"/>
</g>
<!-- Node5 -->
<g id="node5" class="node">
<title>Node5</title>
<g id="a_node5"><a xlink:title=" ">
<polygon fill="white" stroke="#bfbfbf" points="83.5,-118 83.5,-137 152.5,-137 152.5,-118 83.5,-118"/>
<text text-anchor="middle" x="118" y="-125" font-family="Helvetica,sans-Serif" font-size="10.00">cublas_v2.h</text>
</a>
</g>
</g>
<!-- Node4&#45;&gt;Node5 -->
<g id="edge4" class="edge">
<title>Node4&#45;&gt;Node5</title>
<path fill="none" stroke="midnightblue" d="M118,-179.48C118,-171.08 118,-157.98 118,-147.16"/>
<polygon fill="midnightblue" stroke="midnightblue" points="121.5,-147.01 118,-137.01 114.5,-147.01 121.5,-147.01"/>
</g>
<!-- Node6 -->
<g id="node6" class="node">
<title>Node6</title>
<g id="a_node6"><a xlink:title=" ">
<polygon fill="white" stroke="#bfbfbf" points="170.5,-118 170.5,-137 235.5,-137 235.5,-118 170.5,-118"/>
<text text-anchor="middle" x="203" y="-125" font-family="Helvetica,sans-Serif" font-size="10.00">cusparse.h</text>
</a>
</g>
</g>
<!-- Node4&#45;&gt;Node6 -->
<g id="edge5" class="edge">
<title>Node4&#45;&gt;Node6</title>
<path fill="none" stroke="midnightblue" d="M130.18,-179.48C143.81,-169.93 166.13,-154.31 182.47,-142.87"/>
<polygon fill="midnightblue" stroke="midnightblue" points="184.66,-145.61 190.84,-137.01 180.64,-139.88 184.66,-145.61"/>
</g>
<!-- Node7 -->
<g id="node7" class="node">
<title>Node7</title>
<g id="a_node7"><a xlink:href="c__linear__operator_8h.html" target="_top" xlink:title=" ">
<polygon fill="white" stroke="black" points="253.5,-112.5 253.5,-142.5 358.5,-142.5 358.5,-112.5 253.5,-112.5"/>
<text text-anchor="start" x="261.5" y="-130.5" font-family="Helvetica,sans-Serif" font-size="10.00">../_c_linear_operator</text>
<text text-anchor="middle" x="306" y="-119.5" font-family="Helvetica,sans-Serif" font-size="10.00">/c_linear_operator.h</text>
</a>
</g>
</g>
<!-- Node4&#45;&gt;Node7 -->
<g id="edge7" class="edge">
<title>Node4&#45;&gt;Node7</title>
<path fill="none" stroke="midnightblue" d="M144.94,-179.48C172.78,-170.66 217,-156.67 252.07,-145.57"/>
<polygon fill="midnightblue" stroke="midnightblue" points="253.21,-148.88 261.69,-142.52 251.1,-142.2 253.21,-148.88"/>
</g>
<!-- Node7&#45;&gt;Node2 -->
<g id="edge8" class="edge">
<title>Node7&#45;&gt;Node2</title>
<path fill="none" stroke="midnightblue" d="M253.43,-114C250.58,-113.32 247.75,-112.65 245,-112 195.8,-100.33 139.43,-86.98 100.94,-77.87"/>
<polygon fill="midnightblue" stroke="midnightblue" points="101.61,-74.43 91.07,-75.53 100,-81.24 101.61,-74.43"/>
</g>
</g>
</svg>
