<?xml version="1.0" encoding="UTF-8" standalone="no"?>
<!DOCTYPE svg PUBLIC "-//W3C//DTD SVG 1.1//EN"
 "http://www.w3.org/Graphics/SVG/1.1/DTD/svg11.dtd">
<!-- Generated by graphviz version 2.43.0 (0)
 -->
<!-- Title: /home/sia/work/ADCP/Noise&#45;Estimation/code/imate/imate/_cu_linear_operator/cu_dense_affine_matrix_function.h Pages: 1 -->
<svg width="474pt" height="430pt"
 viewBox="0.00 0.00 474.16 430.00" xmlns="http://www.w3.org/2000/svg" xmlns:xlink="http://www.w3.org/1999/xlink">
<g id="graph0" class="graph" transform="scale(1 1) rotate(0) translate(4 426)">
<title>/home/sia/work/ADCP/Noise&#45;Estimation/code/imate/imate/_cu_linear_operator/cu_dense_affine_matrix_function.h</title>
<polygon fill="white" stroke="transparent" points="-4,4 -4,-426 470.16,-426 470.16,4 -4,4"/>
<!-- Node1 -->
<g id="node1" class="node">
<title>Node1</title>
<g id="a_node1"><a xlink:title=" ">
<polygon fill="#bfbfbf" stroke="black" points="324.66,-358.5 324.66,-421.5 455.66,-421.5 455.66,-358.5 324.66,-358.5"/>
<text text-anchor="start" x="332.66" y="-409.5" font-family="Helvetica,sans-Serif" font-size="10.00">/home/sia/work/ADCP</text>
<text text-anchor="start" x="332.66" y="-398.5" font-family="Helvetica,sans-Serif" font-size="10.00">/Noise&#45;Estimation/code</text>
<text text-anchor="start" x="332.66" y="-387.5" font-family="Helvetica,sans-Serif" font-size="10.00">/imate/imate/_cu_linear</text>
<text text-anchor="start" x="332.66" y="-376.5" font-family="Helvetica,sans-Serif" font-size="10.00">_operator/cu_dense_affine</text>
<text text-anchor="middle" x="390.16" y="-365.5" font-family="Helvetica,sans-Serif" font-size="10.00">_matrix_function.h</text>
</a>
</g>
</g>
<!-- Node2 -->
<g id="node2" class="node">
<title>Node2</title>
<g id="a_node2"><a xlink:href="types_8h.html" target="_top" xlink:title=" ">
<polygon fill="white" stroke="black" points="256.16,-56.5 256.16,-75.5 366.16,-75.5 366.16,-56.5 256.16,-56.5"/>
<text text-anchor="middle" x="311.16" y="-63.5" font-family="Helvetica,sans-Serif" font-size="10.00">../_definitions/types.h</text>
</a>
</g>
</g>
<!-- Node1&#45;&gt;Node2 -->
<g id="edge1" class="edge">
<title>Node1&#45;&gt;Node2</title>
<path fill="none" stroke="midnightblue" d="M418.89,-358.32C440.42,-332.05 466.16,-292.14 466.16,-251.5 466.16,-251.5 466.16,-251.5 466.16,-188 466.16,-129.64 397.04,-95.26 351.11,-78.87"/>
<polygon fill="midnightblue" stroke="midnightblue" points="352.01,-75.47 341.42,-75.54 349.74,-82.1 352.01,-75.47"/>
</g>
<!-- Node4 -->
<g id="node4" class="node">
<title>Node4</title>
<g id="a_node4"><a xlink:href="cu__affine__matrix__function_8h.html" target="_top" xlink:title=" ">
<polygon fill="white" stroke="black" points="342.66,-235.5 342.66,-265.5 437.66,-265.5 437.66,-235.5 342.66,-235.5"/>
<text text-anchor="start" x="350.66" y="-253.5" font-family="Helvetica,sans-Serif" font-size="10.00">./cu_affine_matrix</text>
<text text-anchor="middle" x="390.16" y="-242.5" font-family="Helvetica,sans-Serif" font-size="10.00">_function.h</text>
</a>
</g>
</g>
<!-- Node1&#45;&gt;Node4 -->
<g id="edge3" class="edge">
<title>Node1&#45;&gt;Node4</title>
<path fill="none" stroke="midnightblue" d="M390.16,-358.48C390.16,-333.6 390.16,-298.91 390.16,-275.86"/>
<polygon fill="midnightblue" stroke="midnightblue" points="393.66,-275.57 390.16,-265.57 386.66,-275.57 393.66,-275.57"/>
</g>
<!-- Node9 -->
<g id="node9" class="node">
<title>Node9</title>
<g id="a_node9"><a xlink:href="cu__dense__matrix_8h.html" target="_top" xlink:title=" ">
<polygon fill="white" stroke="black" points="165.66,-302.5 165.66,-321.5 270.66,-321.5 270.66,-302.5 165.66,-302.5"/>
<text text-anchor="middle" x="218.16" y="-309.5" font-family="Helvetica,sans-Serif" font-size="10.00">./cu_dense_matrix.h</text>
</a>
</g>
</g>
<!-- Node1&#45;&gt;Node9 -->
<g id="edge11" class="edge">
<title>Node1&#45;&gt;Node9</title>
<path fill="none" stroke="midnightblue" d="M324.65,-360.05C297.76,-348.17 268.05,-335.04 246.85,-325.68"/>
<polygon fill="midnightblue" stroke="midnightblue" points="248.03,-322.37 237.47,-321.53 245.2,-328.77 248.03,-322.37"/>
</g>
<!-- Node3 -->
<g id="node3" class="node">
<title>Node3</title>
<g id="a_node3"><a xlink:href="definitions_8h.html" target="_top" xlink:title=" ">
<polygon fill="white" stroke="black" points="273.66,-0.5 273.66,-19.5 348.66,-19.5 348.66,-0.5 273.66,-0.5"/>
<text text-anchor="middle" x="311.16" y="-7.5" font-family="Helvetica,sans-Serif" font-size="10.00">./definitions.h</text>
</a>
</g>
</g>
<!-- Node2&#45;&gt;Node3 -->
<g id="edge2" class="edge">
<title>Node2&#45;&gt;Node3</title>
<path fill="none" stroke="midnightblue" d="M311.16,-56.08C311.16,-49.01 311.16,-38.86 311.16,-29.99"/>
<polygon fill="midnightblue" stroke="midnightblue" points="314.66,-29.75 311.16,-19.75 307.66,-29.75 314.66,-29.75"/>
</g>
<!-- Node4&#45;&gt;Node2 -->
<g id="edge4" class="edge">
<title>Node4&#45;&gt;Node2</title>
<path fill="none" stroke="midnightblue" d="M390.33,-235.18C390.03,-208.95 386.48,-152.19 363.16,-112 356.14,-99.9 344.65,-89.45 334.26,-81.67"/>
<polygon fill="midnightblue" stroke="midnightblue" points="336.09,-78.68 325.9,-75.79 332.07,-84.41 336.09,-78.68"/>
</g>
<!-- Node5 -->
<g id="node5" class="node">
<title>Node5</title>
<g id="a_node5"><a xlink:href="cu__linear__operator_8h.html" target="_top" xlink:title=" ">
<polygon fill="white" stroke="black" points="109.16,-179.5 109.16,-198.5 219.16,-198.5 219.16,-179.5 109.16,-179.5"/>
<text text-anchor="middle" x="164.16" y="-186.5" font-family="Helvetica,sans-Serif" font-size="10.00">./cu_linear_operator.h</text>
</a>
</g>
</g>
<!-- Node4&#45;&gt;Node5 -->
<g id="edge5" class="edge">
<title>Node4&#45;&gt;Node5</title>
<path fill="none" stroke="midnightblue" d="M342.51,-236.95C302.21,-226.34 245.01,-211.29 206.35,-201.11"/>
<polygon fill="midnightblue" stroke="midnightblue" points="207.01,-197.66 196.45,-198.5 205.23,-204.43 207.01,-197.66"/>
</g>
<!-- Node5&#45;&gt;Node2 -->
<g id="edge8" class="edge">
<title>Node5&#45;&gt;Node2</title>
<path fill="none" stroke="midnightblue" d="M108.96,-182.5C83.3,-176.85 55.01,-165.55 39.16,-143 31.24,-131.73 30.25,-122.51 39.16,-112 65.13,-81.38 173.86,-71.57 245.73,-68.44"/>
<polygon fill="midnightblue" stroke="midnightblue" points="246.21,-71.92 256.06,-68.03 245.93,-64.93 246.21,-71.92"/>
</g>
<!-- Node6 -->
<g id="node6" class="node">
<title>Node6</title>
<g id="a_node6"><a xlink:title=" ">
<polygon fill="white" stroke="#bfbfbf" points="48.66,-118 48.66,-137 117.66,-137 117.66,-118 48.66,-118"/>
<text text-anchor="middle" x="83.16" y="-125" font-family="Helvetica,sans-Serif" font-size="10.00">cublas_v2.h</text>
</a>
</g>
</g>
<!-- Node5&#45;&gt;Node6 -->
<g id="edge6" class="edge">
<title>Node5&#45;&gt;Node6</title>
<path fill="none" stroke="midnightblue" d="M152.56,-179.48C139.69,-170.02 118.69,-154.6 103.16,-143.19"/>
<polygon fill="midnightblue" stroke="midnightblue" points="104.88,-140.11 94.75,-137.01 100.73,-145.75 104.88,-140.11"/>
</g>
<!-- Node7 -->
<g id="node7" class="node">
<title>Node7</title>
<g id="a_node7"><a xlink:title=" ">
<polygon fill="white" stroke="#bfbfbf" points="135.66,-118 135.66,-137 200.66,-137 200.66,-118 135.66,-118"/>
<text text-anchor="middle" x="168.16" y="-125" font-family="Helvetica,sans-Serif" font-size="10.00">cusparse.h</text>
</a>
</g>
</g>
<!-- Node5&#45;&gt;Node7 -->
<g id="edge7" class="edge">
<title>Node5&#45;&gt;Node7</title>
<path fill="none" stroke="midnightblue" d="M164.74,-179.48C165.3,-171.08 166.18,-157.98 166.91,-147.16"/>
<polygon fill="midnightblue" stroke="midnightblue" points="170.41,-147.22 167.59,-137.01 163.43,-146.75 170.41,-147.22"/>
</g>
<!-- Node8 -->
<g id="node8" class="node">
<title>Node8</title>
<g id="a_node8"><a xlink:href="c__linear__operator_8h.html" target="_top" xlink:title=" ">
<polygon fill="white" stroke="black" points="218.66,-112.5 218.66,-142.5 323.66,-142.5 323.66,-112.5 218.66,-112.5"/>
<text text-anchor="start" x="226.66" y="-130.5" font-family="Helvetica,sans-Serif" font-size="10.00">../_c_linear_operator</text>
<text text-anchor="middle" x="271.16" y="-119.5" font-family="Helvetica,sans-Serif" font-size="10.00">/c_linear_operator.h</text>
</a>
</g>
</g>
<!-- Node5&#45;&gt;Node8 -->
<g id="edge9" class="edge">
<title>Node5&#45;&gt;Node8</title>
<path fill="none" stroke="midnightblue" d="M179.49,-179.48C194.46,-171.15 217.74,-158.21 237.09,-147.45"/>
<polygon fill="midnightblue" stroke="midnightblue" points="238.91,-150.44 245.94,-142.52 235.5,-144.32 238.91,-150.44"/>
</g>
<!-- Node8&#45;&gt;Node2 -->
<g id="edge10" class="edge">
<title>Node8&#45;&gt;Node2</title>
<path fill="none" stroke="midnightblue" d="M280.64,-112.4C286.33,-103.93 293.62,-93.1 299.64,-84.14"/>
<polygon fill="midnightblue" stroke="midnightblue" points="302.67,-85.91 305.34,-75.66 296.86,-82 302.67,-85.91"/>
</g>
<!-- Node9&#45;&gt;Node2 -->
<g id="edge12" class="edge">
<title>Node9&#45;&gt;Node2</title>
<path fill="none" stroke="midnightblue" d="M196.19,-302.42C130.94,-275.75 -53.03,-191.35 15.16,-112 44.3,-78.09 167.94,-69.44 245.92,-67.4"/>
<polygon fill="midnightblue" stroke="midnightblue" points="246.21,-70.9 256.13,-67.17 246.05,-63.9 246.21,-70.9"/>
</g>
<!-- Node10 -->
<g id="node10" class="node">
<title>Node10</title>
<g id="a_node10"><a xlink:href="c__dense__matrix_8h.html" target="_top" xlink:title=" ">
<polygon fill="white" stroke="black" points="219.66,-235.5 219.66,-265.5 324.66,-265.5 324.66,-235.5 219.66,-235.5"/>
<text text-anchor="start" x="227.66" y="-253.5" font-family="Helvetica,sans-Serif" font-size="10.00">../_c_linear_operator</text>
<text text-anchor="middle" x="272.16" y="-242.5" font-family="Helvetica,sans-Serif" font-size="10.00">/c_dense_matrix.h</text>
</a>
</g>
</g>
<!-- Node9&#45;&gt;Node10 -->
<g id="edge13" class="edge">
<title>Node9&#45;&gt;Node10</title>
<path fill="none" stroke="midnightblue" d="M225.9,-302.48C232.87,-294.79 243.42,-283.17 252.68,-272.96"/>
<polygon fill="midnightblue" stroke="midnightblue" points="255.31,-275.28 259.44,-265.52 250.12,-270.58 255.31,-275.28"/>
</g>
<!-- Node12 -->
<g id="node12" class="node">
<title>Node12</title>
<g id="a_node12"><a xlink:href="cu__matrix_8h.html" target="_top" xlink:title=" ">
<polygon fill="white" stroke="black" points="127.16,-241 127.16,-260 201.16,-260 201.16,-241 127.16,-241"/>
<text text-anchor="middle" x="164.16" y="-248" font-family="Helvetica,sans-Serif" font-size="10.00">./cu_matrix.h</text>
</a>
</g>
</g>
<!-- Node9&#45;&gt;Node12 -->
<g id="edge18" class="edge">
<title>Node9&#45;&gt;Node12</title>
<path fill="none" stroke="midnightblue" d="M210.43,-302.48C202.16,-293.37 188.89,-278.74 178.67,-267.48"/>
<polygon fill="midnightblue" stroke="midnightblue" points="181.2,-265.06 171.88,-260.01 176.01,-269.77 181.2,-265.06"/>
</g>
<!-- Node10&#45;&gt;Node2 -->
<g id="edge14" class="edge">
<title>Node10&#45;&gt;Node2</title>
<path fill="none" stroke="midnightblue" d="M287.36,-235.46C306.39,-216.63 337.76,-181.13 348.16,-143 351.79,-129.71 352.81,-124.97 348.16,-112 344.22,-101 336.31,-90.77 328.8,-82.85"/>
<polygon fill="midnightblue" stroke="midnightblue" points="331.18,-80.28 321.6,-75.76 326.27,-85.27 331.18,-80.28"/>
</g>
<!-- Node11 -->
<g id="node11" class="node">
<title>Node11</title>
<g id="a_node11"><a xlink:href="c__matrix_8h.html" target="_top" xlink:title=" ">
<polygon fill="white" stroke="black" points="238.16,-179.5 238.16,-198.5 306.16,-198.5 306.16,-179.5 238.16,-179.5"/>
<text text-anchor="middle" x="272.16" y="-186.5" font-family="Helvetica,sans-Serif" font-size="10.00">./c_matrix.h</text>
</a>
</g>
</g>
<!-- Node10&#45;&gt;Node11 -->
<g id="edge15" class="edge">
<title>Node10&#45;&gt;Node11</title>
<path fill="none" stroke="midnightblue" d="M272.16,-235.4C272.16,-227.47 272.16,-217.46 272.16,-208.86"/>
<polygon fill="midnightblue" stroke="midnightblue" points="275.66,-208.66 272.16,-198.66 268.66,-208.66 275.66,-208.66"/>
</g>
<!-- Node11&#45;&gt;Node2 -->
<g id="edge16" class="edge">
<title>Node11&#45;&gt;Node2</title>
<path fill="none" stroke="midnightblue" d="M292.07,-179.41C306.39,-172.04 324.62,-159.92 333.16,-143 342.7,-124.11 332.8,-100.44 323.39,-84.58"/>
<polygon fill="midnightblue" stroke="midnightblue" points="326.12,-82.35 317.78,-75.82 320.23,-86.13 326.12,-82.35"/>
</g>
<!-- Node11&#45;&gt;Node8 -->
<g id="edge17" class="edge">
<title>Node11&#45;&gt;Node8</title>
<path fill="none" stroke="midnightblue" d="M272.02,-179.48C271.9,-172.47 271.73,-162.19 271.57,-152.7"/>
<polygon fill="midnightblue" stroke="midnightblue" points="275.07,-152.46 271.4,-142.52 268.07,-152.58 275.07,-152.46"/>
</g>
<!-- Node12&#45;&gt;Node2 -->
<g id="edge19" class="edge">
<title>Node12&#45;&gt;Node2</title>
<path fill="none" stroke="midnightblue" d="M143.53,-240.9C95.8,-219.85 -14.91,-163.67 29.16,-112 56.44,-80.03 171.25,-70.67 245.71,-67.99"/>
<polygon fill="midnightblue" stroke="midnightblue" points="246.05,-71.48 255.93,-67.66 245.82,-64.49 246.05,-71.48"/>
</g>
<!-- Node12&#45;&gt;Node5 -->
<g id="edge20" class="edge">
<title>Node12&#45;&gt;Node5</title>
<path fill="none" stroke="midnightblue" d="M164.16,-240.98C164.16,-232.58 164.16,-219.48 164.16,-208.66"/>
<polygon fill="midnightblue" stroke="midnightblue" points="167.66,-208.51 164.16,-198.51 160.66,-208.51 167.66,-208.51"/>
</g>
</g>
</svg>
