<?xml version="1.0" encoding="UTF-8" standalone="no"?>
<!DOCTYPE svg PUBLIC "-//W3C//DTD SVG 1.1//EN"
 "http://www.w3.org/Graphics/SVG/1.1/DTD/svg11.dtd">
<!-- Generated by graphviz version 2.43.0 (0)
 -->
<!-- Title: /home/sia/work/ADCP/Noise&#45;Estimation/code/imate/imate/_cu_trace_estimator/cu_orthogonalization.h Pages: 1 -->
<svg width="206pt" height="173pt"
 viewBox="0.00 0.00 205.50 173.00" xmlns="http://www.w3.org/2000/svg" xmlns:xlink="http://www.w3.org/1999/xlink">
<g id="graph0" class="graph" transform="scale(1 1) rotate(0) translate(4 169)">
<title>/home/sia/work/ADCP/Noise&#45;Estimation/code/imate/imate/_cu_trace_estimator/cu_orthogonalization.h</title>
<polygon fill="white" stroke="transparent" points="-4,4 -4,-169 201.5,-169 201.5,4 -4,4"/>
<!-- Node1 -->
<g id="node1" class="node">
<title>Node1</title>
<g id="a_node1"><a xlink:title=" ">
<polygon fill="#bfbfbf" stroke="black" points="7,-112.5 7,-164.5 170,-164.5 170,-112.5 7,-112.5"/>
<text text-anchor="start" x="15" y="-152.5" font-family="Helvetica,sans-Serif" font-size="10.00">/home/sia/work/ADCP</text>
<text text-anchor="start" x="15" y="-141.5" font-family="Helvetica,sans-Serif" font-size="10.00">/Noise&#45;Estimation/code</text>
<text text-anchor="start" x="15" y="-130.5" font-family="Helvetica,sans-Serif" font-size="10.00">/imate/imate/_cu_trace</text>
<text text-anchor="middle" x="88.5" y="-119.5" font-family="Helvetica,sans-Serif" font-size="10.00">_estimator/cu_orthogonalization.h</text>
</a>
</g>
</g>
<!-- Node2 -->
<g id="node2" class="node">
<title>Node2</title>
<g id="a_node2"><a xlink:title=" ">
<polygon fill="white" stroke="#bfbfbf" points="0,-56.5 0,-75.5 69,-75.5 69,-56.5 0,-56.5"/>
<text text-anchor="middle" x="34.5" y="-63.5" font-family="Helvetica,sans-Serif" font-size="10.00">cublas_v2.h</text>
</a>
</g>
</g>
<!-- Node1&#45;&gt;Node2 -->
<g id="edge1" class="edge">
<title>Node1&#45;&gt;Node2</title>
<path fill="none" stroke="midnightblue" d="M69.31,-112.45C62.02,-102.93 53.9,-92.33 47.34,-83.76"/>
<polygon fill="midnightblue" stroke="midnightblue" points="50.02,-81.51 41.16,-75.7 44.46,-85.76 50.02,-81.51"/>
</g>
<!-- Node3 -->
<g id="node3" class="node">
<title>Node3</title>
<g id="a_node3"><a xlink:href="types_8h.html" target="_top" xlink:title=" ">
<polygon fill="white" stroke="black" points="87.5,-56.5 87.5,-75.5 197.5,-75.5 197.5,-56.5 87.5,-56.5"/>
<text text-anchor="middle" x="142.5" y="-63.5" font-family="Helvetica,sans-Serif" font-size="10.00">../_definitions/types.h</text>
</a>
</g>
</g>
<!-- Node1&#45;&gt;Node3 -->
<g id="edge2" class="edge">
<title>Node1&#45;&gt;Node3</title>
<path fill="none" stroke="midnightblue" d="M107.69,-112.45C114.98,-102.93 123.1,-92.33 129.66,-83.76"/>
<polygon fill="midnightblue" stroke="midnightblue" points="132.54,-85.76 135.84,-75.7 126.98,-81.51 132.54,-85.76"/>
</g>
<!-- Node4 -->
<g id="node4" class="node">
<title>Node4</title>
<g id="a_node4"><a xlink:href="definitions_8h.html" target="_top" xlink:title=" ">
<polygon fill="white" stroke="black" points="105,-0.5 105,-19.5 180,-19.5 180,-0.5 105,-0.5"/>
<text text-anchor="middle" x="142.5" y="-7.5" font-family="Helvetica,sans-Serif" font-size="10.00">./definitions.h</text>
</a>
</g>
</g>
<!-- Node3&#45;&gt;Node4 -->
<g id="edge3" class="edge">
<title>Node3&#45;&gt;Node4</title>
<path fill="none" stroke="midnightblue" d="M142.5,-56.08C142.5,-49.01 142.5,-38.86 142.5,-29.99"/>
<polygon fill="midnightblue" stroke="midnightblue" points="146,-29.75 142.5,-19.75 139,-29.75 146,-29.75"/>
</g>
</g>
</svg>
