<?xml version="1.0" encoding="UTF-8" standalone="no"?>
<!DOCTYPE svg PUBLIC "-//W3C//DTD SVG 1.1//EN"
 "http://www.w3.org/Graphics/SVG/1.1/DTD/svg11.dtd">
<!-- Generated by graphviz version 2.43.0 (0)
 -->
<!-- Title: /home/sia/work/ADCP/Noise&#45;Estimation/code/imate/imate/_cu_trace_estimator/cu_trace_estimator.h Pages: 1 -->
<svg width="522pt" height="307pt"
 viewBox="0.00 0.00 522.00 307.00" xmlns="http://www.w3.org/2000/svg" xmlns:xlink="http://www.w3.org/1999/xlink">
<g id="graph0" class="graph" transform="scale(1 1) rotate(0) translate(4 303)">
<title>/home/sia/work/ADCP/Noise&#45;Estimation/code/imate/imate/_cu_trace_estimator/cu_trace_estimator.h</title>
<polygon fill="white" stroke="transparent" points="-4,4 -4,-303 518,-303 518,4 -4,4"/>
<!-- Node1 -->
<g id="node1" class="node">
<title>Node1</title>
<g id="a_node1"><a xlink:title=" ">
<polygon fill="#bfbfbf" stroke="black" points="203.5,-246.5 203.5,-298.5 359.5,-298.5 359.5,-246.5 203.5,-246.5"/>
<text text-anchor="start" x="211.5" y="-286.5" font-family="Helvetica,sans-Serif" font-size="10.00">/home/sia/work/ADCP</text>
<text text-anchor="start" x="211.5" y="-275.5" font-family="Helvetica,sans-Serif" font-size="10.00">/Noise&#45;Estimation/code</text>
<text text-anchor="start" x="211.5" y="-264.5" font-family="Helvetica,sans-Serif" font-size="10.00">/imate/imate/_cu_trace</text>
<text text-anchor="middle" x="281.5" y="-253.5" font-family="Helvetica,sans-Serif" font-size="10.00">_estimator/cu_trace_estimator.h</text>
</a>
</g>
</g>
<!-- Node2 -->
<g id="node2" class="node">
<title>Node2</title>
<g id="a_node2"><a xlink:href="functions_8h.html" target="_top" xlink:title=" ">
<polygon fill="white" stroke="black" points="31.5,-185 31.5,-204 147.5,-204 147.5,-185 31.5,-185"/>
<text text-anchor="middle" x="89.5" y="-192" font-family="Helvetica,sans-Serif" font-size="10.00">../functions/functions.h</text>
</a>
</g>
</g>
<!-- Node1&#45;&gt;Node2 -->
<g id="edge1" class="edge">
<title>Node1&#45;&gt;Node2</title>
<path fill="none" stroke="midnightblue" d="M218.1,-246.4C185.36,-233.45 146.89,-218.22 120.61,-207.81"/>
<polygon fill="midnightblue" stroke="midnightblue" points="121.76,-204.5 111.17,-204.08 119.18,-211.01 121.76,-204.5"/>
</g>
<!-- Node3 -->
<g id="node3" class="node">
<title>Node3</title>
<g id="a_node3"><a xlink:href="cu__linear__operator_8h.html" target="_top" xlink:title=" ">
<polygon fill="white" stroke="black" points="165.5,-179.5 165.5,-209.5 275.5,-209.5 275.5,-179.5 165.5,-179.5"/>
<text text-anchor="start" x="173.5" y="-197.5" font-family="Helvetica,sans-Serif" font-size="10.00">../_cu_linear_operator</text>
<text text-anchor="middle" x="220.5" y="-186.5" font-family="Helvetica,sans-Serif" font-size="10.00">/cu_linear_operator.h</text>
</a>
</g>
</g>
<!-- Node1&#45;&gt;Node3 -->
<g id="edge2" class="edge">
<title>Node1&#45;&gt;Node3</title>
<path fill="none" stroke="midnightblue" d="M261.19,-246.19C253.83,-237.03 245.59,-226.76 238.45,-217.86"/>
<polygon fill="midnightblue" stroke="midnightblue" points="241,-215.45 232.01,-209.85 235.54,-219.83 241,-215.45"/>
</g>
<!-- Node6 -->
<g id="node6" class="node">
<title>Node6</title>
<g id="a_node6"><a xlink:href="types_8h.html" target="_top" xlink:title=" ">
<polygon fill="white" stroke="black" points="206.5,-56.5 206.5,-75.5 316.5,-75.5 316.5,-56.5 206.5,-56.5"/>
<text text-anchor="middle" x="261.5" y="-63.5" font-family="Helvetica,sans-Serif" font-size="10.00">../_definitions/types.h</text>
</a>
</g>
</g>
<!-- Node1&#45;&gt;Node6 -->
<g id="edge9" class="edge">
<title>Node1&#45;&gt;Node6</title>
<path fill="none" stroke="midnightblue" d="M298.81,-246.27C318.75,-213.79 346.07,-156.26 323.5,-112 316.5,-98.27 303.13,-87.75 290.6,-80.35"/>
<polygon fill="midnightblue" stroke="midnightblue" points="292.18,-77.22 281.72,-75.51 288.83,-83.37 292.18,-77.22"/>
</g>
<!-- Node9 -->
<g id="node9" class="node">
<title>Node9</title>
<g id="a_node9"><a xlink:href="random__number__generator_8h.html" target="_top" xlink:title=" ">
<polygon fill="white" stroke="black" points="371,-179.5 371,-209.5 514,-209.5 514,-179.5 371,-179.5"/>
<text text-anchor="start" x="379" y="-197.5" font-family="Helvetica,sans-Serif" font-size="10.00">../_random_generator</text>
<text text-anchor="middle" x="442.5" y="-186.5" font-family="Helvetica,sans-Serif" font-size="10.00">/random_number_generator.h</text>
</a>
</g>
</g>
<!-- Node1&#45;&gt;Node9 -->
<g id="edge10" class="edge">
<title>Node1&#45;&gt;Node9</title>
<path fill="none" stroke="midnightblue" d="M334.66,-246.4C357.06,-235.83 382.67,-223.74 403.3,-214"/>
<polygon fill="midnightblue" stroke="midnightblue" points="404.86,-217.14 412.4,-209.71 401.87,-210.81 404.86,-217.14"/>
</g>
<!-- Node4 -->
<g id="node4" class="node">
<title>Node4</title>
<g id="a_node4"><a xlink:title=" ">
<polygon fill="white" stroke="#bfbfbf" points="0,-118 0,-137 69,-137 69,-118 0,-118"/>
<text text-anchor="middle" x="34.5" y="-125" font-family="Helvetica,sans-Serif" font-size="10.00">cublas_v2.h</text>
</a>
</g>
</g>
<!-- Node3&#45;&gt;Node4 -->
<g id="edge3" class="edge">
<title>Node3&#45;&gt;Node4</title>
<path fill="none" stroke="midnightblue" d="M180.14,-179.4C146.78,-167.74 99.95,-151.37 68.48,-140.38"/>
<polygon fill="midnightblue" stroke="midnightblue" points="69.44,-137 58.84,-137.01 67.13,-143.61 69.44,-137"/>
</g>
<!-- Node5 -->
<g id="node5" class="node">
<title>Node5</title>
<g id="a_node5"><a xlink:title=" ">
<polygon fill="white" stroke="#bfbfbf" points="87,-118 87,-137 152,-137 152,-118 87,-118"/>
<text text-anchor="middle" x="119.5" y="-125" font-family="Helvetica,sans-Serif" font-size="10.00">cusparse.h</text>
</a>
</g>
</g>
<!-- Node3&#45;&gt;Node5 -->
<g id="edge4" class="edge">
<title>Node3&#45;&gt;Node5</title>
<path fill="none" stroke="midnightblue" d="M198.58,-179.4C181.65,-168.5 158.31,-153.48 141.38,-142.58"/>
<polygon fill="midnightblue" stroke="midnightblue" points="143.02,-139.48 132.72,-137.01 139.23,-145.36 143.02,-139.48"/>
</g>
<!-- Node3&#45;&gt;Node6 -->
<g id="edge5" class="edge">
<title>Node3&#45;&gt;Node6</title>
<path fill="none" stroke="midnightblue" d="M210.99,-179.28C201.03,-162.47 188.28,-134 199.5,-112 206.5,-98.27 219.87,-87.75 232.4,-80.35"/>
<polygon fill="midnightblue" stroke="midnightblue" points="234.17,-83.37 241.28,-75.51 230.82,-77.22 234.17,-83.37"/>
</g>
<!-- Node8 -->
<g id="node8" class="node">
<title>Node8</title>
<g id="a_node8"><a xlink:href="c__linear__operator_8h.html" target="_top" xlink:title=" ">
<polygon fill="white" stroke="black" points="209,-112.5 209,-142.5 314,-142.5 314,-112.5 209,-112.5"/>
<text text-anchor="start" x="217" y="-130.5" font-family="Helvetica,sans-Serif" font-size="10.00">../_c_linear_operator</text>
<text text-anchor="middle" x="261.5" y="-119.5" font-family="Helvetica,sans-Serif" font-size="10.00">/c_linear_operator.h</text>
</a>
</g>
</g>
<!-- Node3&#45;&gt;Node8 -->
<g id="edge7" class="edge">
<title>Node3&#45;&gt;Node8</title>
<path fill="none" stroke="midnightblue" d="M229.4,-179.4C234.61,-171.13 241.31,-160.51 247.24,-151.1"/>
<polygon fill="midnightblue" stroke="midnightblue" points="250.25,-152.9 252.62,-142.58 244.33,-149.17 250.25,-152.9"/>
</g>
<!-- Node7 -->
<g id="node7" class="node">
<title>Node7</title>
<g id="a_node7"><a xlink:href="definitions_8h.html" target="_top" xlink:title=" ">
<polygon fill="white" stroke="black" points="224,-0.5 224,-19.5 299,-19.5 299,-0.5 224,-0.5"/>
<text text-anchor="middle" x="261.5" y="-7.5" font-family="Helvetica,sans-Serif" font-size="10.00">./definitions.h</text>
</a>
</g>
</g>
<!-- Node6&#45;&gt;Node7 -->
<g id="edge6" class="edge">
<title>Node6&#45;&gt;Node7</title>
<path fill="none" stroke="midnightblue" d="M261.5,-56.08C261.5,-49.01 261.5,-38.86 261.5,-29.99"/>
<polygon fill="midnightblue" stroke="midnightblue" points="265,-29.75 261.5,-19.75 258,-29.75 265,-29.75"/>
</g>
<!-- Node8&#45;&gt;Node6 -->
<g id="edge8" class="edge">
<title>Node8&#45;&gt;Node6</title>
<path fill="none" stroke="midnightblue" d="M261.5,-112.4C261.5,-104.47 261.5,-94.46 261.5,-85.86"/>
<polygon fill="midnightblue" stroke="midnightblue" points="265,-85.66 261.5,-75.66 258,-85.66 265,-85.66"/>
</g>
<!-- Node10 -->
<g id="node10" class="node">
<title>Node10</title>
<g id="a_node10"><a xlink:title=" ">
<polygon fill="white" stroke="#bfbfbf" points="418,-118 418,-137 467,-137 467,-118 418,-118"/>
<text text-anchor="middle" x="442.5" y="-125" font-family="Helvetica,sans-Serif" font-size="10.00">stdint.h</text>
</a>
</g>
</g>
<!-- Node9&#45;&gt;Node10 -->
<g id="edge11" class="edge">
<title>Node9&#45;&gt;Node10</title>
<path fill="none" stroke="midnightblue" d="M442.5,-179.4C442.5,-170.06 442.5,-157.71 442.5,-147.52"/>
<polygon fill="midnightblue" stroke="midnightblue" points="446,-147.19 442.5,-137.19 439,-147.19 446,-147.19"/>
</g>
</g>
</svg>
