<?xml version="1.0" encoding="UTF-8" standalone="no"?>
<!DOCTYPE svg PUBLIC "-//W3C//DTD SVG 1.1//EN"
 "http://www.w3.org/Graphics/SVG/1.1/DTD/svg11.dtd">
<!-- Generated by graphviz version 2.43.0 (0)
 -->
<!-- Title: /home/sia/work/ADCP/Noise&#45;Estimation/code/imate/imate/_cu_linear_operator/cu_csr_matrix.h Pages: 1 -->
<svg width="389pt" height="352pt"
 viewBox="0.00 0.00 388.64 352.00" xmlns="http://www.w3.org/2000/svg" xmlns:xlink="http://www.w3.org/1999/xlink">
<g id="graph0" class="graph" transform="scale(1 1) rotate(0) translate(4 348)">
<title>/home/sia/work/ADCP/Noise&#45;Estimation/code/imate/imate/_cu_linear_operator/cu_csr_matrix.h</title>
<polygon fill="white" stroke="transparent" points="-4,4 -4,-348 384.64,-348 384.64,4 -4,4"/>
<!-- Node1 -->
<g id="node1" class="node">
<title>Node1</title>
<g id="a_node1"><a xlink:title=" ">
<polygon fill="#bfbfbf" stroke="black" points="250.57,-291.5 250.57,-343.5 380.57,-343.5 380.57,-291.5 250.57,-291.5"/>
<text text-anchor="start" x="258.57" y="-331.5" font-family="Helvetica,sans-Serif" font-size="10.00">/home/sia/work/ADCP</text>
<text text-anchor="start" x="258.57" y="-320.5" font-family="Helvetica,sans-Serif" font-size="10.00">/Noise&#45;Estimation/code</text>
<text text-anchor="start" x="258.57" y="-309.5" font-family="Helvetica,sans-Serif" font-size="10.00">/imate/imate/_cu_linear</text>
<text text-anchor="middle" x="315.57" y="-298.5" font-family="Helvetica,sans-Serif" font-size="10.00">_operator/cu_csr_matrix.h</text>
</a>
</g>
</g>
<!-- Node2 -->
<g id="node2" class="node">
<title>Node2</title>
<g id="a_node2"><a xlink:href="types_8h.html" target="_top" xlink:title=" ">
<polygon fill="white" stroke="black" points="235.57,-56.5 235.57,-75.5 345.57,-75.5 345.57,-56.5 235.57,-56.5"/>
<text text-anchor="middle" x="290.57" y="-63.5" font-family="Helvetica,sans-Serif" font-size="10.00">../_definitions/types.h</text>
</a>
</g>
</g>
<!-- Node1&#45;&gt;Node2 -->
<g id="edge1" class="edge">
<title>Node1&#45;&gt;Node2</title>
<path fill="none" stroke="midnightblue" d="M350.09,-291.41C361.01,-281.44 371.74,-269 377.57,-255 382.87,-242.28 379.26,-237.67 377.57,-224 371.23,-172.5 373.94,-154.78 344.57,-112 336.29,-99.93 323.92,-89.3 313.1,-81.4"/>
<polygon fill="midnightblue" stroke="midnightblue" points="315.08,-78.51 304.87,-75.67 311.08,-84.26 315.08,-78.51"/>
</g>
<!-- Node4 -->
<g id="node4" class="node">
<title>Node4</title>
<g id="a_node4"><a xlink:href="c__csr__matrix_8h.html" target="_top" xlink:title=" ">
<polygon fill="white" stroke="black" points="263.07,-224.5 263.07,-254.5 368.07,-254.5 368.07,-224.5 263.07,-224.5"/>
<text text-anchor="start" x="271.07" y="-242.5" font-family="Helvetica,sans-Serif" font-size="10.00">../_c_linear_operator</text>
<text text-anchor="middle" x="315.57" y="-231.5" font-family="Helvetica,sans-Serif" font-size="10.00">/c_csr_matrix.h</text>
</a>
</g>
</g>
<!-- Node1&#45;&gt;Node4 -->
<g id="edge3" class="edge">
<title>Node1&#45;&gt;Node4</title>
<path fill="none" stroke="midnightblue" d="M315.57,-291.19C315.57,-282.79 315.57,-273.44 315.57,-265.09"/>
<polygon fill="midnightblue" stroke="midnightblue" points="319.07,-264.85 315.57,-254.85 312.07,-264.85 319.07,-264.85"/>
</g>
<!-- Node7 -->
<g id="node7" class="node">
<title>Node7</title>
<g id="a_node7"><a xlink:href="cu__matrix_8h.html" target="_top" xlink:title=" ">
<polygon fill="white" stroke="black" points="67.57,-230 67.57,-249 141.57,-249 141.57,-230 67.57,-230"/>
<text text-anchor="middle" x="104.57" y="-237" font-family="Helvetica,sans-Serif" font-size="10.00">./cu_matrix.h</text>
</a>
</g>
</g>
<!-- Node1&#45;&gt;Node7 -->
<g id="edge9" class="edge">
<title>Node1&#45;&gt;Node7</title>
<path fill="none" stroke="midnightblue" d="M250.55,-293.08C213.23,-279.64 167.95,-263.33 137.82,-252.47"/>
<polygon fill="midnightblue" stroke="midnightblue" points="138.81,-249.11 128.21,-249.01 136.43,-255.7 138.81,-249.11"/>
</g>
<!-- Node3 -->
<g id="node3" class="node">
<title>Node3</title>
<g id="a_node3"><a xlink:href="definitions_8h.html" target="_top" xlink:title=" ">
<polygon fill="white" stroke="black" points="253.07,-0.5 253.07,-19.5 328.07,-19.5 328.07,-0.5 253.07,-0.5"/>
<text text-anchor="middle" x="290.57" y="-7.5" font-family="Helvetica,sans-Serif" font-size="10.00">./definitions.h</text>
</a>
</g>
</g>
<!-- Node2&#45;&gt;Node3 -->
<g id="edge2" class="edge">
<title>Node2&#45;&gt;Node3</title>
<path fill="none" stroke="midnightblue" d="M290.57,-56.08C290.57,-49.01 290.57,-38.86 290.57,-29.99"/>
<polygon fill="midnightblue" stroke="midnightblue" points="294.07,-29.75 290.57,-19.75 287.07,-29.75 294.07,-29.75"/>
</g>
<!-- Node4&#45;&gt;Node2 -->
<g id="edge4" class="edge">
<title>Node4&#45;&gt;Node2</title>
<path fill="none" stroke="midnightblue" d="M328.56,-224.25C336.32,-214.75 345.44,-201.55 349.57,-188 352.17,-179.5 351.36,-176.71 349.57,-168 344.13,-141.47 339.33,-135.32 325.57,-112 319.68,-102 311.84,-91.72 305.08,-83.52"/>
<polygon fill="midnightblue" stroke="midnightblue" points="307.68,-81.18 298.54,-75.81 302.34,-85.7 307.68,-81.18"/>
</g>
<!-- Node5 -->
<g id="node5" class="node">
<title>Node5</title>
<g id="a_node5"><a xlink:href="c__matrix_8h.html" target="_top" xlink:title=" ">
<polygon fill="white" stroke="black" points="272.57,-168.5 272.57,-187.5 340.57,-187.5 340.57,-168.5 272.57,-168.5"/>
<text text-anchor="middle" x="306.57" y="-175.5" font-family="Helvetica,sans-Serif" font-size="10.00">./c_matrix.h</text>
</a>
</g>
</g>
<!-- Node4&#45;&gt;Node5 -->
<g id="edge5" class="edge">
<title>Node4&#45;&gt;Node5</title>
<path fill="none" stroke="midnightblue" d="M313.44,-224.4C312.23,-216.38 310.69,-206.23 309.38,-197.57"/>
<polygon fill="midnightblue" stroke="midnightblue" points="312.84,-197.02 307.88,-187.66 305.92,-198.07 312.84,-197.02"/>
</g>
<!-- Node5&#45;&gt;Node2 -->
<g id="edge6" class="edge">
<title>Node5&#45;&gt;Node2</title>
<path fill="none" stroke="midnightblue" d="M308.8,-168.47C311.72,-155.94 315.99,-131.89 311.57,-112 309.45,-102.43 305.07,-92.48 300.85,-84.37"/>
<polygon fill="midnightblue" stroke="midnightblue" points="303.87,-82.6 295.96,-75.56 297.75,-86 303.87,-82.6"/>
</g>
<!-- Node6 -->
<g id="node6" class="node">
<title>Node6</title>
<g id="a_node6"><a xlink:href="c__linear__operator_8h.html" target="_top" xlink:title=" ">
<polygon fill="white" stroke="black" points="198.57,-112.5 198.57,-131.5 302.57,-131.5 302.57,-112.5 198.57,-112.5"/>
<text text-anchor="middle" x="250.57" y="-119.5" font-family="Helvetica,sans-Serif" font-size="10.00">./c_linear_operator.h</text>
</a>
</g>
</g>
<!-- Node5&#45;&gt;Node6 -->
<g id="edge7" class="edge">
<title>Node5&#45;&gt;Node6</title>
<path fill="none" stroke="midnightblue" d="M297.58,-168.32C289.38,-160.42 277.07,-148.55 267.1,-138.94"/>
<polygon fill="midnightblue" stroke="midnightblue" points="269.36,-136.26 259.74,-131.83 264.5,-141.29 269.36,-136.26"/>
</g>
<!-- Node6&#45;&gt;Node2 -->
<g id="edge8" class="edge">
<title>Node6&#45;&gt;Node2</title>
<path fill="none" stroke="midnightblue" d="M257.18,-112.08C262.83,-104.46 271.12,-93.26 278.03,-83.94"/>
<polygon fill="midnightblue" stroke="midnightblue" points="280.95,-85.87 284.09,-75.75 275.33,-81.7 280.95,-85.87"/>
</g>
<!-- Node7&#45;&gt;Node2 -->
<g id="edge10" class="edge">
<title>Node7&#45;&gt;Node2</title>
<path fill="none" stroke="midnightblue" d="M89.39,-229.93C54.33,-209.11 -26.6,-154.43 9.57,-112 36.74,-80.13 151.16,-70.74 225.35,-68.03"/>
<polygon fill="midnightblue" stroke="midnightblue" points="225.66,-71.52 235.54,-67.69 225.43,-64.52 225.66,-71.52"/>
</g>
<!-- Node8 -->
<g id="node8" class="node">
<title>Node8</title>
<g id="a_node8"><a xlink:href="cu__linear__operator_8h.html" target="_top" xlink:title=" ">
<polygon fill="white" stroke="black" points="49.57,-168.5 49.57,-187.5 159.57,-187.5 159.57,-168.5 49.57,-168.5"/>
<text text-anchor="middle" x="104.57" y="-175.5" font-family="Helvetica,sans-Serif" font-size="10.00">./cu_linear_operator.h</text>
</a>
</g>
</g>
<!-- Node7&#45;&gt;Node8 -->
<g id="edge11" class="edge">
<title>Node7&#45;&gt;Node8</title>
<path fill="none" stroke="midnightblue" d="M104.57,-229.98C104.57,-221.58 104.57,-208.48 104.57,-197.66"/>
<polygon fill="midnightblue" stroke="midnightblue" points="108.07,-197.51 104.57,-187.51 101.07,-197.51 108.07,-197.51"/>
</g>
<!-- Node8&#45;&gt;Node2 -->
<g id="edge14" class="edge">
<title>Node8&#45;&gt;Node2</title>
<path fill="none" stroke="midnightblue" d="M75.86,-168.43C43.47,-157.33 -2.19,-136.48 18.57,-112 44.54,-81.38 153.27,-71.57 225.15,-68.44"/>
<polygon fill="midnightblue" stroke="midnightblue" points="225.62,-71.92 235.47,-68.03 225.34,-64.93 225.62,-71.92"/>
</g>
<!-- Node8&#45;&gt;Node6 -->
<g id="edge15" class="edge">
<title>Node8&#45;&gt;Node6</title>
<path fill="none" stroke="midnightblue" d="M127.71,-168.44C152.06,-159.44 190.58,-145.19 218,-135.05"/>
<polygon fill="midnightblue" stroke="midnightblue" points="219.38,-138.27 227.55,-131.52 216.96,-131.7 219.38,-138.27"/>
</g>
<!-- Node9 -->
<g id="node9" class="node">
<title>Node9</title>
<g id="a_node9"><a xlink:title=" ">
<polygon fill="white" stroke="#bfbfbf" points="28.07,-112.5 28.07,-131.5 97.07,-131.5 97.07,-112.5 28.07,-112.5"/>
<text text-anchor="middle" x="62.57" y="-119.5" font-family="Helvetica,sans-Serif" font-size="10.00">cublas_v2.h</text>
</a>
</g>
</g>
<!-- Node8&#45;&gt;Node9 -->
<g id="edge12" class="edge">
<title>Node8&#45;&gt;Node9</title>
<path fill="none" stroke="midnightblue" d="M97.64,-168.08C91.65,-160.38 82.82,-149.03 75.53,-139.65"/>
<polygon fill="midnightblue" stroke="midnightblue" points="78.28,-137.5 69.38,-131.75 72.76,-141.79 78.28,-137.5"/>
</g>
<!-- Node10 -->
<g id="node10" class="node">
<title>Node10</title>
<g id="a_node10"><a xlink:title=" ">
<polygon fill="white" stroke="#bfbfbf" points="115.07,-112.5 115.07,-131.5 180.07,-131.5 180.07,-112.5 115.07,-112.5"/>
<text text-anchor="middle" x="147.57" y="-119.5" font-family="Helvetica,sans-Serif" font-size="10.00">cusparse.h</text>
</a>
</g>
</g>
<!-- Node8&#45;&gt;Node10 -->
<g id="edge13" class="edge">
<title>Node8&#45;&gt;Node10</title>
<path fill="none" stroke="midnightblue" d="M111.68,-168.08C117.81,-160.38 126.84,-149.03 134.31,-139.65"/>
<polygon fill="midnightblue" stroke="midnightblue" points="137.11,-141.75 140.61,-131.75 131.64,-137.39 137.11,-141.75"/>
</g>
</g>
</svg>
