<?xml version="1.0" encoding="UTF-8" standalone="no"?>
<!DOCTYPE svg PUBLIC "-//W3C//DTD SVG 1.1//EN"
 "http://www.w3.org/Graphics/SVG/1.1/DTD/svg11.dtd">
<!-- Generated by graphviz version 2.43.0 (0)
 -->
<!-- Title: /home/sia/work/ADCP/Noise&#45;Estimation/code/imate/imate/_cu_linear_operator/cu_linear_operator.h Pages: 1 -->
<svg width="959pt" height="361pt"
 viewBox="0.00 0.00 959.00 361.00" xmlns="http://www.w3.org/2000/svg" xmlns:xlink="http://www.w3.org/1999/xlink">
<g id="graph0" class="graph" transform="scale(1 1) rotate(0) translate(4 357)">
<title>/home/sia/work/ADCP/Noise&#45;Estimation/code/imate/imate/_cu_linear_operator/cu_linear_operator.h</title>
<polygon fill="white" stroke="transparent" points="-4,4 -4,-357 955,-357 955,4 -4,4"/>
<!-- Node1 -->
<g id="node1" class="node">
<title>Node1</title>
<g id="a_node1"><a xlink:title=" ">
<polygon fill="#bfbfbf" stroke="black" points="418.5,-300.5 418.5,-352.5 565.5,-352.5 565.5,-300.5 418.5,-300.5"/>
<text text-anchor="start" x="426.5" y="-340.5" font-family="Helvetica,sans-Serif" font-size="10.00">/home/sia/work/ADCP</text>
<text text-anchor="start" x="426.5" y="-329.5" font-family="Helvetica,sans-Serif" font-size="10.00">/Noise&#45;Estimation/code</text>
<text text-anchor="start" x="426.5" y="-318.5" font-family="Helvetica,sans-Serif" font-size="10.00">/imate/imate/_cu_linear</text>
<text text-anchor="middle" x="492" y="-307.5" font-family="Helvetica,sans-Serif" font-size="10.00">_operator/cu_linear_operator.h</text>
</a>
</g>
</g>
<!-- Node2 -->
<g id="node2" class="node">
<title>Node2</title>
<g id="a_node2"><a xlink:href="cu__affine__matrix__function_8h.html" target="_top" xlink:title=" ">
<polygon fill="white" stroke="black" points="150,-100.5 150,-163.5 282,-163.5 282,-100.5 150,-100.5"/>
<text text-anchor="start" x="158" y="-151.5" font-family="Helvetica,sans-Serif" font-size="10.00">/home/sia/work/ADCP</text>
<text text-anchor="start" x="158" y="-140.5" font-family="Helvetica,sans-Serif" font-size="10.00">/Noise&#45;Estimation/code</text>
<text text-anchor="start" x="158" y="-129.5" font-family="Helvetica,sans-Serif" font-size="10.00">/imate/imate/_cu_linear</text>
<text text-anchor="start" x="158" y="-118.5" font-family="Helvetica,sans-Serif" font-size="10.00">_operator/cu_affine_matrix</text>
<text text-anchor="middle" x="216" y="-107.5" font-family="Helvetica,sans-Serif" font-size="10.00">_function.h</text>
</a>
</g>
</g>
<!-- Node1&#45;&gt;Node2 -->
<g id="edge1" class="edge">
<title>Node1&#45;&gt;Node2</title>
<path fill="none" stroke="midnightblue" d="M408.41,-317.41C365.96,-309.58 315.91,-294.2 280,-264 249.1,-238.01 231.86,-193.55 223.26,-163.73"/>
<polygon fill="midnightblue" stroke="midnightblue" points="408.02,-320.89 418.47,-319.15 409.21,-314 408.02,-320.89"/>
</g>
<!-- Node6 -->
<g id="node6" class="node">
<title>Node6</title>
<g id="a_node6"><a xlink:href="cu__matrix_8h.html" target="_top" xlink:title=" ">
<polygon fill="white" stroke="black" points="289.5,-206 289.5,-258 408.5,-258 408.5,-206 289.5,-206"/>
<text text-anchor="start" x="297.5" y="-246" font-family="Helvetica,sans-Serif" font-size="10.00">/home/sia/work/ADCP</text>
<text text-anchor="start" x="297.5" y="-235" font-family="Helvetica,sans-Serif" font-size="10.00">/Noise&#45;Estimation/code</text>
<text text-anchor="start" x="297.5" y="-224" font-family="Helvetica,sans-Serif" font-size="10.00">/imate/imate/_cu_linear</text>
<text text-anchor="middle" x="349" y="-213" font-family="Helvetica,sans-Serif" font-size="10.00">_operator/cu_matrix.h</text>
</a>
</g>
</g>
<!-- Node1&#45;&gt;Node6 -->
<g id="edge5" class="edge">
<title>Node1&#45;&gt;Node6</title>
<path fill="none" stroke="midnightblue" d="M444.73,-294.92C426.24,-282.96 405.3,-269.42 387.73,-258.05"/>
<polygon fill="midnightblue" stroke="midnightblue" points="443,-297.98 453.3,-300.47 446.81,-292.1 443,-297.98"/>
</g>
<!-- Node10 -->
<g id="node10" class="node">
<title>Node10</title>
<g id="a_node10"><a xlink:href="cu__golub__kahn__bidiagonalization_8h.html" target="_top" xlink:title=" ">
<polygon fill="white" stroke="black" points="426.5,-200.5 426.5,-263.5 557.5,-263.5 557.5,-200.5 426.5,-200.5"/>
<text text-anchor="start" x="434.5" y="-251.5" font-family="Helvetica,sans-Serif" font-size="10.00">/home/sia/work/ADCP</text>
<text text-anchor="start" x="434.5" y="-240.5" font-family="Helvetica,sans-Serif" font-size="10.00">/Noise&#45;Estimation/code</text>
<text text-anchor="start" x="434.5" y="-229.5" font-family="Helvetica,sans-Serif" font-size="10.00">/imate/imate/_cu_trace</text>
<text text-anchor="start" x="434.5" y="-218.5" font-family="Helvetica,sans-Serif" font-size="10.00">_estimator/cu_golub_kahn</text>
<text text-anchor="middle" x="492" y="-207.5" font-family="Helvetica,sans-Serif" font-size="10.00">_bidiagonalization.h</text>
</a>
</g>
</g>
<!-- Node1&#45;&gt;Node10 -->
<g id="edge12" class="edge">
<title>Node1&#45;&gt;Node10</title>
<path fill="none" stroke="midnightblue" d="M492,-289.94C492,-281.23 492,-271.97 492,-263.51"/>
<polygon fill="midnightblue" stroke="midnightblue" points="488.5,-290.22 492,-300.22 495.5,-290.22 488.5,-290.22"/>
</g>
<!-- Node11 -->
<g id="node11" class="node">
<title>Node11</title>
<g id="a_node11"><a xlink:href="cu__lanczos__tridiagonalization_8h.html" target="_top" xlink:title=" ">
<polygon fill="white" stroke="black" points="575.5,-206 575.5,-258 776.5,-258 776.5,-206 575.5,-206"/>
<text text-anchor="start" x="583.5" y="-246" font-family="Helvetica,sans-Serif" font-size="10.00">/home/sia/work/ADCP</text>
<text text-anchor="start" x="583.5" y="-235" font-family="Helvetica,sans-Serif" font-size="10.00">/Noise&#45;Estimation/code</text>
<text text-anchor="start" x="583.5" y="-224" font-family="Helvetica,sans-Serif" font-size="10.00">/imate/imate/_cu_trace</text>
<text text-anchor="middle" x="676" y="-213" font-family="Helvetica,sans-Serif" font-size="10.00">_estimator/cu_lanczos_tridiagonalization.h</text>
</a>
</g>
</g>
<!-- Node1&#45;&gt;Node11 -->
<g id="edge13" class="edge">
<title>Node1&#45;&gt;Node11</title>
<path fill="none" stroke="midnightblue" d="M550.9,-295.89C575.15,-283.7 602.95,-269.73 626.17,-258.05"/>
<polygon fill="midnightblue" stroke="midnightblue" points="549.16,-292.85 541.79,-300.47 552.3,-299.1 549.16,-292.85"/>
</g>
<!-- Node12 -->
<g id="node12" class="node">
<title>Node12</title>
<g id="a_node12"><a xlink:href="cu__trace__estimator_8h.html" target="_top" xlink:title=" ">
<polygon fill="white" stroke="black" points="795,-206 795,-258 951,-258 951,-206 795,-206"/>
<text text-anchor="start" x="803" y="-246" font-family="Helvetica,sans-Serif" font-size="10.00">/home/sia/work/ADCP</text>
<text text-anchor="start" x="803" y="-235" font-family="Helvetica,sans-Serif" font-size="10.00">/Noise&#45;Estimation/code</text>
<text text-anchor="start" x="803" y="-224" font-family="Helvetica,sans-Serif" font-size="10.00">/imate/imate/_cu_trace</text>
<text text-anchor="middle" x="873" y="-213" font-family="Helvetica,sans-Serif" font-size="10.00">_estimator/cu_trace_estimator.h</text>
</a>
</g>
</g>
<!-- Node1&#45;&gt;Node12 -->
<g id="edge14" class="edge">
<title>Node1&#45;&gt;Node12</title>
<path fill="none" stroke="midnightblue" d="M575.82,-311.11C635.04,-300.18 716.01,-283.69 786,-264 792.33,-262.22 798.86,-260.21 805.37,-258.1"/>
<polygon fill="midnightblue" stroke="midnightblue" points="574.97,-307.7 565.77,-312.95 576.23,-314.59 574.97,-307.7"/>
</g>
<!-- Node3 -->
<g id="node3" class="node">
<title>Node3</title>
<g id="a_node3"><a xlink:href="cu__csc__affine__matrix__function_8h.html" target="_top" xlink:title=" ">
<polygon fill="white" stroke="black" points="51.5,-0.5 51.5,-63.5 172.5,-63.5 172.5,-0.5 51.5,-0.5"/>
<text text-anchor="start" x="59.5" y="-51.5" font-family="Helvetica,sans-Serif" font-size="10.00">/home/sia/work/ADCP</text>
<text text-anchor="start" x="59.5" y="-40.5" font-family="Helvetica,sans-Serif" font-size="10.00">/Noise&#45;Estimation/code</text>
<text text-anchor="start" x="59.5" y="-29.5" font-family="Helvetica,sans-Serif" font-size="10.00">/imate/imate/_cu_linear</text>
<text text-anchor="start" x="59.5" y="-18.5" font-family="Helvetica,sans-Serif" font-size="10.00">_operator/cu_csc_affine</text>
<text text-anchor="middle" x="112" y="-7.5" font-family="Helvetica,sans-Serif" font-size="10.00">_matrix_function.h</text>
</a>
</g>
</g>
<!-- Node2&#45;&gt;Node3 -->
<g id="edge2" class="edge">
<title>Node2&#45;&gt;Node3</title>
<path fill="none" stroke="midnightblue" d="M175.95,-93.26C165.55,-83.46 154.47,-73.02 144.51,-63.63"/>
<polygon fill="midnightblue" stroke="midnightblue" points="173.7,-95.95 183.38,-100.26 178.5,-90.86 173.7,-95.95"/>
</g>
<!-- Node4 -->
<g id="node4" class="node">
<title>Node4</title>
<g id="a_node4"><a xlink:href="cu__csr__affine__matrix__function_8h.html" target="_top" xlink:title=" ">
<polygon fill="white" stroke="black" points="196.5,-0.5 196.5,-63.5 315.5,-63.5 315.5,-0.5 196.5,-0.5"/>
<text text-anchor="start" x="204.5" y="-51.5" font-family="Helvetica,sans-Serif" font-size="10.00">/home/sia/work/ADCP</text>
<text text-anchor="start" x="204.5" y="-40.5" font-family="Helvetica,sans-Serif" font-size="10.00">/Noise&#45;Estimation/code</text>
<text text-anchor="start" x="204.5" y="-29.5" font-family="Helvetica,sans-Serif" font-size="10.00">/imate/imate/_cu_linear</text>
<text text-anchor="start" x="204.5" y="-18.5" font-family="Helvetica,sans-Serif" font-size="10.00">_operator/cu_csr_affine</text>
<text text-anchor="middle" x="256" y="-7.5" font-family="Helvetica,sans-Serif" font-size="10.00">_matrix_function.h</text>
</a>
</g>
</g>
<!-- Node2&#45;&gt;Node4 -->
<g id="edge3" class="edge">
<title>Node2&#45;&gt;Node4</title>
<path fill="none" stroke="midnightblue" d="M232.34,-90.96C236.07,-81.84 239.96,-72.29 243.5,-63.63"/>
<polygon fill="midnightblue" stroke="midnightblue" points="229.09,-89.68 228.55,-100.26 235.57,-92.33 229.09,-89.68"/>
</g>
<!-- Node5 -->
<g id="node5" class="node">
<title>Node5</title>
<g id="a_node5"><a xlink:href="cu__dense__affine__matrix__function_8h.html" target="_top" xlink:title=" ">
<polygon fill="white" stroke="black" points="413.5,-0.5 413.5,-63.5 544.5,-63.5 544.5,-0.5 413.5,-0.5"/>
<text text-anchor="start" x="421.5" y="-51.5" font-family="Helvetica,sans-Serif" font-size="10.00">/home/sia/work/ADCP</text>
<text text-anchor="start" x="421.5" y="-40.5" font-family="Helvetica,sans-Serif" font-size="10.00">/Noise&#45;Estimation/code</text>
<text text-anchor="start" x="421.5" y="-29.5" font-family="Helvetica,sans-Serif" font-size="10.00">/imate/imate/_cu_linear</text>
<text text-anchor="start" x="421.5" y="-18.5" font-family="Helvetica,sans-Serif" font-size="10.00">_operator/cu_dense_affine</text>
<text text-anchor="middle" x="479" y="-7.5" font-family="Helvetica,sans-Serif" font-size="10.00">_matrix_function.h</text>
</a>
</g>
</g>
<!-- Node2&#45;&gt;Node5 -->
<g id="edge4" class="edge">
<title>Node2&#45;&gt;Node5</title>
<path fill="none" stroke="midnightblue" d="M291.66,-99.8C337.29,-82.36 379.53,-67.3 413.45,-55.46"/>
<polygon fill="midnightblue" stroke="midnightblue" points="290.26,-96.59 282.18,-103.44 292.77,-103.12 290.26,-96.59"/>
</g>
<!-- Node7 -->
<g id="node7" class="node">
<title>Node7</title>
<g id="a_node7"><a xlink:href="cu__csc__matrix_8h.html" target="_top" xlink:title=" ">
<polygon fill="white" stroke="black" points="0,-106 0,-158 132,-158 132,-106 0,-106"/>
<text text-anchor="start" x="8" y="-146" font-family="Helvetica,sans-Serif" font-size="10.00">/home/sia/work/ADCP</text>
<text text-anchor="start" x="8" y="-135" font-family="Helvetica,sans-Serif" font-size="10.00">/Noise&#45;Estimation/code</text>
<text text-anchor="start" x="8" y="-124" font-family="Helvetica,sans-Serif" font-size="10.00">/imate/imate/_cu_linear</text>
<text text-anchor="middle" x="66" y="-113" font-family="Helvetica,sans-Serif" font-size="10.00">_operator/cu_csc_matrix.h</text>
</a>
</g>
</g>
<!-- Node6&#45;&gt;Node7 -->
<g id="edge6" class="edge">
<title>Node6&#45;&gt;Node7</title>
<path fill="none" stroke="midnightblue" d="M279.58,-210.17C238.92,-197.59 186.73,-180.79 141,-164 135.97,-162.16 130.79,-160.18 125.6,-158.14"/>
<polygon fill="midnightblue" stroke="midnightblue" points="278.81,-213.59 289.39,-213.19 280.87,-206.9 278.81,-213.59"/>
</g>
<!-- Node8 -->
<g id="node8" class="node">
<title>Node8</title>
<g id="a_node8"><a xlink:href="cu__csr__matrix_8h.html" target="_top" xlink:title=" ">
<polygon fill="white" stroke="black" points="300,-106 300,-158 430,-158 430,-106 300,-106"/>
<text text-anchor="start" x="308" y="-146" font-family="Helvetica,sans-Serif" font-size="10.00">/home/sia/work/ADCP</text>
<text text-anchor="start" x="308" y="-135" font-family="Helvetica,sans-Serif" font-size="10.00">/Noise&#45;Estimation/code</text>
<text text-anchor="start" x="308" y="-124" font-family="Helvetica,sans-Serif" font-size="10.00">/imate/imate/_cu_linear</text>
<text text-anchor="middle" x="365" y="-113" font-family="Helvetica,sans-Serif" font-size="10.00">_operator/cu_csr_matrix.h</text>
</a>
</g>
</g>
<!-- Node6&#45;&gt;Node8 -->
<g id="edge8" class="edge">
<title>Node6&#45;&gt;Node8</title>
<path fill="none" stroke="midnightblue" d="M354.76,-195.7C356.79,-183.28 359.03,-169.57 360.89,-158.15"/>
<polygon fill="midnightblue" stroke="midnightblue" points="351.28,-195.33 353.12,-205.76 358.19,-196.46 351.28,-195.33"/>
</g>
<!-- Node9 -->
<g id="node9" class="node">
<title>Node9</title>
<g id="a_node9"><a xlink:href="cu__dense__matrix_8h.html" target="_top" xlink:title=" ">
<polygon fill="white" stroke="black" points="448.5,-106 448.5,-158 591.5,-158 591.5,-106 448.5,-106"/>
<text text-anchor="start" x="456.5" y="-146" font-family="Helvetica,sans-Serif" font-size="10.00">/home/sia/work/ADCP</text>
<text text-anchor="start" x="456.5" y="-135" font-family="Helvetica,sans-Serif" font-size="10.00">/Noise&#45;Estimation/code</text>
<text text-anchor="start" x="456.5" y="-124" font-family="Helvetica,sans-Serif" font-size="10.00">/imate/imate/_cu_linear</text>
<text text-anchor="middle" x="520" y="-113" font-family="Helvetica,sans-Serif" font-size="10.00">_operator/cu_dense_matrix.h</text>
</a>
</g>
</g>
<!-- Node6&#45;&gt;Node9 -->
<g id="edge10" class="edge">
<title>Node6&#45;&gt;Node9</title>
<path fill="none" stroke="midnightblue" d="M401.94,-200.66C425.74,-187.02 453.5,-171.11 476.11,-158.15"/>
<polygon fill="midnightblue" stroke="midnightblue" points="399.97,-197.75 393.04,-205.76 403.45,-203.83 399.97,-197.75"/>
</g>
<!-- Node7&#45;&gt;Node3 -->
<g id="edge7" class="edge">
<title>Node7&#45;&gt;Node3</title>
<path fill="none" stroke="midnightblue" d="M82.11,-96.67C87.14,-85.95 92.66,-74.2 97.57,-63.75"/>
<polygon fill="midnightblue" stroke="midnightblue" points="78.93,-95.22 77.85,-105.76 85.26,-98.2 78.93,-95.22"/>
</g>
<!-- Node8&#45;&gt;Node4 -->
<g id="edge9" class="edge">
<title>Node8&#45;&gt;Node4</title>
<path fill="none" stroke="midnightblue" d="M329.33,-98.93C316.75,-87.62 302.65,-74.94 290.2,-63.75"/>
<polygon fill="midnightblue" stroke="midnightblue" points="327.15,-101.68 336.93,-105.76 331.83,-96.47 327.15,-101.68"/>
</g>
<!-- Node9&#45;&gt;Node5 -->
<g id="edge11" class="edge">
<title>Node9&#45;&gt;Node5</title>
<path fill="none" stroke="midnightblue" d="M505.5,-96.34C501.05,-85.71 496.19,-74.1 491.86,-63.75"/>
<polygon fill="midnightblue" stroke="midnightblue" points="502.35,-97.89 509.44,-105.76 508.81,-95.19 502.35,-97.89"/>
</g>
</g>
</svg>
