<?xml version="1.0" encoding="UTF-8" standalone="no"?>
<!DOCTYPE svg PUBLIC "-//W3C//DTD SVG 1.1//EN"
 "http://www.w3.org/Graphics/SVG/1.1/DTD/svg11.dtd">
<!-- Generated by graphviz version 2.43.0 (0)
 -->
<!-- Title: /home/sia/work/ADCP/Noise&#45;Estimation/code/imate/imate/_cuda_dynamic_loading/cublas_symbols.cpp Pages: 1 -->
<svg width="433pt" height="229pt"
 viewBox="0.00 0.00 432.50 229.00" xmlns="http://www.w3.org/2000/svg" xmlns:xlink="http://www.w3.org/1999/xlink">
<g id="graph0" class="graph" transform="scale(1 1) rotate(0) translate(4 225)">
<title>/home/sia/work/ADCP/Noise&#45;Estimation/code/imate/imate/_cuda_dynamic_loading/cublas_symbols.cpp</title>
<polygon fill="white" stroke="transparent" points="-4,4 -4,-225 428.5,-225 428.5,4 -4,4"/>
<!-- Node1 -->
<g id="node1" class="node">
<title>Node1</title>
<g id="a_node1"><a xlink:title=" ">
<polygon fill="#bfbfbf" stroke="black" points="169,-168.5 169,-220.5 314,-220.5 314,-168.5 169,-168.5"/>
<text text-anchor="start" x="177" y="-208.5" font-family="Helvetica,sans-Serif" font-size="10.00">/home/sia/work/ADCP</text>
<text text-anchor="start" x="177" y="-197.5" font-family="Helvetica,sans-Serif" font-size="10.00">/Noise&#45;Estimation/code</text>
<text text-anchor="start" x="177" y="-186.5" font-family="Helvetica,sans-Serif" font-size="10.00">/imate/imate/_cuda_dynamic</text>
<text text-anchor="middle" x="241.5" y="-175.5" font-family="Helvetica,sans-Serif" font-size="10.00">_loading/cublas_symbols.cpp</text>
</a>
</g>
</g>
<!-- Node2 -->
<g id="node2" class="node">
<title>Node2</title>
<g id="a_node2"><a xlink:href="cublas__symbols_8h.html" target="_top" xlink:title=" ">
<polygon fill="white" stroke="black" points="11,-112.5 11,-131.5 112,-131.5 112,-112.5 11,-112.5"/>
<text text-anchor="middle" x="61.5" y="-119.5" font-family="Helvetica,sans-Serif" font-size="10.00">./cublas_symbols.h</text>
</a>
</g>
</g>
<!-- Node1&#45;&gt;Node2 -->
<g id="edge1" class="edge">
<title>Node1&#45;&gt;Node2</title>
<path fill="none" stroke="midnightblue" d="M177.53,-168.45C148.71,-157.16 115.99,-144.34 92.66,-135.2"/>
<polygon fill="midnightblue" stroke="midnightblue" points="93.86,-131.92 83.27,-131.53 91.31,-138.43 93.86,-131.92"/>
</g>
<!-- Node6 -->
<g id="node6" class="node">
<title>Node6</title>
<g id="a_node6"><a xlink:title=" ">
<polygon fill="white" stroke="#bfbfbf" points="130,-112.5 130,-131.5 201,-131.5 201,-112.5 130,-112.5"/>
<text text-anchor="middle" x="165.5" y="-119.5" font-family="Helvetica,sans-Serif" font-size="10.00">cublas_api.h</text>
</a>
</g>
</g>
<!-- Node1&#45;&gt;Node6 -->
<g id="edge5" class="edge">
<title>Node1&#45;&gt;Node6</title>
<path fill="none" stroke="midnightblue" d="M214.49,-168.45C203.8,-158.53 191.84,-147.43 182.41,-138.69"/>
<polygon fill="midnightblue" stroke="midnightblue" points="184.59,-135.93 174.87,-131.7 179.82,-141.06 184.59,-135.93"/>
</g>
<!-- Node7 -->
<g id="node7" class="node">
<title>Node7</title>
<g id="a_node7"><a xlink:title=" ">
<polygon fill="white" stroke="#bfbfbf" points="219,-112.5 219,-131.5 264,-131.5 264,-112.5 219,-112.5"/>
<text text-anchor="middle" x="241.5" y="-119.5" font-family="Helvetica,sans-Serif" font-size="10.00">cstdlib</text>
</a>
</g>
</g>
<!-- Node1&#45;&gt;Node7 -->
<g id="edge6" class="edge">
<title>Node1&#45;&gt;Node7</title>
<path fill="none" stroke="midnightblue" d="M241.5,-168.45C241.5,-159.73 241.5,-150.1 241.5,-141.96"/>
<polygon fill="midnightblue" stroke="midnightblue" points="245,-141.7 241.5,-131.7 238,-141.7 245,-141.7"/>
</g>
<!-- Node8 -->
<g id="node8" class="node">
<title>Node8</title>
<g id="a_node8"><a xlink:title=" ">
<polygon fill="white" stroke="#bfbfbf" points="269.5,-56.5 269.5,-75.5 321.5,-75.5 321.5,-56.5 269.5,-56.5"/>
<text text-anchor="middle" x="295.5" y="-63.5" font-family="Helvetica,sans-Serif" font-size="10.00">sstream</text>
</a>
</g>
</g>
<!-- Node1&#45;&gt;Node8 -->
<g id="edge7" class="edge">
<title>Node1&#45;&gt;Node8</title>
<path fill="none" stroke="midnightblue" d="M255.05,-168.41C260.77,-157.39 267.29,-144.21 272.5,-132 279.11,-116.52 285.4,-98.43 289.72,-85.27"/>
<polygon fill="midnightblue" stroke="midnightblue" points="293.12,-86.14 292.86,-75.55 286.46,-83.99 293.12,-86.14"/>
</g>
<!-- Node9 -->
<g id="node9" class="node">
<title>Node9</title>
<g id="a_node9"><a xlink:href="dynamic__loading_8h.html" target="_top" xlink:title=" ">
<polygon fill="white" stroke="black" points="320.5,-112.5 320.5,-131.5 424.5,-131.5 424.5,-112.5 320.5,-112.5"/>
<text text-anchor="middle" x="372.5" y="-119.5" font-family="Helvetica,sans-Serif" font-size="10.00">./dynamic_loading.h</text>
</a>
</g>
</g>
<!-- Node1&#45;&gt;Node9 -->
<g id="edge8" class="edge">
<title>Node1&#45;&gt;Node9</title>
<path fill="none" stroke="midnightblue" d="M288.05,-168.45C308.1,-157.66 330.73,-145.48 347.51,-136.45"/>
<polygon fill="midnightblue" stroke="midnightblue" points="349.51,-139.35 356.66,-131.53 346.19,-133.18 349.51,-139.35"/>
</g>
<!-- Node3 -->
<g id="node3" class="node">
<title>Node3</title>
<g id="a_node3"><a xlink:title=" ">
<polygon fill="white" stroke="#bfbfbf" points="0,-56.5 0,-75.5 41,-75.5 41,-56.5 0,-56.5"/>
<text text-anchor="middle" x="20.5" y="-63.5" font-family="Helvetica,sans-Serif" font-size="10.00">string</text>
</a>
</g>
</g>
<!-- Node2&#45;&gt;Node3 -->
<g id="edge2" class="edge">
<title>Node2&#45;&gt;Node3</title>
<path fill="none" stroke="midnightblue" d="M54.73,-112.08C48.94,-104.46 40.44,-93.26 33.36,-83.94"/>
<polygon fill="midnightblue" stroke="midnightblue" points="35.98,-81.6 27.14,-75.75 30.4,-85.83 35.98,-81.6"/>
</g>
<!-- Node4 -->
<g id="node4" class="node">
<title>Node4</title>
<g id="a_node4"><a xlink:href="cublas__types_8h.html" target="_top" xlink:title=" ">
<polygon fill="white" stroke="black" points="59,-56.5 59,-75.5 148,-75.5 148,-56.5 59,-56.5"/>
<text text-anchor="middle" x="103.5" y="-63.5" font-family="Helvetica,sans-Serif" font-size="10.00">./cublas_types.h</text>
</a>
</g>
</g>
<!-- Node2&#45;&gt;Node4 -->
<g id="edge3" class="edge">
<title>Node2&#45;&gt;Node4</title>
<path fill="none" stroke="midnightblue" d="M68.44,-112.08C74.43,-104.38 83.25,-93.03 90.55,-83.65"/>
<polygon fill="midnightblue" stroke="midnightblue" points="93.32,-85.79 96.69,-75.75 87.79,-81.5 93.32,-85.79"/>
</g>
<!-- Node5 -->
<g id="node5" class="node">
<title>Node5</title>
<g id="a_node5"><a xlink:title=" ">
<polygon fill="white" stroke="#bfbfbf" points="69,-0.5 69,-19.5 138,-19.5 138,-0.5 69,-0.5"/>
<text text-anchor="middle" x="103.5" y="-7.5" font-family="Helvetica,sans-Serif" font-size="10.00">cublas_v2.h</text>
</a>
</g>
</g>
<!-- Node4&#45;&gt;Node5 -->
<g id="edge4" class="edge">
<title>Node4&#45;&gt;Node5</title>
<path fill="none" stroke="midnightblue" d="M103.5,-56.08C103.5,-49.01 103.5,-38.86 103.5,-29.99"/>
<polygon fill="midnightblue" stroke="midnightblue" points="107,-29.75 103.5,-19.75 100,-29.75 107,-29.75"/>
</g>
<!-- Node9&#45;&gt;Node8 -->
<g id="edge10" class="edge">
<title>Node9&#45;&gt;Node8</title>
<path fill="none" stroke="midnightblue" d="M360.13,-112.32C348.34,-104.06 330.37,-91.45 316.36,-81.63"/>
<polygon fill="midnightblue" stroke="midnightblue" points="318.04,-78.53 307.84,-75.65 314.02,-84.26 318.04,-78.53"/>
</g>
<!-- Node10 -->
<g id="node10" class="node">
<title>Node10</title>
<g id="a_node10"><a xlink:title=" ">
<polygon fill="white" stroke="#bfbfbf" points="343,-56.5 343,-75.5 402,-75.5 402,-56.5 343,-56.5"/>
<text text-anchor="middle" x="372.5" y="-63.5" font-family="Helvetica,sans-Serif" font-size="10.00">stdexcept</text>
</a>
</g>
</g>
<!-- Node9&#45;&gt;Node10 -->
<g id="edge9" class="edge">
<title>Node9&#45;&gt;Node10</title>
<path fill="none" stroke="midnightblue" d="M372.5,-112.08C372.5,-105.01 372.5,-94.86 372.5,-85.99"/>
<polygon fill="midnightblue" stroke="midnightblue" points="376,-85.75 372.5,-75.75 369,-85.75 376,-85.75"/>
</g>
</g>
</svg>
