<?xml version="1.0" encoding="UTF-8" standalone="no"?>
<!DOCTYPE svg PUBLIC "-//W3C//DTD SVG 1.1//EN"
 "http://www.w3.org/Graphics/SVG/1.1/DTD/svg11.dtd">
<!-- Generated by graphviz version 2.43.0 (0)
 -->
<!-- Title: /home/sia/work/ADCP/Noise&#45;Estimation/code/imate/imate/_cu_basic_algebra Pages: 1 -->
<svg width="138pt" height="167pt"
 viewBox="0.00 0.00 138.00 167.00" xmlns="http://www.w3.org/2000/svg" xmlns:xlink="http://www.w3.org/1999/xlink">
<g id="graph0" class="graph" transform="scale(1 1) rotate(0) translate(4 163)">
<title>/home/sia/work/ADCP/Noise&#45;Estimation/code/imate/imate/_cu_basic_algebra</title>
<polygon fill="white" stroke="transparent" points="-4,4 -4,-163 134,-163 134,4 -4,4"/>
<g id="clust1" class="cluster">
<title>clusterdir_7cbdf7f1e0681c65fd455a0f383ae44b</title>
<g id="a_clust1"><a xlink:href="dir_7cbdf7f1e0681c65fd455a0f383ae44b.html" target="_top" xlink:title="imate">
<polygon fill="#ddddee" stroke="black" points="8,-8 8,-151 122,-151 122,-8 8,-8"/>
<text text-anchor="middle" x="65" y="-139" font-family="Helvetica,sans-Serif" font-size="10.00">imate</text>
</a>
</g>
</g>
<!-- dir_2ff42a6f7227c02b81ec09c474d04963 -->
<g id="node1" class="node">
<title>dir_2ff42a6f7227c02b81ec09c474d04963</title>
<g id="a_node1"><a xlink:href="dir_2ff42a6f7227c02b81ec09c474d04963.html" target="_top" xlink:title="_definitions">
<polygon fill="none" stroke="black" points="98,-52 32,-52 32,-16 98,-16 98,-52"/>
<text text-anchor="middle" x="65" y="-31.5" font-family="Helvetica,sans-Serif" font-size="10.00">_definitions</text>
</a>
</g>
</g>
<!-- dir_fa510a0d81ceaab53f9515f8b3cbd91b -->
<g id="node2" class="node">
<title>dir_fa510a0d81ceaab53f9515f8b3cbd91b</title>
<g id="a_node2"><a xlink:href="dir_fa510a0d81ceaab53f9515f8b3cbd91b.html" target="_top" xlink:title="_cu_basic_algebra">
<polygon fill="#eeeeff" stroke="black" points="114,-124 16,-124 16,-88 114,-88 114,-124"/>
<text text-anchor="middle" x="65" y="-103.5" font-family="Helvetica,sans-Serif" font-size="10.00">_cu_basic_algebra</text>
</a>
</g>
</g>
<!-- dir_fa510a0d81ceaab53f9515f8b3cbd91b&#45;&gt;dir_2ff42a6f7227c02b81ec09c474d04963 -->
<g id="edge1" class="edge">
<title>dir_fa510a0d81ceaab53f9515f8b3cbd91b&#45;&gt;dir_2ff42a6f7227c02b81ec09c474d04963</title>
<path fill="none" stroke="black" d="M65,-87.7C65,-79.98 65,-70.71 65,-62.11"/>
<polygon fill="black" stroke="black" points="68.5,-62.1 65,-52.1 61.5,-62.1 68.5,-62.1"/>
<g id="a_edge1&#45;headlabel"><a xlink:href="dir_000004_000009.html" target="_top" xlink:title="3">
<text text-anchor="middle" x="71.34" y="-63.2" font-family="Helvetica,sans-Serif" font-size="10.00">3</text>
</a>
</g>
</g>
</g>
</svg>
