<?xml version="1.0" encoding="UTF-8" standalone="no"?>
<!DOCTYPE svg PUBLIC "-//W3C//DTD SVG 1.1//EN"
 "http://www.w3.org/Graphics/SVG/1.1/DTD/svg11.dtd">
<!-- Generated by graphviz version 2.43.0 (0)
 -->
<!-- Title: /home/sia/work/ADCP/Noise&#45;Estimation/code/imate/imate/_cu_trace_estimator Pages: 1 -->
<svg width="354pt" height="239pt"
 viewBox="0.00 0.00 354.00 239.00" xmlns="http://www.w3.org/2000/svg" xmlns:xlink="http://www.w3.org/1999/xlink">
<g id="graph0" class="graph" transform="scale(1 1) rotate(0) translate(4 235)">
<title>/home/sia/work/ADCP/Noise&#45;Estimation/code/imate/imate/_cu_trace_estimator</title>
<polygon fill="white" stroke="transparent" points="-4,4 -4,-235 350,-235 350,4 -4,4"/>
<g id="clust1" class="cluster">
<title>clusterdir_7cbdf7f1e0681c65fd455a0f383ae44b</title>
<g id="a_clust1"><a xlink:href="dir_7cbdf7f1e0681c65fd455a0f383ae44b.html" target="_top" xlink:title="imate">
<polygon fill="#ddddee" stroke="black" points="8,-8 8,-223 338,-223 338,-8 8,-8"/>
<text text-anchor="middle" x="173" y="-211" font-family="Helvetica,sans-Serif" font-size="10.00">imate</text>
</a>
</g>
</g>
<!-- dir_2ff42a6f7227c02b81ec09c474d04963 -->
<g id="node1" class="node">
<title>dir_2ff42a6f7227c02b81ec09c474d04963</title>
<g id="a_node1"><a xlink:href="dir_2ff42a6f7227c02b81ec09c474d04963.html" target="_top" xlink:title="_definitions">
<polygon fill="none" stroke="black" points="119,-52 53,-52 53,-16 119,-16 119,-52"/>
<text text-anchor="middle" x="86" y="-31.5" font-family="Helvetica,sans-Serif" font-size="10.00">_definitions</text>
</a>
</g>
</g>
<!-- dir_77b32d754a5600b39cb38f56cd86ee8c -->
<g id="node2" class="node">
<title>dir_77b32d754a5600b39cb38f56cd86ee8c</title>
<g id="a_node2"><a xlink:href="dir_77b32d754a5600b39cb38f56cd86ee8c.html" target="_top" xlink:title="_random_generator">
<polygon fill="none" stroke="black" points="136,-124 36,-124 36,-88 136,-88 136,-124"/>
<text text-anchor="middle" x="86" y="-103.5" font-family="Helvetica,sans-Serif" font-size="10.00">_random_generator</text>
</a>
</g>
</g>
<!-- dir_77b32d754a5600b39cb38f56cd86ee8c&#45;&gt;dir_2ff42a6f7227c02b81ec09c474d04963 -->
<g id="edge1" class="edge">
<title>dir_77b32d754a5600b39cb38f56cd86ee8c&#45;&gt;dir_2ff42a6f7227c02b81ec09c474d04963</title>
<path fill="none" stroke="black" d="M86,-87.7C86,-79.98 86,-70.71 86,-62.11"/>
<polygon fill="black" stroke="black" points="89.5,-62.1 86,-52.1 82.5,-62.1 89.5,-62.1"/>
<g id="a_edge1&#45;headlabel"><a xlink:href="dir_000010_000009.html" target="_top" xlink:title="1">
<text text-anchor="middle" x="92.34" y="-63.2" font-family="Helvetica,sans-Serif" font-size="10.00">1</text>
</a>
</g>
</g>
<!-- dir_79acc20440caf1103cd45750e5b7ca22 -->
<g id="node3" class="node">
<title>dir_79acc20440caf1103cd45750e5b7ca22</title>
<g id="a_node3"><a xlink:href="dir_79acc20440caf1103cd45750e5b7ca22.html" target="_top" xlink:title="_cu_linear_operator">
<polygon fill="none" stroke="black" points="255.5,-124 154.5,-124 154.5,-88 255.5,-88 255.5,-124"/>
<text text-anchor="middle" x="205" y="-103.5" font-family="Helvetica,sans-Serif" font-size="10.00">_cu_linear_operator</text>
</a>
</g>
</g>
<!-- dir_79acc20440caf1103cd45750e5b7ca22&#45;&gt;dir_2ff42a6f7227c02b81ec09c474d04963 -->
<g id="edge6" class="edge">
<title>dir_79acc20440caf1103cd45750e5b7ca22&#45;&gt;dir_2ff42a6f7227c02b81ec09c474d04963</title>
<path fill="none" stroke="black" d="M175.89,-87.88C160.33,-78.72 140.98,-67.34 124.22,-57.48"/>
<polygon fill="black" stroke="black" points="125.62,-54.24 115.22,-52.19 122.07,-60.28 125.62,-54.24"/>
<g id="a_edge6&#45;headlabel"><a xlink:href="dir_000005_000009.html" target="_top" xlink:title="9">
<text text-anchor="middle" x="130.15" y="-51.12" font-family="Helvetica,sans-Serif" font-size="10.00">9</text>
</a>
</g>
</g>
<!-- dir_b9c2215538fdb66ef13c462a340a5421 -->
<g id="node4" class="node">
<title>dir_b9c2215538fdb66ef13c462a340a5421</title>
<g id="a_node4"><a xlink:href="dir_b9c2215538fdb66ef13c462a340a5421.html" target="_top" xlink:title="functions">
<polygon fill="none" stroke="black" points="330,-124 274,-124 274,-88 330,-88 330,-124"/>
<text text-anchor="middle" x="302" y="-103.5" font-family="Helvetica,sans-Serif" font-size="10.00">functions</text>
</a>
</g>
</g>
<!-- dir_59d5e17feeae2d3397badb0c8eed906c -->
<g id="node5" class="node">
<title>dir_59d5e17feeae2d3397badb0c8eed906c</title>
<g id="a_node5"><a xlink:href="dir_59d5e17feeae2d3397badb0c8eed906c.html" target="_top" xlink:title="_cu_trace_estimator">
<polygon fill="#eeeeff" stroke="black" points="197.5,-196 92.5,-196 92.5,-160 197.5,-160 197.5,-196"/>
<text text-anchor="middle" x="145" y="-175.5" font-family="Helvetica,sans-Serif" font-size="10.00">_cu_trace_estimator</text>
</a>
</g>
</g>
<!-- dir_59d5e17feeae2d3397badb0c8eed906c&#45;&gt;dir_2ff42a6f7227c02b81ec09c474d04963 -->
<g id="edge2" class="edge">
<title>dir_59d5e17feeae2d3397badb0c8eed906c&#45;&gt;dir_2ff42a6f7227c02b81ec09c474d04963</title>
<path fill="none" stroke="black" d="M92.26,-166.99C68.04,-159.47 41.52,-146.44 27,-124 18.31,-110.57 20.48,-102.61 27,-88 32.08,-76.6 40.96,-66.63 50.31,-58.51"/>
<polygon fill="black" stroke="black" points="52.63,-61.14 58.2,-52.13 48.22,-55.69 52.63,-61.14"/>
<g id="a_edge2&#45;headlabel"><a xlink:href="dir_000006_000009.html" target="_top" xlink:title="4">
<text text-anchor="middle" x="51.62" y="-63.11" font-family="Helvetica,sans-Serif" font-size="10.00">4</text>
</a>
</g>
</g>
<!-- dir_59d5e17feeae2d3397badb0c8eed906c&#45;&gt;dir_77b32d754a5600b39cb38f56cd86ee8c -->
<g id="edge3" class="edge">
<title>dir_59d5e17feeae2d3397badb0c8eed906c&#45;&gt;dir_77b32d754a5600b39cb38f56cd86ee8c</title>
<path fill="none" stroke="black" d="M130.42,-159.7C123.34,-151.3 114.72,-141.07 106.95,-131.86"/>
<polygon fill="black" stroke="black" points="109.54,-129.49 100.42,-124.1 104.19,-134.01 109.54,-129.49"/>
<g id="a_edge3&#45;headlabel"><a xlink:href="dir_000006_000010.html" target="_top" xlink:title="1">
<text text-anchor="middle" x="114.03" y="-127.91" font-family="Helvetica,sans-Serif" font-size="10.00">1</text>
</a>
</g>
</g>
<!-- dir_59d5e17feeae2d3397badb0c8eed906c&#45;&gt;dir_79acc20440caf1103cd45750e5b7ca22 -->
<g id="edge4" class="edge">
<title>dir_59d5e17feeae2d3397badb0c8eed906c&#45;&gt;dir_79acc20440caf1103cd45750e5b7ca22</title>
<path fill="none" stroke="black" d="M159.83,-159.7C167.02,-151.3 175.8,-141.07 183.69,-131.86"/>
<polygon fill="black" stroke="black" points="186.49,-133.97 190.34,-124.1 181.17,-129.42 186.49,-133.97"/>
<g id="a_edge4&#45;headlabel"><a xlink:href="dir_000006_000005.html" target="_top" xlink:title="3">
<text text-anchor="middle" x="186.31" y="-136.05" font-family="Helvetica,sans-Serif" font-size="10.00">3</text>
</a>
</g>
</g>
<!-- dir_59d5e17feeae2d3397badb0c8eed906c&#45;&gt;dir_b9c2215538fdb66ef13c462a340a5421 -->
<g id="edge5" class="edge">
<title>dir_59d5e17feeae2d3397badb0c8eed906c&#45;&gt;dir_b9c2215538fdb66ef13c462a340a5421</title>
<path fill="none" stroke="black" d="M183.98,-159.96C205.37,-150.57 232.58,-138.56 264.23,-124.32"/>
<polygon fill="black" stroke="black" points="266.06,-127.34 273.74,-120.04 263.18,-120.95 266.06,-127.34"/>
<g id="a_edge5&#45;headlabel"><a xlink:href="dir_000006_000012.html" target="_top" xlink:title="1">
<text text-anchor="middle" x="263.95" y="-128.9" font-family="Helvetica,sans-Serif" font-size="10.00">1</text>
</a>
</g>
</g>
</g>
</svg>
