<?xml version="1.0" encoding="UTF-8" standalone="no"?>
<!DOCTYPE svg PUBLIC "-//W3C//DTD SVG 1.1//EN"
 "http://www.w3.org/Graphics/SVG/1.1/DTD/svg11.dtd">
<!-- Generated by graphviz version 2.43.0 (0)
 -->
<!-- Title: /home/sia/work/ADCP/Noise&#45;Estimation/code/imate/imate/_c_trace_estimator Pages: 1 -->
<svg width="362pt" height="383pt"
 viewBox="0.00 0.00 362.00 383.00" xmlns="http://www.w3.org/2000/svg" xmlns:xlink="http://www.w3.org/1999/xlink">
<g id="graph0" class="graph" transform="scale(1 1) rotate(0) translate(4 379)">
<title>/home/sia/work/ADCP/Noise&#45;Estimation/code/imate/imate/_c_trace_estimator</title>
<polygon fill="white" stroke="transparent" points="-4,4 -4,-379 358,-379 358,4 -4,4"/>
<g id="clust1" class="cluster">
<title>clusterdir_7cbdf7f1e0681c65fd455a0f383ae44b</title>
<g id="a_clust1"><a xlink:href="dir_7cbdf7f1e0681c65fd455a0f383ae44b.html" target="_top" xlink:title="imate">
<polygon fill="#ddddee" stroke="black" points="8,-8 8,-367 346,-367 346,-8 8,-8"/>
<text text-anchor="middle" x="177" y="-355" font-family="Helvetica,sans-Serif" font-size="10.00">imate</text>
</a>
</g>
</g>
<!-- dir_2ff42a6f7227c02b81ec09c474d04963 -->
<g id="node1" class="node">
<title>dir_2ff42a6f7227c02b81ec09c474d04963</title>
<g id="a_node1"><a xlink:href="dir_2ff42a6f7227c02b81ec09c474d04963.html" target="_top" xlink:title="_definitions">
<polygon fill="none" stroke="black" points="97,-52 31,-52 31,-16 97,-16 97,-52"/>
<text text-anchor="middle" x="64" y="-31.5" font-family="Helvetica,sans-Serif" font-size="10.00">_definitions</text>
</a>
</g>
</g>
<!-- dir_77b32d754a5600b39cb38f56cd86ee8c -->
<g id="node2" class="node">
<title>dir_77b32d754a5600b39cb38f56cd86ee8c</title>
<g id="a_node2"><a xlink:href="dir_77b32d754a5600b39cb38f56cd86ee8c.html" target="_top" xlink:title="_random_generator">
<polygon fill="none" stroke="black" points="248,-340 148,-340 148,-304 248,-304 248,-340"/>
<text text-anchor="middle" x="198" y="-319.5" font-family="Helvetica,sans-Serif" font-size="10.00">_random_generator</text>
</a>
</g>
</g>
<!-- dir_77b32d754a5600b39cb38f56cd86ee8c&#45;&gt;dir_2ff42a6f7227c02b81ec09c474d04963 -->
<g id="edge1" class="edge">
<title>dir_77b32d754a5600b39cb38f56cd86ee8c&#45;&gt;dir_2ff42a6f7227c02b81ec09c474d04963</title>
<path fill="none" stroke="black" d="M157,-303.92C116.32,-284.48 56.36,-248.46 30,-196 8.45,-153.11 16.5,-134.06 30,-88 32.8,-78.45 37.91,-68.98 43.33,-60.76"/>
<polygon fill="black" stroke="black" points="46.35,-62.56 49.25,-52.37 40.62,-58.52 46.35,-62.56"/>
<g id="a_edge1&#45;headlabel"><a xlink:href="dir_000010_000009.html" target="_top" xlink:title="1">
<text text-anchor="middle" x="46.6" y="-64.63" font-family="Helvetica,sans-Serif" font-size="10.00">1</text>
</a>
</g>
</g>
<!-- dir_fbd53f1886fd051e381aeabaf0a35943 -->
<g id="node6" class="node">
<title>dir_fbd53f1886fd051e381aeabaf0a35943</title>
<g id="a_node6"><a xlink:href="dir_fbd53f1886fd051e381aeabaf0a35943.html" target="_top" xlink:title="_c_basic_algebra">
<polygon fill="none" stroke="black" points="241,-124 149,-124 149,-88 241,-88 241,-124"/>
<text text-anchor="middle" x="195" y="-103.5" font-family="Helvetica,sans-Serif" font-size="10.00">_c_basic_algebra</text>
</a>
</g>
</g>
<!-- dir_77b32d754a5600b39cb38f56cd86ee8c&#45;&gt;dir_fbd53f1886fd051e381aeabaf0a35943 -->
<g id="edge3" class="edge">
<title>dir_77b32d754a5600b39cb38f56cd86ee8c&#45;&gt;dir_fbd53f1886fd051e381aeabaf0a35943</title>
<path fill="none" stroke="black" d="M230.03,-303.85C279.31,-275.17 364.31,-215.19 327,-160 310,-134.86 278.9,-121.64 251.15,-114.69"/>
<polygon fill="black" stroke="black" points="251.64,-111.21 241.12,-112.41 250.09,-118.04 251.64,-111.21"/>
<g id="a_edge3&#45;headlabel"><a xlink:href="dir_000010_000001.html" target="_top" xlink:title="1">
<text text-anchor="middle" x="255.78" y="-106.74" font-family="Helvetica,sans-Serif" font-size="10.00">1</text>
</a>
</g>
</g>
<!-- dir_5951bf1a1af500d6bf056d938250a591 -->
<g id="node7" class="node">
<title>dir_5951bf1a1af500d6bf056d938250a591</title>
<g id="a_node7"><a xlink:href="dir_5951bf1a1af500d6bf056d938250a591.html" target="_top" xlink:title="_c_trace_estimator">
<polygon fill="#eeeeff" stroke="black" points="248,-268 148,-268 148,-232 248,-232 248,-268"/>
<text text-anchor="middle" x="198" y="-247.5" font-family="Helvetica,sans-Serif" font-size="10.00">_c_trace_estimator</text>
</a>
</g>
</g>
<!-- dir_77b32d754a5600b39cb38f56cd86ee8c&#45;&gt;dir_5951bf1a1af500d6bf056d938250a591 -->
<g id="edge2" class="edge">
<title>dir_77b32d754a5600b39cb38f56cd86ee8c&#45;&gt;dir_5951bf1a1af500d6bf056d938250a591</title>
<path fill="none" stroke="black" d="M192.08,-303.7C191.29,-295.98 191.06,-286.71 191.4,-278.11"/>
<polygon fill="black" stroke="black" points="194.9,-278.32 192.1,-268.1 187.92,-277.84 194.9,-278.32"/>
<g id="a_edge2&#45;headlabel"><a xlink:href="dir_000010_000003.html" target="_top" xlink:title="1">
<text text-anchor="middle" x="197.48" y="-279.61" font-family="Helvetica,sans-Serif" font-size="10.00">1</text>
</a>
</g>
</g>
<!-- dir_b9c2215538fdb66ef13c462a340a5421 -->
<g id="node3" class="node">
<title>dir_b9c2215538fdb66ef13c462a340a5421</title>
<g id="a_node3"><a xlink:href="dir_b9c2215538fdb66ef13c462a340a5421.html" target="_top" xlink:title="functions">
<polygon fill="none" stroke="black" points="226,-196 170,-196 170,-160 226,-160 226,-196"/>
<text text-anchor="middle" x="198" y="-175.5" font-family="Helvetica,sans-Serif" font-size="10.00">functions</text>
</a>
</g>
</g>
<!-- dir_ec4e484f3d193ae05ef37ec16f521131 -->
<g id="node4" class="node">
<title>dir_ec4e484f3d193ae05ef37ec16f521131</title>
<g id="a_node4"><a xlink:href="dir_ec4e484f3d193ae05ef37ec16f521131.html" target="_top" xlink:title="_utilities">
<polygon fill="none" stroke="black" points="318,-196 264,-196 264,-160 318,-160 318,-196"/>
<text text-anchor="middle" x="291" y="-175.5" font-family="Helvetica,sans-Serif" font-size="10.00">_utilities</text>
</a>
</g>
</g>
<!-- dir_efb4b864fb6767b525480da2336c3c23 -->
<g id="node5" class="node">
<title>dir_efb4b864fb6767b525480da2336c3c23</title>
<g id="a_node5"><a xlink:href="dir_efb4b864fb6767b525480da2336c3c23.html" target="_top" xlink:title="_c_linear_operator">
<polygon fill="none" stroke="black" points="152,-196 56,-196 56,-160 152,-160 152,-196"/>
<text text-anchor="middle" x="104" y="-175.5" font-family="Helvetica,sans-Serif" font-size="10.00">_c_linear_operator</text>
</a>
</g>
</g>
<!-- dir_efb4b864fb6767b525480da2336c3c23&#45;&gt;dir_2ff42a6f7227c02b81ec09c474d04963 -->
<g id="edge11" class="edge">
<title>dir_efb4b864fb6767b525480da2336c3c23&#45;&gt;dir_2ff42a6f7227c02b81ec09c474d04963</title>
<path fill="none" stroke="black" d="M99.18,-159.87C92.33,-135.56 79.72,-90.82 71.61,-62.01"/>
<polygon fill="black" stroke="black" points="74.92,-60.87 68.84,-52.19 68.18,-62.76 74.92,-60.87"/>
<g id="a_edge11&#45;headlabel"><a xlink:href="dir_000002_000009.html" target="_top" xlink:title="9">
<text text-anchor="middle" x="78.63" y="-61.06" font-family="Helvetica,sans-Serif" font-size="10.00">9</text>
</a>
</g>
</g>
<!-- dir_efb4b864fb6767b525480da2336c3c23&#45;&gt;dir_fbd53f1886fd051e381aeabaf0a35943 -->
<g id="edge12" class="edge">
<title>dir_efb4b864fb6767b525480da2336c3c23&#45;&gt;dir_fbd53f1886fd051e381aeabaf0a35943</title>
<path fill="none" stroke="black" d="M126.49,-159.7C137.96,-150.88 152.06,-140.03 164.48,-130.47"/>
<polygon fill="black" stroke="black" points="166.97,-132.98 172.76,-124.1 162.7,-127.43 166.97,-132.98"/>
<g id="a_edge12&#45;headlabel"><a xlink:href="dir_000002_000001.html" target="_top" xlink:title="4">
<text text-anchor="middle" x="165.85" y="-134.92" font-family="Helvetica,sans-Serif" font-size="10.00">4</text>
</a>
</g>
</g>
<!-- dir_fbd53f1886fd051e381aeabaf0a35943&#45;&gt;dir_2ff42a6f7227c02b81ec09c474d04963 -->
<g id="edge4" class="edge">
<title>dir_fbd53f1886fd051e381aeabaf0a35943&#45;&gt;dir_2ff42a6f7227c02b81ec09c474d04963</title>
<path fill="none" stroke="black" d="M162.95,-87.88C145.51,-78.55 123.73,-66.92 105.06,-56.94"/>
<polygon fill="black" stroke="black" points="106.64,-53.82 96.17,-52.19 103.34,-59.99 106.64,-53.82"/>
<g id="a_edge4&#45;headlabel"><a xlink:href="dir_000001_000009.html" target="_top" xlink:title="5">
<text text-anchor="middle" x="111.15" y="-50.51" font-family="Helvetica,sans-Serif" font-size="10.00">5</text>
</a>
</g>
</g>
<!-- dir_5951bf1a1af500d6bf056d938250a591&#45;&gt;dir_2ff42a6f7227c02b81ec09c474d04963 -->
<g id="edge5" class="edge">
<title>dir_5951bf1a1af500d6bf056d938250a591&#45;&gt;dir_2ff42a6f7227c02b81ec09c474d04963</title>
<path fill="none" stroke="black" d="M147.68,-245.87C113.16,-240.79 69.65,-227.96 47,-196 18.67,-156.03 36.8,-95.86 51.25,-61.52"/>
<polygon fill="black" stroke="black" points="54.55,-62.71 55.38,-52.15 48.15,-59.89 54.55,-62.71"/>
<g id="a_edge5&#45;headlabel"><a xlink:href="dir_000003_000009.html" target="_top" xlink:title="6">
<text text-anchor="middle" x="55.7" y="-64.64" font-family="Helvetica,sans-Serif" font-size="10.00">6</text>
</a>
</g>
</g>
<!-- dir_5951bf1a1af500d6bf056d938250a591&#45;&gt;dir_77b32d754a5600b39cb38f56cd86ee8c -->
<g id="edge6" class="edge">
<title>dir_5951bf1a1af500d6bf056d938250a591&#45;&gt;dir_77b32d754a5600b39cb38f56cd86ee8c</title>
<path fill="none" stroke="black" d="M203.9,-268.1C204.7,-275.79 204.94,-285.05 204.6,-293.67"/>
<polygon fill="black" stroke="black" points="201.11,-293.48 203.92,-303.7 208.09,-293.96 201.11,-293.48"/>
<g id="a_edge6&#45;headlabel"><a xlink:href="dir_000003_000010.html" target="_top" xlink:title="4">
<text text-anchor="middle" x="198.52" y="-287.2" font-family="Helvetica,sans-Serif" font-size="10.00">4</text>
</a>
</g>
</g>
<!-- dir_5951bf1a1af500d6bf056d938250a591&#45;&gt;dir_b9c2215538fdb66ef13c462a340a5421 -->
<g id="edge7" class="edge">
<title>dir_5951bf1a1af500d6bf056d938250a591&#45;&gt;dir_b9c2215538fdb66ef13c462a340a5421</title>
<path fill="none" stroke="black" d="M198,-231.7C198,-223.98 198,-214.71 198,-206.11"/>
<polygon fill="black" stroke="black" points="201.5,-206.1 198,-196.1 194.5,-206.1 201.5,-206.1"/>
<g id="a_edge7&#45;headlabel"><a xlink:href="dir_000003_000012.html" target="_top" xlink:title="1">
<text text-anchor="middle" x="204.34" y="-207.2" font-family="Helvetica,sans-Serif" font-size="10.00">1</text>
</a>
</g>
</g>
<!-- dir_5951bf1a1af500d6bf056d938250a591&#45;&gt;dir_ec4e484f3d193ae05ef37ec16f521131 -->
<g id="edge8" class="edge">
<title>dir_5951bf1a1af500d6bf056d938250a591&#45;&gt;dir_ec4e484f3d193ae05ef37ec16f521131</title>
<path fill="none" stroke="black" d="M220.99,-231.7C232.81,-222.8 247.39,-211.82 260.18,-202.2"/>
<polygon fill="black" stroke="black" points="262.39,-204.91 268.28,-196.1 258.18,-199.32 262.39,-204.91"/>
<g id="a_edge8&#45;headlabel"><a xlink:href="dir_000003_000011.html" target="_top" xlink:title="1">
<text text-anchor="middle" x="261.23" y="-206.84" font-family="Helvetica,sans-Serif" font-size="10.00">1</text>
</a>
</g>
</g>
<!-- dir_5951bf1a1af500d6bf056d938250a591&#45;&gt;dir_efb4b864fb6767b525480da2336c3c23 -->
<g id="edge9" class="edge">
<title>dir_5951bf1a1af500d6bf056d938250a591&#45;&gt;dir_efb4b864fb6767b525480da2336c3c23</title>
<path fill="none" stroke="black" d="M174.76,-231.7C162.81,-222.8 148.08,-211.82 135.15,-202.2"/>
<polygon fill="black" stroke="black" points="137.08,-199.27 126.97,-196.1 132.9,-204.88 137.08,-199.27"/>
<g id="a_edge9&#45;headlabel"><a xlink:href="dir_000003_000002.html" target="_top" xlink:title="3">
<text text-anchor="middle" x="141.66" y="-196.64" font-family="Helvetica,sans-Serif" font-size="10.00">3</text>
</a>
</g>
</g>
<!-- dir_5951bf1a1af500d6bf056d938250a591&#45;&gt;dir_fbd53f1886fd051e381aeabaf0a35943 -->
<g id="edge10" class="edge">
<title>dir_5951bf1a1af500d6bf056d938250a591&#45;&gt;dir_fbd53f1886fd051e381aeabaf0a35943</title>
<path fill="none" stroke="black" d="M214.04,-231.85C222.01,-222.12 230.83,-209.27 235,-196 239.8,-180.74 240.08,-175.17 235,-160 231.65,-150 225.58,-140.38 219.17,-132.14"/>
<polygon fill="black" stroke="black" points="221.82,-129.85 212.73,-124.4 216.44,-134.33 221.82,-129.85"/>
<g id="a_edge10&#45;headlabel"><a xlink:href="dir_000003_000001.html" target="_top" xlink:title="3">
<text text-anchor="middle" x="226.3" y="-128.3" font-family="Helvetica,sans-Serif" font-size="10.00">3</text>
</a>
</g>
</g>
</g>
</svg>
