<?xml version="1.0" encoding="UTF-8" standalone="no"?>
<!DOCTYPE svg PUBLIC "-//W3C//DTD SVG 1.1//EN"
 "http://www.w3.org/Graphics/SVG/1.1/DTD/svg11.dtd">
<!-- Generated by graphviz version 2.43.0 (0)
 -->
<!-- Title: /home/sia/work/ADCP/Noise&#45;Estimation/code/imate/imate/_cu_linear_operator Pages: 1 -->
<svg width="156pt" height="239pt"
 viewBox="0.00 0.00 156.00 239.00" xmlns="http://www.w3.org/2000/svg" xmlns:xlink="http://www.w3.org/1999/xlink">
<g id="graph0" class="graph" transform="scale(1 1) rotate(0) translate(4 235)">
<title>/home/sia/work/ADCP/Noise&#45;Estimation/code/imate/imate/_cu_linear_operator</title>
<polygon fill="white" stroke="transparent" points="-4,4 -4,-235 152,-235 152,4 -4,4"/>
<g id="clust1" class="cluster">
<title>clusterdir_7cbdf7f1e0681c65fd455a0f383ae44b</title>
<g id="a_clust1"><a xlink:href="dir_7cbdf7f1e0681c65fd455a0f383ae44b.html" target="_top" xlink:title="imate">
<polygon fill="#ddddee" stroke="black" points="8,-8 8,-223 140,-223 140,-8 8,-8"/>
<text text-anchor="middle" x="74" y="-211" font-family="Helvetica,sans-Serif" font-size="10.00">imate</text>
</a>
</g>
</g>
<!-- dir_2ff42a6f7227c02b81ec09c474d04963 -->
<g id="node1" class="node">
<title>dir_2ff42a6f7227c02b81ec09c474d04963</title>
<g id="a_node1"><a xlink:href="dir_2ff42a6f7227c02b81ec09c474d04963.html" target="_top" xlink:title="_definitions">
<polygon fill="none" stroke="black" points="99,-52 33,-52 33,-16 99,-16 99,-52"/>
<text text-anchor="middle" x="66" y="-31.5" font-family="Helvetica,sans-Serif" font-size="10.00">_definitions</text>
</a>
</g>
</g>
<!-- dir_efb4b864fb6767b525480da2336c3c23 -->
<g id="node2" class="node">
<title>dir_efb4b864fb6767b525480da2336c3c23</title>
<g id="a_node2"><a xlink:href="dir_efb4b864fb6767b525480da2336c3c23.html" target="_top" xlink:title="_c_linear_operator">
<polygon fill="none" stroke="black" points="132,-124 36,-124 36,-88 132,-88 132,-124"/>
<text text-anchor="middle" x="84" y="-103.5" font-family="Helvetica,sans-Serif" font-size="10.00">_c_linear_operator</text>
</a>
</g>
</g>
<!-- dir_efb4b864fb6767b525480da2336c3c23&#45;&gt;dir_2ff42a6f7227c02b81ec09c474d04963 -->
<g id="edge3" class="edge">
<title>dir_efb4b864fb6767b525480da2336c3c23&#45;&gt;dir_2ff42a6f7227c02b81ec09c474d04963</title>
<path fill="none" stroke="black" d="M79.55,-87.7C77.55,-79.9 75.13,-70.51 72.9,-61.83"/>
<polygon fill="black" stroke="black" points="76.28,-60.92 70.4,-52.1 69.5,-62.66 76.28,-60.92"/>
<g id="a_edge3&#45;headlabel"><a xlink:href="dir_000002_000009.html" target="_top" xlink:title="9">
<text text-anchor="middle" x="79.92" y="-61.19" font-family="Helvetica,sans-Serif" font-size="10.00">9</text>
</a>
</g>
</g>
<!-- dir_79acc20440caf1103cd45750e5b7ca22 -->
<g id="node3" class="node">
<title>dir_79acc20440caf1103cd45750e5b7ca22</title>
<g id="a_node3"><a xlink:href="dir_79acc20440caf1103cd45750e5b7ca22.html" target="_top" xlink:title="_cu_linear_operator">
<polygon fill="#eeeeff" stroke="black" points="124.5,-196 23.5,-196 23.5,-160 124.5,-160 124.5,-196"/>
<text text-anchor="middle" x="74" y="-175.5" font-family="Helvetica,sans-Serif" font-size="10.00">_cu_linear_operator</text>
</a>
</g>
</g>
<!-- dir_79acc20440caf1103cd45750e5b7ca22&#45;&gt;dir_2ff42a6f7227c02b81ec09c474d04963 -->
<g id="edge1" class="edge">
<title>dir_79acc20440caf1103cd45750e5b7ca22&#45;&gt;dir_2ff42a6f7227c02b81ec09c474d04963</title>
<path fill="none" stroke="black" d="M52.73,-159.7C42.89,-150.31 32.24,-137.8 27,-124 21.32,-109.04 22.01,-103.2 27,-88 30.31,-77.91 36.37,-68.15 42.73,-59.82"/>
<polygon fill="black" stroke="black" points="45.5,-61.97 49.11,-52.01 40.08,-57.54 45.5,-61.97"/>
<g id="a_edge1&#45;headlabel"><a xlink:href="dir_000005_000009.html" target="_top" xlink:title="9">
<text text-anchor="middle" x="45.42" y="-64.05" font-family="Helvetica,sans-Serif" font-size="10.00">9</text>
</a>
</g>
</g>
<!-- dir_79acc20440caf1103cd45750e5b7ca22&#45;&gt;dir_efb4b864fb6767b525480da2336c3c23 -->
<g id="edge2" class="edge">
<title>dir_79acc20440caf1103cd45750e5b7ca22&#45;&gt;dir_efb4b864fb6767b525480da2336c3c23</title>
<path fill="none" stroke="black" d="M76.47,-159.7C77.57,-151.98 78.9,-142.71 80.13,-134.11"/>
<polygon fill="black" stroke="black" points="83.61,-134.5 81.56,-124.1 76.68,-133.51 83.61,-134.5"/>
<g id="a_edge2&#45;headlabel"><a xlink:href="dir_000005_000002.html" target="_top" xlink:title="4">
<text text-anchor="middle" x="85.91" y="-135.96" font-family="Helvetica,sans-Serif" font-size="10.00">4</text>
</a>
</g>
</g>
</g>
</svg>
