<?xml version="1.0" encoding="UTF-8" standalone="no"?>
<!DOCTYPE svg PUBLIC "-//W3C//DTD SVG 1.1//EN"
 "http://www.w3.org/Graphics/SVG/1.1/DTD/svg11.dtd">
<!-- Generated by graphviz version 2.43.0 (0)
 -->
<!-- Title: /home/sia/work/ADCP/Noise&#45;Estimation/code/imate/imate/_random_generator Pages: 1 -->
<svg width="180pt" height="311pt"
 viewBox="0.00 0.00 180.00 311.00" xmlns="http://www.w3.org/2000/svg" xmlns:xlink="http://www.w3.org/1999/xlink">
<g id="graph0" class="graph" transform="scale(1 1) rotate(0) translate(4 307)">
<title>/home/sia/work/ADCP/Noise&#45;Estimation/code/imate/imate/_random_generator</title>
<polygon fill="white" stroke="transparent" points="-4,4 -4,-307 176,-307 176,4 -4,4"/>
<g id="clust1" class="cluster">
<title>clusterdir_7cbdf7f1e0681c65fd455a0f383ae44b</title>
<g id="a_clust1"><a xlink:href="dir_7cbdf7f1e0681c65fd455a0f383ae44b.html" target="_top" xlink:title="imate">
<polygon fill="#ddddee" stroke="black" points="8,-8 8,-295 164,-295 164,-8 8,-8"/>
<text text-anchor="middle" x="86" y="-283" font-family="Helvetica,sans-Serif" font-size="10.00">imate</text>
</a>
</g>
</g>
<!-- dir_2ff42a6f7227c02b81ec09c474d04963 -->
<g id="node1" class="node">
<title>dir_2ff42a6f7227c02b81ec09c474d04963</title>
<g id="a_node1"><a xlink:href="dir_2ff42a6f7227c02b81ec09c474d04963.html" target="_top" xlink:title="_definitions">
<polygon fill="none" stroke="black" points="115,-52 49,-52 49,-16 115,-16 115,-52"/>
<text text-anchor="middle" x="82" y="-31.5" font-family="Helvetica,sans-Serif" font-size="10.00">_definitions</text>
</a>
</g>
</g>
<!-- dir_5951bf1a1af500d6bf056d938250a591 -->
<g id="node2" class="node">
<title>dir_5951bf1a1af500d6bf056d938250a591</title>
<g id="a_node2"><a xlink:href="dir_5951bf1a1af500d6bf056d938250a591.html" target="_top" xlink:title="_c_trace_estimator">
<polygon fill="none" stroke="black" points="136,-268 36,-268 36,-232 136,-232 136,-268"/>
<text text-anchor="middle" x="86" y="-247.5" font-family="Helvetica,sans-Serif" font-size="10.00">_c_trace_estimator</text>
</a>
</g>
</g>
<!-- dir_5951bf1a1af500d6bf056d938250a591&#45;&gt;dir_2ff42a6f7227c02b81ec09c474d04963 -->
<g id="edge5" class="edge">
<title>dir_5951bf1a1af500d6bf056d938250a591&#45;&gt;dir_2ff42a6f7227c02b81ec09c474d04963</title>
<path fill="none" stroke="black" d="M66.66,-231.66C57.17,-222.07 46.42,-209.41 40,-196 25.95,-166.67 29.9,-156.39 27,-124 25.57,-108.06 20.74,-102.72 27,-88 31.73,-76.86 40.08,-66.93 48.87,-58.76"/>
<polygon fill="black" stroke="black" points="51.35,-61.24 56.62,-52.05 46.77,-55.95 51.35,-61.24"/>
<g id="a_edge5&#45;headlabel"><a xlink:href="dir_000003_000009.html" target="_top" xlink:title="6">
<text text-anchor="middle" x="50.49" y="-63.24" font-family="Helvetica,sans-Serif" font-size="10.00">6</text>
</a>
</g>
</g>
<!-- dir_fbd53f1886fd051e381aeabaf0a35943 -->
<g id="node3" class="node">
<title>dir_fbd53f1886fd051e381aeabaf0a35943</title>
<g id="a_node3"><a xlink:href="dir_fbd53f1886fd051e381aeabaf0a35943.html" target="_top" xlink:title="_c_basic_algebra">
<polygon fill="none" stroke="black" points="128,-124 36,-124 36,-88 128,-88 128,-124"/>
<text text-anchor="middle" x="82" y="-103.5" font-family="Helvetica,sans-Serif" font-size="10.00">_c_basic_algebra</text>
</a>
</g>
</g>
<!-- dir_5951bf1a1af500d6bf056d938250a591&#45;&gt;dir_fbd53f1886fd051e381aeabaf0a35943 -->
<g id="edge7" class="edge">
<title>dir_5951bf1a1af500d6bf056d938250a591&#45;&gt;dir_fbd53f1886fd051e381aeabaf0a35943</title>
<path fill="none" stroke="black" d="M69.11,-231.99C60.71,-222.31 51.42,-209.46 47,-196 42.01,-180.8 42.4,-175.32 47,-160 49.92,-150.28 55.26,-140.7 60.91,-132.41"/>
<polygon fill="black" stroke="black" points="63.76,-134.44 66.82,-124.3 58.1,-130.32 63.76,-134.44"/>
<g id="a_edge7&#45;headlabel"><a xlink:href="dir_000003_000001.html" target="_top" xlink:title="3">
<text text-anchor="middle" x="63.94" y="-136.52" font-family="Helvetica,sans-Serif" font-size="10.00">3</text>
</a>
</g>
</g>
<!-- dir_77b32d754a5600b39cb38f56cd86ee8c -->
<g id="node4" class="node">
<title>dir_77b32d754a5600b39cb38f56cd86ee8c</title>
<g id="a_node4"><a xlink:href="dir_77b32d754a5600b39cb38f56cd86ee8c.html" target="_top" xlink:title="_random_generator">
<polygon fill="#eeeeff" stroke="black" points="156,-196 56,-196 56,-160 156,-160 156,-196"/>
<text text-anchor="middle" x="106" y="-175.5" font-family="Helvetica,sans-Serif" font-size="10.00">_random_generator</text>
</a>
</g>
</g>
<!-- dir_5951bf1a1af500d6bf056d938250a591&#45;&gt;dir_77b32d754a5600b39cb38f56cd86ee8c -->
<g id="edge6" class="edge">
<title>dir_5951bf1a1af500d6bf056d938250a591&#45;&gt;dir_77b32d754a5600b39cb38f56cd86ee8c</title>
<path fill="none" stroke="black" d="M85.03,-231.7C86.47,-223.81 88.97,-214.3 91.84,-205.55"/>
<polygon fill="black" stroke="black" points="95.15,-206.7 95.22,-196.1 88.56,-204.34 95.15,-206.7"/>
<g id="a_edge6&#45;headlabel"><a xlink:href="dir_000003_000010.html" target="_top" xlink:title="4">
<text text-anchor="middle" x="96.61" y="-208.54" font-family="Helvetica,sans-Serif" font-size="10.00">4</text>
</a>
</g>
</g>
<!-- dir_fbd53f1886fd051e381aeabaf0a35943&#45;&gt;dir_2ff42a6f7227c02b81ec09c474d04963 -->
<g id="edge4" class="edge">
<title>dir_fbd53f1886fd051e381aeabaf0a35943&#45;&gt;dir_2ff42a6f7227c02b81ec09c474d04963</title>
<path fill="none" stroke="black" d="M82,-87.7C82,-79.98 82,-70.71 82,-62.11"/>
<polygon fill="black" stroke="black" points="85.5,-62.1 82,-52.1 78.5,-62.1 85.5,-62.1"/>
<g id="a_edge4&#45;headlabel"><a xlink:href="dir_000001_000009.html" target="_top" xlink:title="5">
<text text-anchor="middle" x="88.34" y="-63.2" font-family="Helvetica,sans-Serif" font-size="10.00">5</text>
</a>
</g>
</g>
<!-- dir_77b32d754a5600b39cb38f56cd86ee8c&#45;&gt;dir_2ff42a6f7227c02b81ec09c474d04963 -->
<g id="edge1" class="edge">
<title>dir_77b32d754a5600b39cb38f56cd86ee8c&#45;&gt;dir_2ff42a6f7227c02b81ec09c474d04963</title>
<path fill="none" stroke="black" d="M119.66,-159.68C132.2,-141.55 147.37,-112.39 137,-88 132.27,-76.86 123.92,-66.93 115.13,-58.76"/>
<polygon fill="black" stroke="black" points="117.23,-55.95 107.38,-52.05 112.65,-61.24 117.23,-55.95"/>
<g id="a_edge1&#45;headlabel"><a xlink:href="dir_000010_000009.html" target="_top" xlink:title="1">
<text text-anchor="middle" x="121.81" y="-53.65" font-family="Helvetica,sans-Serif" font-size="10.00">1</text>
</a>
</g>
</g>
<!-- dir_77b32d754a5600b39cb38f56cd86ee8c&#45;&gt;dir_5951bf1a1af500d6bf056d938250a591 -->
<g id="edge2" class="edge">
<title>dir_77b32d754a5600b39cb38f56cd86ee8c&#45;&gt;dir_5951bf1a1af500d6bf056d938250a591</title>
<path fill="none" stroke="black" d="M107.01,-196.1C105.59,-203.96 103.1,-213.46 100.23,-222.23"/>
<polygon fill="black" stroke="black" points="96.92,-221.1 96.86,-231.7 103.51,-223.45 96.92,-221.1"/>
<g id="a_edge2&#45;headlabel"><a xlink:href="dir_000010_000003.html" target="_top" xlink:title="1">
<text text-anchor="middle" x="95.45" y="-214.26" font-family="Helvetica,sans-Serif" font-size="10.00">1</text>
</a>
</g>
</g>
<!-- dir_77b32d754a5600b39cb38f56cd86ee8c&#45;&gt;dir_fbd53f1886fd051e381aeabaf0a35943 -->
<g id="edge3" class="edge">
<title>dir_77b32d754a5600b39cb38f56cd86ee8c&#45;&gt;dir_fbd53f1886fd051e381aeabaf0a35943</title>
<path fill="none" stroke="black" d="M100.07,-159.7C97.39,-151.9 94.17,-142.51 91.2,-133.83"/>
<polygon fill="black" stroke="black" points="94.42,-132.43 87.86,-124.1 87.8,-134.7 94.42,-132.43"/>
<g id="a_edge3&#45;headlabel"><a xlink:href="dir_000010_000001.html" target="_top" xlink:title="1">
<text text-anchor="middle" x="98.27" y="-132.41" font-family="Helvetica,sans-Serif" font-size="10.00">1</text>
</a>
</g>
</g>
</g>
</svg>
