<?xml version="1.0" encoding="UTF-8" standalone="no"?>
<!DOCTYPE svg PUBLIC "-//W3C//DTD SVG 1.1//EN"
 "http://www.w3.org/Graphics/SVG/1.1/DTD/svg11.dtd">
<!-- Generated by graphviz version 2.43.0 (0)
 -->
<!-- Title: /home/sia/work/ADCP/Noise&#45;Estimation/code/imate/imate/functions/functions.h Pages: 1 -->
<svg width="476pt" height="239pt"
 viewBox="0.00 0.00 476.00 239.00" xmlns="http://www.w3.org/2000/svg" xmlns:xlink="http://www.w3.org/1999/xlink">
<g id="graph0" class="graph" transform="scale(1 1) rotate(0) translate(4 235)">
<title>/home/sia/work/ADCP/Noise&#45;Estimation/code/imate/imate/functions/functions.h</title>
<polygon fill="white" stroke="transparent" points="-4,4 -4,-235 472,-235 472,4 -4,4"/>
<!-- Node1 -->
<g id="node1" class="node">
<title>Node1</title>
<g id="a_node1"><a xlink:title=" ">
<polygon fill="#bfbfbf" stroke="black" points="193,-178.5 193,-230.5 312,-230.5 312,-178.5 193,-178.5"/>
<text text-anchor="start" x="201" y="-218.5" font-family="Helvetica,sans-Serif" font-size="10.00">/home/sia/work/ADCP</text>
<text text-anchor="start" x="201" y="-207.5" font-family="Helvetica,sans-Serif" font-size="10.00">/Noise&#45;Estimation/code</text>
<text text-anchor="start" x="201" y="-196.5" font-family="Helvetica,sans-Serif" font-size="10.00">/imate/imate/functions</text>
<text text-anchor="middle" x="252.5" y="-185.5" font-family="Helvetica,sans-Serif" font-size="10.00">/functions.h</text>
</a>
</g>
</g>
<!-- Node2 -->
<g id="node2" class="node">
<title>Node2</title>
<g id="a_node2"><a xlink:href="c__trace__estimator_8h.html" target="_top" xlink:title=" ">
<polygon fill="white" stroke="black" points="5,-89.5 5,-141.5 156,-141.5 156,-89.5 5,-89.5"/>
<text text-anchor="start" x="13" y="-129.5" font-family="Helvetica,sans-Serif" font-size="10.00">/home/sia/work/ADCP</text>
<text text-anchor="start" x="13" y="-118.5" font-family="Helvetica,sans-Serif" font-size="10.00">/Noise&#45;Estimation/code</text>
<text text-anchor="start" x="13" y="-107.5" font-family="Helvetica,sans-Serif" font-size="10.00">/imate/imate/_c_trace</text>
<text text-anchor="middle" x="80.5" y="-96.5" font-family="Helvetica,sans-Serif" font-size="10.00">_estimator/c_trace_estimator.h</text>
</a>
</g>
</g>
<!-- Node1&#45;&gt;Node2 -->
<g id="edge1" class="edge">
<title>Node1&#45;&gt;Node2</title>
<path fill="none" stroke="midnightblue" d="M193.74,-173.78C173.04,-163.31 150,-151.66 130.14,-141.61"/>
<polygon fill="midnightblue" stroke="midnightblue" points="192.25,-176.95 202.75,-178.34 195.41,-170.7 192.25,-176.95"/>
</g>
<!-- Node4 -->
<g id="node4" class="node">
<title>Node4</title>
<g id="a_node4"><a xlink:href="cu__trace__estimator_8h.html" target="_top" xlink:title=" ">
<polygon fill="white" stroke="black" points="174.5,-89.5 174.5,-141.5 330.5,-141.5 330.5,-89.5 174.5,-89.5"/>
<text text-anchor="start" x="182.5" y="-129.5" font-family="Helvetica,sans-Serif" font-size="10.00">/home/sia/work/ADCP</text>
<text text-anchor="start" x="182.5" y="-118.5" font-family="Helvetica,sans-Serif" font-size="10.00">/Noise&#45;Estimation/code</text>
<text text-anchor="start" x="182.5" y="-107.5" font-family="Helvetica,sans-Serif" font-size="10.00">/imate/imate/_cu_trace</text>
<text text-anchor="middle" x="252.5" y="-96.5" font-family="Helvetica,sans-Serif" font-size="10.00">_estimator/cu_trace_estimator.h</text>
</a>
</g>
</g>
<!-- Node1&#45;&gt;Node4 -->
<g id="edge3" class="edge">
<title>Node1&#45;&gt;Node4</title>
<path fill="none" stroke="midnightblue" d="M252.5,-168.19C252.5,-159.28 252.5,-149.9 252.5,-141.61"/>
<polygon fill="midnightblue" stroke="midnightblue" points="249,-168.34 252.5,-178.34 256,-168.34 249,-168.34"/>
</g>
<!-- Node5 -->
<g id="node5" class="node">
<title>Node5</title>
<g id="a_node5"><a xlink:href="functions_8cpp.html" target="_top" xlink:title=" ">
<polygon fill="white" stroke="black" points="349,-89.5 349,-141.5 468,-141.5 468,-89.5 349,-89.5"/>
<text text-anchor="start" x="357" y="-129.5" font-family="Helvetica,sans-Serif" font-size="10.00">/home/sia/work/ADCP</text>
<text text-anchor="start" x="357" y="-118.5" font-family="Helvetica,sans-Serif" font-size="10.00">/Noise&#45;Estimation/code</text>
<text text-anchor="start" x="357" y="-107.5" font-family="Helvetica,sans-Serif" font-size="10.00">/imate/imate/functions</text>
<text text-anchor="middle" x="408.5" y="-96.5" font-family="Helvetica,sans-Serif" font-size="10.00">/functions.cpp</text>
</a>
</g>
</g>
<!-- Node1&#45;&gt;Node5 -->
<g id="edge4" class="edge">
<title>Node1&#45;&gt;Node5</title>
<path fill="none" stroke="midnightblue" d="M306.56,-173.35C325.13,-163 345.7,-151.52 363.48,-141.61"/>
<polygon fill="midnightblue" stroke="midnightblue" points="304.65,-170.41 297.62,-178.34 308.06,-176.52 304.65,-170.41"/>
</g>
<!-- Node3 -->
<g id="node3" class="node">
<title>Node3</title>
<g id="a_node3"><a xlink:href="c__trace__estimator_8cpp.html" target="_top" xlink:title=" ">
<polygon fill="white" stroke="black" points="0,-0.5 0,-52.5 161,-52.5 161,-0.5 0,-0.5"/>
<text text-anchor="start" x="8" y="-40.5" font-family="Helvetica,sans-Serif" font-size="10.00">/home/sia/work/ADCP</text>
<text text-anchor="start" x="8" y="-29.5" font-family="Helvetica,sans-Serif" font-size="10.00">/Noise&#45;Estimation/code</text>
<text text-anchor="start" x="8" y="-18.5" font-family="Helvetica,sans-Serif" font-size="10.00">/imate/imate/_c_trace</text>
<text text-anchor="middle" x="80.5" y="-7.5" font-family="Helvetica,sans-Serif" font-size="10.00">_estimator/c_trace_estimator.cpp</text>
</a>
</g>
</g>
<!-- Node2&#45;&gt;Node3 -->
<g id="edge2" class="edge">
<title>Node2&#45;&gt;Node3</title>
<path fill="none" stroke="midnightblue" d="M80.5,-79.19C80.5,-70.28 80.5,-60.9 80.5,-52.61"/>
<polygon fill="midnightblue" stroke="midnightblue" points="77,-79.34 80.5,-89.34 84,-79.34 77,-79.34"/>
</g>
</g>
</svg>
