<?xml version="1.0" encoding="UTF-8" standalone="no"?>
<!DOCTYPE svg PUBLIC "-//W3C//DTD SVG 1.1//EN"
 "http://www.w3.org/Graphics/SVG/1.1/DTD/svg11.dtd">
<!-- Generated by graphviz version 2.43.0 (0)
 -->
<!-- Title: /home/sia/work/ADCP/Noise&#45;Estimation/code/imate/imate/functions/functions.cpp Pages: 1 -->
<svg width="142pt" height="117pt"
 viewBox="0.00 0.00 141.50 117.00" xmlns="http://www.w3.org/2000/svg" xmlns:xlink="http://www.w3.org/1999/xlink">
<g id="graph0" class="graph" transform="scale(1 1) rotate(0) translate(4 113)">
<title>/home/sia/work/ADCP/Noise&#45;Estimation/code/imate/imate/functions/functions.cpp</title>
<polygon fill="white" stroke="transparent" points="-4,4 -4,-113 137.5,-113 137.5,4 -4,4"/>
<!-- Node1 -->
<g id="node1" class="node">
<title>Node1</title>
<g id="a_node1"><a xlink:title=" ">
<polygon fill="#bfbfbf" stroke="black" points="14,-56.5 14,-108.5 133,-108.5 133,-56.5 14,-56.5"/>
<text text-anchor="start" x="22" y="-96.5" font-family="Helvetica,sans-Serif" font-size="10.00">/home/sia/work/ADCP</text>
<text text-anchor="start" x="22" y="-85.5" font-family="Helvetica,sans-Serif" font-size="10.00">/Noise&#45;Estimation/code</text>
<text text-anchor="start" x="22" y="-74.5" font-family="Helvetica,sans-Serif" font-size="10.00">/imate/imate/functions</text>
<text text-anchor="middle" x="73.5" y="-63.5" font-family="Helvetica,sans-Serif" font-size="10.00">/functions.cpp</text>
</a>
</g>
</g>
<!-- Node2 -->
<g id="node2" class="node">
<title>Node2</title>
<g id="a_node2"><a xlink:href="functions_8h.html" target="_top" xlink:title=" ">
<polygon fill="white" stroke="black" points="0,-0.5 0,-19.5 71,-19.5 71,-0.5 0,-0.5"/>
<text text-anchor="middle" x="35.5" y="-7.5" font-family="Helvetica,sans-Serif" font-size="10.00">./functions.h</text>
</a>
</g>
</g>
<!-- Node1&#45;&gt;Node2 -->
<g id="edge1" class="edge">
<title>Node1&#45;&gt;Node2</title>
<path fill="none" stroke="midnightblue" d="M60,-56.45C55.03,-47.23 49.51,-37 44.97,-28.58"/>
<polygon fill="midnightblue" stroke="midnightblue" points="48.01,-26.84 40.19,-19.7 41.85,-30.16 48.01,-26.84"/>
</g>
<!-- Node3 -->
<g id="node3" class="node">
<title>Node3</title>
<g id="a_node3"><a xlink:title=" ">
<polygon fill="white" stroke="#bfbfbf" points="89.5,-0.5 89.5,-19.5 133.5,-19.5 133.5,-0.5 89.5,-0.5"/>
<text text-anchor="middle" x="111.5" y="-7.5" font-family="Helvetica,sans-Serif" font-size="10.00">cmath</text>
</a>
</g>
</g>
<!-- Node1&#45;&gt;Node3 -->
<g id="edge2" class="edge">
<title>Node1&#45;&gt;Node3</title>
<path fill="none" stroke="midnightblue" d="M87,-56.45C91.97,-47.23 97.49,-37 102.03,-28.58"/>
<polygon fill="midnightblue" stroke="midnightblue" points="105.15,-30.16 106.81,-19.7 98.99,-26.84 105.15,-30.16"/>
</g>
</g>
</svg>
