<?xml version="1.0" encoding="UTF-8" standalone="no"?>
<!DOCTYPE svg PUBLIC "-//W3C//DTD SVG 1.1//EN"
 "http://www.w3.org/Graphics/SVG/1.1/DTD/svg11.dtd">
<!-- Generated by graphviz version 2.43.0 (0)
 -->
<!-- Title: Graphical Class Hierarchy Pages: 1 -->
<svg width="699pt" height="399pt"
 viewBox="0.00 0.00 699.00 399.00" xmlns="http://www.w3.org/2000/svg" xmlns:xlink="http://www.w3.org/1999/xlink">
<g id="graph0" class="graph" transform="scale(1 1) rotate(0) translate(4 395)">
<title>Graphical Class Hierarchy</title>
<polygon fill="white" stroke="transparent" points="-4,4 -4,-395 695,-395 695,4 -4,4"/>
<!-- Node0 -->
<g id="node1" class="node">
<title>Node0</title>
<g id="a_node1"><a xlink:href="classcLinearOperator.html" target="_top" xlink:title="Base class for linear operators. This class serves as interface for all derived classes.">
<polygon fill="white" stroke="black" points="0,-186 0,-205 146,-205 146,-186 0,-186"/>
<text text-anchor="middle" x="73" y="-193" font-family="Helvetica,sans-Serif" font-size="10.00">cLinearOperator&lt; DataType &gt;</text>
</a>
</g>
</g>
<!-- Node1 -->
<g id="node2" class="node">
<title>Node1</title>
<g id="a_node2"><a xlink:href="classcAffineMatrixFunction.html" target="_top" xlink:title="Base class for affine matrix functions of one parameter.">
<polygon fill="white" stroke="black" points="201.5,-286.5 201.5,-316.5 313.5,-316.5 313.5,-286.5 201.5,-286.5"/>
<text text-anchor="start" x="209.5" y="-304.5" font-family="Helvetica,sans-Serif" font-size="10.00">cAffineMatrixFunction</text>
<text text-anchor="middle" x="257.5" y="-293.5" font-family="Helvetica,sans-Serif" font-size="10.00">&lt; DataType &gt;</text>
</a>
</g>
</g>
<!-- Node0&#45;&gt;Node1 -->
<g id="edge1" class="edge">
<title>Node0&#45;&gt;Node1</title>
<path fill="none" stroke="midnightblue" d="M99.53,-210.33C134.18,-230.46 195.76,-266.22 230.6,-286.46"/>
<polygon fill="midnightblue" stroke="midnightblue" points="100.92,-207.09 90.52,-205.09 97.41,-213.14 100.92,-207.09"/>
</g>
<!-- Node5 -->
<g id="node6" class="node">
<title>Node5</title>
<g id="a_node6"><a xlink:href="classcMatrix.html" target="_top" xlink:title="Base class for constant matrices.">
<polygon fill="white" stroke="black" points="203,-186 203,-205 312,-205 312,-186 203,-186"/>
<text text-anchor="middle" x="257.5" y="-193" font-family="Helvetica,sans-Serif" font-size="10.00">cMatrix&lt; DataType &gt;</text>
</a>
</g>
</g>
<!-- Node0&#45;&gt;Node5 -->
<g id="edge5" class="edge">
<title>Node0&#45;&gt;Node5</title>
<path fill="none" stroke="midnightblue" d="M156.42,-195.5C172.2,-195.5 188.33,-195.5 202.91,-195.5"/>
<polygon fill="midnightblue" stroke="midnightblue" points="156.13,-192 146.13,-195.5 156.13,-199 156.13,-192"/>
</g>
<!-- Node12 -->
<g id="node13" class="node">
<title>Node12</title>
<g id="a_node13"><a xlink:href="classcuLinearOperator.html" target="_top" xlink:title="Base class for linear operators. This class serves as interface for all derived classes.">
<polygon fill="white" stroke="black" points="182,-148 182,-167 333,-167 333,-148 182,-148"/>
<text text-anchor="middle" x="257.5" y="-155" font-family="Helvetica,sans-Serif" font-size="10.00">cuLinearOperator&lt; DataType &gt;</text>
</a>
</g>
</g>
<!-- Node0&#45;&gt;Node12 -->
<g id="edge12" class="edge">
<title>Node0&#45;&gt;Node12</title>
<path fill="none" stroke="midnightblue" d="M130.1,-183.82C155.98,-178.43 186.31,-172.11 210.78,-167.02"/>
<polygon fill="midnightblue" stroke="midnightblue" points="129.13,-180.45 120.05,-185.91 130.56,-187.3 129.13,-180.45"/>
</g>
<!-- Node2 -->
<g id="node3" class="node">
<title>Node2</title>
<g id="a_node3"><a xlink:href="classcCSCAffineMatrixFunction.html" target="_top" xlink:title=" ">
<polygon fill="white" stroke="black" points="372,-360.5 372,-390.5 506,-390.5 506,-360.5 372,-360.5"/>
<text text-anchor="start" x="380" y="-378.5" font-family="Helvetica,sans-Serif" font-size="10.00">cCSCAffineMatrixFunction</text>
<text text-anchor="middle" x="439" y="-367.5" font-family="Helvetica,sans-Serif" font-size="10.00">&lt; DataType &gt;</text>
</a>
</g>
</g>
<!-- Node1&#45;&gt;Node2 -->
<g id="edge2" class="edge">
<title>Node1&#45;&gt;Node2</title>
<path fill="none" stroke="midnightblue" d="M299.22,-320.99C319.93,-330.62 345.6,-342.16 369,-351.5 376.66,-354.56 384.87,-357.61 392.87,-360.46"/>
<polygon fill="midnightblue" stroke="midnightblue" points="300.63,-317.78 290.09,-316.71 297.66,-324.12 300.63,-317.78"/>
</g>
<!-- Node3 -->
<g id="node4" class="node">
<title>Node3</title>
<g id="a_node4"><a xlink:href="classcCSRAffineMatrixFunction.html" target="_top" xlink:title=" ">
<polygon fill="white" stroke="black" points="372,-311.5 372,-341.5 506,-341.5 506,-311.5 372,-311.5"/>
<text text-anchor="start" x="380" y="-329.5" font-family="Helvetica,sans-Serif" font-size="10.00">cCSRAffineMatrixFunction</text>
<text text-anchor="middle" x="439" y="-318.5" font-family="Helvetica,sans-Serif" font-size="10.00">&lt; DataType &gt;</text>
</a>
</g>
</g>
<!-- Node1&#45;&gt;Node3 -->
<g id="edge3" class="edge">
<title>Node1&#45;&gt;Node3</title>
<path fill="none" stroke="midnightblue" d="M323.9,-310.61C339.51,-312.78 356.18,-315.1 371.82,-317.28"/>
<polygon fill="midnightblue" stroke="midnightblue" points="324.21,-307.12 313.82,-309.2 323.24,-314.05 324.21,-307.12"/>
</g>
<!-- Node4 -->
<g id="node5" class="node">
<title>Node4</title>
<g id="a_node5"><a xlink:href="classcDenseAffineMatrixFunction.html" target="_top" xlink:title=" ">
<polygon fill="white" stroke="black" points="369,-262.5 369,-292.5 509,-292.5 509,-262.5 369,-262.5"/>
<text text-anchor="start" x="377" y="-280.5" font-family="Helvetica,sans-Serif" font-size="10.00">cDenseAffineMatrixFunction</text>
<text text-anchor="middle" x="439" y="-269.5" font-family="Helvetica,sans-Serif" font-size="10.00">&lt; DataType &gt;</text>
</a>
</g>
</g>
<!-- Node1&#45;&gt;Node4 -->
<g id="edge4" class="edge">
<title>Node1&#45;&gt;Node4</title>
<path fill="none" stroke="midnightblue" d="M323.81,-292.77C338.48,-290.81 354.1,-288.72 368.92,-286.74"/>
<polygon fill="midnightblue" stroke="midnightblue" points="323.27,-289.31 313.82,-294.1 324.2,-296.25 323.27,-289.31"/>
</g>
<!-- Node6 -->
<g id="node7" class="node">
<title>Node6</title>
<g id="a_node7"><a xlink:href="classcCSCMatrix.html" target="_top" xlink:title=" ">
<polygon fill="white" stroke="black" points="373.5,-224 373.5,-243 504.5,-243 504.5,-224 373.5,-224"/>
<text text-anchor="middle" x="439" y="-231" font-family="Helvetica,sans-Serif" font-size="10.00">cCSCMatrix&lt; DataType &gt;</text>
</a>
</g>
</g>
<!-- Node5&#45;&gt;Node6 -->
<g id="edge6" class="edge">
<title>Node5&#45;&gt;Node6</title>
<path fill="none" stroke="midnightblue" d="M313.68,-207.18C339.13,-212.57 368.97,-218.89 393.03,-223.98"/>
<polygon fill="midnightblue" stroke="midnightblue" points="314.3,-203.74 303.8,-205.09 312.85,-210.58 314.3,-203.74"/>
</g>
<!-- Node8 -->
<g id="node9" class="node">
<title>Node8</title>
<g id="a_node9"><a xlink:href="classcCSRMatrix.html" target="_top" xlink:title=" ">
<polygon fill="white" stroke="black" points="373.5,-186 373.5,-205 504.5,-205 504.5,-186 373.5,-186"/>
<text text-anchor="middle" x="439" y="-193" font-family="Helvetica,sans-Serif" font-size="10.00">cCSRMatrix&lt; DataType &gt;</text>
</a>
</g>
</g>
<!-- Node5&#45;&gt;Node8 -->
<g id="edge8" class="edge">
<title>Node5&#45;&gt;Node8</title>
<path fill="none" stroke="midnightblue" d="M322.47,-195.5C339.02,-195.5 356.84,-195.5 373.41,-195.5"/>
<polygon fill="midnightblue" stroke="midnightblue" points="322.36,-192 312.36,-195.5 322.36,-199 322.36,-192"/>
</g>
<!-- Node10 -->
<g id="node11" class="node">
<title>Node10</title>
<g id="a_node11"><a xlink:href="classcDenseMatrix.html" target="_top" xlink:title=" ">
<polygon fill="white" stroke="black" points="370.5,-110 370.5,-129 507.5,-129 507.5,-110 370.5,-110"/>
<text text-anchor="middle" x="439" y="-117" font-family="Helvetica,sans-Serif" font-size="10.00">cDenseMatrix&lt; DataType &gt;</text>
</a>
</g>
</g>
<!-- Node5&#45;&gt;Node10 -->
<g id="edge10" class="edge">
<title>Node5&#45;&gt;Node10</title>
<path fill="none" stroke="midnightblue" d="M321.32,-182.3C325.38,-180.59 329.31,-178.67 333,-176.5 353.06,-164.72 349.05,-150.47 369,-138.5 375.39,-134.66 382.58,-131.58 389.83,-129.11"/>
<polygon fill="midnightblue" stroke="midnightblue" points="319.82,-179.12 311.67,-185.89 322.26,-185.68 319.82,-179.12"/>
</g>
<!-- Node7 -->
<g id="node8" class="node">
<title>Node7</title>
<g id="a_node8"><a xlink:href="classcuCSCMatrix.html" target="_top" xlink:title=" ">
<polygon fill="white" stroke="black" points="550,-224 550,-243 686,-243 686,-224 550,-224"/>
<text text-anchor="middle" x="618" y="-231" font-family="Helvetica,sans-Serif" font-size="10.00">cuCSCMatrix&lt; DataType &gt;</text>
</a>
</g>
</g>
<!-- Node6&#45;&gt;Node7 -->
<g id="edge7" class="edge">
<title>Node6&#45;&gt;Node7</title>
<path fill="none" stroke="midnightblue" d="M514.78,-233.5C526.42,-233.5 538.39,-233.5 549.85,-233.5"/>
<polygon fill="midnightblue" stroke="midnightblue" points="514.65,-230 504.65,-233.5 514.65,-237 514.65,-230"/>
</g>
<!-- Node9 -->
<g id="node10" class="node">
<title>Node9</title>
<g id="a_node10"><a xlink:href="classcuCSRMatrix.html" target="_top" xlink:title=" ">
<polygon fill="white" stroke="black" points="550,-186 550,-205 686,-205 686,-186 550,-186"/>
<text text-anchor="middle" x="618" y="-193" font-family="Helvetica,sans-Serif" font-size="10.00">cuCSRMatrix&lt; DataType &gt;</text>
</a>
</g>
</g>
<!-- Node8&#45;&gt;Node9 -->
<g id="edge9" class="edge">
<title>Node8&#45;&gt;Node9</title>
<path fill="none" stroke="midnightblue" d="M514.78,-195.5C526.42,-195.5 538.39,-195.5 549.85,-195.5"/>
<polygon fill="midnightblue" stroke="midnightblue" points="514.65,-192 504.65,-195.5 514.65,-199 514.65,-192"/>
</g>
<!-- Node11 -->
<g id="node12" class="node">
<title>Node11</title>
<g id="a_node12"><a xlink:href="classcuDenseMatrix.html" target="_top" xlink:title=" ">
<polygon fill="white" stroke="black" points="546.5,-148 546.5,-167 689.5,-167 689.5,-148 546.5,-148"/>
<text text-anchor="middle" x="618" y="-155" font-family="Helvetica,sans-Serif" font-size="10.00">cuDenseMatrix&lt; DataType &gt;</text>
</a>
</g>
</g>
<!-- Node10&#45;&gt;Node11 -->
<g id="edge11" class="edge">
<title>Node10&#45;&gt;Node11</title>
<path fill="none" stroke="midnightblue" d="M494.74,-131.25C519.77,-136.63 549.03,-142.91 572.66,-147.98"/>
<polygon fill="midnightblue" stroke="midnightblue" points="495.18,-127.77 484.66,-129.09 493.71,-134.61 495.18,-127.77"/>
</g>
<!-- Node13 -->
<g id="node14" class="node">
<title>Node13</title>
<g id="a_node14"><a xlink:href="classcuAffineMatrixFunction.html" target="_top" xlink:title="Base class for affine matrix functions of one parameter.">
<polygon fill="white" stroke="black" points="380.5,-55.5 380.5,-85.5 497.5,-85.5 497.5,-55.5 380.5,-55.5"/>
<text text-anchor="start" x="388.5" y="-73.5" font-family="Helvetica,sans-Serif" font-size="10.00">cuAffineMatrixFunction</text>
<text text-anchor="middle" x="439" y="-62.5" font-family="Helvetica,sans-Serif" font-size="10.00">&lt; DataType &gt;</text>
</a>
</g>
</g>
<!-- Node12&#45;&gt;Node13 -->
<g id="edge13" class="edge">
<title>Node12&#45;&gt;Node13</title>
<path fill="none" stroke="midnightblue" d="M285.16,-143.12C307.39,-131.28 339.99,-114.27 369,-100.5 379.62,-95.46 391.3,-90.25 401.98,-85.62"/>
<polygon fill="midnightblue" stroke="midnightblue" points="283.48,-140.05 276.31,-147.85 286.78,-146.22 283.48,-140.05"/>
</g>
<!-- Node17 -->
<g id="node18" class="node">
<title>Node17</title>
<g id="a_node18"><a xlink:href="classcuMatrix.html" target="_top" xlink:title="Base class for constant matrices.">
<polygon fill="white" stroke="black" points="382,-148 382,-167 496,-167 496,-148 382,-148"/>
<text text-anchor="middle" x="439" y="-155" font-family="Helvetica,sans-Serif" font-size="10.00">cuMatrix&lt; DataType &gt;</text>
</a>
</g>
</g>
<!-- Node12&#45;&gt;Node17 -->
<g id="edge17" class="edge">
<title>Node12&#45;&gt;Node17</title>
<path fill="none" stroke="midnightblue" d="M343.44,-157.5C356.43,-157.5 369.56,-157.5 381.73,-157.5"/>
<polygon fill="midnightblue" stroke="midnightblue" points="343.06,-154 333.06,-157.5 343.06,-161 343.06,-154"/>
</g>
<!-- Node14 -->
<g id="node15" class="node">
<title>Node14</title>
<g id="a_node15"><a xlink:href="classcuCSCAffineMatrixFunction.html" target="_top" xlink:title=" ">
<polygon fill="white" stroke="black" points="548.5,-98.5 548.5,-128.5 687.5,-128.5 687.5,-98.5 548.5,-98.5"/>
<text text-anchor="start" x="556.5" y="-116.5" font-family="Helvetica,sans-Serif" font-size="10.00">cuCSCAffineMatrixFunction</text>
<text text-anchor="middle" x="618" y="-105.5" font-family="Helvetica,sans-Serif" font-size="10.00">&lt; DataType &gt;</text>
</a>
</g>
</g>
<!-- Node13&#45;&gt;Node14 -->
<g id="edge14" class="edge">
<title>Node13&#45;&gt;Node14</title>
<path fill="none" stroke="midnightblue" d="M507.96,-87.01C523.42,-90.77 539.76,-94.73 554.95,-98.43"/>
<polygon fill="midnightblue" stroke="midnightblue" points="508.5,-83.54 497.96,-84.58 506.85,-90.34 508.5,-83.54"/>
</g>
<!-- Node15 -->
<g id="node16" class="node">
<title>Node15</title>
<g id="a_node16"><a xlink:href="classcuCSRAffineMatrixFunction.html" target="_top" xlink:title=" ">
<polygon fill="white" stroke="black" points="548.5,-49.5 548.5,-79.5 687.5,-79.5 687.5,-49.5 548.5,-49.5"/>
<text text-anchor="start" x="556.5" y="-67.5" font-family="Helvetica,sans-Serif" font-size="10.00">cuCSRAffineMatrixFunction</text>
<text text-anchor="middle" x="618" y="-56.5" font-family="Helvetica,sans-Serif" font-size="10.00">&lt; DataType &gt;</text>
</a>
</g>
</g>
<!-- Node13&#45;&gt;Node15 -->
<g id="edge15" class="edge">
<title>Node13&#45;&gt;Node15</title>
<path fill="none" stroke="midnightblue" d="M507.96,-68.2C521.23,-67.75 535.15,-67.27 548.44,-66.82"/>
<polygon fill="midnightblue" stroke="midnightblue" points="507.83,-64.7 497.96,-68.54 508.07,-71.69 507.83,-64.7"/>
</g>
<!-- Node16 -->
<g id="node17" class="node">
<title>Node16</title>
<g id="a_node17"><a xlink:href="classcuDenseAffineMatrixFunction.html" target="_top" xlink:title=" ">
<polygon fill="white" stroke="black" points="545,-0.5 545,-30.5 691,-30.5 691,-0.5 545,-0.5"/>
<text text-anchor="start" x="553" y="-18.5" font-family="Helvetica,sans-Serif" font-size="10.00">cuDenseAffineMatrixFunction</text>
<text text-anchor="middle" x="618" y="-7.5" font-family="Helvetica,sans-Serif" font-size="10.00">&lt; DataType &gt;</text>
</a>
</g>
</g>
<!-- Node13&#45;&gt;Node16 -->
<g id="edge16" class="edge">
<title>Node13&#45;&gt;Node16</title>
<path fill="none" stroke="midnightblue" d="M497.96,-52.49C520.85,-45.38 546.85,-37.3 568.69,-30.51"/>
<polygon fill="midnightblue" stroke="midnightblue" points="496.88,-49.16 488.37,-55.47 498.95,-55.85 496.88,-49.16"/>
</g>
<!-- Node17&#45;&gt;Node7 -->
<g id="edge18" class="edge">
<title>Node17&#45;&gt;Node7</title>
<path fill="none" stroke="midnightblue" d="M497.59,-170.72C501.56,-172.42 505.4,-174.34 509,-176.5 528.95,-188.47 524.99,-202.63 545,-214.5 551.56,-218.39 558.92,-221.5 566.37,-223.97"/>
<polygon fill="midnightblue" stroke="midnightblue" points="498.76,-167.42 488.17,-167.11 496.25,-173.95 498.76,-167.42"/>
</g>
<!-- Node17&#45;&gt;Node9 -->
<g id="edge19" class="edge">
<title>Node17&#45;&gt;Node9</title>
<path fill="none" stroke="midnightblue" d="M494.74,-169.25C519.77,-174.63 549.03,-180.91 572.66,-185.98"/>
<polygon fill="midnightblue" stroke="midnightblue" points="495.18,-165.77 484.66,-167.09 493.71,-172.61 495.18,-165.77"/>
</g>
<!-- Node17&#45;&gt;Node11 -->
<g id="edge20" class="edge">
<title>Node17&#45;&gt;Node11</title>
<path fill="none" stroke="midnightblue" d="M506.33,-157.5C519.41,-157.5 533.19,-157.5 546.41,-157.5"/>
<polygon fill="midnightblue" stroke="midnightblue" points="506,-154 496,-157.5 506,-161 506,-154"/>
</g>
</g>
</svg>
