<?xml version="1.0" encoding="UTF-8" standalone="no"?>
<!DOCTYPE svg PUBLIC "-//W3C//DTD SVG 1.1//EN"
 "http://www.w3.org/Graphics/SVG/1.1/DTD/svg11.dtd">
<!-- Generated by graphviz version 2.43.0 (0)
 -->
<!-- Title: lapack_dstev Pages: 1 -->
<svg width="239pt" height="78pt"
 viewBox="0.00 0.00 239.00 77.50" xmlns="http://www.w3.org/2000/svg" xmlns:xlink="http://www.w3.org/1999/xlink">
<g id="graph0" class="graph" transform="scale(1 1) rotate(0) translate(4 73.5)">
<title>lapack_dstev</title>
<polygon fill="white" stroke="transparent" points="-4,4 -4,-73.5 235,-73.5 235,4 -4,4"/>
<!-- Node1 -->
<g id="node1" class="node">
<title>Node1</title>
<g id="a_node1"><a xlink:title=" ">
<polygon fill="#bfbfbf" stroke="black" points="157,-28 157,-47 231,-47 231,-28 157,-28"/>
<text text-anchor="middle" x="194" y="-35" font-family="Helvetica,sans-Serif" font-size="10.00">lapack_dstev</text>
</a>
</g>
</g>
<!-- Node2 -->
<g id="node2" class="node">
<title>Node2</title>
<g id="a_node2"><a xlink:href="lapack__api_8cpp.html#a63cb2208ad897938b54dcf054bf0ec93" target="_top" xlink:title="Overlodng wrapper for both lapack_sstev (a float function) and lapack_dstev (a double function)....">
<polygon fill="white" stroke="black" points="0,-50 0,-69 121,-69 121,-50 0,-50"/>
<text text-anchor="middle" x="60.5" y="-57" font-family="Helvetica,sans-Serif" font-size="10.00">lapack_xstev&lt; double &gt;</text>
</a>
</g>
</g>
<!-- Node1&#45;&gt;Node2 -->
<g id="edge1" class="edge">
<title>Node1&#45;&gt;Node2</title>
<path fill="none" stroke="midnightblue" d="M146.67,-45.25C137.53,-46.78 127.83,-48.4 118.39,-49.98"/>
<polygon fill="midnightblue" stroke="midnightblue" points="147.43,-48.67 156.72,-43.57 146.28,-41.77 147.43,-48.67"/>
</g>
<!-- Node3 -->
<g id="node3" class="node">
<title>Node3</title>
<g id="a_node3"><a xlink:href="lapack__api_8cpp.html#a6c4bb742d925dc40f9af42a2e5aa13ce" target="_top" xlink:title="Overlodng wrapper for both lapack_sstev (a float function) and lapack_dstev (a double function)....">
<polygon fill="white" stroke="black" points="10,-0.5 10,-30.5 111,-30.5 111,-0.5 10,-0.5"/>
<text text-anchor="start" x="18" y="-18.5" font-family="Helvetica,sans-Serif" font-size="10.00">lapack_xstev&lt; long</text>
<text text-anchor="middle" x="60.5" y="-7.5" font-family="Helvetica,sans-Serif" font-size="10.00"> double &gt;</text>
</a>
</g>
</g>
<!-- Node1&#45;&gt;Node3 -->
<g id="edge2" class="edge">
<title>Node1&#45;&gt;Node3</title>
<path fill="none" stroke="midnightblue" d="M146.56,-29.73C135.19,-27.83 122.97,-25.78 111.44,-23.86"/>
<polygon fill="midnightblue" stroke="midnightblue" points="146.28,-33.23 156.72,-31.43 147.43,-26.33 146.28,-33.23"/>
</g>
</g>
</svg>
