<?xml version="1.0" encoding="UTF-8" standalone="no"?>
<!DOCTYPE svg PUBLIC "-//W3C//DTD SVG 1.1//EN"
 "http://www.w3.org/Graphics/SVG/1.1/DTD/svg11.dtd">
<!-- Generated by graphviz version 2.43.0 (0)
 -->
<!-- Title: lapack_xstev Pages: 1 -->
<svg width="503pt" height="50pt"
 viewBox="0.00 0.00 503.00 50.00" xmlns="http://www.w3.org/2000/svg" xmlns:xlink="http://www.w3.org/1999/xlink">
<g id="graph0" class="graph" transform="scale(1 1) rotate(0) translate(4 46)">
<title>lapack_xstev</title>
<polygon fill="white" stroke="transparent" points="-4,4 -4,-46 499,-46 499,4 -4,4"/>
<!-- Node1 -->
<g id="node1" class="node">
<title>Node1</title>
<g id="a_node1"><a xlink:title=" ">
<polygon fill="#bfbfbf" stroke="black" points="421,-11.5 421,-30.5 495,-30.5 495,-11.5 421,-11.5"/>
<text text-anchor="middle" x="458" y="-18.5" font-family="Helvetica,sans-Serif" font-size="10.00">lapack_xstev</text>
</a>
</g>
</g>
<!-- Node2 -->
<g id="node2" class="node">
<title>Node2</title>
<g id="a_node2"><a xlink:href="classDiagonalization.html#a18924365b0d74983ead3901886d51204" target="_top" xlink:title="Computes all eigenvalues and eigenvectors of a real and symmetric tridiagonal matrix.">
<polygon fill="white" stroke="black" points="278,-6 278,-36 385,-36 385,-6 278,-6"/>
<text text-anchor="start" x="286" y="-24" font-family="Helvetica,sans-Serif" font-size="10.00">Diagonalization::eigh</text>
<text text-anchor="middle" x="331.5" y="-13" font-family="Helvetica,sans-Serif" font-size="10.00">_tridiagonal</text>
</a>
</g>
</g>
<!-- Node1&#45;&gt;Node2 -->
<g id="edge1" class="edge">
<title>Node1&#45;&gt;Node2</title>
<path fill="none" stroke="midnightblue" d="M410.97,-21C402.55,-21 393.7,-21 385.1,-21"/>
<polygon fill="midnightblue" stroke="midnightblue" points="410.99,-24.5 420.99,-21 410.99,-17.5 410.99,-24.5"/>
</g>
<!-- Node3 -->
<g id="node3" class="node">
<title>Node3</title>
<g id="a_node3"><a xlink:href="classcTraceEstimator.html#a02afa505a915c58380b99a62e4d56b30" target="_top" xlink:title="For a given random input vector, computes one Monte&#45;Carlo sample to estimate trace using Lanczos quad...">
<polygon fill="white" stroke="black" points="136,-0.5 136,-41.5 242,-41.5 242,-0.5 136,-0.5"/>
<text text-anchor="start" x="144" y="-29.5" font-family="Helvetica,sans-Serif" font-size="10.00">cTraceEstimator::_c</text>
<text text-anchor="start" x="144" y="-18.5" font-family="Helvetica,sans-Serif" font-size="10.00">_stochastic_lanczos</text>
<text text-anchor="middle" x="189" y="-7.5" font-family="Helvetica,sans-Serif" font-size="10.00">_quadrature</text>
</a>
</g>
</g>
<!-- Node2&#45;&gt;Node3 -->
<g id="edge2" class="edge">
<title>Node2&#45;&gt;Node3</title>
<path fill="none" stroke="midnightblue" d="M267.52,-21C259.01,-21 250.36,-21 242.08,-21"/>
<polygon fill="midnightblue" stroke="midnightblue" points="267.78,-24.5 277.78,-21 267.78,-17.5 267.78,-24.5"/>
</g>
<!-- Node4 -->
<g id="node4" class="node">
<title>Node4</title>
<g id="a_node4"><a xlink:href="classcTraceEstimator.html#a29144b4d62c71f0889002754384f57f4" target="_top" xlink:title="Stochastic Lanczos quadrature method to estimate trace of a function of a linear operator....">
<polygon fill="white" stroke="black" points="0,-6 0,-36 100,-36 100,-6 0,-6"/>
<text text-anchor="start" x="8" y="-24" font-family="Helvetica,sans-Serif" font-size="10.00">cTraceEstimator::c</text>
<text text-anchor="middle" x="50" y="-13" font-family="Helvetica,sans-Serif" font-size="10.00">_trace_estimator</text>
</a>
</g>
</g>
<!-- Node3&#45;&gt;Node4 -->
<g id="edge3" class="edge">
<title>Node3&#45;&gt;Node4</title>
<path fill="none" stroke="midnightblue" d="M125.58,-21C117.12,-21 108.53,-21 100.33,-21"/>
<polygon fill="midnightblue" stroke="midnightblue" points="125.82,-24.5 135.82,-21 125.82,-17.5 125.82,-24.5"/>
</g>
</g>
</svg>
