<?xml version="1.0" encoding="UTF-8" standalone="no"?>
<!DOCTYPE svg PUBLIC "-//W3C//DTD SVG 1.1//EN"
 "http://www.w3.org/Graphics/SVG/1.1/DTD/svg11.dtd">
<!-- Generated by graphviz version 2.43.0 (0)
 -->
<!-- Title: /home/sia/work/ADCP/Noise&#45;Estimation/code/imate/imate/_random_generator/random_number_generator.h Pages: 1 -->
<svg width="797pt" height="239pt"
 viewBox="0.00 0.00 796.50 239.00" xmlns="http://www.w3.org/2000/svg" xmlns:xlink="http://www.w3.org/1999/xlink">
<g id="graph0" class="graph" transform="scale(1 1) rotate(0) translate(4 235)">
<title>/home/sia/work/ADCP/Noise&#45;Estimation/code/imate/imate/_random_generator/random_number_generator.h</title>
<polygon fill="white" stroke="transparent" points="-4,4 -4,-235 792.5,-235 792.5,4 -4,4"/>
<!-- Node1 -->
<g id="node1" class="node">
<title>Node1</title>
<g id="a_node1"><a xlink:title=" ">
<polygon fill="#bfbfbf" stroke="black" points="287.5,-178.5 287.5,-230.5 444.5,-230.5 444.5,-178.5 287.5,-178.5"/>
<text text-anchor="start" x="295.5" y="-218.5" font-family="Helvetica,sans-Serif" font-size="10.00">/home/sia/work/ADCP</text>
<text text-anchor="start" x="295.5" y="-207.5" font-family="Helvetica,sans-Serif" font-size="10.00">/Noise&#45;Estimation/code</text>
<text text-anchor="start" x="295.5" y="-196.5" font-family="Helvetica,sans-Serif" font-size="10.00">/imate/imate/_random_generator</text>
<text text-anchor="middle" x="366" y="-185.5" font-family="Helvetica,sans-Serif" font-size="10.00">/random_number_generator.h</text>
</a>
</g>
</g>
<!-- Node2 -->
<g id="node2" class="node">
<title>Node2</title>
<g id="a_node2"><a xlink:href="c__orthogonalization_8cpp.html" target="_top" xlink:title=" ">
<polygon fill="white" stroke="black" points="0,-0.5 0,-52.5 168,-52.5 168,-0.5 0,-0.5"/>
<text text-anchor="start" x="8" y="-40.5" font-family="Helvetica,sans-Serif" font-size="10.00">/home/sia/work/ADCP</text>
<text text-anchor="start" x="8" y="-29.5" font-family="Helvetica,sans-Serif" font-size="10.00">/Noise&#45;Estimation/code</text>
<text text-anchor="start" x="8" y="-18.5" font-family="Helvetica,sans-Serif" font-size="10.00">/imate/imate/_c_trace</text>
<text text-anchor="middle" x="84" y="-7.5" font-family="Helvetica,sans-Serif" font-size="10.00">_estimator/c_orthogonalization.cpp</text>
</a>
</g>
</g>
<!-- Node1&#45;&gt;Node2 -->
<g id="edge1" class="edge">
<title>Node1&#45;&gt;Node2</title>
<path fill="none" stroke="midnightblue" d="M277.29,-193.36C210.54,-183.85 126.67,-167.27 103,-142 80.68,-118.18 79,-78.65 80.78,-52.84"/>
<polygon fill="midnightblue" stroke="midnightblue" points="277.03,-196.85 287.42,-194.76 278,-189.92 277.03,-196.85"/>
</g>
<!-- Node3 -->
<g id="node3" class="node">
<title>Node3</title>
<g id="a_node3"><a xlink:href="c__trace__estimator_8h.html" target="_top" xlink:title=" ">
<polygon fill="white" stroke="black" points="462.5,-89.5 462.5,-141.5 613.5,-141.5 613.5,-89.5 462.5,-89.5"/>
<text text-anchor="start" x="470.5" y="-129.5" font-family="Helvetica,sans-Serif" font-size="10.00">/home/sia/work/ADCP</text>
<text text-anchor="start" x="470.5" y="-118.5" font-family="Helvetica,sans-Serif" font-size="10.00">/Noise&#45;Estimation/code</text>
<text text-anchor="start" x="470.5" y="-107.5" font-family="Helvetica,sans-Serif" font-size="10.00">/imate/imate/_c_trace</text>
<text text-anchor="middle" x="538" y="-96.5" font-family="Helvetica,sans-Serif" font-size="10.00">_estimator/c_trace_estimator.h</text>
</a>
</g>
</g>
<!-- Node1&#45;&gt;Node3 -->
<g id="edge2" class="edge">
<title>Node1&#45;&gt;Node3</title>
<path fill="none" stroke="midnightblue" d="M424.76,-173.78C445.46,-163.31 468.5,-151.66 488.36,-141.61"/>
<polygon fill="midnightblue" stroke="midnightblue" points="423.09,-170.7 415.75,-178.34 426.25,-176.95 423.09,-170.7"/>
</g>
<!-- Node5 -->
<g id="node5" class="node">
<title>Node5</title>
<g id="a_node5"><a xlink:href="cu__trace__estimator_8h.html" target="_top" xlink:title=" ">
<polygon fill="white" stroke="black" points="288,-89.5 288,-141.5 444,-141.5 444,-89.5 288,-89.5"/>
<text text-anchor="start" x="296" y="-129.5" font-family="Helvetica,sans-Serif" font-size="10.00">/home/sia/work/ADCP</text>
<text text-anchor="start" x="296" y="-118.5" font-family="Helvetica,sans-Serif" font-size="10.00">/Noise&#45;Estimation/code</text>
<text text-anchor="start" x="296" y="-107.5" font-family="Helvetica,sans-Serif" font-size="10.00">/imate/imate/_cu_trace</text>
<text text-anchor="middle" x="366" y="-96.5" font-family="Helvetica,sans-Serif" font-size="10.00">_estimator/cu_trace_estimator.h</text>
</a>
</g>
</g>
<!-- Node1&#45;&gt;Node5 -->
<g id="edge4" class="edge">
<title>Node1&#45;&gt;Node5</title>
<path fill="none" stroke="midnightblue" d="M366,-168.19C366,-159.28 366,-149.9 366,-141.61"/>
<polygon fill="midnightblue" stroke="midnightblue" points="362.5,-168.34 366,-178.34 369.5,-168.34 362.5,-168.34"/>
</g>
<!-- Node6 -->
<g id="node6" class="node">
<title>Node6</title>
<g id="a_node6"><a xlink:href="random__array__generator_8h.html" target="_top" xlink:title=" ">
<polygon fill="white" stroke="black" points="112.5,-89.5 112.5,-141.5 269.5,-141.5 269.5,-89.5 112.5,-89.5"/>
<text text-anchor="start" x="120.5" y="-129.5" font-family="Helvetica,sans-Serif" font-size="10.00">/home/sia/work/ADCP</text>
<text text-anchor="start" x="120.5" y="-118.5" font-family="Helvetica,sans-Serif" font-size="10.00">/Noise&#45;Estimation/code</text>
<text text-anchor="start" x="120.5" y="-107.5" font-family="Helvetica,sans-Serif" font-size="10.00">/imate/imate/_random_generator</text>
<text text-anchor="middle" x="191" y="-96.5" font-family="Helvetica,sans-Serif" font-size="10.00">/random_array_generator.h</text>
</a>
</g>
</g>
<!-- Node1&#45;&gt;Node6 -->
<g id="edge5" class="edge">
<title>Node1&#45;&gt;Node6</title>
<path fill="none" stroke="midnightblue" d="M306.21,-173.78C285.16,-163.31 261.72,-151.66 241.5,-141.61"/>
<polygon fill="midnightblue" stroke="midnightblue" points="304.87,-177.02 315.38,-178.34 307.99,-170.75 304.87,-177.02"/>
</g>
<!-- Node8 -->
<g id="node8" class="node">
<title>Node8</title>
<g id="a_node8"><a xlink:href="random__number__generator_8cpp.html" target="_top" xlink:title=" ">
<polygon fill="white" stroke="black" points="631.5,-89.5 631.5,-141.5 788.5,-141.5 788.5,-89.5 631.5,-89.5"/>
<text text-anchor="start" x="639.5" y="-129.5" font-family="Helvetica,sans-Serif" font-size="10.00">/home/sia/work/ADCP</text>
<text text-anchor="start" x="639.5" y="-118.5" font-family="Helvetica,sans-Serif" font-size="10.00">/Noise&#45;Estimation/code</text>
<text text-anchor="start" x="639.5" y="-107.5" font-family="Helvetica,sans-Serif" font-size="10.00">/imate/imate/_random_generator</text>
<text text-anchor="middle" x="710" y="-96.5" font-family="Helvetica,sans-Serif" font-size="10.00">/random_number_generator.cpp</text>
</a>
</g>
</g>
<!-- Node1&#45;&gt;Node8 -->
<g id="edge9" class="edge">
<title>Node1&#45;&gt;Node8</title>
<path fill="none" stroke="midnightblue" d="M454.46,-183.49C504.15,-171.96 567.2,-156.84 623,-142 625.74,-141.27 628.52,-140.52 631.33,-139.75"/>
<polygon fill="midnightblue" stroke="midnightblue" points="453.66,-180.08 444.71,-185.74 455.24,-186.9 453.66,-180.08"/>
</g>
<!-- Node4 -->
<g id="node4" class="node">
<title>Node4</title>
<g id="a_node4"><a xlink:href="c__trace__estimator_8cpp.html" target="_top" xlink:title=" ">
<polygon fill="white" stroke="black" points="409.5,-0.5 409.5,-52.5 570.5,-52.5 570.5,-0.5 409.5,-0.5"/>
<text text-anchor="start" x="417.5" y="-40.5" font-family="Helvetica,sans-Serif" font-size="10.00">/home/sia/work/ADCP</text>
<text text-anchor="start" x="417.5" y="-29.5" font-family="Helvetica,sans-Serif" font-size="10.00">/Noise&#45;Estimation/code</text>
<text text-anchor="start" x="417.5" y="-18.5" font-family="Helvetica,sans-Serif" font-size="10.00">/imate/imate/_c_trace</text>
<text text-anchor="middle" x="490" y="-7.5" font-family="Helvetica,sans-Serif" font-size="10.00">_estimator/c_trace_estimator.cpp</text>
</a>
</g>
</g>
<!-- Node3&#45;&gt;Node4 -->
<g id="edge3" class="edge">
<title>Node3&#45;&gt;Node4</title>
<path fill="none" stroke="midnightblue" d="M519.16,-80.35C514.06,-71.1 508.63,-61.26 503.85,-52.61"/>
<polygon fill="midnightblue" stroke="midnightblue" points="516.22,-82.27 524.12,-89.34 522.35,-78.89 516.22,-82.27"/>
</g>
<!-- Node6&#45;&gt;Node2 -->
<g id="edge6" class="edge">
<title>Node6&#45;&gt;Node2</title>
<path fill="none" stroke="midnightblue" d="M152.18,-82.93C139.91,-72.96 126.52,-62.07 114.88,-52.61"/>
<polygon fill="midnightblue" stroke="midnightblue" points="150.08,-85.74 160.05,-89.34 154.5,-80.31 150.08,-85.74"/>
</g>
<!-- Node6&#45;&gt;Node4 -->
<g id="edge7" class="edge">
<title>Node6&#45;&gt;Node4</title>
<path fill="none" stroke="midnightblue" d="M279.31,-88.8C320.5,-76.82 369.18,-62.66 409.36,-50.96"/>
<polygon fill="midnightblue" stroke="midnightblue" points="278.18,-85.49 269.56,-91.64 280.14,-92.21 278.18,-85.49"/>
</g>
<!-- Node7 -->
<g id="node7" class="node">
<title>Node7</title>
<g id="a_node7"><a xlink:href="random__array__generator_8cpp.html" target="_top" xlink:title=" ">
<polygon fill="white" stroke="black" points="186.5,-0.5 186.5,-52.5 343.5,-52.5 343.5,-0.5 186.5,-0.5"/>
<text text-anchor="start" x="194.5" y="-40.5" font-family="Helvetica,sans-Serif" font-size="10.00">/home/sia/work/ADCP</text>
<text text-anchor="start" x="194.5" y="-29.5" font-family="Helvetica,sans-Serif" font-size="10.00">/Noise&#45;Estimation/code</text>
<text text-anchor="start" x="194.5" y="-18.5" font-family="Helvetica,sans-Serif" font-size="10.00">/imate/imate/_random_generator</text>
<text text-anchor="middle" x="265" y="-7.5" font-family="Helvetica,sans-Serif" font-size="10.00">/random_array_generator.cpp</text>
</a>
</g>
</g>
<!-- Node6&#45;&gt;Node7 -->
<g id="edge8" class="edge">
<title>Node6&#45;&gt;Node7</title>
<path fill="none" stroke="midnightblue" d="M219.07,-81.5C227.22,-71.92 235.98,-61.62 243.64,-52.61"/>
<polygon fill="midnightblue" stroke="midnightblue" points="216.22,-79.45 212.4,-89.34 221.55,-83.99 216.22,-79.45"/>
</g>
</g>
</svg>
