<?xml version="1.0" encoding="UTF-8" standalone="no"?>
<!DOCTYPE svg PUBLIC "-//W3C//DTD SVG 1.1//EN"
 "http://www.w3.org/Graphics/SVG/1.1/DTD/svg11.dtd">
<!-- Generated by graphviz version 2.43.0 (0)
 -->
<!-- Title: /home/sia/work/ADCP/Noise&#45;Estimation/code/imate/imate/_random_generator/random_number_generator.cpp Pages: 1 -->
<svg width="400pt" height="184pt"
 viewBox="0.00 0.00 399.50 184.00" xmlns="http://www.w3.org/2000/svg" xmlns:xlink="http://www.w3.org/1999/xlink">
<g id="graph0" class="graph" transform="scale(1 1) rotate(0) translate(4 180)">
<title>/home/sia/work/ADCP/Noise&#45;Estimation/code/imate/imate/_random_generator/random_number_generator.cpp</title>
<polygon fill="white" stroke="transparent" points="-4,4 -4,-180 395.5,-180 395.5,4 -4,4"/>
<!-- Node1 -->
<g id="node1" class="node">
<title>Node1</title>
<g id="a_node1"><a xlink:title=" ">
<polygon fill="#bfbfbf" stroke="black" points="142.5,-123.5 142.5,-175.5 299.5,-175.5 299.5,-123.5 142.5,-123.5"/>
<text text-anchor="start" x="150.5" y="-163.5" font-family="Helvetica,sans-Serif" font-size="10.00">/home/sia/work/ADCP</text>
<text text-anchor="start" x="150.5" y="-152.5" font-family="Helvetica,sans-Serif" font-size="10.00">/Noise&#45;Estimation/code</text>
<text text-anchor="start" x="150.5" y="-141.5" font-family="Helvetica,sans-Serif" font-size="10.00">/imate/imate/_random_generator</text>
<text text-anchor="middle" x="221" y="-130.5" font-family="Helvetica,sans-Serif" font-size="10.00">/random_number_generator.cpp</text>
</a>
</g>
</g>
<!-- Node2 -->
<g id="node2" class="node">
<title>Node2</title>
<g id="a_node2"><a xlink:href="random__number__generator_8h.html" target="_top" xlink:title=" ">
<polygon fill="white" stroke="black" points="0,-62 0,-81 146,-81 146,-62 0,-62"/>
<text text-anchor="middle" x="73" y="-69" font-family="Helvetica,sans-Serif" font-size="10.00">./random_number_generator.h</text>
</a>
</g>
</g>
<!-- Node1&#45;&gt;Node2 -->
<g id="edge1" class="edge">
<title>Node1&#45;&gt;Node2</title>
<path fill="none" stroke="midnightblue" d="M172.13,-123.4C147.56,-110.79 118.8,-96.02 98.6,-85.65"/>
<polygon fill="midnightblue" stroke="midnightblue" points="100.2,-82.53 89.7,-81.08 97,-88.76 100.2,-82.53"/>
</g>
<!-- Node4 -->
<g id="node4" class="node">
<title>Node4</title>
<g id="a_node4"><a xlink:title=" ">
<polygon fill="white" stroke="#bfbfbf" points="164.5,-62 164.5,-81 213.5,-81 213.5,-62 164.5,-62"/>
<text text-anchor="middle" x="189" y="-69" font-family="Helvetica,sans-Serif" font-size="10.00">cassert</text>
</a>
</g>
</g>
<!-- Node1&#45;&gt;Node4 -->
<g id="edge3" class="edge">
<title>Node1&#45;&gt;Node4</title>
<path fill="none" stroke="midnightblue" d="M210.34,-123.19C205.86,-112.54 200.74,-100.38 196.64,-90.64"/>
<polygon fill="midnightblue" stroke="midnightblue" points="199.77,-89.07 192.67,-81.21 193.32,-91.78 199.77,-89.07"/>
</g>
<!-- Node5 -->
<g id="node5" class="node">
<title>Node5</title>
<g id="a_node5"><a xlink:title=" ">
<polygon fill="white" stroke="#bfbfbf" points="231.5,-62 231.5,-81 276.5,-81 276.5,-62 231.5,-62"/>
<text text-anchor="middle" x="254" y="-69" font-family="Helvetica,sans-Serif" font-size="10.00">cstdlib</text>
</a>
</g>
</g>
<!-- Node1&#45;&gt;Node5 -->
<g id="edge4" class="edge">
<title>Node1&#45;&gt;Node5</title>
<path fill="none" stroke="midnightblue" d="M231.99,-123.19C236.61,-112.54 241.89,-100.38 246.12,-90.64"/>
<polygon fill="midnightblue" stroke="midnightblue" points="249.45,-91.78 250.22,-81.21 243.03,-88.99 249.45,-91.78"/>
</g>
<!-- Node6 -->
<g id="node6" class="node">
<title>Node6</title>
<g id="a_node6"><a xlink:href="xoshiro__256__star__star_8h.html" target="_top" xlink:title=" ">
<polygon fill="white" stroke="black" points="294.5,-56.5 294.5,-86.5 391.5,-86.5 391.5,-56.5 294.5,-56.5"/>
<text text-anchor="start" x="302.5" y="-74.5" font-family="Helvetica,sans-Serif" font-size="10.00">./xoshiro_256_star</text>
<text text-anchor="middle" x="343" y="-63.5" font-family="Helvetica,sans-Serif" font-size="10.00">_star.h</text>
</a>
</g>
</g>
<!-- Node1&#45;&gt;Node6 -->
<g id="edge5" class="edge">
<title>Node1&#45;&gt;Node6</title>
<path fill="none" stroke="midnightblue" d="M261.29,-123.4C277.65,-113.21 296.26,-101.61 311.59,-92.07"/>
<polygon fill="midnightblue" stroke="midnightblue" points="313.56,-94.96 320.19,-86.71 309.86,-89.02 313.56,-94.96"/>
</g>
<!-- Node3 -->
<g id="node3" class="node">
<title>Node3</title>
<g id="a_node3"><a xlink:title=" ">
<polygon fill="white" stroke="#bfbfbf" points="183.5,-0.5 183.5,-19.5 232.5,-19.5 232.5,-0.5 183.5,-0.5"/>
<text text-anchor="middle" x="208" y="-7.5" font-family="Helvetica,sans-Serif" font-size="10.00">stdint.h</text>
</a>
</g>
</g>
<!-- Node2&#45;&gt;Node3 -->
<g id="edge2" class="edge">
<title>Node2&#45;&gt;Node3</title>
<path fill="none" stroke="midnightblue" d="M92.34,-61.98C115.1,-51.95 153.09,-35.2 179.29,-23.65"/>
<polygon fill="midnightblue" stroke="midnightblue" points="180.95,-26.74 188.69,-19.51 178.13,-20.34 180.95,-26.74"/>
</g>
<!-- Node6&#45;&gt;Node3 -->
<g id="edge6" class="edge">
<title>Node6&#45;&gt;Node3</title>
<path fill="none" stroke="midnightblue" d="M311.01,-56.4C288.56,-46.51 258.79,-33.38 237.02,-23.79"/>
<polygon fill="midnightblue" stroke="midnightblue" points="238.21,-20.49 227.64,-19.66 235.38,-26.89 238.21,-20.49"/>
</g>
</g>
</svg>
