<?xml version="1.0" encoding="UTF-8" standalone="no"?>
<!DOCTYPE svg PUBLIC "-//W3C//DTD SVG 1.1//EN"
 "http://www.w3.org/Graphics/SVG/1.1/DTD/svg11.dtd">
<!-- Generated by graphviz version 2.43.0 (0)
 -->
<!-- Title: /home/sia/work/ADCP/Noise&#45;Estimation/code/imate/imate/_random_generator/split_mix_64.cpp Pages: 1 -->
<svg width="221pt" height="173pt"
 viewBox="0.00 0.00 220.50 173.00" xmlns="http://www.w3.org/2000/svg" xmlns:xlink="http://www.w3.org/1999/xlink">
<g id="graph0" class="graph" transform="scale(1 1) rotate(0) translate(4 169)">
<title>/home/sia/work/ADCP/Noise&#45;Estimation/code/imate/imate/_random_generator/split_mix_64.cpp</title>
<polygon fill="white" stroke="transparent" points="-4,4 -4,-169 216.5,-169 216.5,4 -4,4"/>
<!-- Node1 -->
<g id="node1" class="node">
<title>Node1</title>
<g id="a_node1"><a xlink:title=" ">
<polygon fill="#bfbfbf" stroke="black" points="50.5,-112.5 50.5,-164.5 207.5,-164.5 207.5,-112.5 50.5,-112.5"/>
<text text-anchor="start" x="58.5" y="-152.5" font-family="Helvetica,sans-Serif" font-size="10.00">/home/sia/work/ADCP</text>
<text text-anchor="start" x="58.5" y="-141.5" font-family="Helvetica,sans-Serif" font-size="10.00">/Noise&#45;Estimation/code</text>
<text text-anchor="start" x="58.5" y="-130.5" font-family="Helvetica,sans-Serif" font-size="10.00">/imate/imate/_random_generator</text>
<text text-anchor="middle" x="129" y="-119.5" font-family="Helvetica,sans-Serif" font-size="10.00">/split_mix_64.cpp</text>
</a>
</g>
</g>
<!-- Node2 -->
<g id="node2" class="node">
<title>Node2</title>
<g id="a_node2"><a xlink:href="split__mix__64_8h.html" target="_top" xlink:title=" ">
<polygon fill="white" stroke="black" points="0,-56.5 0,-75.5 86,-75.5 86,-56.5 0,-56.5"/>
<text text-anchor="middle" x="43" y="-63.5" font-family="Helvetica,sans-Serif" font-size="10.00">./split_mix_64.h</text>
</a>
</g>
</g>
<!-- Node1&#45;&gt;Node2 -->
<g id="edge1" class="edge">
<title>Node1&#45;&gt;Node2</title>
<path fill="none" stroke="midnightblue" d="M98.44,-112.45C86.09,-102.33 72.26,-90.98 61.49,-82.16"/>
<polygon fill="midnightblue" stroke="midnightblue" points="63.56,-79.33 53.61,-75.7 59.12,-84.74 63.56,-79.33"/>
</g>
<!-- Node4 -->
<g id="node4" class="node">
<title>Node4</title>
<g id="a_node4"><a xlink:title=" ">
<polygon fill="white" stroke="#bfbfbf" points="104.5,-56.5 104.5,-75.5 153.5,-75.5 153.5,-56.5 104.5,-56.5"/>
<text text-anchor="middle" x="129" y="-63.5" font-family="Helvetica,sans-Serif" font-size="10.00">cassert</text>
</a>
</g>
</g>
<!-- Node1&#45;&gt;Node4 -->
<g id="edge3" class="edge">
<title>Node1&#45;&gt;Node4</title>
<path fill="none" stroke="midnightblue" d="M129,-112.45C129,-103.73 129,-94.1 129,-85.96"/>
<polygon fill="midnightblue" stroke="midnightblue" points="132.5,-85.7 129,-75.7 125.5,-85.7 132.5,-85.7"/>
</g>
<!-- Node5 -->
<g id="node5" class="node">
<title>Node5</title>
<g id="a_node5"><a xlink:title=" ">
<polygon fill="white" stroke="#bfbfbf" points="171.5,-56.5 171.5,-75.5 212.5,-75.5 212.5,-56.5 171.5,-56.5"/>
<text text-anchor="middle" x="192" y="-63.5" font-family="Helvetica,sans-Serif" font-size="10.00">ctime</text>
</a>
</g>
</g>
<!-- Node1&#45;&gt;Node5 -->
<g id="edge4" class="edge">
<title>Node1&#45;&gt;Node5</title>
<path fill="none" stroke="midnightblue" d="M151.39,-112.45C160.07,-102.73 169.77,-91.88 177.51,-83.22"/>
<polygon fill="midnightblue" stroke="midnightblue" points="180.18,-85.48 184.23,-75.7 174.96,-80.82 180.18,-85.48"/>
</g>
<!-- Node3 -->
<g id="node3" class="node">
<title>Node3</title>
<g id="a_node3"><a xlink:title=" ">
<polygon fill="white" stroke="#bfbfbf" points="18.5,-0.5 18.5,-19.5 67.5,-19.5 67.5,-0.5 18.5,-0.5"/>
<text text-anchor="middle" x="43" y="-7.5" font-family="Helvetica,sans-Serif" font-size="10.00">stdint.h</text>
</a>
</g>
</g>
<!-- Node2&#45;&gt;Node3 -->
<g id="edge2" class="edge">
<title>Node2&#45;&gt;Node3</title>
<path fill="none" stroke="midnightblue" d="M43,-56.08C43,-49.01 43,-38.86 43,-29.99"/>
<polygon fill="midnightblue" stroke="midnightblue" points="46.5,-29.75 43,-19.75 39.5,-29.75 46.5,-29.75"/>
</g>
</g>
</svg>
