<?xml version="1.0" encoding="UTF-8" standalone="no"?>
<!DOCTYPE svg PUBLIC "-//W3C//DTD SVG 1.1//EN"
 "http://www.w3.org/Graphics/SVG/1.1/DTD/svg11.dtd">
<!-- Generated by graphviz version 2.43.0 (0)
 -->
<!-- Title: /home/sia/work/ADCP/Noise&#45;Estimation/code/imate/imate/_utilities/timer.cpp Pages: 1 -->
<svg width="200pt" height="117pt"
 viewBox="0.00 0.00 199.50 117.00" xmlns="http://www.w3.org/2000/svg" xmlns:xlink="http://www.w3.org/1999/xlink">
<g id="graph0" class="graph" transform="scale(1 1) rotate(0) translate(4 113)">
<title>/home/sia/work/ADCP/Noise&#45;Estimation/code/imate/imate/_utilities/timer.cpp</title>
<polygon fill="white" stroke="transparent" points="-4,4 -4,-113 195.5,-113 195.5,4 -4,4"/>
<!-- Node1 -->
<g id="node1" class="node">
<title>Node1</title>
<g id="a_node1"><a xlink:title=" ">
<polygon fill="#bfbfbf" stroke="black" points="32.5,-56.5 32.5,-108.5 151.5,-108.5 151.5,-56.5 32.5,-56.5"/>
<text text-anchor="start" x="40.5" y="-96.5" font-family="Helvetica,sans-Serif" font-size="10.00">/home/sia/work/ADCP</text>
<text text-anchor="start" x="40.5" y="-85.5" font-family="Helvetica,sans-Serif" font-size="10.00">/Noise&#45;Estimation/code</text>
<text text-anchor="start" x="40.5" y="-74.5" font-family="Helvetica,sans-Serif" font-size="10.00">/imate/imate/_utilities</text>
<text text-anchor="middle" x="92" y="-63.5" font-family="Helvetica,sans-Serif" font-size="10.00">/timer.cpp</text>
</a>
</g>
</g>
<!-- Node2 -->
<g id="node2" class="node">
<title>Node2</title>
<g id="a_node2"><a xlink:href="timer_8h.html" target="_top" xlink:title=" ">
<polygon fill="white" stroke="black" points="0,-0.5 0,-19.5 52,-19.5 52,-0.5 0,-0.5"/>
<text text-anchor="middle" x="26" y="-7.5" font-family="Helvetica,sans-Serif" font-size="10.00">./timer.h</text>
</a>
</g>
</g>
<!-- Node1&#45;&gt;Node2 -->
<g id="edge1" class="edge">
<title>Node1&#45;&gt;Node2</title>
<path fill="none" stroke="midnightblue" d="M68.55,-56.45C59.45,-46.73 49.29,-35.88 41.18,-27.22"/>
<polygon fill="midnightblue" stroke="midnightblue" points="43.53,-24.6 34.14,-19.7 38.42,-29.39 43.53,-24.6"/>
</g>
<!-- Node3 -->
<g id="node3" class="node">
<title>Node3</title>
<g id="a_node3"><a xlink:title=" ">
<polygon fill="white" stroke="#bfbfbf" points="70,-0.5 70,-19.5 114,-19.5 114,-0.5 70,-0.5"/>
<text text-anchor="middle" x="92" y="-7.5" font-family="Helvetica,sans-Serif" font-size="10.00">cmath</text>
</a>
</g>
</g>
<!-- Node1&#45;&gt;Node3 -->
<g id="edge2" class="edge">
<title>Node1&#45;&gt;Node3</title>
<path fill="none" stroke="midnightblue" d="M92,-56.45C92,-47.73 92,-38.1 92,-29.96"/>
<polygon fill="midnightblue" stroke="midnightblue" points="95.5,-29.7 92,-19.7 88.5,-29.7 95.5,-29.7"/>
</g>
<!-- Node4 -->
<g id="node4" class="node">
<title>Node4</title>
<g id="a_node4"><a xlink:title=" ">
<polygon fill="white" stroke="#bfbfbf" points="132.5,-0.5 132.5,-19.5 191.5,-19.5 191.5,-0.5 132.5,-0.5"/>
<text text-anchor="middle" x="162" y="-7.5" font-family="Helvetica,sans-Serif" font-size="10.00">stdexcept</text>
</a>
</g>
</g>
<!-- Node1&#45;&gt;Node4 -->
<g id="edge3" class="edge">
<title>Node1&#45;&gt;Node4</title>
<path fill="none" stroke="midnightblue" d="M116.88,-56.45C126.62,-46.63 137.52,-35.66 146.16,-26.95"/>
<polygon fill="midnightblue" stroke="midnightblue" points="148.8,-29.26 153.37,-19.7 143.84,-24.33 148.8,-29.26"/>
</g>
</g>
</svg>
