<?xml version="1.0" encoding="UTF-8" standalone="no"?>
<!DOCTYPE svg PUBLIC "-//W3C//DTD SVG 1.1//EN"
 "http://www.w3.org/Graphics/SVG/1.1/DTD/svg11.dtd">
<!-- Generated by graphviz version 2.43.0 (0)
 -->
<!-- Title: /home/sia/work/ADCP/Noise&#45;Estimation/code/imate/imate/_random_generator/xoshiro_256_star_star.h Pages: 1 -->
<svg width="340pt" height="150pt"
 viewBox="0.00 0.00 340.00 150.00" xmlns="http://www.w3.org/2000/svg" xmlns:xlink="http://www.w3.org/1999/xlink">
<g id="graph0" class="graph" transform="scale(1 1) rotate(0) translate(4 146)">
<title>/home/sia/work/ADCP/Noise&#45;Estimation/code/imate/imate/_random_generator/xoshiro_256_star_star.h</title>
<polygon fill="white" stroke="transparent" points="-4,4 -4,-146 336,-146 336,4 -4,4"/>
<!-- Node1 -->
<g id="node1" class="node">
<title>Node1</title>
<g id="a_node1"><a xlink:title=" ">
<polygon fill="#bfbfbf" stroke="black" points="87,-89.5 87,-141.5 244,-141.5 244,-89.5 87,-89.5"/>
<text text-anchor="start" x="95" y="-129.5" font-family="Helvetica,sans-Serif" font-size="10.00">/home/sia/work/ADCP</text>
<text text-anchor="start" x="95" y="-118.5" font-family="Helvetica,sans-Serif" font-size="10.00">/Noise&#45;Estimation/code</text>
<text text-anchor="start" x="95" y="-107.5" font-family="Helvetica,sans-Serif" font-size="10.00">/imate/imate/_random_generator</text>
<text text-anchor="middle" x="165.5" y="-96.5" font-family="Helvetica,sans-Serif" font-size="10.00">/xoshiro_256_star_star.h</text>
</a>
</g>
</g>
<!-- Node2 -->
<g id="node2" class="node">
<title>Node2</title>
<g id="a_node2"><a xlink:href="random__number__generator_8cpp.html" target="_top" xlink:title=" ">
<polygon fill="white" stroke="black" points="0,-0.5 0,-52.5 157,-52.5 157,-0.5 0,-0.5"/>
<text text-anchor="start" x="8" y="-40.5" font-family="Helvetica,sans-Serif" font-size="10.00">/home/sia/work/ADCP</text>
<text text-anchor="start" x="8" y="-29.5" font-family="Helvetica,sans-Serif" font-size="10.00">/Noise&#45;Estimation/code</text>
<text text-anchor="start" x="8" y="-18.5" font-family="Helvetica,sans-Serif" font-size="10.00">/imate/imate/_random_generator</text>
<text text-anchor="middle" x="78.5" y="-7.5" font-family="Helvetica,sans-Serif" font-size="10.00">/random_number_generator.cpp</text>
</a>
</g>
</g>
<!-- Node1&#45;&gt;Node2 -->
<g id="edge1" class="edge">
<title>Node1&#45;&gt;Node2</title>
<path fill="none" stroke="midnightblue" d="M133.08,-82.08C123.34,-72.34 112.8,-61.8 103.61,-52.61"/>
<polygon fill="midnightblue" stroke="midnightblue" points="130.79,-84.74 140.34,-89.34 135.74,-79.79 130.79,-84.74"/>
</g>
<!-- Node3 -->
<g id="node3" class="node">
<title>Node3</title>
<g id="a_node3"><a xlink:href="xoshiro__256__star__star_8cpp.html" target="_top" xlink:title=" ">
<polygon fill="white" stroke="black" points="175,-0.5 175,-52.5 332,-52.5 332,-0.5 175,-0.5"/>
<text text-anchor="start" x="183" y="-40.5" font-family="Helvetica,sans-Serif" font-size="10.00">/home/sia/work/ADCP</text>
<text text-anchor="start" x="183" y="-29.5" font-family="Helvetica,sans-Serif" font-size="10.00">/Noise&#45;Estimation/code</text>
<text text-anchor="start" x="183" y="-18.5" font-family="Helvetica,sans-Serif" font-size="10.00">/imate/imate/_random_generator</text>
<text text-anchor="middle" x="253.5" y="-7.5" font-family="Helvetica,sans-Serif" font-size="10.00">/xoshiro_256_star_star.cpp</text>
</a>
</g>
</g>
<!-- Node1&#45;&gt;Node3 -->
<g id="edge2" class="edge">
<title>Node1&#45;&gt;Node3</title>
<path fill="none" stroke="midnightblue" d="M198.3,-82.08C208.15,-72.34 218.81,-61.8 228.1,-52.61"/>
<polygon fill="midnightblue" stroke="midnightblue" points="195.6,-79.82 190.95,-89.34 200.53,-84.79 195.6,-79.82"/>
</g>
</g>
</svg>
