<?xml version="1.0" encoding="utf-8" standalone="no"?>
<!DOCTYPE svg PUBLIC "-//W3C//DTD SVG 1.1//EN"
  "http://www.w3.org/Graphics/SVG/1.1/DTD/svg11.dtd">
<svg height="328.896pt" version="1.1" viewBox="0 0 487.296 328.896" width="487.296pt" xmlns="http://www.w3.org/2000/svg" xmlns:xlink="http://www.w3.org/1999/xlink">
 <metadata>
  <rdf:RDF xmlns:cc="http://creativecommons.org/ns#" xmlns:dc="http://purl.org/dc/elements/1.1/" xmlns:rdf="http://www.w3.org/1999/02/22-rdf-syntax-ns#">
   <cc:Work>
    <dc:type rdf:resource="http://purl.org/dc/dcmitype/StillImage"/>
    <dc:date>2022-08-03T14:29:43.572818</dc:date>
    <dc:format>image/svg+xml</dc:format>
    <dc:creator>
     <cc:Agent>
      <dc:title>Matplotlib v3.4.2, https://matplotlib.org/</dc:title>
     </cc:Agent>
    </dc:creator>
   </cc:Work>
  </rdf:RDF>
 </metadata>
 <defs>
  <style type="text/css">*{stroke-linecap:butt;stroke-linejoin:round;}</style>
 </defs>
 <g id="figure_1">
  <g id="patch_1">
   <path d="M 0 328.896 
L 487.296 328.896 
L 487.296 0 
L 0 0 
z
" style="fill:#ffffff;"/>
  </g>
  <g id="axes_1">
   <g id="patch_2">
    <path d="M 44.154328 283.754392 
L 471.292465 283.754392 
L 471.292465 23.162625 
L 44.154328 23.162625 
z
" style="fill:#ffffff;"/>
   </g>
   <g id="matplotlib.axis_1">
    <g id="xtick_1">
     <g id="line2d_1">
      <defs>
       <path d="M 0 0 
L 0 6 
" id="m5bbeddfc3c" style="stroke:#262626;stroke-width:1.25;"/>
      </defs>
      <g>
       <use style="fill:#262626;stroke:#262626;stroke-width:1.25;" x="44.154328" xlink:href="#m5bbeddfc3c" y="283.754392"/>
      </g>
     </g>
     <g id="text_1">
      <!-- $\mathdefault{10^{-4}}$ -->
      <g style="fill:#262626;" transform="translate(31.671491 302.386787)scale(0.132 -0.132)">
       <defs>
        <path d="M 1702 4058 
C 1702 4192 1696 4192 1606 4192 
C 1357 3916 979 3827 621 3827 
C 602 3827 570 3827 563 3808 
C 557 3795 557 3782 557 3648 
C 755 3648 1088 3686 1344 3839 
L 1344 461 
C 1344 236 1331 160 781 160 
L 589 160 
L 589 0 
C 896 0 1216 0 1523 0 
C 1830 0 2150 0 2458 0 
L 2458 160 
L 2266 160 
C 1715 160 1702 230 1702 458 
L 1702 4058 
z
" id="CMR17-31" transform="scale(0.015625)"/>
        <path d="M 2688 2025 
C 2688 2416 2682 3080 2413 3591 
C 2176 4039 1798 4198 1466 4198 
C 1158 4198 768 4058 525 3597 
C 269 3118 243 2524 243 2025 
C 243 1661 250 1106 448 619 
C 723 -39 1216 -128 1466 -128 
C 1760 -128 2208 -7 2470 600 
C 2662 1042 2688 1559 2688 2025 
z
M 1466 -26 
C 1056 -26 813 325 723 812 
C 653 1188 653 1738 653 2096 
C 653 2588 653 2997 736 3387 
C 858 3929 1216 4096 1466 4096 
C 1728 4096 2067 3923 2189 3400 
C 2272 3036 2278 2607 2278 2096 
C 2278 1680 2278 1169 2202 792 
C 2067 95 1690 -26 1466 -26 
z
" id="CMR17-30" transform="scale(0.015625)"/>
        <path d="M 4218 1472 
C 4326 1472 4442 1472 4442 1600 
C 4442 1728 4326 1728 4218 1728 
L 755 1728 
C 646 1728 531 1728 531 1600 
C 531 1472 646 1472 755 1472 
L 4218 1472 
z
" id="CMSY10-0" transform="scale(0.015625)"/>
        <path d="M 2150 4122 
C 2150 4256 2144 4256 2029 4256 
L 128 1254 
L 128 1088 
L 1779 1088 
L 1779 457 
C 1779 224 1766 160 1318 160 
L 1197 160 
L 1197 0 
C 1402 0 1747 0 1965 0 
C 2182 0 2528 0 2733 0 
L 2733 160 
L 2611 160 
C 2163 160 2150 224 2150 457 
L 2150 1088 
L 2803 1088 
L 2803 1254 
L 2150 1254 
L 2150 4122 
z
M 1798 3703 
L 1798 1254 
L 256 1254 
L 1798 3703 
z
" id="CMR17-34" transform="scale(0.015625)"/>
       </defs>
       <use transform="scale(0.996264)" xlink:href="#CMR17-31"/>
       <use transform="translate(45.690477 0)scale(0.996264)" xlink:href="#CMR17-30"/>
       <use transform="translate(91.380954 36.153639)scale(0.697382)" xlink:href="#CMSY10-0"/>
       <use transform="translate(145.621947 36.153639)scale(0.697382)" xlink:href="#CMR17-34"/>
      </g>
     </g>
    </g>
    <g id="xtick_2">
     <g id="line2d_2">
      <g>
       <use style="fill:#262626;stroke:#262626;stroke-width:1.25;" x="97.546596" xlink:href="#m5bbeddfc3c" y="283.754392"/>
      </g>
     </g>
     <g id="text_2">
      <!-- $\mathdefault{10^{-3}}$ -->
      <g style="fill:#262626;" transform="translate(85.063758 302.386787)scale(0.132 -0.132)">
       <defs>
        <path d="M 1414 2157 
C 1984 2157 2234 1662 2234 1090 
C 2234 320 1824 25 1453 25 
C 1114 25 563 194 390 693 
C 422 680 454 680 486 680 
C 640 680 755 782 755 948 
C 755 1133 614 1216 486 1216 
C 378 1216 211 1165 211 926 
C 211 335 787 -128 1466 -128 
C 2176 -128 2720 430 2720 1085 
C 2720 1707 2208 2157 1600 2227 
C 2086 2328 2554 2756 2554 3329 
C 2554 3820 2048 4179 1472 4179 
C 890 4179 378 3829 378 3329 
C 378 3110 544 3072 627 3072 
C 762 3072 877 3155 877 3321 
C 877 3486 762 3569 627 3569 
C 602 3569 570 3569 544 3557 
C 730 3959 1235 4032 1459 4032 
C 1683 4032 2106 3925 2106 3320 
C 2106 3143 2080 2828 1862 2550 
C 1670 2304 1453 2304 1242 2284 
C 1210 2284 1062 2269 1037 2269 
C 992 2263 966 2257 966 2208 
C 966 2163 973 2157 1101 2157 
L 1414 2157 
z
" id="CMR17-33" transform="scale(0.015625)"/>
       </defs>
       <use transform="scale(0.996264)" xlink:href="#CMR17-31"/>
       <use transform="translate(45.690477 0)scale(0.996264)" xlink:href="#CMR17-30"/>
       <use transform="translate(91.380954 36.153639)scale(0.697382)" xlink:href="#CMSY10-0"/>
       <use transform="translate(145.621947 36.153639)scale(0.697382)" xlink:href="#CMR17-33"/>
      </g>
     </g>
    </g>
    <g id="xtick_3">
     <g id="line2d_3">
      <g>
       <use style="fill:#262626;stroke:#262626;stroke-width:1.25;" x="150.938863" xlink:href="#m5bbeddfc3c" y="283.754392"/>
      </g>
     </g>
     <g id="text_3">
      <!-- $\mathdefault{10^{-2}}$ -->
      <g style="fill:#262626;" transform="translate(138.456025 302.386787)scale(0.132 -0.132)">
       <defs>
        <path d="M 2669 989 
L 2554 989 
C 2490 536 2438 459 2413 420 
C 2381 369 1920 369 1830 369 
L 602 369 
C 832 619 1280 1072 1824 1597 
C 2214 1967 2669 2402 2669 3035 
C 2669 3790 2067 4224 1395 4224 
C 691 4224 262 3604 262 3030 
C 262 2780 448 2748 525 2748 
C 589 2748 781 2787 781 3010 
C 781 3207 614 3264 525 3264 
C 486 3264 448 3258 422 3245 
C 544 3790 915 4058 1306 4058 
C 1862 4058 2227 3617 2227 3035 
C 2227 2479 1901 2000 1536 1584 
L 262 146 
L 262 0 
L 2515 0 
L 2669 989 
z
" id="CMR17-32" transform="scale(0.015625)"/>
       </defs>
       <use transform="scale(0.996264)" xlink:href="#CMR17-31"/>
       <use transform="translate(45.690477 0)scale(0.996264)" xlink:href="#CMR17-30"/>
       <use transform="translate(91.380954 36.153639)scale(0.697382)" xlink:href="#CMSY10-0"/>
       <use transform="translate(145.621947 36.153639)scale(0.697382)" xlink:href="#CMR17-32"/>
      </g>
     </g>
    </g>
    <g id="xtick_4">
     <g id="line2d_4">
      <g>
       <use style="fill:#262626;stroke:#262626;stroke-width:1.25;" x="204.33113" xlink:href="#m5bbeddfc3c" y="283.754392"/>
      </g>
     </g>
     <g id="text_4">
      <!-- $\mathdefault{10^{-1}}$ -->
      <g style="fill:#262626;" transform="translate(191.848293 302.386787)scale(0.132 -0.132)">
       <use transform="scale(0.996264)" xlink:href="#CMR17-31"/>
       <use transform="translate(45.690477 0)scale(0.996264)" xlink:href="#CMR17-30"/>
       <use transform="translate(91.380954 36.153639)scale(0.697382)" xlink:href="#CMSY10-0"/>
       <use transform="translate(145.621947 36.153639)scale(0.697382)" xlink:href="#CMR17-31"/>
      </g>
     </g>
    </g>
    <g id="xtick_5">
     <g id="line2d_5">
      <g>
       <use style="fill:#262626;stroke:#262626;stroke-width:1.25;" x="257.723397" xlink:href="#m5bbeddfc3c" y="283.754392"/>
      </g>
     </g>
     <g id="text_5">
      <!-- $\mathdefault{10^{0}}$ -->
      <g style="fill:#262626;" transform="translate(248.919862 302.386787)scale(0.132 -0.132)">
       <use transform="scale(0.996264)" xlink:href="#CMR17-31"/>
       <use transform="translate(45.690477 0)scale(0.996264)" xlink:href="#CMR17-30"/>
       <use transform="translate(91.380954 36.153639)scale(0.697382)" xlink:href="#CMR17-30"/>
      </g>
     </g>
    </g>
    <g id="xtick_6">
     <g id="line2d_6">
      <g>
       <use style="fill:#262626;stroke:#262626;stroke-width:1.25;" x="311.115664" xlink:href="#m5bbeddfc3c" y="283.754392"/>
      </g>
     </g>
     <g id="text_6">
      <!-- $\mathdefault{10^{1}}$ -->
      <g style="fill:#262626;" transform="translate(302.312129 302.386787)scale(0.132 -0.132)">
       <use transform="scale(0.996264)" xlink:href="#CMR17-31"/>
       <use transform="translate(45.690477 0)scale(0.996264)" xlink:href="#CMR17-30"/>
       <use transform="translate(91.380954 36.153639)scale(0.697382)" xlink:href="#CMR17-31"/>
      </g>
     </g>
    </g>
    <g id="xtick_7">
     <g id="line2d_7">
      <g>
       <use style="fill:#262626;stroke:#262626;stroke-width:1.25;" x="364.507931" xlink:href="#m5bbeddfc3c" y="283.754392"/>
      </g>
     </g>
     <g id="text_7">
      <!-- $\mathdefault{10^{2}}$ -->
      <g style="fill:#262626;" transform="translate(355.704397 302.386787)scale(0.132 -0.132)">
       <use transform="scale(0.996264)" xlink:href="#CMR17-31"/>
       <use transform="translate(45.690477 0)scale(0.996264)" xlink:href="#CMR17-30"/>
       <use transform="translate(91.380954 36.153639)scale(0.697382)" xlink:href="#CMR17-32"/>
      </g>
     </g>
    </g>
    <g id="xtick_8">
     <g id="line2d_8">
      <g>
       <use style="fill:#262626;stroke:#262626;stroke-width:1.25;" x="417.900198" xlink:href="#m5bbeddfc3c" y="283.754392"/>
      </g>
     </g>
     <g id="text_8">
      <!-- $\mathdefault{10^{3}}$ -->
      <g style="fill:#262626;" transform="translate(409.096664 302.386787)scale(0.132 -0.132)">
       <use transform="scale(0.996264)" xlink:href="#CMR17-31"/>
       <use transform="translate(45.690477 0)scale(0.996264)" xlink:href="#CMR17-30"/>
       <use transform="translate(91.380954 36.153639)scale(0.697382)" xlink:href="#CMR17-33"/>
      </g>
     </g>
    </g>
    <g id="xtick_9">
     <g id="line2d_9">
      <g>
       <use style="fill:#262626;stroke:#262626;stroke-width:1.25;" x="471.292465" xlink:href="#m5bbeddfc3c" y="283.754392"/>
      </g>
     </g>
     <g id="text_9">
      <!-- $\mathdefault{10^{4}}$ -->
      <g style="fill:#262626;" transform="translate(462.488931 302.386787)scale(0.132 -0.132)">
       <use transform="scale(0.996264)" xlink:href="#CMR17-31"/>
       <use transform="translate(45.690477 0)scale(0.996264)" xlink:href="#CMR17-30"/>
       <use transform="translate(91.380954 36.153639)scale(0.697382)" xlink:href="#CMR17-34"/>
      </g>
     </g>
    </g>
    <g id="xtick_10">
     <g id="line2d_10">
      <defs>
       <path d="M 0 0 
L 0 4 
" id="ma9a8c0ce56" style="stroke:#262626;"/>
      </defs>
      <g>
       <use style="fill:#262626;stroke:#262626;" x="60.227002" xlink:href="#ma9a8c0ce56" y="283.754392"/>
      </g>
     </g>
    </g>
    <g id="xtick_11">
     <g id="line2d_11">
      <g>
       <use style="fill:#262626;stroke:#262626;" x="69.628914" xlink:href="#ma9a8c0ce56" y="283.754392"/>
      </g>
     </g>
    </g>
    <g id="xtick_12">
     <g id="line2d_12">
      <g>
       <use style="fill:#262626;stroke:#262626;" x="76.299676" xlink:href="#ma9a8c0ce56" y="283.754392"/>
      </g>
     </g>
    </g>
    <g id="xtick_13">
     <g id="line2d_13">
      <g>
       <use style="fill:#262626;stroke:#262626;" x="81.473922" xlink:href="#ma9a8c0ce56" y="283.754392"/>
      </g>
     </g>
    </g>
    <g id="xtick_14">
     <g id="line2d_14">
      <g>
       <use style="fill:#262626;stroke:#262626;" x="85.701588" xlink:href="#ma9a8c0ce56" y="283.754392"/>
      </g>
     </g>
    </g>
    <g id="xtick_15">
     <g id="line2d_15">
      <g>
       <use style="fill:#262626;stroke:#262626;" x="89.276029" xlink:href="#ma9a8c0ce56" y="283.754392"/>
      </g>
     </g>
    </g>
    <g id="xtick_16">
     <g id="line2d_16">
      <g>
       <use style="fill:#262626;stroke:#262626;" x="92.37235" xlink:href="#ma9a8c0ce56" y="283.754392"/>
      </g>
     </g>
    </g>
    <g id="xtick_17">
     <g id="line2d_17">
      <g>
       <use style="fill:#262626;stroke:#262626;" x="95.103499" xlink:href="#ma9a8c0ce56" y="283.754392"/>
      </g>
     </g>
    </g>
    <g id="xtick_18">
     <g id="line2d_18">
      <g>
       <use style="fill:#262626;stroke:#262626;" x="113.619269" xlink:href="#ma9a8c0ce56" y="283.754392"/>
      </g>
     </g>
    </g>
    <g id="xtick_19">
     <g id="line2d_19">
      <g>
       <use style="fill:#262626;stroke:#262626;" x="123.021181" xlink:href="#ma9a8c0ce56" y="283.754392"/>
      </g>
     </g>
    </g>
    <g id="xtick_20">
     <g id="line2d_20">
      <g>
       <use style="fill:#262626;stroke:#262626;" x="129.691943" xlink:href="#ma9a8c0ce56" y="283.754392"/>
      </g>
     </g>
    </g>
    <g id="xtick_21">
     <g id="line2d_21">
      <g>
       <use style="fill:#262626;stroke:#262626;" x="134.866189" xlink:href="#ma9a8c0ce56" y="283.754392"/>
      </g>
     </g>
    </g>
    <g id="xtick_22">
     <g id="line2d_22">
      <g>
       <use style="fill:#262626;stroke:#262626;" x="139.093855" xlink:href="#ma9a8c0ce56" y="283.754392"/>
      </g>
     </g>
    </g>
    <g id="xtick_23">
     <g id="line2d_23">
      <g>
       <use style="fill:#262626;stroke:#262626;" x="142.668296" xlink:href="#ma9a8c0ce56" y="283.754392"/>
      </g>
     </g>
    </g>
    <g id="xtick_24">
     <g id="line2d_24">
      <g>
       <use style="fill:#262626;stroke:#262626;" x="145.764617" xlink:href="#ma9a8c0ce56" y="283.754392"/>
      </g>
     </g>
    </g>
    <g id="xtick_25">
     <g id="line2d_25">
      <g>
       <use style="fill:#262626;stroke:#262626;" x="148.495766" xlink:href="#ma9a8c0ce56" y="283.754392"/>
      </g>
     </g>
    </g>
    <g id="xtick_26">
     <g id="line2d_26">
      <g>
       <use style="fill:#262626;stroke:#262626;" x="167.011537" xlink:href="#ma9a8c0ce56" y="283.754392"/>
      </g>
     </g>
    </g>
    <g id="xtick_27">
     <g id="line2d_27">
      <g>
       <use style="fill:#262626;stroke:#262626;" x="176.413448" xlink:href="#ma9a8c0ce56" y="283.754392"/>
      </g>
     </g>
    </g>
    <g id="xtick_28">
     <g id="line2d_28">
      <g>
       <use style="fill:#262626;stroke:#262626;" x="183.084211" xlink:href="#ma9a8c0ce56" y="283.754392"/>
      </g>
     </g>
    </g>
    <g id="xtick_29">
     <g id="line2d_29">
      <g>
       <use style="fill:#262626;stroke:#262626;" x="188.258456" xlink:href="#ma9a8c0ce56" y="283.754392"/>
      </g>
     </g>
    </g>
    <g id="xtick_30">
     <g id="line2d_30">
      <g>
       <use style="fill:#262626;stroke:#262626;" x="192.486122" xlink:href="#ma9a8c0ce56" y="283.754392"/>
      </g>
     </g>
    </g>
    <g id="xtick_31">
     <g id="line2d_31">
      <g>
       <use style="fill:#262626;stroke:#262626;" x="196.060563" xlink:href="#ma9a8c0ce56" y="283.754392"/>
      </g>
     </g>
    </g>
    <g id="xtick_32">
     <g id="line2d_32">
      <g>
       <use style="fill:#262626;stroke:#262626;" x="199.156884" xlink:href="#ma9a8c0ce56" y="283.754392"/>
      </g>
     </g>
    </g>
    <g id="xtick_33">
     <g id="line2d_33">
      <g>
       <use style="fill:#262626;stroke:#262626;" x="201.888034" xlink:href="#ma9a8c0ce56" y="283.754392"/>
      </g>
     </g>
    </g>
    <g id="xtick_34">
     <g id="line2d_34">
      <g>
       <use style="fill:#262626;stroke:#262626;" x="220.403804" xlink:href="#ma9a8c0ce56" y="283.754392"/>
      </g>
     </g>
    </g>
    <g id="xtick_35">
     <g id="line2d_35">
      <g>
       <use style="fill:#262626;stroke:#262626;" x="229.805715" xlink:href="#ma9a8c0ce56" y="283.754392"/>
      </g>
     </g>
    </g>
    <g id="xtick_36">
     <g id="line2d_36">
      <g>
       <use style="fill:#262626;stroke:#262626;" x="236.476478" xlink:href="#ma9a8c0ce56" y="283.754392"/>
      </g>
     </g>
    </g>
    <g id="xtick_37">
     <g id="line2d_37">
      <g>
       <use style="fill:#262626;stroke:#262626;" x="241.650723" xlink:href="#ma9a8c0ce56" y="283.754392"/>
      </g>
     </g>
    </g>
    <g id="xtick_38">
     <g id="line2d_38">
      <g>
       <use style="fill:#262626;stroke:#262626;" x="245.878389" xlink:href="#ma9a8c0ce56" y="283.754392"/>
      </g>
     </g>
    </g>
    <g id="xtick_39">
     <g id="line2d_39">
      <g>
       <use style="fill:#262626;stroke:#262626;" x="249.45283" xlink:href="#ma9a8c0ce56" y="283.754392"/>
      </g>
     </g>
    </g>
    <g id="xtick_40">
     <g id="line2d_40">
      <g>
       <use style="fill:#262626;stroke:#262626;" x="252.549152" xlink:href="#ma9a8c0ce56" y="283.754392"/>
      </g>
     </g>
    </g>
    <g id="xtick_41">
     <g id="line2d_41">
      <g>
       <use style="fill:#262626;stroke:#262626;" x="255.280301" xlink:href="#ma9a8c0ce56" y="283.754392"/>
      </g>
     </g>
    </g>
    <g id="xtick_42">
     <g id="line2d_42">
      <g>
       <use style="fill:#262626;stroke:#262626;" x="273.796071" xlink:href="#ma9a8c0ce56" y="283.754392"/>
      </g>
     </g>
    </g>
    <g id="xtick_43">
     <g id="line2d_43">
      <g>
       <use style="fill:#262626;stroke:#262626;" x="283.197982" xlink:href="#ma9a8c0ce56" y="283.754392"/>
      </g>
     </g>
    </g>
    <g id="xtick_44">
     <g id="line2d_44">
      <g>
       <use style="fill:#262626;stroke:#262626;" x="289.868745" xlink:href="#ma9a8c0ce56" y="283.754392"/>
      </g>
     </g>
    </g>
    <g id="xtick_45">
     <g id="line2d_45">
      <g>
       <use style="fill:#262626;stroke:#262626;" x="295.04299" xlink:href="#ma9a8c0ce56" y="283.754392"/>
      </g>
     </g>
    </g>
    <g id="xtick_46">
     <g id="line2d_46">
      <g>
       <use style="fill:#262626;stroke:#262626;" x="299.270656" xlink:href="#ma9a8c0ce56" y="283.754392"/>
      </g>
     </g>
    </g>
    <g id="xtick_47">
     <g id="line2d_47">
      <g>
       <use style="fill:#262626;stroke:#262626;" x="302.845097" xlink:href="#ma9a8c0ce56" y="283.754392"/>
      </g>
     </g>
    </g>
    <g id="xtick_48">
     <g id="line2d_48">
      <g>
       <use style="fill:#262626;stroke:#262626;" x="305.941419" xlink:href="#ma9a8c0ce56" y="283.754392"/>
      </g>
     </g>
    </g>
    <g id="xtick_49">
     <g id="line2d_49">
      <g>
       <use style="fill:#262626;stroke:#262626;" x="308.672568" xlink:href="#ma9a8c0ce56" y="283.754392"/>
      </g>
     </g>
    </g>
    <g id="xtick_50">
     <g id="line2d_50">
      <g>
       <use style="fill:#262626;stroke:#262626;" x="327.188338" xlink:href="#ma9a8c0ce56" y="283.754392"/>
      </g>
     </g>
    </g>
    <g id="xtick_51">
     <g id="line2d_51">
      <g>
       <use style="fill:#262626;stroke:#262626;" x="336.59025" xlink:href="#ma9a8c0ce56" y="283.754392"/>
      </g>
     </g>
    </g>
    <g id="xtick_52">
     <g id="line2d_52">
      <g>
       <use style="fill:#262626;stroke:#262626;" x="343.261012" xlink:href="#ma9a8c0ce56" y="283.754392"/>
      </g>
     </g>
    </g>
    <g id="xtick_53">
     <g id="line2d_53">
      <g>
       <use style="fill:#262626;stroke:#262626;" x="348.435257" xlink:href="#ma9a8c0ce56" y="283.754392"/>
      </g>
     </g>
    </g>
    <g id="xtick_54">
     <g id="line2d_54">
      <g>
       <use style="fill:#262626;stroke:#262626;" x="352.662923" xlink:href="#ma9a8c0ce56" y="283.754392"/>
      </g>
     </g>
    </g>
    <g id="xtick_55">
     <g id="line2d_55">
      <g>
       <use style="fill:#262626;stroke:#262626;" x="356.237364" xlink:href="#ma9a8c0ce56" y="283.754392"/>
      </g>
     </g>
    </g>
    <g id="xtick_56">
     <g id="line2d_56">
      <g>
       <use style="fill:#262626;stroke:#262626;" x="359.333686" xlink:href="#ma9a8c0ce56" y="283.754392"/>
      </g>
     </g>
    </g>
    <g id="xtick_57">
     <g id="line2d_57">
      <g>
       <use style="fill:#262626;stroke:#262626;" x="362.064835" xlink:href="#ma9a8c0ce56" y="283.754392"/>
      </g>
     </g>
    </g>
    <g id="xtick_58">
     <g id="line2d_58">
      <g>
       <use style="fill:#262626;stroke:#262626;" x="380.580605" xlink:href="#ma9a8c0ce56" y="283.754392"/>
      </g>
     </g>
    </g>
    <g id="xtick_59">
     <g id="line2d_59">
      <g>
       <use style="fill:#262626;stroke:#262626;" x="389.982517" xlink:href="#ma9a8c0ce56" y="283.754392"/>
      </g>
     </g>
    </g>
    <g id="xtick_60">
     <g id="line2d_60">
      <g>
       <use style="fill:#262626;stroke:#262626;" x="396.653279" xlink:href="#ma9a8c0ce56" y="283.754392"/>
      </g>
     </g>
    </g>
    <g id="xtick_61">
     <g id="line2d_61">
      <g>
       <use style="fill:#262626;stroke:#262626;" x="401.827524" xlink:href="#ma9a8c0ce56" y="283.754392"/>
      </g>
     </g>
    </g>
    <g id="xtick_62">
     <g id="line2d_62">
      <g>
       <use style="fill:#262626;stroke:#262626;" x="406.055191" xlink:href="#ma9a8c0ce56" y="283.754392"/>
      </g>
     </g>
    </g>
    <g id="xtick_63">
     <g id="line2d_63">
      <g>
       <use style="fill:#262626;stroke:#262626;" x="409.629631" xlink:href="#ma9a8c0ce56" y="283.754392"/>
      </g>
     </g>
    </g>
    <g id="xtick_64">
     <g id="line2d_64">
      <g>
       <use style="fill:#262626;stroke:#262626;" x="412.725953" xlink:href="#ma9a8c0ce56" y="283.754392"/>
      </g>
     </g>
    </g>
    <g id="xtick_65">
     <g id="line2d_65">
      <g>
       <use style="fill:#262626;stroke:#262626;" x="415.457102" xlink:href="#ma9a8c0ce56" y="283.754392"/>
      </g>
     </g>
    </g>
    <g id="xtick_66">
     <g id="line2d_66">
      <g>
       <use style="fill:#262626;stroke:#262626;" x="433.972872" xlink:href="#ma9a8c0ce56" y="283.754392"/>
      </g>
     </g>
    </g>
    <g id="xtick_67">
     <g id="line2d_67">
      <g>
       <use style="fill:#262626;stroke:#262626;" x="443.374784" xlink:href="#ma9a8c0ce56" y="283.754392"/>
      </g>
     </g>
    </g>
    <g id="xtick_68">
     <g id="line2d_68">
      <g>
       <use style="fill:#262626;stroke:#262626;" x="450.045546" xlink:href="#ma9a8c0ce56" y="283.754392"/>
      </g>
     </g>
    </g>
    <g id="xtick_69">
     <g id="line2d_69">
      <g>
       <use style="fill:#262626;stroke:#262626;" x="455.219791" xlink:href="#ma9a8c0ce56" y="283.754392"/>
      </g>
     </g>
    </g>
    <g id="xtick_70">
     <g id="line2d_70">
      <g>
       <use style="fill:#262626;stroke:#262626;" x="459.447458" xlink:href="#ma9a8c0ce56" y="283.754392"/>
      </g>
     </g>
    </g>
    <g id="xtick_71">
     <g id="line2d_71">
      <g>
       <use style="fill:#262626;stroke:#262626;" x="463.021899" xlink:href="#ma9a8c0ce56" y="283.754392"/>
      </g>
     </g>
    </g>
    <g id="xtick_72">
     <g id="line2d_72">
      <g>
       <use style="fill:#262626;stroke:#262626;" x="466.11822" xlink:href="#ma9a8c0ce56" y="283.754392"/>
      </g>
     </g>
    </g>
    <g id="xtick_73">
     <g id="line2d_73">
      <g>
       <use style="fill:#262626;stroke:#262626;" x="468.849369" xlink:href="#ma9a8c0ce56" y="283.754392"/>
      </g>
     </g>
    </g>
    <g id="text_10">
     <!-- $t$ -->
     <g style="fill:#262626;" transform="translate(255.187109 318.906473)scale(0.144 -0.144)">
      <defs>
       <path d="M 1286 2566 
L 1875 2566 
C 1997 2566 2061 2566 2061 2681 
C 2061 2752 2022 2752 1894 2752 
L 1331 2752 
L 1568 3692 
C 1594 3781 1594 3794 1594 3840 
C 1594 3943 1510 4000 1427 4000 
C 1376 4000 1229 3981 1178 3775 
L 928 2752 
L 326 2752 
C 198 2752 141 2752 141 2630 
C 141 2566 186 2566 307 2566 
L 877 2566 
L 454 881 
C 403 658 384 594 384 511 
C 384 211 595 -64 954 -64 
C 1600 -64 1946 868 1946 912 
C 1946 951 1920 970 1882 970 
C 1869 970 1843 970 1830 944 
C 1824 938 1818 931 1773 829 
C 1638 511 1344 64 973 64 
C 781 64 768 224 768 364 
C 768 370 768 492 787 568 
L 1286 2566 
z
" id="CMMI12-74" transform="scale(0.015625)"/>
      </defs>
      <use transform="scale(0.996264)" xlink:href="#CMMI12-74"/>
     </g>
    </g>
   </g>
   <g id="matplotlib.axis_2">
    <g id="ytick_1">
     <g id="line2d_74">
      <path clip-path="url(#pba810f8034)" d="M 44.154328 283.754392 
L 471.292465 283.754392 
" style="fill:none;stroke:#cccccc;stroke-linecap:round;"/>
     </g>
     <g id="line2d_75">
      <defs>
       <path d="M 0 0 
L -6 0 
" id="m86527acda3" style="stroke:#262626;stroke-width:1.25;"/>
      </defs>
      <g>
       <use style="fill:#262626;stroke:#262626;stroke-width:1.25;" x="44.154328" xlink:href="#m86527acda3" y="283.754392"/>
      </g>
     </g>
     <g id="text_11">
      <!-- $\mathdefault{0}$ -->
      <g style="fill:#262626;" transform="translate(28.216054 288.320589)scale(0.132 -0.132)">
       <use transform="scale(0.996264)" xlink:href="#CMR17-30"/>
      </g>
     </g>
    </g>
    <g id="ytick_2">
     <g id="line2d_76">
      <path clip-path="url(#pba810f8034)" d="M 44.154328 23.162625 
L 471.292465 23.162625 
" style="fill:none;stroke:#cccccc;stroke-linecap:round;"/>
     </g>
     <g id="line2d_77">
      <g>
       <use style="fill:#262626;stroke:#262626;stroke-width:1.25;" x="44.154328" xlink:href="#m86527acda3" y="23.162625"/>
      </g>
     </g>
     <g id="text_12">
      <!-- $\mathdefault{1}$ -->
      <g style="fill:#262626;" transform="translate(28.216054 27.728822)scale(0.132 -0.132)">
       <use transform="scale(0.996264)" xlink:href="#CMR17-31"/>
      </g>
     </g>
    </g>
    <g id="text_13">
     <!-- $\frac{1}{2}(1-r_i(t))$ -->
     <g style="fill:#262626;" transform="translate(19.268923 187.418021)rotate(-90)scale(0.144 -0.144)">
      <defs>
       <path d="M 1958 -1561 
C 1958 -1555 1958 -1542 1939 -1523 
C 1645 -1224 858 -407 858 1581 
C 858 3569 1632 4379 1946 4697 
C 1946 4704 1958 4717 1958 4736 
C 1958 4755 1939 4768 1914 4768 
C 1843 4768 1299 4296 986 3594 
C 666 2887 576 2199 576 1588 
C 576 1128 621 351 1005 -471 
C 1312 -1135 1837 -1600 1914 -1600 
C 1946 -1600 1958 -1587 1958 -1561 
z
" id="CMR17-28" transform="scale(0.015625)"/>
       <path d="M 2490 2612 
C 2291 2574 2189 2433 2189 2293 
C 2189 2139 2310 2088 2400 2088 
C 2579 2088 2726 2242 2726 2433 
C 2726 2638 2528 2816 2208 2816 
C 1952 2816 1658 2701 1389 2312 
C 1344 2650 1088 2816 832 2816 
C 582 2816 454 2625 378 2484 
C 269 2254 173 1871 173 1839 
C 173 1814 198 1782 243 1782 
C 294 1782 301 1788 339 1935 
C 435 2318 557 2689 813 2689 
C 966 2689 1011 2580 1011 2395 
C 1011 2254 947 2005 902 1807 
L 723 1118 
C 698 996 627 709 595 594 
C 550 428 480 128 480 96 
C 480 6 550 -64 646 -64 
C 717 -64 838 -19 877 109 
C 896 160 1133 1124 1171 1271 
C 1203 1411 1242 1546 1274 1686 
C 1299 1775 1325 1878 1344 1961 
C 1363 2018 1536 2331 1696 2472 
C 1773 2542 1939 2689 2202 2689 
C 2304 2689 2406 2670 2490 2612 
z
" id="CMMI12-72" transform="scale(0.015625)"/>
       <path d="M 1811 913 
C 1811 945 1786 971 1747 971 
C 1690 971 1683 952 1651 843 
C 1485 262 1222 64 1011 64 
C 934 64 845 83 845 275 
C 845 447 922 639 992 830 
L 1440 2018 
C 1459 2069 1504 2184 1504 2305 
C 1504 2574 1312 2816 998 2816 
C 410 2816 173 1890 173 1839 
C 173 1814 198 1782 243 1782 
C 301 1782 307 1807 333 1896 
C 486 2428 730 2682 979 2682 
C 1037 2682 1146 2682 1146 2478 
C 1146 2312 1062 2101 1011 1961 
L 563 773 
C 525 671 486 568 486 453 
C 486 166 685 -64 992 -64 
C 1581 -64 1811 869 1811 913 
z
M 1760 4013 
C 1760 4109 1683 4224 1542 4224 
C 1395 4224 1229 4083 1229 3917 
C 1229 3758 1363 3707 1440 3707 
C 1613 3707 1760 3873 1760 4013 
z
" id="CMMI12-69" transform="scale(0.015625)"/>
       <path d="M 1683 1581 
C 1683 2040 1638 2817 1254 3639 
C 947 4303 422 4768 346 4768 
C 326 4768 301 4761 301 4729 
C 301 4717 307 4710 314 4697 
C 621 4378 1402 3568 1402 1584 
C 1402 -407 627 -1217 314 -1537 
C 307 -1549 301 -1556 301 -1568 
C 301 -1600 326 -1600 346 -1600 
C 416 -1600 960 -1128 1274 -426 
C 1594 281 1683 969 1683 1581 
z
" id="CMR17-29" transform="scale(0.015625)"/>
      </defs>
      <use transform="translate(0 39.226102)scale(0.697382)" xlink:href="#CMR17-31"/>
      <use transform="translate(0 -34.355253)scale(0.697382)" xlink:href="#CMR17-32"/>
      <use transform="translate(33.178696 0)scale(0.996264)" xlink:href="#CMR17-28"/>
      <use transform="translate(68.459464 0)scale(0.996264)" xlink:href="#CMR17-31"/>
      <use transform="translate(136.289148 0)scale(0.996264)" xlink:href="#CMSY10-0"/>
      <use transform="translate(235.915822 0)scale(0.996264)" xlink:href="#CMMI12-72"/>
      <use transform="translate(279.876717 -14.943915)scale(0.697382)" xlink:href="#CMMI12-69"/>
      <use transform="translate(303.669756 0)scale(0.996264)" xlink:href="#CMR17-28"/>
      <use transform="translate(338.950524 0)scale(0.996264)" xlink:href="#CMMI12-74"/>
      <use transform="translate(374.176854 0)scale(0.996264)" xlink:href="#CMR17-29"/>
      <use transform="translate(409.457622 0)scale(0.996264)" xlink:href="#CMR17-29"/>
      <path d="M 0 24.410885 
L 31.983182 24.410885 
L 31.983182 25.40233 
L 0 25.40233 
L 0 24.410885 
z
"/>
     </g>
    </g>
   </g>
   <g id="line2d_78">
    <path clip-path="url(#pba810f8034)" d="M 44.154328 23.188681 
L 89.903859 23.349911 
L 111.282144 23.632988 
L 125.391812 24.025686 
L 136.080954 24.528466 
L 145.059834 25.169375 
L 152.328451 25.900413 
L 158.741937 26.760687 
L 164.300291 27.718287 
L 169.431079 28.822037 
L 174.134302 30.06095 
L 178.409959 31.413539 
L 182.25805 32.847611 
L 186.106142 34.519716 
L 189.526667 36.234355 
L 192.947193 38.192252 
L 196.367719 40.422954 
L 199.360678 42.623392 
L 202.353638 45.079087 
L 205.346598 47.812981 
L 208.339558 50.848346 
L 211.332518 54.208295 
L 214.325478 57.915166 
L 217.318438 61.989774 
L 220.311398 66.450545 
L 223.304358 71.312532 
L 226.297318 76.586351 
L 229.290278 82.277072 
L 232.710803 89.288902 
L 236.131329 96.828342 
L 239.97942 105.903969 
L 243.827512 115.545118 
L 248.530734 127.964219 
L 254.516654 144.46331 
L 267.771191 181.254793 
L 272.474414 193.559037 
L 276.750071 204.104813 
L 280.598162 212.976274 
L 284.018688 220.320469 
L 287.439213 227.129939 
L 290.859739 233.39514 
L 293.852699 238.432625 
L 296.845659 243.063736 
L 299.838619 247.301759 
L 302.831579 251.1638 
L 305.824538 254.669765 
L 308.817498 257.841438 
L 311.810458 260.701681 
L 314.803418 263.273765 
L 317.796378 265.580828 
L 321.216904 267.921876 
L 324.637429 269.978497 
L 328.057955 271.781034 
L 331.906046 273.540154 
L 335.754138 275.049874 
L 340.029795 276.474678 
L 344.305452 277.671894 
L 349.008674 278.767168 
L 354.139463 279.741885 
L 360.125383 280.643909 
L 366.966434 281.431516 
L 374.662617 282.083391 
L 383.641496 282.617541 
L 394.758205 283.049346 
L 409.295439 283.37726 
L 429.818592 283.598624 
L 464.451414 283.719395 
L 471.292465 283.728335 
L 471.292465 283.728335 
" style="fill:none;stroke:#4c72b0;stroke-linecap:round;stroke-width:1.5;"/>
   </g>
   <g id="line2d_79">
    <path clip-path="url(#pba810f8034)" d="M 44.154328 283.650176 
L 71.518533 283.415352 
L 88.193596 283.058943 
L 100.165435 282.590004 
L 109.571881 282.009421 
L 117.268064 281.325774 
L 124.109115 280.497589 
L 130.095035 279.546136 
L 135.225823 278.514447 
L 139.929046 277.350728 
L 144.204703 276.073315 
L 148.052794 274.711009 
L 151.900885 273.112184 
L 155.321411 271.460972 
L 158.741937 269.560862 
L 161.734897 267.666626 
L 164.727857 265.528976 
L 167.720816 263.119328 
L 170.713776 260.406517 
L 173.706736 257.356795 
L 176.272131 254.447185 
L 178.837525 251.239277 
L 181.402919 247.707796 
L 183.968313 243.826603 
L 186.533707 239.569001 
L 189.099102 234.908153 
L 191.664496 229.817615 
L 194.22989 224.272011 
L 196.795284 218.247861 
L 199.360678 211.724576 
L 202.353638 203.461475 
L 205.346598 194.480048 
L 208.339558 184.777024 
L 211.332518 174.366247 
L 214.753044 161.647491 
L 218.601135 146.406684 
L 223.304358 126.741668 
L 236.131329 72.388673 
L 239.124289 60.960161 
L 241.689683 51.987644 
L 243.827512 45.22664 
L 245.96534 39.221284 
L 247.675603 35.0223 
L 249.385866 31.407085 
L 250.668563 29.101235 
L 251.95126 27.158202 
L 253.233957 25.589527 
L 254.516654 24.404623 
L 255.799351 23.610656 
L 256.654483 23.301016 
L 257.509614 23.168162 
L 258.364745 23.212457 
L 259.219877 23.433779 
L 260.075008 23.831527 
L 260.93014 24.404623 
L 262.212837 25.589527 
L 263.495534 27.158202 
L 264.778231 29.101235 
L 266.060928 31.407085 
L 267.771191 35.0223 
L 269.481454 39.221284 
L 271.191717 43.962095 
L 273.329545 50.579608 
L 275.894939 59.406425 
L 278.460333 69.033082 
L 281.880859 82.802941 
L 286.584082 102.779443 
L 295.990527 142.904267 
L 300.266184 160.000011 
L 303.68671 172.822959 
L 307.107236 184.777024 
L 310.100195 194.480048 
L 313.093155 203.461475 
L 316.086115 211.724576 
L 319.079075 219.286036 
L 322.072035 226.172607 
L 324.637429 231.563801 
L 327.202824 236.508221 
L 329.768218 241.031684 
L 332.333612 245.160832 
L 334.899006 248.922508 
L 337.4644 252.343263 
L 340.45736 255.937738 
L 343.45032 259.142805 
L 346.44328 261.995726 
L 349.43624 264.531334 
L 352.4292 266.781904 
L 355.42216 268.777124 
L 358.842686 270.779395 
L 362.263211 272.520085 
L 366.111303 274.206167 
L 369.959394 275.643298 
L 374.235051 276.99127 
L 378.938274 278.219601 
L 384.069062 279.308837 
L 389.627416 280.24998 
L 396.040902 281.092421 
L 403.309519 281.806047 
L 411.860833 282.405406 
L 422.12241 282.886995 
L 434.949381 283.25518 
L 452.479574 283.519873 
L 471.292465 283.650176 
L 471.292465 283.650176 
" style="fill:none;stroke:#dd8452;stroke-linecap:round;stroke-width:1.5;"/>
   </g>
   <g id="line2d_80">
    <path clip-path="url(#pba810f8034)" d="M 44.154328 23.397072 
L 63.394785 23.699902 
L 76.649322 24.113592 
L 86.910899 24.641725 
L 95.462213 25.299156 
L 102.73083 26.082134 
L 108.716749 26.936922 
L 114.275104 27.951603 
L 118.978326 29.01855 
L 123.681549 30.320485 
L 127.957206 31.7502 
L 131.805297 33.2756 
L 135.225823 34.853254 
L 138.646349 36.671585 
L 142.066874 38.765458 
L 145.059834 40.854395 
L 148.052794 43.213593 
L 151.045754 45.875281 
L 154.038714 48.87473 
L 156.604108 51.743503 
L 159.169502 54.914482 
L 161.734897 58.415158 
L 164.300291 62.274448 
L 166.865685 66.522472 
L 169.431079 71.190236 
L 171.996473 76.309187 
L 174.561868 81.910621 
L 177.127262 88.024913 
L 179.692656 94.680534 
L 182.25805 101.902834 
L 184.823445 109.712544 
L 187.816404 119.584939 
L 190.809364 130.283711 
L 193.802324 141.795363 
L 197.22285 155.892971 
L 201.070941 172.808882 
L 205.774164 194.596754 
L 214.753044 236.503387 
L 217.746004 249.318565 
L 220.311398 259.288153 
L 222.449226 266.64048 
L 224.159489 271.760002 
L 225.869752 276.095147 
L 227.152449 278.773093 
L 228.435146 280.915077 
L 229.290278 282.026317 
L 230.145409 282.871469 
L 231.00054 283.440235 
L 231.855672 283.722925 
L 232.710803 283.710537 
L 233.565935 283.394843 
L 234.421066 282.768474 
L 235.276197 281.825003 
L 236.131329 280.559024 
L 236.98646 278.966234 
L 238.269157 275.957763 
L 239.551855 272.201954 
L 240.834552 267.7003 
L 242.117249 262.461432 
L 243.827512 254.358342 
L 245.537774 245.033183 
L 247.248037 234.569193 
L 249.385866 220.052515 
L 251.95126 200.870787 
L 255.371786 173.194726 
L 263.9231 102.735509 
L 266.488494 83.843877 
L 268.626322 69.630508 
L 270.764151 57.073136 
L 272.474414 48.350109 
L 274.184676 40.881731 
L 275.467374 36.133019 
L 276.750071 32.128083 
L 278.032768 28.870759 
L 279.315465 26.357993 
L 280.170596 25.092014 
L 281.025728 24.148543 
L 281.880859 23.522174 
L 282.73599 23.20648 
L 283.591122 23.194091 
L 284.446253 23.476781 
L 285.301385 24.045548 
L 286.156516 24.8907 
L 287.011648 26.00194 
L 288.294345 28.143924 
L 289.577042 30.82187 
L 290.859739 33.995854 
L 292.570002 38.928509 
L 294.280264 44.571626 
L 296.418093 52.475186 
L 298.983487 62.9597 
L 301.976447 76.187212 
L 306.67967 98.149765 
L 314.375853 134.108134 
L 318.223944 151.024046 
L 321.644469 165.121654 
L 324.637429 176.633306 
L 327.630389 187.332077 
L 330.623349 197.204473 
L 333.616309 206.258201 
L 336.609269 214.516815 
L 339.174663 220.988994 
L 341.740057 226.929053 
L 344.305452 232.366221 
L 346.870846 237.331277 
L 349.43624 241.855645 
L 352.001634 245.970682 
L 354.567029 249.707141 
L 357.132423 253.094772 
L 359.697817 256.162036 
L 362.690777 259.371513 
L 365.683737 262.221691 
L 368.676697 264.749601 
L 371.669657 266.9892 
L 374.662617 268.971444 
L 378.083142 270.957631 
L 381.503668 272.681848 
L 385.351759 274.349768 
L 389.19985 275.76971 
L 393.475508 277.100131 
L 398.17873 278.311267 
L 403.309519 279.384296 
L 408.867873 280.310712 
L 415.281358 281.139401 
L 422.549975 281.840958 
L 431.101289 282.429883 
L 441.362866 282.902891 
L 454.189837 283.264398 
L 471.292465 283.519945 
L 471.292465 283.519945 
" style="fill:none;stroke:#55a868;stroke-linecap:round;stroke-width:1.5;"/>
   </g>
   <g id="line2d_81">
    <path clip-path="url(#pba810f8034)" d="M 44.154328 283.337695 
L 59.119128 282.960312 
L 70.235836 282.47275 
L 79.214716 281.868332 
L 86.910899 281.128756 
L 93.324384 280.296353 
L 98.882738 279.365591 
L 104.013527 278.287272 
L 108.716749 277.069835 
L 112.992407 275.732089 
L 116.840498 274.303863 
L 120.688589 272.625598 
L 124.109115 270.889989 
L 127.52964 268.889803 
L 130.5226 266.892649 
L 133.51556 264.635078 
L 136.50852 262.085451 
L 139.50148 259.208965 
L 142.066874 256.45449 
L 144.632269 253.406063 
L 147.197663 250.036033 
L 149.763057 246.31508 
L 152.328451 242.212368 
L 154.893845 237.69579 
L 157.45924 232.732326 
L 160.024634 227.288537 
L 162.590028 221.331237 
L 165.155422 214.828367 
L 167.720816 207.750121 
L 170.286211 200.070354 
L 172.851605 191.768333 
L 175.844565 181.279099 
L 178.837525 169.922113 
L 181.830485 157.719363 
L 185.25101 142.809925 
L 189.099102 124.99308 
L 194.657456 98.039705 
L 200.21581 71.260929 
L 203.20877 57.810751 
L 205.774164 47.330066 
L 207.911993 39.624633 
L 209.622255 34.304442 
L 210.904952 30.89012 
L 212.18765 28.030133 
L 213.470347 25.779335 
L 214.325478 24.644076 
L 215.180609 23.819457 
L 216.035741 23.320837 
L 216.890872 23.163053 
L 217.746004 23.360288 
L 218.601135 23.925937 
L 219.456266 24.872456 
L 220.311398 26.211218 
L 221.166529 27.952356 
L 222.021661 30.104606 
L 223.304358 34.119065 
L 224.587055 39.091138 
L 225.869752 45.027819 
L 227.152449 51.925117 
L 228.862712 62.586245 
L 230.572975 74.850932 
L 232.283238 88.601003 
L 234.421066 107.623184 
L 236.98646 132.569805 
L 241.689683 181.208084 
L 245.110209 215.474425 
L 247.248037 234.866425 
L 248.9583 248.657421 
L 250.668563 260.54129 
L 251.95126 268.017134 
L 253.233957 274.137189 
L 254.089088 277.418044 
L 254.94422 280.033302 
L 255.799351 281.96535 
L 256.654483 283.201123 
L 257.082048 283.555102 
L 257.509614 283.732242 
L 257.93718 283.732242 
L 258.364745 283.555102 
L 258.792311 283.201123 
L 259.647443 281.96535 
L 260.502574 280.033302 
L 261.357705 277.418044 
L 262.212837 274.137189 
L 263.495534 268.017134 
L 264.778231 260.54129 
L 266.060928 251.819885 
L 267.771191 238.474653 
L 269.909019 219.513494 
L 272.474414 194.373904 
L 281.453293 103.672472 
L 283.591122 85.032406 
L 285.72895 68.524471 
L 287.439213 57.049598 
L 289.149476 47.220718 
L 290.432173 40.962814 
L 291.71487 35.669462 
L 292.997567 31.337208 
L 294.280264 27.952356 
L 295.135396 26.211218 
L 295.990527 24.872456 
L 296.845659 23.925937 
L 297.70079 23.360288 
L 298.555921 23.163053 
L 299.411053 23.320837 
L 300.266184 23.819457 
L 301.121316 24.644076 
L 301.976447 25.779335 
L 302.831579 27.209481 
L 304.114276 29.872485 
L 305.396973 33.108131 
L 307.107236 38.218349 
L 308.817498 44.120814 
L 310.955327 52.424044 
L 313.520721 63.44354 
L 316.941247 79.340852 
L 324.209864 114.735439 
L 328.913086 136.980756 
L 332.761178 154.084234 
L 336.181703 168.22976 
L 339.174663 179.709593 
L 342.167623 190.323106 
L 345.160583 200.070354 
L 348.153543 208.970951 
L 350.718937 215.951368 
L 353.284331 222.361163 
L 355.849726 228.230608 
L 358.41512 233.592022 
L 360.980514 238.478687 
L 363.545908 242.924013 
L 366.111303 246.9609 
L 368.676697 250.621263 
L 371.242091 253.9357 
L 373.807485 256.933261 
L 376.800445 260.066329 
L 379.793405 262.845686 
L 382.786365 265.308458 
L 385.779325 267.48853 
L 388.772285 269.416666 
L 392.19281 271.347302 
L 395.613336 273.022215 
L 399.461427 274.641489 
L 403.309519 276.01928 
L 407.585176 277.309594 
L 412.288398 278.483705 
L 417.419187 279.523521 
L 422.977541 280.420953 
L 429.391027 281.223474 
L 436.659643 281.902699 
L 445.210958 282.47275 
L 455.472534 282.930517 
L 468.727071 283.28898 
L 471.292465 283.337695 
L 471.292465 283.337695 
" style="fill:none;stroke:#c44e52;stroke-linecap:round;stroke-width:1.5;"/>
   </g>
   <g id="line2d_82">
    <path clip-path="url(#pba810f8034)" d="M 44.154328 23.813518 
L 56.553734 24.27299 
L 66.387745 24.858124 
L 74.511493 25.567108 
L 81.352545 26.388542 
L 87.338464 27.333168 
L 92.469253 28.358579 
L 97.172476 29.516624 
L 101.448133 30.789528 
L 105.296224 32.149013 
L 109.144315 33.747148 
L 112.564841 35.400624 
L 115.985366 37.307092 
L 118.978326 39.21167 
L 121.971286 41.365806 
L 124.964246 43.800175 
L 127.957206 46.548624 
L 130.5226 49.182493 
L 133.087995 52.099743 
L 135.653389 55.327595 
L 138.218783 58.895061 
L 140.784177 62.832841 
L 143.349571 67.173132 
L 145.914966 71.949344 
L 148.48036 77.195683 
L 151.045754 82.946579 
L 153.611148 89.235913 
L 156.176542 96.096017 
L 158.741937 103.556384 
L 161.307331 111.642056 
L 164.300291 121.889983 
L 167.293251 133.027773 
L 170.286211 145.046326 
L 173.706736 159.807605 
L 177.554828 177.567974 
L 182.25805 200.476026 
L 190.381799 240.215664 
L 193.374759 253.554086 
L 195.512587 262.147235 
L 197.22285 268.27185 
L 198.933113 273.581542 
L 200.21581 276.942574 
L 201.498507 279.701836 
L 202.353638 281.17585 
L 203.20877 282.335629 
L 204.063901 283.1626 
L 204.919033 283.638467 
L 205.774164 283.745356 
L 206.629295 283.465971 
L 207.484427 282.783762 
L 208.339558 281.683106 
L 209.19469 280.149499 
L 210.049821 278.169755 
L 210.904952 275.732219 
L 212.18765 271.196408 
L 213.470347 265.583837 
L 214.753044 258.881335 
L 216.035741 251.089196 
L 217.746004 239.033823 
L 219.456266 225.154599 
L 221.166529 209.594452 
L 223.304358 188.101704 
L 226.297318 155.228764 
L 232.710803 83.493435 
L 234.848632 62.784918 
L 236.558895 48.617235 
L 237.841592 39.740628 
L 239.124289 32.591596 
L 239.97942 28.875731 
L 240.834552 26.055175 
L 241.689683 24.169957 
L 242.117249 23.588644 
L 242.544814 23.252854 
L 242.97238 23.165446 
L 243.399946 23.328747 
L 243.827512 23.74454 
L 244.255077 24.414044 
L 245.110209 26.516194 
L 245.96534 29.633293 
L 246.820471 33.75381 
L 247.675603 38.85642 
L 248.9583 48.280949 
L 250.240997 59.696864 
L 251.523694 72.911088 
L 253.233957 92.912677 
L 255.371786 120.790046 
L 262.640402 219.230071 
L 264.350665 238.596721 
L 265.633362 251.235742 
L 266.916059 262.007045 
L 268.198757 270.732946 
L 269.053888 275.34779 
L 269.909019 278.968649 
L 270.764151 281.579108 
L 271.619282 283.172477 
L 272.046848 283.58827 
L 272.474414 283.751571 
L 272.901979 283.664163 
L 273.329545 283.328373 
L 273.757111 282.74706 
L 274.612242 280.861842 
L 275.467374 278.041286 
L 276.322505 274.325421 
L 277.177636 269.760815 
L 278.460333 261.438423 
L 279.743031 251.522239 
L 281.453293 236.196833 
L 283.591122 214.430421 
L 286.584082 181.045553 
L 291.71487 123.34416 
L 294.280264 97.322565 
L 296.418093 78.128382 
L 298.128356 64.694122 
L 299.838619 53.109995 
L 301.121316 45.680133 
L 302.404013 39.34161 
L 303.68671 34.090037 
L 304.969407 29.908143 
L 305.824538 27.700856 
L 306.67967 25.945738 
L 307.534801 24.630342 
L 308.389933 23.740797 
L 309.245064 23.262015 
L 310.100195 23.177886 
L 310.955327 23.471466 
L 311.810458 24.12515 
L 312.66559 25.120832 
L 313.520721 26.440062 
L 314.803418 28.984714 
L 316.086115 32.152145 
L 317.368812 35.879585 
L 319.079075 41.614375 
L 320.789338 48.09443 
L 322.927167 57.040018 
L 325.920126 70.716957 
L 330.195784 91.567181 
L 338.319532 131.374852 
L 342.167623 149.011097 
L 345.588149 163.64043 
L 348.581109 175.534786 
L 351.574069 186.545398 
L 354.567029 196.666881 
L 357.559988 205.915775 
L 360.125383 213.173015 
L 362.690777 219.839416 
L 365.256171 225.945578 
L 367.821565 231.524478 
L 370.38696 236.61028 
L 372.952354 241.237413 
L 375.517748 245.439874 
L 378.083142 249.250708 
L 380.648536 252.701639 
L 383.213931 255.82282 
L 386.206891 259.085252 
L 389.19985 261.979483 
L 392.19281 264.544123 
L 395.18577 266.814421 
L 398.17873 268.822393 
L 401.599256 270.832997 
L 405.019781 272.577306 
L 408.440307 274.089453 
L 412.288398 275.550383 
L 416.564055 276.918665 
L 420.839712 278.060595 
L 425.542935 279.099108 
L 431.101289 280.086291 
L 437.087209 280.917567 
L 443.92826 281.640217 
L 452.052009 282.263779 
L 461.88602 282.778301 
L 471.292465 283.103499 
L 471.292465 283.103499 
" style="fill:none;stroke:#8172b3;stroke-linecap:round;stroke-width:1.5;"/>
   </g>
   <g id="line2d_83">
    <path clip-path="url(#pba810f8034)" d="M 44.154328 282.817449 
L 54.415905 282.296924 
L 62.967219 281.648786 
L 70.235836 280.876614 
L 76.221756 280.033301 
L 81.78011 279.031803 
L 86.910899 277.871572 
L 91.186556 276.691849 
L 95.462213 275.278336 
L 99.310304 273.769179 
L 102.73083 272.207188 
L 106.151355 270.405476 
L 109.571881 268.328834 
L 112.564841 266.255051 
L 115.557801 263.910519 
L 118.550761 261.262252 
L 121.543721 258.27395 
L 124.109115 255.411886 
L 126.674509 252.24382 
L 129.239903 248.740856 
L 131.805297 244.872339 
L 134.370692 240.606014 
L 136.936086 235.908281 
L 139.50148 230.744579 
L 142.066874 225.079915 
L 144.632269 218.879587 
L 147.197663 212.110136 
L 149.763057 204.740577 
L 152.328451 196.743956 
L 154.893845 188.099298 
L 157.886805 177.178595 
L 160.879765 165.358972 
L 163.872725 152.668715 
L 167.293251 137.185928 
L 171.141342 118.736283 
L 183.968313 56.231962 
L 186.106142 47.252895 
L 188.24397 39.271837 
L 189.954233 33.79243 
L 191.23693 30.310529 
L 192.519627 27.440591 
L 193.802324 25.250626 
L 194.657456 24.202233 
L 195.512587 23.506694 
L 196.367719 23.183966 
L 197.22285 23.253596 
L 198.077981 23.734549 
L 198.933113 24.645008 
L 199.788244 26.002177 
L 200.643376 27.82205 
L 201.498507 30.119182 
L 202.353638 32.906432 
L 203.636335 38.029544 
L 204.919033 44.306582 
L 206.20173 51.751263 
L 207.484427 60.361694 
L 209.19469 73.618764 
L 210.904952 88.808131 
L 213.042781 110.23962 
L 215.608175 138.840161 
L 220.311398 195.077706 
L 222.876792 224.506219 
L 224.587055 242.222897 
L 226.297318 257.607463 
L 227.580015 267.20262 
L 228.862712 274.82778 
L 229.717843 278.692885 
L 230.572975 281.50578 
L 231.00054 282.499281 
L 231.428106 283.208789 
L 231.855672 283.628541 
L 232.283238 283.753422 
L 232.710803 283.579002 
L 233.138369 283.101573 
L 233.565935 282.31818 
L 233.9935 281.226654 
L 234.848632 278.114628 
L 235.703763 273.764928 
L 236.558895 268.191219 
L 237.414026 261.421989 
L 238.696723 249.126358 
L 239.97942 234.45511 
L 241.689683 211.708154 
L 243.827512 179.434275 
L 250.240997 79.14602 
L 251.95126 57.667539 
L 253.233957 44.465671 
L 254.089088 37.274137 
L 254.94422 31.485096 
L 255.799351 27.176437 
L 256.654483 24.406379 
L 257.082048 23.610884 
L 257.509614 23.21246 
L 257.93718 23.21246 
L 258.364745 23.610884 
L 258.792311 24.406379 
L 259.219877 25.596243 
L 260.075008 29.141605 
L 260.93014 34.19899 
L 261.785271 40.700195 
L 263.067968 52.963473 
L 264.350665 67.908324 
L 266.060928 91.234794 
L 268.198757 124.147292 
L 273.329545 205.541946 
L 275.039808 229.084583 
L 276.322505 244.487179 
L 277.605202 257.602112 
L 278.887899 268.191219 
L 279.743031 273.764928 
L 280.598162 278.114628 
L 281.453293 281.226654 
L 281.880859 282.31818 
L 282.308425 283.101573 
L 282.73599 283.579002 
L 283.163556 283.753422 
L 283.591122 283.628541 
L 284.018688 283.208789 
L 284.446253 282.499281 
L 285.301385 280.234664 
L 286.156516 276.887929 
L 287.011648 272.520878 
L 287.866779 267.20262 
L 289.149476 257.607463 
L 290.432173 246.314859 
L 292.142436 229.115848 
L 294.280264 205.153841 
L 302.831579 105.755741 
L 304.969407 84.837867 
L 306.67967 70.118169 
L 308.389933 57.362848 
L 309.67263 49.139736 
L 310.955327 42.084875 
L 312.238024 36.194711 
L 313.520721 31.450811 
L 314.375853 28.910112 
L 315.230984 26.853329 
L 316.086115 25.266723 
L 316.941247 24.134989 
L 317.796378 23.4415 
L 318.65151 23.168535 
L 319.506641 23.297495 
L 320.361772 23.809102 
L 321.216904 24.683581 
L 322.072035 25.900834 
L 322.927167 27.440591 
L 324.209864 30.310529 
L 325.492561 33.79243 
L 327.202824 39.271837 
L 328.913086 45.568243 
L 331.050915 54.368903 
L 333.616309 65.954575 
L 337.036835 82.500587 
L 348.153543 137.185928 
L 351.574069 152.668715 
L 354.994594 167.101814 
L 357.987554 178.793997 
L 360.980514 189.585735 
L 363.973474 199.480612 
L 366.538868 207.265542 
L 369.104262 214.431835 
L 371.669657 221.007984 
L 374.235051 227.025956 
L 376.800445 232.519745 
L 379.365839 237.524245 
L 381.931234 242.074373 
L 384.496628 246.204422 
L 387.062022 249.947579 
L 389.627416 253.335589 
L 392.19281 256.398534 
L 395.18577 259.598757 
L 398.17873 262.436666 
L 401.17169 264.950513 
L 404.16465 267.175158 
L 407.15761 269.142215 
L 410.578136 271.111349 
L 413.998661 272.819274 
L 417.846753 274.470122 
L 421.694844 275.874512 
L 425.970501 277.189515 
L 430.673724 278.385904 
L 435.804512 279.445301 
L 441.362866 280.359519 
L 447.776352 281.176962 
L 455.044969 281.868752 
L 463.596283 282.449301 
L 471.292465 282.817449 
L 471.292465 282.817449 
" style="fill:none;stroke:#937860;stroke-linecap:round;stroke-width:1.5;"/>
   </g>
   <g id="patch_3">
    <path d="M 44.154328 283.754392 
L 44.154328 23.162625 
" style="fill:none;stroke:#262626;stroke-linecap:square;stroke-linejoin:miter;stroke-width:1.25;"/>
   </g>
   <g id="patch_4">
    <path d="M 471.292465 283.754392 
L 471.292465 23.162625 
" style="fill:none;stroke:#262626;stroke-linecap:square;stroke-linejoin:miter;stroke-width:1.25;"/>
   </g>
   <g id="patch_5">
    <path d="M 44.154328 283.754392 
L 471.292465 283.754392 
" style="fill:none;stroke:#262626;stroke-linecap:square;stroke-linejoin:miter;stroke-width:1.25;"/>
   </g>
   <g id="patch_6">
    <path d="M 44.154328 23.162625 
L 471.292465 23.162625 
" style="fill:none;stroke:#262626;stroke-linecap:square;stroke-linejoin:miter;stroke-width:1.25;"/>
   </g>
   <g id="text_14">
    <!-- Chebyshev rational functions -->
    <g style="fill:#262626;" transform="translate(168.289913 17.162625)scale(0.144 -0.144)">
     <defs>
      <path d="M 3974 4289 
C 3974 4403 3968 4410 3930 4410 
C 3904 4410 3898 4403 3853 4327 
L 3571 3792 
C 3258 4187 2874 4416 2381 4416 
C 1286 4416 294 3456 294 2148 
C 294 826 1286 -128 2387 -128 
C 3366 -128 3974 730 3974 1461 
C 3974 1524 3974 1550 3917 1550 
C 3866 1550 3866 1531 3859 1474 
C 3808 585 3168 38 2477 38 
C 1824 38 781 495 781 2147 
C 781 3805 1843 4250 2464 4250 
C 3187 4250 3712 3628 3834 2745 
C 3846 2668 3846 2655 3904 2655 
C 3974 2655 3974 2668 3974 2783 
L 3974 4289 
z
" id="CMR17-43" transform="scale(0.015625)"/>
      <path d="M 2656 1933 
C 2656 2259 2592 2790 1837 2790 
C 1312 2790 1056 2368 979 2157 
L 973 2157 
L 973 4396 
L 211 4326 
L 211 4160 
C 589 4160 646 4122 646 3817 
L 646 426 
C 646 184 621 153 211 153 
L 211 -13 
C 365 0 646 0 813 0 
C 979 0 1267 0 1421 -13 
L 1421 153 
C 1011 153 986 178 986 428 
L 986 1658 
C 986 2247 1344 2688 1792 2688 
C 2266 2688 2317 2266 2317 1958 
L 2317 428 
C 2317 184 2291 153 1882 153 
L 1882 -13 
C 2035 0 2317 0 2483 0 
C 2650 0 2938 0 3091 -13 
L 3091 153 
C 2682 153 2656 178 2656 428 
L 2656 1933 
z
" id="CMR17-68" transform="scale(0.015625)"/>
      <path d="M 2438 1472 
C 2464 1498 2464 1511 2464 1576 
C 2464 2238 2118 2816 1389 2816 
C 710 2816 173 2169 173 1383 
C 173 551 781 -64 1459 -64 
C 2176 -64 2458 607 2458 740 
C 2458 784 2419 784 2406 784 
C 2362 784 2355 771 2330 696 
C 2189 265 1837 51 1504 51 
C 1229 51 954 203 781 480 
C 582 803 582 1176 582 1472 
L 2438 1472 
z
M 589 1568 
C 634 2505 1126 2714 1382 2714 
C 1818 2714 2112 2297 2118 1568 
L 589 1568 
z
" id="CMR17-65" transform="scale(0.015625)"/>
      <path d="M 960 4396 
L 198 4326 
L 198 4160 
C 576 4160 634 4122 634 3817 
L 634 -13 
L 749 -13 
L 934 441 
C 1120 141 1395 -64 1766 -64 
C 2406 -64 3053 500 3053 1370 
C 3053 2188 2477 2790 1830 2790 
C 1434 2790 1152 2579 960 2330 
L 960 4396 
z
M 973 2004 
C 973 2118 973 2138 1062 2272 
C 1312 2657 1670 2688 1792 2688 
C 1984 2688 2643 2585 2643 1376 
C 2643 108 1888 38 1734 38 
C 1536 38 1248 114 1043 486 
C 973 608 973 621 973 735 
L 973 2004 
z
" id="CMR17-62" transform="scale(0.015625)"/>
      <path d="M 2496 2197 
C 2656 2586 2944 2586 3034 2586 
L 3034 2752 
C 2912 2752 2752 2752 2630 2752 
C 2496 2752 2285 2752 2157 2758 
L 2157 2592 
C 2400 2573 2406 2394 2406 2343 
C 2406 2280 2394 2248 2362 2171 
L 1664 449 
L 902 2306 
C 870 2382 870 2426 870 2433 
C 870 2573 1018 2586 1171 2586 
L 1171 2758 
C 1018 2752 742 2752 582 2752 
C 410 2752 205 2752 64 2758 
L 64 2586 
C 410 2586 448 2554 531 2350 
L 1485 15 
C 1197 -738 1030 -1178 627 -1178 
C 557 -1178 397 -1159 282 -1044 
C 429 -1031 493 -942 493 -833 
C 493 -725 416 -629 288 -629 
C 147 -629 77 -725 77 -840 
C 77 -1095 339 -1280 627 -1280 
C 998 -1280 1229 -922 1357 -604 
L 2496 2197 
z
" id="CMR17-79" transform="scale(0.015625)"/>
      <path d="M 1978 2697 
C 1978 2813 1971 2819 1933 2819 
C 1907 2819 1901 2813 1824 2717 
C 1805 2691 1747 2626 1728 2601 
C 1523 2819 1235 2819 1126 2819 
C 416 2819 160 2447 160 2076 
C 160 1498 813 1365 998 1325 
C 1402 1243 1542 1217 1677 1101 
C 1760 1025 1901 884 1901 654 
C 1901 384 1747 38 1158 38 
C 602 38 403 460 288 1021 
C 269 1110 269 1117 218 1117 
C 166 1117 160 1110 160 983 
L 160 63 
C 160 -51 166 -58 205 -58 
C 237 -58 243 -51 275 0 
C 314 57 410 211 448 276 
C 576 103 800 -64 1158 -64 
C 1792 -64 2131 283 2131 784 
C 2131 1112 1958 1285 1875 1362 
C 1683 1561 1459 1606 1190 1657 
C 838 1735 390 1825 390 2217 
C 390 2383 480 2737 1126 2737 
C 1811 2737 1850 2094 1862 1888 
C 1869 1856 1901 1849 1920 1849 
C 1978 1849 1978 1869 1978 1978 
L 1978 2697 
z
" id="CMR17-73" transform="scale(0.015625)"/>
      <path d="M 2502 2163 
C 2560 2304 2662 2560 3034 2560 
L 3034 2726 
C 2912 2726 2752 2726 2630 2726 
C 2496 2726 2285 2726 2157 2732 
L 2157 2566 
C 2317 2553 2406 2477 2406 2311 
C 2406 2253 2406 2240 2368 2151 
L 1664 377 
L 902 2286 
C 864 2369 864 2381 864 2407 
C 864 2560 1075 2560 1171 2560 
L 1171 2732 
C 1018 2726 736 2726 576 2726 
C 403 2726 205 2726 64 2732 
L 64 2560 
C 307 2560 442 2560 518 2362 
L 1446 44 
C 1485 -51 1491 -64 1549 -64 
C 1606 -64 1613 -51 1651 44 
L 2502 2163 
z
" id="CMR17-76" transform="scale(0.015625)"/>
      <path d="M 960 1497 
C 960 2112 1222 2688 1702 2688 
C 1747 2688 1792 2682 1837 2662 
C 1837 2662 1696 2617 1696 2452 
C 1696 2298 1818 2234 1914 2234 
C 1990 2234 2131 2279 2131 2458 
C 2131 2663 1926 2790 1709 2790 
C 1222 2790 1011 2317 947 2093 
L 941 2093 
L 941 2790 
L 198 2720 
L 198 2554 
C 576 2554 634 2515 634 2208 
L 634 428 
C 634 184 608 153 198 153 
L 198 -13 
C 352 0 646 0 813 0 
C 998 0 1325 0 1498 -13 
L 1498 153 
C 1037 153 960 153 960 440 
L 960 1497 
z
" id="CMR17-72" transform="scale(0.015625)"/>
      <path d="M 2304 1653 
C 2304 2072 2304 2294 2035 2543 
C 1798 2752 1523 2816 1306 2816 
C 800 2816 435 2407 435 1971 
C 435 1728 627 1728 666 1728 
C 749 1728 896 1778 896 1954 
C 896 2112 774 2181 666 2181 
C 640 2181 608 2174 589 2168 
C 723 2592 1069 2714 1293 2714 
C 1613 2714 1965 2429 1965 1885 
L 1965 1600 
C 1587 1600 1133 1549 774 1357 
C 371 1133 256 813 256 570 
C 256 77 832 -64 1171 -64 
C 1523 -64 1850 139 1990 511 
C 2003 233 2182 -18 2464 -18 
C 2598 -18 2938 70 2938 567 
L 2938 920 
L 2822 920 
L 2822 562 
C 2822 178 2650 128 2566 128 
C 2304 128 2304 458 2304 738 
L 2304 1653 
z
M 1965 870 
C 1965 317 1568 38 1216 38 
C 896 38 646 275 646 570 
C 646 761 730 1100 1101 1305 
C 1408 1478 1760 1504 1965 1504 
L 1965 870 
z
" id="CMR17-61" transform="scale(0.015625)"/>
      <path d="M 966 2560 
L 1862 2560 
L 1862 2725 
L 966 2725 
L 966 3904 
L 851 3904 
C 838 3245 614 2668 70 2668 
L 70 2560 
L 627 2560 
L 627 771 
C 627 650 627 -64 1370 -64 
C 1747 -64 1965 306 1965 777 
L 1965 1140 
L 1850 1140 
L 1850 783 
C 1850 344 1677 51 1408 51 
C 1222 51 966 178 966 758 
L 966 2560 
z
" id="CMR17-74" transform="scale(0.015625)"/>
      <path d="M 992 3909 
C 992 4049 877 4170 730 4170 
C 589 4170 467 4056 467 3909 
C 467 3769 582 3648 730 3648 
C 870 3648 992 3763 992 3909 
z
M 243 2706 
L 243 2541 
C 602 2541 653 2502 653 2197 
L 653 427 
C 653 184 627 153 218 153 
L 218 -13 
C 371 0 646 0 806 0 
C 960 0 1222 0 1370 -13 
L 1370 153 
C 992 153 979 191 979 420 
L 979 2776 
L 243 2706 
z
" id="CMR17-69" transform="scale(0.015625)"/>
      <path d="M 2758 1356 
C 2758 2176 2163 2816 1466 2816 
C 768 2816 173 2176 173 1356 
C 173 551 768 -64 1466 -64 
C 2163 -64 2758 551 2758 1356 
z
M 1466 51 
C 1165 51 909 230 762 480 
C 602 767 582 1126 582 1408 
C 582 1677 595 2010 762 2298 
C 890 2509 1139 2714 1466 2714 
C 1754 2714 1997 2554 2150 2330 
C 2349 2029 2349 1607 2349 1408 
C 2349 1158 2336 775 2163 467 
C 1984 173 1709 51 1466 51 
z
" id="CMR17-6f" transform="scale(0.015625)"/>
      <path d="M 2656 1933 
C 2656 2259 2592 2790 1837 2790 
C 1331 2790 1069 2400 973 2144 
L 966 2144 
L 966 2790 
L 211 2720 
L 211 2554 
C 589 2554 646 2515 646 2208 
L 646 428 
C 646 184 621 153 211 153 
L 211 -13 
C 365 0 646 0 813 0 
C 979 0 1267 0 1421 -13 
L 1421 153 
C 1011 153 986 178 986 428 
L 986 1658 
C 986 2247 1344 2688 1792 2688 
C 2266 2688 2317 2266 2317 1958 
L 2317 428 
C 2317 184 2291 153 1882 153 
L 1882 -13 
C 2035 0 2317 0 2483 0 
C 2650 0 2938 0 3091 -13 
L 3091 153 
C 2682 153 2656 178 2656 428 
L 2656 1933 
z
" id="CMR17-6e" transform="scale(0.015625)"/>
      <path d="M 979 4396 
L 218 4326 
L 218 4160 
C 595 4160 653 4122 653 3817 
L 653 426 
C 653 184 627 153 218 153 
L 218 -13 
C 371 0 653 0 813 0 
C 979 0 1261 0 1414 -13 
L 1414 153 
C 1005 153 979 178 979 426 
L 979 4396 
z
" id="CMR17-6c" transform="scale(0.015625)"/>
      <path d="M 979 2560 
L 1709 2560 
L 1709 2725 
L 966 2725 
L 966 3494 
C 966 4022 1235 4352 1510 4352 
C 1594 4352 1690 4327 1754 4282 
C 1702 4269 1568 4225 1568 4067 
C 1568 3901 1696 3850 1786 3850 
C 1875 3850 2003 3901 2003 4067 
C 2003 4308 1773 4454 1517 4454 
C 1152 4454 653 4156 653 3481 
L 653 2725 
L 141 2725 
L 141 2560 
L 653 2560 
L 653 427 
C 653 184 627 153 218 153 
L 218 -13 
C 371 0 666 0 832 0 
C 1018 0 1344 0 1517 -13 
L 1517 153 
C 1056 153 979 153 979 439 
L 979 2560 
z
" id="CMR17-66" transform="scale(0.015625)"/>
      <path d="M 1882 2693 
L 1882 2528 
C 2259 2528 2317 2489 2317 2186 
L 2317 1032 
C 2317 500 2029 38 1555 38 
C 1030 38 986 348 986 678 
L 986 2763 
L 211 2693 
L 211 2528 
C 467 2528 640 2528 646 2274 
L 646 1058 
C 646 633 646 361 813 183 
C 896 101 1056 -64 1517 -64 
C 2061 -64 2272 377 2323 506 
L 2330 506 
L 2330 -63 
L 3091 -63 
L 3091 128 
C 2714 128 2656 166 2656 473 
L 2656 2763 
L 1882 2693 
z
" id="CMR17-75" transform="scale(0.015625)"/>
      <path d="M 2234 2240 
C 2112 2240 1933 2240 1933 2017 
C 1933 1838 2080 1787 2163 1787 
C 2208 1787 2394 1807 2394 2024 
C 2394 2467 1958 2803 1466 2803 
C 787 2803 211 2178 211 1363 
C 211 516 813 -64 1466 -64 
C 2259 -64 2458 677 2458 748 
C 2458 774 2451 793 2406 793 
C 2362 793 2355 787 2330 703 
C 2163 180 1798 51 1523 51 
C 1114 51 621 427 621 1369 
C 621 2338 1094 2688 1472 2688 
C 1722 2688 2093 2573 2234 2240 
z
" id="CMR17-63" transform="scale(0.015625)"/>
     </defs>
     <use transform="scale(0.996264)" xlink:href="#CMR17-43"/>
     <use transform="translate(66.509881 0)scale(0.996264)" xlink:href="#CMR17-68"/>
     <use transform="translate(117.40525 0)scale(0.996264)" xlink:href="#CMR17-65"/>
     <use transform="translate(157.890911 0)scale(0.996264)" xlink:href="#CMR17-62"/>
     <use transform="translate(206.183827 0)scale(0.996264)" xlink:href="#CMR17-79"/>
     <use transform="translate(254.476742 0)scale(0.996264)" xlink:href="#CMR17-73"/>
     <use transform="translate(290.27808 0)scale(0.996264)" xlink:href="#CMR17-68"/>
     <use transform="translate(341.17345 0)scale(0.996264)" xlink:href="#CMR17-65"/>
     <use transform="translate(381.65911 0)scale(0.996264)" xlink:href="#CMR17-76"/>
     <use transform="translate(460.027993 0)scale(0.996264)" xlink:href="#CMR17-72"/>
     <use transform="translate(495.30876 0)scale(0.996264)" xlink:href="#CMR17-61"/>
     <use transform="translate(540.999237 0)scale(0.996264)" xlink:href="#CMR17-74"/>
     <use transform="translate(576.280005 0)scale(0.996264)" xlink:href="#CMR17-69"/>
     <use transform="translate(601.151064 0)scale(0.996264)" xlink:href="#CMR17-6f"/>
     <use transform="translate(646.841541 0)scale(0.996264)" xlink:href="#CMR17-6e"/>
     <use transform="translate(697.736911 0)scale(0.996264)" xlink:href="#CMR17-61"/>
     <use transform="translate(743.427388 0)scale(0.996264)" xlink:href="#CMR17-6c"/>
     <use transform="translate(798.374413 0)scale(0.996264)" xlink:href="#CMR17-66"/>
     <use transform="translate(825.847925 0)scale(0.996264)" xlink:href="#CMR17-75"/>
     <use transform="translate(876.743295 0)scale(0.996264)" xlink:href="#CMR17-6e"/>
     <use transform="translate(927.638665 0)scale(0.996264)" xlink:href="#CMR17-63"/>
     <use transform="translate(968.124325 0)scale(0.996264)" xlink:href="#CMR17-74"/>
     <use transform="translate(1003.405093 0)scale(0.996264)" xlink:href="#CMR17-69"/>
     <use transform="translate(1028.276151 0)scale(0.996264)" xlink:href="#CMR17-6f"/>
     <use transform="translate(1073.966628 0)scale(0.996264)" xlink:href="#CMR17-6e"/>
     <use transform="translate(1124.861998 0)scale(0.996264)" xlink:href="#CMR17-73"/>
    </g>
   </g>
   <g id="legend_1">
    <g id="line2d_84">
     <path d="M 392.980497 40.982625 
L 419.380497 40.982625 
" style="fill:none;stroke:#4c72b0;stroke-linecap:round;stroke-width:1.5;"/>
    </g>
    <g id="line2d_85"/>
    <g id="text_15">
     <!-- $i = 1$ -->
     <g style="fill:#262626;" transform="translate(429.940497 45.602625)scale(0.132 -0.132)">
      <defs>
       <path d="M 4115 2017 
C 4211 2017 4307 2017 4307 2125 
C 4307 2240 4198 2240 4090 2240 
L 512 2240 
C 403 2240 294 2240 294 2125 
C 294 2017 390 2017 486 2017 
L 4115 2017 
z
M 4090 896 
C 4198 896 4307 896 4307 1011 
C 4307 1119 4211 1119 4115 1119 
L 486 1119 
C 390 1119 294 1119 294 1011 
C 294 896 403 896 512 896 
L 4090 896 
z
" id="CMR17-3d" transform="scale(0.015625)"/>
      </defs>
      <use transform="scale(0.996264)" xlink:href="#CMMI12-69"/>
      <use transform="translate(60.952611 0)scale(0.996264)" xlink:href="#CMR17-3d"/>
      <use transform="translate(160.341408 0)scale(0.996264)" xlink:href="#CMR17-31"/>
     </g>
    </g>
    <g id="line2d_86">
     <path d="M 392.980497 59.379686 
L 419.380497 59.379686 
" style="fill:none;stroke:#dd8452;stroke-linecap:round;stroke-width:1.5;"/>
    </g>
    <g id="line2d_87"/>
    <g id="text_16">
     <!-- $i = 2$ -->
     <g style="fill:#262626;" transform="translate(429.940497 63.999686)scale(0.132 -0.132)">
      <use transform="scale(0.996264)" xlink:href="#CMMI12-69"/>
      <use transform="translate(60.952611 0)scale(0.996264)" xlink:href="#CMR17-3d"/>
      <use transform="translate(160.341408 0)scale(0.996264)" xlink:href="#CMR17-32"/>
     </g>
    </g>
    <g id="line2d_88">
     <path d="M 392.980497 77.776748 
L 419.380497 77.776748 
" style="fill:none;stroke:#55a868;stroke-linecap:round;stroke-width:1.5;"/>
    </g>
    <g id="line2d_89"/>
    <g id="text_17">
     <!-- $i = 3$ -->
     <g style="fill:#262626;" transform="translate(429.940497 82.396748)scale(0.132 -0.132)">
      <use transform="scale(0.996264)" xlink:href="#CMMI12-69"/>
      <use transform="translate(60.952611 0)scale(0.996264)" xlink:href="#CMR17-3d"/>
      <use transform="translate(160.341408 0)scale(0.996264)" xlink:href="#CMR17-33"/>
     </g>
    </g>
    <g id="line2d_90">
     <path d="M 392.980497 96.173809 
L 419.380497 96.173809 
" style="fill:none;stroke:#c44e52;stroke-linecap:round;stroke-width:1.5;"/>
    </g>
    <g id="line2d_91"/>
    <g id="text_18">
     <!-- $i = 4$ -->
     <g style="fill:#262626;" transform="translate(429.940497 100.793809)scale(0.132 -0.132)">
      <use transform="scale(0.996264)" xlink:href="#CMMI12-69"/>
      <use transform="translate(60.952611 0)scale(0.996264)" xlink:href="#CMR17-3d"/>
      <use transform="translate(160.341408 0)scale(0.996264)" xlink:href="#CMR17-34"/>
     </g>
    </g>
    <g id="line2d_92">
     <path d="M 392.980497 114.570871 
L 419.380497 114.570871 
" style="fill:none;stroke:#8172b3;stroke-linecap:round;stroke-width:1.5;"/>
    </g>
    <g id="line2d_93"/>
    <g id="text_19">
     <!-- $i = 5$ -->
     <g style="fill:#262626;" transform="translate(429.940497 119.190871)scale(0.132 -0.132)">
      <defs>
       <path d="M 730 3692 
C 794 3666 1056 3584 1325 3584 
C 1920 3584 2246 3911 2432 4100 
C 2432 4157 2432 4192 2394 4192 
C 2387 4192 2374 4192 2323 4163 
C 2099 4058 1837 3973 1517 3973 
C 1325 3973 1037 3999 723 4139 
C 653 4171 640 4171 634 4171 
C 602 4171 595 4164 595 4037 
L 595 2203 
C 595 2089 595 2057 659 2057 
C 691 2057 704 2070 736 2114 
C 941 2401 1222 2522 1542 2522 
C 1766 2522 2246 2382 2246 1289 
C 2246 1085 2246 715 2054 421 
C 1894 159 1645 25 1370 25 
C 947 25 518 320 403 814 
C 429 807 480 795 506 795 
C 589 795 749 840 749 1038 
C 749 1210 627 1280 506 1280 
C 358 1280 262 1190 262 1011 
C 262 454 704 -128 1382 -128 
C 2042 -128 2669 440 2669 1264 
C 2669 2030 2170 2624 1549 2624 
C 1222 2624 947 2503 730 2274 
L 730 3692 
z
" id="CMR17-35" transform="scale(0.015625)"/>
      </defs>
      <use transform="scale(0.996264)" xlink:href="#CMMI12-69"/>
      <use transform="translate(60.952611 0)scale(0.996264)" xlink:href="#CMR17-3d"/>
      <use transform="translate(160.341408 0)scale(0.996264)" xlink:href="#CMR17-35"/>
     </g>
    </g>
    <g id="line2d_94">
     <path d="M 392.980497 132.967932 
L 419.380497 132.967932 
" style="fill:none;stroke:#937860;stroke-linecap:round;stroke-width:1.5;"/>
    </g>
    <g id="line2d_95"/>
    <g id="text_20">
     <!-- $i = 6$ -->
     <g style="fill:#262626;" transform="translate(429.940497 137.587932)scale(0.132 -0.132)">
      <defs>
       <path d="M 678 2176 
C 678 3690 1395 4032 1811 4032 
C 1946 4032 2272 4009 2400 3776 
C 2298 3776 2106 3776 2106 3553 
C 2106 3381 2246 3323 2336 3323 
C 2394 3323 2566 3348 2566 3560 
C 2566 3954 2246 4179 1805 4179 
C 1043 4179 243 3390 243 1984 
C 243 253 966 -128 1478 -128 
C 2099 -128 2688 427 2688 1283 
C 2688 2081 2170 2662 1517 2662 
C 1126 2662 838 2407 678 1960 
L 678 2176 
z
M 1478 25 
C 691 25 691 1200 691 1436 
C 691 1896 909 2560 1504 2560 
C 1613 2560 1926 2560 2138 2120 
C 2253 1870 2253 1609 2253 1289 
C 2253 944 2253 690 2118 434 
C 1978 171 1773 25 1478 25 
z
" id="CMR17-36" transform="scale(0.015625)"/>
      </defs>
      <use transform="scale(0.996264)" xlink:href="#CMMI12-69"/>
      <use transform="translate(60.952611 0)scale(0.996264)" xlink:href="#CMR17-3d"/>
      <use transform="translate(160.341408 0)scale(0.996264)" xlink:href="#CMR17-36"/>
     </g>
    </g>
   </g>
  </g>
 </g>
 <defs>
  <clipPath id="pba810f8034">
   <rect height="260.591767" width="427.138137" x="44.154328" y="23.162625"/>
  </clipPath>
 </defs>
</svg>
