<?xml version="1.0" encoding="UTF-8" standalone="no"?>
<!-- Created with Inkscape (http://www.inkscape.org/) -->

<svg
   version="1.1"
   id="svg2"
   width="283.35556"
   height="32.747513"
   viewBox="0 0 1020.0801 117.89104"
   sodipodi:docname="logo-special-functions-light.svg"
   inkscape:export-filename="/home/sia/work/ADCP/Noise-Estimation/code/imate/docs/source/_static/images/logo-special-functions-light.png"
   inkscape:export-xdpi="81.8368"
   inkscape:export-ydpi="81.8368"
   inkscape:version="1.1.2 (1:1.1+202202050852+0a00cf5339)"
   xmlns:inkscape="http://www.inkscape.org/namespaces/inkscape"
   xmlns:sodipodi="http://sodipodi.sourceforge.net/DTD/sodipodi-0.dtd"
   xmlns="http://www.w3.org/2000/svg"
   xmlns:svg="http://www.w3.org/2000/svg">
  <sodipodi:namedview
     id="namedview6"
     pagecolor="#ffffff"
     bordercolor="#666666"
     borderopacity="1.0"
     inkscape:pageshadow="2"
     inkscape:pageopacity="0.0"
     inkscape:pagecheckerboard="0"
     showgrid="false"
     fit-margin-top="0"
     fit-margin-left="0"
     fit-margin-right="0"
     fit-margin-bottom="0"
     inkscape:zoom="2.017917"
     inkscape:cx="128.35017"
     inkscape:cy="-27.008048"
     inkscape:window-width="1920"
     inkscape:window-height="1008"
     inkscape:window-x="0"
     inkscape:window-y="24"
     inkscape:window-maximized="1"
     inkscape:current-layer="svg2"
     inkscape:snap-global="false" />
  <defs
     id="defs6" />
  <path
     id="text1596"
     style="font-size:80.1727px;line-height:1.25;font-family:sans-serif;fill:#00809a;fill-opacity:1;stroke-width:6.01296"
     sodipodi:type="inkscape:offset"
     inkscape:radius="0.95485687"
     inkscape:original="M 623.46289 -72.175781 C 620.25285 -72.175781 617.1996 -71.836748 614.30273 -71.158203 C 611.40587 -70.479658 608.67869 -69.605169 606.12109 -68.535156 C 603.5896 -67.491241 601.21441 -66.331531 598.99609 -65.052734 C 596.80387 -63.800036 594.7956 -62.599479 592.96875 -61.451172 L 592.96875 -70.884766 L 588.07422 -70.884766 L 588.07422 -17.097656 L 592.96875 -17.097656 L 592.96875 -55.8125 C 594.48243 -57.091296 596.33512 -58.423453 598.52734 -59.806641 C 600.71957 -61.189828 603.12068 -62.442244 605.73047 -63.564453 C 608.34026 -64.71276 611.10633 -65.652072 614.0293 -66.382812 C 616.97836 -67.139651 619.97975 -67.517578 623.0332 -67.517578 C 625.66909 -67.517578 628.04427 -67.29718 630.1582 -66.853516 C 632.27213 -66.409852 634.05805 -65.626115 635.51953 -64.503906 C 637.00711 -63.381697 638.14284 -61.855072 638.92578 -59.923828 C 639.73482 -58.018683 640.14062 -55.578674 640.14062 -52.603516 L 640.14062 -17.097656 L 645.0332 -17.097656 L 645.0332 -53.660156 C 645.0332 -56.478728 644.5885 -59.022453 643.70117 -61.292969 C 642.81384 -63.589583 641.47068 -65.534982 639.66992 -67.126953 C 637.89527 -68.745022 635.65168 -69.984473 632.9375 -70.845703 C 630.24942 -71.733031 627.0905 -72.175781 623.46289 -72.175781 z M 926.69531 -72.175781 C 923.48527 -72.175781 920.43007 -71.836748 917.5332 -71.158203 C 914.63634 -70.479658 911.90916 -69.605169 909.35156 -68.535156 C 906.82007 -67.491241 904.44684 -66.331531 902.22852 -65.052734 C 900.03629 -63.800036 898.02607 -62.599479 896.19922 -61.451172 L 896.19922 -70.884766 L 891.30664 -70.884766 L 891.30664 -17.097656 L 896.19922 -17.097656 L 896.19922 -55.8125 C 897.7129 -57.091296 899.56559 -58.423453 901.75781 -59.806641 C 903.95003 -61.189828 906.35115 -62.442244 908.96094 -63.564453 C 911.57073 -64.71276 914.3368 -65.652072 917.25977 -66.382812 C 920.20883 -67.139651 923.21022 -67.517578 926.26367 -67.517578 C 928.89956 -67.517578 931.27474 -67.29718 933.38867 -66.853516 C 935.5026 -66.409852 937.29047 -65.626115 938.75195 -64.503906 C 940.23953 -63.381697 941.37527 -61.855072 942.1582 -59.923828 C 942.96724 -58.018683 943.37109 -55.578674 943.37109 -52.603516 L 943.37109 -17.097656 L 948.26367 -17.097656 L 948.26367 -53.660156 C 948.26367 -56.478728 947.82092 -59.022453 946.93359 -61.292969 C 946.04627 -63.589583 944.70114 -65.534982 942.90039 -67.126953 C 941.12573 -68.745022 938.88215 -69.984473 936.16797 -70.845703 C 933.47989 -71.733031 930.32292 -72.175781 926.69531 -72.175781 z M 27.570312 -71.863281 C 25.665167 -71.863281 23.734685 -71.772529 21.777344 -71.589844 C 19.820002 -71.407159 17.926461 -71.107019 16.099609 -70.689453 C 14.298855 -70.297985 12.60369 -69.749565 11.011719 -69.044922 C 9.4197478 -68.366377 8.0227683 -67.517817 6.8222656 -66.5 C 5.6478609 -65.482183 4.7215137 -64.268661 4.0429688 -62.859375 C 3.3644238 -61.476187 3.0253906 -59.884738 3.0253906 -58.083984 C 3.0253906 -56.257133 3.4422115 -54.652719 4.2773438 -53.269531 C 5.1385739 -51.886343 6.2872726 -50.659857 7.7226562 -49.589844 C 9.1841377 -48.545928 10.881257 -47.630593 12.8125 -46.847656 C 14.769841 -46.06472 16.831923 -45.360724 18.998047 -44.734375 C 21.164171 -44.108026 23.394792 -43.520712 25.691406 -42.972656 C 28.014118 -42.450699 30.257704 -41.902278 32.423828 -41.328125 C 34.589952 -40.780069 36.639069 -40.179791 38.570312 -39.527344 C 40.527654 -38.874897 42.224773 -38.119043 43.660156 -37.257812 C 45.121638 -36.42268 46.268383 -35.444475 47.103516 -34.322266 C 47.964746 -33.200057 48.396484 -31.893829 48.396484 -30.40625 C 48.396484 -28.5533 47.861029 -26.987781 46.791016 -25.708984 C 45.7471 -24.430188 44.272333 -23.387159 42.367188 -22.578125 C 40.462042 -21.795188 38.205492 -21.220839 35.595703 -20.855469 C 32.985915 -20.490098 30.140097 -20.306641 27.060547 -20.306641 C 22.7022 -20.306641 18.541097 -20.699485 14.574219 -21.482422 C 10.633438 -22.265358 6.8872028 -23.712243 3.3378906 -25.826172 L 3.3378906 -19.837891 C 6.7828113 -18.663486 10.397447 -17.737139 14.181641 -17.058594 C 17.991932 -16.380049 22.232776 -16.041016 26.904297 -16.041016 C 28.939932 -16.041016 31.002013 -16.131768 33.089844 -16.314453 C 35.203772 -16.47104 37.239924 -16.758215 39.197266 -17.175781 C 41.180705 -17.593347 43.033399 -18.154732 44.755859 -18.859375 C 46.504418 -19.590116 48.018079 -20.490534 49.296875 -21.560547 C 50.601769 -22.656658 51.631833 -23.947967 52.388672 -25.435547 C 53.145511 -26.949224 53.525391 -28.711166 53.525391 -30.720703 C 53.525391 -32.573653 53.093652 -34.203996 52.232422 -35.613281 C 51.39729 -37.022567 50.248591 -38.274983 48.787109 -39.371094 C 47.351726 -40.467205 45.65656 -41.419481 43.699219 -42.228516 C 41.767975 -43.063648 39.705894 -43.80849 37.513672 -44.460938 C 35.347548 -45.139482 33.102009 -45.76569 30.779297 -46.339844 L 24.046875 -48.023438 C 21.880751 -48.597591 19.818669 -49.19787 17.861328 -49.824219 C 15.930085 -50.476666 14.234919 -51.193626 12.773438 -51.976562 C 11.338054 -52.759499 10.189355 -53.659917 9.328125 -54.677734 C 8.4929927 -55.695552 8.0742188 -56.883144 8.0742188 -58.240234 C 8.0742188 -59.858303 8.518922 -61.255283 9.40625 -62.429688 C 10.319676 -63.604092 11.62395 -64.569333 13.320312 -65.326172 C 15.042773 -66.109108 17.130783 -66.683458 19.583984 -67.048828 C 22.063283 -67.414198 24.881219 -67.595703 28.039062 -67.595703 C 30.648851 -67.595703 33.024036 -67.440128 35.164062 -67.126953 C 37.304089 -66.839876 39.223559 -66.474914 40.919922 -66.03125 C 42.642382 -65.587586 44.169008 -65.07806 45.5 -64.503906 C 46.830992 -63.955851 48.00562 -63.43336 49.023438 -62.9375 L 49.023438 -68.574219 C 47.327075 -69.017883 45.642921 -69.436657 43.972656 -69.828125 C 42.32849 -70.219593 40.631371 -70.558626 38.882812 -70.845703 C 37.160352 -71.158878 35.359516 -71.407159 33.480469 -71.589844 C 31.627519 -71.772529 29.658143 -71.863281 27.570312 -71.863281 z M 237.71094 -71.863281 C 234.5009 -71.863281 231.43468 -71.602036 228.51172 -71.080078 C 225.58876 -70.55812 222.86157 -69.776337 220.33008 -68.732422 C 217.79858 -67.688507 215.50119 -66.382279 213.43945 -64.816406 C 211.37772 -63.276631 209.60281 -61.475795 208.11523 -59.414062 C 206.65375 -57.35233 205.51802 -55.030956 204.70898 -52.447266 C 203.92605 -49.863575 203.53516 -47.030722 203.53516 -43.951172 C 203.53516 -40.871622 203.92605 -38.040722 204.70898 -35.457031 C 205.51802 -32.873341 206.65375 -30.550014 208.11523 -28.488281 C 209.60281 -26.426548 211.37772 -24.612748 213.43945 -23.046875 C 215.50119 -21.5071 217.79858 -20.21579 220.33008 -19.171875 C 222.86157 -18.12796 225.58876 -17.344223 228.51172 -16.822266 C 231.46078 -16.300308 234.527 -16.041016 237.71094 -16.041016 C 240.29463 -16.041016 242.68278 -16.170662 244.875 -16.431641 C 247.06722 -16.692619 249.15523 -17.057582 251.13867 -17.527344 C 253.12211 -17.997106 255.02666 -18.55849 256.85352 -19.210938 C 258.70647 -19.863385 260.57212 -20.580345 262.45117 -21.363281 L 262.45117 -27.197266 C 261.06798 -26.28384 259.52839 -25.409351 257.83203 -24.574219 C 256.16177 -23.765184 254.32204 -23.048224 252.3125 -22.421875 C 250.32906 -21.795526 248.18919 -21.298964 245.89258 -20.933594 C 243.62206 -20.568223 241.20798 -20.384766 238.65039 -20.384766 C 233.48301 -20.384766 229.00685 -20.933186 225.22266 -22.029297 C 221.43846 -23.151506 218.30742 -24.72999 215.82812 -26.765625 C 213.37492 -28.827358 211.54816 -31.308213 210.34766 -34.205078 C 209.17325 -37.101943 208.58594 -40.349664 208.58594 -43.951172 C 208.58594 -47.55268 209.17325 -50.802354 210.34766 -53.699219 C 211.54816 -56.622182 213.37492 -59.101084 215.82812 -61.136719 C 218.30742 -63.198452 221.43846 -64.791853 225.22266 -65.914062 C 229.00685 -67.036272 233.48301 -67.595703 238.65039 -67.595703 C 241.20798 -67.595703 243.6091 -67.414198 245.85352 -67.048828 C 248.09793 -66.683458 250.19891 -66.186896 252.15625 -65.560547 C 254.13969 -64.934198 255.97942 -64.204273 257.67578 -63.369141 C 259.37214 -62.534008 260.96359 -61.646555 262.45117 -60.707031 L 262.45117 -66.578125 C 260.57212 -67.361062 258.70647 -68.06701 256.85352 -68.693359 C 255.02666 -69.345806 253.12211 -69.905238 251.13867 -70.375 C 249.15523 -70.844762 247.06722 -71.211677 244.875 -71.472656 C 242.68278 -71.733635 240.29463 -71.863281 237.71094 -71.863281 z M 325.67383 -71.863281 C 321.0545 -71.863281 316.68206 -71.498319 312.55859 -70.767578 C 308.46123 -70.062935 304.59831 -69.22734 300.9707 -68.261719 L 300.9707 -62.546875 C 302.71926 -63.22542 304.45527 -63.864592 306.17773 -64.464844 C 307.90019 -65.065095 309.70103 -65.587586 311.58008 -66.03125 C 313.45913 -66.501012 315.48231 -66.865974 317.64844 -67.126953 C 319.81456 -67.387932 322.21568 -67.517578 324.85156 -67.517578 C 326.8089 -67.517578 328.75235 -67.426826 330.68359 -67.244141 C 332.64094 -67.087553 334.49363 -66.813343 336.24219 -66.421875 C 338.01684 -66.030407 339.6621 -65.507916 341.17578 -64.855469 C 342.68946 -64.22912 344.0067 -63.434372 345.12891 -62.46875 C 346.25112 -61.529226 347.1256 -60.419421 347.75195 -59.140625 C 348.3783 -57.861829 348.69141 -56.387061 348.69141 -54.716797 L 348.69141 -50.607422 C 343.65451 -50.320345 338.85229 -49.95343 334.28516 -49.509766 C 329.74412 -49.092199 325.51625 -48.545732 321.60156 -47.867188 C 317.68688 -47.21474 314.13707 -46.405075 310.95312 -45.439453 C 307.79528 -44.499929 305.09598 -43.338266 302.85156 -41.955078 C 300.60714 -40.597988 298.87113 -38.993575 297.64453 -37.140625 C 296.44403 -35.313773 295.84375 -33.199833 295.84375 -30.798828 C 295.84375 -28.371725 296.36624 -26.231856 297.41016 -24.378906 C 298.45407 -22.552054 299.93985 -21.012464 301.87109 -19.759766 C 303.80234 -18.533165 306.15159 -17.606818 308.91797 -16.980469 C 311.71044 -16.35412 314.8564 -16.041016 318.35352 -16.041016 C 321.0416 -16.041016 323.78175 -16.209556 326.57422 -16.548828 C 329.36669 -16.888101 332.08091 -17.371698 334.7168 -17.998047 C 337.37878 -18.624396 339.89658 -19.367285 342.27148 -20.228516 C 344.67249 -21.089746 346.81236 -22.029058 348.69141 -23.046875 L 348.69141 -17.097656 L 353.54492 -17.097656 L 353.54492 -53.582031 C 353.54492 -56.896462 352.82796 -59.701433 351.39258 -61.998047 C 349.95719 -64.320759 347.98782 -66.212347 345.48242 -67.673828 C 342.97703 -69.13531 340.02749 -70.193256 336.63477 -70.845703 C 333.24204 -71.524248 329.58851 -71.863281 325.67383 -71.863281 z M 693.30078 -71.863281 C 690.09074 -71.863281 687.02453 -71.602036 684.10156 -71.080078 C 681.1786 -70.55812 678.45142 -69.776337 675.91992 -68.732422 C 673.38843 -67.688507 671.09103 -66.382279 669.0293 -64.816406 C 666.96756 -63.276631 665.19461 -61.475795 663.70703 -59.414062 C 662.24555 -57.35233 661.10982 -55.030956 660.30078 -52.447266 C 659.51784 -49.863575 659.125 -47.030722 659.125 -43.951172 C 659.125 -40.871622 659.51784 -38.040722 660.30078 -35.457031 C 661.10982 -32.873341 662.24555 -30.550014 663.70703 -28.488281 C 665.19461 -26.426548 666.96756 -24.612748 669.0293 -23.046875 C 671.09103 -21.5071 673.38843 -20.21579 675.91992 -19.171875 C 678.45142 -18.12796 681.1786 -17.344223 684.10156 -16.822266 C 687.05062 -16.300308 690.11684 -16.041016 693.30078 -16.041016 C 695.88447 -16.041016 698.27262 -16.170662 700.46484 -16.431641 C 702.65707 -16.692619 704.74508 -17.057582 706.72852 -17.527344 C 708.71195 -17.997106 710.61651 -18.55849 712.44336 -19.210938 C 714.29631 -19.863385 716.16197 -20.580345 718.04102 -21.363281 L 718.04102 -27.197266 C 716.65783 -26.28384 715.11824 -25.409351 713.42188 -24.574219 C 711.75161 -23.765184 709.91188 -23.048224 707.90234 -22.421875 C 705.9189 -21.795526 703.77904 -21.298964 701.48242 -20.933594 C 699.21191 -20.568223 696.79783 -20.384766 694.24023 -20.384766 C 689.07285 -20.384766 684.59669 -20.933186 680.8125 -22.029297 C 677.02831 -23.151506 673.89727 -24.72999 671.41797 -26.765625 C 668.96477 -28.827358 667.138 -31.308213 665.9375 -34.205078 C 664.7631 -37.101943 664.17578 -40.349664 664.17578 -43.951172 C 664.17578 -47.55268 664.7631 -50.802354 665.9375 -53.699219 C 667.138 -56.622182 668.96477 -59.101084 671.41797 -61.136719 C 673.89727 -63.198452 677.02831 -64.791853 680.8125 -65.914062 C 684.59669 -67.036272 689.07285 -67.595703 694.24023 -67.595703 C 696.79783 -67.595703 699.19894 -67.414198 701.44336 -67.048828 C 703.68778 -66.683458 705.78875 -66.186896 707.74609 -65.560547 C 709.72953 -64.934198 711.56926 -64.204273 713.26562 -63.369141 C 714.96199 -62.534008 716.55344 -61.646555 718.04102 -60.707031 L 718.04102 -66.578125 C 716.16197 -67.361062 714.29631 -68.06701 712.44336 -68.693359 C 710.61651 -69.345806 708.71195 -69.905238 706.72852 -70.375 C 704.74508 -70.844762 702.65707 -71.211677 700.46484 -71.472656 C 698.27262 -71.733635 695.88447 -71.863281 693.30078 -71.863281 z M 842.91992 -71.863281 C 839.70988 -71.863281 836.64367 -71.615 833.7207 -71.119141 C 830.79774 -70.649379 828.05759 -69.906489 825.5 -68.888672 C 822.96851 -67.896952 820.65814 -66.644537 818.57031 -65.130859 C 816.50858 -63.617182 814.74859 -61.816346 813.28711 -59.728516 C 811.82563 -57.666783 810.68989 -55.317527 809.88086 -52.681641 C 809.07182 -50.071852 808.66602 -47.161212 808.66602 -43.951172 C 808.66602 -39.123063 809.5405 -34.947042 811.28906 -31.423828 C 813.03762 -27.926712 815.4517 -25.030989 818.53125 -22.734375 C 821.6108 -20.463859 825.2384 -18.779705 829.41406 -17.683594 C 833.58972 -16.587483 838.09181 -16.041016 842.91992 -16.041016 C 847.72193 -16.041016 852.19809 -16.587483 856.34766 -17.683594 C 860.49722 -18.779705 864.09889 -20.463859 867.15234 -22.734375 C 870.2058 -25.030989 872.60691 -27.926712 874.35547 -31.423828 C 876.10403 -34.947042 876.97852 -39.123063 876.97852 -43.951172 C 876.97852 -48.77928 876.10403 -52.942337 874.35547 -56.439453 C 872.60691 -59.962667 870.2058 -62.860343 867.15234 -65.130859 C 864.09889 -67.427473 860.49722 -69.122639 856.34766 -70.21875 C 852.19809 -71.314861 847.72193 -71.863281 842.91992 -71.863281 z M 988.11523 -71.863281 C 986.21009 -71.863281 984.27961 -71.772529 982.32227 -71.589844 C 980.36492 -71.407159 978.47334 -71.107019 976.64648 -70.689453 C 974.84573 -70.297985 973.14861 -69.749565 971.55664 -69.044922 C 969.96467 -68.366377 968.56769 -67.517817 967.36719 -66.5 C 966.19278 -65.482183 965.26644 -64.268661 964.58789 -62.859375 C 963.90935 -61.476187 963.57031 -59.884738 963.57031 -58.083984 C 963.57031 -56.257133 963.98909 -54.652719 964.82422 -53.269531 C 965.68545 -51.886343 966.83219 -50.659857 968.26758 -49.589844 C 969.72906 -48.545928 971.42618 -47.630593 973.35742 -46.847656 C 975.31476 -46.06472 977.37684 -45.360724 979.54297 -44.734375 C 981.70909 -44.108026 983.93971 -43.520712 986.23633 -42.972656 C 988.55904 -42.450699 990.80458 -41.902278 992.9707 -41.328125 C 995.13683 -40.780069 997.18399 -40.179791 999.11523 -39.527344 C 1001.0726 -38.874897 1002.7697 -38.119043 1004.2051 -37.257812 C 1005.6666 -36.42268 1006.8153 -35.444475 1007.6504 -34.322266 C 1008.5116 -33.200057 1008.9414 -31.893829 1008.9414 -30.40625 C 1008.9414 -28.5533 1008.4079 -26.987781 1007.3379 -25.708984 C 1006.294 -24.430188 1004.8192 -23.387159 1002.9141 -22.578125 C 1001.0089 -21.795188 998.75041 -21.220839 996.14062 -20.855469 C 993.53084 -20.490098 990.68697 -20.306641 987.60742 -20.306641 C 983.24908 -20.306641 979.08602 -20.699485 975.11914 -21.482422 C 971.17836 -22.265358 967.43408 -23.712243 963.88477 -25.826172 L 963.88477 -19.837891 C 967.32969 -18.663486 970.94432 -17.737139 974.72852 -17.058594 C 978.53881 -16.380049 982.77965 -16.041016 987.45117 -16.041016 C 989.48681 -16.041016 991.54693 -16.131768 993.63477 -16.314453 C 995.74869 -16.47104 997.78485 -16.758215 999.74219 -17.175781 C 1001.7256 -17.593347 1003.5783 -18.154732 1005.3008 -18.859375 C 1007.0493 -19.590116 1008.563 -20.490534 1009.8418 -21.560547 C 1011.1467 -22.656658 1012.1787 -23.947967 1012.9355 -25.435547 C 1013.6924 -26.949224 1014.0703 -28.711166 1014.0703 -30.720703 C 1014.0703 -32.573653 1013.6405 -34.203996 1012.7793 -35.613281 C 1011.9442 -37.022567 1010.7955 -38.274983 1009.334 -39.371094 C 1007.8986 -40.467205 1006.2015 -41.419481 1004.2441 -42.228516 C 1002.3129 -43.063648 1000.2508 -43.80849 998.05859 -44.460938 C 995.89247 -45.139482 993.64888 -45.76569 991.32617 -46.339844 L 984.5918 -48.023438 C 982.42567 -48.597591 980.36554 -49.19787 978.4082 -49.824219 C 976.47696 -50.476666 974.77984 -51.193626 973.31836 -51.976562 C 971.88298 -52.759499 970.73428 -53.659917 969.87305 -54.677734 C 969.03791 -55.695552 968.62109 -56.883144 968.62109 -58.240234 C 968.62109 -59.858303 969.06384 -61.255283 969.95117 -62.429688 C 970.8646 -63.604092 972.17083 -64.569333 973.86719 -65.326172 C 975.58965 -66.109108 977.67766 -66.683458 980.13086 -67.048828 C 982.61016 -67.414198 985.42809 -67.595703 988.58594 -67.595703 C 991.19573 -67.595703 993.57091 -67.440128 995.71094 -67.126953 C 997.85096 -66.839876 999.76848 -66.474914 1001.4648 -66.03125 C 1003.1873 -65.587586 1004.7139 -65.07806 1006.0449 -64.503906 C 1007.3759 -63.955851 1008.5505 -63.43336 1009.5684 -62.9375 L 1009.5684 -68.574219 C 1007.872 -69.017883 1006.1878 -69.436657 1004.5176 -69.828125 C 1002.8734 -70.219593 1001.1782 -70.558626 999.42969 -70.845703 C 997.70723 -71.158878 995.90639 -71.407159 994.02734 -71.589844 C 992.17439 -71.772529 990.20307 -71.863281 988.11523 -71.863281 z M 162.31445 -71.472656 C 157.61683 -71.472656 153.32218 -70.792637 149.43359 -69.435547 C 145.54501 -68.078457 142.20458 -66.173904 139.41211 -63.720703 C 136.61964 -61.267502 134.44087 -58.330932 132.875 -54.912109 C 131.33522 -51.493287 130.56641 -47.73604 130.56641 -43.638672 C 130.56641 -39.410815 131.37412 -35.599756 132.99219 -32.207031 C 134.61026 -28.814306 136.90765 -25.918583 139.88281 -23.517578 C 142.88407 -21.142671 146.51167 -19.315906 150.76562 -18.037109 C 155.01958 -16.758313 159.78291 -16.119141 165.05469 -16.119141 C 167.3252 -16.119141 169.3983 -16.196928 171.27734 -16.353516 C 173.18249 -16.484005 175.0501 -16.706357 176.87695 -17.019531 C 178.7038 -17.306608 180.5565 -17.684535 182.43555 -18.154297 C 184.31459 -18.650157 186.34879 -19.237471 188.54102 -19.916016 L 188.54102 -25.591797 C 187.4971 -24.93935 186.15393 -24.300177 184.50977 -23.673828 C 182.8656 -23.073577 181.0518 -22.525157 179.06836 -22.029297 C 177.08492 -21.559535 175.00987 -21.181608 172.84375 -20.894531 C 170.67763 -20.607455 168.53776 -20.462891 166.42383 -20.462891 C 161.46523 -20.462891 157.12067 -20.959452 153.38867 -21.951172 C 149.68277 -22.968989 146.54978 -24.417827 143.99219 -26.296875 C 141.46069 -28.175923 139.50428 -30.458402 138.12109 -33.146484 C 136.73791 -35.834566 135.90231 -38.848924 135.61523 -42.189453 L 192.96484 -42.189453 L 192.96484 -43.404297 C 192.96484 -47.736546 192.28678 -51.625392 190.92969 -55.070312 C 189.5726 -58.541331 187.59026 -61.488912 184.98047 -63.916016 C 182.37068 -66.343119 179.1599 -68.208778 175.34961 -69.513672 C 171.53932 -70.818566 167.19476 -71.472656 162.31445 -71.472656 z M 68.673828 -70.884766 L 68.673828 -17.097656 L 73.568359 -17.097656 L 73.568359 -37.765625 L 97.720703 -37.765625 C 101.89636 -37.765625 105.45914 -38.119576 108.4082 -38.824219 C 111.38336 -39.554959 113.81041 -40.623917 115.68945 -42.033203 C 117.5685 -43.442489 118.93955 -45.178502 119.80078 -47.240234 C 120.68811 -49.301967 121.13086 -51.677152 121.13086 -54.365234 C 121.13086 -57.053316 120.68811 -59.428502 119.80078 -61.490234 C 118.93955 -63.551967 117.5685 -65.273062 115.68945 -66.65625 C 113.81041 -68.039438 111.38336 -69.08442 108.4082 -69.789062 C 105.45914 -70.519803 101.89636 -70.884766 97.720703 -70.884766 L 68.673828 -70.884766 z M 276.97461 -70.884766 L 276.97461 -17.097656 L 281.86719 -17.097656 L 281.86719 -70.884766 L 276.97461 -70.884766 z M 371.20117 -70.884766 L 371.20117 -34.751953 C 371.20117 -31.698501 371.52724 -29.06207 372.17969 -26.84375 C 372.83213 -24.62543 373.98083 -22.7857 375.625 -21.324219 C 377.29526 -19.888835 379.52589 -18.819877 382.31836 -18.115234 C 385.13693 -17.436689 388.69971 -17.097656 393.00586 -17.097656 L 418.29492 -17.097656 L 418.29492 -21.833984 L 393.98438 -21.833984 C 390.06969 -21.833984 386.92569 -22.09523 384.55078 -22.617188 C 382.20197 -23.165243 380.40114 -24.000838 379.14844 -25.123047 C 377.89574 -26.245256 377.07311 -27.679176 376.68164 -29.427734 C 376.29017 -31.176293 376.09375 -33.264303 376.09375 -35.691406 L 376.09375 -70.884766 L 371.20117 -70.884766 z M 458.26367 -70.884766 L 458.26367 -17.097656 L 463.15625 -17.097656 L 463.15625 -43.248047 L 498.9375 -43.248047 L 498.9375 -47.789062 L 463.15625 -47.789062 L 463.15625 -66.304688 L 500.85547 -66.304688 L 500.85547 -70.884766 L 458.26367 -70.884766 z M 513.1875 -70.884766 L 513.1875 -34.322266 C 513.1875 -31.608086 513.63025 -29.114266 514.51758 -26.84375 C 515.40491 -24.599332 516.73511 -22.655885 518.50977 -21.011719 C 520.31052 -19.367552 522.55606 -18.089207 525.24414 -17.175781 C 527.95832 -16.262355 531.12825 -15.804688 534.75586 -15.804688 C 537.9659 -15.804688 541.00619 -16.143721 543.87695 -16.822266 C 546.74772 -17.500811 549.43601 -18.362335 551.94141 -19.40625 C 554.4729 -20.476263 556.82216 -21.637927 558.98828 -22.890625 C 561.15441 -24.169421 563.15166 -25.395908 564.97852 -26.570312 L 564.97852 -17.097656 L 569.94922 -17.097656 L 569.94922 -70.884766 L 564.97852 -70.884766 L 564.97852 -32.167969 C 563.46484 -30.889172 561.62511 -29.558969 559.45898 -28.175781 C 557.31896 -26.792593 554.95674 -25.527213 552.37305 -24.378906 C 549.78936 -23.256697 547.03624 -22.317386 544.11328 -21.560547 C 541.19032 -20.829806 538.20189 -20.462891 535.14844 -20.462891 C 532.51255 -20.462891 530.13737 -20.672278 528.02344 -21.089844 C 525.93561 -21.533508 524.14774 -22.30428 522.66016 -23.400391 C 521.19867 -24.5226 520.07591 -26.049225 519.29297 -27.980469 C 518.51003 -29.911712 518.13211 -32.37765 518.1582 -35.378906 L 518.1582 -70.884766 L 513.1875 -70.884766 z M 725.04883 -70.884766 L 725.04883 -66.421875 L 749.51562 -66.421875 L 749.51562 -17.097656 L 754.37109 -17.097656 L 754.37109 -66.421875 L 778.83789 -66.421875 L 778.83789 -70.884766 L 725.04883 -70.884766 z M 789.40625 -70.884766 L 789.40625 -17.097656 L 794.30078 -17.097656 L 794.30078 -70.884766 L 789.40625 -70.884766 z M 842.91992 -67.517578 C 847.69583 -67.517578 851.88482 -66.99704 855.48633 -65.953125 C 859.11393 -64.935308 862.14126 -63.421646 864.56836 -61.412109 C 866.99546 -59.42867 868.82223 -56.973744 870.04883 -54.050781 C 871.30153 -51.127818 871.92773 -47.761463 871.92773 -43.951172 C 871.92773 -40.140881 871.30153 -36.774525 870.04883 -33.851562 C 868.82223 -30.9286 866.99546 -28.462662 864.56836 -26.453125 C 862.14126 -24.469686 859.11393 -22.956025 855.48633 -21.912109 C 851.88482 -20.894292 847.69583 -20.384766 842.91992 -20.384766 C 838.14401 -20.384766 833.92909 -20.894292 830.27539 -21.912109 C 826.64778 -22.956025 823.6075 -24.469686 821.1543 -26.453125 C 818.7011 -28.462662 816.8484 -30.9286 815.5957 -33.851562 C 814.343 -36.774525 813.7168 -40.140881 813.7168 -43.951172 C 813.7168 -47.709267 814.343 -51.049693 815.5957 -53.972656 C 816.8484 -56.921717 818.7011 -59.387655 821.1543 -61.371094 C 823.6075 -63.380631 826.64778 -64.90921 830.27539 -65.953125 C 833.92909 -66.99704 838.14401 -67.517578 842.91992 -67.517578 z M 162.23438 -67.126953 C 166.69711 -67.126953 170.52114 -66.565568 173.70508 -65.443359 C 176.91512 -64.32115 179.55155 -62.807489 181.61328 -60.902344 C 183.70111 -58.997198 185.26663 -56.792506 186.31055 -54.287109 C 187.35446 -51.80781 187.96771 -49.197309 188.15039 -46.457031 L 135.61523 -46.457031 C 135.95451 -49.223407 136.75121 -51.846873 138.00391 -54.326172 C 139.2566 -56.831569 140.9777 -59.023296 143.16992 -60.902344 C 145.36214 -62.807489 148.03747 -64.32115 151.19531 -65.443359 C 154.35316 -66.565568 158.03262 -67.126953 162.23438 -67.126953 z M 73.568359 -66.304688 L 94.589844 -66.304688 C 98.295743 -66.304688 101.49161 -66.160124 104.17969 -65.873047 C 106.89387 -65.58597 109.12644 -65.013574 110.875 -64.152344 C 112.64966 -63.317211 113.95393 -62.116654 114.78906 -60.550781 C 115.65029 -58.984908 116.08203 -56.922827 116.08203 -54.365234 C 116.08203 -52.173012 115.74104 -50.359212 115.0625 -48.923828 C 114.41005 -47.488445 113.52455 -46.326781 112.40234 -45.439453 C 111.30623 -44.552125 110.02593 -43.887023 108.56445 -43.443359 C 107.12907 -43.025793 105.61541 -42.725654 104.02344 -42.542969 C 102.43147 -42.386381 100.81409 -42.306641 99.169922 -42.306641 C 97.551853 -42.332739 96.025227 -42.347656 94.589844 -42.347656 L 73.568359 -42.347656 L 73.568359 -66.304688 z M 348.69141 -46.261719 L 348.69141 -28.175781 C 347.80408 -27.497236 346.70724 -26.832135 345.40234 -26.179688 C 344.12355 -25.52724 342.70259 -24.913997 341.13672 -24.339844 C 339.57085 -23.76569 337.89966 -23.230235 336.125 -22.734375 C 334.35034 -22.264613 332.54951 -21.847792 330.72266 -21.482422 C 328.8958 -21.143149 327.05607 -20.868939 325.20312 -20.660156 C 323.37627 -20.477471 321.60137 -20.384766 319.87891 -20.384766 C 316.95594 -20.384766 314.32147 -20.607117 311.97266 -21.050781 C 309.62385 -21.520543 307.62659 -22.198609 305.98242 -23.085938 C 304.33826 -23.999363 303.07287 -25.122133 302.18555 -26.453125 C 301.32432 -27.784117 300.89258 -29.310743 300.89258 -31.033203 C 300.89258 -33.147132 301.78003 -35.03872 303.55469 -36.708984 C 305.35544 -38.379249 308.17533 -39.841052 312.01172 -41.09375 C 315.84811 -42.346448 320.77998 -43.404395 326.80859 -44.265625 C 332.8633 -45.126855 340.1574 -45.791957 348.69141 -46.261719 z "
     d="m 623.46289,-73.130859 c -3.27727,0 -6.40379,0.346553 -9.37695,1.042968 -2.94467,0.689743 -5.72432,1.580078 -8.33399,2.671875 -2.56511,1.05806 -4.97672,2.234811 -7.23242,3.535157 -1.66996,0.954283 -3.13455,1.850498 -4.5957,2.746093 v -7.75 a 0.95495236,0.95495236 0 0 0 -0.95508,-0.955078 h -4.89453 a 0.95495236,0.95495236 0 0 0 -0.95508,0.955078 v 53.78711 a 0.95495236,0.95495236 0 0 0 0.95508,0.955078 h 4.89453 a 0.95495236,0.95495236 0 0 0 0.95508,-0.955078 v -38.228516 c 1.41941,-1.172729 3.08373,-2.393278 5.11328,-3.673828 2.14611,-1.354088 4.50212,-2.583176 7.07031,-3.6875 a 0.95495236,0.95495236 0 0 0 0.008,-0.0039 c 2.55784,-1.125447 5.27279,-2.047204 8.14649,-2.765625 a 0.95495236,0.95495236 0 0 0 0.006,0 c 2.8721,-0.737088 5.79096,-1.105469 8.76562,-1.105469 2.58267,0 4.89426,0.215389 6.92969,0.642578 1.9985,0.419439 3.64083,1.149676 4.97461,2.173828 a 0.95495236,0.95495236 0 0 0 0.008,0.0039 c 1.34175,1.012192 2.36773,2.38208 3.09571,4.177735 a 0.95495236,0.95495236 0 0 0 0.006,0.01367 c 0.73928,1.740893 1.13867,4.058933 1.13867,6.947265 v 35.50586 a 0.95495236,0.95495236 0 0 0 0.95507,0.955078 h 4.89258 a 0.95495236,0.95495236 0 0 0 0.95508,-0.955078 v -36.5625 c 0,-2.917418 -0.46154,-5.582598 -1.39648,-7.976563 l -0.002,-0.0039 c -0.93706,-2.423474 -2.37022,-4.502445 -4.27734,-6.191406 l -0.004,-0.002 c -1.88847,-1.720904 -4.25711,-3.023333 -7.07226,-3.917969 -5.8e-4,-1.89e-4 -0.001,1.89e-4 -0.002,0 -2.80936,-0.927107 -6.06694,-1.378906 -9.77149,-1.378906 z m 303.23242,0 c -3.27727,0 -6.40565,0.346532 -9.3789,1.042968 -2.94467,0.689743 -5.72432,1.580078 -8.33399,2.671875 -2.56527,1.058126 -4.97498,2.234932 -7.23047,3.535157 -1.67025,0.954443 -3.13554,1.852176 -4.59765,2.748047 v -7.751954 a 0.95495236,0.95495236 0 0 0 -0.95508,-0.955078 h -4.89258 a 0.95495236,0.95495236 0 0 0 -0.95508,0.955078 v 53.78711 a 0.95495236,0.95495236 0 0 0 0.95508,0.955078 h 4.89258 a 0.95495236,0.95495236 0 0 0 0.95508,-0.955078 v -38.228516 c 1.41941,-1.172729 3.08373,-2.393278 5.11328,-3.673828 2.1461,-1.354086 4.50211,-2.583176 7.07031,-3.6875 a 0.95495236,0.95495236 0 0 0 0.008,-0.0039 c 2.55784,-1.125447 5.27279,-2.047204 8.14649,-2.765625 a 0.95495236,0.95495236 0 0 0 0.006,0 c 2.87209,-0.737088 5.79096,-1.105469 8.76562,-1.105469 2.58267,0 4.89426,0.215389 6.92969,0.642578 1.99862,0.419463 3.64311,1.149926 4.97656,2.173828 a 0.95495236,0.95495236 0 0 0 0.008,0.0039 c 1.34175,1.012194 2.36775,2.382086 3.09571,4.177735 a 0.95495236,0.95495236 0 0 0 0.006,0.01367 c 0.73907,1.740385 1.13672,4.058516 1.13672,6.947265 v 35.50586 a 0.95495236,0.95495236 0 0 0 0.95507,0.955078 h 4.89258 a 0.95495236,0.95495236 0 0 0 0.95508,-0.955078 v -36.5625 c 0,-2.916978 -0.45942,-5.582156 -1.39453,-7.976563 l -0.002,-0.0039 c -0.93723,-2.423918 -2.37244,-4.502673 -4.2793,-6.191406 l -0.004,-0.002 c -1.88848,-1.720901 -4.25711,-3.023333 -7.07226,-3.917969 -5.8e-4,-1.89e-4 -0.001,1.89e-4 -0.002,0 -2.80922,-0.927064 -6.06498,-1.378906 -9.76953,-1.378906 z m -899.124998,0.3125 c -1.935468,0 -3.89481,0.09198 -5.880859,0.277343 -1.993576,0.186067 -3.926233,0.491746 -5.792969,0.917969 -6.24e-4,1.36e-4 -0.0013,-1.36e-4 -0.002,0 -0.0026,5.83e-4 -0.0053,0.0014 -0.0078,0.002 -1.85496,0.403915 -3.608192,0.971338 -5.257813,1.701172 -0.0013,5.7e-4 -0.0026,0.0014 -0.0039,0.002 -1.6656145,0.711271 -3.1436144,1.607367 -4.4199219,2.689453 a 0.95495236,0.95495236 0 0 0 -0.00781,0.0078 c -1.270471,1.101074 -2.2807136,2.424967 -3.0136718,3.947265 -0.7488901,1.52897 -1.1132813,3.27114 -1.1132813,5.189454 0,1.972093 0.4573329,3.766063 1.3886719,5.308593 a 0.95495236,0.95495236 0 0 0 0.00781,0.0098 c 0.9287251,1.491589 2.1655562,2.808323 3.6855469,3.941406 a 0.95495236,0.95495236 0 0 0 0.015625,0.01172 c 1.5311603,1.093687 3.2942772,2.042496 5.2851562,2.849609 a 0.95495236,0.95495236 0 0 0 0.0039,0.002 c 1.988796,0.795519 4.0812,1.510067 6.275391,2.144532 2.181152,0.630694 4.427636,1.222033 6.738281,1.773437 a 0.95495236,0.95495236 0 0 0 0.01172,0.002 c 2.31145,0.519427 4.543421,1.065821 6.697266,1.636719 a 0.95495236,0.95495236 0 0 0 0.0098,0.002 c 2.144215,0.542513 4.170713,1.135561 6.076172,1.779297 a 0.95495236,0.95495236 0 0 0 0.002,0.002 c 1.904542,0.634847 3.538386,1.364437 4.900391,2.181641 a 0.95495236,0.95495236 0 0 0 0.01758,0.0098 c 1.369421,0.782526 2.408483,1.678173 3.152344,2.677735 a 0.95495236,0.95495236 0 0 0 0.0078,0.01172 c 0.737189,0.960579 1.095703,2.031156 1.095703,3.333984 0,1.668997 -0.458317,2.979099 -1.382812,4.083984 a 0.95495236,0.95495236 0 0 0 -0.0078,0.0098 c -0.925416,1.133633 -2.258391,2.090898 -4.052734,2.853516 -1.810832,0.743562 -3.988921,1.30173 -6.535156,1.658203 -2.558861,0.358241 -5.360716,0.539062 -8.402344,0.539062 -4.300969,0 -8.398824,-0.388079 -12.300781,-1.158203 -3.83369,-0.761659 -7.4734941,-2.165767 -10.9335941,-4.226562 a 0.95495236,0.95495236 0 0 0 -1.4433594,0.820312 v 5.988281 a 0.95495236,0.95495236 0 0 0 0.6464844,0.904297 c 3.4928548,1.190746 7.1555511,2.127906 10.9843751,2.814453 3.87664,0.690361 8.172905,1.033204 12.890625,1.033203 2.064014,0 4.154668,-0.09229 6.269531,-0.277343 2.148936,-0.159788 4.223537,-0.452937 6.220703,-0.878907 2.034968,-0.428414 3.942608,-1.006173 5.722657,-1.734374 a 0.95495236,0.95495236 0 0 0 0.0078,-0.002 c 1.825151,-0.762749 3.424147,-1.710805 4.785156,-2.849609 a 0.95495236,0.95495236 0 0 0 0,-0.002 c 1.398203,-1.17449 2.515731,-2.571261 3.330078,-4.171875 a 0.95495236,0.95495236 0 0 0 0.002,-0.0059 c 0.832232,-1.664465 1.238281,-3.583018 1.238281,-5.712891 0,-2.000341 -0.474484,-3.821445 -1.431641,-5.388672 -0.903924,-1.52223 -2.144064,-2.866349 -3.689453,-4.025391 -1.509058,-1.151341 -3.273798,-2.140453 -5.291016,-2.974609 -1.961814,-0.847883 -4.052542,-1.60329 -6.269531,-2.263672 l -0.01367,-0.0039 c -2.18042,-0.682709 -4.439126,-1.311564 -6.773437,-1.888672 l -0.0039,-0.002 -6.716796,-1.679688 c -2.15187,-0.570374 -4.198074,-1.166118 -6.138672,-1.787109 -1.883585,-0.637129 -3.525532,-1.333974 -4.925782,-2.083984 h -0.002 c -1.34744,-0.735866 -2.393656,-1.56591 -3.162109,-2.472657 -0.6993974,-0.855331 -1.0332031,-1.791778 -1.0332031,-2.949218 0,-1.441415 0.3782384,-2.603941 1.1367191,-3.609375 0.798513,-1.024159 1.959368,-1.898939 3.542968,-2.605469 a 0.95495236,0.95495236 0 0 0 0.0059,-0.002 c 1.61748,-0.735218 3.621693,-1.29095 6.007812,-1.646485 2.421181,-0.356805 5.195152,-0.537109 8.316406,-0.537109 2.571842,0 4.901632,0.153906 6.986329,0.458984 a 0.95495236,0.95495236 0 0 0 0.01172,0.002 c 2.108903,0.282902 3.990833,0.640782 5.640625,1.072266 a 0.95495236,0.95495236 0 0 0 0.0039,0 c 1.683425,0.43361 3.163636,0.930116 4.439453,1.480469 a 0.95495236,0.95495236 0 0 0 0.01563,0.0059 c 1.316312,0.542011 2.473544,1.058125 3.46875,1.542969 a 0.95495236,0.95495236 0 0 0 1.373047,-0.859375 v -5.636719 a 0.95495236,0.95495236 0 0 0 -0.712891,-0.923828 c -1.703118,-0.445431 -3.39414,-0.866438 -5.072266,-1.259765 h -0.002 c -1.661799,-0.395619 -3.375214,-0.737457 -5.138672,-1.027344 l -0.01563,-0.002 c -1.745157,-0.316846 -3.565529,-0.569389 -5.46289,-0.753907 -1.887965,-0.186137 -3.888406,-0.277343 -6.003907,-0.277343 z m 210.140628,0 c -3.26185,0 -6.38475,0.266248 -9.36719,0.798828 -2.98421,0.532895 -5.77735,1.332293 -8.37695,2.404297 -2.6028,1.073316 -4.97534,2.421244 -7.10547,4.039062 -2.13437,1.595052 -3.97706,3.465708 -5.51953,5.603516 a 0.95495236,0.95495236 0 0 0 -0.006,0.0059 c -1.52207,2.147199 -2.70261,4.563144 -3.53906,7.234375 a 0.95495236,0.95495236 0 0 0 -0.002,0.0078 c -0.81353,2.684662 -1.21484,5.613087 -1.21484,8.773437 0,3.160351 0.40135,6.08695 1.21484,8.771484 a 0.95495236,0.95495236 0 0 0 0.002,0.0078 c 0.83641,2.671101 2.01683,5.088896 3.53906,7.236328 a 0.95495236,0.95495236 0 0 0 0.006,0.0059 c 1.54297,2.138502 3.38517,4.021545 5.51953,5.642579 a 0.95495236,0.95495236 0 0 0 0.006,0.0059 c 2.12914,1.590116 4.49977,2.920093 7.09961,3.992188 2.59921,1.071843 5.39234,1.873283 8.37695,2.40625 a 0.95495236,0.95495236 0 0 0 0.002,0 c 3.00747,0.532295 6.12946,0.796875 9.36524,0.796874 2.61563,0 5.04115,-0.132223 7.27734,-0.398437 2.22531,-0.264917 4.34934,-0.634445 6.3711,-1.113281 2.01462,-0.477149 3.95032,-1.048698 5.81054,-1.712891 l 0.004,-0.002 c 1.86893,-0.658162 3.75075,-1.380848 5.64453,-2.169922 a 0.95495236,0.95495236 0 0 0 0.58789,-0.880859 v -5.833985 a 0.95495236,0.95495236 0 0 0 -1.48047,-0.796875 c -1.34516,0.888311 -2.85084,1.742916 -4.51562,2.5625 -1.62052,0.784579 -3.41299,1.484295 -5.38086,2.097657 a 0.95495236,0.95495236 0 0 0 -0.004,0.002 c -1.93357,0.610602 -4.02828,1.096339 -6.2832,1.455078 a 0.95495236,0.95495236 0 0 0 -0.002,0 c -2.2152,0.356469 -4.57791,0.537109 -7.08984,0.537109 -5.09728,0 -9.4847,-0.542707 -13.15625,-1.605468 l -0.006,-0.002 c -3.68019,-1.092086 -6.68597,-2.614452 -9.04492,-4.548828 l -0.004,-0.0039 c -2.33928,-1.967103 -4.06456,-4.310135 -5.20703,-7.064453 l -0.002,-0.0039 c -2.2e-4,-5.34e-4 2.2e-4,-0.0014 0,-0.002 -1.1212,-2.767916 -1.68945,-5.885507 -1.68945,-9.38086 0,-3.496067 0.56785,-6.616564 1.68945,-9.384766 l 0.002,-0.0039 c 1.14326,-2.781759 2.86693,-5.122333 5.20508,-7.0625 a 0.95495236,0.95495236 0 0 0 0.002,0 c 2.36139,-1.963681 5.36905,-3.502723 9.05469,-4.595703 3.67034,-1.088449 8.05779,-1.642578 13.15625,-1.642578 2.51241,0 4.86151,0.179081 7.04883,0.535156 2.20226,0.358509 4.25806,0.844532 6.16601,1.455078 a 0.95495236,0.95495236 0 0 0 0.004,0 c 1.94199,0.613259 3.73604,1.326992 5.38477,2.138672 1.66818,0.821263 3.23035,1.691026 4.6875,2.611328 a 0.95495236,0.95495236 0 0 0 1.46484,-0.80664 v -5.871094 a 0.95495236,0.95495236 0 0 0 -0.58789,-0.880859 c -1.89341,-0.788922 -3.77414,-1.500194 -5.64453,-2.132813 -1.86201,-0.664999 -3.79897,-1.23554 -5.81445,-1.712891 -2.02118,-0.478699 -4.14523,-0.850249 -6.3711,-1.115234 -2.23619,-0.266214 -4.66171,-0.398437 -7.27734,-0.398437 z m 87.96289,0 c -4.66963,0 -9.09737,0.369881 -13.28125,1.111328 -4.12121,0.708866 -8.01115,1.55004 -11.66797,2.523437 a 0.95495236,0.95495236 0 0 0 -0.70899,0.921875 v 5.714844 a 0.95495236,0.95495236 0 0 0 1.30079,0.890625 c 1.73838,-0.674596 3.46396,-1.309707 5.17578,-1.90625 1.68976,-0.588856 3.45797,-1.102573 5.30664,-1.539062 a 0.95495236,0.95495236 0 0 0 0.0137,-0.0039 c 1.83549,-0.458871 3.81795,-0.817439 5.94922,-1.074219 2.12021,-0.255447 4.48527,-0.382812 7.08984,-0.382812 1.92783,0 3.84123,0.08971 5.74219,0.269531 a 0.95495236,0.95495236 0 0 0 0.0137,0 c 1.91677,0.153341 3.72478,0.421913 5.42578,0.802735 a 0.95495236,0.95495236 0 0 0 0.004,0 c 1.72135,0.37971 3.30688,0.885477 4.75977,1.511718 a 0.95495236,0.95495236 0 0 0 0.0137,0.0059 c 1.43084,0.59207 2.65678,1.334894 3.69531,2.228515 a 0.95495236,0.95495236 0 0 0 0.01,0.0078 c 1.02564,0.858669 1.811,1.856135 2.37891,3.015625 0.55408,1.131249 0.8418,2.452975 0.8418,4.003906 v 3.224609 c -4.70657,0.279161 -9.24772,0.613997 -13.54297,1.03125 -4.55925,0.419337 -8.80706,0.969411 -12.74805,1.652344 -3.94651,0.657753 -7.53435,1.474045 -10.76367,2.453125 -3.21887,0.957682 -5.99315,2.148241 -8.32422,3.583985 -0.001,7.78e-4 -0.003,0.0012 -0.004,0.002 -7.2e-4,4.39e-4 -0.001,0.0015 -0.002,0.002 -2.34002,1.415941 -4.18962,3.114208 -5.5039,5.099609 a 0.95495236,0.95495236 0 0 0 -0.002,0.0039 c -1.30593,1.987292 -1.95703,4.305078 -1.95703,6.865234 0,2.56414 0.5581,4.880528 1.68945,6.888672 a 0.95495236,0.95495236 0 0 0 0.004,0.0059 c 1.12289,1.965067 2.72621,3.619912 4.76953,4.945313 a 0.95495236,0.95495236 0 0 0 0.008,0.0059 c 2.04341,1.29784 4.49706,2.258882 7.34765,2.904297 a 0.95495236,0.95495236 0 0 0 0.002,0 c 2.8756,0.644995 6.09042,0.96289 9.64454,0.96289 2.72799,0 5.50681,-0.171899 8.33593,-0.515624 2.82613,-0.343363 5.5749,-0.832133 8.2461,-1.466797 2.6939,-0.633861 5.2464,-1.38727 7.6582,-2.261719 1.91411,-0.686582 3.54233,-1.466975 5.14258,-2.257813 v 4.490235 a 0.95495236,0.95495236 0 0 0 0.95508,0.955078 h 4.85351 A 0.95495236,0.95495236 0 0 0 354.5,-17.097656 v -36.484375 c 0,-3.450438 -0.75162,-6.44692 -2.29492,-8.917969 -1.51884,-2.457747 -3.61516,-4.465615 -6.24219,-5.998047 -2.61182,-1.523567 -5.66415,-2.613851 -9.14062,-3.283203 -3.46202,-0.692403 -7.17863,-1.037109 -11.14844,-1.037109 z m 367.62695,0 c -3.26185,0 -6.38473,0.266248 -9.36719,0.798828 -2.9842,0.532895 -5.77734,1.332294 -8.37695,2.404297 -2.60279,1.073315 -4.97534,2.421242 -7.10547,4.039062 -2.1346,1.595226 -3.97534,3.46603 -5.51758,5.603516 a 0.95495236,0.95495236 0 0 0 -0.006,0.0059 c -1.52206,2.147199 -2.70261,4.563144 -3.53906,7.234375 a 0.95495236,0.95495236 0 0 0 -0.002,0.0078 c -0.81341,2.684243 -1.2168,5.612683 -1.2168,8.773437 0,3.160754 0.40343,6.087369 1.2168,8.771484 a 0.95495236,0.95495236 0 0 0 0.002,0.0078 c 0.83641,2.671101 2.01684,5.088896 3.53906,7.236328 a 0.95495236,0.95495236 0 0 0 0.006,0.0059 c 1.54274,2.13818 3.38298,4.021368 5.51758,5.642579 a 0.95495236,0.95495236 0 0 0 0.006,0.0059 c 2.12914,1.590118 4.49979,2.920094 7.09961,3.992188 2.59923,1.071842 5.39234,1.873283 8.37695,2.40625 a 0.95495236,0.95495236 0 0 0 0.002,0 c 3.00746,0.532295 6.12945,0.796875 9.36523,0.796874 2.61563,0 5.04115,-0.132223 7.27734,-0.398437 2.22533,-0.264917 4.34934,-0.634445 6.3711,-1.113281 2.01462,-0.477149 3.95033,-1.048697 5.81055,-1.712891 l 0.004,-0.002 c 1.86893,-0.658162 3.75075,-1.380848 5.64453,-2.169922 a 0.95495236,0.95495236 0 0 0 0.58789,-0.880859 v -5.833985 a 0.95495236,0.95495236 0 0 0 -1.48047,-0.796875 c -1.34515,0.888311 -2.85084,1.742916 -4.51562,2.5625 -1.62053,0.78458 -3.41299,1.484295 -5.38086,2.097657 a 0.95495236,0.95495236 0 0 0 -0.004,0.002 c -1.93357,0.610602 -4.02826,1.096339 -6.2832,1.455078 a 0.95495236,0.95495236 0 0 0 -0.002,0 c -2.21519,0.356469 -4.57791,0.537109 -7.08985,0.537109 -5.09728,0 -9.48469,-0.542707 -13.15625,-1.605468 l -0.006,-0.002 c -3.68017,-1.092086 -6.68596,-2.614452 -9.04492,-4.548828 l -0.004,-0.0039 c -2.33929,-1.967103 -4.06457,-4.310137 -5.20703,-7.064453 l -0.002,-0.0039 c -2.2e-4,-5.34e-4 2.2e-4,-0.0014 0,-0.002 -1.12119,-2.76792 -1.68945,-5.885508 -1.68945,-9.38086 0,-3.496065 0.56786,-6.616561 1.68945,-9.384766 l 0.002,-0.0039 c 1.14325,-2.781757 2.86692,-5.122333 5.20507,-7.0625 a 0.95495236,0.95495236 0 0 0 0.002,0 c 2.36139,-1.963681 5.36906,-3.502723 9.05468,-4.595703 3.67035,-1.088449 8.05779,-1.642578 13.15625,-1.642578 2.51243,0 4.86151,0.179081 7.04883,0.535156 2.20228,0.358509 4.25806,0.844531 6.16602,1.455078 a 0.95495236,0.95495236 0 0 0 0.004,0 c 1.94199,0.613259 3.73605,1.326992 5.38477,2.138672 1.66819,0.821262 3.23035,1.691026 4.6875,2.611328 a 0.95495236,0.95495236 0 0 0 1.46484,-0.80664 v -5.871094 a 0.95495236,0.95495236 0 0 0 -0.58789,-0.880859 c -1.89341,-0.788923 -3.77414,-1.500194 -5.64453,-2.132813 -1.862,-0.665 -3.79898,-1.23554 -5.81445,-1.712891 -2.02118,-0.478699 -4.14522,-0.850249 -6.3711,-1.115234 -2.23619,-0.266214 -4.66171,-0.398437 -7.27734,-0.398437 z m 149.61914,0 c -3.25927,0 -6.37966,0.252327 -9.35937,0.757812 -2.98335,0.480026 -5.78946,1.240672 -8.41407,2.285156 -2.59972,1.018985 -4.98211,2.309007 -7.13671,3.871094 a 0.95495236,0.95495236 0 0 0 -0.004,0.0039 c -2.14209,1.572676 -3.97875,3.450039 -5.49805,5.619141 -8.3e-4,0.0012 -0.001,0.0027 -0.002,0.0039 -5.3e-4,7.57e-4 -0.001,0.0012 -0.002,0.002 -1.52247,2.149139 -2.70001,4.593466 -3.53516,7.314453 -0.84102,2.714397 -1.25781,5.720682 -1.25781,9.009766 0,4.943407 0.89688,9.27238 2.72265,12.951172 a 0.95495236,0.95495236 0 0 0 0.002,0.0039 c 1.81148,3.622964 4.3292,6.643744 7.52539,9.027344 a 0.95495236,0.95495236 0 0 0 0.004,0.002 c 3.18631,2.349225 6.93041,4.084417 11.20704,5.207031 4.2633,1.119117 8.84788,1.673828 13.74804,1.673828 4.87445,0 9.43414,-0.554427 13.67188,-1.673828 4.25115,-1.122947 7.97032,-2.858842 11.13086,-5.208984 a 0.95495236,0.95495236 0 0 0 0.004,-0.002 c 3.16943,-2.383834 5.67178,-5.404116 7.48242,-9.025391 a 0.95495236,0.95495236 0 0 0 0.002,-0.0039 c 1.82577,-3.678791 2.72265,-8.007764 2.72265,-12.951172 0,-4.941713 -0.89675,-9.258576 -2.72265,-12.912109 l -0.002,-0.002 c -1.80988,-3.645858 -4.31146,-6.670587 -7.48242,-9.029297 l -0.004,-0.002 c -3.16059,-2.376437 -6.87972,-4.12315 -11.13086,-5.246094 -4.23747,-1.119329 -8.79717,-1.675781 -13.67188,-1.675781 z m 145.19531,0 c -1.93546,0 -3.89481,0.09198 -5.88085,0.277343 -1.99365,0.186073 -3.92443,0.491779 -5.79102,0.917969 -6.2e-4,1.36e-4 -0.001,-1.35e-4 -0.002,0 -0.003,5.83e-4 -0.005,0.0014 -0.008,0.002 -1.85482,0.403884 -3.60987,0.971221 -5.25976,1.701172 -0.001,5.7e-4 -0.003,0.0014 -0.004,0.002 -1.66561,0.711271 -3.14361,1.607366 -4.41992,2.689453 a 0.95495236,0.95495236 0 0 0 -0.008,0.0078 c -1.27048,1.101076 -2.28071,2.424971 -3.01367,3.947265 -0.74889,1.528966 -1.11329,3.271137 -1.11329,5.189454 0,1.972776 0.45963,3.766629 1.39063,5.308593 a 0.95495236,0.95495236 0 0 0 0.008,0.0098 c 0.92838,1.491038 2.16326,2.808073 3.6836,3.941406 a 0.95495236,0.95495236 0 0 0 0.0156,0.01172 c 1.53116,1.093687 3.29428,2.042496 5.28516,2.849609 a 0.95495236,0.95495236 0 0 0 0.004,0.002 c 1.9888,0.795519 4.0812,1.510067 6.27539,2.144532 2.18115,0.630694 4.42763,1.222033 6.73828,1.773437 a 0.95495236,0.95495236 0 0 0 0.0117,0.002 c 2.31156,0.519452 4.54552,1.065857 6.69922,1.636719 a 0.95495236,0.95495236 0 0 0 0.01,0.002 c 2.14409,0.542479 4.16858,1.135498 6.07422,1.779297 a 0.95495236,0.95495236 0 0 0 0.002,0.002 c 1.9046,0.634846 3.5384,1.364432 4.9004,2.181641 a 0.95495236,0.95495236 0 0 0 0.018,0.0098 c 1.3697,0.782708 2.4109,1.67876 3.1543,2.677735 a 0.95495236,0.95495236 0 0 0 0.01,0.01172 c 0.7367,0.960034 1.0937,2.030327 1.0937,3.333984 0,1.669669 -0.4567,2.979537 -1.3808,4.083984 a 0.95495236,0.95495236 0 0 0 -0.01,0.0098 c -0.9254,1.13362 -2.2585,2.090897 -4.0528,2.853516 -1.8107,0.743481 -3.99079,1.301721 -6.53709,1.658203 -2.55891,0.35825 -5.35876,0.539062 -8.40039,0.539062 -4.30096,0 -8.40083,-0.388091 -12.30273,-1.158203 -3.83363,-0.761648 -7.47141,-2.165688 -10.93164,-4.226562 a 0.95495236,0.95495236 0 0 0 -1.44336,0.820312 v 5.988281 a 0.95495236,0.95495236 0 0 0 0.64648,0.904297 c 3.49286,1.190746 7.15555,2.127906 10.98438,2.814453 3.87664,0.690361 8.1729,1.033203 12.89062,1.033203 2.06402,0 4.15276,-0.0923 6.26758,-0.277343 2.14893,-0.159788 4.22354,-0.452937 6.2207,-0.878907 2.03495,-0.428413 3.94255,-1.006175 5.72265,-1.734374 a 0.95495236,0.95495236 0 0 0 0.01,-0.002 c 1.8251,-0.762747 3.4242,-1.7108 4.7852,-2.849609 a 0.95495236,0.95495236 0 0 0 0,-0.002 c 1.3978,-1.174192 2.5174,-2.57066 3.332,-4.171875 a 0.95495236,0.95495236 0 0 0 0,-0.0059 c 0.8326,-1.665075 1.2363,-3.583645 1.2363,-5.712891 0,-1.999675 -0.4722,-3.820907 -1.4297,-5.388672 -0.9039,-1.522242 -2.144,-2.866349 -3.6895,-4.025391 -1.5094,-1.151588 -3.2758,-2.140537 -5.2929,-2.974609 -1.9618,-0.847887 -4.0526,-1.603291 -6.26955,-2.263672 l -0.0137,-0.0039 c -2.18025,-0.68266 -4.43706,-1.311535 -6.77149,-1.888672 l -0.004,-0.002 -6.71875,-1.679688 c -2.15174,-0.570338 -4.19595,-1.166062 -6.13672,-1.787109 -1.88378,-0.637192 -3.5278,-1.33414 -4.92774,-2.083984 h -0.002 c -1.34744,-0.735867 -2.39366,-1.56591 -3.16211,-2.472657 -0.69893,-0.854767 -1.03125,-1.790866 -1.03125,-2.949218 0,-1.442182 0.37669,-2.604478 1.13477,-3.609375 0.79812,-1.023646 1.96107,-1.898827 3.54492,-2.605469 a 0.95495236,0.95495236 0 0 0 0.006,-0.002 c 1.61748,-0.735218 3.62169,-1.29095 6.00781,-1.646485 2.42118,-0.356805 5.19515,-0.537109 8.31641,-0.537109 2.57184,0 4.90162,0.153906 6.98633,0.458984 a 0.95495236,0.95495236 0 0 0 0.0117,0.002 c 2.10882,0.282892 3.98876,0.640739 5.63872,1.072266 a 0.95495236,0.95495236 0 0 0 0,0 c 1.6834,0.433609 3.1636,0.930113 4.4394,1.480469 a 0.95495236,0.95495236 0 0 0 0.016,0.0059 c 1.3164,0.542009 2.4735,1.058111 3.4688,1.542969 a 0.95495236,0.95495236 0 0 0 1.373,-0.859375 v -5.636719 a 0.95495236,0.95495236 0 0 0 -0.7129,-0.923828 c -1.7031,-0.445431 -3.3942,-0.86644 -5.0722,-1.259765 h -0 c -1.6616,-0.395579 -3.3732,-0.73744 -5.13669,-1.027344 l -0.0156,-0.002 c -1.74515,-0.316846 -3.56552,-0.569389 -5.46289,-0.753907 -1.88803,-0.186143 -3.89035,-0.277343 -6.00586,-0.277343 z m -825.80078,0.390625 c -4.78977,0 -9.19391,0.693383 -13.19531,2.089843 -3.99037,1.392613 -7.44586,3.359723 -10.33789,5.900391 -2.89131,2.540029 -5.15413,5.591459 -6.77344,9.126953 a 0.95495236,0.95495236 0 0 0 -0.004,0.0059 c -1.59848,3.549152 -2.39258,7.449205 -2.39258,11.666016 0,4.349471 0.83501,8.309738 2.51953,11.841797 1.67837,3.519155 4.07215,6.535712 7.15234,9.021484 a 0.95495236,0.95495236 0 0 0 0.008,0.0059 c 3.10801,2.459385 6.8485,4.338598 11.19921,5.646484 4.35815,1.310117 9.2155,1.958984 14.56446,1.958985 2.29232,0 4.39185,-0.07904 6.30273,-0.238282 1.92631,-0.132462 3.81787,-0.357145 5.66797,-0.673828 1.85601,-0.291658 3.73716,-0.675989 5.64258,-1.152344 a 0.95495236,0.95495236 0 0 0 0.0117,-0.002 c 1.89451,-0.499941 3.94159,-1.091577 6.14453,-1.773437 a 0.95495236,0.95495236 0 0 0 0.67187,-0.91211 v -5.675781 a 0.95495236,0.95495236 0 0 0 -1.46093,-0.810547 c -0.96885,0.605527 -2.26076,1.223343 -3.86328,1.833985 -9.8e-4,3.71e-4 -9.8e-4,0.0016 -0.002,0.002 -1.60132,0.584118 -3.37607,1.120459 -5.32226,1.607422 -1.94987,0.46181 -3.99226,0.834015 -6.12891,1.117187 -2.12631,0.281801 -4.22452,0.423828 -6.29492,0.423828 -4.89237,0 -9.15371,-0.489296 -12.78321,-1.453125 l -0.006,-0.002 c -3.61083,-0.992373 -6.62976,-2.396223 -9.07422,-4.191406 l -0.004,-0.002 c -2.4217,-1.7983 -4.27036,-3.960904 -5.58594,-6.517578 -1.17265,-2.278944 -1.86901,-4.852153 -2.2207,-7.650391 h 56.21484 a 0.95495236,0.95495236 0 0 0 0.95508,-0.955078 v -1.214844 c 0,-4.431175 -0.69486,-8.442094 -2.10156,-12.013672 v -0.002 c -1.40515,-3.593264 -3.47239,-6.670261 -6.1875,-9.195312 -2.7171,-2.526896 -6.054,-4.460727 -9.97266,-5.802735 -3.92824,-1.345287 -8.37812,-2.009765 -13.34375,-2.009765 z m -93.640622,0.58789 a 0.95495236,0.95495236 0 0 0 -0.955078,0.955078 v 53.78711 a 0.95495236,0.95495236 0 0 0 0.955078,0.955078 h 4.894531 a 0.95495236,0.95495236 0 0 0 0.955079,-0.955078 v -19.712891 h 23.197265 c 4.229617,0 7.862327,-0.35574 10.910157,-1.083984 a 0.95495236,0.95495236 0 0 0 0.006,-0.002 c 3.06782,-0.753499 5.61564,-1.86602 7.625,-3.373047 2.00058,-1.500435 3.49117,-3.382972 4.41797,-5.59961 0.9454,-2.199067 1.40625,-4.705502 1.40625,-7.496093 0,-2.788961 -0.46002,-5.294046 -1.4043,-7.492188 l -0.002,-0.0039 c -0.92744,-2.21813 -2.42005,-4.089449 -4.42383,-5.564453 -2.00802,-1.47813 -4.55393,-2.56443 -7.61719,-3.291016 l -0.01,-0.002 c -3.04944,-0.754572 -6.68105,-1.121094 -10.908207,-1.121094 z m 208.300782,0 a 0.95495236,0.95495236 0 0 0 -0.95508,0.955078 v 53.78711 a 0.95495236,0.95495236 0 0 0 0.95508,0.955078 h 4.89258 a 0.95495236,0.95495236 0 0 0 0.95508,-0.955078 v -53.78711 a 0.95495236,0.95495236 0 0 0 -0.95508,-0.955078 z m 94.22656,0 a 0.95495236,0.95495236 0 0 0 -0.95508,0.955078 v 36.132813 c 0,3.12143 0.33164,5.845556 1.01758,8.177734 0.69772,2.372278 1.95006,4.383777 3.72656,5.962891 a 0.95495236,0.95495236 0 0 0 0.0117,0.01172 c 1.81125,1.556546 4.1844,2.678976 7.08203,3.410156 a 0.95495236,0.95495236 0 0 0 0.0117,0.002 c 2.92622,0.704461 6.55389,1.044922 10.91016,1.044922 h 25.28906 a 0.95495236,0.95495236 0 0 0 0.95508,-0.955078 v -4.736328 a 0.95495236,0.95495236 0 0 0 -0.95508,-0.955078 h -24.31054 c -3.86726,0 -6.95001,-0.260681 -9.2168,-0.757813 -0.002,-3.67e-4 -0.002,-0.0016 -0.004,-0.002 -2.24242,-0.523796 -3.88987,-1.309914 -4.97851,-2.285156 -1.10635,-0.991101 -1.8184,-2.22387 -2.17188,-3.802735 -0.37094,-1.656863 -0.56445,-3.679101 -0.56445,-6.054687 v -35.19336 a 0.95495236,0.95495236 0 0 0 -0.95508,-0.955078 z m 87.0625,0 a 0.95495236,0.95495236 0 0 0 -0.95508,0.955078 v 53.78711 a 0.95495236,0.95495236 0 0 0 0.95508,0.955078 h 4.89258 a 0.95495236,0.95495236 0 0 0 0.95508,-0.955078 v -25.195313 h 34.82617 a 0.95495236,0.95495236 0 0 0 0.95508,-0.955078 v -4.541015 a 0.95495236,0.95495236 0 0 0 -0.95508,-0.955079 h -34.82617 v -16.605468 h 36.74414 a 0.95495236,0.95495236 0 0 0 0.95508,-0.955079 v -4.580078 a 0.95495236,0.95495236 0 0 0 -0.95508,-0.955078 z m 54.92383,0 a 0.95495236,0.95495236 0 0 0 -0.95508,0.955078 v 36.5625 c 0,2.818021 0.46207,5.435175 1.39649,7.826172 a 0.95495236,0.95495236 0 0 0 0,0.0039 c 0.938,2.372582 2.35708,4.444197 4.23242,6.181641 a 0.95495236,0.95495236 0 0 0 0.004,0.0039 c 1.91065,1.744511 4.28061,3.086533 7.07227,4.035157 a 0.95495236,0.95495236 0 0 0 0.002,0 c 2.83581,0.954358 6.10849,1.421875 9.81641,1.421875 3.27727,0 6.3915,-0.346087 9.33984,-1.042969 2.91699,-0.689468 5.65582,-1.567365 8.21289,-2.632813 a 0.95495236,0.95495236 0 0 0 0.004,-0.002 c 2.56464,-1.084023 4.95063,-2.262698 7.1543,-3.537109 a 0.95495236,0.95495236 0 0 0 0.008,-0.0039 c 1.64354,-0.970279 3.09716,-1.882994 4.54883,-2.794922 v 7.765625 a 0.95495236,0.95495236 0 0 0 0.95508,0.955078 h 4.9707 a 0.95495236,0.95495236 0 0 0 0.95508,-0.955078 v -53.78711 a 0.95495236,0.95495236 0 0 0 -0.95508,-0.955078 h -4.9707 a 0.95495236,0.95495236 0 0 0 -0.95508,0.955078 v 38.232422 c -1.41907,1.173282 -3.07275,2.391334 -5.07813,3.671875 a 0.95495236,0.95495236 0 0 0 -0.004,0.002 c -2.09396,1.353414 -4.41386,2.596263 -6.95703,3.726563 -2.53051,1.098638 -5.23101,2.021432 -8.10352,2.765625 -0.001,3.11e-4 -0.003,-3.11e-4 -0.004,0 -0.001,3.76e-4 -0.002,0.0016 -0.004,0.002 -2.84487,0.71054 -5.75038,1.066406 -8.72461,1.066406 -2.5846,0 -4.89785,-0.206622 -6.9375,-0.609375 h -0.002 c -1.96547,-0.419485 -3.61224,-1.136477 -4.97265,-2.136718 -1.31391,-1.010834 -2.33045,-2.379696 -3.0586,-4.175782 -0.7168,-1.768116 -1.0898,-4.114688 -1.06445,-7.03125 a 0.95495236,0.95495236 0 0 0 0,-0.0078 v -35.50586 a 0.95495236,0.95495236 0 0 0 -0.95508,-0.955078 z m 211.86133,0 a 0.95495236,0.95495236 0 0 0 -0.95508,0.955078 v 4.462891 a 0.95495236,0.95495236 0 0 0 0.95508,0.955078 h 23.51172 v 48.369141 a 0.95495236,0.95495236 0 0 0 0.95507,0.955078 h 4.85547 a 0.95495236,0.95495236 0 0 0 0.95508,-0.955078 v -48.369141 h 23.51172 a 0.95495236,0.95495236 0 0 0 0.95508,-0.955078 v -4.462891 a 0.95495236,0.95495236 0 0 0 -0.95508,-0.955078 z m 64.35742,0 a 0.95495236,0.95495236 0 0 0 -0.95508,0.955078 v 53.78711 a 0.95495236,0.95495236 0 0 0 0.95508,0.955078 h 4.89453 a 0.95495236,0.95495236 0 0 0 0.95508,-0.955078 v -53.78711 a 0.95495236,0.95495236 0 0 0 -0.95508,-0.955078 z m 53.51367,5.277344 c 4.70653,0 8.8079,0.514916 12.30078,1.527344 a 0.95495236,0.95495236 0 0 0 0.008,0.002 c 3.52355,0.988625 6.42236,2.44641 8.73046,4.357422 a 0.95495236,0.95495236 0 0 0 0.006,0.0039 c 2.30995,1.887703 4.03361,4.203286 5.20313,6.990234 a 0.95495236,0.95495236 0 0 0 0.004,0.0078 c 1.19352,2.784878 1.80078,6.016982 1.80078,9.722656 0,3.705674 -0.60726,6.937778 -1.80078,9.722656 a 0.95495236,0.95495236 0 0 0 -0.004,0.0078 c -1.16985,2.787736 -2.89616,5.116329 -5.20899,7.03125 -2.30931,1.885804 -5.21145,3.345022 -8.73632,4.359375 -3.49455,0.987155 -7.5963,1.490234 -12.30274,1.490234 -4.70799,0 -8.83849,-0.503207 -12.38867,-1.492187 -3.52181,-1.014427 -6.43622,-2.472637 -8.77148,-4.359375 -2.33929,-1.916221 -4.0921,-4.248739 -5.28711,-7.03711 -1.19352,-2.784878 -1.80078,-6.016982 -1.80078,-9.722656 0,-3.652025 0.60645,-6.857773 1.80078,-9.644531 a 0.95495236,0.95495236 0 0 0 0.002,-0.0039 c 1.19513,-2.813538 2.94421,-5.141357 5.2793,-7.029297 a 0.95495236,0.95495236 0 0 0 0.006,-0.0039 c 2.33724,-1.91455 5.25237,-3.387742 8.77734,-4.402344 3.5478,-1.013659 7.67628,-1.527344 12.38281,-1.527344 z m -680.68554,0.390625 c 4.38265,0 8.1003,0.553188 11.15234,1.628906 a 0.95495236,0.95495236 0 0 0 0.004,0 c 3.1113,1.087687 5.62534,2.540926 7.57422,4.341797 a 0.95495236,0.95495236 0 0 0 0.004,0.0039 c 1.99245,1.818108 3.47088,3.901223 4.46094,6.277344 a 0.95495236,0.95495236 0 0 0 0,0.0039 c 0.87035,2.06709 1.3699,4.244547 1.61719,6.503907 h -50.25782 c 0.3852,-2.257538 1.02874,-4.430663 2.06641,-6.484375 a 0.95495236,0.95495236 0 0 0 0.002,-0.002 c 1.19586,-2.391724 2.83244,-4.478302 4.9336,-6.279296 a 0.95495236,0.95495236 0 0 0 0.006,-0.0039 c 2.0909,-1.817101 4.65584,-3.272856 7.71874,-4.361328 3.03201,-1.077488 6.60205,-1.628906 10.71876,-1.628906 z m -87.710942,0.822266 h 20.066406 c 3.681067,0 6.846006,0.143596 9.488276,0.425781 a 0.95495236,0.95495236 0 0 0 0.002,0 c 2.63662,0.278873 4.76306,0.835927 6.37304,1.628906 a 0.95495236,0.95495236 0 0 0 0.0156,0.0059 c 1.61874,0.76176 2.74228,1.807052 3.47852,3.1875 a 0.95495236,0.95495236 0 0 0 0.006,0.01172 c 0.75558,1.37378 1.17383,3.274474 1.17383,5.72461 0,2.093206 -0.3292,3.76706 -0.92773,5.033203 a 0.95495236,0.95495236 0 0 0 -0.006,0.01367 c -0.59808,1.315773 -1.38696,2.343438 -2.38281,3.130859 a 0.95495236,0.95495236 0 0 0 -0.01,0.0059 c -0.99485,0.805358 -2.15768,1.41258 -3.51367,1.824219 -1.37276,0.398752 -2.82446,0.686512 -4.35742,0.863281 -0.003,2.52e-4 -0.005,-2.51e-4 -0.008,0 -1.55312,0.152513 -3.13114,0.231912 -4.736333,0.232422 -1.621886,-0.02616 -3.153705,-0.04102 -4.595703,-0.04102 H 74.523438 Z m 273.212892,20.132812 v 16.509766 c -0.77301,0.556726 -1.64857,1.117256 -2.76172,1.673828 a 0.95495236,0.95495236 0 0 0 -0.006,0.0039 c -1.23948,0.63239 -2.62531,1.230193 -4.16016,1.792969 -1.53985,0.564616 -3.1887,1.092305 -4.9414,1.582031 -1.74631,0.461953 -3.51962,0.872385 -5.31836,1.232422 -1.80452,0.335124 -3.62273,0.606259 -5.45313,0.8125 -1.79348,0.178976 -3.53237,0.269531 -5.21679,0.269531 -2.87239,0 -5.4459,-0.218785 -7.72266,-0.648437 -2.27476,-0.45534 -4.18142,-1.108064 -5.71875,-1.9375 h -0.002 c -1.52829,-0.850842 -2.66075,-1.868802 -3.45117,-3.052735 -0.75714,-1.172308 -1.13672,-2.494106 -1.13672,-4.054687 0,-1.84669 0.73298,-3.447913 2.36132,-4.980469 1.64045,-1.519644 4.34371,-2.945457 8.09961,-4.171875 3.75765,-1.226985 8.64236,-2.278707 14.63477,-3.134765 5.73857,-0.816263 12.78192,-1.432291 20.79297,-1.896485 z"
     transform="translate(1.4921339,102.93576)" />
</svg>
