<?xml version="1.0" encoding="UTF-8" standalone="no"?>
<!-- Created with Inkscape (http://www.inkscape.org/) -->

<svg
   width="61.627716mm"
   height="17.578569mm"
   viewBox="0 0 80.116032 22.85214"
   version="1.1"
   id="svg5"
   sodipodi:docname="logo-detkit-dark.svg"
   inkscape:version="1.1.2 (1:1.1+202202050852+0a00cf5339)"
   xmlns:inkscape="http://www.inkscape.org/namespaces/inkscape"
   xmlns:sodipodi="http://sodipodi.sourceforge.net/DTD/sodipodi-0.dtd"
   xmlns="http://www.w3.org/2000/svg"
   xmlns:svg="http://www.w3.org/2000/svg">
  <sodipodi:namedview
     id="namedview6"
     pagecolor="#ffffff"
     bordercolor="#666666"
     borderopacity="1.0"
     inkscape:pageshadow="2"
     inkscape:pageopacity="0.0"
     inkscape:pagecheckerboard="0"
     inkscape:document-units="mm"
     showgrid="false"
     inkscape:zoom="4.8342021"
     inkscape:cx="116.46183"
     inkscape:cy="33.200929"
     inkscape:window-width="1920"
     inkscape:window-height="1008"
     inkscape:window-x="0"
     inkscape:window-y="24"
     inkscape:window-maximized="1"
     inkscape:current-layer="svg5" />
  <defs
     id="defs2" />
  <g
     id="layer1"
     transform="translate(-45.655761,-109.29528)"
     style="fill:#e9e9e9;fill-opacity:1">
    <path
       id="text16881"
       style="font-size:18.9065px;line-height:1.25;font-family:sans-serif;fill:#e9e9e9;fill-opacity:1;stroke-width:0.506423"
       d="m 70.240234,89.636719 c -1.114307,0 -2.133629,0.159615 -3.058593,0.482422 -0.924195,0.322538 -1.721166,0.776637 -2.386719,1.361328 -0.665435,0.584587 -1.18552,1.285065 -1.558594,2.099609 -0.367279,0.815485 -0.548828,1.710936 -0.548828,2.685547 0,1.005613 0.19185,1.916632 0.578125,2.726563 0.385835,0.809008 0.933569,1.500082 1.642578,2.072262 a 0.06738083,0.06738083 0 0 0 0.002,0 c 0.715279,0.566 1.577864,1.00106 2.587891,1.30469 1.010567,0.30379 2.140066,0.45313 3.388672,0.45313 0.536216,0 1.025754,-0.0177 1.470703,-0.0547 0.450749,-0.0309 0.893583,-0.0822 1.326172,-0.15625 0.432871,-0.068 0.871429,-0.15829 1.316406,-0.26953 a 0.06738083,0.06738083 0 0 0 0.002,0 c 0.444226,-0.11722 0.925636,-0.25578 1.443359,-0.41602 a 0.06738083,0.06738083 0 0 0 0.04688,-0.0645 v -1.33985 a 0.06738083,0.06738083 0 0 0 -0.101563,-0.0566 c -0.240977,0.15062 -0.554623,0.30066 -0.939453,0.44727 -0.385238,0.14064 -0.809691,0.2703 -1.275391,0.38672 v -0.002 c -0.46535,0.11021 -0.954138,0.20015 -1.46289,0.26757 -0.507995,0.0673 -1.008445,0.10157 -1.503907,0.10157 -1.164826,0 -2.183677,-0.11764 -3.05664,-0.34961 -0.866874,-0.23808 -1.596292,-0.57869 -2.191406,-1.01563 h -0.002 c -0.588768,-0.437291 -1.04205,-0.967517 -1.363281,-1.591796 -0.311676,-0.605711 -0.503367,-1.284606 -0.576172,-2.035156 H 77.46875 a 0.06738083,0.06738083 0 0 0 0.06641,-0.06641 v -0.285156 c 0,-1.028695 -0.160814,-1.955997 -0.484375,-2.777344 -0.323414,-0.827193 -0.797002,-1.530058 -1.419922,-2.109375 -0.623018,-0.579407 -1.388717,-1.025594 -2.294921,-1.335938 -0.906921,-0.310588 -1.93884,-0.46289 -3.095704,-0.46289 z m -23.808593,0.138672 a 0.06738083,0.06738083 0 0 0 -0.06641,0.06641 v 12.683593 a 0.06738083,0.06738083 0 0 0 0.06641,0.0664 h 6.544921 c 0.698215,0 1.363045,-0.0423 1.994141,-0.12891 0.637975,-0.0929 1.22724,-0.23876 1.767578,-0.4375 0.546818,-0.19884 1.042245,-0.46313 1.484375,-0.79297 0.449508,-0.33088 0.832587,-0.73482 1.144532,-1.20898 0.312249,-0.474621 0.551001,-1.028395 0.71875,-1.662112 0.17425,-0.640991 0.259765,-1.370384 0.259765,-2.1875 0,-1.219358 -0.187572,-2.240455 -0.568359,-3.064453 -0.373222,-0.821088 -0.895018,-1.481469 -1.5625,-1.974609 h -0.002 C 57.552569,90.63672 56.772877,90.284868 55.873047,90.080078 54.975133,89.875725 54.003475,89.775391 52.958984,89.775391 Z m 32.263671,0 a 0.06738083,0.06738083 0 0 0 -0.06641,0.06641 v 1.052734 a 0.06738083,0.06738083 0 0 0 0.06641,0.06641 h 5.705079 v 11.564452 a 0.06738083,0.06738083 0 0 0 0.06641,0.0664 h 1.144531 a 0.06738083,0.06738083 0 0 0 0.06641,-0.0664 V 90.960938 h 5.703125 a 0.06738083,0.06738083 0 0 0 0.06641,-0.06641 v -1.052734 a 0.06738083,0.06738083 0 0 0 -0.06641,-0.06641 z m 15.177735,0 a 0.06738083,0.06738083 0 0 0 -0.06641,0.06641 v 12.683593 a 0.06738083,0.06738083 0 0 0 0.06641,0.0664 h 1.154297 a 0.06738083,0.06738083 0 0 0 0.06641,-0.0664 v -5.757812 h 1.900391 c 0.649066,0 1.306953,0.04848 1.974609,0.146484 0.667016,0.09179 1.31161,0.239543 1.93555,0.441407 0.62366,0.201772 1.21343,0.457867 1.76953,0.769531 0.55484,0.304856 1.04651,0.669557 1.47265,1.095703 a 0.06738083,0.06738083 0 0 0 0,0.002 c 0.4317,0.42561 0.78489,0.913284 1.0586,1.466794 0.27285,0.54568 0.44106,1.15983 0.50195,1.8418 a 0.06738083,0.06738083 0 0 0 0.0664,0.0606 h 1.18945 a 0.06738083,0.06738083 0 0 0 0.0664,-0.0723 c -0.062,-0.74465 -0.21898,-1.41355 -0.47461,-2.00586 -0.25463,-0.58997 -0.57145,-1.115513 -0.95117,-1.57617 -0.373,-0.460029 -0.79679,-0.85746 -1.26954,-1.193359 -0.47062,-0.340585 -0.95677,-0.625932 -1.45898,-0.855469 h -0.002 c -0.49471,-0.234876 -0.99283,-0.420366 -1.49414,-0.556641 h -0.002 c -0.38903,-0.111791 -0.75196,-0.19554 -1.09961,-0.261719 0.26891,-0.07439 0.55271,-0.162443 0.86524,-0.277343 0.42133,-0.1611 0.85173,-0.358638 1.29101,-0.59375 a 0.06738083,0.06738083 0 0 0 0.002,0 c 0.44018,-0.241791 0.87359,-0.527341 1.30078,-0.855469 0.42898,-0.335724 0.81817,-0.725003 1.16601,-1.166016 0.34844,-0.441764 0.64093,-0.933881 0.87696,-1.480468 0.24321,-0.555027 0.39491,-1.17245 0.45703,-1.84961 a 0.06738083,0.06738083 0 0 0 -0.0664,-0.07227 h -1.1914 a 0.06738083,0.06738083 0 0 0 -0.0664,0.06055 c -0.0608,0.602047 -0.216,1.157954 -0.46484,1.673828 -0.2496,0.51746 -0.56933,0.993503 -0.95899,1.425781 -0.38967,0.426022 -0.84134,0.807224 -1.35351,1.142578 -0.50673,0.329673 -1.05732,0.609457 -1.65039,0.841797 -0.586466,0.22591 -1.201762,0.4012 -1.849614,0.523437 -0.648517,0.116243 -1.300565,0.175782 -1.955078,0.175782 H 95.09375 v -5.777344 a 0.06738083,0.06738083 0 0 0 -0.06641,-0.06641 z m 16.396483,0 a 0.06738083,0.06738083 0 0 0 -0.0664,0.06641 v 12.683593 a 0.06738083,0.06738083 0 0 0 0.0664,0.0664 h 1.15235 a 0.06738083,0.06738083 0 0 0 0.0664,-0.0664 V 89.841797 a 0.06738083,0.06738083 0 0 0 -0.0664,-0.06641 z m 3.6543,0 a 0.06738083,0.06738083 0 0 0 -0.0664,0.06641 v 1.052734 a 0.06738083,0.06738083 0 0 0 0.0664,0.06641 h 5.70312 v 11.564452 a 0.06738083,0.06738083 0 0 0 0.0664,0.0664 h 1.14648 a 0.06738083,0.06738083 0 0 0 0.0664,-0.0664 V 90.960938 h 5.70313 a 0.06738083,0.06738083 0 0 0 0.0664,-0.06641 v -1.052734 a 0.06738083,0.06738083 0 0 0 -0.0664,-0.06641 z m -43.703127,1.019531 c 1.046786,0 1.942085,0.133179 2.683594,0.394531 0.750064,0.262218 1.363587,0.612798 1.841797,1.054688 0.485596,0.443107 0.847452,0.955372 1.089844,1.537109 0.234226,0.55629 0.373691,1.140883 0.421874,1.753906 H 64.021484 c 0.08403,-0.617141 0.266218,-1.202346 0.546875,-1.757812 a 0.06738083,0.06738083 0 0 0 0,-0.002 c 0.291392,-0.582781 0.690607,-1.091668 1.201172,-1.529297 a 0.06738083,0.06738083 0 0 0 0.002,0 c 0.509806,-0.443044 1.133074,-0.794369 1.871094,-1.056641 0.735812,-0.261487 1.593234,-0.394531 2.578125,-0.394531 z m -22.568359,0.166016 h 5.30664 c 0.600615,0 1.166895,0.03426 1.699219,0.101562 0.531089,0.06715 1.020591,0.181473 1.470703,0.345703 a 0.06738083,0.06738083 0 0 0 0.002,0.002 c 0.449797,0.158037 0.853487,0.366438 1.210938,0.626953 0.356165,0.259579 0.656116,0.583298 0.904297,0.970703 0.247727,0.380655 0.440343,0.832139 0.574218,1.355469 0.133657,0.522478 0.201172,1.125661 0.201172,1.810547 0,1.02745 -0.1508,1.877243 -0.447265,2.548828 -0.297489,0.667832 -0.712101,1.198627 -1.244141,1.597654 -0.526928,0.39368 -1.159351,0.67346 -1.902344,0.83789 -0.74547,0.15888 -1.568026,0.24024 -2.46875,0.24024 h -5.30664 z"
       transform="matrix(0.99611493,0,0,0.99611493,-0.44243189,24.988302)" />
  </g>
</svg>
