<?xml version="1.0" encoding="UTF-8" standalone="no"?>
<!-- Created with Inkscape (http://www.inkscape.org/) -->

<svg
   version="1.1"
   id="svg2"
   width="282.18643"
   height="79.356384"
   viewBox="0 0 1015.8712 285.68298"
   sodipodi:docname="logo-dark.svg"
   inkscape:export-filename="/home/sia/work/ADCP/Noise-Estimation/code/imate/docs/source/_static/images/logo-dark.png"
   inkscape:export-xdpi="81.8368"
   inkscape:export-ydpi="81.8368"
   inkscape:version="1.1.2 (1:1.1+202202050852+0a00cf5339)"
   xmlns:inkscape="http://www.inkscape.org/namespaces/inkscape"
   xmlns:sodipodi="http://sodipodi.sourceforge.net/DTD/sodipodi-0.dtd"
   xmlns="http://www.w3.org/2000/svg"
   xmlns:svg="http://www.w3.org/2000/svg">
  <sodipodi:namedview
     id="namedview6"
     pagecolor="#ffffff"
     bordercolor="#666666"
     borderopacity="1.0"
     inkscape:pageshadow="2"
     inkscape:pageopacity="0.0"
     inkscape:pagecheckerboard="0"
     showgrid="false"
     fit-margin-top="0"
     fit-margin-left="0"
     fit-margin-right="0"
     fit-margin-bottom="0"
     inkscape:zoom="2.017917"
     inkscape:cx="167.0039"
     inkscape:cy="38.40594"
     inkscape:window-width="1920"
     inkscape:window-height="1008"
     inkscape:window-x="0"
     inkscape:window-y="24"
     inkscape:window-maximized="1"
     inkscape:current-layer="svg2" />
  <defs
     id="defs6" />
  <g
     id="g8"
     transform="translate(-52.069498,-1.2913076)"
     style="fill:#e9e9e9;fill-opacity:1"
     inkscape:export-filename="/home/sia/work/ADCP/Noise-Estimation/code/imate/docs/source/_static/images/logo-dark.png"
     inkscape:export-xdpi="81.8368"
     inkscape:export-ydpi="81.8368">
    <path
       id="path2515"
       style="fill:#e9e9e9;fill-opacity:1;stroke-width:1.33333"
       d="M 219.98047,50.953125 C 200.7337,50.00962 179.3067,57.170908 159.51758,72.449219 l -7.72656,5.964843 -0.27149,-9.003906 -0.38086,-12.71875 a 1.8944656,1.8944656 0 0 0 -1.89258,-1.83789 h -8.61914 -8.61718 a 1.8944656,1.8944656 0 0 0 -1.89454,1.894531 v 87.111333 c 0,23.96082 0.10057,45.84315 0.26172,61.80273 0.0806,7.97979 0.17661,14.47785 0.28321,19.02344 0.0533,2.27279 0.10889,4.05465 0.16796,5.30664 0.0295,0.62599 0.0593,1.11591 0.0938,1.49609 0.0172,0.19009 0.0334,0.34861 0.0625,0.52344 0.0145,0.0874 0.0301,0.1753 0.0703,0.3164 0.0403,0.14111 -0.0631,0.30408 0.5039,0.8711 0.46062,0.46061 0.75598,0.52134 1.04102,0.62305 0.28504,0.1017 0.56091,0.16986 0.86523,0.23437 0.60865,0.12901 1.32361,0.22947 2.15235,0.31445 1.65748,0.16996 3.74937,0.27149 5.94726,0.27149 h 7.77735 a 1.8944656,1.8944656 0 0 0 1.89453,-1.89453 v -65.03516 -64.23437 l 8.42383,-8.160161 c 13.87944,-13.447579 28.66119,-21.849221 42.67382,-24.958984 14.01264,-3.109763 27.22301,-0.994264 38.3711,6.644531 7.139,4.891722 10.16428,7.141288 12.07422,18.427735 1.90993,11.286449 2.16206,31.427619 2.38281,70.328129 l 0.37891,66.99804 a 1.8944656,1.8944656 0 0 0 1.89453,1.88477 h 7.95312 7.95313 a 1.8944656,1.8944656 0 0 0 1.89453,-1.89453 v -66.38867 -65.57813 l 5.07812,-4.822266 c 14.47538,-13.750452 31.75784,-22.527994 47.84961,-25.605468 16.09177,-3.077475 30.87044,-0.463367 40.73828,8.222656 6.56207,5.776164 9.51649,8.897801 11.2793,20.751953 1.76281,11.854155 1.93359,32.245105 1.93359,70.998045 v 62.42188 a 1.8944656,1.8944656 0 0 0 1.89454,1.89453 h 8 8 a 1.8944656,1.8944656 0 0 0 1.89453,-1.89453 l -0.0332,-65.66602 c -0.0171,-34.40976 -0.0851,-52.50204 -0.90039,-63.64258 C 400.15539,92.298913 398.4689,87.905097 395.5,81.841797 385.96831,62.375556 366.87491,51.972154 344.97461,50.990234 c -21.9003,-0.981919 -46.69473,7.310121 -68.30469,25.023438 l -7.33008,6.009766 -2.45507,-3.947266 C 256.2916,61.056735 239.22718,51.896629 219.98047,50.953125 Z M 540.68359,51.8125 c -20.3761,-0.04368 -42.73803,2.587488 -65.45117,8.046875 l -14.33398,3.445313 a 1.8944656,1.8944656 0 0 0 -1.45117,1.841796 v 9.134766 c 0,2.555564 0.0874,4.87385 0.23437,6.609375 0.0735,0.867762 0.15718,1.580872 0.27539,2.173828 0.0591,0.296478 0.11382,0.551552 0.25,0.882813 0.0681,0.16563 0.14484,0.355846 0.36914,0.626953 0.2243,0.271107 0.75,0.734375 1.53906,0.734375 0.73635,0 0.638,-0.08356 0.88086,-0.148438 0.24287,-0.06487 0.5325,-0.150111 0.88477,-0.257812 0.70455,-0.215402 1.6471,-0.518952 2.77344,-0.892578 2.25266,-0.747253 5.23841,-1.773236 8.42773,-2.902344 26.63243,-9.428606 54.18698,-13.123261 79.00391,-10.636719 22.60283,2.264705 37.80155,6.423929 47.16992,13.25 9.36837,6.826071 13.28154,16.236462 13.43164,30.283207 l 0.0742,6.93945 -4.84375,0.23242 c -60.70319,2.92607 -104.72542,10.53341 -132.4668,23.16016 -13.87069,6.31337 -23.71805,13.91418 -29.38476,22.96875 -5.66671,9.05457 -6.9998,19.52603 -4.07032,30.96093 2.6641,10.39899 8.20181,18.77177 16.70118,25.01563 8.49936,6.24386 19.8851,10.38958 34.33789,12.75391 28.70784,4.69629 83.39338,-3.272 111.97265,-16.23047 2.89249,-1.31152 5.02924,-2.29989 6.47852,-2.83594 1.33884,-0.4952 1.77811,-0.38718 1.6582,-0.4707 0.0595,0.17559 0.1437,0.47658 0.19727,1.01757 0.1213,1.22514 0.10547,3.24349 0.10547,5.96485 v 9.40039 a 1.8944656,1.8944656 0 0 0 1.99414,1.89258 l 7.66601,-0.40039 7.66602,-0.39844 a 1.8944656,1.8944656 0 0 0 1.79687,-1.88086 l 0.37891,-60 c 0.2411,-38.14439 0.14258,-58.71423 -2,-71.86523 C 630.80664,87.077512 626.30875,81.265021 618.5918,73.935547 603.14006,59.259659 574.64372,51.885304 540.68359,51.8125 Z m 420.99024,0.822266 c -33.48463,-0.339223 -62.37684,11.733761 -81.48047,31.646484 -19.10363,19.91272 -28.35565,47.69896 -22.62891,78.33398 7.36953,39.42299 38.91474,65.86874 86.82227,73.27539 23.36903,3.61293 66.89128,0.0595 91.83398,-7.43945 l 11,-3.30859 a 1.8944656,1.8944656 0 0 0 1.3496,-1.81446 v -9.3164 -9.31836 a 1.8944656,1.8944656 0 0 0 -2.7558,-1.6875 l -5,2.55078 c -28.6437,14.60805 -84.19532,17.45031 -116.58794,5.85938 -26.69803,-9.55326 -46.90685,-34.79999 -47.53906,-58.28711 0.38824,-0.0797 0.68719,-0.1597 1.48438,-0.24219 2.36227,-0.24444 6.49496,-0.43429 13.13867,-0.57031 13.2874,-0.27205 36.67304,-0.33985 76.90039,-0.33985 h 93.53316 a 1.8944656,1.8944656 0 0 0 1.8907,-2.02344 l -0.836,-12.33398 c -1.6599,-24.45064 -10.0944,-44.155528 -24.9062,-58.382812 -14.8119,-14.227284 -35.8888,-22.918153 -62.58987,-25.792969 -4.61626,-0.497017 -9.16439,-0.763365 -13.6289,-0.808593 z m -904.332033,2.21875 a 1.8944656,1.8944656 0 0 0 -1.894531,1.894531 v 88.000003 88 a 1.8944656,1.8944656 0 0 0 1.894531,1.89453 h 8 8 a 1.8944656,1.8944656 0 0 0 1.894531,-1.89453 v -88 -88.000003 a 1.8944656,1.8944656 0 0 0 -1.894531,-1.894531 h -8 z m 608.000003,0 a 1.8944656,1.8944656 0 0 0 -1.89453,1.894531 v 7.333984 7.332031 a 1.8944656,1.8944656 0 0 0 1.89453,1.894532 h 40 38.10547 v 78.773436 80.66602 a 1.8944656,1.8944656 0 0 0 1.89453,1.89453 h 8 8 a 1.8944656,1.8944656 0 0 0 1.89453,-1.89453 V 152.08203 73.308594 h 38.10547 40 a 1.8944656,1.8944656 0 0 0 1.89453,-1.894532 v -7.332031 -7.333984 a 1.8944656,1.8944656 0 0 0 -1.89453,-1.894531 h -88 z m 293.07812,16.023437 c 22.1686,-0.446229 43.54108,5.92805 59.26168,17.064453 15.4065,10.913847 25.2997,26.286284 25.6914,44.443364 -0.3312,0.0735 -0.5441,0.14244 -1.2207,0.2207 -2.1085,0.2439 -5.8506,0.43739 -11.8906,0.57422 -12.08,0.27365 -33.41603,0.33984 -70.25193,0.33984 -23.46179,0 -44.79223,-0.0903 -60.25,-0.23633 -7.72889,-0.073 -13.9905,-0.15975 -18.3086,-0.25586 -2.03461,-0.0453 -3.55301,-0.0945 -4.66211,-0.14257 0.55803,-8.03644 4.9264,-18.31381 11.62305,-27.75782 7.15977,-10.097119 16.75619,-19.177762 26.03711,-23.732419 14.06445,-6.902189 29.19157,-10.220091 43.9707,-10.517578 z M 612.83398,139.20508 c 0.86345,-0.0153 1.5249,-0.006 2.00977,0.0195 0.0804,0.36451 0.1666,0.79855 0.24609,1.44727 0.19376,1.58121 0.34706,3.86208 0.44922,6.57226 0.20433,5.42036 0.21598,12.58193 0.0664,19.76367 -0.14957,7.18174 -0.46013,14.393 -0.89258,19.91602 -0.21622,2.76151 -0.46526,5.10579 -0.72851,6.77148 -0.13163,0.83285 -0.27099,1.49981 -0.38868,1.91797 -0.0456,0.16207 -0.10752,0.24483 -0.15234,0.31445 -3.31065,2.86969 -11.97923,7.01174 -22.78516,10.73633 -10.99386,3.78937 -24.25104,7.321 -36.79687,9.58008 -21.61712,3.89249 -41.72713,3.68584 -57.4043,0.0977 -15.67716,-3.58819 -26.74485,-10.5433 -30.9043,-19.69922 -2.57946,-5.67801 -3.08209,-10.73942 -1.72265,-15.41992 1.35943,-4.6805 4.64635,-9.09184 10.08594,-13.2168 10.87917,-8.24992 30.28048,-15.0902 57.82812,-19.9668 19.74117,-3.49466 68.18145,-8.60534 81.08984,-8.83398 z" />
  </g>
</svg>
