<?xml version="1.0" encoding="UTF-8" standalone="no"?>
<!-- Created with Inkscape (http://www.inkscape.org/) -->

<svg
   width="61.627716mm"
   height="17.578569mm"
   viewBox="0 0 80.116032 22.85214"
   version="1.1"
   id="svg5"
   inkscape:version="1.1.2 (1:1.1+202202050852+0a00cf5339)"
   sodipodi:docname="logo-detkit-light.svg"
   inkscape:export-filename="/home/sia/work/ADCP/Noise-Estimation/code/glearn/docs/source/_static/images/logo-detkit-light.png"
   inkscape:export-xdpi="81.8368"
   inkscape:export-ydpi="81.8368"
   xmlns:inkscape="http://www.inkscape.org/namespaces/inkscape"
   xmlns:sodipodi="http://sodipodi.sourceforge.net/DTD/sodipodi-0.dtd"
   xmlns="http://www.w3.org/2000/svg"
   xmlns:svg="http://www.w3.org/2000/svg">
  <sodipodi:namedview
     id="namedview7"
     pagecolor="#ffffff"
     bordercolor="#666666"
     borderopacity="1.0"
     inkscape:pageshadow="2"
     inkscape:pageopacity="0.0"
     inkscape:pagecheckerboard="0"
     inkscape:document-units="mm"
     showgrid="false"
     fit-margin-top="0"
     fit-margin-left="0"
     fit-margin-right="0"
     fit-margin-bottom="0"
     inkscape:zoom="2.4302469"
     inkscape:cx="125.91313"
     inkscape:cy="48.760478"
     inkscape:window-width="1920"
     inkscape:window-height="1008"
     inkscape:window-x="0"
     inkscape:window-y="24"
     inkscape:window-maximized="1"
     inkscape:current-layer="layer1"
     scale-x="1.3" />
  <defs
     id="defs2" />
  <g
     inkscape:label="Layer 1"
     inkscape:groupmode="layer"
     id="layer1"
     transform="translate(-45.655761,-109.29528)">
    <path
       id="text16881"
       style="font-size:18.9065px;line-height:1.25;font-family:sans-serif;fill:#00809a;fill-opacity:1;stroke-width:0.506423"
       sodipodi:type="inkscape:offset"
       inkscape:radius="0.067374095"
       inkscape:original="M 70.240234 89.703125 C 69.132432 89.703125 68.120139 89.863562 67.203125 90.183594 C 66.286111 90.503626 65.498371 90.952731 64.839844 91.53125 C 64.181317 92.109769 63.666143 92.801188 63.296875 93.607422 C 62.933762 94.413656 62.753906 95.299375 62.753906 96.265625 C 62.753906 97.262647 62.944595 98.162811 63.326172 98.962891 C 63.707748 99.76297 64.249563 100.44551 64.951172 101.01172 C 65.658935 101.57177 66.514401 102.00312 67.517578 102.30469 C 68.520755 102.60626 69.643518 102.75586 70.886719 102.75586 C 71.422157 102.75586 71.910395 102.7381 72.353516 102.70117 C 72.802791 102.6704 73.243016 102.61878 73.673828 102.54492 C 74.10464 102.47722 74.541254 102.38812 74.984375 102.27734 C 75.427496 102.16041 75.908807 102.02134 76.425781 101.86133 L 76.425781 100.52148 C 76.179603 100.67535 75.86234 100.8269 75.474609 100.97461 C 75.086878 101.11616 74.659145 101.24635 74.191406 101.36328 C 73.723667 101.47406 73.233476 101.56316 72.722656 101.63086 C 72.211836 101.69856 71.707496 101.73242 71.208984 101.73242 C 70.039637 101.73242 69.014853 101.61473 68.134766 101.38086 C 67.260832 101.14084 66.523059 100.79859 65.919922 100.35547 C 65.322939 99.912348 64.861343 99.374144 64.535156 98.740234 C 64.20897 98.106325 64.011058 97.395193 63.943359 96.607422 L 77.46875 96.607422 L 77.46875 96.322266 C 77.46875 95.300625 77.308313 94.382701 76.988281 93.570312 C 76.668249 92.751769 76.201383 92.05674 75.585938 91.484375 C 74.970492 90.91201 74.213004 90.471785 73.314453 90.164062 C 72.415902 89.85634 71.391118 89.703125 70.240234 89.703125 z M 46.431641 89.841797 L 46.431641 102.52539 L 52.976562 102.52539 C 53.672016 102.52539 54.333183 102.48265 54.960938 102.39648 C 55.594847 102.30417 56.179406 102.15983 56.714844 101.96289 C 57.256436 101.76595 57.746627 101.50392 58.183594 101.17773 C 58.626715 100.85155 59.002824 100.45407 59.310547 99.986328 C 59.61827 99.518589 59.855314 98.971505 60.021484 98.34375 C 60.193809 97.709841 60.279297 96.986217 60.279297 96.173828 C 60.279297 94.9614 60.092219 93.949107 59.716797 93.136719 C 59.347529 92.32433 58.832355 91.675655 58.173828 91.189453 C 57.521455 90.697096 56.749819 90.349582 55.857422 90.146484 C 54.965025 89.943387 53.999088 89.841797 52.958984 89.841797 L 46.431641 89.841797 z M 78.695312 89.841797 L 78.695312 90.894531 L 84.466797 90.894531 L 84.466797 102.52539 L 85.611328 102.52539 L 85.611328 90.894531 L 91.380859 90.894531 L 91.380859 89.841797 L 78.695312 89.841797 z M 93.873047 89.841797 L 93.873047 102.52539 L 95.027344 102.52539 L 95.027344 96.701172 L 96.994141 96.701172 C 97.646513 96.701172 98.30768 96.749185 98.978516 96.847656 C 99.649352 96.939973 100.29803 97.087918 100.92578 97.291016 C 101.55354 97.494113 102.14698 97.752529 102.70703 98.066406 C 103.26709 98.374129 103.76255 98.743016 104.19336 99.173828 C 104.63033 99.60464 104.98867 100.1001 105.26562 100.66016 C 105.54258 101.21406 105.71189 101.83609 105.77344 102.52539 L 106.96289 102.52539 C 106.90135 101.78686 106.74452 101.12569 106.49219 100.54102 C 106.23985 99.956342 105.9262 99.435899 105.55078 98.980469 C 105.18151 98.525039 104.76266 98.131169 104.29492 97.798828 C 103.82718 97.460333 103.34421 97.176934 102.8457 96.949219 C 102.35335 96.715349 101.85789 96.531882 101.35938 96.396484 C 100.86702 96.254932 100.40903 96.14973 99.984375 96.082031 C 100.32287 96.002023 100.70064 95.88433 101.11914 95.730469 C 101.53764 95.570453 101.96538 95.374494 102.40234 95.140625 C 102.83931 94.900601 103.27065 94.617202 103.69531 94.291016 C 104.11997 93.958675 104.50496 93.573685 104.84961 93.136719 C 105.19426 92.699752 105.48293 92.211514 105.7168 91.669922 C 105.95682 91.122175 106.10838 90.512633 106.16992 89.841797 L 104.97852 89.841797 C 104.91697 90.451088 104.76015 91.015933 104.50781 91.539062 C 104.25548 92.062192 103.93295 92.543502 103.53906 92.980469 C 103.14518 93.411281 102.68885 93.79627 102.17188 94.134766 C 101.66105 94.467106 101.10675 94.748552 100.50977 94.982422 C 99.918938 95.210137 99.298857 95.386676 98.646484 95.509766 C 97.994112 95.6267 97.338215 95.685547 96.679688 95.685547 L 95.027344 95.685547 L 95.027344 89.841797 L 93.873047 89.841797 z M 110.26953 89.841797 L 110.26953 102.52539 L 111.42188 102.52539 L 111.42188 89.841797 L 110.26953 89.841797 z M 113.92383 89.841797 L 113.92383 90.894531 L 119.69336 90.894531 L 119.69336 102.52539 L 120.83984 102.52539 L 120.83984 90.894531 L 126.60938 90.894531 L 126.60938 89.841797 L 113.92383 89.841797 z M 70.220703 90.728516 C 71.273116 90.728516 72.174937 90.860358 72.925781 91.125 C 73.68278 91.389642 74.304813 91.746037 74.791016 92.195312 C 75.283372 92.644588 75.652259 93.165031 75.898438 93.755859 C 76.144616 94.340533 76.28895 94.955344 76.332031 95.601562 L 63.943359 95.601562 C 64.023367 94.94919 64.212398 94.330767 64.507812 93.746094 C 64.803227 93.155266 65.209588 92.638434 65.726562 92.195312 C 66.243537 91.746037 66.874451 91.389642 67.619141 91.125 C 68.36383 90.860358 69.229835 90.728516 70.220703 90.728516 z M 47.585938 90.894531 L 52.958984 90.894531 C 53.562121 90.894531 54.130578 90.928395 54.666016 90.996094 C 55.201454 91.063793 55.696914 91.179533 56.152344 91.345703 C 56.607774 91.505719 57.017746 91.71778 57.380859 91.982422 C 57.743972 92.247064 58.050402 92.576818 58.302734 92.970703 C 58.555067 93.358434 58.749368 93.81642 58.884766 94.345703 C 59.020164 94.874987 59.087891 95.484529 59.087891 96.173828 C 59.087891 97.207777 58.938287 98.066855 58.636719 98.75 C 58.33515 99.426991 57.912686 99.968806 57.371094 100.375 C 56.835656 100.77504 56.19225 101.05844 55.441406 101.22461 C 54.690562 101.38463 53.86369 101.46484 52.958984 101.46484 L 47.585938 101.46484 L 47.585938 90.894531 z "
       d="m 70.240234,89.636719 c -1.114307,0 -2.133629,0.159615 -3.058593,0.482422 -0.924195,0.322538 -1.721166,0.776637 -2.386719,1.361328 -0.665435,0.584587 -1.18552,1.285065 -1.558594,2.099609 -0.367279,0.815485 -0.548828,1.710936 -0.548828,2.685547 0,1.005613 0.19185,1.916632 0.578125,2.726563 0.385835,0.809008 0.933569,1.500082 1.642578,2.072262 a 0.06738083,0.06738083 0 0 0 0.002,0 c 0.715279,0.566 1.577864,1.00106 2.587891,1.30469 1.010567,0.30379 2.140066,0.45313 3.388672,0.45313 0.536216,0 1.025754,-0.0177 1.470703,-0.0547 0.450749,-0.0309 0.893583,-0.0822 1.326172,-0.15625 0.432871,-0.068 0.871429,-0.15829 1.316406,-0.26953 a 0.06738083,0.06738083 0 0 0 0.002,0 c 0.444226,-0.11722 0.925636,-0.25578 1.443359,-0.41602 a 0.06738083,0.06738083 0 0 0 0.04688,-0.0645 v -1.33985 a 0.06738083,0.06738083 0 0 0 -0.101563,-0.0566 c -0.240977,0.15062 -0.554623,0.30066 -0.939453,0.44727 -0.385238,0.14064 -0.809691,0.2703 -1.275391,0.38672 v -0.002 c -0.46535,0.11021 -0.954138,0.20015 -1.46289,0.26757 -0.507995,0.0673 -1.008445,0.10157 -1.503907,0.10157 -1.164826,0 -2.183677,-0.11764 -3.05664,-0.34961 -0.866874,-0.23808 -1.596292,-0.57869 -2.191406,-1.01563 h -0.002 c -0.588768,-0.437291 -1.04205,-0.967517 -1.363281,-1.591796 -0.311676,-0.605711 -0.503367,-1.284606 -0.576172,-2.035156 H 77.46875 a 0.06738083,0.06738083 0 0 0 0.06641,-0.06641 v -0.285156 c 0,-1.028695 -0.160814,-1.955997 -0.484375,-2.777344 -0.323414,-0.827193 -0.797002,-1.530058 -1.419922,-2.109375 -0.623018,-0.579407 -1.388717,-1.025594 -2.294921,-1.335938 -0.906921,-0.310588 -1.93884,-0.46289 -3.095704,-0.46289 z m -23.808593,0.138672 a 0.06738083,0.06738083 0 0 0 -0.06641,0.06641 v 12.683593 a 0.06738083,0.06738083 0 0 0 0.06641,0.0664 h 6.544921 c 0.698215,0 1.363045,-0.0423 1.994141,-0.12891 0.637975,-0.0929 1.22724,-0.23876 1.767578,-0.4375 0.546818,-0.19884 1.042245,-0.46313 1.484375,-0.79297 0.449508,-0.33088 0.832587,-0.73482 1.144532,-1.20898 0.312249,-0.474621 0.551001,-1.028395 0.71875,-1.662112 0.17425,-0.640991 0.259765,-1.370384 0.259765,-2.1875 0,-1.219358 -0.187572,-2.240455 -0.568359,-3.064453 -0.373222,-0.821088 -0.895018,-1.481469 -1.5625,-1.974609 h -0.002 C 57.552569,90.63672 56.772877,90.284868 55.873047,90.080078 54.975133,89.875725 54.003475,89.775391 52.958984,89.775391 Z m 32.263671,0 a 0.06738083,0.06738083 0 0 0 -0.06641,0.06641 v 1.052734 a 0.06738083,0.06738083 0 0 0 0.06641,0.06641 h 5.705079 v 11.564452 a 0.06738083,0.06738083 0 0 0 0.06641,0.0664 h 1.144531 a 0.06738083,0.06738083 0 0 0 0.06641,-0.0664 V 90.960938 h 5.703125 a 0.06738083,0.06738083 0 0 0 0.06641,-0.06641 v -1.052734 a 0.06738083,0.06738083 0 0 0 -0.06641,-0.06641 z m 15.177735,0 a 0.06738083,0.06738083 0 0 0 -0.06641,0.06641 v 12.683593 a 0.06738083,0.06738083 0 0 0 0.06641,0.0664 h 1.154297 a 0.06738083,0.06738083 0 0 0 0.06641,-0.0664 v -5.757812 h 1.900391 c 0.649066,0 1.306953,0.04848 1.974609,0.146484 0.667016,0.09179 1.31161,0.239543 1.93555,0.441407 0.62366,0.201772 1.21343,0.457867 1.76953,0.769531 0.55484,0.304856 1.04651,0.669557 1.47265,1.095703 a 0.06738083,0.06738083 0 0 0 0,0.002 c 0.4317,0.42561 0.78489,0.913284 1.0586,1.466794 0.27285,0.54568 0.44106,1.15983 0.50195,1.8418 a 0.06738083,0.06738083 0 0 0 0.0664,0.0606 h 1.18945 a 0.06738083,0.06738083 0 0 0 0.0664,-0.0723 c -0.062,-0.74465 -0.21898,-1.41355 -0.47461,-2.00586 -0.25463,-0.58997 -0.57145,-1.115513 -0.95117,-1.57617 -0.373,-0.460029 -0.79679,-0.85746 -1.26954,-1.193359 -0.47062,-0.340585 -0.95677,-0.625932 -1.45898,-0.855469 h -0.002 c -0.49471,-0.234876 -0.99283,-0.420366 -1.49414,-0.556641 h -0.002 c -0.38903,-0.111791 -0.75196,-0.19554 -1.09961,-0.261719 0.26891,-0.07439 0.55271,-0.162443 0.86524,-0.277343 0.42133,-0.1611 0.85173,-0.358638 1.29101,-0.59375 a 0.06738083,0.06738083 0 0 0 0.002,0 c 0.44018,-0.241791 0.87359,-0.527341 1.30078,-0.855469 0.42898,-0.335724 0.81817,-0.725003 1.16601,-1.166016 0.34844,-0.441764 0.64093,-0.933881 0.87696,-1.480468 0.24321,-0.555027 0.39491,-1.17245 0.45703,-1.84961 a 0.06738083,0.06738083 0 0 0 -0.0664,-0.07227 h -1.1914 a 0.06738083,0.06738083 0 0 0 -0.0664,0.06055 c -0.0608,0.602047 -0.216,1.157954 -0.46484,1.673828 -0.2496,0.51746 -0.56933,0.993503 -0.95899,1.425781 -0.38967,0.426022 -0.84134,0.807224 -1.35351,1.142578 -0.50673,0.329673 -1.05732,0.609457 -1.65039,0.841797 -0.586466,0.22591 -1.201762,0.4012 -1.849614,0.523437 -0.648517,0.116243 -1.300565,0.175782 -1.955078,0.175782 H 95.09375 v -5.777344 a 0.06738083,0.06738083 0 0 0 -0.06641,-0.06641 z m 16.396483,0 a 0.06738083,0.06738083 0 0 0 -0.0664,0.06641 v 12.683593 a 0.06738083,0.06738083 0 0 0 0.0664,0.0664 h 1.15235 a 0.06738083,0.06738083 0 0 0 0.0664,-0.0664 V 89.841797 a 0.06738083,0.06738083 0 0 0 -0.0664,-0.06641 z m 3.6543,0 a 0.06738083,0.06738083 0 0 0 -0.0664,0.06641 v 1.052734 a 0.06738083,0.06738083 0 0 0 0.0664,0.06641 h 5.70312 v 11.564452 a 0.06738083,0.06738083 0 0 0 0.0664,0.0664 h 1.14648 a 0.06738083,0.06738083 0 0 0 0.0664,-0.0664 V 90.960938 h 5.70313 a 0.06738083,0.06738083 0 0 0 0.0664,-0.06641 v -1.052734 a 0.06738083,0.06738083 0 0 0 -0.0664,-0.06641 z m -43.703127,1.019531 c 1.046786,0 1.942085,0.133179 2.683594,0.394531 0.750064,0.262218 1.363587,0.612798 1.841797,1.054688 0.485596,0.443107 0.847452,0.955372 1.089844,1.537109 0.234226,0.55629 0.373691,1.140883 0.421874,1.753906 H 64.021484 c 0.08403,-0.617141 0.266218,-1.202346 0.546875,-1.757812 a 0.06738083,0.06738083 0 0 0 0,-0.002 c 0.291392,-0.582781 0.690607,-1.091668 1.201172,-1.529297 a 0.06738083,0.06738083 0 0 0 0.002,0 c 0.509806,-0.443044 1.133074,-0.794369 1.871094,-1.056641 0.735812,-0.261487 1.593234,-0.394531 2.578125,-0.394531 z m -22.568359,0.166016 h 5.30664 c 0.600615,0 1.166895,0.03426 1.699219,0.101562 0.531089,0.06715 1.020591,0.181473 1.470703,0.345703 a 0.06738083,0.06738083 0 0 0 0.002,0.002 c 0.449797,0.158037 0.853487,0.366438 1.210938,0.626953 0.356165,0.259579 0.656116,0.583298 0.904297,0.970703 0.247727,0.380655 0.440343,0.832139 0.574218,1.355469 0.133657,0.522478 0.201172,1.125661 0.201172,1.810547 0,1.02745 -0.1508,1.877243 -0.447265,2.548828 -0.297489,0.667832 -0.712101,1.198627 -1.244141,1.597654 -0.526928,0.39368 -1.159351,0.67346 -1.902344,0.83789 -0.74547,0.15888 -1.568026,0.24024 -2.46875,0.24024 h -5.30664 z"
       transform="matrix(0.99611493,0,0,0.99611493,-0.44243189,24.988302)" />
  </g>
</svg>
