<?xml version="1.0" encoding="UTF-8" standalone="no"?>
<!-- Created with Inkscape (http://www.inkscape.org/) -->

<svg
   version="1.1"
   id="svg2"
   width="282.18643"
   height="79.356384"
   viewBox="0 0 1015.8712 285.68298"
   sodipodi:docname="logo-ortho-dark.svg"
   inkscape:version="1.1.2 (1:1.1+202202050852+0a00cf5339)"
   inkscape:export-filename="/home/sia/work/ADCP/Noise-Estimation/code/ortho/docs/source/_static/images/icons/logo-ortho-dark.png"
   inkscape:export-xdpi="81.8368"
   inkscape:export-ydpi="81.8368"
   xmlns:inkscape="http://www.inkscape.org/namespaces/inkscape"
   xmlns:sodipodi="http://sodipodi.sourceforge.net/DTD/sodipodi-0.dtd"
   xmlns="http://www.w3.org/2000/svg"
   xmlns:svg="http://www.w3.org/2000/svg">
  <sodipodi:namedview
     id="namedview8"
     pagecolor="#ffffff"
     bordercolor="#666666"
     borderopacity="1.0"
     inkscape:pageshadow="2"
     inkscape:pageopacity="0.0"
     inkscape:pagecheckerboard="0"
     showgrid="false"
     inkscape:zoom="3.9902698"
     inkscape:cx="141.09322"
     inkscape:cy="39.721625"
     inkscape:window-width="1920"
     inkscape:window-height="1008"
     inkscape:window-x="0"
     inkscape:window-y="24"
     inkscape:window-maximized="1"
     inkscape:current-layer="svg2" />
  <defs
     id="defs6" />
  <g
     id="g18435"
     transform="matrix(0.98035481,0,0,0.98035481,-4.2526242,263.53493)"
     style="fill:#e9e9e9;fill-opacity:1">
    <g
       aria-label="or"
       id="text2298"
       style="font-size:246.979px;line-height:1.25;fill:#e9e9e9;stroke-width:8.41973;fill-opacity:1" />
    <g
       aria-label="tho"
       id="text2298-3"
       style="font-size:246.979px;line-height:1.25;fill:#e9e9e9;stroke-width:8.41973;fill-opacity:1">
      <path
         id="path18441"
         style="font-family:Syncopate;-inkscape-font-specification:Syncopate;fill:#e9e9e9;fill-opacity:1"
         d="m 366.31641,-193.79492 c -8.41577,0 -16.60312,0.9916 -24.54297,2.97656 -7.81336,1.89312 -15.30816,4.57005 -22.47071,8.02734 -0.002,9e-4 -0.004,0.001 -0.006,0.002 -7.14776,3.37037 -13.96653,7.43781 -20.44922,12.19726 a 2.7445192,2.7445192 0 0 0 -0.0117,0.01 c -4.63151,3.44394 -8.94532,7.21097 -13.10547,11.13086 v -27.37891 a 2.7445192,2.7445192 0 0 0 -2.74414,-2.74414 h -15.07422 a 2.7445192,2.7445192 0 0 0 -2.74414,2.74414 v 165.697268 a 2.7445192,2.7445192 0 0 0 2.74414,2.74414 h 15.07422 a 2.7445192,2.7445192 0 0 0 2.74414,-2.74414 V -135.12695 c 4.40896,-5.23972 9.29349,-10.21383 14.72461,-14.89063 a 2.7445192,2.7445192 0 0 0 0.0156,-0.0156 c 5.64161,-4.9364 11.74983,-9.24263 18.33399,-12.92774 6.63765,-3.67023 13.78709,-6.56331 21.46875,-8.67968 a 2.7445192,2.7445192 0 0 0 0.0176,-0.006 c 7.69858,-2.17738 15.92352,-3.27344 24.69921,-3.27344 6.38803,0 11.53241,0.44245 15.33985,1.26367 a 2.7445192,2.7445192 0 0 0 0.0605,0.0137 c 4.12385,0.79305 7.31226,1.54572 9.47461,2.2168 a 2.7445192,2.7445192 0 0 0 3.55665,-2.6211 v -14.83398 a 2.7445192,2.7445192 0 0 0 -2.25391,-2.69922 c -1.80153,-0.32755 -3.56299,-0.61502 -5.28711,-0.86133 -1.71058,-0.24436 -3.53553,-0.4428 -5.46094,-0.60547 -0.004,-4.6e-4 -0.008,4.7e-4 -0.0117,0 -1.93122,-0.2515 -4.04455,-0.41647 -6.33789,-0.5 -2.32231,-0.16486 -4.90148,-0.24804 -7.7539,-0.24804 z m -247.46094,1.20703 c -10.02167,0 -19.614518,0.77352 -28.775392,2.32617 -0.004,6.4e-4 -0.0077,0.001 -0.01172,0.002 -0.0038,6.5e-4 -0.0079,0.001 -0.01172,0.002 -9.176632,1.47646 -17.807173,3.81626 -25.876953,7.02734 -0.0013,5.3e-4 -0.0026,0.001 -0.0039,0.002 -7.996106,3.13379 -15.317515,7.10197 -21.941406,11.9043 a 2.7445192,2.7445192 0 0 0 -0.01367,0.01 c -6.582301,4.83257 -12.224988,10.59803 -16.894531,17.26562 -0.0019,0.003 -0.004,0.005 -0.0059,0.008 -0.0014,0.002 -0.0026,0.004 -0.0039,0.006 -4.678629,6.60351 -8.297674,14.1113 -10.865234,22.47657 -2.584871,8.3414 -3.861328,17.5826 -3.861328,27.69921 0,15.204731 2.756766,28.509906 8.365234,39.810552 a 2.7445192,2.7445192 0 0 0 0.0039,0.0059 c 5.567365,11.134727 13.302697,20.419033 23.125,27.744141 a 2.7445192,2.7445192 0 0 0 0.01172,0.0098 c 9.793904,7.220929 21.30372,12.549208 34.457031,16.001953 13.114543,3.442567 27.221476,5.15625 42.302736,5.15625 15.00198,0 29.03074,-1.71482 42.06641,-5.158203 13.07478,-3.453715 24.5044,-8.782377 34.21874,-16.00586 a 2.7445192,2.7445192 0 0 0 0.0137,-0.0098 c 9.74001,-7.325824 17.42924,-16.6085 22.99414,-27.738281 a 2.7445192,2.7445192 0 0 0 0.004,-0.0059 c 5.60848,-11.300647 8.36524,-24.605822 8.36524,-39.810552 0,-15.20472 -2.75663,-28.47223 -8.36914,-39.69726 -5.56221,-11.20506 -13.25192,-20.49076 -22.99414,-27.73828 l -0.01,-0.008 c -9.71382,-7.30393 -21.14705,-12.67498 -34.22265,-16.12891 -13.03592,-3.44344 -27.06467,-5.15625 -42.06641,-5.15625 z m 817.33398,0 c -10.02165,0 -19.61452,0.77352 -28.77539,2.32617 -0.004,6.4e-4 -0.008,0.001 -0.0117,0.002 -0.004,6.5e-4 -0.008,0.001 -0.0117,0.002 -9.17658,1.47645 -17.80898,3.8162 -25.8789,7.02734 -0.001,5.3e-4 -0.003,0.001 -0.004,0.002 -7.9961,3.13379 -15.31751,7.10198 -21.9414,11.9043 a 2.7445192,2.7445192 0 0 0 -0.0137,0.01 c -6.5825,4.83272 -12.22325,10.59833 -16.89257,17.26562 -0.002,0.003 -0.004,0.005 -0.006,0.008 -0.001,0.002 -0.003,0.004 -0.004,0.006 -4.67843,6.60321 -8.29951,14.11091 -10.86719,22.47657 -2.58499,8.34179 -3.85937,17.58297 -3.85937,27.69921 0,15.20473 2.75676,28.509905 8.36523,39.810552 a 2.7445192,2.7445192 0 0 0 0.004,0.0059 c 5.56736,11.134728 13.3027,20.419034 23.125,27.744141 a 2.7445192,2.7445192 0 0 0 0.0117,0.0098 c 9.79391,7.220929 21.30373,12.549208 34.45703,16.001953 13.11455,3.442567 27.22149,5.15625 42.30273,5.15625 15.002,0 29.02886,-1.714838 42.06446,-5.158203 13.07471,-3.453697 24.50619,-8.782264 34.22069,-16.00586 a 2.7445192,2.7445192 0 0 0 0.014,-0.0098 c 9.74,-7.325825 17.4292,-16.608506 22.9941,-27.738281 a 2.7445192,2.7445192 0 0 0 0,-0.0059 c 5.6085,-11.300647 8.3653,-24.60582 8.3653,-39.810552 0,-15.20472 -2.7567,-28.47223 -8.3692,-39.69726 -5.5622,-11.20505 -13.2519,-20.49076 -22.9941,-27.73828 l -0.01,-0.008 c -9.7139,-7.30404 -21.14906,-12.67499 -34.22459,-16.12891 -13.03585,-3.44343 -27.0627,-5.15625 -42.06446,-5.15625 z m -526.64062,3.01367 a 2.7445192,2.7445192 0 0 0 -2.74414,2.74414 v 13.74805 a 2.7445192,2.7445192 0 0 0 2.74414,2.74414 h 72.6289 v 149.205078 a 2.7445192,2.7445192 0 0 0 2.74415,2.74414 H 499.875 a 2.7445192,2.7445192 0 0 0 2.74414,-2.74414 V -170.33789 h 72.62891 a 2.7445192,2.7445192 0 0 0 2.74414,-2.74414 v -13.74805 a 2.7445192,2.7445192 0 0 0 -2.74414,-2.74414 z m 198.25976,0 a 2.7445192,2.7445192 0 0 0 -2.74414,2.74414 v 165.697268 a 2.7445192,2.7445192 0 0 0 2.74414,2.74414 h 15.07422 a 2.7445192,2.7445192 0 0 0 2.74414,-2.74414 V -98.705078 H 768.5918 v 77.572266 a 2.7445192,2.7445192 0 0 0 2.74414,2.74414 h 15.07422 a 2.7445192,2.7445192 0 0 0 2.74414,-2.74414 V -186.83008 a 2.7445192,2.7445192 0 0 0 -2.74414,-2.74414 h -15.07422 a 2.7445192,2.7445192 0 0 0 -2.74414,2.74414 v 68.64844 H 625.62695 v -68.64844 a 2.7445192,2.7445192 0 0 0 -2.74414,-2.74414 z m -488.95312,15.85938 c 14.51261,0 27.16397,1.5912 37.94726,4.71679 a 2.7445192,2.7445192 0 0 0 0.0215,0.006 c 10.87627,3.05162 19.83593,7.55169 26.9707,13.45899 a 2.7445192,2.7445192 0 0 0 0.0137,0.0117 c 7.14081,5.83549 12.47343,12.99615 16.08789,21.60937 a 2.7445192,2.7445192 0 0 0 0.01,0.0176 c 3.68896,8.60758 5.56641,18.59804 5.56641,30.03515 0,11.437127 -1.87739,21.425506 -5.56641,30.033208 a 2.7445192,2.7445192 0 0 0 -0.01,0.01758 c -3.6141,8.61235 -8.94956,15.815113 -16.09375,21.732422 -7.14006,5.833482 -16.11138,10.342321 -26.99609,13.47461 -10.78637,3.046664 -23.43944,4.595703 -37.95117,4.595703 -14.51769,0 -27.257025,-1.55098 -38.214845,-4.603516 -10.876072,-3.132673 -19.887419,-7.64018 -27.107422,-13.476563 -0.0014,-0.0011 -0.0025,-0.0028 -0.0039,-0.0039 -7.223014,-5.920326 -12.637359,-13.124538 -16.328125,-21.736328 -3.688884,-8.607394 -5.564453,-18.595776 -5.564453,-30.033208 0,-11.27245 1.873267,-21.1802 5.564453,-29.79296 a 2.7445192,2.7445192 0 0 0 0.0039,-0.008 c 3.693555,-8.69524 9.106435,-15.89482 16.324219,-21.73046 a 2.7445192,2.7445192 0 0 0 0.01367,-0.0117 c 7.224427,-5.91789 16.237596,-10.46377 27.121093,-13.59571 10.95067,-3.12804 23.681318,-4.71679 38.191408,-4.71679 z m 817.33398,0 c 14.51263,0 27.16397,1.5912 37.94727,4.71679 a 2.7445192,2.7445192 0 0 0 0.0215,0.006 c 10.87627,3.05162 19.83594,7.55169 26.9707,13.45899 a 2.7445192,2.7445192 0 0 0 0.014,0.0117 c 7.1408,5.83549 12.4734,12.99616 16.0879,21.60937 a 2.7445192,2.7445192 0 0 0 0.01,0.0176 c 3.689,8.60757 5.5664,18.59804 5.5664,30.03515 0,11.43713 -1.8773,21.425516 -5.5664,30.033208 a 2.7445192,2.7445192 0 0 0 -0.01,0.01758 c -3.6141,8.612336 -8.9496,15.815109 -16.0938,21.732422 -7.14003,5.83348 -16.11138,10.342321 -26.99608,13.47461 -10.78637,3.046664 -23.43942,4.595703 -37.95117,4.595703 -14.51767,0 -27.25906,-1.551002 -38.21679,-4.603516 -10.87599,-3.13265 -19.88529,-7.640035 -27.10547,-13.476563 -0.001,-0.0011 -0.003,-0.0028 -0.004,-0.0039 -7.22301,-5.920326 -12.63735,-13.124536 -16.32812,-21.736328 -3.68901,-8.607704 -5.56641,-18.596081 -5.56641,-30.033208 0,-11.27214 1.87509,-21.17989 5.56641,-29.79296 a 2.7445192,2.7445192 0 0 0 0.004,-0.008 c 3.69356,-8.69524 9.10644,-15.89482 16.32422,-21.73046 a 2.7445192,2.7445192 0 0 0 0.0137,-0.0117 c 7.22461,-5.91804 16.23572,-10.46379 27.11914,-13.59571 10.95059,-3.12802 23.68329,-4.71679 38.19336,-4.71679 z"
         transform="translate(-5.2399537,-18.649107)" />
    </g>
  </g>
</svg>
