<?xml version="1.0" encoding="UTF-8" standalone="no"?>
<svg
   height="345.6pt"
   version="1.1"
   viewBox="0 0 460.8 345.6"
   width="460.8pt"
   id="svg576"
   sodipodi:docname="schatten.svg"
   inkscape:version="1.1.2 (0a00cf5339, 2022-02-04)"
   inkscape:export-filename="/home/sia/work/ADCP/Noise-Estimation/code/imate/docs/source/_static/images/plots/schatten.png"
   inkscape:export-xdpi="500"
   inkscape:export-ydpi="500"
   xmlns:inkscape="http://www.inkscape.org/namespaces/inkscape"
   xmlns:sodipodi="http://sodipodi.sourceforge.net/DTD/sodipodi-0.dtd"
   xmlns:xlink="http://www.w3.org/1999/xlink"
   xmlns="http://www.w3.org/2000/svg"
   xmlns:svg="http://www.w3.org/2000/svg"
   xmlns:rdf="http://www.w3.org/1999/02/22-rdf-syntax-ns#"
   xmlns:cc="http://creativecommons.org/ns#"
   xmlns:dc="http://purl.org/dc/elements/1.1/">
  <sodipodi:namedview
     id="namedview578"
     pagecolor="#ffffff"
     bordercolor="#666666"
     borderopacity="1.0"
     inkscape:pageshadow="2"
     inkscape:pageopacity="0.0"
     inkscape:pagecheckerboard="0"
     inkscape:document-units="pt"
     showgrid="false"
     inkscape:zoom="1.4800347"
     inkscape:cx="285.12845"
     inkscape:cy="230.4"
     inkscape:window-width="1920"
     inkscape:window-height="1006"
     inkscape:window-x="0"
     inkscape:window-y="25"
     inkscape:window-maximized="1"
     inkscape:current-layer="svg576" />
  <metadata
     id="metadata2">
    <rdf:RDF>
      <cc:Work>
        <dc:type
           rdf:resource="http://purl.org/dc/dcmitype/StillImage" />
        <dc:date>2022-08-30T18:33:46.877910</dc:date>
        <dc:format>image/svg+xml</dc:format>
        <dc:creator>
          <cc:Agent>
            <dc:title>Matplotlib v3.4.2, https://matplotlib.org/</dc:title>
          </cc:Agent>
        </dc:creator>
      </cc:Work>
    </rdf:RDF>
  </metadata>
  <defs
     id="defs6">
    <style
       type="text/css"
       id="style4">*{stroke-linecap:butt;stroke-linejoin:round;}</style>
  </defs>
  <g
     id="patch_1"
     style="fill:none;stroke:none">
    <path
       d="M 0,345.6 H 460.8 V 0 H 0 Z"
       style="fill:none;stroke:none"
       id="path8" />
  </g>
  <g
     id="xtick_1">
    <g
       id="line2d_1">
      <path
         clip-path="url(#pf10f45b41d)"
         d="M 57.6,307.584 V 41.472"
         style="fill:none;stroke:#cccccc;stroke-linecap:round"
         id="path14" />
    </g>
    <g
       id="line2d_2">
      <defs
         id="defs18">
        <path
           d="M 0,0 V 6"
           id="m4e09f6ec42"
           style="stroke:#262626;stroke-width:1.25" />
      </defs>
      <g
         id="g22">
        <use
           style="fill:#262626;stroke:#262626;stroke-width:1.25"
           x="57.599998"
           xlink:href="#m4e09f6ec42"
           y="307.58401"
           id="use20"
           width="100%"
           height="100%" />
      </g>
    </g>
    <g
       id="text_1">
      <!-- $\mathdefault{−10.0}$ -->
      <g
         style="fill:#262626"
         transform="matrix(0.1265,0,0,-0.1265,41.729993,325.83588)"
         id="g41">
        <defs
           id="defs29">
          <path
             d="m 4218,1472 c 108,0 224,0 224,128 0,128 -116,128 -224,128 H 755 c -109,0 -224,0 -224,-128 0,-128 115,-128 224,-128 z"
             id="CMSY10-0"
             transform="scale(0.015625)" />
          <path
             d="m 1702,4058 c 0,134 -6,134 -96,134 -249,-276 -627,-365 -985,-365 -19,0 -51,0 -58,-19 -6,-13 -6,-26 -6,-160 198,0 531,38 787,191 V 461 C 1344,236 1331,160 781,160 H 589 V 0 c 307,0 627,0 934,0 307,0 627,0 935,0 v 160 h -192 c -551,0 -564,70 -564,298 z"
             id="CMR17-31"
             transform="scale(0.015625)" />
          <path
             d="m 2688,2025 c 0,391 -6,1055 -275,1566 -237,448 -615,607 -947,607 -308,0 -698,-140 -941,-601 C 269,3118 243,2524 243,2025 c 0,-364 7,-919 205,-1406 275,-658 768,-747 1018,-747 294,0 742,121 1004,728 192,442 218,959 218,1425 z M 1466,-26 c -410,0 -653,351 -743,838 -70,376 -70,926 -70,1284 0,492 0,901 83,1291 122,542 480,709 730,709 262,0 601,-173 723,-696 83,-364 89,-793 89,-1304 0,-416 0,-927 -76,-1304 C 2067,95 1690,-26 1466,-26 Z"
             id="CMR17-30"
             transform="scale(0.015625)" />
          <path
             d="M 1178,307 C 1178,492 1024,619 870,619 685,619 557,466 557,313 557,128 710,0 864,0 c 186,0 314,153 314,307 z"
             id="CMMI12-3a"
             transform="scale(0.015625)" />
        </defs>
        <use
           transform="scale(0.996264)"
           xlink:href="#CMSY10-0"
           id="use31"
           x="0"
           y="0"
           width="100%"
           height="100%" />
        <use
           transform="matrix(0.996264,0,0,0.996264,77.487468,0)"
           xlink:href="#CMR17-31"
           id="use33"
           x="0"
           y="0"
           width="100%"
           height="100%" />
        <use
           transform="matrix(0.996264,0,0,0.996264,123.17794,0)"
           xlink:href="#CMR17-30"
           id="use35"
           x="0"
           y="0"
           width="100%"
           height="100%" />
        <use
           transform="matrix(0.996264,0,0,0.996264,168.86842,0)"
           xlink:href="#CMMI12-3a"
           id="use37"
           x="0"
           y="0"
           width="100%"
           height="100%" />
        <use
           transform="matrix(0.996264,0,0,0.996264,195.9656,0)"
           xlink:href="#CMR17-30"
           id="use39"
           x="0"
           y="0"
           width="100%"
           height="100%" />
      </g>
    </g>
  </g>
  <g
     id="line2d_4">
    <g
       id="g50">
      <use
         style="fill:#262626;stroke:#262626;stroke-width:1.25"
         x="102.24"
         xlink:href="#m4e09f6ec42"
         y="307.58401"
         id="use48"
         width="100%"
         height="100%" />
    </g>
  </g>
  <g
     id="text_2">
    <!-- $\mathdefault{−7.5}$ -->
    <g
       style="fill:#262626"
       transform="matrix(0.1265,0,0,-0.1265,89.455005,325.83588)"
       id="g65">
      <defs
         id="defs55">
        <path
           d="m 2886,3941 v 140 H 1382 c -748,0 -761,84 -787,207 H 480 L 294,3094 h 116 c 19,121 64,446 140,567 39,51 512,51 621,51 H 2579 L 1869,2661 C 1395,1954 1069,999 1069,165 c 0,-76 0,-293 230,-293 231,0 231,217 231,299 v 294 c 0,1043 179,1731 473,2171 z"
           id="CMR17-37"
           transform="scale(0.015625)" />
        <path
           d="m 730,3692 c 64,-26 326,-108 595,-108 595,0 921,327 1107,516 0,57 0,92 -38,92 -7,0 -20,0 -71,-29 -224,-105 -486,-190 -806,-190 -192,0 -480,26 -794,166 -70,32 -83,32 -89,32 -32,0 -39,-7 -39,-134 V 2203 c 0,-114 0,-146 64,-146 32,0 45,13 77,57 205,287 486,408 806,408 224,0 704,-140 704,-1233 0,-204 0,-574 -192,-868 C 1894,159 1645,25 1370,25 947,25 518,320 403,814 c 26,-7 77,-19 103,-19 83,0 243,45 243,243 0,172 -122,242 -243,242 -148,0 -244,-90 -244,-269 0,-557 442,-1139 1120,-1139 660,0 1287,568 1287,1392 0,766 -499,1360 -1120,1360 -327,0 -602,-121 -819,-350 z"
           id="CMR17-35"
           transform="scale(0.015625)" />
      </defs>
      <use
         transform="scale(0.996264)"
         xlink:href="#CMSY10-0"
         id="use57"
         x="0"
         y="0"
         width="100%"
         height="100%" />
      <use
         transform="matrix(0.996264,0,0,0.996264,77.487468,0)"
         xlink:href="#CMR17-37"
         id="use59"
         x="0"
         y="0"
         width="100%"
         height="100%" />
      <use
         transform="matrix(0.996264,0,0,0.996264,123.17794,0)"
         xlink:href="#CMMI12-3a"
         id="use61"
         x="0"
         y="0"
         width="100%"
         height="100%" />
      <use
         transform="matrix(0.996264,0,0,0.996264,150.27512,0)"
         xlink:href="#CMR17-35"
         id="use63"
         x="0"
         y="0"
         width="100%"
         height="100%" />
    </g>
  </g>
  <g
     id="line2d_6">
    <g
       id="g74">
      <use
         style="fill:#262626;stroke:#262626;stroke-width:1.25"
         x="146.88"
         xlink:href="#m4e09f6ec42"
         y="307.58401"
         id="use72"
         width="100%"
         height="100%" />
    </g>
  </g>
  <g
     id="text_3">
    <!-- $\mathdefault{−5.0}$ -->
    <g
       style="fill:#262626"
       transform="matrix(0.1265,0,0,-0.1265,134.095,325.83588)"
       id="g85">
      <use
         transform="scale(0.996264)"
         xlink:href="#CMSY10-0"
         id="use77"
         x="0"
         y="0"
         width="100%"
         height="100%" />
      <use
         transform="matrix(0.996264,0,0,0.996264,77.487468,0)"
         xlink:href="#CMR17-35"
         id="use79"
         x="0"
         y="0"
         width="100%"
         height="100%" />
      <use
         transform="matrix(0.996264,0,0,0.996264,123.17794,0)"
         xlink:href="#CMMI12-3a"
         id="use81"
         x="0"
         y="0"
         width="100%"
         height="100%" />
      <use
         transform="matrix(0.996264,0,0,0.996264,150.27512,0)"
         xlink:href="#CMR17-30"
         id="use83"
         x="0"
         y="0"
         width="100%"
         height="100%" />
    </g>
  </g>
  <g
     id="line2d_8">
    <g
       id="g94">
      <use
         style="fill:#262626;stroke:#262626;stroke-width:1.25"
         x="191.52"
         xlink:href="#m4e09f6ec42"
         y="307.58401"
         id="use92"
         width="100%"
         height="100%" />
    </g>
  </g>
  <g
     id="text_4">
    <!-- $\mathdefault{−2.5}$ -->
    <g
       style="fill:#262626"
       transform="matrix(0.1265,0,0,-0.1265,178.735,325.83588)"
       id="g108">
      <defs
         id="defs98">
        <path
           d="M 2669,989 H 2554 C 2490,536 2438,459 2413,420 2381,369 1920,369 1830,369 H 602 c 230,250 678,703 1222,1228 390,370 845,805 845,1438 0,755 -602,1189 -1274,1189 -704,0 -1133,-620 -1133,-1194 0,-250 186,-282 263,-282 64,0 256,39 256,262 0,197 -167,254 -256,254 -39,0 -77,-6 -103,-19 122,545 493,813 884,813 556,0 921,-441 921,-1023 0,-556 -326,-1035 -691,-1451 L 262,146 V 0 h 2253 z"
           id="CMR17-32"
           transform="scale(0.015625)" />
      </defs>
      <use
         transform="scale(0.996264)"
         xlink:href="#CMSY10-0"
         id="use100"
         x="0"
         y="0"
         width="100%"
         height="100%" />
      <use
         transform="matrix(0.996264,0,0,0.996264,77.487468,0)"
         xlink:href="#CMR17-32"
         id="use102"
         x="0"
         y="0"
         width="100%"
         height="100%" />
      <use
         transform="matrix(0.996264,0,0,0.996264,123.17794,0)"
         xlink:href="#CMMI12-3a"
         id="use104"
         x="0"
         y="0"
         width="100%"
         height="100%" />
      <use
         transform="matrix(0.996264,0,0,0.996264,150.27512,0)"
         xlink:href="#CMR17-35"
         id="use106"
         x="0"
         y="0"
         width="100%"
         height="100%" />
    </g>
  </g>
  <g
     id="xtick_5">
    <g
       id="line2d_9">
      <path
         clip-path="url(#pf10f45b41d)"
         d="M 236.16,307.584 V 41.472"
         style="fill:none;stroke:#cccccc;stroke-linecap:round"
         id="path112" />
    </g>
    <g
       id="line2d_10">
      <g
         id="g117">
        <use
           style="fill:#262626;stroke:#262626;stroke-width:1.25"
           x="236.16"
           xlink:href="#m4e09f6ec42"
           y="307.58401"
           id="use115"
           width="100%"
           height="100%" />
      </g>
    </g>
    <g
       id="text_5">
      <!-- $\mathdefault{0.0}$ -->
      <g
         style="fill:#262626"
         transform="matrix(0.1265,0,0,-0.1265,228.27608,325.83588)"
         id="g126">
        <use
           transform="scale(0.996264)"
           xlink:href="#CMR17-30"
           id="use120"
           x="0"
           y="0"
           width="100%"
           height="100%" />
        <use
           transform="matrix(0.996264,0,0,0.996264,45.690477,0)"
           xlink:href="#CMMI12-3a"
           id="use122"
           x="0"
           y="0"
           width="100%"
           height="100%" />
        <use
           transform="matrix(0.996264,0,0,0.996264,72.787654,0)"
           xlink:href="#CMR17-30"
           id="use124"
           x="0"
           y="0"
           width="100%"
           height="100%" />
      </g>
    </g>
  </g>
  <g
     id="line2d_12">
    <g
       id="g135">
      <use
         style="fill:#262626;stroke:#262626;stroke-width:1.25"
         x="280.79999"
         xlink:href="#m4e09f6ec42"
         y="307.58401"
         id="use133"
         width="100%"
         height="100%" />
    </g>
  </g>
  <g
     id="text_6">
    <!-- $\mathdefault{2.5}$ -->
    <g
       style="fill:#262626"
       transform="matrix(0.1265,0,0,-0.1265,272.91608,325.83588)"
       id="g144">
      <use
         transform="scale(0.996264)"
         xlink:href="#CMR17-32"
         id="use138"
         x="0"
         y="0"
         width="100%"
         height="100%" />
      <use
         transform="matrix(0.996264,0,0,0.996264,45.690477,0)"
         xlink:href="#CMMI12-3a"
         id="use140"
         x="0"
         y="0"
         width="100%"
         height="100%" />
      <use
         transform="matrix(0.996264,0,0,0.996264,72.787654,0)"
         xlink:href="#CMR17-35"
         id="use142"
         x="0"
         y="0"
         width="100%"
         height="100%" />
    </g>
  </g>
  <g
     id="line2d_14">
    <g
       id="g153">
      <use
         style="fill:#262626;stroke:#262626;stroke-width:1.25"
         x="325.44"
         xlink:href="#m4e09f6ec42"
         y="307.58401"
         id="use151"
         width="100%"
         height="100%" />
    </g>
  </g>
  <g
     id="text_7">
    <!-- $\mathdefault{5.0}$ -->
    <g
       style="fill:#262626"
       transform="matrix(0.1265,0,0,-0.1265,317.55608,325.83588)"
       id="g162">
      <use
         transform="scale(0.996264)"
         xlink:href="#CMR17-35"
         id="use156"
         x="0"
         y="0"
         width="100%"
         height="100%" />
      <use
         transform="matrix(0.996264,0,0,0.996264,45.690477,0)"
         xlink:href="#CMMI12-3a"
         id="use158"
         x="0"
         y="0"
         width="100%"
         height="100%" />
      <use
         transform="matrix(0.996264,0,0,0.996264,72.787654,0)"
         xlink:href="#CMR17-30"
         id="use160"
         x="0"
         y="0"
         width="100%"
         height="100%" />
    </g>
  </g>
  <g
     id="line2d_16">
    <g
       id="g171">
      <use
         style="fill:#262626;stroke:#262626;stroke-width:1.25"
         x="370.07999"
         xlink:href="#m4e09f6ec42"
         y="307.58401"
         id="use169"
         width="100%"
         height="100%" />
    </g>
  </g>
  <g
     id="text_8">
    <!-- $\mathdefault{7.5}$ -->
    <g
       style="fill:#262626"
       transform="matrix(0.1265,0,0,-0.1265,362.19608,325.83588)"
       id="g180">
      <use
         transform="scale(0.996264)"
         xlink:href="#CMR17-37"
         id="use174"
         x="0"
         y="0"
         width="100%"
         height="100%" />
      <use
         transform="matrix(0.996264,0,0,0.996264,45.690477,0)"
         xlink:href="#CMMI12-3a"
         id="use176"
         x="0"
         y="0"
         width="100%"
         height="100%" />
      <use
         transform="matrix(0.996264,0,0,0.996264,72.787654,0)"
         xlink:href="#CMR17-35"
         id="use178"
         x="0"
         y="0"
         width="100%"
         height="100%" />
    </g>
  </g>
  <g
     id="xtick_9">
    <g
       id="line2d_17">
      <path
         clip-path="url(#pf10f45b41d)"
         d="M 414.72,307.584 V 41.472"
         style="fill:none;stroke:#cccccc;stroke-linecap:round"
         id="path184" />
    </g>
    <g
       id="line2d_18">
      <g
         id="g189">
        <use
           style="fill:#262626;stroke:#262626;stroke-width:1.25"
           x="414.72"
           xlink:href="#m4e09f6ec42"
           y="307.58401"
           id="use187"
           width="100%"
           height="100%" />
      </g>
    </g>
    <g
       id="text_9">
      <!-- $\mathdefault{10.0}$ -->
      <g
         style="fill:#262626"
         transform="matrix(0.1265,0,0,-0.1265,403.75107,325.83588)"
         id="g200">
        <use
           transform="scale(0.996264)"
           xlink:href="#CMR17-31"
           id="use192"
           x="0"
           y="0"
           width="100%"
           height="100%" />
        <use
           transform="matrix(0.996264,0,0,0.996264,45.690477,0)"
           xlink:href="#CMR17-30"
           id="use194"
           x="0"
           y="0"
           width="100%"
           height="100%" />
        <use
           transform="matrix(0.996264,0,0,0.996264,91.380954,0)"
           xlink:href="#CMMI12-3a"
           id="use196"
           x="0"
           y="0"
           width="100%"
           height="100%" />
        <use
           transform="matrix(0.996264,0,0,0.996264,118.47813,0)"
           xlink:href="#CMR17-30"
           id="use198"
           x="0"
           y="0"
           width="100%"
           height="100%" />
      </g>
    </g>
  </g>
  <g
     id="text_10">
    <!-- $p$ -->
    <g
       style="fill:#262626"
       transform="matrix(0.138,0,0,-0.138,232.7818,341.8339)"
       id="g209">
      <defs
         id="defs205">
        <path
           d="m 275,-789 c -45,-191 -70,-242 -333,-242 -76,0 -140,0 -140,-121 0,-13 6,-64 76,-64 84,0 173,0 256,0 h 276 c 134,0 460,0 595,0 38,0 115,0 115,115 0,70 -45,70 -154,70 -294,0 -313,44 -313,94 0,76 288,1156 326,1301 71,-179 243,-428 576,-428 723,0 1504,939 1504,1878 0,587 -333,1002 -813,1002 -409,0 -755,-396 -825,-485 -51,319 -301,485 -557,485 -186,0 -333,-89 -454,-332 -116,-230 -205,-619 -205,-645 0,-25 25,-57 70,-57 51,0 58,6 96,153 96,377 218,754 474,754 147,0 198,-102 198,-292 0,-152 -19,-216 -45,-330 z m 1107,2782 c 45,178 224,364 327,453 70,64 281,243 525,243 281,0 409,-281 409,-613 C 2643,1769 2464,1047 2304,715 2144,370 1850,64 1555,64 c -435,0 -505,549 -505,575 0,19 12,70 19,102 z"
           id="CMMI12-70"
           transform="scale(0.015625)" />
      </defs>
      <use
         transform="scale(0.996264)"
         xlink:href="#CMMI12-70"
         id="use207"
         x="0"
         y="0"
         width="100%"
         height="100%" />
    </g>
  </g>
  <g
     id="matplotlib.axis_2">
    <g
       id="ytick_1">
      <g
         id="line2d_19">
        <defs
           id="defs214">
          <path
             d="M 0,0 H -6"
             id="m5f880626c8"
             style="stroke:#262626;stroke-width:1.25" />
        </defs>
        <g
           id="g218">
          <use
             style="fill:#262626;stroke:#262626;stroke-width:1.25"
             x="57.599998"
             xlink:href="#m5f880626c8"
             y="307.58401"
             id="use216"
             width="100%"
             height="100%" />
        </g>
      </g>
      <g
         id="text_11">
        <!-- $\mathdefault{10^{-2}}$ -->
        <g
           style="fill:#262626"
           transform="matrix(0.1265,0,0,-0.1265,23.782879,311.95994)"
           id="g229">
          <use
             transform="scale(0.996264)"
             xlink:href="#CMR17-31"
             id="use221"
             x="0"
             y="0"
             width="100%"
             height="100%" />
          <use
             transform="matrix(0.996264,0,0,0.996264,45.690477,0)"
             xlink:href="#CMR17-30"
             id="use223"
             x="0"
             y="0"
             width="100%"
             height="100%" />
          <use
             transform="matrix(0.697382,0,0,0.697382,91.380954,36.153639)"
             xlink:href="#CMSY10-0"
             id="use225"
             x="0"
             y="0"
             width="100%"
             height="100%" />
          <use
             transform="matrix(0.697382,0,0,0.697382,145.62195,36.153639)"
             xlink:href="#CMR17-32"
             id="use227"
             x="0"
             y="0"
             width="100%"
             height="100%" />
        </g>
      </g>
    </g>
    <g
       id="ytick_2">
      <g
         id="line2d_20">
        <g
           id="g235">
          <use
             style="fill:#262626;stroke:#262626;stroke-width:1.25"
             x="57.599998"
             xlink:href="#m5f880626c8"
             y="241.056"
             id="use233"
             width="100%"
             height="100%" />
        </g>
      </g>
      <g
         id="text_12">
        <!-- $\mathdefault{10^{-1}}$ -->
        <g
           style="fill:#262626"
           transform="matrix(0.1265,0,0,-0.1265,23.782879,245.43194)"
           id="g246">
          <use
             transform="scale(0.996264)"
             xlink:href="#CMR17-31"
             id="use238"
             x="0"
             y="0"
             width="100%"
             height="100%" />
          <use
             transform="matrix(0.996264,0,0,0.996264,45.690477,0)"
             xlink:href="#CMR17-30"
             id="use240"
             x="0"
             y="0"
             width="100%"
             height="100%" />
          <use
             transform="matrix(0.697382,0,0,0.697382,91.380954,36.153639)"
             xlink:href="#CMSY10-0"
             id="use242"
             x="0"
             y="0"
             width="100%"
             height="100%" />
          <use
             transform="matrix(0.697382,0,0,0.697382,145.62195,36.153639)"
             xlink:href="#CMR17-31"
             id="use244"
             x="0"
             y="0"
             width="100%"
             height="100%" />
        </g>
      </g>
    </g>
    <g
       id="ytick_3">
      <g
         id="line2d_21">
        <g
           id="g252">
          <use
             style="fill:#262626;stroke:#262626;stroke-width:1.25"
             x="57.599998"
             xlink:href="#m5f880626c8"
             y="174.528"
             id="use250"
             width="100%"
             height="100%" />
        </g>
      </g>
      <g
         id="text_13">
        <!-- $\mathdefault{10^{0}}$ -->
        <g
           style="fill:#262626"
           transform="matrix(0.1265,0,0,-0.1265,31.073274,178.90394)"
           id="g261">
          <use
             transform="scale(0.996264)"
             xlink:href="#CMR17-31"
             id="use255"
             x="0"
             y="0"
             width="100%"
             height="100%" />
          <use
             transform="matrix(0.996264,0,0,0.996264,45.690477,0)"
             xlink:href="#CMR17-30"
             id="use257"
             x="0"
             y="0"
             width="100%"
             height="100%" />
          <use
             transform="matrix(0.697382,0,0,0.697382,91.380954,36.153639)"
             xlink:href="#CMR17-30"
             id="use259"
             x="0"
             y="0"
             width="100%"
             height="100%" />
        </g>
      </g>
    </g>
    <g
       id="ytick_4">
      <g
         id="line2d_22">
        <g
           id="g267">
          <use
             style="fill:#262626;stroke:#262626;stroke-width:1.25"
             x="57.599998"
             xlink:href="#m5f880626c8"
             y="108"
             id="use265"
             width="100%"
             height="100%" />
        </g>
      </g>
      <g
         id="text_14">
        <!-- $\mathdefault{10^{1}}$ -->
        <g
           style="fill:#262626"
           transform="matrix(0.1265,0,0,-0.1265,31.073274,112.37594)"
           id="g276">
          <use
             transform="scale(0.996264)"
             xlink:href="#CMR17-31"
             id="use270"
             x="0"
             y="0"
             width="100%"
             height="100%" />
          <use
             transform="matrix(0.996264,0,0,0.996264,45.690477,0)"
             xlink:href="#CMR17-30"
             id="use272"
             x="0"
             y="0"
             width="100%"
             height="100%" />
          <use
             transform="matrix(0.697382,0,0,0.697382,91.380954,36.153639)"
             xlink:href="#CMR17-31"
             id="use274"
             x="0"
             y="0"
             width="100%"
             height="100%" />
        </g>
      </g>
    </g>
    <g
       id="ytick_5">
      <g
         id="line2d_23">
        <g
           id="g282">
          <use
             style="fill:#262626;stroke:#262626;stroke-width:1.25"
             x="57.599998"
             xlink:href="#m5f880626c8"
             y="41.472"
             id="use280"
             width="100%"
             height="100%" />
        </g>
      </g>
      <g
         id="text_15">
        <!-- $\mathdefault{10^{2}}$ -->
        <g
           style="fill:#262626"
           transform="matrix(0.1265,0,0,-0.1265,31.073274,45.847939)"
           id="g291">
          <use
             transform="scale(0.996264)"
             xlink:href="#CMR17-31"
             id="use285"
             x="0"
             y="0"
             width="100%"
             height="100%" />
          <use
             transform="matrix(0.996264,0,0,0.996264,45.690477,0)"
             xlink:href="#CMR17-30"
             id="use287"
             x="0"
             y="0"
             width="100%"
             height="100%" />
          <use
             transform="matrix(0.697382,0,0,0.697382,91.380954,36.153639)"
             xlink:href="#CMR17-32"
             id="use289"
             x="0"
             y="0"
             width="100%"
             height="100%" />
        </g>
      </g>
    </g>
    <g
       id="ytick_6">
      <g
         id="line2d_24">
        <defs
           id="defs296">
          <path
             d="M 0,0 H -4"
             id="m5dd722c3a9"
             style="stroke:#262626" />
        </defs>
        <g
           id="g300">
          <use
             style="fill:#262626;stroke:#262626"
             x="57.599998"
             xlink:href="#m5dd722c3a9"
             y="287.55707"
             id="use298"
             width="100%"
             height="100%" />
        </g>
      </g>
    </g>
    <g
       id="ytick_7">
      <g
         id="line2d_25">
        <g
           id="g306">
          <use
             style="fill:#262626;stroke:#262626"
             x="57.599998"
             xlink:href="#m5dd722c3a9"
             y="275.84207"
             id="use304"
             width="100%"
             height="100%" />
        </g>
      </g>
    </g>
    <g
       id="ytick_8">
      <g
         id="line2d_26">
        <g
           id="g312">
          <use
             style="fill:#262626;stroke:#262626"
             x="57.599998"
             xlink:href="#m5dd722c3a9"
             y="267.53015"
             id="use310"
             width="100%"
             height="100%" />
        </g>
      </g>
    </g>
    <g
       id="ytick_9">
      <g
         id="line2d_27">
        <g
           id="g318">
          <use
             style="fill:#262626;stroke:#262626"
             x="57.599998"
             xlink:href="#m5dd722c3a9"
             y="261.08292"
             id="use316"
             width="100%"
             height="100%" />
        </g>
      </g>
    </g>
    <g
       id="ytick_10">
      <g
         id="line2d_28">
        <g
           id="g324">
          <use
             style="fill:#262626;stroke:#262626"
             x="57.599998"
             xlink:href="#m5dd722c3a9"
             y="255.81516"
             id="use322"
             width="100%"
             height="100%" />
        </g>
      </g>
    </g>
    <g
       id="ytick_11">
      <g
         id="line2d_29">
        <g
           id="g330">
          <use
             style="fill:#262626;stroke:#262626"
             x="57.599998"
             xlink:href="#m5dd722c3a9"
             y="251.36131"
             id="use328"
             width="100%"
             height="100%" />
        </g>
      </g>
    </g>
    <g
       id="ytick_12">
      <g
         id="line2d_30">
        <g
           id="g336">
          <use
             style="fill:#262626;stroke:#262626"
             x="57.599998"
             xlink:href="#m5dd722c3a9"
             y="247.50323"
             id="use334"
             width="100%"
             height="100%" />
        </g>
      </g>
    </g>
    <g
       id="ytick_13">
      <g
         id="line2d_31">
        <g
           id="g342">
          <use
             style="fill:#262626;stroke:#262626"
             x="57.599998"
             xlink:href="#m5dd722c3a9"
             y="244.10016"
             id="use340"
             width="100%"
             height="100%" />
        </g>
      </g>
    </g>
    <g
       id="ytick_14">
      <g
         id="line2d_32">
        <g
           id="g348">
          <use
             style="fill:#262626;stroke:#262626"
             x="57.599998"
             xlink:href="#m5dd722c3a9"
             y="221.02908"
             id="use346"
             width="100%"
             height="100%" />
        </g>
      </g>
    </g>
    <g
       id="ytick_15">
      <g
         id="line2d_33">
        <g
           id="g354">
          <use
             style="fill:#262626;stroke:#262626"
             x="57.599998"
             xlink:href="#m5dd722c3a9"
             y="209.31407"
             id="use352"
             width="100%"
             height="100%" />
        </g>
      </g>
    </g>
    <g
       id="ytick_16">
      <g
         id="line2d_34">
        <g
           id="g360">
          <use
             style="fill:#262626;stroke:#262626"
             x="57.599998"
             xlink:href="#m5dd722c3a9"
             y="201.00215"
             id="use358"
             width="100%"
             height="100%" />
        </g>
      </g>
    </g>
    <g
       id="ytick_17">
      <g
         id="line2d_35">
        <g
           id="g366">
          <use
             style="fill:#262626;stroke:#262626"
             x="57.599998"
             xlink:href="#m5dd722c3a9"
             y="194.55492"
             id="use364"
             width="100%"
             height="100%" />
        </g>
      </g>
    </g>
    <g
       id="ytick_18">
      <g
         id="line2d_36">
        <g
           id="g372">
          <use
             style="fill:#262626;stroke:#262626"
             x="57.599998"
             xlink:href="#m5dd722c3a9"
             y="189.28716"
             id="use370"
             width="100%"
             height="100%" />
        </g>
      </g>
    </g>
    <g
       id="ytick_19">
      <g
         id="line2d_37">
        <g
           id="g378">
          <use
             style="fill:#262626;stroke:#262626"
             x="57.599998"
             xlink:href="#m5dd722c3a9"
             y="184.83331"
             id="use376"
             width="100%"
             height="100%" />
        </g>
      </g>
    </g>
    <g
       id="ytick_20">
      <g
         id="line2d_38">
        <g
           id="g384">
          <use
             style="fill:#262626;stroke:#262626"
             x="57.599998"
             xlink:href="#m5dd722c3a9"
             y="180.97523"
             id="use382"
             width="100%"
             height="100%" />
        </g>
      </g>
    </g>
    <g
       id="ytick_21">
      <g
         id="line2d_39">
        <g
           id="g390">
          <use
             style="fill:#262626;stroke:#262626"
             x="57.599998"
             xlink:href="#m5dd722c3a9"
             y="177.57216"
             id="use388"
             width="100%"
             height="100%" />
        </g>
      </g>
    </g>
    <g
       id="ytick_22">
      <g
         id="line2d_40">
        <g
           id="g396">
          <use
             style="fill:#262626;stroke:#262626"
             x="57.599998"
             xlink:href="#m5dd722c3a9"
             y="154.50108"
             id="use394"
             width="100%"
             height="100%" />
        </g>
      </g>
    </g>
    <g
       id="ytick_23">
      <g
         id="line2d_41">
        <g
           id="g402">
          <use
             style="fill:#262626;stroke:#262626"
             x="57.599998"
             xlink:href="#m5dd722c3a9"
             y="142.78607"
             id="use400"
             width="100%"
             height="100%" />
        </g>
      </g>
    </g>
    <g
       id="ytick_24">
      <g
         id="line2d_42">
        <g
           id="g408">
          <use
             style="fill:#262626;stroke:#262626"
             x="57.599998"
             xlink:href="#m5dd722c3a9"
             y="134.47415"
             id="use406"
             width="100%"
             height="100%" />
        </g>
      </g>
    </g>
    <g
       id="ytick_25">
      <g
         id="line2d_43">
        <g
           id="g414">
          <use
             style="fill:#262626;stroke:#262626"
             x="57.599998"
             xlink:href="#m5dd722c3a9"
             y="128.02692"
             id="use412"
             width="100%"
             height="100%" />
        </g>
      </g>
    </g>
    <g
       id="ytick_26">
      <g
         id="line2d_44">
        <g
           id="g420">
          <use
             style="fill:#262626;stroke:#262626"
             x="57.599998"
             xlink:href="#m5dd722c3a9"
             y="122.75916"
             id="use418"
             width="100%"
             height="100%" />
        </g>
      </g>
    </g>
    <g
       id="ytick_27">
      <g
         id="line2d_45">
        <g
           id="g426">
          <use
             style="fill:#262626;stroke:#262626"
             x="57.599998"
             xlink:href="#m5dd722c3a9"
             y="118.30532"
             id="use424"
             width="100%"
             height="100%" />
        </g>
      </g>
    </g>
    <g
       id="ytick_28">
      <g
         id="line2d_46">
        <g
           id="g432">
          <use
             style="fill:#262626;stroke:#262626"
             x="57.599998"
             xlink:href="#m5dd722c3a9"
             y="114.44723"
             id="use430"
             width="100%"
             height="100%" />
        </g>
      </g>
    </g>
    <g
       id="ytick_29">
      <g
         id="line2d_47">
        <g
           id="g438">
          <use
             style="fill:#262626;stroke:#262626"
             x="57.599998"
             xlink:href="#m5dd722c3a9"
             y="111.04415"
             id="use436"
             width="100%"
             height="100%" />
        </g>
      </g>
    </g>
    <g
       id="ytick_30">
      <g
         id="line2d_48">
        <g
           id="g444">
          <use
             style="fill:#262626;stroke:#262626"
             x="57.599998"
             xlink:href="#m5dd722c3a9"
             y="87.973076"
             id="use442"
             width="100%"
             height="100%" />
        </g>
      </g>
    </g>
    <g
       id="ytick_31">
      <g
         id="line2d_49">
        <g
           id="g450">
          <use
             style="fill:#262626;stroke:#262626"
             x="57.599998"
             xlink:href="#m5dd722c3a9"
             y="76.25808"
             id="use448"
             width="100%"
             height="100%" />
        </g>
      </g>
    </g>
    <g
       id="ytick_32">
      <g
         id="line2d_50">
        <g
           id="g456">
          <use
             style="fill:#262626;stroke:#262626"
             x="57.599998"
             xlink:href="#m5dd722c3a9"
             y="67.946152"
             id="use454"
             width="100%"
             height="100%" />
        </g>
      </g>
    </g>
    <g
       id="ytick_33">
      <g
         id="line2d_51">
        <g
           id="g462">
          <use
             style="fill:#262626;stroke:#262626"
             x="57.599998"
             xlink:href="#m5dd722c3a9"
             y="61.498924"
             id="use460"
             width="100%"
             height="100%" />
        </g>
      </g>
    </g>
    <g
       id="ytick_34">
      <g
         id="line2d_52">
        <g
           id="g468">
          <use
             style="fill:#262626;stroke:#262626"
             x="57.599998"
             xlink:href="#m5dd722c3a9"
             y="56.231155"
             id="use466"
             width="100%"
             height="100%" />
        </g>
      </g>
    </g>
    <g
       id="ytick_35">
      <g
         id="line2d_53">
        <g
           id="g474">
          <use
             style="fill:#262626;stroke:#262626"
             x="57.599998"
             xlink:href="#m5dd722c3a9"
             y="51.777317"
             id="use472"
             width="100%"
             height="100%" />
        </g>
      </g>
    </g>
    <g
       id="ytick_36">
      <g
         id="line2d_54">
        <g
           id="g480">
          <use
             style="fill:#262626;stroke:#262626"
             x="57.599998"
             xlink:href="#m5dd722c3a9"
             y="47.919228"
             id="use478"
             width="100%"
             height="100%" />
        </g>
      </g>
    </g>
    <g
       id="ytick_37">
      <g
         id="line2d_55">
        <g
           id="g486">
          <use
             style="fill:#262626;stroke:#262626"
             x="57.599998"
             xlink:href="#m5dd722c3a9"
             y="44.516155"
             id="use484"
             width="100%"
             height="100%" />
        </g>
      </g>
    </g>
    <g
       id="text_16">
      <!-- $\Vert \mathbf{A} \Vert_p$ -->
      <g
         style="fill:#262626"
         transform="matrix(0,-0.138,-0.138,0,15.849312,189.72478)"
         id="g502">
        <defs
           id="defs492">
          <path
             d="m 1103,4582 c 0,103 0,218 -128,218 -128,0 -128,-141 -128,-237 v -5926 c 0,-103 0,-237 128,-237 128,0 128,115 128,218 z m 1248,-19 c 0,103 0,237 -128,237 -128,0 -128,-115 -128,-218 v -5964 c 0,-103 0,-218 128,-218 128,0 128,141 128,237 z"
             id="CMSY10-6b"
             transform="scale(0.015625)" />
          <path
             d="m 2931,4301 c -45,115 -57,147 -211,147 -160,0 -173,-32 -218,-147 L 915,413 C 870,311 870,299 691,279 531,260 506,260 365,260 H 250 V -13 C 416,0 800,0 986,0 c 172,0 640,0 787,-13 v 273 c -141,0 -384,0 -563,71 19,59 19,71 32,97 l 339,834 H 3296 L 3699,260 H 3098 V 0 c 204,0 825,0 1068,0 205,0 858,0 1018,-13 V 260 H 4576 Z M 2438,3367 3181,1536 H 1690 Z"
             id="CMBX12-41"
             transform="scale(0.015625)" />
        </defs>
        <use
           transform="scale(0.996264)"
           xlink:href="#CMSY10-6b"
           id="use494"
           x="0"
           y="0"
           width="100%"
           height="100%" />
        <use
           transform="matrix(0.996264,0,0,0.996264,49.813383,0)"
           xlink:href="#CMBX12-41"
           id="use496"
           x="0"
           y="0"
           width="100%"
           height="100%" />
        <use
           transform="matrix(0.996264,0,0,0.996264,134.44978,0)"
           xlink:href="#CMSY10-6b"
           id="use498"
           x="0"
           y="0"
           width="100%"
           height="100%" />
        <use
           transform="matrix(0.697382,0,0,0.697382,184.26316,-14.943915)"
           xlink:href="#CMMI12-70"
           id="use500"
           x="0"
           y="0"
           width="100%"
           height="100%" />
      </g>
    </g>
  </g>
  <g
     id="line2d_56">
    <path
       clip-path="url(#pf10f45b41d)"
       d="m 57.6,302.49467 32.302312,-0.76736 25.124018,-0.8131 19.7403,-0.85113 16.15116,-0.91221 12.56201,-0.91176 10.76744,-0.98914 8.97286,-1.03548 7.17829,-1.02422 7.17829,-1.27028 5.38372,-1.17776 5.38372,-1.44936 3.58915,-1.1717 3.58914,-1.39414 3.58915,-1.69268 3.58914,-2.10827 1.79458,-1.26508 1.79457,-1.44874 1.79457,-1.67804 1.79457,-1.96889 1.79458,-2.34373 1.79457,-2.83372 1.79457,-3.48034 1.79458,-4.33357 1.79457,-5.44074 1.79457,-6.81629 1.79457,-8.38853 1.79458,-9.95015 3.58914,-22.99723 3.58915,-22.91771 1.79457,-10.25207 1.79457,-9.23744 1.79458,-8.24405 1.79457,-7.33424 1.79457,-6.52907 1.79458,-5.82831 1.79457,-5.22257 1.79457,-4.69971 1.79457,-4.24758 1.79458,-3.85535 1.79457,-3.51364 1.79457,-3.21459 1.79458,-2.9517 1.79457,-2.71951 3.58914,-4.84363 3.58915,-4.18468 3.58915,-3.651919 3.58914,-3.215257 3.58915,-2.852974 3.58914,-2.549111 3.58915,-2.291748 3.58914,-2.071849 3.58915,-1.882463 5.38372,-2.522315 5.38372,-2.219332 5.38372,-1.968419 5.38371,-1.758242 7.1783,-2.072314 7.17829,-1.81521 7.17829,-1.603671 8.97286,-1.760208 8.97287,-1.537432 10.76744,-1.606782 12.56201,-1.610968 12.56201,-1.384711 8.97286,-0.875929 v 0"
       style="fill:none;stroke:#000000;stroke-width:1.5;stroke-linecap:round"
       id="path506" />
  </g>
  <g
     id="line2d_57">
    <defs
       id="defs510">
      <path
         d="M 0,3 C 0.795609,3 1.55874,2.683901 2.12132,2.12132 2.683901,1.55874 3,0.795609 3,0 3,-0.795609 2.683901,-1.55874 2.12132,-2.12132 1.55874,-2.683901 0.795609,-3 0,-3 -0.795609,-3 -1.55874,-2.683901 -2.12132,-2.12132 -2.683901,-1.55874 -3,-0.795609 -3,0 -3,0.795609 -2.683901,1.55874 -2.12132,2.12132 -1.55874,2.683901 -0.795609,3 0,3 Z"
         id="m9ada1bcb17"
         style="stroke:#000000" />
    </defs>
    <g
       clip-path="url(#pf10f45b41d)"
       id="g514">
      <use
         style="stroke:#000000"
         x="236.16"
         xlink:href="#m9ada1bcb17"
         y="267.86234"
         id="use512"
         width="100%"
         height="100%" />
    </g>
  </g>
  <g
     id="patch_3">
    <path
       d="M 57.6,307.584 V 41.472"
       style="fill:none;stroke:#262626;stroke-width:1.25;stroke-linecap:square;stroke-linejoin:miter"
       id="path517" />
  </g>
  <g
     id="patch_4">
    <path
       d="M 414.72,307.584 V 41.472"
       style="fill:none;stroke:#262626;stroke-width:1.25;stroke-linecap:square;stroke-linejoin:miter"
       id="path520" />
  </g>
  <g
     id="patch_5">
    <path
       d="M 57.6,307.584 H 414.72"
       style="fill:none;stroke:#262626;stroke-width:1.25;stroke-linecap:square;stroke-linejoin:miter"
       id="path523" />
  </g>
  <g
     id="patch_6">
    <path
       d="M 57.6,41.472 H 414.72"
       style="fill:none;stroke:#262626;stroke-width:1.25;stroke-linecap:square;stroke-linejoin:miter"
       id="path526" />
  </g>
  <g
     id="text_17">
    <!-- Schatten Norm -->
    <g
       style="fill:#262626"
       transform="matrix(0.138,0,0,-0.138,193.69785,35.472)"
       id="g566">
      <defs
         id="defs540">
        <path
           d="m 2797,4169 c -282,165 -589,311 -1107,311 -826,0 -1357,-601 -1357,-1214 0,-241 70,-513 320,-791 249,-279 531,-354 889,-442 148,-39 397,-109 442,-127 358,-139 531,-462 531,-766 0,-398 -313,-822 -870,-822 -192,0 -755,0 -1287,501 L 269,318 c 525,-382 1094,-446 1382,-446 787,0 1351,616 1351,1314 0,254 -77,577 -346,875 -262,286 -493,349 -1018,488 -300,77 -492,128 -652,324 -109,140 -167,273 -167,444 0,356 307,743 871,743 281,0 646,-58 1017,-400 z"
           id="CMSS17-53"
           transform="scale(0.015625)" />
        <path
           d="m 2464,2541 c 0,44 -294,173 -371,198 -211,77 -480,77 -551,77 C 710,2816 211,2093 211,1363 211,595 768,-64 1517,-64 c 429,0 736,140 985,306 l -38,422 C 2189,453 1869,337 1523,337 c -499,0 -825,437 -825,1032 0,462 211,1045 851,1045 352,0 550,-71 845,-269 z"
           id="CMSS17-63"
           transform="scale(0.015625)" />
        <path
           d="m 2618,1891 c 0,401 -96,929 -820,929 -403,0 -665,-197 -851,-413 V 4448 H 474 V 32 h 486 v 1541 c 0,400 154,859 589,859 563,0 582,-376 582,-593 V 32 h 487 z"
           id="CMSS17-68"
           transform="scale(0.015625)" />
        <path
           d="m 2406,1791 c 0,601 -428,1017 -1004,1017 -282,0 -589,-51 -941,-255 l 38,-418 c 160,113 435,297 896,297 327,0 525,-252 525,-650 V 1536 C 896,1536 256,1238 256,726 256,461 416,-64 947,-64 c 96,0 615,0 986,281 V -19 h 473 z M 1920,816 c 0,-115 0,-268 -192,-382 -166,-109 -378,-109 -467,-109 -320,0 -538,186 -538,419 0,467 999,467 1197,467 z"
           id="CMSS17-61"
           transform="scale(0.015625)" />
        <path
           d="m 1069,2368 h 832 v 369 h -832 v 783 H 614 V 2737 H 109 V 2368 H 602 V 749 c 0,-365 83,-813 505,-813 320,0 615,89 896,236 L 1901,548 C 1747,414 1562,337 1363,337 c -281,0 -294,359 -294,519 z"
           id="CMSS17-74"
           transform="scale(0.015625)" />
        <path
           d="m 2502,1377 c 0,213 -12,626 -217,968 -224,368 -589,471 -864,471 C 755,2816 192,2188 192,1375 192,582 774,-64 1510,-64 c 288,0 640,83 960,312 0,26 -12,166 -19,172 0,13 -19,210 -19,236 C 2125,407 1773,325 1517,325 1107,325 666,667 646,1377 Z M 698,1728 c 83,356 364,693 723,693 96,0 544,0 659,-693 z"
           id="CMSS17-65"
           transform="scale(0.015625)" />
        <path
           d="m 2618,1877 c 0,406 -96,939 -820,939 -409,0 -678,-210 -857,-427 v 369 H 474 V 0 h 486 v 1559 c 0,405 154,869 589,869 563,0 582,-380 582,-599 V 0 h 487 z"
           id="CMSS17-6e"
           transform="scale(0.015625)" />
        <path
           d="m 1466,4180 -116,236 H 563 V 0 h 499 v 3926 l 7,6 c 45,-115 70,-172 333,-738 L 2771,236 2886,0 h 788 V 4416 H 3174 V 490 l -6,-7 c -45,115 -70,172 -333,738 z"
           id="CMSS17-4e"
           transform="scale(0.015625)" />
        <path
           d="m 2829,1356 c 0,820 -608,1460 -1325,1460 C 768,2816 173,2157 173,1356 173,544 787,-64 1498,-64 c 729,0 1331,627 1331,1420 z M 1504,337 c -454,0 -845,372 -845,1071 0,743 455,1019 839,1019 416,0 844,-301 844,-1019 0,-725 -416,-1071 -838,-1071 z"
           id="CMSS17-6f"
           transform="scale(0.015625)" />
        <path
           d="m 954,1363 c 0,602 441,1005 1004,1005 v 421 c -409,0 -793,-204 -1024,-536 v 505 H 480 V 0 h 474 z"
           id="CMSS17-72"
           transform="scale(0.015625)" />
        <path
           d="m 4288,1877 c 0,431 -109,939 -826,939 -480,0 -768,-300 -896,-485 -115,339 -384,485 -768,485 -435,0 -710,-248 -857,-427 v 369 H 474 V 0 h 486 v 1559 c 0,380 141,869 595,869 583,0 583,-412 583,-599 V 0 h 486 v 1559 c 0,380 141,869 595,869 583,0 583,-412 583,-599 V 0 h 486 z"
           id="CMSS17-6d"
           transform="scale(0.015625)" />
      </defs>
      <use
         transform="scale(0.996264)"
         xlink:href="#CMSS17-53"
         id="use542"
         x="0"
         y="0"
         width="100%"
         height="100%" />
      <use
         transform="matrix(0.996264,0,0,0.996264,52.048516,0)"
         xlink:href="#CMSS17-63"
         id="use544"
         x="0"
         y="0"
         width="100%"
         height="100%" />
      <use
         transform="matrix(0.996264,0,0,0.996264,93.687338,0)"
         xlink:href="#CMSS17-68"
         id="use546"
         x="0"
         y="0"
         width="100%"
         height="100%" />
      <use
         transform="matrix(0.996264,0,0,0.996264,141.89228,0)"
         xlink:href="#CMSS17-61"
         id="use548"
         x="0"
         y="0"
         width="100%"
         height="100%" />
      <use
         transform="matrix(0.996264,0,0,0.996264,186.8142,0)"
         xlink:href="#CMSS17-74"
         id="use550"
         x="0"
         y="0"
         width="100%"
         height="100%" />
      <use
         transform="matrix(0.996264,0,0,0.996264,220.64577,0)"
         xlink:href="#CMSS17-74"
         id="use552"
         x="0"
         y="0"
         width="100%"
         height="100%" />
      <use
         transform="matrix(0.996264,0,0,0.996264,254.47733,0)"
         xlink:href="#CMSS17-65"
         id="use554"
         x="0"
         y="0"
         width="100%"
         height="100%" />
      <use
         transform="matrix(0.996264,0,0,0.996264,296.11616,0)"
         xlink:href="#CMSS17-6e"
         id="use556"
         x="0"
         y="0"
         width="100%"
         height="100%" />
      <use
         transform="matrix(0.996264,0,0,0.996264,375.55021,0)"
         xlink:href="#CMSS17-4e"
         id="use558"
         x="0"
         y="0"
         width="100%"
         height="100%" />
      <use
         transform="matrix(0.996264,0,0,0.996264,441.61173,0)"
         xlink:href="#CMSS17-6f"
         id="use560"
         x="0"
         y="0"
         width="100%"
         height="100%" />
      <use
         transform="matrix(0.996264,0,0,0.996264,485.8529,0)"
         xlink:href="#CMSS17-72"
         id="use562"
         x="0"
         y="0"
         width="100%"
         height="100%" />
      <use
         transform="matrix(0.996264,0,0,0.996264,517.76267,0)"
         xlink:href="#CMSS17-6d"
         id="use564"
         x="0"
         y="0"
         width="100%"
         height="100%" />
    </g>
  </g>
  <defs
     id="defs574">
    <clipPath
       id="pf10f45b41d">
      <rect
         height="266.112"
         width="357.12"
         x="57.6"
         y="41.472"
         id="rect571" />
    </clipPath>
  </defs>
</svg>
