<?xml version="1.0" encoding="UTF-8" standalone="no"?>
<!-- Created with Inkscape (http://www.inkscape.org/) -->

<svg
   version="1.1"
   id="svg2"
   width="749.33331"
   height="569.33331"
   viewBox="0 0 749.33331 569.33331"
   xmlns="http://www.w3.org/2000/svg"
   xmlns:svg="http://www.w3.org/2000/svg">
  <defs
     id="defs6" />
  <g
     id="g8">
    <path
       style="fill:#000000;stroke-width:1.33333"
       d="m 29.938613,525.05974 c 0,-1.90782 14.07824,-22.41068 25.85499,-37.65393 18.91842,-24.48708 51.870437,-55.76514 78.811667,-74.80806 23.30056,-16.46958 21.46325,-15.32292 49.25217,-30.73804 14.28855,-7.92616 27.99609,-14.5074 49.41449,-23.72477 2.40264,-1.03398 13.32728,-5.1839 32,-12.1558 35.55169,-13.27406 97.26008,-26.76856 139.86054,-30.58499 7.25664,-0.65009 13.79664,-1.78475 14.53335,-2.52145 1.33427,-1.33427 0.73687,-6.38767 -3.95707,-33.47277 C 406.25633,224.85721 380.58557,172.34333 345.57046,135.9202 317.04397,106.24662 290.6823,88.276044 251.70847,71.935084 212.94504,55.682354 155.15946,43.670552 121.9386,44.96003 l -11.33333,0.439906 0.34867,19.333328 c 0.56292,31.21328 3.82542,52.400226 11.90828,77.333336 3.91294,12.07022 11.82792,30.92613 15.67106,37.33333 1.53954,2.56667 3.55742,6.16667 4.48418,8 3.2494,6.428 18.64923,26.09078 27.74095,35.42012 23.8516,24.47497 53.22559,42.9816 87.84686,55.34653 8.79999,3.14291 16.59999,6.29445 17.33333,7.00343 0.86464,0.83593 0.39594,0.95333 -1.33334,0.33396 -1.46666,-0.52531 -5.36666,-1.49822 -8.66666,-2.16203 -6.69711,-1.34716 -26.49373,-7.89123 -34.27245,-11.32927 -15.13396,-6.68892 -24.67116,-11.47288 -32.82079,-16.46326 -54.8632,-33.59523 -89.63808,-88.38073 -100.807947,-158.816146 -3.70889,-23.38773 -5.18241,-61.980246 -2.55815,-66.999994 2.12844,-4.07133 42.068847,-3.18315 79.126007,1.759573 21.51988,2.870347 37.55372,6.631863 64,15.01432 16.35961,5.185371 23.49409,8.051611 44.66666,17.944651 43.96228,20.54167 90.75518,64.052496 113.73277,105.755486 1.7756,3.22262 4.69789,8.5593 6.49399,11.8593 10.8661,19.96457 23.97073,58.42763 28.84649,84.66666 5.41552,29.1438 8.63201,61.41233 6.30264,63.22941 -0.75675,0.59031 -9.77589,1.45575 -20.04256,1.9232 -35.10692,1.59844 -88.81833,10.37944 -124,20.27211 -19.25597,5.41456 -30.47257,8.76482 -33.33333,9.95629 -1.46666,0.61085 -6.56666,2.37835 -11.33333,3.92779 -4.76667,1.54942 -9.70852,3.38881 -10.98191,4.0875 -1.27338,0.6987 -2.9056,1.27036 -3.62716,1.27036 -0.72154,0 -4.47969,1.4306 -8.35141,3.17911 -3.87173,1.74849 -11.53952,5.12738 -17.03952,7.50862 -24.19796,10.47656 -49.39059,24.43243 -75.76952,41.97376 -29.77596,19.80028 -62.874917,50.11013 -85.183197,78.00517 -6.15786,7.7 -12.06262,15.05686 -13.12169,16.34858 -1.05907,1.29172 -1.92558,2.68457 -1.92558,3.09524 0,0.41066 -0.9,1.64666 -2,2.74666 -1.1,1.1 -2,1.4612 -2,0.80268 z M 244.60527,522.5671 c -22.43526,-1.02272 -68.41402,-7.23344 -82.66667,-11.16642 -5.17333,-1.42756 1.01171,-1.16852 36,1.50781 41.15167,3.14777 98.02048,-1.42279 133.33333,-10.71605 18.55716,-4.88367 31.89944,-8.98094 39.33333,-12.0788 1.46667,-0.6112 4.76667,-1.89314 7.33333,-2.84875 2.56667,-0.95563 12.16667,-5.43832 21.33334,-9.96155 59.87078,-29.54286 105.91562,-73.49502 151.45343,-144.57008 4.46355,-6.96667 11.36252,-17.76219 15.33106,-23.99004 17.51624,-27.48843 35.41782,-43.8804 61.88217,-56.66371 17.75528,-8.5765 33.83338,-12.72309 53.03916,-13.67896 7.90486,-0.39341 14.71205,-1.26473 15.12706,-1.93626 2.08348,-3.37114 -23.0179,-31.11839 -39.10196,-43.2236 -11.62116,-8.74633 -29.90429,-18.11097 -40.3976,-20.69168 -4.09177,-1.00633 -14.11114,-1.78279 -22.66666,-1.75656 -15.91735,0.0488 -29.03964,2.97731 -39.70723,8.86152 -5.39508,2.97592 -6.4609,3.05695 -3.68406,0.28011 3.44596,-3.44595 17.39886,-9.69372 28.4597,-12.74355 14.40147,-3.97095 35.77463,-3.89741 49.59825,0.17064 20.79839,6.1206 43.00966,19.81733 61.12434,37.69279 8.1965,8.08825 28.20899,31.96579 28.20899,33.65705 0,0.45938 2.4,4.3694 5.33334,8.68892 5.81418,8.56177 6.5985,11.21817 3,10.16064 -13.89503,-4.08347 -43.14887,-4.14611 -60.33333,-0.1292 -25.88878,6.05158 -50.83394,21.13673 -67.45811,40.7941 -9.62727,11.38383 -12.17292,15.04755 -22.58732,32.50777 -40.15985,67.32992 -85.06617,115.07923 -137.17105,145.85522 -34.65978,20.47199 -67.61046,32.79447 -106.78351,39.9336 -25.69232,4.68231 -62.0385,7.19812 -87.33333,6.04503 z"
       id="path827" />
  </g>
</svg>
