<?xml version="1.0" encoding="utf-8" standalone="no"?>
<!DOCTYPE svg PUBLIC "-//W3C//DTD SVG 1.1//EN"
  "http://www.w3.org/Graphics/SVG/1.1/DTD/svg11.dtd">
<svg height="288pt" version="1.1" viewBox="0 0 648 288" width="648pt" xmlns="http://www.w3.org/2000/svg" xmlns:xlink="http://www.w3.org/1999/xlink">
 <metadata>
  <rdf:RDF xmlns:cc="http://creativecommons.org/ns#" xmlns:dc="http://purl.org/dc/elements/1.1/" xmlns:rdf="http://www.w3.org/1999/02/22-rdf-syntax-ns#">
   <cc:Work>
    <dc:type rdf:resource="http://purl.org/dc/dcmitype/StillImage"/>
    <dc:date>2022-08-03T10:20:11.415415</dc:date>
    <dc:format>image/svg+xml</dc:format>
    <dc:creator>
     <cc:Agent>
      <dc:title>Matplotlib v3.4.2, https://matplotlib.org/</dc:title>
     </cc:Agent>
    </dc:creator>
   </cc:Work>
  </rdf:RDF>
 </metadata>
 <defs>
  <style type="text/css">*{stroke-linecap:butt;stroke-linejoin:round;}</style>
 </defs>
 <g id="figure_1">
  <g id="patch_1">
   <path d="M 0 288 
L 648 288 
L 648 0 
L 0 0 
z
" style="fill:#ffffff;"/>
  </g>
  <g id="axes_1">
   <g id="patch_2">
    <path d="M 68.866411 234.506392 
L 306.781618 234.506392 
L 306.781618 32.311639 
L 68.866411 32.311639 
z
" style="fill:#ffffff;"/>
   </g>
   <g id="matplotlib.axis_1">
    <g id="xtick_1">
     <g id="line2d_1">
      <path clip-path="url(#pf2f02bbe71)" d="M 68.866411 234.506392 
L 68.866411 32.311639 
" style="fill:none;stroke:#cccccc;stroke-linecap:round;"/>
     </g>
     <g id="line2d_2">
      <defs>
       <path d="M 0 0 
L 0 6 
" id="meb90af2817" style="stroke:#262626;stroke-width:1.25;"/>
      </defs>
      <g>
       <use style="fill:#262626;stroke:#262626;stroke-width:1.25;" x="68.866411" xlink:href="#meb90af2817" y="234.506392"/>
      </g>
     </g>
     <g id="text_1">
      <!-- $\mathdefault{10^{-4}}$ -->
      <g style="fill:#262626;" transform="translate(56.383573 253.138787)scale(0.132 -0.132)">
       <defs>
        <path d="M 1702 4058 
C 1702 4192 1696 4192 1606 4192 
C 1357 3916 979 3827 621 3827 
C 602 3827 570 3827 563 3808 
C 557 3795 557 3782 557 3648 
C 755 3648 1088 3686 1344 3839 
L 1344 461 
C 1344 236 1331 160 781 160 
L 589 160 
L 589 0 
C 896 0 1216 0 1523 0 
C 1830 0 2150 0 2458 0 
L 2458 160 
L 2266 160 
C 1715 160 1702 230 1702 458 
L 1702 4058 
z
" id="CMR17-31" transform="scale(0.015625)"/>
        <path d="M 2688 2025 
C 2688 2416 2682 3080 2413 3591 
C 2176 4039 1798 4198 1466 4198 
C 1158 4198 768 4058 525 3597 
C 269 3118 243 2524 243 2025 
C 243 1661 250 1106 448 619 
C 723 -39 1216 -128 1466 -128 
C 1760 -128 2208 -7 2470 600 
C 2662 1042 2688 1559 2688 2025 
z
M 1466 -26 
C 1056 -26 813 325 723 812 
C 653 1188 653 1738 653 2096 
C 653 2588 653 2997 736 3387 
C 858 3929 1216 4096 1466 4096 
C 1728 4096 2067 3923 2189 3400 
C 2272 3036 2278 2607 2278 2096 
C 2278 1680 2278 1169 2202 792 
C 2067 95 1690 -26 1466 -26 
z
" id="CMR17-30" transform="scale(0.015625)"/>
        <path d="M 4218 1472 
C 4326 1472 4442 1472 4442 1600 
C 4442 1728 4326 1728 4218 1728 
L 755 1728 
C 646 1728 531 1728 531 1600 
C 531 1472 646 1472 755 1472 
L 4218 1472 
z
" id="CMSY10-0" transform="scale(0.015625)"/>
        <path d="M 2150 4122 
C 2150 4256 2144 4256 2029 4256 
L 128 1254 
L 128 1088 
L 1779 1088 
L 1779 457 
C 1779 224 1766 160 1318 160 
L 1197 160 
L 1197 0 
C 1402 0 1747 0 1965 0 
C 2182 0 2528 0 2733 0 
L 2733 160 
L 2611 160 
C 2163 160 2150 224 2150 457 
L 2150 1088 
L 2803 1088 
L 2803 1254 
L 2150 1254 
L 2150 4122 
z
M 1798 3703 
L 1798 1254 
L 256 1254 
L 1798 3703 
z
" id="CMR17-34" transform="scale(0.015625)"/>
       </defs>
       <use transform="scale(0.996264)" xlink:href="#CMR17-31"/>
       <use transform="translate(45.690477 0)scale(0.996264)" xlink:href="#CMR17-30"/>
       <use transform="translate(91.380954 36.153639)scale(0.697382)" xlink:href="#CMSY10-0"/>
       <use transform="translate(145.621947 36.153639)scale(0.697382)" xlink:href="#CMR17-34"/>
      </g>
     </g>
    </g>
    <g id="xtick_2">
     <g id="line2d_3">
      <path clip-path="url(#pf2f02bbe71)" d="M 136.842184 234.506392 
L 136.842184 32.311639 
" style="fill:none;stroke:#cccccc;stroke-linecap:round;"/>
     </g>
     <g id="line2d_4">
      <g>
       <use style="fill:#262626;stroke:#262626;stroke-width:1.25;" x="136.842184" xlink:href="#meb90af2817" y="234.506392"/>
      </g>
     </g>
     <g id="text_2">
      <!-- $\mathdefault{10^{-2}}$ -->
      <g style="fill:#262626;" transform="translate(124.359347 253.138787)scale(0.132 -0.132)">
       <defs>
        <path d="M 2669 989 
L 2554 989 
C 2490 536 2438 459 2413 420 
C 2381 369 1920 369 1830 369 
L 602 369 
C 832 619 1280 1072 1824 1597 
C 2214 1967 2669 2402 2669 3035 
C 2669 3790 2067 4224 1395 4224 
C 691 4224 262 3604 262 3030 
C 262 2780 448 2748 525 2748 
C 589 2748 781 2787 781 3010 
C 781 3207 614 3264 525 3264 
C 486 3264 448 3258 422 3245 
C 544 3790 915 4058 1306 4058 
C 1862 4058 2227 3617 2227 3035 
C 2227 2479 1901 2000 1536 1584 
L 262 146 
L 262 0 
L 2515 0 
L 2669 989 
z
" id="CMR17-32" transform="scale(0.015625)"/>
       </defs>
       <use transform="scale(0.996264)" xlink:href="#CMR17-31"/>
       <use transform="translate(45.690477 0)scale(0.996264)" xlink:href="#CMR17-30"/>
       <use transform="translate(91.380954 36.153639)scale(0.697382)" xlink:href="#CMSY10-0"/>
       <use transform="translate(145.621947 36.153639)scale(0.697382)" xlink:href="#CMR17-32"/>
      </g>
     </g>
    </g>
    <g id="xtick_3">
     <g id="line2d_5">
      <path clip-path="url(#pf2f02bbe71)" d="M 204.817958 234.506392 
L 204.817958 32.311639 
" style="fill:none;stroke:#cccccc;stroke-linecap:round;"/>
     </g>
     <g id="line2d_6">
      <g>
       <use style="fill:#262626;stroke:#262626;stroke-width:1.25;" x="204.817958" xlink:href="#meb90af2817" y="234.506392"/>
      </g>
     </g>
     <g id="text_3">
      <!-- $\mathdefault{10^{0}}$ -->
      <g style="fill:#262626;" transform="translate(196.014423 253.138787)scale(0.132 -0.132)">
       <use transform="scale(0.996264)" xlink:href="#CMR17-31"/>
       <use transform="translate(45.690477 0)scale(0.996264)" xlink:href="#CMR17-30"/>
       <use transform="translate(91.380954 36.153639)scale(0.697382)" xlink:href="#CMR17-30"/>
      </g>
     </g>
    </g>
    <g id="xtick_4">
     <g id="line2d_7">
      <path clip-path="url(#pf2f02bbe71)" d="M 272.793731 234.506392 
L 272.793731 32.311639 
" style="fill:none;stroke:#cccccc;stroke-linecap:round;"/>
     </g>
     <g id="line2d_8">
      <g>
       <use style="fill:#262626;stroke:#262626;stroke-width:1.25;" x="272.793731" xlink:href="#meb90af2817" y="234.506392"/>
      </g>
     </g>
     <g id="text_4">
      <!-- $\mathdefault{10^{2}}$ -->
      <g style="fill:#262626;" transform="translate(263.990197 253.138787)scale(0.132 -0.132)">
       <use transform="scale(0.996264)" xlink:href="#CMR17-31"/>
       <use transform="translate(45.690477 0)scale(0.996264)" xlink:href="#CMR17-30"/>
       <use transform="translate(91.380954 36.153639)scale(0.697382)" xlink:href="#CMR17-32"/>
      </g>
     </g>
    </g>
    <g id="text_5">
     <!-- $t$ -->
     <g style="fill:#262626;" transform="translate(185.287726 269.658473)scale(0.144 -0.144)">
      <defs>
       <path d="M 1286 2566 
L 1875 2566 
C 1997 2566 2061 2566 2061 2681 
C 2061 2752 2022 2752 1894 2752 
L 1331 2752 
L 1568 3692 
C 1594 3781 1594 3794 1594 3840 
C 1594 3943 1510 4000 1427 4000 
C 1376 4000 1229 3981 1178 3775 
L 928 2752 
L 326 2752 
C 198 2752 141 2752 141 2630 
C 141 2566 186 2566 307 2566 
L 877 2566 
L 454 881 
C 403 658 384 594 384 511 
C 384 211 595 -64 954 -64 
C 1600 -64 1946 868 1946 912 
C 1946 951 1920 970 1882 970 
C 1869 970 1843 970 1830 944 
C 1824 938 1818 931 1773 829 
C 1638 511 1344 64 973 64 
C 781 64 768 224 768 364 
C 768 370 768 492 787 568 
L 1286 2566 
z
" id="CMMI12-74" transform="scale(0.015625)"/>
      </defs>
      <use transform="scale(0.996264)" xlink:href="#CMMI12-74"/>
     </g>
    </g>
   </g>
   <g id="matplotlib.axis_2">
    <g id="ytick_1">
     <g id="line2d_9">
      <defs>
       <path d="M 0 0 
L -6 0 
" id="m425321dd4f" style="stroke:#262626;stroke-width:1.25;"/>
      </defs>
      <g>
       <use style="fill:#262626;stroke:#262626;stroke-width:1.25;" x="68.866411" xlink:href="#m425321dd4f" y="234.506392"/>
      </g>
     </g>
     <g id="text_6">
      <!-- $\mathdefault{10^{-1}}$ -->
      <g style="fill:#262626;" transform="translate(34.400736 239.072589)scale(0.132 -0.132)">
       <use transform="scale(0.996264)" xlink:href="#CMR17-31"/>
       <use transform="translate(45.690477 0)scale(0.996264)" xlink:href="#CMR17-30"/>
       <use transform="translate(91.380954 36.153639)scale(0.697382)" xlink:href="#CMSY10-0"/>
       <use transform="translate(145.621947 36.153639)scale(0.697382)" xlink:href="#CMR17-31"/>
      </g>
     </g>
    </g>
    <g id="ytick_2">
     <g id="line2d_10">
      <g>
       <use style="fill:#262626;stroke:#262626;stroke-width:1.25;" x="68.866411" xlink:href="#m425321dd4f" y="183.957704"/>
      </g>
     </g>
     <g id="text_7">
      <!-- $\mathdefault{10^{0}}$ -->
      <g style="fill:#262626;" transform="translate(41.759341 188.523901)scale(0.132 -0.132)">
       <use transform="scale(0.996264)" xlink:href="#CMR17-31"/>
       <use transform="translate(45.690477 0)scale(0.996264)" xlink:href="#CMR17-30"/>
       <use transform="translate(91.380954 36.153639)scale(0.697382)" xlink:href="#CMR17-30"/>
      </g>
     </g>
    </g>
    <g id="ytick_3">
     <g id="line2d_11">
      <g>
       <use style="fill:#262626;stroke:#262626;stroke-width:1.25;" x="68.866411" xlink:href="#m425321dd4f" y="133.409016"/>
      </g>
     </g>
     <g id="text_8">
      <!-- $\mathdefault{10^{1}}$ -->
      <g style="fill:#262626;" transform="translate(41.759341 137.975213)scale(0.132 -0.132)">
       <use transform="scale(0.996264)" xlink:href="#CMR17-31"/>
       <use transform="translate(45.690477 0)scale(0.996264)" xlink:href="#CMR17-30"/>
       <use transform="translate(91.380954 36.153639)scale(0.697382)" xlink:href="#CMR17-31"/>
      </g>
     </g>
    </g>
    <g id="ytick_4">
     <g id="line2d_12">
      <g>
       <use style="fill:#262626;stroke:#262626;stroke-width:1.25;" x="68.866411" xlink:href="#m425321dd4f" y="82.860327"/>
      </g>
     </g>
     <g id="text_9">
      <!-- $\mathdefault{10^{2}}$ -->
      <g style="fill:#262626;" transform="translate(41.759341 87.426525)scale(0.132 -0.132)">
       <use transform="scale(0.996264)" xlink:href="#CMR17-31"/>
       <use transform="translate(45.690477 0)scale(0.996264)" xlink:href="#CMR17-30"/>
       <use transform="translate(91.380954 36.153639)scale(0.697382)" xlink:href="#CMR17-32"/>
      </g>
     </g>
    </g>
    <g id="ytick_5">
     <g id="line2d_13">
      <g>
       <use style="fill:#262626;stroke:#262626;stroke-width:1.25;" x="68.866411" xlink:href="#m425321dd4f" y="32.311639"/>
      </g>
     </g>
     <g id="text_10">
      <!-- $\mathdefault{10^{3}}$ -->
      <g style="fill:#262626;" transform="translate(41.759341 36.877837)scale(0.132 -0.132)">
       <defs>
        <path d="M 1414 2157 
C 1984 2157 2234 1662 2234 1090 
C 2234 320 1824 25 1453 25 
C 1114 25 563 194 390 693 
C 422 680 454 680 486 680 
C 640 680 755 782 755 948 
C 755 1133 614 1216 486 1216 
C 378 1216 211 1165 211 926 
C 211 335 787 -128 1466 -128 
C 2176 -128 2720 430 2720 1085 
C 2720 1707 2208 2157 1600 2227 
C 2086 2328 2554 2756 2554 3329 
C 2554 3820 2048 4179 1472 4179 
C 890 4179 378 3829 378 3329 
C 378 3110 544 3072 627 3072 
C 762 3072 877 3155 877 3321 
C 877 3486 762 3569 627 3569 
C 602 3569 570 3569 544 3557 
C 730 3959 1235 4032 1459 4032 
C 1683 4032 2106 3925 2106 3320 
C 2106 3143 2080 2828 1862 2550 
C 1670 2304 1453 2304 1242 2284 
C 1210 2284 1062 2269 1037 2269 
C 992 2263 966 2257 966 2208 
C 966 2163 973 2157 1101 2157 
L 1414 2157 
z
" id="CMR17-33" transform="scale(0.015625)"/>
       </defs>
       <use transform="scale(0.996264)" xlink:href="#CMR17-31"/>
       <use transform="translate(45.690477 0)scale(0.996264)" xlink:href="#CMR17-30"/>
       <use transform="translate(91.380954 36.153639)scale(0.697382)" xlink:href="#CMR17-33"/>
      </g>
     </g>
    </g>
    <g id="ytick_6">
     <g id="line2d_14">
      <defs>
       <path d="M 0 0 
L -4 0 
" id="m8c3d8b2bf9" style="stroke:#262626;"/>
      </defs>
      <g>
       <use style="fill:#262626;stroke:#262626;" x="68.866411" xlink:href="#m8c3d8b2bf9" y="219.28972"/>
      </g>
     </g>
    </g>
    <g id="ytick_7">
     <g id="line2d_15">
      <g>
       <use style="fill:#262626;stroke:#262626;" x="68.866411" xlink:href="#m8c3d8b2bf9" y="210.388538"/>
      </g>
     </g>
    </g>
    <g id="ytick_8">
     <g id="line2d_16">
      <g>
       <use style="fill:#262626;stroke:#262626;" x="68.866411" xlink:href="#m8c3d8b2bf9" y="204.073049"/>
      </g>
     </g>
    </g>
    <g id="ytick_9">
     <g id="line2d_17">
      <g>
       <use style="fill:#262626;stroke:#262626;" x="68.866411" xlink:href="#m8c3d8b2bf9" y="199.174375"/>
      </g>
     </g>
    </g>
    <g id="ytick_10">
     <g id="line2d_18">
      <g>
       <use style="fill:#262626;stroke:#262626;" x="68.866411" xlink:href="#m8c3d8b2bf9" y="195.171867"/>
      </g>
     </g>
    </g>
    <g id="ytick_11">
     <g id="line2d_19">
      <g>
       <use style="fill:#262626;stroke:#262626;" x="68.866411" xlink:href="#m8c3d8b2bf9" y="191.787795"/>
      </g>
     </g>
    </g>
    <g id="ytick_12">
     <g id="line2d_20">
      <g>
       <use style="fill:#262626;stroke:#262626;" x="68.866411" xlink:href="#m8c3d8b2bf9" y="188.856378"/>
      </g>
     </g>
    </g>
    <g id="ytick_13">
     <g id="line2d_21">
      <g>
       <use style="fill:#262626;stroke:#262626;" x="68.866411" xlink:href="#m8c3d8b2bf9" y="186.270685"/>
      </g>
     </g>
    </g>
    <g id="ytick_14">
     <g id="line2d_22">
      <g>
       <use style="fill:#262626;stroke:#262626;" x="68.866411" xlink:href="#m8c3d8b2bf9" y="168.741032"/>
      </g>
     </g>
    </g>
    <g id="ytick_15">
     <g id="line2d_23">
      <g>
       <use style="fill:#262626;stroke:#262626;" x="68.866411" xlink:href="#m8c3d8b2bf9" y="159.83985"/>
      </g>
     </g>
    </g>
    <g id="ytick_16">
     <g id="line2d_24">
      <g>
       <use style="fill:#262626;stroke:#262626;" x="68.866411" xlink:href="#m8c3d8b2bf9" y="153.524361"/>
      </g>
     </g>
    </g>
    <g id="ytick_17">
     <g id="line2d_25">
      <g>
       <use style="fill:#262626;stroke:#262626;" x="68.866411" xlink:href="#m8c3d8b2bf9" y="148.625687"/>
      </g>
     </g>
    </g>
    <g id="ytick_18">
     <g id="line2d_26">
      <g>
       <use style="fill:#262626;stroke:#262626;" x="68.866411" xlink:href="#m8c3d8b2bf9" y="144.623179"/>
      </g>
     </g>
    </g>
    <g id="ytick_19">
     <g id="line2d_27">
      <g>
       <use style="fill:#262626;stroke:#262626;" x="68.866411" xlink:href="#m8c3d8b2bf9" y="141.239106"/>
      </g>
     </g>
    </g>
    <g id="ytick_20">
     <g id="line2d_28">
      <g>
       <use style="fill:#262626;stroke:#262626;" x="68.866411" xlink:href="#m8c3d8b2bf9" y="138.30769"/>
      </g>
     </g>
    </g>
    <g id="ytick_21">
     <g id="line2d_29">
      <g>
       <use style="fill:#262626;stroke:#262626;" x="68.866411" xlink:href="#m8c3d8b2bf9" y="135.721997"/>
      </g>
     </g>
    </g>
    <g id="ytick_22">
     <g id="line2d_30">
      <g>
       <use style="fill:#262626;stroke:#262626;" x="68.866411" xlink:href="#m8c3d8b2bf9" y="118.192344"/>
      </g>
     </g>
    </g>
    <g id="ytick_23">
     <g id="line2d_31">
      <g>
       <use style="fill:#262626;stroke:#262626;" x="68.866411" xlink:href="#m8c3d8b2bf9" y="109.291162"/>
      </g>
     </g>
    </g>
    <g id="ytick_24">
     <g id="line2d_32">
      <g>
       <use style="fill:#262626;stroke:#262626;" x="68.866411" xlink:href="#m8c3d8b2bf9" y="102.975673"/>
      </g>
     </g>
    </g>
    <g id="ytick_25">
     <g id="line2d_33">
      <g>
       <use style="fill:#262626;stroke:#262626;" x="68.866411" xlink:href="#m8c3d8b2bf9" y="98.076999"/>
      </g>
     </g>
    </g>
    <g id="ytick_26">
     <g id="line2d_34">
      <g>
       <use style="fill:#262626;stroke:#262626;" x="68.866411" xlink:href="#m8c3d8b2bf9" y="94.074491"/>
      </g>
     </g>
    </g>
    <g id="ytick_27">
     <g id="line2d_35">
      <g>
       <use style="fill:#262626;stroke:#262626;" x="68.866411" xlink:href="#m8c3d8b2bf9" y="90.690418"/>
      </g>
     </g>
    </g>
    <g id="ytick_28">
     <g id="line2d_36">
      <g>
       <use style="fill:#262626;stroke:#262626;" x="68.866411" xlink:href="#m8c3d8b2bf9" y="87.759001"/>
      </g>
     </g>
    </g>
    <g id="ytick_29">
     <g id="line2d_37">
      <g>
       <use style="fill:#262626;stroke:#262626;" x="68.866411" xlink:href="#m8c3d8b2bf9" y="85.173308"/>
      </g>
     </g>
    </g>
    <g id="ytick_30">
     <g id="line2d_38">
      <g>
       <use style="fill:#262626;stroke:#262626;" x="68.866411" xlink:href="#m8c3d8b2bf9" y="67.643656"/>
      </g>
     </g>
    </g>
    <g id="ytick_31">
     <g id="line2d_39">
      <g>
       <use style="fill:#262626;stroke:#262626;" x="68.866411" xlink:href="#m8c3d8b2bf9" y="58.742474"/>
      </g>
     </g>
    </g>
    <g id="ytick_32">
     <g id="line2d_40">
      <g>
       <use style="fill:#262626;stroke:#262626;" x="68.866411" xlink:href="#m8c3d8b2bf9" y="52.426985"/>
      </g>
     </g>
    </g>
    <g id="ytick_33">
     <g id="line2d_41">
      <g>
       <use style="fill:#262626;stroke:#262626;" x="68.866411" xlink:href="#m8c3d8b2bf9" y="47.528311"/>
      </g>
     </g>
    </g>
    <g id="ytick_34">
     <g id="line2d_42">
      <g>
       <use style="fill:#262626;stroke:#262626;" x="68.866411" xlink:href="#m8c3d8b2bf9" y="43.525802"/>
      </g>
     </g>
    </g>
    <g id="ytick_35">
     <g id="line2d_43">
      <g>
       <use style="fill:#262626;stroke:#262626;" x="68.866411" xlink:href="#m8c3d8b2bf9" y="40.14173"/>
      </g>
     </g>
    </g>
    <g id="ytick_36">
     <g id="line2d_44">
      <g>
       <use style="fill:#262626;stroke:#262626;" x="68.866411" xlink:href="#m8c3d8b2bf9" y="37.210313"/>
      </g>
     </g>
    </g>
    <g id="ytick_37">
     <g id="line2d_45">
      <g>
       <use style="fill:#262626;stroke:#262626;" x="68.866411" xlink:href="#m8c3d8b2bf9" y="34.62462"/>
      </g>
     </g>
    </g>
    <g id="text_11">
     <!-- $\tau_p(t)$ -->
     <g style="fill:#262626;" transform="translate(26.311639 147.213564)rotate(-90)scale(0.144 -0.144)">
      <defs>
       <path d="M 1837 2408 
L 2899 2408 
C 2982 2408 3194 2408 3194 2612 
C 3194 2752 3072 2752 2957 2752 
L 1197 2752 
C 1050 2752 832 2752 538 2440 
C 371 2255 166 1917 166 1879 
C 166 1841 198 1828 237 1828 
C 282 1828 288 1847 320 1885 
C 653 2408 986 2408 1146 2408 
L 1677 2408 
L 1011 223 
C 979 127 979 114 979 95 
C 979 25 1024 -64 1152 -64 
C 1350 -64 1382 108 1402 203 
L 1837 2408 
z
" id="CMMI12-1c" transform="scale(0.015625)"/>
       <path d="M 275 -789 
C 230 -980 205 -1031 -58 -1031 
C -134 -1031 -198 -1031 -198 -1152 
C -198 -1165 -192 -1216 -122 -1216 
C -38 -1216 51 -1216 134 -1216 
L 410 -1216 
C 544 -1216 870 -1216 1005 -1216 
C 1043 -1216 1120 -1216 1120 -1101 
C 1120 -1031 1075 -1031 966 -1031 
C 672 -1031 653 -987 653 -937 
C 653 -861 941 219 979 364 
C 1050 185 1222 -64 1555 -64 
C 2278 -64 3059 875 3059 1814 
C 3059 2401 2726 2816 2246 2816 
C 1837 2816 1491 2420 1421 2331 
C 1370 2650 1120 2816 864 2816 
C 678 2816 531 2727 410 2484 
C 294 2254 205 1865 205 1839 
C 205 1814 230 1782 275 1782 
C 326 1782 333 1788 371 1935 
C 467 2312 589 2689 845 2689 
C 992 2689 1043 2587 1043 2397 
C 1043 2245 1024 2181 998 2067 
L 275 -789 
z
M 1382 1993 
C 1427 2171 1606 2357 1709 2446 
C 1779 2510 1990 2689 2234 2689 
C 2515 2689 2643 2408 2643 2076 
C 2643 1769 2464 1047 2304 715 
C 2144 370 1850 64 1555 64 
C 1120 64 1050 613 1050 639 
C 1050 658 1062 709 1069 741 
L 1382 1993 
z
" id="CMMI12-70" transform="scale(0.015625)"/>
       <path d="M 1958 -1561 
C 1958 -1555 1958 -1542 1939 -1523 
C 1645 -1224 858 -407 858 1581 
C 858 3569 1632 4379 1946 4697 
C 1946 4704 1958 4717 1958 4736 
C 1958 4755 1939 4768 1914 4768 
C 1843 4768 1299 4296 986 3594 
C 666 2887 576 2199 576 1588 
C 576 1128 621 351 1005 -471 
C 1312 -1135 1837 -1600 1914 -1600 
C 1946 -1600 1958 -1587 1958 -1561 
z
" id="CMR17-28" transform="scale(0.015625)"/>
       <path d="M 1683 1581 
C 1683 2040 1638 2817 1254 3639 
C 947 4303 422 4768 346 4768 
C 326 4768 301 4761 301 4729 
C 301 4717 307 4710 314 4697 
C 621 4378 1402 3568 1402 1584 
C 1402 -407 627 -1217 314 -1537 
C 307 -1549 301 -1556 301 -1568 
C 301 -1600 326 -1600 346 -1600 
C 416 -1600 960 -1128 1274 -426 
C 1594 281 1683 969 1683 1581 
z
" id="CMR17-29" transform="scale(0.015625)"/>
      </defs>
      <use transform="scale(0.996264)" xlink:href="#CMMI12-1c"/>
      <use transform="translate(42.363841 -14.943915)scale(0.697382)" xlink:href="#CMMI12-70"/>
      <use transform="translate(77.133479 0)scale(0.996264)" xlink:href="#CMR17-28"/>
      <use transform="translate(112.414247 0)scale(0.996264)" xlink:href="#CMMI12-74"/>
      <use transform="translate(147.640577 0)scale(0.996264)" xlink:href="#CMR17-29"/>
     </g>
    </g>
   </g>
   <g id="line2d_46">
    <path clip-path="url(#pf2f02bbe71)" d="M 68.866411 224.457146 
L 101.969728 224.307438 
L 116.258929 224.037026 
L 125.785064 223.648615 
L 133.167818 223.131227 
L 139.121652 222.497833 
L 144.122873 221.755901 
L 148.647786 220.868904 
L 152.696394 219.860349 
L 156.506847 218.690813 
L 160.079148 217.371798 
L 163.651448 215.81252 
L 166.985595 214.12186 
L 170.319742 212.190457 
L 173.653889 210.009952 
L 177.22619 207.393973 
L 180.79849 204.491934 
L 184.608944 201.092402 
L 188.419398 197.397643 
L 192.706158 192.918155 
L 197.231072 187.859965 
L 202.232293 181.930399 
L 207.947973 174.792562 
L 214.378114 166.396818 
L 221.999022 156.068327 
L 231.287003 143.088234 
L 243.194671 126.038262 
L 259.150946 102.77667 
L 283.204435 67.281548 
L 306.781618 32.290357 
L 306.781618 32.290357 
" style="fill:none;stroke:#b22222;stroke-linecap:round;stroke-width:1.5;"/>
   </g>
   <g id="line2d_47">
    <path clip-path="url(#pf2f02bbe71)" d="M 68.866411 224.457146 
L 84.822686 224.471361 
L 105.065721 224.262933 
L 119.11677 223.924059 
L 128.166597 223.495098 
L 135.073045 222.951 
L 140.788726 222.279368 
L 145.789946 221.463515 
L 150.076707 220.546471 
L 154.125314 219.455481 
L 157.935768 218.195194 
L 161.508068 216.780633 
L 165.080368 215.117429 
L 168.414515 213.324178 
L 171.748662 211.28689 
L 175.08281 208.999337 
L 178.65511 206.269704 
L 182.22741 203.257296 
L 186.037864 199.745784 
L 190.086471 195.700271 
L 194.373232 191.096776 
L 199.136299 185.643019 
L 204.375673 179.294964 
L 210.329507 171.720496 
L 217.235954 162.560908 
L 225.571322 151.114855 
L 235.811917 136.651584 
L 248.910351 117.748576 
L 267.24816 90.867536 
L 297.493637 46.08587 
L 306.781618 32.290357 
L 306.781618 32.290357 
" style="fill:none;stroke:#000000;stroke-linecap:round;stroke-width:1.5;"/>
   </g>
   <g id="patch_3">
    <path d="M 68.866411 234.506392 
L 68.866411 32.311639 
" style="fill:none;stroke:#262626;stroke-linecap:square;stroke-linejoin:miter;stroke-width:1.25;"/>
   </g>
   <g id="patch_4">
    <path d="M 306.781618 234.506392 
L 306.781618 32.311639 
" style="fill:none;stroke:#262626;stroke-linecap:square;stroke-linejoin:miter;stroke-width:1.25;"/>
   </g>
   <g id="patch_5">
    <path d="M 68.866411 234.506392 
L 306.781618 234.506392 
" style="fill:none;stroke:#262626;stroke-linecap:square;stroke-linejoin:miter;stroke-width:1.25;"/>
   </g>
   <g id="patch_6">
    <path d="M 68.866411 32.311639 
L 306.781618 32.311639 
" style="fill:none;stroke:#262626;stroke-linecap:square;stroke-linejoin:miter;stroke-width:1.25;"/>
   </g>
   <g id="text_12">
    <!-- (a) Interpolation of $\tau_p(t)$, $p = -1$ -->
    <g style="fill:#262626;" transform="translate(86.014698 26.311639)scale(0.144 -0.144)">
     <defs>
      <path d="M 2304 1653 
C 2304 2072 2304 2294 2035 2543 
C 1798 2752 1523 2816 1306 2816 
C 800 2816 435 2407 435 1971 
C 435 1728 627 1728 666 1728 
C 749 1728 896 1778 896 1954 
C 896 2112 774 2181 666 2181 
C 640 2181 608 2174 589 2168 
C 723 2592 1069 2714 1293 2714 
C 1613 2714 1965 2429 1965 1885 
L 1965 1600 
C 1587 1600 1133 1549 774 1357 
C 371 1133 256 813 256 570 
C 256 77 832 -64 1171 -64 
C 1523 -64 1850 139 1990 511 
C 2003 233 2182 -18 2464 -18 
C 2598 -18 2938 70 2938 567 
L 2938 920 
L 2822 920 
L 2822 562 
C 2822 178 2650 128 2566 128 
C 2304 128 2304 458 2304 738 
L 2304 1653 
z
M 1965 870 
C 1965 317 1568 38 1216 38 
C 896 38 646 275 646 570 
C 646 761 730 1100 1101 1305 
C 1408 1478 1760 1504 1965 1504 
L 1965 870 
z
" id="CMR17-61" transform="scale(0.015625)"/>
      <path d="M 1261 3905 
C 1261 4192 1338 4192 1798 4192 
L 1798 4352 
C 1594 4352 1267 4352 1050 4352 
C 832 4352 506 4352 301 4352 
L 301 4192 
C 762 4192 838 4192 838 3905 
L 838 447 
C 838 160 762 160 301 160 
L 301 0 
C 506 0 832 0 1050 0 
C 1267 0 1594 0 1798 0 
L 1798 160 
C 1338 160 1261 160 1261 447 
L 1261 3905 
z
" id="CMR17-49" transform="scale(0.015625)"/>
      <path d="M 2656 1933 
C 2656 2259 2592 2790 1837 2790 
C 1331 2790 1069 2400 973 2144 
L 966 2144 
L 966 2790 
L 211 2720 
L 211 2554 
C 589 2554 646 2515 646 2208 
L 646 428 
C 646 184 621 153 211 153 
L 211 -13 
C 365 0 646 0 813 0 
C 979 0 1267 0 1421 -13 
L 1421 153 
C 1011 153 986 178 986 428 
L 986 1658 
C 986 2247 1344 2688 1792 2688 
C 2266 2688 2317 2266 2317 1958 
L 2317 428 
C 2317 184 2291 153 1882 153 
L 1882 -13 
C 2035 0 2317 0 2483 0 
C 2650 0 2938 0 3091 -13 
L 3091 153 
C 2682 153 2656 178 2656 428 
L 2656 1933 
z
" id="CMR17-6e" transform="scale(0.015625)"/>
      <path d="M 966 2560 
L 1862 2560 
L 1862 2725 
L 966 2725 
L 966 3904 
L 851 3904 
C 838 3245 614 2668 70 2668 
L 70 2560 
L 627 2560 
L 627 771 
C 627 650 627 -64 1370 -64 
C 1747 -64 1965 306 1965 777 
L 1965 1140 
L 1850 1140 
L 1850 783 
C 1850 344 1677 51 1408 51 
C 1222 51 966 178 966 758 
L 966 2560 
z
" id="CMR17-74" transform="scale(0.015625)"/>
      <path d="M 2438 1472 
C 2464 1498 2464 1511 2464 1576 
C 2464 2238 2118 2816 1389 2816 
C 710 2816 173 2169 173 1383 
C 173 551 781 -64 1459 -64 
C 2176 -64 2458 607 2458 740 
C 2458 784 2419 784 2406 784 
C 2362 784 2355 771 2330 696 
C 2189 265 1837 51 1504 51 
C 1229 51 954 203 781 480 
C 582 803 582 1176 582 1472 
L 2438 1472 
z
M 589 1568 
C 634 2505 1126 2714 1382 2714 
C 1818 2714 2112 2297 2118 1568 
L 589 1568 
z
" id="CMR17-65" transform="scale(0.015625)"/>
      <path d="M 960 1497 
C 960 2112 1222 2688 1702 2688 
C 1747 2688 1792 2682 1837 2662 
C 1837 2662 1696 2617 1696 2452 
C 1696 2298 1818 2234 1914 2234 
C 1990 2234 2131 2279 2131 2458 
C 2131 2663 1926 2790 1709 2790 
C 1222 2790 1011 2317 947 2093 
L 941 2093 
L 941 2790 
L 198 2720 
L 198 2554 
C 576 2554 634 2515 634 2208 
L 634 428 
C 634 184 608 153 198 153 
L 198 -13 
C 352 0 646 0 813 0 
C 998 0 1325 0 1498 -13 
L 1498 153 
C 1037 153 960 153 960 440 
L 960 1497 
z
" id="CMR17-72" transform="scale(0.015625)"/>
      <path d="M 1408 -1063 
C 998 -1063 973 -1037 973 -789 
L 973 402 
C 1158 134 1427 -38 1766 -38 
C 2406 -38 3053 523 3053 1388 
C 3053 2191 2496 2802 1837 2802 
C 1453 2802 1139 2592 960 2338 
L 960 2802 
L 198 2732 
L 198 2567 
C 576 2567 634 2528 634 2223 
L 634 -789 
C 634 -1031 608 -1063 198 -1063 
L 198 -1228 
C 352 -1216 634 -1216 800 -1216 
C 966 -1216 1254 -1216 1408 -1228 
L 1408 -1063 
z
M 973 2012 
C 973 2102 973 2235 1222 2471 
C 1254 2497 1472 2688 1792 2688 
C 2259 2688 2643 2108 2643 1382 
C 2643 656 2234 64 1728 64 
C 1498 64 1248 172 1056 472 
C 973 612 973 650 973 752 
L 973 2012 
z
" id="CMR17-70" transform="scale(0.015625)"/>
      <path d="M 2758 1356 
C 2758 2176 2163 2816 1466 2816 
C 768 2816 173 2176 173 1356 
C 173 551 768 -64 1466 -64 
C 2163 -64 2758 551 2758 1356 
z
M 1466 51 
C 1165 51 909 230 762 480 
C 602 767 582 1126 582 1408 
C 582 1677 595 2010 762 2298 
C 890 2509 1139 2714 1466 2714 
C 1754 2714 1997 2554 2150 2330 
C 2349 2029 2349 1607 2349 1408 
C 2349 1158 2336 775 2163 467 
C 1984 173 1709 51 1466 51 
z
" id="CMR17-6f" transform="scale(0.015625)"/>
      <path d="M 979 4396 
L 218 4326 
L 218 4160 
C 595 4160 653 4122 653 3817 
L 653 426 
C 653 184 627 153 218 153 
L 218 -13 
C 371 0 653 0 813 0 
C 979 0 1261 0 1414 -13 
L 1414 153 
C 1005 153 979 178 979 426 
L 979 4396 
z
" id="CMR17-6c" transform="scale(0.015625)"/>
      <path d="M 992 3909 
C 992 4049 877 4170 730 4170 
C 589 4170 467 4056 467 3909 
C 467 3769 582 3648 730 3648 
C 870 3648 992 3763 992 3909 
z
M 243 2706 
L 243 2541 
C 602 2541 653 2502 653 2197 
L 653 427 
C 653 184 627 153 218 153 
L 218 -13 
C 371 0 646 0 806 0 
C 960 0 1222 0 1370 -13 
L 1370 153 
C 992 153 979 191 979 420 
L 979 2776 
L 243 2706 
z
" id="CMR17-69" transform="scale(0.015625)"/>
      <path d="M 979 2560 
L 1709 2560 
L 1709 2725 
L 966 2725 
L 966 3494 
C 966 4022 1235 4352 1510 4352 
C 1594 4352 1690 4327 1754 4282 
C 1702 4269 1568 4225 1568 4067 
C 1568 3901 1696 3850 1786 3850 
C 1875 3850 2003 3901 2003 4067 
C 2003 4308 1773 4454 1517 4454 
C 1152 4454 653 4156 653 3481 
L 653 2725 
L 141 2725 
L 141 2560 
L 653 2560 
L 653 427 
C 653 184 627 153 218 153 
L 218 -13 
C 371 0 666 0 832 0 
C 1018 0 1344 0 1517 -13 
L 1517 153 
C 1056 153 979 153 979 439 
L 979 2560 
z
" id="CMR17-66" transform="scale(0.015625)"/>
      <path d="M 1011 102 
C 1024 45 1024 25 1024 -77 
C 1024 -463 896 -817 627 -1139 
C 595 -1170 595 -1183 595 -1197 
C 595 -1222 621 -1248 646 -1248 
C 685 -1248 1126 -799 1126 -87 
C 1126 124 1101 522 800 522 
C 659 522 538 427 538 261 
C 538 96 659 0 800 0 
C 877 0 960 32 1011 102 
z
" id="CMR17-2c" transform="scale(0.015625)"/>
      <path d="M 4115 2017 
C 4211 2017 4307 2017 4307 2125 
C 4307 2240 4198 2240 4090 2240 
L 512 2240 
C 403 2240 294 2240 294 2125 
C 294 2017 390 2017 486 2017 
L 4115 2017 
z
M 4090 896 
C 4198 896 4307 896 4307 1011 
C 4307 1119 4211 1119 4115 1119 
L 486 1119 
C 390 1119 294 1119 294 1011 
C 294 896 403 896 512 896 
L 4090 896 
z
" id="CMR17-3d" transform="scale(0.015625)"/>
     </defs>
     <use transform="scale(0.996264)" xlink:href="#CMR17-28"/>
     <use transform="translate(35.280768 0)scale(0.996264)" xlink:href="#CMR17-61"/>
     <use transform="translate(80.971245 0)scale(0.996264)" xlink:href="#CMR17-29"/>
     <use transform="translate(146.327979 0)scale(0.996264)" xlink:href="#CMR17-49"/>
     <use transform="translate(178.966388 0)scale(0.996264)" xlink:href="#CMR17-6e"/>
     <use transform="translate(227.259304 0)scale(0.996264)" xlink:href="#CMR17-74"/>
     <use transform="translate(262.540072 0)scale(0.996264)" xlink:href="#CMR17-65"/>
     <use transform="translate(303.025732 0)scale(0.996264)" xlink:href="#CMR17-72"/>
     <use transform="translate(338.3065 0)scale(0.996264)" xlink:href="#CMR17-70"/>
     <use transform="translate(391.804309 0)scale(0.996264)" xlink:href="#CMR17-6f"/>
     <use transform="translate(437.494786 0)scale(0.996264)" xlink:href="#CMR17-6c"/>
     <use transform="translate(462.365844 0)scale(0.996264)" xlink:href="#CMR17-61"/>
     <use transform="translate(508.056321 0)scale(0.996264)" xlink:href="#CMR17-74"/>
     <use transform="translate(543.337089 0)scale(0.996264)" xlink:href="#CMR17-69"/>
     <use transform="translate(568.208148 0)scale(0.996264)" xlink:href="#CMR17-6f"/>
     <use transform="translate(613.898625 0)scale(0.996264)" xlink:href="#CMR17-6e"/>
     <use transform="translate(694.869961 0)scale(0.996264)" xlink:href="#CMR17-6f"/>
     <use transform="translate(740.560438 0)scale(0.996264)" xlink:href="#CMR17-66"/>
     <use transform="translate(798.109917 0)scale(0.996264)" xlink:href="#CMMI12-1c"/>
     <use transform="translate(840.473757 -14.943915)scale(0.697382)" xlink:href="#CMMI12-70"/>
     <use transform="translate(875.243396 0)scale(0.996264)" xlink:href="#CMR17-28"/>
     <use transform="translate(910.524164 0)scale(0.996264)" xlink:href="#CMMI12-74"/>
     <use transform="translate(945.750494 0)scale(0.996264)" xlink:href="#CMR17-29"/>
     <use transform="translate(981.031262 0)scale(0.996264)" xlink:href="#CMR17-2c"/>
     <use transform="translate(1035.978286 0)scale(0.996264)" xlink:href="#CMMI12-70"/>
     <use transform="translate(1112.611809 0)scale(0.996264)" xlink:href="#CMR17-3d"/>
     <use transform="translate(1212.000606 0)scale(0.996264)" xlink:href="#CMSY10-0"/>
     <use transform="translate(1289.488074 0)scale(0.996264)" xlink:href="#CMR17-31"/>
    </g>
   </g>
   <g id="legend_1">
    <g id="patch_7">
     <path d="M 77.263051 92.06157 
L 210.02256 92.06157 
Q 212.4216 92.06157 212.4216 89.66253 
L 212.4216 40.708279 
Q 212.4216 38.309239 210.02256 38.309239 
L 77.263051 38.309239 
Q 74.864011 38.309239 74.864011 40.708279 
L 74.864011 89.66253 
Q 74.864011 92.06157 77.263051 92.06157 
z
" style="fill:#ffffff;opacity:0.8;stroke:#cccccc;stroke-linejoin:miter;"/>
    </g>
    <g id="line2d_48"/>
    <g id="line2d_49">
     <defs>
      <path d="M 0 2 
C 0.530406 2 1.03916 1.789267 1.414214 1.414214 
C 1.789267 1.03916 2 0.530406 2 0 
C 2 -0.530406 1.789267 -1.03916 1.414214 -1.414214 
C 1.03916 -1.789267 0.530406 -2 0 -2 
C -0.530406 -2 -1.03916 -1.789267 -1.414214 -1.414214 
C -1.789267 -1.03916 -2 -0.530406 -2 0 
C -2 0.530406 -1.789267 1.03916 -1.414214 1.414214 
C -1.03916 1.789267 -0.530406 2 0 2 
z
" id="mc5304ef0ed" style="stroke:#b22222;"/>
     </defs>
     <g>
      <use style="fill:#b22222;stroke:#b22222;" x="91.657291" xlink:href="#mc5304ef0ed" y="47.305639"/>
     </g>
    </g>
    <g id="text_13">
     <!-- Interpolant points -->
     <g style="fill:#262626;" transform="translate(113.248651 51.503959)scale(0.119952 -0.119952)">
      <defs>
       <path d="M 1978 2697 
C 1978 2813 1971 2819 1933 2819 
C 1907 2819 1901 2813 1824 2717 
C 1805 2691 1747 2626 1728 2601 
C 1523 2819 1235 2819 1126 2819 
C 416 2819 160 2447 160 2076 
C 160 1498 813 1365 998 1325 
C 1402 1243 1542 1217 1677 1101 
C 1760 1025 1901 884 1901 654 
C 1901 384 1747 38 1158 38 
C 602 38 403 460 288 1021 
C 269 1110 269 1117 218 1117 
C 166 1117 160 1110 160 983 
L 160 63 
C 160 -51 166 -58 205 -58 
C 237 -58 243 -51 275 0 
C 314 57 410 211 448 276 
C 576 103 800 -64 1158 -64 
C 1792 -64 2131 283 2131 784 
C 2131 1112 1958 1285 1875 1362 
C 1683 1561 1459 1606 1190 1657 
C 838 1735 390 1825 390 2217 
C 390 2383 480 2737 1126 2737 
C 1811 2737 1850 2094 1862 1888 
C 1869 1856 1901 1849 1920 1849 
C 1978 1849 1978 1869 1978 1978 
L 1978 2697 
z
" id="CMR17-73" transform="scale(0.015625)"/>
      </defs>
      <use transform="scale(0.996264)" xlink:href="#CMR17-49"/>
      <use transform="translate(32.638409 0)scale(0.996264)" xlink:href="#CMR17-6e"/>
      <use transform="translate(80.931325 0)scale(0.996264)" xlink:href="#CMR17-74"/>
      <use transform="translate(116.212093 0)scale(0.996264)" xlink:href="#CMR17-65"/>
      <use transform="translate(156.697753 0)scale(0.996264)" xlink:href="#CMR17-72"/>
      <use transform="translate(191.978521 0)scale(0.996264)" xlink:href="#CMR17-70"/>
      <use transform="translate(245.47633 0)scale(0.996264)" xlink:href="#CMR17-6f"/>
      <use transform="translate(291.166807 0)scale(0.996264)" xlink:href="#CMR17-6c"/>
      <use transform="translate(316.037865 0)scale(0.996264)" xlink:href="#CMR17-61"/>
      <use transform="translate(361.728342 0)scale(0.996264)" xlink:href="#CMR17-6e"/>
      <use transform="translate(410.021258 0)scale(0.996264)" xlink:href="#CMR17-74"/>
      <use transform="translate(475.377992 0)scale(0.996264)" xlink:href="#CMR17-70"/>
      <use transform="translate(528.875801 0)scale(0.996264)" xlink:href="#CMR17-6f"/>
      <use transform="translate(574.566278 0)scale(0.996264)" xlink:href="#CMR17-69"/>
      <use transform="translate(599.437336 0)scale(0.996264)" xlink:href="#CMR17-6e"/>
      <use transform="translate(647.730252 0)scale(0.996264)" xlink:href="#CMR17-74"/>
      <use transform="translate(683.01102 0)scale(0.996264)" xlink:href="#CMR17-73"/>
     </g>
    </g>
    <g id="line2d_50">
     <path d="M 79.662091 64.023563 
L 103.652491 64.023563 
" style="fill:none;stroke:#b22222;stroke-linecap:round;stroke-width:1.5;"/>
    </g>
    <g id="line2d_51"/>
    <g id="text_14">
     <!-- Exact -->
     <g style="fill:#262626;" transform="translate(113.248651 68.221883)scale(0.119952 -0.119952)">
      <defs>
       <path d="M 3885 1615 
L 3770 1615 
C 3629 676 3546 166 2419 166 
L 1530 166 
C 1274 166 1261 197 1261 414 
L 1261 2176 
L 1862 2176 
C 2464 2176 2522 1960 2522 1430 
L 2637 1430 
L 2637 3081 
L 2522 3081 
C 2522 2557 2464 2342 1862 2342 
L 1261 2342 
L 1261 3913 
C 1261 4128 1274 4160 1530 4160 
L 2406 4160 
C 3398 4160 3514 3769 3603 2929 
L 3718 2929 
L 3565 4325 
L 326 4325 
L 326 4160 
C 768 4160 838 4160 838 3874 
L 838 451 
C 838 166 768 166 326 166 
L 326 0 
L 3654 0 
L 3885 1615 
z
" id="CMR17-45" transform="scale(0.015625)"/>
       <path d="M 1664 1477 
C 1856 1726 2074 2006 2253 2216 
C 2464 2458 2707 2560 2989 2560 
L 2989 2726 
C 2880 2726 2656 2726 2541 2726 
C 2368 2726 2170 2726 2022 2732 
L 2022 2566 
C 2112 2553 2163 2489 2163 2400 
C 2163 2285 2099 2215 2067 2171 
L 1594 1573 
L 1030 2306 
C 973 2376 973 2388 973 2420 
C 973 2497 1037 2560 1146 2560 
L 1146 2732 
C 992 2726 717 2726 557 2726 
C 384 2726 179 2726 38 2732 
L 38 2560 
C 384 2560 461 2534 614 2343 
L 1350 1395 
C 1363 1382 1395 1344 1395 1325 
C 1395 1299 838 619 768 530 
C 480 185 179 160 6 160 
L 6 0 
C 115 0 339 0 454 0 
C 582 0 864 0 979 -6 
L 979 160 
C 941 166 838 179 838 325 
C 838 440 890 510 947 586 
L 1478 1236 
L 2035 512 
C 2086 442 2163 346 2163 301 
C 2163 211 2086 160 1984 160 
L 1984 -6 
C 2138 0 2413 0 2573 0 
C 2746 0 2950 0 3091 -6 
L 3091 160 
C 2771 160 2675 172 2522 370 
L 1664 1477 
z
" id="CMR17-78" transform="scale(0.015625)"/>
       <path d="M 2234 2240 
C 2112 2240 1933 2240 1933 2017 
C 1933 1838 2080 1787 2163 1787 
C 2208 1787 2394 1807 2394 2024 
C 2394 2467 1958 2803 1466 2803 
C 787 2803 211 2178 211 1363 
C 211 516 813 -64 1466 -64 
C 2259 -64 2458 677 2458 748 
C 2458 774 2451 793 2406 793 
C 2362 793 2355 787 2330 703 
C 2163 180 1798 51 1523 51 
C 1114 51 621 427 621 1369 
C 621 2338 1094 2688 1472 2688 
C 1722 2688 2093 2573 2234 2240 
z
" id="CMR17-63" transform="scale(0.015625)"/>
      </defs>
      <use transform="scale(0.996264)" xlink:href="#CMR17-45"/>
      <use transform="translate(62.586301 0)scale(0.996264)" xlink:href="#CMR17-78"/>
      <use transform="translate(110.879216 0)scale(0.996264)" xlink:href="#CMR17-61"/>
      <use transform="translate(156.569693 0)scale(0.996264)" xlink:href="#CMR17-63"/>
      <use transform="translate(197.055354 0)scale(0.996264)" xlink:href="#CMR17-74"/>
     </g>
    </g>
    <g id="line2d_52">
     <path d="M 79.662091 80.741486 
L 103.652491 80.741486 
" style="fill:none;stroke:#000000;stroke-linecap:round;stroke-width:1.5;"/>
    </g>
    <g id="line2d_53"/>
    <g id="text_15">
     <!-- Interpolated -->
     <g style="fill:#262626;" transform="translate(113.248651 84.939806)scale(0.119952 -0.119952)">
      <defs>
       <path d="M 1869 4326 
L 1869 4160 
C 2246 4160 2304 4122 2304 3820 
L 2304 2345 
C 2278 2377 2016 2790 1498 2790 
C 845 2790 211 2208 211 1364 
C 211 525 806 -64 1434 -64 
C 1978 -64 2259 337 2291 380 
L 2291 -63 
L 3066 -63 
L 3066 128 
C 2688 128 2630 166 2630 473 
L 2630 4396 
L 1869 4326 
z
M 2291 755 
C 2291 563 2176 390 2029 262 
C 1811 70 1594 38 1472 38 
C 1286 38 621 134 621 1356 
C 621 2612 1363 2688 1530 2688 
C 1824 2688 2061 2522 2208 2291 
C 2291 2157 2291 2138 2291 2023 
L 2291 755 
z
" id="CMR17-64" transform="scale(0.015625)"/>
      </defs>
      <use transform="scale(0.996264)" xlink:href="#CMR17-49"/>
      <use transform="translate(32.638409 0)scale(0.996264)" xlink:href="#CMR17-6e"/>
      <use transform="translate(80.931325 0)scale(0.996264)" xlink:href="#CMR17-74"/>
      <use transform="translate(116.212093 0)scale(0.996264)" xlink:href="#CMR17-65"/>
      <use transform="translate(156.697753 0)scale(0.996264)" xlink:href="#CMR17-72"/>
      <use transform="translate(191.978521 0)scale(0.996264)" xlink:href="#CMR17-70"/>
      <use transform="translate(245.47633 0)scale(0.996264)" xlink:href="#CMR17-6f"/>
      <use transform="translate(291.166807 0)scale(0.996264)" xlink:href="#CMR17-6c"/>
      <use transform="translate(316.037865 0)scale(0.996264)" xlink:href="#CMR17-61"/>
      <use transform="translate(361.728342 0)scale(0.996264)" xlink:href="#CMR17-74"/>
      <use transform="translate(397.00911 0)scale(0.996264)" xlink:href="#CMR17-65"/>
      <use transform="translate(437.494771 0)scale(0.996264)" xlink:href="#CMR17-64"/>
     </g>
    </g>
   </g>
   <g id="line2d_54">
    <g clip-path="url(#pf2f02bbe71)">
     <use style="fill:#b22222;stroke:#b22222;" x="68.866411" xlink:href="#mc5304ef0ed" y="224.457146"/>
     <use style="fill:#b22222;stroke:#b22222;" x="102.854297" xlink:href="#mc5304ef0ed" y="224.297138"/>
     <use style="fill:#b22222;stroke:#b22222;" x="136.842184" xlink:href="#mc5304ef0ed" y="222.768276"/>
     <use style="fill:#b22222;stroke:#b22222;" x="170.830071" xlink:href="#mc5304ef0ed" y="211.872991"/>
     <use style="fill:#b22222;stroke:#b22222;" x="204.817958" xlink:href="#mc5304ef0ed" y="178.744468"/>
     <use style="fill:#b22222;stroke:#b22222;" x="238.805845" xlink:href="#mc5304ef0ed" y="132.363172"/>
     <use style="fill:#b22222;stroke:#b22222;" x="272.793731" xlink:href="#mc5304ef0ed" y="82.683893"/>
     <use style="fill:#b22222;stroke:#b22222;" x="306.781618" xlink:href="#mc5304ef0ed" y="32.290357"/>
    </g>
   </g>
  </g>
  <g id="axes_2">
   <g id="patch_8">
    <path d="M 394.532792 234.506392 
L 632.448 234.506392 
L 632.448 32.311639 
L 394.532792 32.311639 
z
" style="fill:#ffffff;"/>
   </g>
   <g id="matplotlib.axis_3">
    <g id="xtick_5">
     <g id="line2d_55">
      <path clip-path="url(#p2c7c894b7c)" d="M 394.532792 234.506392 
L 394.532792 32.311639 
" style="fill:none;stroke:#cccccc;stroke-linecap:round;"/>
     </g>
     <g id="line2d_56">
      <g>
       <use style="fill:#262626;stroke:#262626;stroke-width:1.25;" x="394.532792" xlink:href="#meb90af2817" y="234.506392"/>
      </g>
     </g>
     <g id="text_16">
      <!-- $\mathdefault{10^{-4}}$ -->
      <g style="fill:#262626;" transform="translate(382.049955 253.138787)scale(0.132 -0.132)">
       <use transform="scale(0.996264)" xlink:href="#CMR17-31"/>
       <use transform="translate(45.690477 0)scale(0.996264)" xlink:href="#CMR17-30"/>
       <use transform="translate(91.380954 36.153639)scale(0.697382)" xlink:href="#CMSY10-0"/>
       <use transform="translate(145.621947 36.153639)scale(0.697382)" xlink:href="#CMR17-34"/>
      </g>
     </g>
    </g>
    <g id="xtick_6">
     <g id="line2d_57">
      <path clip-path="url(#p2c7c894b7c)" d="M 462.508566 234.506392 
L 462.508566 32.311639 
" style="fill:none;stroke:#cccccc;stroke-linecap:round;"/>
     </g>
     <g id="line2d_58">
      <g>
       <use style="fill:#262626;stroke:#262626;stroke-width:1.25;" x="462.508566" xlink:href="#meb90af2817" y="234.506392"/>
      </g>
     </g>
     <g id="text_17">
      <!-- $\mathdefault{10^{-2}}$ -->
      <g style="fill:#262626;" transform="translate(450.025729 253.138787)scale(0.132 -0.132)">
       <use transform="scale(0.996264)" xlink:href="#CMR17-31"/>
       <use transform="translate(45.690477 0)scale(0.996264)" xlink:href="#CMR17-30"/>
       <use transform="translate(91.380954 36.153639)scale(0.697382)" xlink:href="#CMSY10-0"/>
       <use transform="translate(145.621947 36.153639)scale(0.697382)" xlink:href="#CMR17-32"/>
      </g>
     </g>
    </g>
    <g id="xtick_7">
     <g id="line2d_59">
      <path clip-path="url(#p2c7c894b7c)" d="M 530.48434 234.506392 
L 530.48434 32.311639 
" style="fill:none;stroke:#cccccc;stroke-linecap:round;"/>
     </g>
     <g id="line2d_60">
      <g>
       <use style="fill:#262626;stroke:#262626;stroke-width:1.25;" x="530.48434" xlink:href="#meb90af2817" y="234.506392"/>
      </g>
     </g>
     <g id="text_18">
      <!-- $\mathdefault{10^{0}}$ -->
      <g style="fill:#262626;" transform="translate(521.680805 253.138787)scale(0.132 -0.132)">
       <use transform="scale(0.996264)" xlink:href="#CMR17-31"/>
       <use transform="translate(45.690477 0)scale(0.996264)" xlink:href="#CMR17-30"/>
       <use transform="translate(91.380954 36.153639)scale(0.697382)" xlink:href="#CMR17-30"/>
      </g>
     </g>
    </g>
    <g id="xtick_8">
     <g id="line2d_61">
      <path clip-path="url(#p2c7c894b7c)" d="M 598.460113 234.506392 
L 598.460113 32.311639 
" style="fill:none;stroke:#cccccc;stroke-linecap:round;"/>
     </g>
     <g id="line2d_62">
      <g>
       <use style="fill:#262626;stroke:#262626;stroke-width:1.25;" x="598.460113" xlink:href="#meb90af2817" y="234.506392"/>
      </g>
     </g>
     <g id="text_19">
      <!-- $\mathdefault{10^{2}}$ -->
      <g style="fill:#262626;" transform="translate(589.656579 253.138787)scale(0.132 -0.132)">
       <use transform="scale(0.996264)" xlink:href="#CMR17-31"/>
       <use transform="translate(45.690477 0)scale(0.996264)" xlink:href="#CMR17-30"/>
       <use transform="translate(91.380954 36.153639)scale(0.697382)" xlink:href="#CMR17-32"/>
      </g>
     </g>
    </g>
    <g id="text_20">
     <!-- $t$ -->
     <g style="fill:#262626;" transform="translate(510.954108 269.658473)scale(0.144 -0.144)">
      <use transform="scale(0.996264)" xlink:href="#CMMI12-74"/>
     </g>
    </g>
   </g>
   <g id="matplotlib.axis_4">
    <g id="ytick_38">
     <g id="line2d_63">
      <g>
       <use style="fill:#262626;stroke:#262626;stroke-width:1.25;" x="394.532792" xlink:href="#m425321dd4f" y="227.92017"/>
      </g>
     </g>
     <g id="text_21">
      <!-- −0.10\% -->
      <g style="fill:#262626;" transform="translate(341.182354 232.486368)scale(0.132 -0.132)">
       <defs>
        <path d="M 1062 261 
C 1062 420 934 522 800 522 
C 672 522 538 420 538 261 
C 538 102 666 0 800 0 
C 928 0 1062 102 1062 261 
z
" id="CMR17-2e" transform="scale(0.015625)"/>
        <path d="M 4640 959 
C 4640 1698 4275 2240 3846 2240 
C 3411 2240 2970 1736 2970 959 
C 2970 183 3405 -320 3846 -320 
C 4275 -320 4640 215 4640 959 
z
M 3853 -218 
C 3686 -218 3270 -66 3270 959 
C 3270 1991 3686 2138 3853 2138 
C 4205 2138 4525 1634 4525 959 
C 4525 285 4205 -218 3853 -218 
z
M 4083 4577 
C 4128 4647 4134 4653 4134 4685 
C 4134 4761 4077 4800 4026 4800 
C 3962 4800 3936 4756 3891 4706 
C 3520 4190 3008 4134 2746 4134 
C 2106 4134 1715 4494 1594 4607 
C 1510 4682 1389 4800 1171 4800 
C 736 4800 294 4296 294 3519 
C 294 2743 730 2240 1171 2240 
C 1600 2240 1965 2778 1965 3527 
C 1965 3969 1830 4270 1811 4308 
C 2202 4064 2586 4032 2752 4032 
C 3162 4032 3456 4183 3616 4289 
L 3622 4283 
L 858 -84 
C 800 -174 800 -187 800 -206 
C 800 -276 858 -320 915 -320 
C 973 -320 992 -289 1037 -218 
L 4083 4577 
z
M 1178 2342 
C 1011 2342 595 2494 595 3519 
C 595 4551 1011 4698 1178 4698 
C 1530 4698 1850 4194 1850 3519 
C 1850 2845 1530 2342 1178 2342 
z
" id="CMR17-25" transform="scale(0.015625)"/>
       </defs>
       <use transform="scale(0.996264)" xlink:href="#CMSY10-0"/>
       <use transform="translate(77.487468 0)scale(0.996264)" xlink:href="#CMR17-30"/>
       <use transform="translate(123.177945 0)scale(0.996264)" xlink:href="#CMR17-2e"/>
       <use transform="translate(148.049003 0)scale(0.996264)" xlink:href="#CMR17-31"/>
       <use transform="translate(193.73948 0)scale(0.996264)" xlink:href="#CMR17-30"/>
       <use transform="translate(239.429957 0)scale(0.996264)" xlink:href="#CMR17-25"/>
      </g>
     </g>
    </g>
    <g id="ytick_39">
     <g id="line2d_64">
      <g>
       <use style="fill:#262626;stroke:#262626;stroke-width:1.25;" x="394.532792" xlink:href="#m425321dd4f" y="171.924291"/>
      </g>
     </g>
     <g id="text_22">
      <!-- 0.00\% -->
      <g style="fill:#262626;" transform="translate(351.410691 176.490488)scale(0.132 -0.132)">
       <use transform="scale(0.996264)" xlink:href="#CMR17-30"/>
       <use transform="translate(45.690477 0)scale(0.996264)" xlink:href="#CMR17-2e"/>
       <use transform="translate(70.561536 0)scale(0.996264)" xlink:href="#CMR17-30"/>
       <use transform="translate(116.252013 0)scale(0.996264)" xlink:href="#CMR17-30"/>
       <use transform="translate(161.94249 0)scale(0.996264)" xlink:href="#CMR17-25"/>
      </g>
     </g>
    </g>
    <g id="ytick_40">
     <g id="line2d_65">
      <g>
       <use style="fill:#262626;stroke:#262626;stroke-width:1.25;" x="394.532792" xlink:href="#m425321dd4f" y="115.928412"/>
      </g>
     </g>
     <g id="text_23">
      <!-- 0.10\% -->
      <g style="fill:#262626;" transform="translate(351.410691 120.494609)scale(0.132 -0.132)">
       <use transform="scale(0.996264)" xlink:href="#CMR17-30"/>
       <use transform="translate(45.690477 0)scale(0.996264)" xlink:href="#CMR17-2e"/>
       <use transform="translate(70.561536 0)scale(0.996264)" xlink:href="#CMR17-31"/>
       <use transform="translate(116.252013 0)scale(0.996264)" xlink:href="#CMR17-30"/>
       <use transform="translate(161.94249 0)scale(0.996264)" xlink:href="#CMR17-25"/>
      </g>
     </g>
    </g>
    <g id="ytick_41">
     <g id="line2d_66">
      <g>
       <use style="fill:#262626;stroke:#262626;stroke-width:1.25;" x="394.532792" xlink:href="#m425321dd4f" y="59.932532"/>
      </g>
     </g>
     <g id="text_24">
      <!-- 0.20\% -->
      <g style="fill:#262626;" transform="translate(351.410691 64.49873)scale(0.132 -0.132)">
       <use transform="scale(0.996264)" xlink:href="#CMR17-30"/>
       <use transform="translate(45.690477 0)scale(0.996264)" xlink:href="#CMR17-2e"/>
       <use transform="translate(70.561536 0)scale(0.996264)" xlink:href="#CMR17-32"/>
       <use transform="translate(116.252013 0)scale(0.996264)" xlink:href="#CMR17-30"/>
       <use transform="translate(161.94249 0)scale(0.996264)" xlink:href="#CMR17-25"/>
      </g>
     </g>
    </g>
    <g id="text_25">
     <!-- $1-\tau_{\mathrm{approx}}(t) / \tau_{\mathrm{exact}}(t)$ -->
     <g style="fill:#262626;" transform="translate(333.093257 198.238894)rotate(-90)scale(0.144 -0.144)">
      <defs>
       <path d="M 2746 4562 
C 2746 4569 2784 4666 2784 4678 
C 2784 4755 2720 4800 2669 4800 
C 2637 4800 2579 4800 2528 4659 
L 384 -1363 
C 384 -1370 346 -1465 346 -1478 
C 346 -1555 410 -1600 461 -1600 
C 499 -1600 557 -1593 602 -1459 
L 2746 4562 
z
" id="CMMI12-3d" transform="scale(0.015625)"/>
      </defs>
      <use transform="scale(0.996264)" xlink:href="#CMR17-31"/>
      <use transform="translate(67.829684 0)scale(0.996264)" xlink:href="#CMSY10-0"/>
      <use transform="translate(167.456359 0)scale(0.996264)" xlink:href="#CMMI12-1c"/>
      <use transform="translate(209.820199 -14.943915)scale(0.697382)" xlink:href="#CMR17-61"/>
      <use transform="translate(241.803381 -14.943915)scale(0.697382)" xlink:href="#CMR17-70"/>
      <use transform="translate(277.42999 -14.943915)scale(0.697382)" xlink:href="#CMR17-70"/>
      <use transform="translate(313.056598 -14.943915)scale(0.697382)" xlink:href="#CMR17-72"/>
      <use transform="translate(337.753018 -14.943915)scale(0.697382)" xlink:href="#CMR17-6f"/>
      <use transform="translate(367.91448 -14.943915)scale(0.697382)" xlink:href="#CMR17-78"/>
      <use transform="translate(402.217499 0)scale(0.996264)" xlink:href="#CMR17-28"/>
      <use transform="translate(437.498267 0)scale(0.996264)" xlink:href="#CMMI12-74"/>
      <use transform="translate(472.724597 0)scale(0.996264)" xlink:href="#CMR17-29"/>
      <use transform="translate(508.005365 0)scale(0.996264)" xlink:href="#CMMI12-3d"/>
      <use transform="translate(556.780284 0)scale(0.996264)" xlink:href="#CMMI12-1c"/>
      <use transform="translate(599.144124 -14.943915)scale(0.697382)" xlink:href="#CMR17-65"/>
      <use transform="translate(627.483956 -14.943915)scale(0.697382)" xlink:href="#CMR17-78"/>
      <use transform="translate(661.288844 -14.943915)scale(0.697382)" xlink:href="#CMR17-61"/>
      <use transform="translate(693.272026 -14.943915)scale(0.697382)" xlink:href="#CMR17-63"/>
      <use transform="translate(721.611857 -14.943915)scale(0.697382)" xlink:href="#CMR17-74"/>
      <use transform="translate(746.80641 0)scale(0.996264)" xlink:href="#CMR17-28"/>
      <use transform="translate(782.087177 0)scale(0.996264)" xlink:href="#CMMI12-74"/>
      <use transform="translate(817.313508 0)scale(0.996264)" xlink:href="#CMR17-29"/>
     </g>
    </g>
   </g>
   <g id="line2d_67">
    <path clip-path="url(#p2c7c894b7c)" d="M 394.532792 171.924291 
L 395.961713 141.03967 
L 397.390633 114.991478 
L 398.5814 96.746754 
L 399.772166 81.452362 
L 400.962933 68.925471 
L 402.1537 58.985287 
L 403.106313 52.775529 
L 404.058927 48.016725 
L 404.773387 45.346148 
L 405.487847 43.40441 
L 406.202307 42.154743 
L 406.678614 41.688146 
L 407.154921 41.50231 
L 407.631227 41.586658 
L 408.107534 41.930707 
L 408.583841 42.524068 
L 409.298301 43.859079 
L 410.012761 45.697585 
L 410.965374 48.8738 
L 411.917988 52.806477 
L 413.108755 58.669228 
L 414.537675 66.901316 
L 416.204748 77.8495 
L 418.348129 93.490112 
L 421.682276 119.731057 
L 426.445343 157.037535 
L 428.826876 174.011202 
L 430.970257 187.685419 
L 432.63733 197.055099 
L 434.304404 205.18675 
L 435.733324 211.103941 
L 437.162244 216.008209 
L 438.353011 219.304557 
L 439.305624 221.420162 
L 440.258238 223.073027 
L 441.210851 224.267039 
L 441.925311 224.865413 
L 442.639771 225.213373 
L 443.354231 225.315721 
L 444.068692 225.178121 
L 444.783152 224.807066 
L 445.497612 224.209866 
L 446.450225 223.075898 
L 447.402839 221.575577 
L 448.593605 219.220917 
L 449.784372 216.380922 
L 451.213292 212.409747 
L 452.880366 207.12996 
L 455.023746 199.58616 
L 459.54866 182.524792 
L 462.4065 172.269191 
L 464.311727 166.163251 
L 465.978801 161.49422 
L 467.407721 158.082749 
L 468.836641 155.273674 
L 470.027408 153.419882 
L 471.218175 152.021703 
L 472.170788 151.233142 
L 473.123402 150.734877 
L 474.076015 150.520082 
L 475.028628 150.578204 
L 475.981242 150.895079 
L 476.933855 151.453112 
L 478.124622 152.45783 
L 479.315389 153.759799 
L 480.744309 155.63981 
L 482.887689 158.899139 
L 487.650757 166.366834 
L 489.31783 168.528356 
L 490.74675 170.030456 
L 491.937517 170.99068 
L 493.128284 171.661502 
L 494.080897 171.981115 
L 495.033511 172.105717 
L 495.986124 172.037784 
L 496.938738 171.783803 
L 498.129504 171.220682 
L 499.320271 170.410811 
L 500.749191 169.162979 
L 502.654418 167.150392 
L 509.560866 159.441749 
L 510.989786 158.30647 
L 512.418706 157.466552 
L 513.609473 157.018533 
L 514.80024 156.813813 
L 515.991007 156.858434 
L 517.181773 157.151671 
L 518.37254 157.686452 
L 519.563307 158.44994 
L 520.992227 159.642502 
L 522.659301 161.364911 
L 524.564528 163.679614 
L 527.184214 167.249449 
L 532.899895 175.149781 
L 535.043275 177.692606 
L 536.948502 179.611698 
L 538.615576 180.984202 
L 540.282649 182.047269 
L 541.711569 182.704127 
L 543.14049 183.125762 
L 544.56941 183.317241 
L 545.99833 183.288297 
L 547.42725 183.052703 
L 549.094324 182.539699 
L 550.761397 181.800686 
L 552.666624 180.724907 
L 555.048158 179.116242 
L 558.620458 176.385175 
L 564.097985 172.188209 
L 566.955826 170.299992 
L 569.337359 168.990134 
L 571.48074 168.051814 
L 573.62412 167.358328 
L 575.7675 166.91442 
L 577.91088 166.714384 
L 580.054261 166.743174 
L 582.435794 167.015312 
L 585.055481 167.559098 
L 588.151475 168.446687 
L 593.152695 170.163162 
L 598.630223 171.974718 
L 601.96437 172.849605 
L 605.060363 173.439324 
L 608.156357 173.795839 
L 611.252351 173.92658 
L 614.586498 173.847283 
L 618.635105 173.520165 
L 625.303399 172.713137 
L 632.209847 171.945026 
L 632.448 171.924291 
L 632.448 171.924291 
" style="fill:none;stroke:#000000;stroke-linecap:round;stroke-width:1.5;"/>
   </g>
   <g id="line2d_68">
    <path clip-path="url(#p2c7c894b7c)" d="M 382.637032 171.924291 
L 644.34376 171.924291 
" style="fill:none;stroke:#cccccc;stroke-linecap:round;stroke-width:0.75;"/>
   </g>
   <g id="patch_9">
    <path d="M 394.532792 234.506392 
L 394.532792 32.311639 
" style="fill:none;stroke:#262626;stroke-linecap:square;stroke-linejoin:miter;stroke-width:1.25;"/>
   </g>
   <g id="patch_10">
    <path d="M 632.448 234.506392 
L 632.448 32.311639 
" style="fill:none;stroke:#262626;stroke-linecap:square;stroke-linejoin:miter;stroke-width:1.25;"/>
   </g>
   <g id="patch_11">
    <path d="M 394.532792 234.506392 
L 632.448 234.506392 
" style="fill:none;stroke:#262626;stroke-linecap:square;stroke-linejoin:miter;stroke-width:1.25;"/>
   </g>
   <g id="patch_12">
    <path d="M 394.532792 32.311639 
L 632.448 32.311639 
" style="fill:none;stroke:#262626;stroke-linecap:square;stroke-linejoin:miter;stroke-width:1.25;"/>
   </g>
   <g id="text_26">
    <!-- (b) Relative error of interpolation, $p=-1$ -->
    <g style="fill:#262626;" transform="translate(383.440516 26.311639)scale(0.144 -0.144)">
     <defs>
      <path d="M 960 4396 
L 198 4326 
L 198 4160 
C 576 4160 634 4122 634 3817 
L 634 -13 
L 749 -13 
L 934 441 
C 1120 141 1395 -64 1766 -64 
C 2406 -64 3053 500 3053 1370 
C 3053 2188 2477 2790 1830 2790 
C 1434 2790 1152 2579 960 2330 
L 960 4396 
z
M 973 2004 
C 973 2118 973 2138 1062 2272 
C 1312 2657 1670 2688 1792 2688 
C 1984 2688 2643 2585 2643 1376 
C 2643 108 1888 38 1734 38 
C 1536 38 1248 114 1043 486 
C 973 608 973 621 973 735 
L 973 2004 
z
" id="CMR17-62" transform="scale(0.015625)"/>
      <path d="M 2509 2146 
C 3117 2268 3629 2676 3629 3186 
C 3629 3785 2950 4326 2054 4326 
L 333 4326 
L 333 4160 
C 774 4160 845 4160 845 3873 
L 845 415 
C 845 128 774 128 333 128 
L 333 -26 
C 518 -26 851 -26 1050 -26 
C 1248 -26 1581 -26 1766 -26 
L 1766 128 
C 1325 128 1254 128 1254 417 
L 1254 2112 
L 2003 2112 
C 2368 2112 2573 1964 2662 1881 
C 2918 1632 2918 1459 2918 1024 
C 2918 595 2918 377 3110 160 
C 3354 -102 3680 -128 3821 -128 
C 4294 -128 4365 396 4365 503 
C 4365 540 4365 585 4307 585 
C 4256 585 4250 547 4250 522 
C 4218 112 4032 -26 3834 -26 
C 3482 -26 3443 375 3405 764 
C 3386 898 3373 993 3360 1133 
C 3322 1452 3270 1917 2509 2146 
z
M 1984 2214 
L 1254 2214 
L 1254 3913 
C 1254 4129 1267 4160 1523 4160 
L 1990 4160 
C 2522 4160 3142 3977 3142 3190 
C 3142 2372 2464 2214 1984 2214 
z
" id="CMR17-52" transform="scale(0.015625)"/>
      <path d="M 2502 2163 
C 2560 2304 2662 2560 3034 2560 
L 3034 2726 
C 2912 2726 2752 2726 2630 2726 
C 2496 2726 2285 2726 2157 2732 
L 2157 2566 
C 2317 2553 2406 2477 2406 2311 
C 2406 2253 2406 2240 2368 2151 
L 1664 377 
L 902 2286 
C 864 2369 864 2381 864 2407 
C 864 2560 1075 2560 1171 2560 
L 1171 2732 
C 1018 2726 736 2726 576 2726 
C 403 2726 205 2726 64 2732 
L 64 2560 
C 307 2560 442 2560 518 2362 
L 1446 44 
C 1485 -51 1491 -64 1549 -64 
C 1606 -64 1613 -51 1651 44 
L 2502 2163 
z
" id="CMR17-76" transform="scale(0.015625)"/>
     </defs>
     <use transform="scale(0.996264)" xlink:href="#CMR17-28"/>
     <use transform="translate(35.280768 0)scale(0.996264)" xlink:href="#CMR17-62"/>
     <use transform="translate(86.176138 0)scale(0.996264)" xlink:href="#CMR17-29"/>
     <use transform="translate(151.532872 0)scale(0.996264)" xlink:href="#CMR17-52"/>
     <use transform="translate(219.323974 0)scale(0.996264)" xlink:href="#CMR17-65"/>
     <use transform="translate(259.809634 0)scale(0.996264)" xlink:href="#CMR17-6c"/>
     <use transform="translate(284.680693 0)scale(0.996264)" xlink:href="#CMR17-61"/>
     <use transform="translate(330.37117 0)scale(0.996264)" xlink:href="#CMR17-74"/>
     <use transform="translate(365.651938 0)scale(0.996264)" xlink:href="#CMR17-69"/>
     <use transform="translate(390.522996 0)scale(0.996264)" xlink:href="#CMR17-76"/>
     <use transform="translate(436.213458 0)scale(0.996264)" xlink:href="#CMR17-65"/>
     <use transform="translate(506.775085 0)scale(0.996264)" xlink:href="#CMR17-65"/>
     <use transform="translate(547.260745 0)scale(0.996264)" xlink:href="#CMR17-72"/>
     <use transform="translate(582.541513 0)scale(0.996264)" xlink:href="#CMR17-72"/>
     <use transform="translate(617.822281 0)scale(0.996264)" xlink:href="#CMR17-6f"/>
     <use transform="translate(663.512758 0)scale(0.996264)" xlink:href="#CMR17-72"/>
     <use transform="translate(728.869492 0)scale(0.996264)" xlink:href="#CMR17-6f"/>
     <use transform="translate(774.559969 0)scale(0.996264)" xlink:href="#CMR17-66"/>
     <use transform="translate(832.109448 0)scale(0.996264)" xlink:href="#CMR17-69"/>
     <use transform="translate(856.980506 0)scale(0.996264)" xlink:href="#CMR17-6e"/>
     <use transform="translate(905.273422 0)scale(0.996264)" xlink:href="#CMR17-74"/>
     <use transform="translate(940.55419 0)scale(0.996264)" xlink:href="#CMR17-65"/>
     <use transform="translate(981.039851 0)scale(0.996264)" xlink:href="#CMR17-72"/>
     <use transform="translate(1016.320618 0)scale(0.996264)" xlink:href="#CMR17-70"/>
     <use transform="translate(1069.818427 0)scale(0.996264)" xlink:href="#CMR17-6f"/>
     <use transform="translate(1115.508904 0)scale(0.996264)" xlink:href="#CMR17-6c"/>
     <use transform="translate(1140.379962 0)scale(0.996264)" xlink:href="#CMR17-61"/>
     <use transform="translate(1186.07044 0)scale(0.996264)" xlink:href="#CMR17-74"/>
     <use transform="translate(1221.351207 0)scale(0.996264)" xlink:href="#CMR17-69"/>
     <use transform="translate(1246.222266 0)scale(0.996264)" xlink:href="#CMR17-6f"/>
     <use transform="translate(1291.912743 0)scale(0.996264)" xlink:href="#CMR17-6e"/>
     <use transform="translate(1342.808113 0)scale(0.996264)" xlink:href="#CMR17-2c"/>
     <use transform="translate(1397.755138 0)scale(0.996264)" xlink:href="#CMMI12-70"/>
     <use transform="translate(1474.38866 0)scale(0.996264)" xlink:href="#CMR17-3d"/>
     <use transform="translate(1573.777457 0)scale(0.996264)" xlink:href="#CMSY10-0"/>
     <use transform="translate(1651.264925 0)scale(0.996264)" xlink:href="#CMR17-31"/>
    </g>
   </g>
   <g id="legend_2">
    <g id="patch_13">
     <path d="M 491.291851 75.343646 
L 624.05136 75.343646 
Q 626.4504 75.343646 626.4504 72.944606 
L 626.4504 40.708279 
Q 626.4504 38.309239 624.05136 38.309239 
L 491.291851 38.309239 
Q 488.892811 38.309239 488.892811 40.708279 
L 488.892811 72.944606 
Q 488.892811 75.343646 491.291851 75.343646 
z
" style="fill:#ffffff;opacity:0.8;stroke:#cccccc;stroke-linejoin:miter;"/>
    </g>
    <g id="line2d_69"/>
    <g id="line2d_70">
     <g>
      <use style="fill:#b22222;stroke:#b22222;" x="505.686091" xlink:href="#mc5304ef0ed" y="47.305639"/>
     </g>
    </g>
    <g id="text_27">
     <!-- Interpolant points -->
     <g style="fill:#262626;" transform="translate(527.277451 51.503959)scale(0.119952 -0.119952)">
      <use transform="scale(0.996264)" xlink:href="#CMR17-49"/>
      <use transform="translate(32.638409 0)scale(0.996264)" xlink:href="#CMR17-6e"/>
      <use transform="translate(80.931325 0)scale(0.996264)" xlink:href="#CMR17-74"/>
      <use transform="translate(116.212093 0)scale(0.996264)" xlink:href="#CMR17-65"/>
      <use transform="translate(156.697753 0)scale(0.996264)" xlink:href="#CMR17-72"/>
      <use transform="translate(191.978521 0)scale(0.996264)" xlink:href="#CMR17-70"/>
      <use transform="translate(245.47633 0)scale(0.996264)" xlink:href="#CMR17-6f"/>
      <use transform="translate(291.166807 0)scale(0.996264)" xlink:href="#CMR17-6c"/>
      <use transform="translate(316.037865 0)scale(0.996264)" xlink:href="#CMR17-61"/>
      <use transform="translate(361.728342 0)scale(0.996264)" xlink:href="#CMR17-6e"/>
      <use transform="translate(410.021258 0)scale(0.996264)" xlink:href="#CMR17-74"/>
      <use transform="translate(475.377992 0)scale(0.996264)" xlink:href="#CMR17-70"/>
      <use transform="translate(528.875801 0)scale(0.996264)" xlink:href="#CMR17-6f"/>
      <use transform="translate(574.566278 0)scale(0.996264)" xlink:href="#CMR17-69"/>
      <use transform="translate(599.437336 0)scale(0.996264)" xlink:href="#CMR17-6e"/>
      <use transform="translate(647.730252 0)scale(0.996264)" xlink:href="#CMR17-74"/>
      <use transform="translate(683.01102 0)scale(0.996264)" xlink:href="#CMR17-73"/>
     </g>
    </g>
    <g id="line2d_71">
     <path d="M 493.690891 64.023563 
L 517.681291 64.023563 
" style="fill:none;stroke:#000000;stroke-linecap:round;stroke-width:1.5;"/>
    </g>
    <g id="line2d_72"/>
    <g id="text_28">
     <!-- Interpolated -->
     <g style="fill:#262626;" transform="translate(527.277451 68.221883)scale(0.119952 -0.119952)">
      <use transform="scale(0.996264)" xlink:href="#CMR17-49"/>
      <use transform="translate(32.638409 0)scale(0.996264)" xlink:href="#CMR17-6e"/>
      <use transform="translate(80.931325 0)scale(0.996264)" xlink:href="#CMR17-74"/>
      <use transform="translate(116.212093 0)scale(0.996264)" xlink:href="#CMR17-65"/>
      <use transform="translate(156.697753 0)scale(0.996264)" xlink:href="#CMR17-72"/>
      <use transform="translate(191.978521 0)scale(0.996264)" xlink:href="#CMR17-70"/>
      <use transform="translate(245.47633 0)scale(0.996264)" xlink:href="#CMR17-6f"/>
      <use transform="translate(291.166807 0)scale(0.996264)" xlink:href="#CMR17-6c"/>
      <use transform="translate(316.037865 0)scale(0.996264)" xlink:href="#CMR17-61"/>
      <use transform="translate(361.728342 0)scale(0.996264)" xlink:href="#CMR17-74"/>
      <use transform="translate(397.00911 0)scale(0.996264)" xlink:href="#CMR17-65"/>
      <use transform="translate(437.494771 0)scale(0.996264)" xlink:href="#CMR17-64"/>
     </g>
    </g>
   </g>
   <g id="line2d_73">
    <g clip-path="url(#p2c7c894b7c)">
     <use style="fill:#b22222;stroke:#b22222;" x="394.532792" xlink:href="#mc5304ef0ed" y="171.924291"/>
     <use style="fill:#b22222;stroke:#b22222;" x="428.520679" xlink:href="#mc5304ef0ed" y="171.924291"/>
     <use style="fill:#b22222;stroke:#b22222;" x="462.508566" xlink:href="#mc5304ef0ed" y="171.924291"/>
     <use style="fill:#b22222;stroke:#b22222;" x="496.496453" xlink:href="#mc5304ef0ed" y="171.924291"/>
     <use style="fill:#b22222;stroke:#b22222;" x="530.48434" xlink:href="#mc5304ef0ed" y="171.924291"/>
     <use style="fill:#b22222;stroke:#b22222;" x="564.472226" xlink:href="#mc5304ef0ed" y="171.924291"/>
     <use style="fill:#b22222;stroke:#b22222;" x="598.460113" xlink:href="#mc5304ef0ed" y="171.924291"/>
     <use style="fill:#b22222;stroke:#b22222;" x="632.448" xlink:href="#mc5304ef0ed" y="171.924291"/>
    </g>
   </g>
  </g>
 </g>
 <defs>
  <clipPath id="pf2f02bbe71">
   <rect height="202.194753" width="237.915208" x="68.866411" y="32.311639"/>
  </clipPath>
  <clipPath id="p2c7c894b7c">
   <rect height="202.194753" width="237.915208" x="394.532792" y="32.311639"/>
  </clipPath>
 </defs>
</svg>
