<?xml version="1.0" encoding="utf-8" standalone="no"?>
<!DOCTYPE svg PUBLIC "-//W3C//DTD SVG 1.1//EN"
  "http://www.w3.org/Graphics/SVG/1.1/DTD/svg11.dtd">
<svg height="252pt" version="1.1" viewBox="0 0 325.79075 252" width="325.79075pt" xmlns="http://www.w3.org/2000/svg" xmlns:xlink="http://www.w3.org/1999/xlink">
 <metadata>
  <rdf:RDF xmlns:cc="http://creativecommons.org/ns#" xmlns:dc="http://purl.org/dc/elements/1.1/" xmlns:rdf="http://www.w3.org/1999/02/22-rdf-syntax-ns#">
   <cc:Work>
    <dc:type rdf:resource="http://purl.org/dc/dcmitype/StillImage"/>
    <dc:date>2022-03-31T22:15:30.953925</dc:date>
    <dc:format>image/svg+xml</dc:format>
    <dc:creator>
     <cc:Agent>
      <dc:title>Matplotlib v3.4.2, https://matplotlib.org/</dc:title>
     </cc:Agent>
    </dc:creator>
   </cc:Work>
  </rdf:RDF>
 </metadata>
 <defs>
  <style type="text/css">*{stroke-linecap:butt;stroke-linejoin:round;}</style>
 </defs>
 <g id="figure_1">
  <g id="patch_1">
   <path d="M -0 252 
L 325.79075 252 
L 325.79075 0 
L -0 0 
z
" style="fill:#ffffff;"/>
  </g>
  <g id="axes_1">
   <g id="patch_2">
    <path d="M 57.303423 216.088647 
L 311.623796 216.088647 
L 311.623796 22.166376 
L 57.303423 22.166376 
z
" style="fill:#ffffff;"/>
   </g>
   <g id="matplotlib.axis_1">
    <g id="xtick_1">
     <g id="line2d_1">
      <path clip-path="url(#p6818f4521b)" d="M 57.303423 216.088647 
L 57.303423 22.166376 
" style="fill:none;stroke:#cccccc;stroke-linecap:round;stroke-width:0.8;"/>
     </g>
     <g id="line2d_2">
      <defs>
       <path d="M 0 0 
L 0 3.5 
" id="mb7408e80e8" style="stroke:#262626;stroke-width:0.8;"/>
      </defs>
      <g>
       <use style="fill:#262626;stroke:#262626;stroke-width:0.8;" x="57.303423" xlink:href="#mb7408e80e8" y="216.088647"/>
      </g>
     </g>
     <g id="text_1">
      <!-- $\mathdefault{-10^{-3}}$ -->
      <g style="fill:#262626;" transform="translate(43.348765 230.007145)scale(0.1 -0.1)">
       <defs>
        <path d="M 4218 1472 
C 4326 1472 4442 1472 4442 1600 
C 4442 1728 4326 1728 4218 1728 
L 755 1728 
C 646 1728 531 1728 531 1600 
C 531 1472 646 1472 755 1472 
L 4218 1472 
z
" id="CMSY10-0" transform="scale(0.015625)"/>
        <path d="M 1702 4058 
C 1702 4192 1696 4192 1606 4192 
C 1357 3916 979 3827 621 3827 
C 602 3827 570 3827 563 3808 
C 557 3795 557 3782 557 3648 
C 755 3648 1088 3686 1344 3839 
L 1344 461 
C 1344 236 1331 160 781 160 
L 589 160 
L 589 0 
C 896 0 1216 0 1523 0 
C 1830 0 2150 0 2458 0 
L 2458 160 
L 2266 160 
C 1715 160 1702 230 1702 458 
L 1702 4058 
z
" id="CMR17-31" transform="scale(0.015625)"/>
        <path d="M 2688 2025 
C 2688 2416 2682 3080 2413 3591 
C 2176 4039 1798 4198 1466 4198 
C 1158 4198 768 4058 525 3597 
C 269 3118 243 2524 243 2025 
C 243 1661 250 1106 448 619 
C 723 -39 1216 -128 1466 -128 
C 1760 -128 2208 -7 2470 600 
C 2662 1042 2688 1559 2688 2025 
z
M 1466 -26 
C 1056 -26 813 325 723 812 
C 653 1188 653 1738 653 2096 
C 653 2588 653 2997 736 3387 
C 858 3929 1216 4096 1466 4096 
C 1728 4096 2067 3923 2189 3400 
C 2272 3036 2278 2607 2278 2096 
C 2278 1680 2278 1169 2202 792 
C 2067 95 1690 -26 1466 -26 
z
" id="CMR17-30" transform="scale(0.015625)"/>
        <path d="M 1414 2157 
C 1984 2157 2234 1662 2234 1090 
C 2234 320 1824 25 1453 25 
C 1114 25 563 194 390 693 
C 422 680 454 680 486 680 
C 640 680 755 782 755 948 
C 755 1133 614 1216 486 1216 
C 378 1216 211 1165 211 926 
C 211 335 787 -128 1466 -128 
C 2176 -128 2720 430 2720 1085 
C 2720 1707 2208 2157 1600 2227 
C 2086 2328 2554 2756 2554 3329 
C 2554 3820 2048 4179 1472 4179 
C 890 4179 378 3829 378 3329 
C 378 3110 544 3072 627 3072 
C 762 3072 877 3155 877 3321 
C 877 3486 762 3569 627 3569 
C 602 3569 570 3569 544 3557 
C 730 3959 1235 4032 1459 4032 
C 1683 4032 2106 3925 2106 3320 
C 2106 3143 2080 2828 1862 2550 
C 1670 2304 1453 2304 1242 2284 
C 1210 2284 1062 2269 1037 2269 
C 992 2263 966 2257 966 2208 
C 966 2163 973 2157 1101 2157 
L 1414 2157 
z
" id="CMR17-33" transform="scale(0.015625)"/>
       </defs>
       <use transform="scale(0.996264)" xlink:href="#CMSY10-0"/>
       <use transform="translate(77.487468 0)scale(0.996264)" xlink:href="#CMR17-31"/>
       <use transform="translate(123.177945 0)scale(0.996264)" xlink:href="#CMR17-30"/>
       <use transform="translate(168.868422 36.153639)scale(0.697382)" xlink:href="#CMSY10-0"/>
       <use transform="translate(223.109415 36.153639)scale(0.697382)" xlink:href="#CMR17-33"/>
      </g>
     </g>
    </g>
    <g id="xtick_2">
     <g id="line2d_3">
      <path clip-path="url(#p6818f4521b)" d="M 99.173241 216.088647 
L 99.173241 22.166376 
" style="fill:none;stroke:#cccccc;stroke-linecap:round;stroke-width:0.8;"/>
     </g>
     <g id="line2d_4">
      <g>
       <use style="fill:#262626;stroke:#262626;stroke-width:0.8;" x="99.173241" xlink:href="#mb7408e80e8" y="216.088647"/>
      </g>
     </g>
     <g id="text_2">
      <!-- $\mathdefault{-10^{-6}}$ -->
      <g style="fill:#262626;" transform="translate(85.218582 230.007145)scale(0.1 -0.1)">
       <defs>
        <path d="M 678 2176 
C 678 3690 1395 4032 1811 4032 
C 1946 4032 2272 4009 2400 3776 
C 2298 3776 2106 3776 2106 3553 
C 2106 3381 2246 3323 2336 3323 
C 2394 3323 2566 3348 2566 3560 
C 2566 3954 2246 4179 1805 4179 
C 1043 4179 243 3390 243 1984 
C 243 253 966 -128 1478 -128 
C 2099 -128 2688 427 2688 1283 
C 2688 2081 2170 2662 1517 2662 
C 1126 2662 838 2407 678 1960 
L 678 2176 
z
M 1478 25 
C 691 25 691 1200 691 1436 
C 691 1896 909 2560 1504 2560 
C 1613 2560 1926 2560 2138 2120 
C 2253 1870 2253 1609 2253 1289 
C 2253 944 2253 690 2118 434 
C 1978 171 1773 25 1478 25 
z
" id="CMR17-36" transform="scale(0.015625)"/>
       </defs>
       <use transform="scale(0.996264)" xlink:href="#CMSY10-0"/>
       <use transform="translate(77.487468 0)scale(0.996264)" xlink:href="#CMR17-31"/>
       <use transform="translate(123.177945 0)scale(0.996264)" xlink:href="#CMR17-30"/>
       <use transform="translate(168.868422 36.153639)scale(0.697382)" xlink:href="#CMSY10-0"/>
       <use transform="translate(223.109415 36.153639)scale(0.697382)" xlink:href="#CMR17-36"/>
      </g>
     </g>
    </g>
    <g id="xtick_3">
     <g id="line2d_5">
      <path clip-path="url(#p6818f4521b)" d="M 142.593792 216.088647 
L 142.593792 22.166376 
" style="fill:none;stroke:#cccccc;stroke-linecap:round;stroke-width:0.8;"/>
     </g>
     <g id="line2d_6">
      <g>
       <use style="fill:#262626;stroke:#262626;stroke-width:0.8;" x="142.593792" xlink:href="#mb7408e80e8" y="216.088647"/>
      </g>
     </g>
     <g id="text_3">
      <!-- $\mathdefault{0}$ -->
      <g style="fill:#262626;" transform="translate(140.103125 230.007145)scale(0.1 -0.1)">
       <use transform="scale(0.996264)" xlink:href="#CMR17-30"/>
      </g>
     </g>
    </g>
    <g id="xtick_4">
     <g id="line2d_7">
      <path clip-path="url(#p6818f4521b)" d="M 186.014344 216.088647 
L 186.014344 22.166376 
" style="fill:none;stroke:#cccccc;stroke-linecap:round;stroke-width:0.8;"/>
     </g>
     <g id="line2d_8">
      <g>
       <use style="fill:#262626;stroke:#262626;stroke-width:0.8;" x="186.014344" xlink:href="#mb7408e80e8" y="216.088647"/>
      </g>
     </g>
     <g id="text_4">
      <!-- $\mathdefault{10^{-6}}$ -->
      <g style="fill:#262626;" transform="translate(175.934057 230.007145)scale(0.1 -0.1)">
       <use transform="scale(0.996264)" xlink:href="#CMR17-31"/>
       <use transform="translate(45.690477 0)scale(0.996264)" xlink:href="#CMR17-30"/>
       <use transform="translate(91.380954 36.153639)scale(0.697382)" xlink:href="#CMSY10-0"/>
       <use transform="translate(145.621947 36.153639)scale(0.697382)" xlink:href="#CMR17-36"/>
      </g>
     </g>
    </g>
    <g id="xtick_5">
     <g id="line2d_9">
      <path clip-path="url(#p6818f4521b)" d="M 227.884161 216.088647 
L 227.884161 22.166376 
" style="fill:none;stroke:#cccccc;stroke-linecap:round;stroke-width:0.8;"/>
     </g>
     <g id="line2d_10">
      <g>
       <use style="fill:#262626;stroke:#262626;stroke-width:0.8;" x="227.884161" xlink:href="#mb7408e80e8" y="216.088647"/>
      </g>
     </g>
     <g id="text_5">
      <!-- $\mathdefault{10^{-3}}$ -->
      <g style="fill:#262626;" transform="translate(217.803874 230.007145)scale(0.1 -0.1)">
       <use transform="scale(0.996264)" xlink:href="#CMR17-31"/>
       <use transform="translate(45.690477 0)scale(0.996264)" xlink:href="#CMR17-30"/>
       <use transform="translate(91.380954 36.153639)scale(0.697382)" xlink:href="#CMSY10-0"/>
       <use transform="translate(145.621947 36.153639)scale(0.697382)" xlink:href="#CMR17-33"/>
      </g>
     </g>
    </g>
    <g id="xtick_6">
     <g id="line2d_11">
      <path clip-path="url(#p6818f4521b)" d="M 269.753979 216.088647 
L 269.753979 22.166376 
" style="fill:none;stroke:#cccccc;stroke-linecap:round;stroke-width:0.8;"/>
     </g>
     <g id="line2d_12">
      <g>
       <use style="fill:#262626;stroke:#262626;stroke-width:0.8;" x="269.753979" xlink:href="#mb7408e80e8" y="216.088647"/>
      </g>
     </g>
     <g id="text_6">
      <!-- $\mathdefault{10^{0}}$ -->
      <g style="fill:#262626;" transform="translate(262.787025 230.007145)scale(0.1 -0.1)">
       <use transform="scale(0.996264)" xlink:href="#CMR17-31"/>
       <use transform="translate(45.690477 0)scale(0.996264)" xlink:href="#CMR17-30"/>
       <use transform="translate(91.380954 36.153639)scale(0.697382)" xlink:href="#CMR17-30"/>
      </g>
     </g>
    </g>
    <g id="xtick_7">
     <g id="line2d_13">
      <path clip-path="url(#p6818f4521b)" d="M 311.623796 216.088647 
L 311.623796 22.166376 
" style="fill:none;stroke:#cccccc;stroke-linecap:round;stroke-width:0.8;"/>
     </g>
     <g id="line2d_14">
      <g>
       <use style="fill:#262626;stroke:#262626;stroke-width:0.8;" x="311.623796" xlink:href="#mb7408e80e8" y="216.088647"/>
      </g>
     </g>
     <g id="text_7">
      <!-- $\mathdefault{10^{3}}$ -->
      <g style="fill:#262626;" transform="translate(304.656842 230.007145)scale(0.1 -0.1)">
       <use transform="scale(0.996264)" xlink:href="#CMR17-31"/>
       <use transform="translate(45.690477 0)scale(0.996264)" xlink:href="#CMR17-30"/>
       <use transform="translate(91.380954 36.153639)scale(0.697382)" xlink:href="#CMR17-33"/>
      </g>
     </g>
    </g>
    <g id="xtick_8"/>
    <g id="xtick_9"/>
    <g id="xtick_10"/>
    <g id="xtick_11"/>
    <g id="xtick_12"/>
    <g id="xtick_13"/>
    <g id="xtick_14"/>
    <g id="xtick_15"/>
    <g id="xtick_16"/>
    <g id="xtick_17"/>
    <g id="xtick_18"/>
    <g id="xtick_19"/>
    <g id="text_8">
     <!-- $t$ -->
     <g style="fill:#262626;" transform="translate(182.664798 242.862822)scale(0.1 -0.1)">
      <defs>
       <path d="M 1286 2566 
L 1875 2566 
C 1997 2566 2061 2566 2061 2681 
C 2061 2752 2022 2752 1894 2752 
L 1331 2752 
L 1568 3692 
C 1594 3781 1594 3794 1594 3840 
C 1594 3943 1510 4000 1427 4000 
C 1376 4000 1229 3981 1178 3775 
L 928 2752 
L 326 2752 
C 198 2752 141 2752 141 2630 
C 141 2566 186 2566 307 2566 
L 877 2566 
L 454 881 
C 403 658 384 594 384 511 
C 384 211 595 -64 954 -64 
C 1600 -64 1946 868 1946 912 
C 1946 951 1920 970 1882 970 
C 1869 970 1843 970 1830 944 
C 1824 938 1818 931 1773 829 
C 1638 511 1344 64 973 64 
C 781 64 768 224 768 364 
C 768 370 768 492 787 568 
L 1286 2566 
z
" id="CMMI12-74" transform="scale(0.015625)"/>
      </defs>
      <use transform="scale(0.996264)" xlink:href="#CMMI12-74"/>
     </g>
    </g>
   </g>
   <g id="matplotlib.axis_2">
    <g id="ytick_1">
     <g id="line2d_15">
      <path clip-path="url(#p6818f4521b)" d="M 57.303423 216.088647 
L 311.623796 216.088647 
" style="fill:none;stroke:#cccccc;stroke-linecap:round;stroke-width:0.8;"/>
     </g>
     <g id="line2d_16">
      <defs>
       <path d="M 0 0 
L -3.5 0 
" id="m5c5d2965ee" style="stroke:#262626;stroke-width:0.8;"/>
      </defs>
      <g>
       <use style="fill:#262626;stroke:#262626;stroke-width:0.8;" x="57.303423" xlink:href="#m5c5d2965ee" y="216.088647"/>
      </g>
     </g>
     <g id="text_9">
      <!-- −1.0\% -->
      <g style="fill:#262626;" transform="translate(21.522375 219.547896)scale(0.1 -0.1)">
       <defs>
        <path d="M 1062 261 
C 1062 420 934 522 800 522 
C 672 522 538 420 538 261 
C 538 102 666 0 800 0 
C 928 0 1062 102 1062 261 
z
" id="CMR17-2e" transform="scale(0.015625)"/>
        <path d="M 4640 959 
C 4640 1698 4275 2240 3846 2240 
C 3411 2240 2970 1736 2970 959 
C 2970 183 3405 -320 3846 -320 
C 4275 -320 4640 215 4640 959 
z
M 3853 -218 
C 3686 -218 3270 -66 3270 959 
C 3270 1991 3686 2138 3853 2138 
C 4205 2138 4525 1634 4525 959 
C 4525 285 4205 -218 3853 -218 
z
M 4083 4577 
C 4128 4647 4134 4653 4134 4685 
C 4134 4761 4077 4800 4026 4800 
C 3962 4800 3936 4756 3891 4706 
C 3520 4190 3008 4134 2746 4134 
C 2106 4134 1715 4494 1594 4607 
C 1510 4682 1389 4800 1171 4800 
C 736 4800 294 4296 294 3519 
C 294 2743 730 2240 1171 2240 
C 1600 2240 1965 2778 1965 3527 
C 1965 3969 1830 4270 1811 4308 
C 2202 4064 2586 4032 2752 4032 
C 3162 4032 3456 4183 3616 4289 
L 3622 4283 
L 858 -84 
C 800 -174 800 -187 800 -206 
C 800 -276 858 -320 915 -320 
C 973 -320 992 -289 1037 -218 
L 4083 4577 
z
M 1178 2342 
C 1011 2342 595 2494 595 3519 
C 595 4551 1011 4698 1178 4698 
C 1530 4698 1850 4194 1850 3519 
C 1850 2845 1530 2342 1178 2342 
z
" id="CMR17-25" transform="scale(0.015625)"/>
       </defs>
       <use transform="scale(0.996264)" xlink:href="#CMSY10-0"/>
       <use transform="translate(77.487468 0)scale(0.996264)" xlink:href="#CMR17-31"/>
       <use transform="translate(123.177945 0)scale(0.996264)" xlink:href="#CMR17-2e"/>
       <use transform="translate(148.049003 0)scale(0.996264)" xlink:href="#CMR17-30"/>
       <use transform="translate(193.73948 0)scale(0.996264)" xlink:href="#CMR17-25"/>
      </g>
     </g>
    </g>
    <g id="ytick_2">
     <g id="line2d_17">
      <path clip-path="url(#p6818f4521b)" d="M 57.303423 183.768268 
L 311.623796 183.768268 
" style="fill:none;stroke:#cccccc;stroke-linecap:round;stroke-width:0.8;"/>
     </g>
     <g id="line2d_18">
      <g>
       <use style="fill:#262626;stroke:#262626;stroke-width:0.8;" x="57.303423" xlink:href="#m5c5d2965ee" y="183.768268"/>
      </g>
     </g>
     <g id="text_10">
      <!-- −0.5\% -->
      <g style="fill:#262626;" transform="translate(21.522375 187.227517)scale(0.1 -0.1)">
       <defs>
        <path d="M 730 3692 
C 794 3666 1056 3584 1325 3584 
C 1920 3584 2246 3911 2432 4100 
C 2432 4157 2432 4192 2394 4192 
C 2387 4192 2374 4192 2323 4163 
C 2099 4058 1837 3973 1517 3973 
C 1325 3973 1037 3999 723 4139 
C 653 4171 640 4171 634 4171 
C 602 4171 595 4164 595 4037 
L 595 2203 
C 595 2089 595 2057 659 2057 
C 691 2057 704 2070 736 2114 
C 941 2401 1222 2522 1542 2522 
C 1766 2522 2246 2382 2246 1289 
C 2246 1085 2246 715 2054 421 
C 1894 159 1645 25 1370 25 
C 947 25 518 320 403 814 
C 429 807 480 795 506 795 
C 589 795 749 840 749 1038 
C 749 1210 627 1280 506 1280 
C 358 1280 262 1190 262 1011 
C 262 454 704 -128 1382 -128 
C 2042 -128 2669 440 2669 1264 
C 2669 2030 2170 2624 1549 2624 
C 1222 2624 947 2503 730 2274 
L 730 3692 
z
" id="CMR17-35" transform="scale(0.015625)"/>
       </defs>
       <use transform="scale(0.996264)" xlink:href="#CMSY10-0"/>
       <use transform="translate(77.487468 0)scale(0.996264)" xlink:href="#CMR17-30"/>
       <use transform="translate(123.177945 0)scale(0.996264)" xlink:href="#CMR17-2e"/>
       <use transform="translate(148.049003 0)scale(0.996264)" xlink:href="#CMR17-35"/>
       <use transform="translate(193.73948 0)scale(0.996264)" xlink:href="#CMR17-25"/>
      </g>
     </g>
    </g>
    <g id="ytick_3">
     <g id="line2d_19">
      <path clip-path="url(#p6818f4521b)" d="M 57.303423 151.44789 
L 311.623796 151.44789 
" style="fill:none;stroke:#cccccc;stroke-linecap:round;stroke-width:0.8;"/>
     </g>
     <g id="line2d_20">
      <g>
       <use style="fill:#262626;stroke:#262626;stroke-width:0.8;" x="57.303423" xlink:href="#m5c5d2965ee" y="151.44789"/>
      </g>
     </g>
     <g id="text_11">
      <!-- 0.0\% -->
      <g style="fill:#262626;" transform="translate(29.271119 154.907139)scale(0.1 -0.1)">
       <use transform="scale(0.996264)" xlink:href="#CMR17-30"/>
       <use transform="translate(45.690477 0)scale(0.996264)" xlink:href="#CMR17-2e"/>
       <use transform="translate(70.561536 0)scale(0.996264)" xlink:href="#CMR17-30"/>
       <use transform="translate(116.252013 0)scale(0.996264)" xlink:href="#CMR17-25"/>
      </g>
     </g>
    </g>
    <g id="ytick_4">
     <g id="line2d_21">
      <path clip-path="url(#p6818f4521b)" d="M 57.303423 119.127511 
L 311.623796 119.127511 
" style="fill:none;stroke:#cccccc;stroke-linecap:round;stroke-width:0.8;"/>
     </g>
     <g id="line2d_22">
      <g>
       <use style="fill:#262626;stroke:#262626;stroke-width:0.8;" x="57.303423" xlink:href="#m5c5d2965ee" y="119.127511"/>
      </g>
     </g>
     <g id="text_12">
      <!-- 0.5\% -->
      <g style="fill:#262626;" transform="translate(29.271119 122.586761)scale(0.1 -0.1)">
       <use transform="scale(0.996264)" xlink:href="#CMR17-30"/>
       <use transform="translate(45.690477 0)scale(0.996264)" xlink:href="#CMR17-2e"/>
       <use transform="translate(70.561536 0)scale(0.996264)" xlink:href="#CMR17-35"/>
       <use transform="translate(116.252013 0)scale(0.996264)" xlink:href="#CMR17-25"/>
      </g>
     </g>
    </g>
    <g id="ytick_5">
     <g id="line2d_23">
      <path clip-path="url(#p6818f4521b)" d="M 57.303423 86.807133 
L 311.623796 86.807133 
" style="fill:none;stroke:#cccccc;stroke-linecap:round;stroke-width:0.8;"/>
     </g>
     <g id="line2d_24">
      <g>
       <use style="fill:#262626;stroke:#262626;stroke-width:0.8;" x="57.303423" xlink:href="#m5c5d2965ee" y="86.807133"/>
      </g>
     </g>
     <g id="text_13">
      <!-- 1.0\% -->
      <g style="fill:#262626;" transform="translate(29.271119 90.266382)scale(0.1 -0.1)">
       <use transform="scale(0.996264)" xlink:href="#CMR17-31"/>
       <use transform="translate(45.690477 0)scale(0.996264)" xlink:href="#CMR17-2e"/>
       <use transform="translate(70.561536 0)scale(0.996264)" xlink:href="#CMR17-30"/>
       <use transform="translate(116.252013 0)scale(0.996264)" xlink:href="#CMR17-25"/>
      </g>
     </g>
    </g>
    <g id="ytick_6">
     <g id="line2d_25">
      <path clip-path="url(#p6818f4521b)" d="M 57.303423 54.486755 
L 311.623796 54.486755 
" style="fill:none;stroke:#cccccc;stroke-linecap:round;stroke-width:0.8;"/>
     </g>
     <g id="line2d_26">
      <g>
       <use style="fill:#262626;stroke:#262626;stroke-width:0.8;" x="57.303423" xlink:href="#m5c5d2965ee" y="54.486755"/>
      </g>
     </g>
     <g id="text_14">
      <!-- 1.5\% -->
      <g style="fill:#262626;" transform="translate(29.271119 57.946004)scale(0.1 -0.1)">
       <use transform="scale(0.996264)" xlink:href="#CMR17-31"/>
       <use transform="translate(45.690477 0)scale(0.996264)" xlink:href="#CMR17-2e"/>
       <use transform="translate(70.561536 0)scale(0.996264)" xlink:href="#CMR17-35"/>
       <use transform="translate(116.252013 0)scale(0.996264)" xlink:href="#CMR17-25"/>
      </g>
     </g>
    </g>
    <g id="ytick_7">
     <g id="line2d_27">
      <path clip-path="url(#p6818f4521b)" d="M 57.303423 22.166376 
L 311.623796 22.166376 
" style="fill:none;stroke:#cccccc;stroke-linecap:round;stroke-width:0.8;"/>
     </g>
     <g id="line2d_28">
      <g>
       <use style="fill:#262626;stroke:#262626;stroke-width:0.8;" x="57.303423" xlink:href="#m5c5d2965ee" y="22.166376"/>
      </g>
     </g>
     <g id="text_15">
      <!-- 2.0\% -->
      <g style="fill:#262626;" transform="translate(29.271119 25.625625)scale(0.1 -0.1)">
       <defs>
        <path d="M 2669 989 
L 2554 989 
C 2490 536 2438 459 2413 420 
C 2381 369 1920 369 1830 369 
L 602 369 
C 832 619 1280 1072 1824 1597 
C 2214 1967 2669 2402 2669 3035 
C 2669 3790 2067 4224 1395 4224 
C 691 4224 262 3604 262 3030 
C 262 2780 448 2748 525 2748 
C 589 2748 781 2787 781 3010 
C 781 3207 614 3264 525 3264 
C 486 3264 448 3258 422 3245 
C 544 3790 915 4058 1306 4058 
C 1862 4058 2227 3617 2227 3035 
C 2227 2479 1901 2000 1536 1584 
L 262 146 
L 262 0 
L 2515 0 
L 2669 989 
z
" id="CMR17-32" transform="scale(0.015625)"/>
       </defs>
       <use transform="scale(0.996264)" xlink:href="#CMR17-32"/>
       <use transform="translate(45.690477 0)scale(0.996264)" xlink:href="#CMR17-2e"/>
       <use transform="translate(70.561536 0)scale(0.996264)" xlink:href="#CMR17-30"/>
       <use transform="translate(116.252013 0)scale(0.996264)" xlink:href="#CMR17-25"/>
      </g>
     </g>
    </g>
    <g id="text_16">
     <!-- $1-\tau_{\mathrm{approx}}(t)/\tau_{\mathrm{exact}}(t)$ -->
     <g style="fill:#262626;" transform="translate(14.67198 167.487938)rotate(-90)scale(0.1 -0.1)">
      <defs>
       <path d="M 1837 2408 
L 2899 2408 
C 2982 2408 3194 2408 3194 2612 
C 3194 2752 3072 2752 2957 2752 
L 1197 2752 
C 1050 2752 832 2752 538 2440 
C 371 2255 166 1917 166 1879 
C 166 1841 198 1828 237 1828 
C 282 1828 288 1847 320 1885 
C 653 2408 986 2408 1146 2408 
L 1677 2408 
L 1011 223 
C 979 127 979 114 979 95 
C 979 25 1024 -64 1152 -64 
C 1350 -64 1382 108 1402 203 
L 1837 2408 
z
" id="CMMI12-1c" transform="scale(0.015625)"/>
       <path d="M 2304 1653 
C 2304 2072 2304 2294 2035 2543 
C 1798 2752 1523 2816 1306 2816 
C 800 2816 435 2407 435 1971 
C 435 1728 627 1728 666 1728 
C 749 1728 896 1778 896 1954 
C 896 2112 774 2181 666 2181 
C 640 2181 608 2174 589 2168 
C 723 2592 1069 2714 1293 2714 
C 1613 2714 1965 2429 1965 1885 
L 1965 1600 
C 1587 1600 1133 1549 774 1357 
C 371 1133 256 813 256 570 
C 256 77 832 -64 1171 -64 
C 1523 -64 1850 139 1990 511 
C 2003 233 2182 -18 2464 -18 
C 2598 -18 2938 70 2938 567 
L 2938 920 
L 2822 920 
L 2822 562 
C 2822 178 2650 128 2566 128 
C 2304 128 2304 458 2304 738 
L 2304 1653 
z
M 1965 870 
C 1965 317 1568 38 1216 38 
C 896 38 646 275 646 570 
C 646 761 730 1100 1101 1305 
C 1408 1478 1760 1504 1965 1504 
L 1965 870 
z
" id="CMR17-61" transform="scale(0.015625)"/>
       <path d="M 1408 -1063 
C 998 -1063 973 -1037 973 -789 
L 973 402 
C 1158 134 1427 -38 1766 -38 
C 2406 -38 3053 523 3053 1388 
C 3053 2191 2496 2802 1837 2802 
C 1453 2802 1139 2592 960 2338 
L 960 2802 
L 198 2732 
L 198 2567 
C 576 2567 634 2528 634 2223 
L 634 -789 
C 634 -1031 608 -1063 198 -1063 
L 198 -1228 
C 352 -1216 634 -1216 800 -1216 
C 966 -1216 1254 -1216 1408 -1228 
L 1408 -1063 
z
M 973 2012 
C 973 2102 973 2235 1222 2471 
C 1254 2497 1472 2688 1792 2688 
C 2259 2688 2643 2108 2643 1382 
C 2643 656 2234 64 1728 64 
C 1498 64 1248 172 1056 472 
C 973 612 973 650 973 752 
L 973 2012 
z
" id="CMR17-70" transform="scale(0.015625)"/>
       <path d="M 960 1497 
C 960 2112 1222 2688 1702 2688 
C 1747 2688 1792 2682 1837 2662 
C 1837 2662 1696 2617 1696 2452 
C 1696 2298 1818 2234 1914 2234 
C 1990 2234 2131 2279 2131 2458 
C 2131 2663 1926 2790 1709 2790 
C 1222 2790 1011 2317 947 2093 
L 941 2093 
L 941 2790 
L 198 2720 
L 198 2554 
C 576 2554 634 2515 634 2208 
L 634 428 
C 634 184 608 153 198 153 
L 198 -13 
C 352 0 646 0 813 0 
C 998 0 1325 0 1498 -13 
L 1498 153 
C 1037 153 960 153 960 440 
L 960 1497 
z
" id="CMR17-72" transform="scale(0.015625)"/>
       <path d="M 2758 1356 
C 2758 2176 2163 2816 1466 2816 
C 768 2816 173 2176 173 1356 
C 173 551 768 -64 1466 -64 
C 2163 -64 2758 551 2758 1356 
z
M 1466 51 
C 1165 51 909 230 762 480 
C 602 767 582 1126 582 1408 
C 582 1677 595 2010 762 2298 
C 890 2509 1139 2714 1466 2714 
C 1754 2714 1997 2554 2150 2330 
C 2349 2029 2349 1607 2349 1408 
C 2349 1158 2336 775 2163 467 
C 1984 173 1709 51 1466 51 
z
" id="CMR17-6f" transform="scale(0.015625)"/>
       <path d="M 1664 1477 
C 1856 1726 2074 2006 2253 2216 
C 2464 2458 2707 2560 2989 2560 
L 2989 2726 
C 2880 2726 2656 2726 2541 2726 
C 2368 2726 2170 2726 2022 2732 
L 2022 2566 
C 2112 2553 2163 2489 2163 2400 
C 2163 2285 2099 2215 2067 2171 
L 1594 1573 
L 1030 2306 
C 973 2376 973 2388 973 2420 
C 973 2497 1037 2560 1146 2560 
L 1146 2732 
C 992 2726 717 2726 557 2726 
C 384 2726 179 2726 38 2732 
L 38 2560 
C 384 2560 461 2534 614 2343 
L 1350 1395 
C 1363 1382 1395 1344 1395 1325 
C 1395 1299 838 619 768 530 
C 480 185 179 160 6 160 
L 6 0 
C 115 0 339 0 454 0 
C 582 0 864 0 979 -6 
L 979 160 
C 941 166 838 179 838 325 
C 838 440 890 510 947 586 
L 1478 1236 
L 2035 512 
C 2086 442 2163 346 2163 301 
C 2163 211 2086 160 1984 160 
L 1984 -6 
C 2138 0 2413 0 2573 0 
C 2746 0 2950 0 3091 -6 
L 3091 160 
C 2771 160 2675 172 2522 370 
L 1664 1477 
z
" id="CMR17-78" transform="scale(0.015625)"/>
       <path d="M 1958 -1561 
C 1958 -1555 1958 -1542 1939 -1523 
C 1645 -1224 858 -407 858 1581 
C 858 3569 1632 4379 1946 4697 
C 1946 4704 1958 4717 1958 4736 
C 1958 4755 1939 4768 1914 4768 
C 1843 4768 1299 4296 986 3594 
C 666 2887 576 2199 576 1588 
C 576 1128 621 351 1005 -471 
C 1312 -1135 1837 -1600 1914 -1600 
C 1946 -1600 1958 -1587 1958 -1561 
z
" id="CMR17-28" transform="scale(0.015625)"/>
       <path d="M 1683 1581 
C 1683 2040 1638 2817 1254 3639 
C 947 4303 422 4768 346 4768 
C 326 4768 301 4761 301 4729 
C 301 4717 307 4710 314 4697 
C 621 4378 1402 3568 1402 1584 
C 1402 -407 627 -1217 314 -1537 
C 307 -1549 301 -1556 301 -1568 
C 301 -1600 326 -1600 346 -1600 
C 416 -1600 960 -1128 1274 -426 
C 1594 281 1683 969 1683 1581 
z
" id="CMR17-29" transform="scale(0.015625)"/>
       <path d="M 2746 4562 
C 2746 4569 2784 4666 2784 4678 
C 2784 4755 2720 4800 2669 4800 
C 2637 4800 2579 4800 2528 4659 
L 384 -1363 
C 384 -1370 346 -1465 346 -1478 
C 346 -1555 410 -1600 461 -1600 
C 499 -1600 557 -1593 602 -1459 
L 2746 4562 
z
" id="CMMI12-3d" transform="scale(0.015625)"/>
       <path d="M 2438 1472 
C 2464 1498 2464 1511 2464 1576 
C 2464 2238 2118 2816 1389 2816 
C 710 2816 173 2169 173 1383 
C 173 551 781 -64 1459 -64 
C 2176 -64 2458 607 2458 740 
C 2458 784 2419 784 2406 784 
C 2362 784 2355 771 2330 696 
C 2189 265 1837 51 1504 51 
C 1229 51 954 203 781 480 
C 582 803 582 1176 582 1472 
L 2438 1472 
z
M 589 1568 
C 634 2505 1126 2714 1382 2714 
C 1818 2714 2112 2297 2118 1568 
L 589 1568 
z
" id="CMR17-65" transform="scale(0.015625)"/>
       <path d="M 2234 2240 
C 2112 2240 1933 2240 1933 2017 
C 1933 1838 2080 1787 2163 1787 
C 2208 1787 2394 1807 2394 2024 
C 2394 2467 1958 2803 1466 2803 
C 787 2803 211 2178 211 1363 
C 211 516 813 -64 1466 -64 
C 2259 -64 2458 677 2458 748 
C 2458 774 2451 793 2406 793 
C 2362 793 2355 787 2330 703 
C 2163 180 1798 51 1523 51 
C 1114 51 621 427 621 1369 
C 621 2338 1094 2688 1472 2688 
C 1722 2688 2093 2573 2234 2240 
z
" id="CMR17-63" transform="scale(0.015625)"/>
       <path d="M 966 2560 
L 1862 2560 
L 1862 2725 
L 966 2725 
L 966 3904 
L 851 3904 
C 838 3245 614 2668 70 2668 
L 70 2560 
L 627 2560 
L 627 771 
C 627 650 627 -64 1370 -64 
C 1747 -64 1965 306 1965 777 
L 1965 1140 
L 1850 1140 
L 1850 783 
C 1850 344 1677 51 1408 51 
C 1222 51 966 178 966 758 
L 966 2560 
z
" id="CMR17-74" transform="scale(0.015625)"/>
      </defs>
      <use transform="scale(0.996264)" xlink:href="#CMR17-31"/>
      <use transform="translate(67.829684 0)scale(0.996264)" xlink:href="#CMSY10-0"/>
      <use transform="translate(167.456359 0)scale(0.996264)" xlink:href="#CMMI12-1c"/>
      <use transform="translate(209.820199 -14.943915)scale(0.697382)" xlink:href="#CMR17-61"/>
      <use transform="translate(241.803381 -14.943915)scale(0.697382)" xlink:href="#CMR17-70"/>
      <use transform="translate(277.42999 -14.943915)scale(0.697382)" xlink:href="#CMR17-70"/>
      <use transform="translate(313.056598 -14.943915)scale(0.697382)" xlink:href="#CMR17-72"/>
      <use transform="translate(337.753018 -14.943915)scale(0.697382)" xlink:href="#CMR17-6f"/>
      <use transform="translate(367.91448 -14.943915)scale(0.697382)" xlink:href="#CMR17-78"/>
      <use transform="translate(402.217499 0)scale(0.996264)" xlink:href="#CMR17-28"/>
      <use transform="translate(437.498267 0)scale(0.996264)" xlink:href="#CMMI12-74"/>
      <use transform="translate(472.724597 0)scale(0.996264)" xlink:href="#CMR17-29"/>
      <use transform="translate(508.005365 0)scale(0.996264)" xlink:href="#CMMI12-3d"/>
      <use transform="translate(556.780284 0)scale(0.996264)" xlink:href="#CMMI12-1c"/>
      <use transform="translate(599.144124 -14.943915)scale(0.697382)" xlink:href="#CMR17-65"/>
      <use transform="translate(627.483956 -14.943915)scale(0.697382)" xlink:href="#CMR17-78"/>
      <use transform="translate(661.288844 -14.943915)scale(0.697382)" xlink:href="#CMR17-61"/>
      <use transform="translate(693.272026 -14.943915)scale(0.697382)" xlink:href="#CMR17-63"/>
      <use transform="translate(721.611857 -14.943915)scale(0.697382)" xlink:href="#CMR17-74"/>
      <use transform="translate(746.80641 0)scale(0.996264)" xlink:href="#CMR17-28"/>
      <use transform="translate(782.087177 0)scale(0.996264)" xlink:href="#CMMI12-74"/>
      <use transform="translate(817.313508 0)scale(0.996264)" xlink:href="#CMR17-29"/>
     </g>
    </g>
   </g>
   <g id="line2d_29">
    <path clip-path="url(#p6818f4521b)" d="M 62.165595 253 
L 62.674806 235.223129 
L 63.346055 217.60333 
L 64.185115 201.826722 
L 65.024176 190.604113 
L 65.863236 182.391682 
L 66.702297 176.240703 
L 67.541357 171.543129 
L 68.54823 167.266233 
L 69.555102 164.045417 
L 70.561975 161.578054 
L 71.568848 159.660199 
L 72.743532 157.931532 
L 73.918217 156.605647 
L 75.260714 155.448988 
L 76.771023 154.477901 
L 78.449144 153.689261 
L 80.295077 153.06767 
L 82.644446 152.527301 
L 85.497252 152.112383 
L 89.356931 151.795437 
L 94.89473 151.586218 
L 104.627832 151.475543 
L 135.284543 151.44821 
L 189.118919 151.334975 
L 196.167145 151.09001 
L 200.530333 150.723129 
L 203.886631 150.212553 
L 206.571669 149.574991 
L 208.921078 148.784567 
L 210.934856 147.893425 
L 212.948635 146.785463 
L 215.298044 145.24699 
L 218.989971 142.761001 
L 220.332491 142.137135 
L 221.33938 141.91164 
L 222.01064 141.922493 
L 222.681899 142.09357 
L 223.353159 142.45254 
L 224.024418 143.026605 
L 224.695678 143.841025 
L 225.366938 144.917322 
L 226.373827 147.054952 
L 227.380716 149.83118 
L 228.723236 154.439595 
L 230.737014 162.53706 
L 232.415163 168.902974 
L 233.422053 171.749657 
L 234.093312 172.990206 
L 234.428942 173.37383 
L 234.764572 173.585648 
L 235.100202 173.617717 
L 235.435832 173.464578 
L 235.771461 173.123574 
L 236.442721 171.883101 
L 237.113981 169.941123 
L 238.12087 165.954114 
L 240.805908 153.964379 
L 241.477168 152.082496 
L 241.812798 151.486029 
L 242.148428 151.152462 
L 242.484057 151.101404 
L 242.819687 151.34755 
L 243.155317 151.900273 
L 243.490947 152.763347 
L 244.162206 155.406984 
L 244.833466 159.195212 
L 245.840355 166.64049 
L 247.518504 181.578048 
L 248.861024 193.146055 
L 249.867913 200.231515 
L 250.539173 203.862419 
L 251.210432 206.505116 
L 251.881692 208.127246 
L 252.217322 208.559784 
L 252.552951 208.747879 
L 252.888581 208.700468 
L 253.224211 208.428495 
L 253.559841 207.944577 
L 254.2311 206.397806 
L 254.90236 204.182514 
L 255.909249 199.890395 
L 257.251769 193.023134 
L 260.943696 173.525508 
L 262.286216 167.660604 
L 263.628735 162.771256 
L 264.971254 158.861562 
L 265.978143 156.529757 
L 266.985033 154.66033 
L 267.991922 153.198218 
L 268.998812 152.08613 
L 270.005701 151.267941 
L 271.01259 150.691002 
L 272.35511 150.215344 
L 273.697629 149.987142 
L 275.375778 149.932034 
L 277.725186 150.089526 
L 288.80097 151.107197 
L 295.177936 151.322405 
L 305.91809 151.426046 
L 311.623796 151.439343 
L 311.623796 151.439343 
" style="fill:none;stroke:#bcbd22;stroke-linecap:round;stroke-width:1.5;"/>
   </g>
   <g id="line2d_30">
    <path clip-path="url(#p6818f4521b)" d="M 62.056811 253 
L 62.674806 231.37795 
L 63.346055 214.340232 
L 64.185115 199.149661 
L 65.024176 188.392326 
L 65.863236 180.552975 
L 66.702297 174.703773 
L 67.541357 170.252214 
L 68.380418 166.806683 
L 69.38729 163.630915 
L 70.394163 161.211935 
L 71.401036 159.340993 
L 72.57572 157.662346 
L 73.750405 156.380291 
L 75.092902 155.266104 
L 76.603211 154.333979 
L 78.281332 153.579373 
L 80.295077 152.941742 
L 82.644446 152.442724 
L 85.665064 152.042875 
L 89.692555 151.750451 
L 95.73379 151.558687 
L 106.977201 151.465158 
L 152.234845 151.447501 
L 189.454549 151.338096 
L 196.502775 151.100208 
L 200.865962 150.744736 
L 204.22226 150.251725 
L 206.907299 149.639033 
L 209.256707 148.884382 
L 211.606116 147.881511 
L 213.955524 146.620611 
L 219.661231 143.33242 
L 220.66812 143.031238 
L 221.67501 142.956759 
L 222.346269 143.070025 
L 223.017529 143.340334 
L 223.688789 143.789841 
L 224.360048 144.438537 
L 225.366938 145.818834 
L 226.373827 147.709955 
L 227.380716 150.093645 
L 228.723236 153.888503 
L 231.408274 161.81344 
L 232.415163 163.984727 
L 233.086423 164.918452 
L 233.757683 165.342857 
L 234.093312 165.345355 
L 234.428942 165.202344 
L 235.100202 164.478554 
L 235.771461 163.199538 
L 236.442721 161.445625 
L 237.78524 157.093441 
L 239.127759 152.962443 
L 239.799019 151.523881 
L 240.470279 150.738513 
L 240.805908 150.623105 
L 241.141538 150.698666 
L 241.477168 150.962012 
L 242.148428 152.00721 
L 242.819687 153.608241 
L 245.169096 159.86827 
L 245.840355 160.723931 
L 246.175985 160.873857 
L 246.511615 160.827488 
L 246.847245 160.58547 
L 247.518504 159.551507 
L 248.189764 157.90644 
L 249.532283 153.663263 
L 250.539173 150.621979 
L 251.210432 149.058471 
L 251.881692 148.018802 
L 252.552951 147.552633 
L 252.888581 147.531331 
L 253.224211 147.642051 
L 253.895471 148.214797 
L 254.56673 149.161941 
L 255.909249 151.669878 
L 257.587398 154.758198 
L 258.594288 156.103891 
L 259.265547 156.711432 
L 259.936807 157.081583 
L 260.608067 157.227568 
L 261.279326 157.173696 
L 262.286216 156.787202 
L 263.293105 156.137209 
L 265.306884 154.477582 
L 267.320663 152.867339 
L 268.998812 151.815345 
L 270.341331 151.207262 
L 272.01948 150.719672 
L 273.697629 150.477929 
L 275.711408 150.412609 
L 278.732076 150.55662 
L 289.1366 151.206777 
L 296.856085 151.376036 
L 311.623796 151.441463 
L 311.623796 151.441463 
" style="fill:none;stroke:#2ca02c;stroke-linecap:round;stroke-width:1.5;"/>
   </g>
   <g id="patch_3">
    <path d="M 57.303423 216.088647 
L 57.303423 22.166376 
" style="fill:none;stroke:#262626;stroke-linecap:square;stroke-linejoin:miter;stroke-width:0.8;"/>
   </g>
   <g id="patch_4">
    <path d="M 311.623796 216.088647 
L 311.623796 22.166376 
" style="fill:none;stroke:#262626;stroke-linecap:square;stroke-linejoin:miter;stroke-width:0.8;"/>
   </g>
   <g id="patch_5">
    <path d="M 57.303423 216.088647 
L 311.623796 216.088647 
" style="fill:none;stroke:#262626;stroke-linecap:square;stroke-linejoin:miter;stroke-width:0.8;"/>
   </g>
   <g id="patch_6">
    <path d="M 57.303423 22.166376 
L 311.623796 22.166376 
" style="fill:none;stroke:#262626;stroke-linecap:square;stroke-linejoin:miter;stroke-width:0.8;"/>
   </g>
   <g id="text_17">
    <!-- (b) Relative error of interpolation, $p=-1$ -->
    <g style="fill:#262626;" transform="translate(76.088454 16.166376)scale(0.12 -0.12)">
     <defs>
      <path d="M 960 4396 
L 198 4326 
L 198 4160 
C 576 4160 634 4122 634 3817 
L 634 -13 
L 749 -13 
L 934 441 
C 1120 141 1395 -64 1766 -64 
C 2406 -64 3053 500 3053 1370 
C 3053 2188 2477 2790 1830 2790 
C 1434 2790 1152 2579 960 2330 
L 960 4396 
z
M 973 2004 
C 973 2118 973 2138 1062 2272 
C 1312 2657 1670 2688 1792 2688 
C 1984 2688 2643 2585 2643 1376 
C 2643 108 1888 38 1734 38 
C 1536 38 1248 114 1043 486 
C 973 608 973 621 973 735 
L 973 2004 
z
" id="CMR17-62" transform="scale(0.015625)"/>
      <path d="M 2509 2146 
C 3117 2268 3629 2676 3629 3186 
C 3629 3785 2950 4326 2054 4326 
L 333 4326 
L 333 4160 
C 774 4160 845 4160 845 3873 
L 845 415 
C 845 128 774 128 333 128 
L 333 -26 
C 518 -26 851 -26 1050 -26 
C 1248 -26 1581 -26 1766 -26 
L 1766 128 
C 1325 128 1254 128 1254 417 
L 1254 2112 
L 2003 2112 
C 2368 2112 2573 1964 2662 1881 
C 2918 1632 2918 1459 2918 1024 
C 2918 595 2918 377 3110 160 
C 3354 -102 3680 -128 3821 -128 
C 4294 -128 4365 396 4365 503 
C 4365 540 4365 585 4307 585 
C 4256 585 4250 547 4250 522 
C 4218 112 4032 -26 3834 -26 
C 3482 -26 3443 375 3405 764 
C 3386 898 3373 993 3360 1133 
C 3322 1452 3270 1917 2509 2146 
z
M 1984 2214 
L 1254 2214 
L 1254 3913 
C 1254 4129 1267 4160 1523 4160 
L 1990 4160 
C 2522 4160 3142 3977 3142 3190 
C 3142 2372 2464 2214 1984 2214 
z
" id="CMR17-52" transform="scale(0.015625)"/>
      <path d="M 979 4396 
L 218 4326 
L 218 4160 
C 595 4160 653 4122 653 3817 
L 653 426 
C 653 184 627 153 218 153 
L 218 -13 
C 371 0 653 0 813 0 
C 979 0 1261 0 1414 -13 
L 1414 153 
C 1005 153 979 178 979 426 
L 979 4396 
z
" id="CMR17-6c" transform="scale(0.015625)"/>
      <path d="M 992 3909 
C 992 4049 877 4170 730 4170 
C 589 4170 467 4056 467 3909 
C 467 3769 582 3648 730 3648 
C 870 3648 992 3763 992 3909 
z
M 243 2706 
L 243 2541 
C 602 2541 653 2502 653 2197 
L 653 427 
C 653 184 627 153 218 153 
L 218 -13 
C 371 0 646 0 806 0 
C 960 0 1222 0 1370 -13 
L 1370 153 
C 992 153 979 191 979 420 
L 979 2776 
L 243 2706 
z
" id="CMR17-69" transform="scale(0.015625)"/>
      <path d="M 2502 2163 
C 2560 2304 2662 2560 3034 2560 
L 3034 2726 
C 2912 2726 2752 2726 2630 2726 
C 2496 2726 2285 2726 2157 2732 
L 2157 2566 
C 2317 2553 2406 2477 2406 2311 
C 2406 2253 2406 2240 2368 2151 
L 1664 377 
L 902 2286 
C 864 2369 864 2381 864 2407 
C 864 2560 1075 2560 1171 2560 
L 1171 2732 
C 1018 2726 736 2726 576 2726 
C 403 2726 205 2726 64 2732 
L 64 2560 
C 307 2560 442 2560 518 2362 
L 1446 44 
C 1485 -51 1491 -64 1549 -64 
C 1606 -64 1613 -51 1651 44 
L 2502 2163 
z
" id="CMR17-76" transform="scale(0.015625)"/>
      <path d="M 979 2560 
L 1709 2560 
L 1709 2725 
L 966 2725 
L 966 3494 
C 966 4022 1235 4352 1510 4352 
C 1594 4352 1690 4327 1754 4282 
C 1702 4269 1568 4225 1568 4067 
C 1568 3901 1696 3850 1786 3850 
C 1875 3850 2003 3901 2003 4067 
C 2003 4308 1773 4454 1517 4454 
C 1152 4454 653 4156 653 3481 
L 653 2725 
L 141 2725 
L 141 2560 
L 653 2560 
L 653 427 
C 653 184 627 153 218 153 
L 218 -13 
C 371 0 666 0 832 0 
C 1018 0 1344 0 1517 -13 
L 1517 153 
C 1056 153 979 153 979 439 
L 979 2560 
z
" id="CMR17-66" transform="scale(0.015625)"/>
      <path d="M 2656 1933 
C 2656 2259 2592 2790 1837 2790 
C 1331 2790 1069 2400 973 2144 
L 966 2144 
L 966 2790 
L 211 2720 
L 211 2554 
C 589 2554 646 2515 646 2208 
L 646 428 
C 646 184 621 153 211 153 
L 211 -13 
C 365 0 646 0 813 0 
C 979 0 1267 0 1421 -13 
L 1421 153 
C 1011 153 986 178 986 428 
L 986 1658 
C 986 2247 1344 2688 1792 2688 
C 2266 2688 2317 2266 2317 1958 
L 2317 428 
C 2317 184 2291 153 1882 153 
L 1882 -13 
C 2035 0 2317 0 2483 0 
C 2650 0 2938 0 3091 -13 
L 3091 153 
C 2682 153 2656 178 2656 428 
L 2656 1933 
z
" id="CMR17-6e" transform="scale(0.015625)"/>
      <path d="M 1011 102 
C 1024 45 1024 25 1024 -77 
C 1024 -463 896 -817 627 -1139 
C 595 -1170 595 -1183 595 -1197 
C 595 -1222 621 -1248 646 -1248 
C 685 -1248 1126 -799 1126 -87 
C 1126 124 1101 522 800 522 
C 659 522 538 427 538 261 
C 538 96 659 0 800 0 
C 877 0 960 32 1011 102 
z
" id="CMR17-2c" transform="scale(0.015625)"/>
      <path d="M 275 -789 
C 230 -980 205 -1031 -58 -1031 
C -134 -1031 -198 -1031 -198 -1152 
C -198 -1165 -192 -1216 -122 -1216 
C -38 -1216 51 -1216 134 -1216 
L 410 -1216 
C 544 -1216 870 -1216 1005 -1216 
C 1043 -1216 1120 -1216 1120 -1101 
C 1120 -1031 1075 -1031 966 -1031 
C 672 -1031 653 -987 653 -937 
C 653 -861 941 219 979 364 
C 1050 185 1222 -64 1555 -64 
C 2278 -64 3059 875 3059 1814 
C 3059 2401 2726 2816 2246 2816 
C 1837 2816 1491 2420 1421 2331 
C 1370 2650 1120 2816 864 2816 
C 678 2816 531 2727 410 2484 
C 294 2254 205 1865 205 1839 
C 205 1814 230 1782 275 1782 
C 326 1782 333 1788 371 1935 
C 467 2312 589 2689 845 2689 
C 992 2689 1043 2587 1043 2397 
C 1043 2245 1024 2181 998 2067 
L 275 -789 
z
M 1382 1993 
C 1427 2171 1606 2357 1709 2446 
C 1779 2510 1990 2689 2234 2689 
C 2515 2689 2643 2408 2643 2076 
C 2643 1769 2464 1047 2304 715 
C 2144 370 1850 64 1555 64 
C 1120 64 1050 613 1050 639 
C 1050 658 1062 709 1069 741 
L 1382 1993 
z
" id="CMMI12-70" transform="scale(0.015625)"/>
      <path d="M 4115 2017 
C 4211 2017 4307 2017 4307 2125 
C 4307 2240 4198 2240 4090 2240 
L 512 2240 
C 403 2240 294 2240 294 2125 
C 294 2017 390 2017 486 2017 
L 4115 2017 
z
M 4090 896 
C 4198 896 4307 896 4307 1011 
C 4307 1119 4211 1119 4115 1119 
L 486 1119 
C 390 1119 294 1119 294 1011 
C 294 896 403 896 512 896 
L 4090 896 
z
" id="CMR17-3d" transform="scale(0.015625)"/>
     </defs>
     <use transform="scale(0.996264)" xlink:href="#CMR17-28"/>
     <use transform="translate(35.280768 0)scale(0.996264)" xlink:href="#CMR17-62"/>
     <use transform="translate(86.176138 0)scale(0.996264)" xlink:href="#CMR17-29"/>
     <use transform="translate(151.532872 0)scale(0.996264)" xlink:href="#CMR17-52"/>
     <use transform="translate(219.323974 0)scale(0.996264)" xlink:href="#CMR17-65"/>
     <use transform="translate(259.809634 0)scale(0.996264)" xlink:href="#CMR17-6c"/>
     <use transform="translate(284.680693 0)scale(0.996264)" xlink:href="#CMR17-61"/>
     <use transform="translate(330.37117 0)scale(0.996264)" xlink:href="#CMR17-74"/>
     <use transform="translate(365.651938 0)scale(0.996264)" xlink:href="#CMR17-69"/>
     <use transform="translate(390.522996 0)scale(0.996264)" xlink:href="#CMR17-76"/>
     <use transform="translate(436.213458 0)scale(0.996264)" xlink:href="#CMR17-65"/>
     <use transform="translate(506.775085 0)scale(0.996264)" xlink:href="#CMR17-65"/>
     <use transform="translate(547.260745 0)scale(0.996264)" xlink:href="#CMR17-72"/>
     <use transform="translate(582.541513 0)scale(0.996264)" xlink:href="#CMR17-72"/>
     <use transform="translate(617.822281 0)scale(0.996264)" xlink:href="#CMR17-6f"/>
     <use transform="translate(663.512758 0)scale(0.996264)" xlink:href="#CMR17-72"/>
     <use transform="translate(728.869492 0)scale(0.996264)" xlink:href="#CMR17-6f"/>
     <use transform="translate(774.559969 0)scale(0.996264)" xlink:href="#CMR17-66"/>
     <use transform="translate(832.109448 0)scale(0.996264)" xlink:href="#CMR17-69"/>
     <use transform="translate(856.980506 0)scale(0.996264)" xlink:href="#CMR17-6e"/>
     <use transform="translate(905.273422 0)scale(0.996264)" xlink:href="#CMR17-74"/>
     <use transform="translate(940.55419 0)scale(0.996264)" xlink:href="#CMR17-65"/>
     <use transform="translate(981.039851 0)scale(0.996264)" xlink:href="#CMR17-72"/>
     <use transform="translate(1016.320618 0)scale(0.996264)" xlink:href="#CMR17-70"/>
     <use transform="translate(1069.818427 0)scale(0.996264)" xlink:href="#CMR17-6f"/>
     <use transform="translate(1115.508904 0)scale(0.996264)" xlink:href="#CMR17-6c"/>
     <use transform="translate(1140.379962 0)scale(0.996264)" xlink:href="#CMR17-61"/>
     <use transform="translate(1186.07044 0)scale(0.996264)" xlink:href="#CMR17-74"/>
     <use transform="translate(1221.351207 0)scale(0.996264)" xlink:href="#CMR17-69"/>
     <use transform="translate(1246.222266 0)scale(0.996264)" xlink:href="#CMR17-6f"/>
     <use transform="translate(1291.912743 0)scale(0.996264)" xlink:href="#CMR17-6e"/>
     <use transform="translate(1342.808113 0)scale(0.996264)" xlink:href="#CMR17-2c"/>
     <use transform="translate(1397.755138 0)scale(0.996264)" xlink:href="#CMMI12-70"/>
     <use transform="translate(1474.38866 0)scale(0.996264)" xlink:href="#CMR17-3d"/>
     <use transform="translate(1573.777457 0)scale(0.996264)" xlink:href="#CMSY10-0"/>
     <use transform="translate(1651.264925 0)scale(0.996264)" xlink:href="#CMR17-31"/>
    </g>
   </g>
   <g id="legend_1">
    <g id="patch_7">
     <path d="M 62.161423 77.503725 
L 172.328517 77.503725 
Q 173.716517 77.503725 173.716517 76.115725 
L 173.716517 27.024376 
Q 173.716517 25.636376 172.328517 25.636376 
L 62.161423 25.636376 
Q 60.773423 25.636376 60.773423 27.024376 
L 60.773423 76.115725 
Q 60.773423 77.503725 62.161423 77.503725 
z
" style="fill:#ffffff;opacity:0.8;stroke:#cccccc;stroke-linejoin:miter;"/>
    </g>
    <g id="line2d_31">
     <path d="M 63.549423 31.168932 
L 77.429423 31.168932 
" style="fill:none;stroke:#000000;stroke-dasharray:5.55,2.4;stroke-dashoffset:0;stroke-width:1.5;"/>
    </g>
    <g id="line2d_32"/>
    <g id="text_18">
     <!-- Lower bound (at $t \geq 0$) -->
     <g style="fill:#262626;" transform="translate(82.981423 33.597932)scale(0.0694 -0.0694)">
      <defs>
       <path d="M 3469 1615 
L 3354 1615 
C 3302 983 3219 166 2125 166 
L 1530 166 
C 1274 166 1261 197 1261 414 
L 1261 3898 
C 1261 4129 1274 4192 1760 4192 
L 1901 4192 
L 1901 4352 
C 1638 4352 1331 4352 1069 4352 
C 870 4352 512 4352 326 4352 
L 326 4192 
C 768 4192 838 4192 838 3905 
L 838 452 
C 838 166 768 166 326 166 
L 326 0 
L 3315 0 
L 3469 1615 
z
" id="CMR17-4c" transform="scale(0.015625)"/>
       <path d="M 3725 2183 
C 3853 2560 4109 2560 4205 2560 
L 4205 2732 
C 4077 2732 3949 2732 3821 2732 
C 3699 2732 3424 2732 3315 2738 
L 3315 2560 
C 3514 2560 3622 2445 3622 2286 
C 3622 2241 3610 2184 3597 2140 
L 2995 407 
L 2342 2275 
C 2330 2319 2310 2370 2310 2395 
C 2310 2560 2528 2560 2630 2560 
L 2630 2738 
C 2483 2732 2214 2732 2061 2732 
C 1901 2732 1734 2732 1587 2738 
L 1587 2560 
C 1939 2560 1939 2547 2074 2149 
L 1485 451 
L 851 2281 
C 819 2363 819 2376 819 2395 
C 819 2560 1037 2560 1139 2560 
L 1139 2738 
C 986 2732 717 2732 557 2732 
C 416 2732 198 2732 64 2738 
L 64 2560 
C 346 2560 416 2541 486 2331 
L 1274 49 
C 1299 -33 1318 -52 1370 -52 
C 1414 -52 1440 -39 1472 56 
L 2131 1980 
L 2797 56 
C 2829 -39 2854 -52 2899 -52 
C 2950 -52 2970 -33 2995 50 
L 3725 2183 
z
" id="CMR17-77" transform="scale(0.015625)"/>
       <path d="M 1882 2693 
L 1882 2528 
C 2259 2528 2317 2489 2317 2186 
L 2317 1032 
C 2317 500 2029 38 1555 38 
C 1030 38 986 348 986 678 
L 986 2763 
L 211 2693 
L 211 2528 
C 467 2528 640 2528 646 2274 
L 646 1058 
C 646 633 646 361 813 183 
C 896 101 1056 -64 1517 -64 
C 2061 -64 2272 377 2323 506 
L 2330 506 
L 2330 -63 
L 3091 -63 
L 3091 128 
C 2714 128 2656 166 2656 473 
L 2656 2763 
L 1882 2693 
z
" id="CMR17-75" transform="scale(0.015625)"/>
       <path d="M 1869 4326 
L 1869 4160 
C 2246 4160 2304 4122 2304 3820 
L 2304 2345 
C 2278 2377 2016 2790 1498 2790 
C 845 2790 211 2208 211 1364 
C 211 525 806 -64 1434 -64 
C 1978 -64 2259 337 2291 380 
L 2291 -63 
L 3066 -63 
L 3066 128 
C 2688 128 2630 166 2630 473 
L 2630 4396 
L 1869 4326 
z
M 2291 755 
C 2291 563 2176 390 2029 262 
C 1811 70 1594 38 1472 38 
C 1286 38 621 134 621 1356 
C 621 2612 1363 2688 1530 2688 
C 1824 2688 2061 2522 2208 2291 
C 2291 2157 2291 2138 2291 2023 
L 2291 755 
z
" id="CMR17-64" transform="scale(0.015625)"/>
       <path d="M 4314 2084 
C 4403 2122 4442 2167 4442 2224 
C 4442 2288 4416 2327 4314 2372 
L 787 4036 
C 698 4080 672 4080 659 4080 
C 582 4080 531 4023 531 3952 
C 531 3876 582 3844 653 3812 
L 4013 2231 
L 666 650 
C 538 592 531 541 531 503 
C 531 432 589 375 659 375 
C 678 375 691 375 774 420 
L 4314 2084 
z
M 4218 -891 
C 4326 -891 4442 -891 4442 -763 
C 4442 -635 4307 -635 4211 -635 
L 762 -635 
C 666 -635 531 -635 531 -763 
C 531 -891 646 -891 755 -891 
L 4218 -891 
z
" id="CMSY10-15" transform="scale(0.015625)"/>
      </defs>
      <use transform="scale(0.996264)" xlink:href="#CMR17-4c"/>
      <use transform="translate(57.381408 0)scale(0.996264)" xlink:href="#CMR17-6f"/>
      <use transform="translate(100.469431 0)scale(0.996264)" xlink:href="#CMR17-77"/>
      <use transform="translate(164.376858 0)scale(0.996264)" xlink:href="#CMR17-65"/>
      <use transform="translate(204.862518 0)scale(0.996264)" xlink:href="#CMR17-72"/>
      <use transform="translate(270.219252 0)scale(0.996264)" xlink:href="#CMR17-62"/>
      <use transform="translate(323.717061 0)scale(0.996264)" xlink:href="#CMR17-6f"/>
      <use transform="translate(369.407538 0)scale(0.996264)" xlink:href="#CMR17-75"/>
      <use transform="translate(420.302908 0)scale(0.996264)" xlink:href="#CMR17-6e"/>
      <use transform="translate(471.198277 0)scale(0.996264)" xlink:href="#CMR17-64"/>
      <use transform="translate(552.169614 0)scale(0.996264)" xlink:href="#CMR17-28"/>
      <use transform="translate(587.450381 0)scale(0.996264)" xlink:href="#CMR17-61"/>
      <use transform="translate(633.140858 0)scale(0.996264)" xlink:href="#CMR17-74"/>
      <use transform="translate(698.497593 0)scale(0.996264)" xlink:href="#CMMI12-74"/>
      <use transform="translate(761.397932 0)scale(0.996264)" xlink:href="#CMSY10-15"/>
      <use transform="translate(866.559408 0)scale(0.996264)" xlink:href="#CMR17-30"/>
      <use transform="translate(912.249885 0)scale(0.996264)" xlink:href="#CMR17-29"/>
     </g>
    </g>
    <g id="line2d_33">
     <path d="M 63.549423 41.553007 
L 77.429423 41.553007 
" style="fill:none;stroke:#000000;stroke-dasharray:9.6,2.4,1.5,2.4;stroke-dashoffset:0;stroke-width:1.5;"/>
    </g>
    <g id="line2d_34"/>
    <g id="text_19">
     <!-- Upper bound (at $t &lt; 0$) -->
     <g style="fill:#262626;" transform="translate(82.981423 43.982007)scale(0.0694 -0.0694)">
      <defs>
       <path d="M 3456 1433 
C 3456 579 2899 38 2291 38 
C 1965 38 1670 210 1491 477 
C 1286 783 1261 1178 1261 1401 
L 1261 3874 
C 1261 4160 1331 4160 1773 4160 
L 1773 4320 
C 1587 4320 1248 4320 1050 4320 
C 851 4320 512 4320 326 4320 
L 326 4160 
C 768 4160 838 4160 838 3874 
L 838 1433 
C 838 516 1536 -128 2278 -128 
C 3110 -128 3590 719 3590 1344 
L 3590 3766 
C 3590 4122 3917 4160 4102 4160 
L 4102 4326 
C 3955 4320 3686 4320 3526 4320 
C 3366 4320 3091 4320 2944 4326 
L 2944 4160 
C 3456 4160 3456 3861 3456 3702 
L 3456 1433 
z
" id="CMR17-55" transform="scale(0.015625)"/>
       <path d="M 4218 3104 
C 4333 3155 4346 3200 4346 3238 
C 4346 3309 4294 3360 4224 3360 
C 4211 3360 4205 3353 4115 3315 
L 653 1719 
C 538 1667 525 1622 525 1584 
C 525 1539 531 1501 653 1442 
L 4115 -154 
C 4198 -192 4211 -192 4224 -192 
C 4294 -192 4346 -141 4346 -70 
C 4346 -32 4333 13 4218 64 
L 922 1581 
L 4218 3104 
z
" id="CMMI12-3c" transform="scale(0.015625)"/>
      </defs>
      <use transform="scale(0.996264)" xlink:href="#CMR17-55"/>
      <use transform="translate(69.07243 0)scale(0.996264)" xlink:href="#CMR17-70"/>
      <use transform="translate(119.9678 0)scale(0.996264)" xlink:href="#CMR17-70"/>
      <use transform="translate(173.465608 0)scale(0.996264)" xlink:href="#CMR17-65"/>
      <use transform="translate(213.951269 0)scale(0.996264)" xlink:href="#CMR17-72"/>
      <use transform="translate(279.308003 0)scale(0.996264)" xlink:href="#CMR17-62"/>
      <use transform="translate(332.805811 0)scale(0.996264)" xlink:href="#CMR17-6f"/>
      <use transform="translate(378.496288 0)scale(0.996264)" xlink:href="#CMR17-75"/>
      <use transform="translate(429.391658 0)scale(0.996264)" xlink:href="#CMR17-6e"/>
      <use transform="translate(480.287028 0)scale(0.996264)" xlink:href="#CMR17-64"/>
      <use transform="translate(561.258364 0)scale(0.996264)" xlink:href="#CMR17-28"/>
      <use transform="translate(596.539132 0)scale(0.996264)" xlink:href="#CMR17-61"/>
      <use transform="translate(642.229609 0)scale(0.996264)" xlink:href="#CMR17-74"/>
      <use transform="translate(707.586343 0)scale(0.996264)" xlink:href="#CMMI12-74"/>
      <use transform="translate(770.486682 0)scale(0.996264)" xlink:href="#CMMI12-3c"/>
      <use transform="translate(874.032787 0)scale(0.996264)" xlink:href="#CMR17-30"/>
      <use transform="translate(919.723264 0)scale(0.996264)" xlink:href="#CMR17-29"/>
     </g>
    </g>
    <g id="line2d_35">
     <path d="M 63.549423 51.609525 
L 77.429423 51.609525 
" style="fill:none;stroke:#bcbd22;stroke-linecap:round;stroke-width:1.5;"/>
    </g>
    <g id="line2d_36"/>
    <g id="text_20">
     <!-- Interpolation, $q=3$ -->
     <g style="fill:#262626;" transform="translate(82.981423 54.038525)scale(0.0694 -0.0694)">
      <defs>
       <path d="M 1261 3905 
C 1261 4192 1338 4192 1798 4192 
L 1798 4352 
C 1594 4352 1267 4352 1050 4352 
C 832 4352 506 4352 301 4352 
L 301 4192 
C 762 4192 838 4192 838 3905 
L 838 447 
C 838 160 762 160 301 160 
L 301 0 
C 506 0 832 0 1050 0 
C 1267 0 1594 0 1798 0 
L 1798 160 
C 1338 160 1261 160 1261 447 
L 1261 3905 
z
" id="CMR17-49" transform="scale(0.015625)"/>
       <path d="M 2822 2759 
C 2822 2790 2797 2816 2765 2816 
C 2714 2816 2464 2585 2342 2362 
C 2227 2646 2029 2816 1754 2816 
C 1030 2816 250 1884 250 939 
C 250 307 621 -64 1056 -64 
C 1395 -64 1677 193 1811 339 
L 1818 333 
L 1574 -615 
L 1517 -842 
C 1459 -1031 1363 -1031 1062 -1031 
C 992 -1031 928 -1031 928 -1152 
C 928 -1197 966 -1216 1011 -1216 
C 1101 -1216 1216 -1216 1306 -1216 
L 1958 -1216 
C 2054 -1216 2163 -1216 2259 -1216 
C 2298 -1216 2374 -1216 2374 -1095 
C 2374 -1031 2323 -1031 2227 -1031 
C 1926 -1031 1907 -986 1907 -935 
C 1907 -904 1914 -898 1933 -815 
L 2822 2759 
z
M 1920 762 
C 1888 652 1888 640 1798 518 
C 1658 339 1376 64 1075 64 
C 813 64 666 301 666 678 
C 666 1030 864 1747 986 2016 
C 1203 2464 1504 2695 1754 2695 
C 2176 2695 2259 2170 2259 2119 
C 2259 2113 2240 2028 2234 2016 
L 1920 762 
z
" id="CMMI12-71" transform="scale(0.015625)"/>
      </defs>
      <use transform="scale(0.996264)" xlink:href="#CMR17-49"/>
      <use transform="translate(32.638409 0)scale(0.996264)" xlink:href="#CMR17-6e"/>
      <use transform="translate(80.931325 0)scale(0.996264)" xlink:href="#CMR17-74"/>
      <use transform="translate(116.212093 0)scale(0.996264)" xlink:href="#CMR17-65"/>
      <use transform="translate(156.697753 0)scale(0.996264)" xlink:href="#CMR17-72"/>
      <use transform="translate(191.978521 0)scale(0.996264)" xlink:href="#CMR17-70"/>
      <use transform="translate(245.47633 0)scale(0.996264)" xlink:href="#CMR17-6f"/>
      <use transform="translate(291.166807 0)scale(0.996264)" xlink:href="#CMR17-6c"/>
      <use transform="translate(316.037865 0)scale(0.996264)" xlink:href="#CMR17-61"/>
      <use transform="translate(361.728342 0)scale(0.996264)" xlink:href="#CMR17-74"/>
      <use transform="translate(397.00911 0)scale(0.996264)" xlink:href="#CMR17-69"/>
      <use transform="translate(421.880169 0)scale(0.996264)" xlink:href="#CMR17-6f"/>
      <use transform="translate(467.570646 0)scale(0.996264)" xlink:href="#CMR17-6e"/>
      <use transform="translate(518.466016 0)scale(0.996264)" xlink:href="#CMR17-2c"/>
      <use transform="translate(573.41304 0)scale(0.996264)" xlink:href="#CMMI12-71"/>
      <use transform="translate(647.913373 0)scale(0.996264)" xlink:href="#CMR17-3d"/>
      <use transform="translate(747.30217 0)scale(0.996264)" xlink:href="#CMR17-33"/>
     </g>
    </g>
    <g id="line2d_37">
     <path d="M 63.549423 61.281925 
L 77.429423 61.281925 
" style="fill:none;stroke:#2ca02c;stroke-linecap:round;stroke-width:1.5;"/>
    </g>
    <g id="line2d_38"/>
    <g id="text_21">
     <!-- Interpolation, $q=5$ -->
     <g style="fill:#262626;" transform="translate(82.981423 63.710925)scale(0.0694 -0.0694)">
      <use transform="scale(0.996264)" xlink:href="#CMR17-49"/>
      <use transform="translate(32.638409 0)scale(0.996264)" xlink:href="#CMR17-6e"/>
      <use transform="translate(80.931325 0)scale(0.996264)" xlink:href="#CMR17-74"/>
      <use transform="translate(116.212093 0)scale(0.996264)" xlink:href="#CMR17-65"/>
      <use transform="translate(156.697753 0)scale(0.996264)" xlink:href="#CMR17-72"/>
      <use transform="translate(191.978521 0)scale(0.996264)" xlink:href="#CMR17-70"/>
      <use transform="translate(245.47633 0)scale(0.996264)" xlink:href="#CMR17-6f"/>
      <use transform="translate(291.166807 0)scale(0.996264)" xlink:href="#CMR17-6c"/>
      <use transform="translate(316.037865 0)scale(0.996264)" xlink:href="#CMR17-61"/>
      <use transform="translate(361.728342 0)scale(0.996264)" xlink:href="#CMR17-74"/>
      <use transform="translate(397.00911 0)scale(0.996264)" xlink:href="#CMR17-69"/>
      <use transform="translate(421.880169 0)scale(0.996264)" xlink:href="#CMR17-6f"/>
      <use transform="translate(467.570646 0)scale(0.996264)" xlink:href="#CMR17-6e"/>
      <use transform="translate(518.466016 0)scale(0.996264)" xlink:href="#CMR17-2c"/>
      <use transform="translate(573.41304 0)scale(0.996264)" xlink:href="#CMMI12-71"/>
      <use transform="translate(647.913373 0)scale(0.996264)" xlink:href="#CMR17-3d"/>
      <use transform="translate(747.30217 0)scale(0.996264)" xlink:href="#CMR17-35"/>
     </g>
    </g>
    <g id="line2d_39">
     <path d="M 63.549423 70.954325 
L 77.429423 70.954325 
" style="fill:none;stroke:#d62728;stroke-linecap:round;stroke-width:1.5;"/>
    </g>
    <g id="line2d_40"/>
    <g id="text_22">
     <!-- Interpolation, $q=7$ -->
     <g style="fill:#262626;" transform="translate(82.981423 73.383325)scale(0.0694 -0.0694)">
      <defs>
       <path d="M 2886 3941 
L 2886 4081 
L 1382 4081 
C 634 4081 621 4165 595 4288 
L 480 4288 
L 294 3094 
L 410 3094 
C 429 3215 474 3540 550 3661 
C 589 3712 1062 3712 1171 3712 
L 2579 3712 
L 1869 2661 
C 1395 1954 1069 999 1069 165 
C 1069 89 1069 -128 1299 -128 
C 1530 -128 1530 89 1530 171 
L 1530 465 
C 1530 1508 1709 2196 2003 2636 
L 2886 3941 
z
" id="CMR17-37" transform="scale(0.015625)"/>
      </defs>
      <use transform="scale(0.996264)" xlink:href="#CMR17-49"/>
      <use transform="translate(32.638409 0)scale(0.996264)" xlink:href="#CMR17-6e"/>
      <use transform="translate(80.931325 0)scale(0.996264)" xlink:href="#CMR17-74"/>
      <use transform="translate(116.212093 0)scale(0.996264)" xlink:href="#CMR17-65"/>
      <use transform="translate(156.697753 0)scale(0.996264)" xlink:href="#CMR17-72"/>
      <use transform="translate(191.978521 0)scale(0.996264)" xlink:href="#CMR17-70"/>
      <use transform="translate(245.47633 0)scale(0.996264)" xlink:href="#CMR17-6f"/>
      <use transform="translate(291.166807 0)scale(0.996264)" xlink:href="#CMR17-6c"/>
      <use transform="translate(316.037865 0)scale(0.996264)" xlink:href="#CMR17-61"/>
      <use transform="translate(361.728342 0)scale(0.996264)" xlink:href="#CMR17-74"/>
      <use transform="translate(397.00911 0)scale(0.996264)" xlink:href="#CMR17-69"/>
      <use transform="translate(421.880169 0)scale(0.996264)" xlink:href="#CMR17-6f"/>
      <use transform="translate(467.570646 0)scale(0.996264)" xlink:href="#CMR17-6e"/>
      <use transform="translate(518.466016 0)scale(0.996264)" xlink:href="#CMR17-2c"/>
      <use transform="translate(573.41304 0)scale(0.996264)" xlink:href="#CMMI12-71"/>
      <use transform="translate(647.913373 0)scale(0.996264)" xlink:href="#CMR17-3d"/>
      <use transform="translate(747.30217 0)scale(0.996264)" xlink:href="#CMR17-37"/>
     </g>
    </g>
   </g>
   <g id="line2d_41">
    <path clip-path="url(#p6818f4521b)" d="M 142.593792 151.44789 
L 182.406323 151.333299 
L 189.118919 151.101492 
L 193.482107 150.737723 
L 196.502775 150.281786 
L 198.852184 149.73471 
L 200.865962 149.068108 
L 202.879741 148.146728 
L 204.55789 147.117945 
L 205.900409 146.075087 
L 207.242929 144.790206 
L 208.585448 143.212 
L 209.927967 141.280844 
L 211.270486 138.928787 
L 212.613005 136.080375 
L 213.955524 132.654732 
L 215.298044 128.569406 
L 216.640563 123.746477 
L 217.983082 118.121315 
L 219.325601 111.653972 
L 221.00375 102.387373 
L 223.017529 89.702521 
L 225.702567 71.025524 
L 229.058865 47.892151 
L 230.737014 37.864529 
L 232.079534 31.098681 
L 233.086423 26.893202 
L 234.093312 23.494273 
L 235.100202 20.92906 
L 235.771461 19.68432 
L 236.442721 18.807064 
L 237.113981 18.288876 
L 237.78524 18.118136 
L 238.4565 18.28059 
L 239.127759 18.759894 
L 239.799019 19.538135 
L 240.470279 20.596312 
L 241.477168 22.665348 
L 242.484057 25.252641 
L 243.826577 29.393839 
L 245.504726 35.47166 
L 247.518504 43.738135 
L 250.203543 55.774228 
L 258.594288 94.087508 
L 261.279326 105.041637 
L 263.628735 113.714822 
L 265.642514 120.376818 
L 267.656292 126.274855 
L 269.334441 130.589836 
L 271.01259 134.360824 
L 272.690739 137.603604 
L 274.368888 140.347047 
L 276.047037 142.631291 
L 277.725186 144.504706 
L 279.403335 146.020144 
L 281.081484 147.231156 
L 282.759633 148.188822 
L 284.773412 149.068512 
L 287.122821 149.808968 
L 289.807859 150.383372 
L 292.828527 150.795826 
L 296.856085 151.110267 
L 302.561792 151.315642 
L 311.623796 151.418175 
L 311.623796 151.418175 
" style="fill:none;stroke:#000000;stroke-dasharray:5.55,2.4;stroke-dashoffset:0;stroke-width:1.5;"/>
   </g>
   <g id="line2d_42">
    <path clip-path="url(#p6818f4521b)" d="M 64.207645 253 
L 65.024176 234.796269 
L 65.863236 220.247871 
L 66.870109 206.735876 
L 67.876981 196.318013 
L 68.883854 188.146153 
L 69.890727 181.648044 
L 70.897599 176.424055 
L 72.072284 171.561086 
L 73.246969 167.715423 
L 74.421653 164.650678 
L 75.596338 162.193119 
L 76.771023 160.212614 
L 78.11352 158.407359 
L 79.456016 156.984268 
L 80.966325 155.735518 
L 82.476634 154.773226 
L 84.154755 153.958345 
L 86.168501 153.241951 
L 88.51787 152.661779 
L 91.370676 152.204246 
L 95.062542 151.858479 
L 100.096905 151.626604 
L 108.48751 151.492626 
L 129.520843 151.449643 
L 141.043058 151.448098 
L 141.043058 151.448098 
" style="fill:none;stroke:#000000;stroke-dasharray:9.6,2.4,1.5,2.4;stroke-dashoffset:0;stroke-width:1.5;"/>
   </g>
   <g id="line2d_43">
    <path clip-path="url(#p6818f4521b)" d="M 60.630859 253 
L 60.996685 231.615839 
L 61.667934 205.329192 
L 62.339182 188.987347 
L 63.01043 178.373472 
L 63.681679 171.235252 
L 64.352927 166.294305 
L 65.024176 162.789727 
L 65.695424 160.250854 
L 66.534485 157.987787 
L 67.373545 156.400244 
L 68.212606 155.261297 
L 69.219478 154.288884 
L 70.394163 153.509624 
L 71.73666 152.913766 
L 73.414781 152.434991 
L 75.596338 152.062216 
L 78.784768 151.77313 
L 83.651319 151.581175 
L 92.880985 151.475341 
L 123.254975 151.44807 
L 201.201592 151.338676 
L 209.927967 151.083293 
L 216.640563 150.898519 
L 219.325601 151.036269 
L 222.01064 151.395148 
L 225.031308 151.807624 
L 226.373827 151.782919 
L 227.716346 151.503034 
L 229.058865 150.948145 
L 231.743904 149.63811 
L 232.750793 149.484136 
L 233.422053 149.587073 
L 234.093312 149.864082 
L 235.100202 150.54049 
L 236.778351 151.74242 
L 237.44961 151.977303 
L 238.12087 151.974405 
L 238.79213 151.743687 
L 240.470279 150.8916 
L 241.141538 150.914852 
L 241.477168 151.097453 
L 242.148428 151.875222 
L 242.819687 153.213955 
L 243.826577 156.012992 
L 245.169096 159.818397 
L 245.840355 161.031217 
L 246.175985 161.34842 
L 246.511615 161.446799 
L 246.847245 161.318229 
L 247.182875 160.964148 
L 247.854134 159.631015 
L 248.525394 157.628984 
L 250.874802 149.5259 
L 251.546062 148.013794 
L 252.217322 147.152516 
L 252.552951 146.974073 
L 252.888581 146.957771 
L 253.224211 147.093728 
L 253.895471 147.766531 
L 254.56673 148.858903 
L 255.909249 151.696383 
L 257.251769 154.499028 
L 258.258658 156.122356 
L 258.929918 156.888684 
L 259.601177 157.38939 
L 260.272437 157.635606 
L 260.943696 157.652187 
L 261.614956 157.472601 
L 262.621845 156.918237 
L 263.964365 155.844452 
L 267.656292 152.679941 
L 268.998812 151.828837 
L 270.341331 151.199185 
L 271.68385 150.775079 
L 273.361999 150.483402 
L 275.375778 150.383942 
L 278.396446 150.511608 
L 289.807859 151.225621 
L 297.862974 151.385587 
L 311.623796 151.441335 
L 311.623796 151.441335 
" style="fill:none;stroke:#d62728;stroke-linecap:round;stroke-width:1.5;"/>
   </g>
  </g>
 </g>
 <defs>
  <clipPath id="p6818f4521b">
   <rect height="193.92227" width="254.320373" x="57.303423" y="22.166376"/>
  </clipPath>
 </defs>
</svg>
