<?xml version="1.0" encoding="UTF-8" standalone="no"?>
<!-- Created with Inkscape (http://www.inkscape.org/) -->

<svg
   width="61.627716mm"
   height="17.578569mm"
   viewBox="0 0 80.116032 22.85214"
   version="1.1"
   id="svg5"
   inkscape:version="1.1.2 (1:1.1+202202050852+0a00cf5339)"
   sodipodi:docname="logo-glearn-dark.svg"
   inkscape:export-filename="/home/sia/work/ADCP/Noise-Estimation/code/glearn/docs/source/_static/images/logo-glearn-dark.png"
   inkscape:export-xdpi="81.8368"
   inkscape:export-ydpi="81.8368"
   xmlns:inkscape="http://www.inkscape.org/namespaces/inkscape"
   xmlns:sodipodi="http://sodipodi.sourceforge.net/DTD/sodipodi-0.dtd"
   xmlns="http://www.w3.org/2000/svg"
   xmlns:svg="http://www.w3.org/2000/svg">
  <sodipodi:namedview
     id="namedview7"
     pagecolor="#ffffff"
     bordercolor="#666666"
     borderopacity="1.0"
     inkscape:pageshadow="2"
     inkscape:pageopacity="0.0"
     inkscape:pagecheckerboard="0"
     inkscape:document-units="mm"
     showgrid="false"
     fit-margin-top="0"
     fit-margin-left="0"
     fit-margin-right="0"
     fit-margin-bottom="0"
     inkscape:zoom="2.4302469"
     inkscape:cx="146.07569"
     inkscape:cy="2.6746254"
     inkscape:window-width="1920"
     inkscape:window-height="1008"
     inkscape:window-x="0"
     inkscape:window-y="24"
     inkscape:window-maximized="1"
     inkscape:current-layer="layer1"
     scale-x="1.3" />
  <defs
     id="defs2" />
  <g
     inkscape:label="Layer 1"
     inkscape:groupmode="layer"
     id="layer1"
     transform="translate(-45.655761,-109.29528)">
    <path
       id="text2828"
       style="font-size:7.05556px;line-height:1.25;font-family:sans-serif;fill:#e9e9e9;fill-opacity:1;stroke-width:0.264583"
       sodipodi:type="inkscape:offset"
       inkscape:radius="0.073364116"
       inkscape:original="M 65.003906 113.67773 C 64.76964 113.67773 64.542752 113.7066 64.322266 113.76172 C 64.104076 113.81454 63.895128 113.88791 63.695312 113.98438 C 63.495497 114.07854 63.304489 114.19296 63.123047 114.32617 C 62.943902 114.45938 62.776928 114.6052 62.623047 114.76367 L 62.623047 113.79883 L 62.193359 113.79883 L 62.193359 118.5332 L 62.623047 118.5332 L 62.623047 115.24609 C 62.756257 115.08532 62.906901 114.93341 63.072266 114.79102 C 63.23763 114.64632 63.41645 114.52006 63.609375 114.41211 C 63.804597 114.30416 64.015155 114.22021 64.240234 114.1582 C 64.467611 114.09389 64.709563 114.06055 64.966797 114.06055 C 65.152832 114.06055 65.304742 114.07435 65.421875 114.09961 C 65.541305 114.12258 65.632614 114.14339 65.699219 114.16406 L 65.699219 113.74023 C 65.648691 113.73105 65.600966 113.72369 65.552734 113.7168 C 65.504503 113.70991 65.451606 113.70381 65.396484 113.69922 C 65.34366 113.69233 65.285012 113.68784 65.220703 113.68555 C 65.156395 113.68095 65.084292 113.67773 65.003906 113.67773 z M 69.609375 113.68555 C 69.326877 113.68555 69.059625 113.71568 68.804688 113.77539 C 68.54975 113.83511 68.309064 113.91169 68.083984 114.00586 C 67.861201 114.09773 67.652253 114.19996 67.457031 114.3125 C 67.264106 114.42274 67.086552 114.52785 66.925781 114.62891 L 66.925781 113.79883 L 66.496094 113.79883 L 66.496094 118.5332 L 66.925781 118.5332 L 66.925781 115.125 C 67.058992 115.01246 67.22309 114.89516 67.416016 114.77344 C 67.608941 114.65171 67.819155 114.54212 68.048828 114.44336 C 68.278501 114.3423 68.522063 114.25962 68.779297 114.19531 C 69.038828 114.12871 69.303548 114.0957 69.572266 114.0957 C 69.804236 114.0957 70.013183 114.11525 70.199219 114.1543 C 70.385254 114.19334 70.543258 114.26257 70.671875 114.36133 C 70.802789 114.46009 70.901801 114.59371 70.970703 114.76367 C 71.041902 114.93133 71.078125 115.14638 71.078125 115.4082 L 71.078125 118.5332 L 71.507812 118.5332 L 71.507812 115.31445 C 71.507812 115.06641 71.468714 114.84239 71.390625 114.64258 C 71.312536 114.44047 71.195584 114.26901 71.037109 114.12891 C 70.880932 113.98651 70.682219 113.87853 70.443359 113.80273 C 70.206796 113.72465 69.928621 113.68555 69.609375 113.68555 z M 37.050781 113.71289 C 36.761393 113.71289 36.483218 113.73532 36.216797 113.78125 C 35.950376 113.82489 35.70072 113.89285 35.46875 113.98242 C 35.239077 114.0697 35.028519 114.1809 34.837891 114.31641 C 34.649559 114.45191 34.489023 114.61118 34.353516 114.79492 C 34.220305 114.97636 34.116464 115.18244 34.042969 115.41211 C 33.969473 115.63949 33.933594 115.89202 33.933594 116.16992 C 33.933594 116.58563 34.011447 116.94614 34.169922 117.25391 C 34.328396 117.56167 34.546314 117.81903 34.824219 118.02344 C 35.10442 118.22555 35.435149 118.37551 35.816406 118.47656 C 36.197664 118.57532 36.611075 118.625 37.056641 118.625 C 37.27483 118.625 37.484122 118.61764 37.681641 118.60156 C 37.881456 118.58549 38.072121 118.56306 38.255859 118.5332 C 38.441895 118.50105 38.620714 118.46195 38.792969 118.41602 C 38.96752 118.37008 39.140589 118.31753 39.310547 118.25781 L 39.310547 116.17578 L 36.955078 116.17578 L 36.955078 116.58008 L 38.880859 116.58008 L 38.880859 118.01562 C 38.791287 118.04319 38.681351 118.0701 38.552734 118.09766 C 38.424117 118.12292 38.281178 118.14695 38.125 118.16992 C 37.968822 118.19059 37.801848 118.20888 37.625 118.22266 C 37.450448 118.23644 37.274848 118.24219 37.095703 118.24219 C 36.638653 118.24219 36.240307 118.19124 35.900391 118.08789 C 35.560474 117.98454 35.276205 117.84194 35.048828 117.6582 C 34.823748 117.47446 34.655509 117.25459 34.542969 117.00195 C 34.432726 116.74702 34.376953 116.47079 34.376953 116.16992 C 34.376953 115.84838 34.434335 115.55802 34.546875 115.30078 C 34.661712 115.04355 34.831217 114.82563 35.058594 114.64648 C 35.28597 114.46734 35.571849 114.32888 35.914062 114.23242 C 36.256276 114.13596 36.655888 114.08789 37.115234 114.08789 C 37.340314 114.08789 37.550872 114.10456 37.746094 114.13672 C 37.943613 114.16887 38.126917 114.21246 38.296875 114.26758 C 38.46913 114.3227 38.630353 114.38744 38.777344 114.46094 C 38.926631 114.53443 39.066352 114.61263 39.197266 114.69531 L 39.197266 114.17188 C 39.031901 114.10297 38.868146 114.0395 38.705078 113.98438 C 38.54201 113.92696 38.373427 113.87889 38.201172 113.83984 C 38.028917 113.7985 37.848488 113.76872 37.660156 113.74805 C 37.471824 113.72508 37.268971 113.71289 37.050781 113.71289 z M 58.185547 113.71289 C 57.779025 113.71289 57.394134 113.74429 57.03125 113.80859 C 56.670663 113.87061 56.330964 113.94432 56.011719 114.0293 L 56.011719 114.5332 C 56.1656 114.47349 56.319119 114.41611 56.470703 114.36328 C 56.622287 114.31046 56.779948 114.26561 56.945312 114.22656 C 57.110677 114.18522 57.28984 114.15187 57.480469 114.12891 C 57.671097 114.10594 57.881311 114.0957 58.113281 114.0957 C 58.285536 114.0957 58.456995 114.10306 58.626953 114.11914 C 58.799208 114.13292 58.963306 114.15696 59.117188 114.19141 C 59.273365 114.22586 59.417571 114.27266 59.550781 114.33008 C 59.683992 114.3852 59.799678 114.45408 59.898438 114.53906 C 59.997197 114.62174 60.073785 114.71949 60.128906 114.83203 C 60.184028 114.94457 60.212891 115.07567 60.212891 115.22266 L 60.212891 115.58398 C 59.769621 115.60925 59.345287 115.64064 58.943359 115.67969 C 58.543728 115.71644 58.172635 115.7645 57.828125 115.82422 C 57.483615 115.88164 57.170826 115.95408 56.890625 116.03906 C 56.61272 116.12174 56.375253 116.22398 56.177734 116.3457 C 55.980215 116.46513 55.826696 116.60646 55.71875 116.76953 C 55.6131 116.9303 55.560547 117.11487 55.560547 117.32617 C 55.560547 117.53977 55.607349 117.72951 55.699219 117.89258 C 55.791088 118.05335 55.921839 118.18858 56.091797 118.29883 C 56.261755 118.40677 56.467484 118.48785 56.710938 118.54297 C 56.956688 118.59809 57.235207 118.625 57.542969 118.625 C 57.779532 118.625 58.019875 118.60994 58.265625 118.58008 C 58.511375 118.55022 58.750452 118.50825 58.982422 118.45312 C 59.216689 118.398 59.437482 118.3336 59.646484 118.25781 C 59.857784 118.18202 60.047526 118.09934 60.212891 118.00977 L 60.212891 118.5332 L 60.638672 118.5332 L 60.638672 115.32227 C 60.638672 115.03058 60.575539 114.78219 60.449219 114.58008 C 60.322899 114.37567 60.150174 114.21065 59.929688 114.08203 C 59.709201 113.95341 59.448966 113.86015 59.150391 113.80273 C 58.851815 113.74302 58.530057 113.71289 58.185547 113.71289 z M 51.96875 113.74805 C 51.555338 113.74805 51.176197 113.80635 50.833984 113.92578 C 50.491771 114.04521 50.198875 114.21379 49.953125 114.42969 C 49.707375 114.64558 49.514757 114.90421 49.376953 115.20508 C 49.241446 115.50595 49.173828 115.83668 49.173828 116.19727 C 49.173828 116.56934 49.244321 116.90455 49.386719 117.20312 C 49.529116 117.5017 49.732313 117.7555 49.994141 117.9668 C 50.258265 118.1758 50.576805 118.33668 50.951172 118.44922 C 51.325539 118.56176 51.745045 118.61914 52.208984 118.61914 C 52.4088 118.61914 52.590495 118.61144 52.755859 118.59766 C 52.923521 118.58617 53.089229 118.56662 53.25 118.53906 C 53.410771 118.5138 53.572917 118.48079 53.738281 118.43945 C 53.903646 118.39582 54.082465 118.34487 54.275391 118.28516 L 54.275391 117.78516 C 54.183521 117.84257 54.066569 117.898 53.921875 117.95312 C 53.777181 118.00595 53.615958 118.05402 53.441406 118.09766 C 53.266855 118.139 53.08516 118.17395 52.894531 118.19922 C 52.703903 118.22448 52.516113 118.23633 52.330078 118.23633 C 51.893699 118.23633 51.510073 118.19274 51.181641 118.10547 C 50.855505 118.0159 50.580548 117.88802 50.355469 117.72266 C 50.132686 117.55729 49.959617 117.3557 49.837891 117.11914 C 49.716164 116.88258 49.644405 116.6182 49.619141 116.32422 L 54.666016 116.32422 L 54.666016 116.2168 C 54.666016 115.83554 54.605758 115.49457 54.486328 115.19141 C 54.366898 114.88594 54.192564 114.62571 53.962891 114.41211 C 53.733217 114.19851 53.450557 114.03476 53.115234 113.91992 C 52.779912 113.80509 52.398239 113.74805 51.96875 113.74805 z M 44.496094 113.79883 L 44.496094 116.97852 C 44.496094 117.24723 44.524613 117.47861 44.582031 117.67383 C 44.63945 117.86905 44.740072 118.03154 44.884766 118.16016 C 45.031756 118.28648 45.228859 118.38135 45.474609 118.44336 C 45.722656 118.50307 46.035102 118.5332 46.414062 118.5332 L 48.640625 118.5332 L 48.640625 118.11523 L 46.5 118.11523 C 46.15549 118.11523 45.878924 118.09281 45.669922 118.04688 C 45.463216 117.99864 45.305556 117.92493 45.195312 117.82617 C 45.085069 117.72741 45.012967 117.60115 44.978516 117.44727 C 44.944065 117.29338 44.925781 117.11008 44.925781 116.89648 L 44.925781 113.79883 L 44.496094 113.79883 z M 51.960938 114.12891 C 52.353679 114.12891 52.690502 114.17858 52.970703 114.27734 C 53.253201 114.3761 53.484574 114.51007 53.666016 114.67773 C 53.849754 114.8454 53.988209 115.03928 54.080078 115.25977 C 54.171947 115.47796 54.22611 115.70806 54.242188 115.94922 L 49.619141 115.94922 C 49.648998 115.70577 49.717882 115.47405 49.828125 115.25586 C 49.938368 115.03537 50.090278 114.8431 50.283203 114.67773 C 50.476129 114.51007 50.71233 114.3761 50.990234 114.27734 C 51.268139 114.17858 51.591164 114.12891 51.960938 114.12891 z M 40.455078 115.95508 L 40.455078 116.37891 L 43.134766 116.37891 L 43.134766 115.95508 L 40.455078 115.95508 z M 60.212891 115.9668 L 60.212891 117.55664 C 60.134802 117.61636 60.036712 117.675 59.921875 117.73242 C 59.809335 117.78984 59.684679 117.844 59.546875 117.89453 C 59.409071 117.94506 59.261647 117.99347 59.105469 118.03711 C 58.949291 118.07845 58.791631 118.11433 58.630859 118.14648 C 58.470088 118.17634 58.307599 118.20038 58.144531 118.21875 C 57.98376 118.23483 57.827366 118.24219 57.675781 118.24219 C 57.418547 118.24219 57.187175 118.22459 56.980469 118.18555 C 56.773763 118.14421 56.597819 118.08395 56.453125 118.00586 C 56.308431 117.92547 56.19723 117.82612 56.119141 117.70898 C 56.043348 117.59185 56.005859 117.45822 56.005859 117.30664 C 56.005859 117.12061 56.084057 116.95363 56.240234 116.80664 C 56.398709 116.65965 56.646755 116.53017 56.984375 116.41992 C 57.321995 116.30968 57.756564 116.21837 58.287109 116.14258 C 58.819951 116.06679 59.461859 116.00814 60.212891 115.9668 z "
       d="m 65.003906,113.60352 c -0.240293,0 -0.473092,0.0314 -0.699218,0.0879 v -0.002 c -0.22288,0.054 -0.435892,0.12967 -0.640626,0.22852 -0.204237,0.0962 -0.398897,0.21372 -0.583984,0.34961 -0.136749,0.10168 -0.260287,0.21772 -0.382812,0.33398 v -0.80273 a 0.07337145,0.07337145 0 0 0 -0.07422,-0.0742 h -0.429688 a 0.07337145,0.07337145 0 0 0 -0.07422,0.0742 v 4.73437 a 0.07337145,0.07337145 0 0 0 0.07422,0.0742 h 0.429688 a 0.07337145,0.07337145 0 0 0 0.07422,-0.0742 v -3.25781 c 0.126518,-0.15047 0.267748,-0.29529 0.423828,-0.42969 0.161555,-0.14136 0.334927,-0.26366 0.523437,-0.36914 0.189769,-0.10493 0.395207,-0.18743 0.615235,-0.24804 0.220651,-0.0624 0.456136,-0.0937 0.707031,-0.0937 0.182407,0 0.329715,0.0134 0.439453,0.0371 a 0.07337145,0.07337145 0 0 0 0.002,0 c 0.11817,0.0227 0.207741,0.0433 0.269531,0.0625 a 0.07337145,0.07337145 0 0 0 0.0957,-0.0703 v -0.42383 a 0.07337145,0.07337145 0 0 0 -0.06055,-0.0723 c -0.05174,-0.009 -0.101625,-0.0165 -0.150391,-0.0234 -0.04847,-0.007 -0.101115,-0.0129 -0.15625,-0.0176 -0.05568,-0.007 -0.117462,-0.0133 -0.183594,-0.0156 l 0.0039,0.002 c -0.06577,-0.005 -0.140311,-0.01 -0.222656,-0.01 z m 4.605469,0.008 c -0.287714,0 -0.56158,0.0307 -0.822266,0.0918 -0.258514,0.0606 -0.501274,0.13849 -0.730468,0.23438 -0.22557,0.093 -0.438528,0.1963 -0.636719,0.31055 -0.152299,0.087 -0.286998,0.16856 -0.419922,0.25 v -0.69922 a 0.07337145,0.07337145 0 0 0 -0.07422,-0.0742 h -0.429687 a 0.07337145,0.07337145 0 0 0 -0.07422,0.0742 v 4.73437 a 0.07337145,0.07337145 0 0 0 0.07422,0.0742 h 0.429687 A 0.07337145,0.07337145 0 0 0 67,118.5332 v -3.37109 c 0.125763,-0.10402 0.275067,-0.2126 0.455078,-0.32617 0.189391,-0.1195 0.396544,-0.22682 0.623047,-0.32422 a 0.07337145,0.07337145 0 0 0 0,-0.002 c 0.225674,-0.0993 0.465299,-0.18078 0.71875,-0.24415 0.25355,-0.0651 0.512681,-0.0957 0.775391,-0.0957 0.227848,0 0.431282,0.0189 0.611328,0.0566 0.177145,0.0372 0.324627,0.10219 0.443359,0.19336 0.119714,0.0903 0.210653,0.21141 0.275391,0.3711 a 0.07337145,0.07337145 0 0 0 0,0.002 c 0.06588,0.15512 0.101562,0.36018 0.101562,0.61523 v 3.125 a 0.07337145,0.07337145 0 0 0 0.07422,0.0742 h 0.429687 a 0.07337145,0.07337145 0 0 0 0.07422,-0.0742 v -3.21875 c 0,-0.25575 -0.04121,-0.48982 -0.123047,-0.69922 -0.08194,-0.21206 -0.205737,-0.3931 -0.373046,-0.54101 -0.165027,-0.15047 -0.373099,-0.26349 -0.619141,-0.3418 h -0.002 c -0.245508,-0.0808 -0.530991,-0.12109 -0.855469,-0.12109 z m -32.558594,0.0273 c -0.293179,0 -0.574797,0.0236 -0.845703,0.0703 -0.271196,0.0444 -0.526834,0.11363 -0.763672,0.20508 -0.234444,0.0892 -0.45098,0.20282 -0.646484,0.3418 a 0.07337145,0.07337145 0 0 0 0,0.002 c -0.194412,0.13988 -0.360085,0.30443 -0.5,0.49414 -0.138131,0.18814 -0.24654,0.40203 -0.322266,0.63867 -0.07585,0.2354 -0.113281,0.4958 -0.113281,0.7793 0,0.42487 0.08142,0.79738 0.246094,1.11719 0.163385,0.3173 0.388945,0.58394 0.675781,0.79492 0.288451,0.20806 0.627149,0.36188 1.015625,0.46485 a 0.07337145,0.07337145 0 0 0 0.002,0 c 0.387939,0.10049 0.806793,0.15234 1.257813,0.15234 0.219838,0 0.430967,-0.009 0.630859,-0.0254 0.201535,-0.0162 0.39415,-0.0382 0.580078,-0.0684 0.188098,-0.0325 0.370469,-0.0726 0.544922,-0.11914 0.176325,-0.0464 0.349529,-0.0997 0.521484,-0.16016 a 0.07337145,0.07337145 0 0 0 0.05078,-0.0684 v -2.08203 a 0.07337145,0.07337145 0 0 0 -0.07422,-0.0742 h -2.355469 a 0.07337145,0.07337145 0 0 0 -0.07422,0.0742 v 0.4043 a 0.07337145,0.07337145 0 0 0 0.07422,0.0742 h 1.851563 v 1.30468 c -0.07808,0.0222 -0.163011,0.0436 -0.269532,0.0664 -0.126725,0.0249 -0.267304,0.0495 -0.421875,0.0723 -0.155015,0.0205 -0.320692,0.0391 -0.496093,0.0527 -0.1723,0.0136 -0.345863,0.0176 -0.523438,0.0176 -0.451598,0 -0.842754,-0.0497 -1.173828,-0.15039 -0.332839,-0.1012 -0.607612,-0.2394 -0.826172,-0.41602 -0.216743,-0.17693 -0.378409,-0.38664 -0.486328,-0.6289 -0.106158,-0.24549 -0.158203,-0.51093 -0.158203,-0.80274 0,-0.31281 0.05402,-0.59278 0.162109,-0.83984 0.11017,-0.24678 0.271653,-0.45278 0.490235,-0.625 0.218329,-0.17201 0.495241,-0.30796 0.830078,-0.40235 0.333985,-0.0941 0.727413,-0.14062 1.18164,-0.14062 0.221458,0 0.428255,0.0154 0.619141,0.0469 0.194244,0.0316 0.373032,0.0751 0.539063,0.12891 a 0.07337145,0.07337145 0 0 0 0.002,0 c 0.169029,0.0541 0.325538,0.11784 0.46875,0.18945 0.147058,0.0724 0.285416,0.14922 0.414062,0.23047 a 0.07337145,0.07337145 0 0 0 0.113281,-0.0625 v -0.52343 a 0.07337145,0.07337145 0 0 0 -0.04687,-0.0684 c -0.166474,-0.0694 -0.330955,-0.13364 -0.496093,-0.18946 v 0.002 c -0.165326,-0.0582 -0.335557,-0.10888 -0.509766,-0.14844 h -0.002 c -0.174625,-0.0418 -0.357366,-0.0709 -0.546875,-0.0918 h -0.002 c -0.191008,-0.0232 -0.39696,-0.0371 -0.617188,-0.0371 z m 21.134766,0 c -0.4103,0 -0.80035,0.0325 -1.167969,0.0977 -0.361838,0.0623 -0.704419,0.13721 -1.02539,0.22265 a 0.07337145,0.07337145 0 0 0 -0.05469,0.0703 v 0.5039 a 0.07337145,0.07337145 0 0 0 0.101562,0.0684 c 0.153318,-0.0595 0.304548,-0.11746 0.455079,-0.16992 0.148843,-0.0519 0.305463,-0.0943 0.46875,-0.13281 a 0.07337145,0.07337145 0 0 0 0,-0.002 c 0.162275,-0.0406 0.337717,-0.0731 0.52539,-0.0957 0.186839,-0.0225 0.395189,-0.0312 0.625,-0.0312 0.170165,0 0.338418,0.006 0.50586,0.0215 a 0.07337145,0.07337145 0 0 0 0.002,0 c 0.169186,0.0135 0.330337,0.0386 0.480468,0.0723 0.151806,0.0335 0.29108,0.0773 0.419922,0.13281 a 0.07337145,0.07337145 0 0 0 0.002,0.002 c 0.127124,0.0526 0.235979,0.11602 0.328124,0.19531 a 0.07337145,0.07337145 0 0 0 0,0.002 c 0.09125,0.0764 0.160244,0.16603 0.210938,0.26953 0.04967,0.10142 0.07617,0.22004 0.07617,0.35743 v 0.29296 c -0.41756,0.0246 -0.822286,0.0548 -1.203125,0.0918 -0.400531,0.0369 -0.773016,0.0845 -1.119141,0.14453 -0.347277,0.0579 -0.663634,0.13078 -0.947265,0.2168 -0.282801,0.0841 -0.526213,0.18858 -0.730469,0.31445 -0.204383,0.12381 -0.365882,0.27221 -0.480469,0.44532 -0.11367,0.17297 -0.171875,0.37419 -0.171875,0.59765 0,0.22432 0.04985,0.42657 0.148438,0.60156 a 0.07337145,0.07337145 0 0 0 0,0.002 c 0.09795,0.17142 0.239444,0.31583 0.417968,0.43164 0.17854,0.11339 0.392694,0.19733 0.642578,0.2539 0.252325,0.0566 0.535618,0.084 0.847657,0.084 0.239676,0 0.483918,-0.0167 0.732422,-0.0469 0.248265,-0.0302 0.489756,-0.0711 0.724609,-0.12695 0.236665,-0.0557 0.459827,-0.12232 0.671875,-0.19922 0.173606,-0.0623 0.322266,-0.13304 0.466797,-0.20508 v 0.41211 a 0.07337145,0.07337145 0 0 0 0.07422,0.0742 h 0.425781 a 0.07337145,0.07337145 0 0 0 0.07422,-0.0742 v -3.21093 c 0,-0.30228 -0.06636,-0.56555 -0.201172,-0.78125 -0.13276,-0.21483 -0.315249,-0.38751 -0.544922,-0.52149 -0.228857,-0.1335 -0.497456,-0.23035 -0.802735,-0.28906 -0.30386,-0.0608 -0.629728,-0.0918 -0.978515,-0.0918 z m -6.216797,0.0352 c -0.420309,0 -0.807087,0.0611 -1.158203,0.18359 -0.350196,0.12222 -0.653012,0.2951 -0.90625,0.51758 -0.253296,0.22252 -0.451796,0.4889 -0.59375,0.79883 a 0.07337145,0.07337145 0 0 0 0,0.002 c -0.140021,0.31089 -0.210938,0.65172 -0.210938,1.02149 0,0.38133 0.07317,0.72777 0.220703,1.03711 0.147117,0.30847 0.357219,0.57138 0.626954,0.78906 a 0.07337145,0.07337145 0 0 0 0.002,0 c 0.272266,0.21544 0.598629,0.3813 0.980469,0.49609 0.382253,0.11491 0.809308,0.17383 1.279296,0.17383 0.201701,0 0.385193,-0.009 0.552735,-0.0234 0.170035,-0.0117 0.336649,-0.0306 0.5,-0.0586 0.16298,-0.0256 0.326744,-0.0597 0.49414,-0.10156 a 0.07337145,0.07337145 0 0 0 0.002,0 c 0.166374,-0.0439 0.345166,-0.0943 0.539063,-0.1543 a 0.07337145,0.07337145 0 0 0 0.05273,-0.0703 v -0.5 a 0.07337145,0.07337145 0 0 0 -0.113281,-0.0625 c -0.08614,0.0538 -0.19815,0.10813 -0.339844,0.16211 -0.141669,0.0517 -0.30009,0.0994 -0.472656,0.14257 v -0.002 c -0.172464,0.0408 -0.351149,0.0767 -0.539062,0.10156 -0.18737,0.0248 -0.371768,0.0352 -0.554688,0.0352 -0.431493,0 -0.808318,-0.0418 -1.128906,-0.12695 -0.319095,-0.0876 -0.586086,-0.21193 -0.802734,-0.3711 -0.214473,-0.1592 -0.379554,-0.35164 -0.496094,-0.57812 -0.10541,-0.20485 -0.167134,-0.43527 -0.197266,-0.6875 h 4.960938 a 0.07337145,0.07337145 0 0 0 0.07422,-0.0742 v -0.10742 c 0,-0.38899 -0.06233,-0.73995 -0.185546,-1.05274 -0.123102,-0.31486 -0.303141,-0.58541 -0.541016,-0.80664 -0.237963,-0.22131 -0.531409,-0.39014 -0.875,-0.50781 -0.34442,-0.11795 -0.733937,-0.17578 -1.169922,-0.17578 z m -7.472656,0.0508 a 0.07337145,0.07337145 0 0 0 -0.07422,0.0742 v 3.17969 c 0,0.2739 0.02985,0.51283 0.08984,0.71679 0.06086,0.20691 0.169216,0.38175 0.324219,0.51953 a 0.07337145,0.07337145 0 0 0 0.002,0 c 0.157806,0.13562 0.365202,0.23476 0.61914,0.29883 a 0.07337145,0.07337145 0 0 0 0,0.002 c 0.256216,0.0617 0.574183,0.0918 0.957031,0.0918 h 2.226563 a 0.07337145,0.07337145 0 0 0 0.07422,-0.0742 v -0.41797 a 0.07337145,0.07337145 0 0 0 -0.07422,-0.0742 H 46.5 c -0.340408,0 -0.612016,-0.0226 -0.8125,-0.0664 h -0.002 c -0.197609,-0.0464 -0.343873,-0.11575 -0.441406,-0.20313 -0.09894,-0.0886 -0.161807,-0.19891 -0.19336,-0.33984 C 45.017834,117.28447 45,117.1059 45,116.89648 v -3.09765 a 0.07337145,0.07337145 0 0 0 -0.07422,-0.0742 z m 7.464844,0.47851 c 0.386555,0 0.716237,0.0474 0.986328,0.14258 0.274767,0.0961 0.497005,0.22694 0.669922,0.38672 0.176492,0.16106 0.306854,0.34426 0.394531,0.55469 a 0.07337145,0.07337145 0 0 0 0,0.002 c 0.07852,0.1865 0.125256,0.38174 0.146484,0.58594 h -4.449219 c 0.03341,-0.20426 0.09211,-0.401 0.185547,-0.58594 0.105817,-0.21163 0.249508,-0.39522 0.435547,-0.55468 a 0.07337145,0.07337145 0 0 0 0.002,-0.002 c 0.185153,-0.1609 0.413056,-0.29057 0.683594,-0.38672 0.268316,-0.0953 0.582108,-0.14257 0.945313,-0.14258 z m -11.50586,1.67774 a 0.07337145,0.07337145 0 0 0 -0.07422,0.0742 v 0.42383 a 0.07337145,0.07337145 0 0 0 0.07422,0.0742 h 2.679688 a 0.07337145,0.07337145 0 0 0 0.07422,-0.0742 v -0.42383 a 0.07337145,0.07337145 0 0 0 -0.07422,-0.0742 z m 19.683594,0.16602 v 1.46874 c -0.06929,0.0501 -0.149819,0.1003 -0.25,0.1504 a 0.07337145,0.07337145 0 0 0 0,0.002 c -0.10964,0.0559 -0.231866,0.10858 -0.367188,0.1582 -0.136145,0.0499 -0.281387,0.0975 -0.435546,0.14063 -0.154523,0.0409 -0.309227,0.0755 -0.46875,0.10742 -0.158997,0.0295 -0.319089,0.0541 -0.480469,0.0723 -0.158289,0.0158 -0.311727,0.0215 -0.460938,0.0215 -0.253887,0 -0.480793,-0.0168 -0.68164,-0.0547 -0.201113,-0.0402 -0.369158,-0.0981 -0.50586,-0.17187 -0.135263,-0.0752 -0.235832,-0.16611 -0.30664,-0.27149 l -0.002,-0.002 c -0.06702,-0.10448 -0.09961,-0.22281 -0.09961,-0.36133 0,-0.16499 0.06694,-0.3093 0.210938,-0.44531 0.14624,-0.13564 0.385209,-0.26282 0.716796,-0.3711 0.331325,-0.10818 0.761132,-0.19997 1.289063,-0.27539 0.510043,-0.0725 1.12832,-0.12701 1.841797,-0.16796 z"
       transform="matrix(2.1079236,0,0,2.1079236,-25.28478,-124.12584)" />
  </g>
</svg>
