<?xml version="1.0" encoding="UTF-8" standalone="no"?>
<!DOCTYPE svg PUBLIC "-//W3C//DTD SVG 1.1//EN"
 "http://www.w3.org/Graphics/SVG/1.1/DTD/svg11.dtd">
<!-- Generated by graphviz version 2.43.0 (0)
 -->
<!-- Title: /home/sia/work/ADCP/Noise&#45;Estimation/code/imate/imate/_c_linear_operator/c_affine_matrix_function.h Pages: 1 -->
<svg width="164pt" height="240pt"
 viewBox="0.00 0.00 163.50 240.00" xmlns="http://www.w3.org/2000/svg" xmlns:xlink="http://www.w3.org/1999/xlink">
<g id="graph0" class="graph" transform="scale(1 1) rotate(0) translate(4 236)">
<title>/home/sia/work/ADCP/Noise&#45;Estimation/code/imate/imate/_c_linear_operator/c_affine_matrix_function.h</title>
<polygon fill="white" stroke="transparent" points="-4,4 -4,-236 159.5,-236 159.5,4 -4,4"/>
<!-- Node1 -->
<g id="node1" class="node">
<title>Node1</title>
<g id="a_node1"><a xlink:title=" ">
<polygon fill="#bfbfbf" stroke="black" points="0,-168.5 0,-231.5 127,-231.5 127,-168.5 0,-168.5"/>
<text text-anchor="start" x="8" y="-219.5" font-family="Helvetica,sans-Serif" font-size="10.00">/home/sia/work/ADCP</text>
<text text-anchor="start" x="8" y="-208.5" font-family="Helvetica,sans-Serif" font-size="10.00">/Noise&#45;Estimation/code</text>
<text text-anchor="start" x="8" y="-197.5" font-family="Helvetica,sans-Serif" font-size="10.00">/imate/imate/_c_linear</text>
<text text-anchor="start" x="8" y="-186.5" font-family="Helvetica,sans-Serif" font-size="10.00">_operator/c_affine_matrix</text>
<text text-anchor="middle" x="63.5" y="-175.5" font-family="Helvetica,sans-Serif" font-size="10.00">_function.h</text>
</a>
</g>
</g>
<!-- Node2 -->
<g id="node2" class="node">
<title>Node2</title>
<g id="a_node2"><a xlink:href="types_8h.html" target="_top" xlink:title=" ">
<polygon fill="white" stroke="black" points="8.5,-56.5 8.5,-75.5 118.5,-75.5 118.5,-56.5 8.5,-56.5"/>
<text text-anchor="middle" x="63.5" y="-63.5" font-family="Helvetica,sans-Serif" font-size="10.00">../_definitions/types.h</text>
</a>
</g>
</g>
<!-- Node1&#45;&gt;Node2 -->
<g id="edge1" class="edge">
<title>Node1&#45;&gt;Node2</title>
<path fill="none" stroke="midnightblue" d="M49.18,-168.46C43.12,-151.81 38.33,-130.81 42.5,-112 44.62,-102.43 49.01,-92.48 53.22,-84.37"/>
<polygon fill="midnightblue" stroke="midnightblue" points="56.32,-86 58.12,-75.56 50.2,-82.6 56.32,-86"/>
</g>
<!-- Node4 -->
<g id="node4" class="node">
<title>Node4</title>
<g id="a_node4"><a xlink:href="c__linear__operator_8h.html" target="_top" xlink:title=" ">
<polygon fill="white" stroke="black" points="51.5,-112.5 51.5,-131.5 155.5,-131.5 155.5,-112.5 51.5,-112.5"/>
<text text-anchor="middle" x="103.5" y="-119.5" font-family="Helvetica,sans-Serif" font-size="10.00">./c_linear_operator.h</text>
</a>
</g>
</g>
<!-- Node1&#45;&gt;Node4 -->
<g id="edge3" class="edge">
<title>Node1&#45;&gt;Node4</title>
<path fill="none" stroke="midnightblue" d="M79.77,-168.09C84.69,-158.74 89.92,-148.8 94.22,-140.63"/>
<polygon fill="midnightblue" stroke="midnightblue" points="97.35,-142.2 98.91,-131.72 91.16,-138.94 97.35,-142.2"/>
</g>
<!-- Node3 -->
<g id="node3" class="node">
<title>Node3</title>
<g id="a_node3"><a xlink:href="definitions_8h.html" target="_top" xlink:title=" ">
<polygon fill="white" stroke="black" points="26,-0.5 26,-19.5 101,-19.5 101,-0.5 26,-0.5"/>
<text text-anchor="middle" x="63.5" y="-7.5" font-family="Helvetica,sans-Serif" font-size="10.00">./definitions.h</text>
</a>
</g>
</g>
<!-- Node2&#45;&gt;Node3 -->
<g id="edge2" class="edge">
<title>Node2&#45;&gt;Node3</title>
<path fill="none" stroke="midnightblue" d="M63.5,-56.08C63.5,-49.01 63.5,-38.86 63.5,-29.99"/>
<polygon fill="midnightblue" stroke="midnightblue" points="67,-29.75 63.5,-19.75 60,-29.75 67,-29.75"/>
</g>
<!-- Node4&#45;&gt;Node2 -->
<g id="edge4" class="edge">
<title>Node4&#45;&gt;Node2</title>
<path fill="none" stroke="midnightblue" d="M96.89,-112.08C91.24,-104.46 82.96,-93.26 76.05,-83.94"/>
<polygon fill="midnightblue" stroke="midnightblue" points="78.75,-81.7 69.98,-75.75 73.12,-85.87 78.75,-81.7"/>
</g>
</g>
</svg>
