<?xml version="1.0" encoding="UTF-8" standalone="no"?>
<!DOCTYPE svg PUBLIC "-//W3C//DTD SVG 1.1//EN"
 "http://www.w3.org/Graphics/SVG/1.1/DTD/svg11.dtd">
<!-- Generated by graphviz version 2.43.0 (0)
 -->
<!-- Title: /home/sia/work/ADCP/Noise&#45;Estimation/code/imate/imate/_c_linear_operator/c_affine_matrix_function.cpp Pages: 1 -->
<svg width="299pt" height="307pt"
 viewBox="0.00 0.00 298.50 307.00" xmlns="http://www.w3.org/2000/svg" xmlns:xlink="http://www.w3.org/1999/xlink">
<g id="graph0" class="graph" transform="scale(1 1) rotate(0) translate(4 303)">
<title>/home/sia/work/ADCP/Noise&#45;Estimation/code/imate/imate/_c_linear_operator/c_affine_matrix_function.cpp</title>
<polygon fill="white" stroke="transparent" points="-4,4 -4,-303 294.5,-303 294.5,4 -4,4"/>
<!-- Node1 -->
<g id="node1" class="node">
<title>Node1</title>
<g id="a_node1"><a xlink:title=" ">
<polygon fill="#bfbfbf" stroke="black" points="116,-235.5 116,-298.5 243,-298.5 243,-235.5 116,-235.5"/>
<text text-anchor="start" x="124" y="-286.5" font-family="Helvetica,sans-Serif" font-size="10.00">/home/sia/work/ADCP</text>
<text text-anchor="start" x="124" y="-275.5" font-family="Helvetica,sans-Serif" font-size="10.00">/Noise&#45;Estimation/code</text>
<text text-anchor="start" x="124" y="-264.5" font-family="Helvetica,sans-Serif" font-size="10.00">/imate/imate/_c_linear</text>
<text text-anchor="start" x="124" y="-253.5" font-family="Helvetica,sans-Serif" font-size="10.00">_operator/c_affine_matrix</text>
<text text-anchor="middle" x="179.5" y="-242.5" font-family="Helvetica,sans-Serif" font-size="10.00">_function.cpp</text>
</a>
</g>
</g>
<!-- Node2 -->
<g id="node2" class="node">
<title>Node2</title>
<g id="a_node2"><a xlink:href="c__affine__matrix__function_8h.html" target="_top" xlink:title=" ">
<polygon fill="white" stroke="black" points="0,-179.5 0,-198.5 137,-198.5 137,-179.5 0,-179.5"/>
<text text-anchor="middle" x="68.5" y="-186.5" font-family="Helvetica,sans-Serif" font-size="10.00">./c_affine_matrix_function.h</text>
</a>
</g>
</g>
<!-- Node1&#45;&gt;Node2 -->
<g id="edge1" class="edge">
<title>Node1&#45;&gt;Node2</title>
<path fill="none" stroke="midnightblue" d="M134.67,-235.31C119.18,-224.7 102.53,-213.3 89.81,-204.59"/>
<polygon fill="midnightblue" stroke="midnightblue" points="91.54,-201.54 81.31,-198.77 87.59,-207.31 91.54,-201.54"/>
</g>
<!-- Node6 -->
<g id="node6" class="node">
<title>Node6</title>
<g id="a_node6"><a xlink:title=" ">
<polygon fill="white" stroke="#bfbfbf" points="155,-179.5 155,-198.5 204,-198.5 204,-179.5 155,-179.5"/>
<text text-anchor="middle" x="179.5" y="-186.5" font-family="Helvetica,sans-Serif" font-size="10.00">cassert</text>
</a>
</g>
</g>
<!-- Node1&#45;&gt;Node6 -->
<g id="edge6" class="edge">
<title>Node1&#45;&gt;Node6</title>
<path fill="none" stroke="midnightblue" d="M179.5,-235.09C179.5,-226.15 179.5,-216.67 179.5,-208.72"/>
<polygon fill="midnightblue" stroke="midnightblue" points="183,-208.72 179.5,-198.72 176,-208.72 183,-208.72"/>
</g>
<!-- Node7 -->
<g id="node7" class="node">
<title>Node7</title>
<g id="a_node7"><a xlink:href="c__vector__operations_8h.html" target="_top" xlink:title=" ">
<polygon fill="white" stroke="black" points="174.5,-112.5 174.5,-142.5 290.5,-142.5 290.5,-112.5 174.5,-112.5"/>
<text text-anchor="start" x="182.5" y="-130.5" font-family="Helvetica,sans-Serif" font-size="10.00">../_c_basic_algebra</text>
<text text-anchor="middle" x="232.5" y="-119.5" font-family="Helvetica,sans-Serif" font-size="10.00">/c_vector_operations.h</text>
</a>
</g>
</g>
<!-- Node1&#45;&gt;Node7 -->
<g id="edge7" class="edge">
<title>Node1&#45;&gt;Node7</title>
<path fill="none" stroke="midnightblue" d="M196.78,-235.25C202.62,-224.07 208.83,-211.18 213.5,-199 219.27,-183.97 223.99,-166.49 227.29,-152.7"/>
<polygon fill="midnightblue" stroke="midnightblue" points="230.79,-153.08 229.61,-142.55 223.97,-151.51 230.79,-153.08"/>
</g>
<!-- Node3 -->
<g id="node3" class="node">
<title>Node3</title>
<g id="a_node3"><a xlink:href="types_8h.html" target="_top" xlink:title=" ">
<polygon fill="white" stroke="black" points="49.5,-56.5 49.5,-75.5 159.5,-75.5 159.5,-56.5 49.5,-56.5"/>
<text text-anchor="middle" x="104.5" y="-63.5" font-family="Helvetica,sans-Serif" font-size="10.00">../_definitions/types.h</text>
</a>
</g>
</g>
<!-- Node2&#45;&gt;Node3 -->
<g id="edge2" class="edge">
<title>Node2&#45;&gt;Node3</title>
<path fill="none" stroke="midnightblue" d="M61.3,-179.23C50.33,-164.73 31.85,-135.06 43.5,-112 50.31,-98.52 63.27,-88.08 75.5,-80.67"/>
<polygon fill="midnightblue" stroke="midnightblue" points="77.57,-83.52 84.59,-75.59 74.16,-77.41 77.57,-83.52"/>
</g>
<!-- Node5 -->
<g id="node5" class="node">
<title>Node5</title>
<g id="a_node5"><a xlink:href="c__linear__operator_8h.html" target="_top" xlink:title=" ">
<polygon fill="white" stroke="black" points="52.5,-118 52.5,-137 156.5,-137 156.5,-118 52.5,-118"/>
<text text-anchor="middle" x="104.5" y="-125" font-family="Helvetica,sans-Serif" font-size="10.00">./c_linear_operator.h</text>
</a>
</g>
</g>
<!-- Node2&#45;&gt;Node5 -->
<g id="edge4" class="edge">
<title>Node2&#45;&gt;Node5</title>
<path fill="none" stroke="midnightblue" d="M73.66,-179.48C78.95,-170.73 87.34,-156.87 94.03,-145.81"/>
<polygon fill="midnightblue" stroke="midnightblue" points="97.17,-147.38 99.35,-137.01 91.18,-143.75 97.17,-147.38"/>
</g>
<!-- Node4 -->
<g id="node4" class="node">
<title>Node4</title>
<g id="a_node4"><a xlink:href="definitions_8h.html" target="_top" xlink:title=" ">
<polygon fill="white" stroke="black" points="67,-0.5 67,-19.5 142,-19.5 142,-0.5 67,-0.5"/>
<text text-anchor="middle" x="104.5" y="-7.5" font-family="Helvetica,sans-Serif" font-size="10.00">./definitions.h</text>
</a>
</g>
</g>
<!-- Node3&#45;&gt;Node4 -->
<g id="edge3" class="edge">
<title>Node3&#45;&gt;Node4</title>
<path fill="none" stroke="midnightblue" d="M104.5,-56.08C104.5,-49.01 104.5,-38.86 104.5,-29.99"/>
<polygon fill="midnightblue" stroke="midnightblue" points="108,-29.75 104.5,-19.75 101,-29.75 108,-29.75"/>
</g>
<!-- Node5&#45;&gt;Node3 -->
<g id="edge5" class="edge">
<title>Node5&#45;&gt;Node3</title>
<path fill="none" stroke="midnightblue" d="M104.5,-117.98C104.5,-109.58 104.5,-96.48 104.5,-85.66"/>
<polygon fill="midnightblue" stroke="midnightblue" points="108,-85.51 104.5,-75.51 101,-85.51 108,-85.51"/>
</g>
<!-- Node7&#45;&gt;Node3 -->
<g id="edge8" class="edge">
<title>Node7&#45;&gt;Node3</title>
<path fill="none" stroke="midnightblue" d="M202.17,-112.4C180.98,-102.55 152.91,-89.5 132.3,-79.92"/>
<polygon fill="midnightblue" stroke="midnightblue" points="133.67,-76.7 123.13,-75.66 130.72,-83.05 133.67,-76.7"/>
</g>
</g>
</svg>
