<?xml version="1.0" encoding="UTF-8" standalone="no"?>
<!DOCTYPE svg PUBLIC "-//W3C//DTD SVG 1.1//EN"
 "http://www.w3.org/Graphics/SVG/1.1/DTD/svg11.dtd">
<!-- Generated by graphviz version 2.43.0 (0)
 -->
<!-- Title: /home/sia/work/ADCP/Noise&#45;Estimation/code/imate/imate/_c_linear_operator/c_csr_matrix.cpp Pages: 1 -->
<svg width="249pt" height="352pt"
 viewBox="0.00 0.00 248.50 352.00" xmlns="http://www.w3.org/2000/svg" xmlns:xlink="http://www.w3.org/1999/xlink">
<g id="graph0" class="graph" transform="scale(1 1) rotate(0) translate(4 348)">
<title>/home/sia/work/ADCP/Noise&#45;Estimation/code/imate/imate/_c_linear_operator/c_csr_matrix.cpp</title>
<polygon fill="white" stroke="transparent" points="-4,4 -4,-348 244.5,-348 244.5,4 -4,4"/>
<!-- Node1 -->
<g id="node1" class="node">
<title>Node1</title>
<g id="a_node1"><a xlink:title=" ">
<polygon fill="#bfbfbf" stroke="black" points="62,-291.5 62,-343.5 197,-343.5 197,-291.5 62,-291.5"/>
<text text-anchor="start" x="70" y="-331.5" font-family="Helvetica,sans-Serif" font-size="10.00">/home/sia/work/ADCP</text>
<text text-anchor="start" x="70" y="-320.5" font-family="Helvetica,sans-Serif" font-size="10.00">/Noise&#45;Estimation/code</text>
<text text-anchor="start" x="70" y="-309.5" font-family="Helvetica,sans-Serif" font-size="10.00">/imate/imate/_c_linear</text>
<text text-anchor="middle" x="129.5" y="-298.5" font-family="Helvetica,sans-Serif" font-size="10.00">_operator/c_csr_matrix.cpp</text>
</a>
</g>
</g>
<!-- Node2 -->
<g id="node2" class="node">
<title>Node2</title>
<g id="a_node2"><a xlink:href="c__csr__matrix_8h.html" target="_top" xlink:title=" ">
<polygon fill="white" stroke="black" points="0,-235.5 0,-254.5 87,-254.5 87,-235.5 0,-235.5"/>
<text text-anchor="middle" x="43.5" y="-242.5" font-family="Helvetica,sans-Serif" font-size="10.00">./c_csr_matrix.h</text>
</a>
</g>
</g>
<!-- Node1&#45;&gt;Node2 -->
<g id="edge1" class="edge">
<title>Node1&#45;&gt;Node2</title>
<path fill="none" stroke="midnightblue" d="M98.94,-291.45C86.59,-281.33 72.76,-269.98 61.99,-261.16"/>
<polygon fill="midnightblue" stroke="midnightblue" points="64.06,-258.33 54.11,-254.7 59.62,-263.74 64.06,-258.33"/>
</g>
<!-- Node7 -->
<g id="node7" class="node">
<title>Node7</title>
<g id="a_node7"><a xlink:title=" ">
<polygon fill="white" stroke="#bfbfbf" points="105,-235.5 105,-254.5 154,-254.5 154,-235.5 105,-235.5"/>
<text text-anchor="middle" x="129.5" y="-242.5" font-family="Helvetica,sans-Serif" font-size="10.00">cstddef</text>
</a>
</g>
</g>
<!-- Node1&#45;&gt;Node7 -->
<g id="edge8" class="edge">
<title>Node1&#45;&gt;Node7</title>
<path fill="none" stroke="midnightblue" d="M129.5,-291.45C129.5,-282.73 129.5,-273.1 129.5,-264.96"/>
<polygon fill="midnightblue" stroke="midnightblue" points="133,-264.7 129.5,-254.7 126,-264.7 133,-264.7"/>
</g>
<!-- Node8 -->
<g id="node8" class="node">
<title>Node8</title>
<g id="a_node8"><a xlink:href="c__matrix__operations_8h.html" target="_top" xlink:title=" ">
<polygon fill="white" stroke="black" points="124.5,-168.5 124.5,-198.5 240.5,-198.5 240.5,-168.5 124.5,-168.5"/>
<text text-anchor="start" x="132.5" y="-186.5" font-family="Helvetica,sans-Serif" font-size="10.00">../_c_basic_algebra</text>
<text text-anchor="middle" x="182.5" y="-175.5" font-family="Helvetica,sans-Serif" font-size="10.00">/c_matrix_operations.h</text>
</a>
</g>
</g>
<!-- Node1&#45;&gt;Node8 -->
<g id="edge9" class="edge">
<title>Node1&#45;&gt;Node8</title>
<path fill="none" stroke="midnightblue" d="M144.58,-291.36C150.71,-280.45 157.5,-267.36 162.5,-255 168.62,-239.87 173.63,-222.2 177.1,-208.33"/>
<polygon fill="midnightblue" stroke="midnightblue" points="180.52,-209.12 179.46,-198.58 173.71,-207.48 180.52,-209.12"/>
</g>
<!-- Node3 -->
<g id="node3" class="node">
<title>Node3</title>
<g id="a_node3"><a xlink:href="types_8h.html" target="_top" xlink:title=" ">
<polygon fill="white" stroke="black" points="7.5,-56.5 7.5,-75.5 117.5,-75.5 117.5,-56.5 7.5,-56.5"/>
<text text-anchor="middle" x="62.5" y="-63.5" font-family="Helvetica,sans-Serif" font-size="10.00">../_definitions/types.h</text>
</a>
</g>
</g>
<!-- Node2&#45;&gt;Node3 -->
<g id="edge2" class="edge">
<title>Node2&#45;&gt;Node3</title>
<path fill="none" stroke="midnightblue" d="M32.23,-235.43C22.53,-227.27 9.22,-214.05 3.5,-199 -1.4,-186.12 -0.04,-181.32 3.5,-168 12.14,-135.47 34.32,-102.72 48.89,-83.68"/>
<polygon fill="midnightblue" stroke="midnightblue" points="51.72,-85.74 55.16,-75.72 46.22,-81.41 51.72,-85.74"/>
</g>
<!-- Node5 -->
<g id="node5" class="node">
<title>Node5</title>
<g id="a_node5"><a xlink:href="c__matrix_8h.html" target="_top" xlink:title=" ">
<polygon fill="white" stroke="black" points="12.5,-174 12.5,-193 80.5,-193 80.5,-174 12.5,-174"/>
<text text-anchor="middle" x="46.5" y="-181" font-family="Helvetica,sans-Serif" font-size="10.00">./c_matrix.h</text>
</a>
</g>
</g>
<!-- Node2&#45;&gt;Node5 -->
<g id="edge4" class="edge">
<title>Node2&#45;&gt;Node5</title>
<path fill="none" stroke="midnightblue" d="M43.93,-235.48C44.35,-227.08 45.01,-213.98 45.56,-203.16"/>
<polygon fill="midnightblue" stroke="midnightblue" points="49.06,-203.17 46.07,-193.01 42.07,-202.82 49.06,-203.17"/>
</g>
<!-- Node4 -->
<g id="node4" class="node">
<title>Node4</title>
<g id="a_node4"><a xlink:href="definitions_8h.html" target="_top" xlink:title=" ">
<polygon fill="white" stroke="black" points="25,-0.5 25,-19.5 100,-19.5 100,-0.5 25,-0.5"/>
<text text-anchor="middle" x="62.5" y="-7.5" font-family="Helvetica,sans-Serif" font-size="10.00">./definitions.h</text>
</a>
</g>
</g>
<!-- Node3&#45;&gt;Node4 -->
<g id="edge3" class="edge">
<title>Node3&#45;&gt;Node4</title>
<path fill="none" stroke="midnightblue" d="M62.5,-56.08C62.5,-49.01 62.5,-38.86 62.5,-29.99"/>
<polygon fill="midnightblue" stroke="midnightblue" points="66,-29.75 62.5,-19.75 59,-29.75 66,-29.75"/>
</g>
<!-- Node5&#45;&gt;Node3 -->
<g id="edge5" class="edge">
<title>Node5&#45;&gt;Node3</title>
<path fill="none" stroke="midnightblue" d="M44.28,-173.7C41.23,-160.24 36.66,-133.8 41.5,-112 43.62,-102.43 48.01,-92.48 52.22,-84.37"/>
<polygon fill="midnightblue" stroke="midnightblue" points="55.32,-86 57.12,-75.56 49.2,-82.6 55.32,-86"/>
</g>
<!-- Node6 -->
<g id="node6" class="node">
<title>Node6</title>
<g id="a_node6"><a xlink:href="c__linear__operator_8h.html" target="_top" xlink:title=" ">
<polygon fill="white" stroke="black" points="50.5,-112.5 50.5,-131.5 154.5,-131.5 154.5,-112.5 50.5,-112.5"/>
<text text-anchor="middle" x="102.5" y="-119.5" font-family="Helvetica,sans-Serif" font-size="10.00">./c_linear_operator.h</text>
</a>
</g>
</g>
<!-- Node5&#45;&gt;Node6 -->
<g id="edge6" class="edge">
<title>Node5&#45;&gt;Node6</title>
<path fill="none" stroke="midnightblue" d="M54.52,-173.98C63.09,-164.87 76.86,-150.24 87.46,-138.98"/>
<polygon fill="midnightblue" stroke="midnightblue" points="90.19,-141.19 94.49,-131.51 85.09,-136.39 90.19,-141.19"/>
</g>
<!-- Node6&#45;&gt;Node3 -->
<g id="edge7" class="edge">
<title>Node6&#45;&gt;Node3</title>
<path fill="none" stroke="midnightblue" d="M95.89,-112.08C90.24,-104.46 81.96,-93.26 75.05,-83.94"/>
<polygon fill="midnightblue" stroke="midnightblue" points="77.75,-81.7 68.98,-75.75 72.12,-85.87 77.75,-81.7"/>
</g>
<!-- Node8&#45;&gt;Node3 -->
<g id="edge10" class="edge">
<title>Node8&#45;&gt;Node3</title>
<path fill="none" stroke="midnightblue" d="M182.18,-168.42C181.1,-152.89 177.18,-127.99 163.5,-112 149.95,-96.16 129.73,-85.66 110.93,-78.82"/>
<polygon fill="midnightblue" stroke="midnightblue" points="111.87,-75.44 101.27,-75.57 109.63,-82.08 111.87,-75.44"/>
</g>
</g>
</svg>
