<?xml version="1.0" encoding="UTF-8" standalone="no"?>
<!DOCTYPE svg PUBLIC "-//W3C//DTD SVG 1.1//EN"
 "http://www.w3.org/Graphics/SVG/1.1/DTD/svg11.dtd">
<!-- Generated by graphviz version 2.43.0 (0)
 -->
<!-- Title: /home/sia/work/ADCP/Noise&#45;Estimation/code/imate/imate/_c_linear_operator/c_csc_affine_matrix_function.cpp Pages: 1 -->
<svg width="280pt" height="419pt"
 viewBox="0.00 0.00 280.10 419.00" xmlns="http://www.w3.org/2000/svg" xmlns:xlink="http://www.w3.org/1999/xlink">
<g id="graph0" class="graph" transform="scale(1 1) rotate(0) translate(4 415)">
<title>/home/sia/work/ADCP/Noise&#45;Estimation/code/imate/imate/_c_linear_operator/c_csc_affine_matrix_function.cpp</title>
<polygon fill="white" stroke="transparent" points="-4,4 -4,-415 276.1,-415 276.1,4 -4,4"/>
<!-- Node1 -->
<g id="node1" class="node">
<title>Node1</title>
<g id="a_node1"><a xlink:title=" ">
<polygon fill="#bfbfbf" stroke="black" points="121.1,-347.5 121.1,-410.5 240.1,-410.5 240.1,-347.5 121.1,-347.5"/>
<text text-anchor="start" x="129.1" y="-398.5" font-family="Helvetica,sans-Serif" font-size="10.00">/home/sia/work/ADCP</text>
<text text-anchor="start" x="129.1" y="-387.5" font-family="Helvetica,sans-Serif" font-size="10.00">/Noise&#45;Estimation/code</text>
<text text-anchor="start" x="129.1" y="-376.5" font-family="Helvetica,sans-Serif" font-size="10.00">/imate/imate/_c_linear</text>
<text text-anchor="start" x="129.1" y="-365.5" font-family="Helvetica,sans-Serif" font-size="10.00">_operator/c_csc_affine</text>
<text text-anchor="middle" x="180.6" y="-354.5" font-family="Helvetica,sans-Serif" font-size="10.00">_matrix_function.cpp</text>
</a>
</g>
</g>
<!-- Node2 -->
<g id="node2" class="node">
<title>Node2</title>
<g id="a_node2"><a xlink:href="c__csc__affine__matrix__function_8h.html" target="_top" xlink:title=" ">
<polygon fill="white" stroke="black" points="27.6,-280.5 27.6,-310.5 137.6,-310.5 137.6,-280.5 27.6,-280.5"/>
<text text-anchor="start" x="35.6" y="-298.5" font-family="Helvetica,sans-Serif" font-size="10.00">./c_csc_affine_matrix</text>
<text text-anchor="middle" x="82.6" y="-287.5" font-family="Helvetica,sans-Serif" font-size="10.00">_function.h</text>
</a>
</g>
</g>
<!-- Node1&#45;&gt;Node2 -->
<g id="edge1" class="edge">
<title>Node1&#45;&gt;Node2</title>
<path fill="none" stroke="midnightblue" d="M143.83,-347.42C131.71,-337.34 118.53,-326.38 107.51,-317.21"/>
<polygon fill="midnightblue" stroke="midnightblue" points="109.48,-314.3 99.55,-310.6 105,-319.69 109.48,-314.3"/>
</g>
<!-- Node9 -->
<g id="node9" class="node">
<title>Node9</title>
<g id="a_node9"><a xlink:title=" ">
<polygon fill="white" stroke="#bfbfbf" points="156.1,-286 156.1,-305 205.1,-305 205.1,-286 156.1,-286"/>
<text text-anchor="middle" x="180.6" y="-293" font-family="Helvetica,sans-Serif" font-size="10.00">cassert</text>
</a>
</g>
</g>
<!-- Node1&#45;&gt;Node9 -->
<g id="edge13" class="edge">
<title>Node1&#45;&gt;Node9</title>
<path fill="none" stroke="midnightblue" d="M180.6,-347.19C180.6,-336.55 180.6,-324.95 180.6,-315.53"/>
<polygon fill="midnightblue" stroke="midnightblue" points="184.1,-315.34 180.6,-305.34 177.1,-315.34 184.1,-315.34"/>
</g>
<!-- Node10 -->
<g id="node10" class="node">
<title>Node10</title>
<g id="a_node10"><a xlink:title=" ">
<polygon fill="white" stroke="#bfbfbf" points="223.1,-286 223.1,-305 272.1,-305 272.1,-286 223.1,-286"/>
<text text-anchor="middle" x="247.6" y="-293" font-family="Helvetica,sans-Serif" font-size="10.00">cstddef</text>
</a>
</g>
</g>
<!-- Node1&#45;&gt;Node10 -->
<g id="edge14" class="edge">
<title>Node1&#45;&gt;Node10</title>
<path fill="none" stroke="midnightblue" d="M205.93,-347.19C215.44,-335.61 225.9,-322.9 233.95,-313.1"/>
<polygon fill="midnightblue" stroke="midnightblue" points="236.68,-315.29 240.33,-305.34 231.28,-310.84 236.68,-315.29"/>
</g>
<!-- Node3 -->
<g id="node3" class="node">
<title>Node3</title>
<g id="a_node3"><a xlink:href="types_8h.html" target="_top" xlink:title=" ">
<polygon fill="white" stroke="black" points="80.6,-56.5 80.6,-75.5 190.6,-75.5 190.6,-56.5 80.6,-56.5"/>
<text text-anchor="middle" x="135.6" y="-63.5" font-family="Helvetica,sans-Serif" font-size="10.00">../_definitions/types.h</text>
</a>
</g>
</g>
<!-- Node2&#45;&gt;Node3 -->
<g id="edge2" class="edge">
<title>Node2&#45;&gt;Node3</title>
<path fill="none" stroke="midnightblue" d="M63.03,-280.42C34.15,-257.8 -14.5,-211.46 4.6,-168 23.6,-124.76 72.27,-95.39 104.63,-79.91"/>
<polygon fill="midnightblue" stroke="midnightblue" points="106.48,-82.92 114.1,-75.56 103.55,-76.56 106.48,-82.92"/>
</g>
<!-- Node5 -->
<g id="node5" class="node">
<title>Node5</title>
<g id="a_node5"><a xlink:href="c__affine__matrix__function_8h.html" target="_top" xlink:title=" ">
<polygon fill="white" stroke="black" points="14.1,-168.5 14.1,-187.5 151.1,-187.5 151.1,-168.5 14.1,-168.5"/>
<text text-anchor="middle" x="82.6" y="-175.5" font-family="Helvetica,sans-Serif" font-size="10.00">./c_affine_matrix_function.h</text>
</a>
</g>
</g>
<!-- Node2&#45;&gt;Node5 -->
<g id="edge4" class="edge">
<title>Node2&#45;&gt;Node5</title>
<path fill="none" stroke="midnightblue" d="M82.6,-280.34C82.6,-259.62 82.6,-221.02 82.6,-197.9"/>
<polygon fill="midnightblue" stroke="midnightblue" points="86.1,-197.67 82.6,-187.67 79.1,-197.67 86.1,-197.67"/>
</g>
<!-- Node7 -->
<g id="node7" class="node">
<title>Node7</title>
<g id="a_node7"><a xlink:href="c__csc__matrix_8h.html" target="_top" xlink:title=" ">
<polygon fill="white" stroke="black" points="159.1,-224.5 159.1,-243.5 248.1,-243.5 248.1,-224.5 159.1,-224.5"/>
<text text-anchor="middle" x="203.6" y="-231.5" font-family="Helvetica,sans-Serif" font-size="10.00">./c_csc_matrix.h</text>
</a>
</g>
</g>
<!-- Node2&#45;&gt;Node7 -->
<g id="edge8" class="edge">
<title>Node2&#45;&gt;Node7</title>
<path fill="none" stroke="midnightblue" d="M111.27,-280.4C131.12,-270.64 157.36,-257.74 176.79,-248.18"/>
<polygon fill="midnightblue" stroke="midnightblue" points="178.56,-251.21 185.99,-243.66 175.47,-244.93 178.56,-251.21"/>
</g>
<!-- Node4 -->
<g id="node4" class="node">
<title>Node4</title>
<g id="a_node4"><a xlink:href="definitions_8h.html" target="_top" xlink:title=" ">
<polygon fill="white" stroke="black" points="98.1,-0.5 98.1,-19.5 173.1,-19.5 173.1,-0.5 98.1,-0.5"/>
<text text-anchor="middle" x="135.6" y="-7.5" font-family="Helvetica,sans-Serif" font-size="10.00">./definitions.h</text>
</a>
</g>
</g>
<!-- Node3&#45;&gt;Node4 -->
<g id="edge3" class="edge">
<title>Node3&#45;&gt;Node4</title>
<path fill="none" stroke="midnightblue" d="M135.6,-56.08C135.6,-49.01 135.6,-38.86 135.6,-29.99"/>
<polygon fill="midnightblue" stroke="midnightblue" points="139.1,-29.75 135.6,-19.75 132.1,-29.75 139.1,-29.75"/>
</g>
<!-- Node5&#45;&gt;Node3 -->
<g id="edge5" class="edge">
<title>Node5&#45;&gt;Node3</title>
<path fill="none" stroke="midnightblue" d="M78.64,-168.48C73.25,-155.53 65.27,-130.47 74.6,-112 81.41,-98.52 94.37,-88.08 106.6,-80.67"/>
<polygon fill="midnightblue" stroke="midnightblue" points="108.67,-83.52 115.69,-75.59 105.26,-77.41 108.67,-83.52"/>
</g>
<!-- Node6 -->
<g id="node6" class="node">
<title>Node6</title>
<g id="a_node6"><a xlink:href="c__linear__operator_8h.html" target="_top" xlink:title=" ">
<polygon fill="white" stroke="black" points="83.6,-112.5 83.6,-131.5 187.6,-131.5 187.6,-112.5 83.6,-112.5"/>
<text text-anchor="middle" x="135.6" y="-119.5" font-family="Helvetica,sans-Serif" font-size="10.00">./c_linear_operator.h</text>
</a>
</g>
</g>
<!-- Node5&#45;&gt;Node6 -->
<g id="edge6" class="edge">
<title>Node5&#45;&gt;Node6</title>
<path fill="none" stroke="midnightblue" d="M91.35,-168.08C99.07,-160.22 110.5,-148.57 119.82,-139.08"/>
<polygon fill="midnightblue" stroke="midnightblue" points="122.5,-141.34 127.01,-131.75 117.51,-136.44 122.5,-141.34"/>
</g>
<!-- Node6&#45;&gt;Node3 -->
<g id="edge7" class="edge">
<title>Node6&#45;&gt;Node3</title>
<path fill="none" stroke="midnightblue" d="M135.6,-112.08C135.6,-105.01 135.6,-94.86 135.6,-85.99"/>
<polygon fill="midnightblue" stroke="midnightblue" points="139.1,-85.75 135.6,-75.75 132.1,-85.75 139.1,-85.75"/>
</g>
<!-- Node7&#45;&gt;Node3 -->
<g id="edge9" class="edge">
<title>Node7&#45;&gt;Node3</title>
<path fill="none" stroke="midnightblue" d="M216.1,-224.3C226.47,-216.25 240.49,-203.24 246.6,-188 249.91,-179.75 248.94,-176.58 246.6,-168 239,-140.13 234.12,-132.33 213.6,-112 199.99,-98.51 181.53,-87.63 165.99,-79.94"/>
<polygon fill="midnightblue" stroke="midnightblue" points="167.29,-76.69 156.76,-75.57 164.3,-83.01 167.29,-76.69"/>
</g>
<!-- Node8 -->
<g id="node8" class="node">
<title>Node8</title>
<g id="a_node8"><a xlink:href="c__matrix_8h.html" target="_top" xlink:title=" ">
<polygon fill="white" stroke="black" points="169.6,-168.5 169.6,-187.5 237.6,-187.5 237.6,-168.5 169.6,-168.5"/>
<text text-anchor="middle" x="203.6" y="-175.5" font-family="Helvetica,sans-Serif" font-size="10.00">./c_matrix.h</text>
</a>
</g>
</g>
<!-- Node7&#45;&gt;Node8 -->
<g id="edge10" class="edge">
<title>Node7&#45;&gt;Node8</title>
<path fill="none" stroke="midnightblue" d="M203.6,-224.08C203.6,-217.01 203.6,-206.86 203.6,-197.99"/>
<polygon fill="midnightblue" stroke="midnightblue" points="207.1,-197.75 203.6,-187.75 200.1,-197.75 207.1,-197.75"/>
</g>
<!-- Node8&#45;&gt;Node3 -->
<g id="edge11" class="edge">
<title>Node8&#45;&gt;Node3</title>
<path fill="none" stroke="midnightblue" d="M204.76,-168.34C206.08,-155.21 206.89,-129.91 196.6,-112 188.97,-98.72 175.68,-88.22 163.45,-80.71"/>
<polygon fill="midnightblue" stroke="midnightblue" points="164.83,-77.47 154.41,-75.56 161.36,-83.55 164.83,-77.47"/>
</g>
<!-- Node8&#45;&gt;Node6 -->
<g id="edge12" class="edge">
<title>Node8&#45;&gt;Node6</title>
<path fill="none" stroke="midnightblue" d="M192.67,-168.32C182.42,-160.18 166.88,-147.84 154.6,-138.09"/>
<polygon fill="midnightblue" stroke="midnightblue" points="156.73,-135.31 146.72,-131.83 152.38,-140.79 156.73,-135.31"/>
</g>
</g>
</svg>
