<?xml version="1.0" encoding="UTF-8" standalone="no"?>
<!DOCTYPE svg PUBLIC "-//W3C//DTD SVG 1.1//EN"
 "http://www.w3.org/Graphics/SVG/1.1/DTD/svg11.dtd">
<!-- Generated by graphviz version 2.43.0 (0)
 -->
<!-- Title: /home/sia/work/ADCP/Noise&#45;Estimation/code/imate/imate/_c_linear_operator/c_csc_matrix.h Pages: 1 -->
<svg width="433pt" height="261pt"
 viewBox="0.00 0.00 432.50 261.00" xmlns="http://www.w3.org/2000/svg" xmlns:xlink="http://www.w3.org/1999/xlink">
<g id="graph0" class="graph" transform="scale(1 1) rotate(0) translate(4 257)">
<title>/home/sia/work/ADCP/Noise&#45;Estimation/code/imate/imate/_c_linear_operator/c_csc_matrix.h</title>
<polygon fill="white" stroke="transparent" points="-4,4 -4,-257 428.5,-257 428.5,4 -4,4"/>
<!-- Node1 -->
<g id="node1" class="node">
<title>Node1</title>
<g id="a_node1"><a xlink:title=" ">
<polygon fill="#bfbfbf" stroke="black" points="142,-200.5 142,-252.5 269,-252.5 269,-200.5 142,-200.5"/>
<text text-anchor="start" x="150" y="-240.5" font-family="Helvetica,sans-Serif" font-size="10.00">/home/sia/work/ADCP</text>
<text text-anchor="start" x="150" y="-229.5" font-family="Helvetica,sans-Serif" font-size="10.00">/Noise&#45;Estimation/code</text>
<text text-anchor="start" x="150" y="-218.5" font-family="Helvetica,sans-Serif" font-size="10.00">/imate/imate/_c_linear</text>
<text text-anchor="middle" x="205.5" y="-207.5" font-family="Helvetica,sans-Serif" font-size="10.00">_operator/c_csc_matrix.h</text>
</a>
</g>
</g>
<!-- Node2 -->
<g id="node2" class="node">
<title>Node2</title>
<g id="a_node2"><a xlink:href="c__csc__affine__matrix__function_8h.html" target="_top" xlink:title=" ">
<polygon fill="white" stroke="black" points="0,-100.5 0,-163.5 119,-163.5 119,-100.5 0,-100.5"/>
<text text-anchor="start" x="8" y="-151.5" font-family="Helvetica,sans-Serif" font-size="10.00">/home/sia/work/ADCP</text>
<text text-anchor="start" x="8" y="-140.5" font-family="Helvetica,sans-Serif" font-size="10.00">/Noise&#45;Estimation/code</text>
<text text-anchor="start" x="8" y="-129.5" font-family="Helvetica,sans-Serif" font-size="10.00">/imate/imate/_c_linear</text>
<text text-anchor="start" x="8" y="-118.5" font-family="Helvetica,sans-Serif" font-size="10.00">_operator/c_csc_affine</text>
<text text-anchor="middle" x="59.5" y="-107.5" font-family="Helvetica,sans-Serif" font-size="10.00">_matrix_function.h</text>
</a>
</g>
</g>
<!-- Node1&#45;&gt;Node2 -->
<g id="edge1" class="edge">
<title>Node1&#45;&gt;Node2</title>
<path fill="none" stroke="midnightblue" d="M157.37,-195.01C141.48,-184.94 123.81,-173.74 107.9,-163.66"/>
<polygon fill="midnightblue" stroke="midnightblue" points="155.67,-198.07 165.99,-200.47 159.42,-192.16 155.67,-198.07"/>
</g>
<!-- Node4 -->
<g id="node4" class="node">
<title>Node4</title>
<g id="a_node4"><a xlink:href="c__csc__matrix_8cpp.html" target="_top" xlink:title=" ">
<polygon fill="white" stroke="black" points="137,-106 137,-158 274,-158 274,-106 137,-106"/>
<text text-anchor="start" x="145" y="-146" font-family="Helvetica,sans-Serif" font-size="10.00">/home/sia/work/ADCP</text>
<text text-anchor="start" x="145" y="-135" font-family="Helvetica,sans-Serif" font-size="10.00">/Noise&#45;Estimation/code</text>
<text text-anchor="start" x="145" y="-124" font-family="Helvetica,sans-Serif" font-size="10.00">/imate/imate/_c_linear</text>
<text text-anchor="middle" x="205.5" y="-113" font-family="Helvetica,sans-Serif" font-size="10.00">_operator/c_csc_matrix.cpp</text>
</a>
</g>
</g>
<!-- Node1&#45;&gt;Node4 -->
<g id="edge3" class="edge">
<title>Node1&#45;&gt;Node4</title>
<path fill="none" stroke="midnightblue" d="M205.5,-189.99C205.5,-179.41 205.5,-168.03 205.5,-158.25"/>
<polygon fill="midnightblue" stroke="midnightblue" points="202,-190.22 205.5,-200.22 209,-190.22 202,-190.22"/>
</g>
<!-- Node5 -->
<g id="node5" class="node">
<title>Node5</title>
<g id="a_node5"><a xlink:href="cu__csc__matrix_8h.html" target="_top" xlink:title=" ">
<polygon fill="white" stroke="black" points="292.5,-106 292.5,-158 424.5,-158 424.5,-106 292.5,-106"/>
<text text-anchor="start" x="300.5" y="-146" font-family="Helvetica,sans-Serif" font-size="10.00">/home/sia/work/ADCP</text>
<text text-anchor="start" x="300.5" y="-135" font-family="Helvetica,sans-Serif" font-size="10.00">/Noise&#45;Estimation/code</text>
<text text-anchor="start" x="300.5" y="-124" font-family="Helvetica,sans-Serif" font-size="10.00">/imate/imate/_cu_linear</text>
<text text-anchor="middle" x="358.5" y="-113" font-family="Helvetica,sans-Serif" font-size="10.00">_operator/cu_csc_matrix.h</text>
</a>
</g>
</g>
<!-- Node1&#45;&gt;Node5 -->
<g id="edge4" class="edge">
<title>Node1&#45;&gt;Node5</title>
<path fill="none" stroke="midnightblue" d="M255.54,-195.24C275.46,-183.21 298.09,-169.52 317.06,-158.05"/>
<polygon fill="midnightblue" stroke="midnightblue" points="253.65,-192.3 246.9,-200.47 257.27,-198.29 253.65,-192.3"/>
</g>
<!-- Node3 -->
<g id="node3" class="node">
<title>Node3</title>
<g id="a_node3"><a xlink:href="c__csc__affine__matrix__function_8cpp.html" target="_top" xlink:title=" ">
<polygon fill="white" stroke="black" points="0,-0.5 0,-63.5 119,-63.5 119,-0.5 0,-0.5"/>
<text text-anchor="start" x="8" y="-51.5" font-family="Helvetica,sans-Serif" font-size="10.00">/home/sia/work/ADCP</text>
<text text-anchor="start" x="8" y="-40.5" font-family="Helvetica,sans-Serif" font-size="10.00">/Noise&#45;Estimation/code</text>
<text text-anchor="start" x="8" y="-29.5" font-family="Helvetica,sans-Serif" font-size="10.00">/imate/imate/_c_linear</text>
<text text-anchor="start" x="8" y="-18.5" font-family="Helvetica,sans-Serif" font-size="10.00">_operator/c_csc_affine</text>
<text text-anchor="middle" x="59.5" y="-7.5" font-family="Helvetica,sans-Serif" font-size="10.00">_matrix_function.cpp</text>
</a>
</g>
</g>
<!-- Node2&#45;&gt;Node3 -->
<g id="edge2" class="edge">
<title>Node2&#45;&gt;Node3</title>
<path fill="none" stroke="midnightblue" d="M59.5,-90.1C59.5,-81.24 59.5,-72.01 59.5,-63.63"/>
<polygon fill="midnightblue" stroke="midnightblue" points="56,-90.26 59.5,-100.26 63,-90.26 56,-90.26"/>
</g>
<!-- Node6 -->
<g id="node6" class="node">
<title>Node6</title>
<g id="a_node6"><a xlink:href="cu__csc__affine__matrix__function_8h.html" target="_top" xlink:title=" ">
<polygon fill="white" stroke="black" points="298,-0.5 298,-63.5 419,-63.5 419,-0.5 298,-0.5"/>
<text text-anchor="start" x="306" y="-51.5" font-family="Helvetica,sans-Serif" font-size="10.00">/home/sia/work/ADCP</text>
<text text-anchor="start" x="306" y="-40.5" font-family="Helvetica,sans-Serif" font-size="10.00">/Noise&#45;Estimation/code</text>
<text text-anchor="start" x="306" y="-29.5" font-family="Helvetica,sans-Serif" font-size="10.00">/imate/imate/_cu_linear</text>
<text text-anchor="start" x="306" y="-18.5" font-family="Helvetica,sans-Serif" font-size="10.00">_operator/cu_csc_affine</text>
<text text-anchor="middle" x="358.5" y="-7.5" font-family="Helvetica,sans-Serif" font-size="10.00">_matrix_function.h</text>
</a>
</g>
</g>
<!-- Node5&#45;&gt;Node6 -->
<g id="edge5" class="edge">
<title>Node5&#45;&gt;Node6</title>
<path fill="none" stroke="midnightblue" d="M358.5,-95.69C358.5,-85.24 358.5,-73.89 358.5,-63.75"/>
<polygon fill="midnightblue" stroke="midnightblue" points="355,-95.76 358.5,-105.76 362,-95.76 355,-95.76"/>
</g>
</g>
</svg>
