<?xml version="1.0" encoding="UTF-8" standalone="no"?>
<!DOCTYPE svg PUBLIC "-//W3C//DTD SVG 1.1//EN"
 "http://www.w3.org/Graphics/SVG/1.1/DTD/svg11.dtd">
<!-- Generated by graphviz version 2.43.0 (0)
 -->
<!-- Title: /home/sia/work/ADCP/Noise&#45;Estimation/code/imate/imate/_c_linear_operator/c_dense_matrix.h Pages: 1 -->
<svg width="462pt" height="261pt"
 viewBox="0.00 0.00 461.50 261.00" xmlns="http://www.w3.org/2000/svg" xmlns:xlink="http://www.w3.org/1999/xlink">
<g id="graph0" class="graph" transform="scale(1 1) rotate(0) translate(4 257)">
<title>/home/sia/work/ADCP/Noise&#45;Estimation/code/imate/imate/_c_linear_operator/c_dense_matrix.h</title>
<polygon fill="white" stroke="transparent" points="-4,4 -4,-257 457.5,-257 457.5,4 -4,4"/>
<!-- Node1 -->
<g id="node1" class="node">
<title>Node1</title>
<g id="a_node1"><a xlink:title=" ">
<polygon fill="#bfbfbf" stroke="black" points="149.5,-200.5 149.5,-252.5 286.5,-252.5 286.5,-200.5 149.5,-200.5"/>
<text text-anchor="start" x="157.5" y="-240.5" font-family="Helvetica,sans-Serif" font-size="10.00">/home/sia/work/ADCP</text>
<text text-anchor="start" x="157.5" y="-229.5" font-family="Helvetica,sans-Serif" font-size="10.00">/Noise&#45;Estimation/code</text>
<text text-anchor="start" x="157.5" y="-218.5" font-family="Helvetica,sans-Serif" font-size="10.00">/imate/imate/_c_linear</text>
<text text-anchor="middle" x="218" y="-207.5" font-family="Helvetica,sans-Serif" font-size="10.00">_operator/c_dense_matrix.h</text>
</a>
</g>
</g>
<!-- Node2 -->
<g id="node2" class="node">
<title>Node2</title>
<g id="a_node2"><a xlink:href="c__dense__affine__matrix__function_8h.html" target="_top" xlink:title=" ">
<polygon fill="white" stroke="black" points="0,-100.5 0,-163.5 126,-163.5 126,-100.5 0,-100.5"/>
<text text-anchor="start" x="8" y="-151.5" font-family="Helvetica,sans-Serif" font-size="10.00">/home/sia/work/ADCP</text>
<text text-anchor="start" x="8" y="-140.5" font-family="Helvetica,sans-Serif" font-size="10.00">/Noise&#45;Estimation/code</text>
<text text-anchor="start" x="8" y="-129.5" font-family="Helvetica,sans-Serif" font-size="10.00">/imate/imate/_c_linear</text>
<text text-anchor="start" x="8" y="-118.5" font-family="Helvetica,sans-Serif" font-size="10.00">_operator/c_dense_affine</text>
<text text-anchor="middle" x="63" y="-107.5" font-family="Helvetica,sans-Serif" font-size="10.00">_matrix_function.h</text>
</a>
</g>
</g>
<!-- Node1&#45;&gt;Node2 -->
<g id="edge1" class="edge">
<title>Node1&#45;&gt;Node2</title>
<path fill="none" stroke="midnightblue" d="M167.37,-195.29C150.38,-185.15 131.43,-173.84 114.38,-163.66"/>
<polygon fill="midnightblue" stroke="midnightblue" points="165.67,-198.35 176.05,-200.47 169.26,-192.34 165.67,-198.35"/>
</g>
<!-- Node4 -->
<g id="node4" class="node">
<title>Node4</title>
<g id="a_node4"><a xlink:href="c__dense__matrix_8cpp.html" target="_top" xlink:title=" ">
<polygon fill="white" stroke="black" points="144,-106 144,-158 292,-158 292,-106 144,-106"/>
<text text-anchor="start" x="152" y="-146" font-family="Helvetica,sans-Serif" font-size="10.00">/home/sia/work/ADCP</text>
<text text-anchor="start" x="152" y="-135" font-family="Helvetica,sans-Serif" font-size="10.00">/Noise&#45;Estimation/code</text>
<text text-anchor="start" x="152" y="-124" font-family="Helvetica,sans-Serif" font-size="10.00">/imate/imate/_c_linear</text>
<text text-anchor="middle" x="218" y="-113" font-family="Helvetica,sans-Serif" font-size="10.00">_operator/c_dense_matrix.cpp</text>
</a>
</g>
</g>
<!-- Node1&#45;&gt;Node4 -->
<g id="edge3" class="edge">
<title>Node1&#45;&gt;Node4</title>
<path fill="none" stroke="midnightblue" d="M218,-189.99C218,-179.41 218,-168.03 218,-158.25"/>
<polygon fill="midnightblue" stroke="midnightblue" points="214.5,-190.22 218,-200.22 221.5,-190.22 214.5,-190.22"/>
</g>
<!-- Node5 -->
<g id="node5" class="node">
<title>Node5</title>
<g id="a_node5"><a xlink:href="cu__dense__matrix_8h.html" target="_top" xlink:title=" ">
<polygon fill="white" stroke="black" points="310.5,-106 310.5,-158 453.5,-158 453.5,-106 310.5,-106"/>
<text text-anchor="start" x="318.5" y="-146" font-family="Helvetica,sans-Serif" font-size="10.00">/home/sia/work/ADCP</text>
<text text-anchor="start" x="318.5" y="-135" font-family="Helvetica,sans-Serif" font-size="10.00">/Noise&#45;Estimation/code</text>
<text text-anchor="start" x="318.5" y="-124" font-family="Helvetica,sans-Serif" font-size="10.00">/imate/imate/_cu_linear</text>
<text text-anchor="middle" x="382" y="-113" font-family="Helvetica,sans-Serif" font-size="10.00">_operator/cu_dense_matrix.h</text>
</a>
</g>
</g>
<!-- Node1&#45;&gt;Node5 -->
<g id="edge4" class="edge">
<title>Node1&#45;&gt;Node5</title>
<path fill="none" stroke="midnightblue" d="M271.35,-195.41C292.77,-183.33 317.16,-169.57 337.58,-158.05"/>
<polygon fill="midnightblue" stroke="midnightblue" points="269.37,-192.51 262.38,-200.47 272.81,-198.6 269.37,-192.51"/>
</g>
<!-- Node3 -->
<g id="node3" class="node">
<title>Node3</title>
<g id="a_node3"><a xlink:href="c__dense__affine__matrix__function_8cpp.html" target="_top" xlink:title=" ">
<polygon fill="white" stroke="black" points="0,-0.5 0,-63.5 126,-63.5 126,-0.5 0,-0.5"/>
<text text-anchor="start" x="8" y="-51.5" font-family="Helvetica,sans-Serif" font-size="10.00">/home/sia/work/ADCP</text>
<text text-anchor="start" x="8" y="-40.5" font-family="Helvetica,sans-Serif" font-size="10.00">/Noise&#45;Estimation/code</text>
<text text-anchor="start" x="8" y="-29.5" font-family="Helvetica,sans-Serif" font-size="10.00">/imate/imate/_c_linear</text>
<text text-anchor="start" x="8" y="-18.5" font-family="Helvetica,sans-Serif" font-size="10.00">_operator/c_dense_affine</text>
<text text-anchor="middle" x="63" y="-7.5" font-family="Helvetica,sans-Serif" font-size="10.00">_matrix_function.cpp</text>
</a>
</g>
</g>
<!-- Node2&#45;&gt;Node3 -->
<g id="edge2" class="edge">
<title>Node2&#45;&gt;Node3</title>
<path fill="none" stroke="midnightblue" d="M63,-90.1C63,-81.24 63,-72.01 63,-63.63"/>
<polygon fill="midnightblue" stroke="midnightblue" points="59.5,-90.26 63,-100.26 66.5,-90.26 59.5,-90.26"/>
</g>
<!-- Node6 -->
<g id="node6" class="node">
<title>Node6</title>
<g id="a_node6"><a xlink:href="cu__dense__affine__matrix__function_8h.html" target="_top" xlink:title=" ">
<polygon fill="white" stroke="black" points="316.5,-0.5 316.5,-63.5 447.5,-63.5 447.5,-0.5 316.5,-0.5"/>
<text text-anchor="start" x="324.5" y="-51.5" font-family="Helvetica,sans-Serif" font-size="10.00">/home/sia/work/ADCP</text>
<text text-anchor="start" x="324.5" y="-40.5" font-family="Helvetica,sans-Serif" font-size="10.00">/Noise&#45;Estimation/code</text>
<text text-anchor="start" x="324.5" y="-29.5" font-family="Helvetica,sans-Serif" font-size="10.00">/imate/imate/_cu_linear</text>
<text text-anchor="start" x="324.5" y="-18.5" font-family="Helvetica,sans-Serif" font-size="10.00">_operator/cu_dense_affine</text>
<text text-anchor="middle" x="382" y="-7.5" font-family="Helvetica,sans-Serif" font-size="10.00">_matrix_function.h</text>
</a>
</g>
</g>
<!-- Node5&#45;&gt;Node6 -->
<g id="edge5" class="edge">
<title>Node5&#45;&gt;Node6</title>
<path fill="none" stroke="midnightblue" d="M382,-95.69C382,-85.24 382,-73.89 382,-63.75"/>
<polygon fill="midnightblue" stroke="midnightblue" points="378.5,-95.76 382,-105.76 385.5,-95.76 378.5,-95.76"/>
</g>
</g>
</svg>
