<?xml version="1.0" encoding="UTF-8" standalone="no"?>
<!DOCTYPE svg PUBLIC "-//W3C//DTD SVG 1.1//EN"
 "http://www.w3.org/Graphics/SVG/1.1/DTD/svg11.dtd">
<!-- Generated by graphviz version 2.43.0 (0)
 -->
<!-- Title: /home/sia/work/ADCP/Noise&#45;Estimation/code/imate/imate/_c_linear_operator/c_dense_matrix.h Pages: 1 -->
<svg width="216pt" height="285pt"
 viewBox="0.00 0.00 215.50 285.00" xmlns="http://www.w3.org/2000/svg" xmlns:xlink="http://www.w3.org/1999/xlink">
<g id="graph0" class="graph" transform="scale(1 1) rotate(0) translate(4 281)">
<title>/home/sia/work/ADCP/Noise&#45;Estimation/code/imate/imate/_c_linear_operator/c_dense_matrix.h</title>
<polygon fill="white" stroke="transparent" points="-4,4 -4,-281 211.5,-281 211.5,4 -4,4"/>
<!-- Node1 -->
<g id="node1" class="node">
<title>Node1</title>
<g id="a_node1"><a xlink:title=" ">
<polygon fill="#bfbfbf" stroke="black" points="0,-224.5 0,-276.5 137,-276.5 137,-224.5 0,-224.5"/>
<text text-anchor="start" x="8" y="-264.5" font-family="Helvetica,sans-Serif" font-size="10.00">/home/sia/work/ADCP</text>
<text text-anchor="start" x="8" y="-253.5" font-family="Helvetica,sans-Serif" font-size="10.00">/Noise&#45;Estimation/code</text>
<text text-anchor="start" x="8" y="-242.5" font-family="Helvetica,sans-Serif" font-size="10.00">/imate/imate/_c_linear</text>
<text text-anchor="middle" x="68.5" y="-231.5" font-family="Helvetica,sans-Serif" font-size="10.00">_operator/c_dense_matrix.h</text>
</a>
</g>
</g>
<!-- Node2 -->
<g id="node2" class="node">
<title>Node2</title>
<g id="a_node2"><a xlink:href="types_8h.html" target="_top" xlink:title=" ">
<polygon fill="white" stroke="black" points="20.5,-56.5 20.5,-75.5 130.5,-75.5 130.5,-56.5 20.5,-56.5"/>
<text text-anchor="middle" x="75.5" y="-63.5" font-family="Helvetica,sans-Serif" font-size="10.00">../_definitions/types.h</text>
</a>
</g>
</g>
<!-- Node1&#45;&gt;Node2 -->
<g id="edge1" class="edge">
<title>Node1&#45;&gt;Node2</title>
<path fill="none" stroke="midnightblue" d="M62.43,-224.23C60.07,-213.18 57.66,-200.02 56.5,-188 52.97,-151.46 62.84,-109.17 69.65,-85.5"/>
<polygon fill="midnightblue" stroke="midnightblue" points="73.05,-86.34 72.58,-75.76 66.35,-84.33 73.05,-86.34"/>
</g>
<!-- Node4 -->
<g id="node4" class="node">
<title>Node4</title>
<g id="a_node4"><a xlink:href="c__matrix_8h.html" target="_top" xlink:title=" ">
<polygon fill="white" stroke="black" points="65.5,-168.5 65.5,-187.5 133.5,-187.5 133.5,-168.5 65.5,-168.5"/>
<text text-anchor="middle" x="99.5" y="-175.5" font-family="Helvetica,sans-Serif" font-size="10.00">./c_matrix.h</text>
</a>
</g>
</g>
<!-- Node1&#45;&gt;Node4 -->
<g id="edge3" class="edge">
<title>Node1&#45;&gt;Node4</title>
<path fill="none" stroke="midnightblue" d="M79.52,-224.45C83.53,-215.33 87.97,-205.22 91.65,-196.85"/>
<polygon fill="midnightblue" stroke="midnightblue" points="94.86,-198.26 95.68,-187.7 88.45,-195.44 94.86,-198.26"/>
</g>
<!-- Node3 -->
<g id="node3" class="node">
<title>Node3</title>
<g id="a_node3"><a xlink:href="definitions_8h.html" target="_top" xlink:title=" ">
<polygon fill="white" stroke="black" points="38,-0.5 38,-19.5 113,-19.5 113,-0.5 38,-0.5"/>
<text text-anchor="middle" x="75.5" y="-7.5" font-family="Helvetica,sans-Serif" font-size="10.00">./definitions.h</text>
</a>
</g>
</g>
<!-- Node2&#45;&gt;Node3 -->
<g id="edge2" class="edge">
<title>Node2&#45;&gt;Node3</title>
<path fill="none" stroke="midnightblue" d="M75.5,-56.08C75.5,-49.01 75.5,-38.86 75.5,-29.99"/>
<polygon fill="midnightblue" stroke="midnightblue" points="79,-29.75 75.5,-19.75 72,-29.75 79,-29.75"/>
</g>
<!-- Node4&#45;&gt;Node2 -->
<g id="edge4" class="edge">
<title>Node4&#45;&gt;Node2</title>
<path fill="none" stroke="midnightblue" d="M97.62,-168.37C93.74,-150.62 84.81,-109.67 79.56,-85.6"/>
<polygon fill="midnightblue" stroke="midnightblue" points="82.93,-84.62 77.37,-75.59 76.09,-86.11 82.93,-84.62"/>
</g>
<!-- Node5 -->
<g id="node5" class="node">
<title>Node5</title>
<g id="a_node5"><a xlink:href="c__linear__operator_8h.html" target="_top" xlink:title=" ">
<polygon fill="white" stroke="black" points="103.5,-112.5 103.5,-131.5 207.5,-131.5 207.5,-112.5 103.5,-112.5"/>
<text text-anchor="middle" x="155.5" y="-119.5" font-family="Helvetica,sans-Serif" font-size="10.00">./c_linear_operator.h</text>
</a>
</g>
</g>
<!-- Node4&#45;&gt;Node5 -->
<g id="edge5" class="edge">
<title>Node4&#45;&gt;Node5</title>
<path fill="none" stroke="midnightblue" d="M108.5,-168.32C116.69,-160.42 129.01,-148.55 138.97,-138.94"/>
<polygon fill="midnightblue" stroke="midnightblue" points="141.57,-141.29 146.34,-131.83 136.71,-136.26 141.57,-141.29"/>
</g>
<!-- Node5&#45;&gt;Node2 -->
<g id="edge6" class="edge">
<title>Node5&#45;&gt;Node2</title>
<path fill="none" stroke="midnightblue" d="M142.65,-112.32C130.28,-103.98 111.37,-91.21 96.76,-81.35"/>
<polygon fill="midnightblue" stroke="midnightblue" points="98.57,-78.35 88.32,-75.65 94.65,-84.15 98.57,-78.35"/>
</g>
</g>
</svg>
