<?xml version="1.0" encoding="UTF-8" standalone="no"?>
<!DOCTYPE svg PUBLIC "-//W3C//DTD SVG 1.1//EN"
 "http://www.w3.org/Graphics/SVG/1.1/DTD/svg11.dtd">
<!-- Generated by graphviz version 2.43.0 (0)
 -->
<!-- Title: c_golub_kahn_bidiagonalization Pages: 1 -->
<svg width="505pt" height="252pt"
 viewBox="0.00 0.00 505.00 252.00" xmlns="http://www.w3.org/2000/svg" xmlns:xlink="http://www.w3.org/1999/xlink">
<g id="graph0" class="graph" transform="scale(1 1) rotate(0) translate(4 248)">
<title>c_golub_kahn_bidiagonalization</title>
<polygon fill="white" stroke="transparent" points="-4,4 -4,-248 501,-248 501,4 -4,4"/>
<!-- Node1 -->
<g id="node1" class="node">
<title>Node1</title>
<g id="a_node1"><a xlink:title="Bi&#45;diagonalizes the positive&#45;definite matrix A using Golub&#45;Kahn&#45;Lanczos method.">
<polygon fill="#bfbfbf" stroke="black" points="0,-106.5 0,-125.5 154,-125.5 154,-106.5 0,-106.5"/>
<text text-anchor="middle" x="77" y="-113.5" font-family="Helvetica,sans-Serif" font-size="10.00">c_golub_kahn_bidiagonalization</text>
</a>
</g>
</g>
<!-- Node2 -->
<g id="node2" class="node">
<title>Node2</title>
<g id="a_node2"><a xlink:href="classcLinearOperator.html#a48c76860a74f00fefaa1297368d17a77" target="_top" xlink:title=" ">
<polygon fill="white" stroke="black" points="214,-224.5 214,-243.5 319,-243.5 319,-224.5 214,-224.5"/>
<text text-anchor="middle" x="266.5" y="-231.5" font-family="Helvetica,sans-Serif" font-size="10.00">cLinearOperator::dot</text>
</a>
</g>
</g>
<!-- Node1&#45;&gt;Node2 -->
<g id="edge1" class="edge">
<title>Node1&#45;&gt;Node2</title>
<path fill="none" stroke="midnightblue" d="M85.9,-125.55C102.83,-145.38 144.78,-191.16 190,-215 194.52,-217.38 199.35,-219.47 204.29,-221.31"/>
<polygon fill="midnightblue" stroke="midnightblue" points="203.32,-224.67 213.91,-224.54 205.54,-218.04 203.32,-224.67"/>
</g>
<!-- Node3 -->
<g id="node3" class="node">
<title>Node3</title>
<g id="a_node3"><a xlink:href="classcOrthogonalization.html#a1b1bcbb636f1a1608ce7a22d4538b3b3" target="_top" xlink:title="Modified Gram&#45;Schmidt orthogonalization process to orthogonalize the vector v against a subset of the...">
<polygon fill="white" stroke="black" points="204.5,-77 204.5,-107 328.5,-107 328.5,-77 204.5,-77"/>
<text text-anchor="start" x="212.5" y="-95" font-family="Helvetica,sans-Serif" font-size="10.00">cOrthogonalization</text>
<text text-anchor="middle" x="266.5" y="-84" font-family="Helvetica,sans-Serif" font-size="10.00">::gram_schmidt_process</text>
</a>
</g>
</g>
<!-- Node1&#45;&gt;Node3 -->
<g id="edge2" class="edge">
<title>Node1&#45;&gt;Node3</title>
<path fill="none" stroke="midnightblue" d="M152.37,-106.48C166.14,-104.72 180.5,-102.88 194.17,-101.13"/>
<polygon fill="midnightblue" stroke="midnightblue" points="195,-104.55 204.48,-99.81 194.11,-97.61 195,-104.55"/>
</g>
<!-- Node6 -->
<g id="node6" class="node">
<title>Node6</title>
<g id="a_node6"><a xlink:href="classcVectorOperations.html#a9bd28bd08f5a6b096d99a4a2f7d23e90" target="_top" xlink:title="Subtracts the scaled input vector from the output vector.">
<polygon fill="white" stroke="black" points="379,-28 379,-58 497,-58 497,-28 379,-28"/>
<text text-anchor="start" x="387" y="-46" font-family="Helvetica,sans-Serif" font-size="10.00">cVectorOperations::</text>
<text text-anchor="middle" x="438" y="-35" font-family="Helvetica,sans-Serif" font-size="10.00">subtract_scaled_vector</text>
</a>
</g>
</g>
<!-- Node1&#45;&gt;Node6 -->
<g id="edge11" class="edge">
<title>Node1&#45;&gt;Node6</title>
<path fill="none" stroke="midnightblue" d="M95.23,-106.4C116.7,-94.93 154.88,-76.14 190,-67 249.19,-51.59 318.7,-45.89 368.87,-43.87"/>
<polygon fill="midnightblue" stroke="midnightblue" points="369.09,-47.37 378.96,-43.51 368.84,-40.37 369.09,-47.37"/>
</g>
<!-- Node7 -->
<g id="node7" class="node">
<title>Node7</title>
<g id="a_node7"><a xlink:href="classcVectorOperations.html#aeb0171f2644e3036907bbbddf47ce998" target="_top" xlink:title="Normalizes a vector based on Euclidean 2&#45;norm. The result is written into another vector.">
<polygon fill="white" stroke="black" points="197.5,-175 197.5,-205 335.5,-205 335.5,-175 197.5,-175"/>
<text text-anchor="start" x="205.5" y="-193" font-family="Helvetica,sans-Serif" font-size="10.00">cVectorOperations::</text>
<text text-anchor="middle" x="266.5" y="-182" font-family="Helvetica,sans-Serif" font-size="10.00">normalize_vector_and_copy</text>
</a>
</g>
</g>
<!-- Node1&#45;&gt;Node7 -->
<g id="edge6" class="edge">
<title>Node1&#45;&gt;Node7</title>
<path fill="none" stroke="midnightblue" d="M97.55,-125.53C119.68,-136.13 156.97,-153.42 190,-166 195.06,-167.93 200.35,-169.83 205.68,-171.67"/>
<polygon fill="midnightblue" stroke="midnightblue" points="204.68,-175.02 215.27,-174.9 206.92,-168.39 204.68,-175.02"/>
</g>
<!-- Node9 -->
<g id="node9" class="node">
<title>Node9</title>
<g id="a_node9"><a xlink:href="classcVectorOperations.html#ab0991d74cadf3a3969f0723dbff55dc9" target="_top" xlink:title="Normalizes a vector based on Euclidean 2&#45;norm. The result is written in&#45;place.">
<polygon fill="white" stroke="black" points="200.5,-126 200.5,-156 332.5,-156 332.5,-126 200.5,-126"/>
<text text-anchor="start" x="208.5" y="-144" font-family="Helvetica,sans-Serif" font-size="10.00">cVectorOperations::</text>
<text text-anchor="middle" x="266.5" y="-133" font-family="Helvetica,sans-Serif" font-size="10.00">normalize_vector_in_place</text>
</a>
</g>
</g>
<!-- Node1&#45;&gt;Node9 -->
<g id="edge9" class="edge">
<title>Node1&#45;&gt;Node9</title>
<path fill="none" stroke="midnightblue" d="M149.42,-125.52C162.78,-127.3 176.78,-129.17 190.25,-130.97"/>
<polygon fill="midnightblue" stroke="midnightblue" points="190.06,-134.47 200.43,-132.32 190.98,-127.53 190.06,-134.47"/>
</g>
<!-- Node10 -->
<g id="node10" class="node">
<title>Node10</title>
<g id="a_node10"><a xlink:href="classcLinearOperator.html#a40f5051c4399ebfa153ef7147e10a6e6" target="_top" xlink:title=" ">
<polygon fill="white" stroke="black" points="190,-0.5 190,-19.5 343,-19.5 343,-0.5 190,-0.5"/>
<text text-anchor="middle" x="266.5" y="-7.5" font-family="Helvetica,sans-Serif" font-size="10.00">cLinearOperator::transpose_dot</text>
</a>
</g>
</g>
<!-- Node1&#45;&gt;Node10 -->
<g id="edge12" class="edge">
<title>Node1&#45;&gt;Node10</title>
<path fill="none" stroke="midnightblue" d="M88.65,-106.33C107.7,-89.49 149.39,-54.62 190,-34 198.65,-29.61 208.26,-25.82 217.65,-22.63"/>
<polygon fill="midnightblue" stroke="midnightblue" points="218.85,-25.91 227.3,-19.52 216.71,-19.25 218.85,-25.91"/>
</g>
<!-- Node4 -->
<g id="node4" class="node">
<title>Node4</title>
<g id="a_node4"><a xlink:href="classcVectorOperations.html#abd0d2c941f9d3598f42026755cbc4709" target="_top" xlink:title="Computes the Euclidean norm of a 1D array.">
<polygon fill="white" stroke="black" points="386,-126 386,-156 490,-156 490,-126 386,-126"/>
<text text-anchor="start" x="394" y="-144" font-family="Helvetica,sans-Serif" font-size="10.00">cVectorOperations::</text>
<text text-anchor="middle" x="438" y="-133" font-family="Helvetica,sans-Serif" font-size="10.00">euclidean_norm</text>
</a>
</g>
</g>
<!-- Node3&#45;&gt;Node4 -->
<g id="edge3" class="edge">
<title>Node3&#45;&gt;Node4</title>
<path fill="none" stroke="midnightblue" d="M319.74,-107.1C337.55,-112.25 357.62,-118.05 376.05,-123.38"/>
<polygon fill="midnightblue" stroke="midnightblue" points="375.23,-126.79 385.81,-126.2 377.17,-120.06 375.23,-126.79"/>
</g>
<!-- Node5 -->
<g id="node5" class="node">
<title>Node5</title>
<g id="a_node5"><a xlink:href="classcVectorOperations.html#ab8b945baba573b4479e8095ca87f8b3f" target="_top" xlink:title="Computes Euclidean inner product of two vectors.">
<polygon fill="white" stroke="black" points="386,-77 386,-107 490,-107 490,-77 386,-77"/>
<text text-anchor="start" x="394" y="-95" font-family="Helvetica,sans-Serif" font-size="10.00">cVectorOperations::</text>
<text text-anchor="middle" x="438" y="-84" font-family="Helvetica,sans-Serif" font-size="10.00">inner_product</text>
</a>
</g>
</g>
<!-- Node3&#45;&gt;Node5 -->
<g id="edge4" class="edge">
<title>Node3&#45;&gt;Node5</title>
<path fill="none" stroke="midnightblue" d="M328.69,-92C343.95,-92 360.31,-92 375.58,-92"/>
<polygon fill="midnightblue" stroke="midnightblue" points="375.94,-95.5 385.94,-92 375.94,-88.5 375.94,-95.5"/>
</g>
<!-- Node3&#45;&gt;Node6 -->
<g id="edge5" class="edge">
<title>Node3&#45;&gt;Node6</title>
<path fill="none" stroke="midnightblue" d="M319.74,-76.9C337.3,-71.82 357.06,-66.11 375.28,-60.84"/>
<polygon fill="midnightblue" stroke="midnightblue" points="376.3,-64.19 384.93,-58.05 374.36,-57.47 376.3,-64.19"/>
</g>
<!-- Node7&#45;&gt;Node4 -->
<g id="edge8" class="edge">
<title>Node7&#45;&gt;Node4</title>
<path fill="none" stroke="midnightblue" d="M319.74,-174.9C337.55,-169.75 357.62,-163.95 376.05,-158.62"/>
<polygon fill="midnightblue" stroke="midnightblue" points="377.17,-161.94 385.81,-155.8 375.23,-155.21 377.17,-161.94"/>
</g>
<!-- Node8 -->
<g id="node8" class="node">
<title>Node8</title>
<g id="a_node8"><a xlink:href="classcVectorOperations.html#a6627fe95659faa224dca2af1dab1fab3" target="_top" xlink:title="Scales a vector and stores to a new vector.">
<polygon fill="white" stroke="black" points="386,-175 386,-205 490,-205 490,-175 386,-175"/>
<text text-anchor="start" x="394" y="-193" font-family="Helvetica,sans-Serif" font-size="10.00">cVectorOperations::</text>
<text text-anchor="middle" x="438" y="-182" font-family="Helvetica,sans-Serif" font-size="10.00">copy_scaled_vector</text>
</a>
</g>
</g>
<!-- Node7&#45;&gt;Node8 -->
<g id="edge7" class="edge">
<title>Node7&#45;&gt;Node8</title>
<path fill="none" stroke="midnightblue" d="M335.95,-190C349.08,-190 362.74,-190 375.62,-190"/>
<polygon fill="midnightblue" stroke="midnightblue" points="375.76,-193.5 385.76,-190 375.76,-186.5 375.76,-193.5"/>
</g>
<!-- Node9&#45;&gt;Node4 -->
<g id="edge10" class="edge">
<title>Node9&#45;&gt;Node4</title>
<path fill="none" stroke="midnightblue" d="M332.55,-141C346.75,-141 361.73,-141 375.77,-141"/>
<polygon fill="midnightblue" stroke="midnightblue" points="375.81,-144.5 385.81,-141 375.81,-137.5 375.81,-144.5"/>
</g>
</g>
</svg>
