<?xml version="1.0" encoding="UTF-8" standalone="no"?>
<!DOCTYPE svg PUBLIC "-//W3C//DTD SVG 1.1//EN"
 "http://www.w3.org/Graphics/SVG/1.1/DTD/svg11.dtd">
<!-- Generated by graphviz version 2.43.0 (0)
 -->
<!-- Title: /home/sia/work/ADCP/Noise&#45;Estimation/code/imate/imate/_c_trace_estimator/c_golub_kahn_bidiagonalization.h Pages: 1 -->
<svg width="163pt" height="251pt"
 viewBox="0.00 0.00 163.00 251.00" xmlns="http://www.w3.org/2000/svg" xmlns:xlink="http://www.w3.org/1999/xlink">
<g id="graph0" class="graph" transform="scale(1 1) rotate(0) translate(4 247)">
<title>/home/sia/work/ADCP/Noise&#45;Estimation/code/imate/imate/_c_trace_estimator/c_golub_kahn_bidiagonalization.h</title>
<polygon fill="white" stroke="transparent" points="-4,4 -4,-247 159,-247 159,4 -4,4"/>
<!-- Node1 -->
<g id="node1" class="node">
<title>Node1</title>
<g id="a_node1"><a xlink:title=" ">
<polygon fill="#bfbfbf" stroke="black" points="30,-179.5 30,-242.5 155,-242.5 155,-179.5 30,-179.5"/>
<text text-anchor="start" x="38" y="-230.5" font-family="Helvetica,sans-Serif" font-size="10.00">/home/sia/work/ADCP</text>
<text text-anchor="start" x="38" y="-219.5" font-family="Helvetica,sans-Serif" font-size="10.00">/Noise&#45;Estimation/code</text>
<text text-anchor="start" x="38" y="-208.5" font-family="Helvetica,sans-Serif" font-size="10.00">/imate/imate/_c_trace</text>
<text text-anchor="start" x="38" y="-197.5" font-family="Helvetica,sans-Serif" font-size="10.00">_estimator/c_golub_kahn</text>
<text text-anchor="middle" x="92.5" y="-186.5" font-family="Helvetica,sans-Serif" font-size="10.00">_bidiagonalization.h</text>
</a>
</g>
</g>
<!-- Node2 -->
<g id="node2" class="node">
<title>Node2</title>
<g id="a_node2"><a xlink:href="c__linear__operator_8h.html" target="_top" xlink:title=" ">
<polygon fill="white" stroke="black" points="0,-112.5 0,-142.5 105,-142.5 105,-112.5 0,-112.5"/>
<text text-anchor="start" x="8" y="-130.5" font-family="Helvetica,sans-Serif" font-size="10.00">../_c_linear_operator</text>
<text text-anchor="middle" x="52.5" y="-119.5" font-family="Helvetica,sans-Serif" font-size="10.00">/c_linear_operator.h</text>
</a>
</g>
</g>
<!-- Node1&#45;&gt;Node2 -->
<g id="edge1" class="edge">
<title>Node1&#45;&gt;Node2</title>
<path fill="none" stroke="midnightblue" d="M77.38,-179.19C72.88,-170.02 68.03,-160.13 63.81,-151.55"/>
<polygon fill="midnightblue" stroke="midnightblue" points="66.93,-149.95 59.38,-142.52 60.64,-153.04 66.93,-149.95"/>
</g>
<!-- Node3 -->
<g id="node3" class="node">
<title>Node3</title>
<g id="a_node3"><a xlink:href="types_8h.html" target="_top" xlink:title=" ">
<polygon fill="white" stroke="black" points="37.5,-56.5 37.5,-75.5 147.5,-75.5 147.5,-56.5 37.5,-56.5"/>
<text text-anchor="middle" x="92.5" y="-63.5" font-family="Helvetica,sans-Serif" font-size="10.00">../_definitions/types.h</text>
</a>
</g>
</g>
<!-- Node1&#45;&gt;Node3 -->
<g id="edge4" class="edge">
<title>Node1&#45;&gt;Node3</title>
<path fill="none" stroke="midnightblue" d="M106.64,-179.08C113.68,-159.78 119.69,-134.42 114.5,-112 112.27,-102.36 107.68,-92.41 103.26,-84.31"/>
<polygon fill="midnightblue" stroke="midnightblue" points="106.2,-82.4 98.14,-75.52 100.15,-85.92 106.2,-82.4"/>
</g>
<!-- Node2&#45;&gt;Node3 -->
<g id="edge2" class="edge">
<title>Node2&#45;&gt;Node3</title>
<path fill="none" stroke="midnightblue" d="M61.98,-112.4C67.67,-103.93 74.95,-93.1 80.98,-84.14"/>
<polygon fill="midnightblue" stroke="midnightblue" points="84.01,-85.91 86.68,-75.66 78.2,-82 84.01,-85.91"/>
</g>
<!-- Node4 -->
<g id="node4" class="node">
<title>Node4</title>
<g id="a_node4"><a xlink:href="definitions_8h.html" target="_top" xlink:title=" ">
<polygon fill="white" stroke="black" points="55,-0.5 55,-19.5 130,-19.5 130,-0.5 55,-0.5"/>
<text text-anchor="middle" x="92.5" y="-7.5" font-family="Helvetica,sans-Serif" font-size="10.00">./definitions.h</text>
</a>
</g>
</g>
<!-- Node3&#45;&gt;Node4 -->
<g id="edge3" class="edge">
<title>Node3&#45;&gt;Node4</title>
<path fill="none" stroke="midnightblue" d="M92.5,-56.08C92.5,-49.01 92.5,-38.86 92.5,-29.99"/>
<polygon fill="midnightblue" stroke="midnightblue" points="96,-29.75 92.5,-19.75 89,-29.75 96,-29.75"/>
</g>
</g>
</svg>
