<?xml version="1.0" encoding="UTF-8" standalone="no"?>
<!DOCTYPE svg PUBLIC "-//W3C//DTD SVG 1.1//EN"
 "http://www.w3.org/Graphics/SVG/1.1/DTD/svg11.dtd">
<!-- Generated by graphviz version 2.43.0 (0)
 -->
<!-- Title: /home/sia/work/ADCP/Noise&#45;Estimation/code/imate/imate/_c_linear_operator/c_linear_operator.h Pages: 1 -->
<svg width="2347pt" height="461pt"
 viewBox="0.00 0.00 2346.50 461.00" xmlns="http://www.w3.org/2000/svg" xmlns:xlink="http://www.w3.org/1999/xlink">
<g id="graph0" class="graph" transform="scale(1 1) rotate(0) translate(4 457)">
<title>/home/sia/work/ADCP/Noise&#45;Estimation/code/imate/imate/_c_linear_operator/c_linear_operator.h</title>
<polygon fill="white" stroke="transparent" points="-4,4 -4,-457 2342.5,-457 2342.5,4 -4,4"/>
<!-- Node1 -->
<g id="node1" class="node">
<title>Node1</title>
<g id="a_node1"><a xlink:title=" ">
<polygon fill="#bfbfbf" stroke="black" points="1636.5,-400.5 1636.5,-452.5 1778.5,-452.5 1778.5,-400.5 1636.5,-400.5"/>
<text text-anchor="start" x="1644.5" y="-440.5" font-family="Helvetica,sans-Serif" font-size="10.00">/home/sia/work/ADCP</text>
<text text-anchor="start" x="1644.5" y="-429.5" font-family="Helvetica,sans-Serif" font-size="10.00">/Noise&#45;Estimation/code</text>
<text text-anchor="start" x="1644.5" y="-418.5" font-family="Helvetica,sans-Serif" font-size="10.00">/imate/imate/_c_linear</text>
<text text-anchor="middle" x="1707.5" y="-407.5" font-family="Helvetica,sans-Serif" font-size="10.00">_operator/c_linear_operator.h</text>
</a>
</g>
</g>
<!-- Node2 -->
<g id="node2" class="node">
<title>Node2</title>
<g id="a_node2"><a xlink:href="c__affine__matrix__function_8h.html" target="_top" xlink:title=" ">
<polygon fill="white" stroke="black" points="282,-200.5 282,-263.5 409,-263.5 409,-200.5 282,-200.5"/>
<text text-anchor="start" x="290" y="-251.5" font-family="Helvetica,sans-Serif" font-size="10.00">/home/sia/work/ADCP</text>
<text text-anchor="start" x="290" y="-240.5" font-family="Helvetica,sans-Serif" font-size="10.00">/Noise&#45;Estimation/code</text>
<text text-anchor="start" x="290" y="-229.5" font-family="Helvetica,sans-Serif" font-size="10.00">/imate/imate/_c_linear</text>
<text text-anchor="start" x="290" y="-218.5" font-family="Helvetica,sans-Serif" font-size="10.00">_operator/c_affine_matrix</text>
<text text-anchor="middle" x="345.5" y="-207.5" font-family="Helvetica,sans-Serif" font-size="10.00">_function.h</text>
</a>
</g>
</g>
<!-- Node1&#45;&gt;Node2 -->
<g id="edge1" class="edge">
<title>Node1&#45;&gt;Node2</title>
<path fill="none" stroke="midnightblue" d="M1626.1,-426C1465.15,-425.67 1095.41,-418.42 790.5,-364 651.76,-339.24 494.75,-287.11 409.29,-256.61"/>
<polygon fill="midnightblue" stroke="midnightblue" points="1626.39,-429.5 1636.39,-426.01 1626.4,-422.5 1626.39,-429.5"/>
</g>
<!-- Node10 -->
<g id="node10" class="node">
<title>Node10</title>
<g id="a_node10"><a xlink:href="c__linear__operator_8cpp.html" target="_top" xlink:title=" ">
<polygon fill="white" stroke="black" points="1631.5,-306 1631.5,-358 1783.5,-358 1783.5,-306 1631.5,-306"/>
<text text-anchor="start" x="1639.5" y="-346" font-family="Helvetica,sans-Serif" font-size="10.00">/home/sia/work/ADCP</text>
<text text-anchor="start" x="1639.5" y="-335" font-family="Helvetica,sans-Serif" font-size="10.00">/Noise&#45;Estimation/code</text>
<text text-anchor="start" x="1639.5" y="-324" font-family="Helvetica,sans-Serif" font-size="10.00">/imate/imate/_c_linear</text>
<text text-anchor="middle" x="1707.5" y="-313" font-family="Helvetica,sans-Serif" font-size="10.00">_operator/c_linear_operator.cpp</text>
</a>
</g>
</g>
<!-- Node1&#45;&gt;Node10 -->
<g id="edge9" class="edge">
<title>Node1&#45;&gt;Node10</title>
<path fill="none" stroke="midnightblue" d="M1707.5,-389.99C1707.5,-379.41 1707.5,-368.03 1707.5,-358.25"/>
<polygon fill="midnightblue" stroke="midnightblue" points="1704,-390.22 1707.5,-400.22 1711,-390.22 1704,-390.22"/>
</g>
<!-- Node11 -->
<g id="node11" class="node">
<title>Node11</title>
<g id="a_node11"><a xlink:href="c__matrix_8h.html" target="_top" xlink:title=" ">
<polygon fill="white" stroke="black" points="800,-306 800,-358 919,-358 919,-306 800,-306"/>
<text text-anchor="start" x="808" y="-346" font-family="Helvetica,sans-Serif" font-size="10.00">/home/sia/work/ADCP</text>
<text text-anchor="start" x="808" y="-335" font-family="Helvetica,sans-Serif" font-size="10.00">/Noise&#45;Estimation/code</text>
<text text-anchor="start" x="808" y="-324" font-family="Helvetica,sans-Serif" font-size="10.00">/imate/imate/_c_linear</text>
<text text-anchor="middle" x="859.5" y="-313" font-family="Helvetica,sans-Serif" font-size="10.00">_operator/c_matrix.h</text>
</a>
</g>
</g>
<!-- Node1&#45;&gt;Node11 -->
<g id="edge10" class="edge">
<title>Node1&#45;&gt;Node11</title>
<path fill="none" stroke="midnightblue" d="M1626.17,-416.63C1456.47,-398.12 1068.05,-355.75 919.13,-339.5"/>
<polygon fill="midnightblue" stroke="midnightblue" points="1625.97,-420.13 1636.3,-417.73 1626.73,-413.17 1625.97,-420.13"/>
</g>
<!-- Node25 -->
<g id="node25" class="node">
<title>Node25</title>
<g id="a_node25"><a xlink:href="c__golub__kahn__bidiagonalization_8h.html" target="_top" xlink:title=" ">
<polygon fill="white" stroke="black" points="1807,-300.5 1807,-363.5 1932,-363.5 1932,-300.5 1807,-300.5"/>
<text text-anchor="start" x="1815" y="-351.5" font-family="Helvetica,sans-Serif" font-size="10.00">/home/sia/work/ADCP</text>
<text text-anchor="start" x="1815" y="-340.5" font-family="Helvetica,sans-Serif" font-size="10.00">/Noise&#45;Estimation/code</text>
<text text-anchor="start" x="1815" y="-329.5" font-family="Helvetica,sans-Serif" font-size="10.00">/imate/imate/_c_trace</text>
<text text-anchor="start" x="1815" y="-318.5" font-family="Helvetica,sans-Serif" font-size="10.00">_estimator/c_golub_kahn</text>
<text text-anchor="middle" x="1869.5" y="-307.5" font-family="Helvetica,sans-Serif" font-size="10.00">_bidiagonalization.h</text>
</a>
</g>
</g>
<!-- Node1&#45;&gt;Node25 -->
<g id="edge27" class="edge">
<title>Node1&#45;&gt;Node25</title>
<path fill="none" stroke="midnightblue" d="M1760.42,-395.29C1778.17,-385.15 1797.98,-373.84 1815.8,-363.66"/>
<polygon fill="midnightblue" stroke="midnightblue" points="1758.29,-392.47 1751.34,-400.47 1761.76,-398.55 1758.29,-392.47"/>
</g>
<!-- Node28 -->
<g id="node28" class="node">
<title>Node28</title>
<g id="a_node28"><a xlink:href="c__lanczos__tridiagonalization_8h.html" target="_top" xlink:title=" ">
<polygon fill="white" stroke="black" points="2119.5,-306 2119.5,-358 2315.5,-358 2315.5,-306 2119.5,-306"/>
<text text-anchor="start" x="2127.5" y="-346" font-family="Helvetica,sans-Serif" font-size="10.00">/home/sia/work/ADCP</text>
<text text-anchor="start" x="2127.5" y="-335" font-family="Helvetica,sans-Serif" font-size="10.00">/Noise&#45;Estimation/code</text>
<text text-anchor="start" x="2127.5" y="-324" font-family="Helvetica,sans-Serif" font-size="10.00">/imate/imate/_c_trace</text>
<text text-anchor="middle" x="2217.5" y="-313" font-family="Helvetica,sans-Serif" font-size="10.00">_estimator/c_lanczos_tridiagonalization.h</text>
</a>
</g>
</g>
<!-- Node1&#45;&gt;Node28 -->
<g id="edge30" class="edge">
<title>Node1&#45;&gt;Node28</title>
<path fill="none" stroke="midnightblue" d="M1789.01,-416.13C1870.63,-406.03 1999.54,-388.09 2109.5,-364 2117.6,-362.23 2125.98,-360.19 2134.34,-358.02"/>
<polygon fill="midnightblue" stroke="midnightblue" points="1788.31,-412.69 1778.81,-417.39 1789.16,-419.64 1788.31,-412.69"/>
</g>
<!-- Node30 -->
<g id="node30" class="node">
<title>Node30</title>
<g id="a_node30"><a xlink:href="c__trace__estimator_8h.html" target="_top" xlink:title=" ">
<polygon fill="white" stroke="black" points="1950,-306 1950,-358 2101,-358 2101,-306 1950,-306"/>
<text text-anchor="start" x="1958" y="-346" font-family="Helvetica,sans-Serif" font-size="10.00">/home/sia/work/ADCP</text>
<text text-anchor="start" x="1958" y="-335" font-family="Helvetica,sans-Serif" font-size="10.00">/Noise&#45;Estimation/code</text>
<text text-anchor="start" x="1958" y="-324" font-family="Helvetica,sans-Serif" font-size="10.00">/imate/imate/_c_trace</text>
<text text-anchor="middle" x="2025.5" y="-313" font-family="Helvetica,sans-Serif" font-size="10.00">_estimator/c_trace_estimator.h</text>
</a>
</g>
</g>
<!-- Node1&#45;&gt;Node30 -->
<g id="edge33" class="edge">
<title>Node1&#45;&gt;Node30</title>
<path fill="none" stroke="midnightblue" d="M1788.31,-406.11C1833.39,-394.81 1890.39,-379.72 1940.5,-364 1946.35,-362.17 1952.38,-360.17 1958.42,-358.11"/>
<polygon fill="midnightblue" stroke="midnightblue" points="1787.45,-402.72 1778.59,-408.53 1789.14,-409.51 1787.45,-402.72"/>
</g>
<!-- Node31 -->
<g id="node31" class="node">
<title>Node31</title>
<g id="a_node31"><a xlink:href="cu__linear__operator_8h.html" target="_top" xlink:title=" ">
<polygon fill="white" stroke="black" points="1455,-306 1455,-358 1602,-358 1602,-306 1455,-306"/>
<text text-anchor="start" x="1463" y="-346" font-family="Helvetica,sans-Serif" font-size="10.00">/home/sia/work/ADCP</text>
<text text-anchor="start" x="1463" y="-335" font-family="Helvetica,sans-Serif" font-size="10.00">/Noise&#45;Estimation/code</text>
<text text-anchor="start" x="1463" y="-324" font-family="Helvetica,sans-Serif" font-size="10.00">/imate/imate/_cu_linear</text>
<text text-anchor="middle" x="1528.5" y="-313" font-family="Helvetica,sans-Serif" font-size="10.00">_operator/cu_linear_operator.h</text>
</a>
</g>
</g>
<!-- Node1&#45;&gt;Node31 -->
<g id="edge35" class="edge">
<title>Node1&#45;&gt;Node31</title>
<path fill="none" stroke="midnightblue" d="M1649.89,-395.73C1626.37,-383.58 1599.47,-369.67 1576.98,-358.05"/>
<polygon fill="midnightblue" stroke="midnightblue" points="1648.57,-398.99 1659.06,-400.47 1651.78,-392.77 1648.57,-398.99"/>
</g>
<!-- Node3 -->
<g id="node3" class="node">
<title>Node3</title>
<g id="a_node3"><a xlink:href="c__affine__matrix__function_8cpp.html" target="_top" xlink:title=" ">
<polygon fill="white" stroke="black" points="0,-100.5 0,-163.5 127,-163.5 127,-100.5 0,-100.5"/>
<text text-anchor="start" x="8" y="-151.5" font-family="Helvetica,sans-Serif" font-size="10.00">/home/sia/work/ADCP</text>
<text text-anchor="start" x="8" y="-140.5" font-family="Helvetica,sans-Serif" font-size="10.00">/Noise&#45;Estimation/code</text>
<text text-anchor="start" x="8" y="-129.5" font-family="Helvetica,sans-Serif" font-size="10.00">/imate/imate/_c_linear</text>
<text text-anchor="start" x="8" y="-118.5" font-family="Helvetica,sans-Serif" font-size="10.00">_operator/c_affine_matrix</text>
<text text-anchor="middle" x="63.5" y="-107.5" font-family="Helvetica,sans-Serif" font-size="10.00">_function.cpp</text>
</a>
</g>
</g>
<!-- Node2&#45;&gt;Node3 -->
<g id="edge2" class="edge">
<title>Node2&#45;&gt;Node3</title>
<path fill="none" stroke="midnightblue" d="M271.73,-209.4C231.19,-197.04 180.21,-180.71 135.5,-164 132.82,-163 130.1,-161.95 127.36,-160.88"/>
<polygon fill="midnightblue" stroke="midnightblue" points="270.95,-212.82 281.54,-212.37 272.98,-206.12 270.95,-212.82"/>
</g>
<!-- Node4 -->
<g id="node4" class="node">
<title>Node4</title>
<g id="a_node4"><a xlink:href="c__csc__affine__matrix__function_8h.html" target="_top" xlink:title=" ">
<polygon fill="white" stroke="black" points="427,-100.5 427,-163.5 546,-163.5 546,-100.5 427,-100.5"/>
<text text-anchor="start" x="435" y="-151.5" font-family="Helvetica,sans-Serif" font-size="10.00">/home/sia/work/ADCP</text>
<text text-anchor="start" x="435" y="-140.5" font-family="Helvetica,sans-Serif" font-size="10.00">/Noise&#45;Estimation/code</text>
<text text-anchor="start" x="435" y="-129.5" font-family="Helvetica,sans-Serif" font-size="10.00">/imate/imate/_c_linear</text>
<text text-anchor="start" x="435" y="-118.5" font-family="Helvetica,sans-Serif" font-size="10.00">_operator/c_csc_affine</text>
<text text-anchor="middle" x="486.5" y="-107.5" font-family="Helvetica,sans-Serif" font-size="10.00">_matrix_function.h</text>
</a>
</g>
</g>
<!-- Node2&#45;&gt;Node4 -->
<g id="edge3" class="edge">
<title>Node2&#45;&gt;Node4</title>
<path fill="none" stroke="midnightblue" d="M398.16,-194.4C412.74,-184.27 428.4,-173.38 442.43,-163.63"/>
<polygon fill="midnightblue" stroke="midnightblue" points="395.94,-191.68 389.73,-200.26 399.94,-197.43 395.94,-191.68"/>
</g>
<!-- Node6 -->
<g id="node6" class="node">
<title>Node6</title>
<g id="a_node6"><a xlink:href="c__csr__affine__matrix__function_8h.html" target="_top" xlink:title=" ">
<polygon fill="white" stroke="black" points="145,-100.5 145,-163.5 264,-163.5 264,-100.5 145,-100.5"/>
<text text-anchor="start" x="153" y="-151.5" font-family="Helvetica,sans-Serif" font-size="10.00">/home/sia/work/ADCP</text>
<text text-anchor="start" x="153" y="-140.5" font-family="Helvetica,sans-Serif" font-size="10.00">/Noise&#45;Estimation/code</text>
<text text-anchor="start" x="153" y="-129.5" font-family="Helvetica,sans-Serif" font-size="10.00">/imate/imate/_c_linear</text>
<text text-anchor="start" x="153" y="-118.5" font-family="Helvetica,sans-Serif" font-size="10.00">_operator/c_csr_affine</text>
<text text-anchor="middle" x="204.5" y="-107.5" font-family="Helvetica,sans-Serif" font-size="10.00">_matrix_function.h</text>
</a>
</g>
</g>
<!-- Node2&#45;&gt;Node6 -->
<g id="edge5" class="edge">
<title>Node2&#45;&gt;Node6</title>
<path fill="none" stroke="midnightblue" d="M292.84,-194.4C278.26,-184.27 262.6,-173.38 248.57,-163.63"/>
<polygon fill="midnightblue" stroke="midnightblue" points="291.06,-197.43 301.27,-200.26 295.06,-191.68 291.06,-197.43"/>
</g>
<!-- Node8 -->
<g id="node8" class="node">
<title>Node8</title>
<g id="a_node8"><a xlink:href="c__dense__affine__matrix__function_8h.html" target="_top" xlink:title=" ">
<polygon fill="white" stroke="black" points="282.5,-100.5 282.5,-163.5 408.5,-163.5 408.5,-100.5 282.5,-100.5"/>
<text text-anchor="start" x="290.5" y="-151.5" font-family="Helvetica,sans-Serif" font-size="10.00">/home/sia/work/ADCP</text>
<text text-anchor="start" x="290.5" y="-140.5" font-family="Helvetica,sans-Serif" font-size="10.00">/Noise&#45;Estimation/code</text>
<text text-anchor="start" x="290.5" y="-129.5" font-family="Helvetica,sans-Serif" font-size="10.00">/imate/imate/_c_linear</text>
<text text-anchor="start" x="290.5" y="-118.5" font-family="Helvetica,sans-Serif" font-size="10.00">_operator/c_dense_affine</text>
<text text-anchor="middle" x="345.5" y="-107.5" font-family="Helvetica,sans-Serif" font-size="10.00">_matrix_function.h</text>
</a>
</g>
</g>
<!-- Node2&#45;&gt;Node8 -->
<g id="edge7" class="edge">
<title>Node2&#45;&gt;Node8</title>
<path fill="none" stroke="midnightblue" d="M345.5,-190.1C345.5,-181.24 345.5,-172.01 345.5,-163.63"/>
<polygon fill="midnightblue" stroke="midnightblue" points="342,-190.26 345.5,-200.26 349,-190.26 342,-190.26"/>
</g>
<!-- Node5 -->
<g id="node5" class="node">
<title>Node5</title>
<g id="a_node5"><a xlink:href="c__csc__affine__matrix__function_8cpp.html" target="_top" xlink:title=" ">
<polygon fill="white" stroke="black" points="427,-0.5 427,-63.5 546,-63.5 546,-0.5 427,-0.5"/>
<text text-anchor="start" x="435" y="-51.5" font-family="Helvetica,sans-Serif" font-size="10.00">/home/sia/work/ADCP</text>
<text text-anchor="start" x="435" y="-40.5" font-family="Helvetica,sans-Serif" font-size="10.00">/Noise&#45;Estimation/code</text>
<text text-anchor="start" x="435" y="-29.5" font-family="Helvetica,sans-Serif" font-size="10.00">/imate/imate/_c_linear</text>
<text text-anchor="start" x="435" y="-18.5" font-family="Helvetica,sans-Serif" font-size="10.00">_operator/c_csc_affine</text>
<text text-anchor="middle" x="486.5" y="-7.5" font-family="Helvetica,sans-Serif" font-size="10.00">_matrix_function.cpp</text>
</a>
</g>
</g>
<!-- Node4&#45;&gt;Node5 -->
<g id="edge4" class="edge">
<title>Node4&#45;&gt;Node5</title>
<path fill="none" stroke="midnightblue" d="M486.5,-90.1C486.5,-81.24 486.5,-72.01 486.5,-63.63"/>
<polygon fill="midnightblue" stroke="midnightblue" points="483,-90.26 486.5,-100.26 490,-90.26 483,-90.26"/>
</g>
<!-- Node7 -->
<g id="node7" class="node">
<title>Node7</title>
<g id="a_node7"><a xlink:href="c__csr__affine__matrix__function_8cpp.html" target="_top" xlink:title=" ">
<polygon fill="white" stroke="black" points="145,-0.5 145,-63.5 264,-63.5 264,-0.5 145,-0.5"/>
<text text-anchor="start" x="153" y="-51.5" font-family="Helvetica,sans-Serif" font-size="10.00">/home/sia/work/ADCP</text>
<text text-anchor="start" x="153" y="-40.5" font-family="Helvetica,sans-Serif" font-size="10.00">/Noise&#45;Estimation/code</text>
<text text-anchor="start" x="153" y="-29.5" font-family="Helvetica,sans-Serif" font-size="10.00">/imate/imate/_c_linear</text>
<text text-anchor="start" x="153" y="-18.5" font-family="Helvetica,sans-Serif" font-size="10.00">_operator/c_csr_affine</text>
<text text-anchor="middle" x="204.5" y="-7.5" font-family="Helvetica,sans-Serif" font-size="10.00">_matrix_function.cpp</text>
</a>
</g>
</g>
<!-- Node6&#45;&gt;Node7 -->
<g id="edge6" class="edge">
<title>Node6&#45;&gt;Node7</title>
<path fill="none" stroke="midnightblue" d="M204.5,-90.1C204.5,-81.24 204.5,-72.01 204.5,-63.63"/>
<polygon fill="midnightblue" stroke="midnightblue" points="201,-90.26 204.5,-100.26 208,-90.26 201,-90.26"/>
</g>
<!-- Node9 -->
<g id="node9" class="node">
<title>Node9</title>
<g id="a_node9"><a xlink:href="c__dense__affine__matrix__function_8cpp.html" target="_top" xlink:title=" ">
<polygon fill="white" stroke="black" points="282.5,-0.5 282.5,-63.5 408.5,-63.5 408.5,-0.5 282.5,-0.5"/>
<text text-anchor="start" x="290.5" y="-51.5" font-family="Helvetica,sans-Serif" font-size="10.00">/home/sia/work/ADCP</text>
<text text-anchor="start" x="290.5" y="-40.5" font-family="Helvetica,sans-Serif" font-size="10.00">/Noise&#45;Estimation/code</text>
<text text-anchor="start" x="290.5" y="-29.5" font-family="Helvetica,sans-Serif" font-size="10.00">/imate/imate/_c_linear</text>
<text text-anchor="start" x="290.5" y="-18.5" font-family="Helvetica,sans-Serif" font-size="10.00">_operator/c_dense_affine</text>
<text text-anchor="middle" x="345.5" y="-7.5" font-family="Helvetica,sans-Serif" font-size="10.00">_matrix_function.cpp</text>
</a>
</g>
</g>
<!-- Node8&#45;&gt;Node9 -->
<g id="edge8" class="edge">
<title>Node8&#45;&gt;Node9</title>
<path fill="none" stroke="midnightblue" d="M345.5,-90.1C345.5,-81.24 345.5,-72.01 345.5,-63.63"/>
<polygon fill="midnightblue" stroke="midnightblue" points="342,-90.26 345.5,-100.26 349,-90.26 342,-90.26"/>
</g>
<!-- Node12 -->
<g id="node12" class="node">
<title>Node12</title>
<g id="a_node12"><a xlink:href="c__csc__matrix_8h.html" target="_top" xlink:title=" ">
<polygon fill="white" stroke="black" points="1083,-206 1083,-258 1210,-258 1210,-206 1083,-206"/>
<text text-anchor="start" x="1091" y="-246" font-family="Helvetica,sans-Serif" font-size="10.00">/home/sia/work/ADCP</text>
<text text-anchor="start" x="1091" y="-235" font-family="Helvetica,sans-Serif" font-size="10.00">/Noise&#45;Estimation/code</text>
<text text-anchor="start" x="1091" y="-224" font-family="Helvetica,sans-Serif" font-size="10.00">/imate/imate/_c_linear</text>
<text text-anchor="middle" x="1146.5" y="-213" font-family="Helvetica,sans-Serif" font-size="10.00">_operator/c_csc_matrix.h</text>
</a>
</g>
</g>
<!-- Node11&#45;&gt;Node12 -->
<g id="edge11" class="edge">
<title>Node11&#45;&gt;Node12</title>
<path fill="none" stroke="midnightblue" d="M928.69,-311.22C970.88,-298.69 1025.71,-281.58 1073.5,-264 1078.54,-262.15 1083.74,-260.14 1088.93,-258.06"/>
<polygon fill="midnightblue" stroke="midnightblue" points="927.67,-307.87 919.07,-314.06 929.65,-314.58 927.67,-307.87"/>
</g>
<!-- Node16 -->
<g id="node16" class="node">
<title>Node16</title>
<g id="a_node16"><a xlink:href="c__csr__matrix_8h.html" target="_top" xlink:title=" ">
<polygon fill="white" stroke="black" points="511,-206 511,-258 636,-258 636,-206 511,-206"/>
<text text-anchor="start" x="519" y="-246" font-family="Helvetica,sans-Serif" font-size="10.00">/home/sia/work/ADCP</text>
<text text-anchor="start" x="519" y="-235" font-family="Helvetica,sans-Serif" font-size="10.00">/Noise&#45;Estimation/code</text>
<text text-anchor="start" x="519" y="-224" font-family="Helvetica,sans-Serif" font-size="10.00">/imate/imate/_c_linear</text>
<text text-anchor="middle" x="573.5" y="-213" font-family="Helvetica,sans-Serif" font-size="10.00">_operator/c_csr_matrix.h</text>
</a>
</g>
</g>
<!-- Node11&#45;&gt;Node16 -->
<g id="edge16" class="edge">
<title>Node11&#45;&gt;Node16</title>
<path fill="none" stroke="midnightblue" d="M789.92,-311.42C747.5,-298.97 692.42,-281.87 644.5,-264 639.58,-262.17 634.52,-260.17 629.46,-258.11"/>
<polygon fill="midnightblue" stroke="midnightblue" points="789.01,-314.8 799.59,-314.24 790.97,-308.08 789.01,-314.8"/>
</g>
<!-- Node20 -->
<g id="node20" class="node">
<title>Node20</title>
<g id="a_node20"><a xlink:href="c__dense__matrix_8h.html" target="_top" xlink:title=" ">
<polygon fill="white" stroke="black" points="791,-206 791,-258 928,-258 928,-206 791,-206"/>
<text text-anchor="start" x="799" y="-246" font-family="Helvetica,sans-Serif" font-size="10.00">/home/sia/work/ADCP</text>
<text text-anchor="start" x="799" y="-235" font-family="Helvetica,sans-Serif" font-size="10.00">/Noise&#45;Estimation/code</text>
<text text-anchor="start" x="799" y="-224" font-family="Helvetica,sans-Serif" font-size="10.00">/imate/imate/_c_linear</text>
<text text-anchor="middle" x="859.5" y="-213" font-family="Helvetica,sans-Serif" font-size="10.00">_operator/c_dense_matrix.h</text>
</a>
</g>
</g>
<!-- Node11&#45;&gt;Node20 -->
<g id="edge21" class="edge">
<title>Node11&#45;&gt;Node20</title>
<path fill="none" stroke="midnightblue" d="M859.5,-295.7C859.5,-283.28 859.5,-269.57 859.5,-258.15"/>
<polygon fill="midnightblue" stroke="midnightblue" points="856,-295.76 859.5,-305.76 863,-295.76 856,-295.76"/>
</g>
<!-- Node24 -->
<g id="node24" class="node">
<title>Node24</title>
<g id="a_node24"><a xlink:href="c__matrix_8cpp.html" target="_top" xlink:title=" ">
<polygon fill="white" stroke="black" points="654,-206 654,-258 773,-258 773,-206 654,-206"/>
<text text-anchor="start" x="662" y="-246" font-family="Helvetica,sans-Serif" font-size="10.00">/home/sia/work/ADCP</text>
<text text-anchor="start" x="662" y="-235" font-family="Helvetica,sans-Serif" font-size="10.00">/Noise&#45;Estimation/code</text>
<text text-anchor="start" x="662" y="-224" font-family="Helvetica,sans-Serif" font-size="10.00">/imate/imate/_c_linear</text>
<text text-anchor="middle" x="713.5" y="-213" font-family="Helvetica,sans-Serif" font-size="10.00">_operator/c_matrix.cpp</text>
</a>
</g>
</g>
<!-- Node11&#45;&gt;Node24 -->
<g id="edge26" class="edge">
<title>Node11&#45;&gt;Node24</title>
<path fill="none" stroke="midnightblue" d="M813.49,-300.12C793.35,-286.6 770.03,-270.94 750.97,-258.15"/>
<polygon fill="midnightblue" stroke="midnightblue" points="811.65,-303.1 821.9,-305.76 815.55,-297.28 811.65,-303.1"/>
</g>
<!-- Node12&#45;&gt;Node4 -->
<g id="edge12" class="edge">
<title>Node12&#45;&gt;Node4</title>
<path fill="none" stroke="midnightblue" d="M1083.22,-202.67C1079.97,-201.67 1076.71,-200.77 1073.5,-200 848.66,-146.07 778.62,-220.87 554.5,-164 551.73,-163.3 548.94,-162.49 546.14,-161.59"/>
<polygon fill="midnightblue" stroke="midnightblue" points="1082.37,-206.07 1092.96,-205.91 1084.59,-199.43 1082.37,-206.07"/>
</g>
<!-- Node13 -->
<g id="node13" class="node">
<title>Node13</title>
<g id="a_node13"><a xlink:href="c__csc__matrix_8cpp.html" target="_top" xlink:title=" ">
<polygon fill="white" stroke="black" points="1344,-106 1344,-158 1481,-158 1481,-106 1344,-106"/>
<text text-anchor="start" x="1352" y="-146" font-family="Helvetica,sans-Serif" font-size="10.00">/home/sia/work/ADCP</text>
<text text-anchor="start" x="1352" y="-135" font-family="Helvetica,sans-Serif" font-size="10.00">/Noise&#45;Estimation/code</text>
<text text-anchor="start" x="1352" y="-124" font-family="Helvetica,sans-Serif" font-size="10.00">/imate/imate/_c_linear</text>
<text text-anchor="middle" x="1412.5" y="-113" font-family="Helvetica,sans-Serif" font-size="10.00">_operator/c_csc_matrix.cpp</text>
</a>
</g>
</g>
<!-- Node12&#45;&gt;Node13 -->
<g id="edge13" class="edge">
<title>Node12&#45;&gt;Node13</title>
<path fill="none" stroke="midnightblue" d="M1212.84,-202.13C1214.74,-201.4 1216.63,-200.69 1218.5,-200 1269.14,-181.3 1283.6,-181.98 1334.5,-164 1339.72,-162.16 1345.11,-160.18 1350.5,-158.14"/>
<polygon fill="midnightblue" stroke="midnightblue" points="1211.29,-198.98 1203.26,-205.9 1213.85,-205.5 1211.29,-198.98"/>
</g>
<!-- Node14 -->
<g id="node14" class="node">
<title>Node14</title>
<g id="a_node14"><a xlink:href="cu__csc__matrix_8h.html" target="_top" xlink:title=" ">
<polygon fill="white" stroke="black" points="1193.5,-106 1193.5,-158 1325.5,-158 1325.5,-106 1193.5,-106"/>
<text text-anchor="start" x="1201.5" y="-146" font-family="Helvetica,sans-Serif" font-size="10.00">/home/sia/work/ADCP</text>
<text text-anchor="start" x="1201.5" y="-135" font-family="Helvetica,sans-Serif" font-size="10.00">/Noise&#45;Estimation/code</text>
<text text-anchor="start" x="1201.5" y="-124" font-family="Helvetica,sans-Serif" font-size="10.00">/imate/imate/_cu_linear</text>
<text text-anchor="middle" x="1259.5" y="-113" font-family="Helvetica,sans-Serif" font-size="10.00">_operator/cu_csc_matrix.h</text>
</a>
</g>
</g>
<!-- Node12&#45;&gt;Node14 -->
<g id="edge14" class="edge">
<title>Node12&#45;&gt;Node14</title>
<path fill="none" stroke="midnightblue" d="M1183.37,-199.02C1198.66,-185.76 1216.15,-170.6 1230.5,-158.15"/>
<polygon fill="midnightblue" stroke="midnightblue" points="1180.86,-196.57 1175.6,-205.76 1185.45,-201.85 1180.86,-196.57"/>
</g>
<!-- Node15 -->
<g id="node15" class="node">
<title>Node15</title>
<g id="a_node15"><a xlink:href="cu__csc__affine__matrix__function_8h.html" target="_top" xlink:title=" ">
<polygon fill="white" stroke="black" points="1352,-0.5 1352,-63.5 1473,-63.5 1473,-0.5 1352,-0.5"/>
<text text-anchor="start" x="1360" y="-51.5" font-family="Helvetica,sans-Serif" font-size="10.00">/home/sia/work/ADCP</text>
<text text-anchor="start" x="1360" y="-40.5" font-family="Helvetica,sans-Serif" font-size="10.00">/Noise&#45;Estimation/code</text>
<text text-anchor="start" x="1360" y="-29.5" font-family="Helvetica,sans-Serif" font-size="10.00">/imate/imate/_cu_linear</text>
<text text-anchor="start" x="1360" y="-18.5" font-family="Helvetica,sans-Serif" font-size="10.00">_operator/cu_csc_affine</text>
<text text-anchor="middle" x="1412.5" y="-7.5" font-family="Helvetica,sans-Serif" font-size="10.00">_matrix_function.h</text>
</a>
</g>
</g>
<!-- Node14&#45;&gt;Node15 -->
<g id="edge15" class="edge">
<title>Node14&#45;&gt;Node15</title>
<path fill="none" stroke="midnightblue" d="M1307.63,-100.17C1325.85,-88.5 1346.58,-75.22 1364.77,-63.57"/>
<polygon fill="midnightblue" stroke="midnightblue" points="1305.43,-97.42 1298.9,-105.76 1309.21,-103.32 1305.43,-97.42"/>
</g>
<!-- Node16&#45;&gt;Node6 -->
<g id="edge17" class="edge">
<title>Node16&#45;&gt;Node6</title>
<path fill="none" stroke="midnightblue" d="M501.05,-216.58C426.32,-201.39 315,-177.8 273.5,-164 270.38,-162.96 267.22,-161.83 264.04,-160.64"/>
<polygon fill="midnightblue" stroke="midnightblue" points="500.39,-220.02 510.89,-218.57 501.78,-213.16 500.39,-220.02"/>
</g>
<!-- Node17 -->
<g id="node17" class="node">
<title>Node17</title>
<g id="a_node17"><a xlink:href="c__csr__matrix_8cpp.html" target="_top" xlink:title=" ">
<polygon fill="white" stroke="black" points="564,-106 564,-158 699,-158 699,-106 564,-106"/>
<text text-anchor="start" x="572" y="-146" font-family="Helvetica,sans-Serif" font-size="10.00">/home/sia/work/ADCP</text>
<text text-anchor="start" x="572" y="-135" font-family="Helvetica,sans-Serif" font-size="10.00">/Noise&#45;Estimation/code</text>
<text text-anchor="start" x="572" y="-124" font-family="Helvetica,sans-Serif" font-size="10.00">/imate/imate/_c_linear</text>
<text text-anchor="middle" x="631.5" y="-113" font-family="Helvetica,sans-Serif" font-size="10.00">_operator/c_csr_matrix.cpp</text>
</a>
</g>
</g>
<!-- Node16&#45;&gt;Node17 -->
<g id="edge18" class="edge">
<title>Node16&#45;&gt;Node17</title>
<path fill="none" stroke="midnightblue" d="M593.73,-196.82C601.26,-184.1 609.65,-169.91 616.61,-158.15"/>
<polygon fill="midnightblue" stroke="midnightblue" points="590.52,-195.37 588.44,-205.76 596.54,-198.94 590.52,-195.37"/>
</g>
<!-- Node18 -->
<g id="node18" class="node">
<title>Node18</title>
<g id="a_node18"><a xlink:href="cu__csr__matrix_8h.html" target="_top" xlink:title=" ">
<polygon fill="white" stroke="black" points="883.5,-106 883.5,-158 1013.5,-158 1013.5,-106 883.5,-106"/>
<text text-anchor="start" x="891.5" y="-146" font-family="Helvetica,sans-Serif" font-size="10.00">/home/sia/work/ADCP</text>
<text text-anchor="start" x="891.5" y="-135" font-family="Helvetica,sans-Serif" font-size="10.00">/Noise&#45;Estimation/code</text>
<text text-anchor="start" x="891.5" y="-124" font-family="Helvetica,sans-Serif" font-size="10.00">/imate/imate/_cu_linear</text>
<text text-anchor="middle" x="948.5" y="-113" font-family="Helvetica,sans-Serif" font-size="10.00">_operator/cu_csr_matrix.h</text>
</a>
</g>
</g>
<!-- Node16&#45;&gt;Node18 -->
<g id="edge19" class="edge">
<title>Node16&#45;&gt;Node18</title>
<path fill="none" stroke="midnightblue" d="M636.53,-202.51C639.2,-201.61 641.87,-200.77 644.5,-200 743.84,-171.06 774.95,-192.19 874.5,-164 880.4,-162.33 886.45,-160.32 892.44,-158.13"/>
<polygon fill="midnightblue" stroke="midnightblue" points="635.07,-199.31 626.85,-205.99 637.44,-205.9 635.07,-199.31"/>
</g>
<!-- Node19 -->
<g id="node19" class="node">
<title>Node19</title>
<g id="a_node19"><a xlink:href="cu__csr__affine__matrix__function_8h.html" target="_top" xlink:title=" ">
<polygon fill="white" stroke="black" points="895,-0.5 895,-63.5 1014,-63.5 1014,-0.5 895,-0.5"/>
<text text-anchor="start" x="903" y="-51.5" font-family="Helvetica,sans-Serif" font-size="10.00">/home/sia/work/ADCP</text>
<text text-anchor="start" x="903" y="-40.5" font-family="Helvetica,sans-Serif" font-size="10.00">/Noise&#45;Estimation/code</text>
<text text-anchor="start" x="903" y="-29.5" font-family="Helvetica,sans-Serif" font-size="10.00">/imate/imate/_cu_linear</text>
<text text-anchor="start" x="903" y="-18.5" font-family="Helvetica,sans-Serif" font-size="10.00">_operator/cu_csr_affine</text>
<text text-anchor="middle" x="954.5" y="-7.5" font-family="Helvetica,sans-Serif" font-size="10.00">_matrix_function.h</text>
</a>
</g>
</g>
<!-- Node18&#45;&gt;Node19 -->
<g id="edge20" class="edge">
<title>Node18&#45;&gt;Node19</title>
<path fill="none" stroke="midnightblue" d="M950.66,-95.69C951.3,-85.24 952,-73.89 952.62,-63.75"/>
<polygon fill="midnightblue" stroke="midnightblue" points="947.16,-95.57 950.05,-105.76 954.15,-96 947.16,-95.57"/>
</g>
<!-- Node20&#45;&gt;Node8 -->
<g id="edge22" class="edge">
<title>Node20&#45;&gt;Node8</title>
<path fill="none" stroke="midnightblue" d="M791.9,-202.83C788.41,-201.79 784.93,-200.83 781.5,-200 623.53,-161.6 574.91,-204.62 417.5,-164 414.6,-163.25 411.67,-162.4 408.73,-161.48"/>
<polygon fill="midnightblue" stroke="midnightblue" points="791.14,-206.26 801.73,-205.99 793.28,-199.6 791.14,-206.26"/>
</g>
<!-- Node21 -->
<g id="node21" class="node">
<title>Node21</title>
<g id="a_node21"><a xlink:href="c__dense__matrix_8cpp.html" target="_top" xlink:title=" ">
<polygon fill="white" stroke="black" points="717.5,-106 717.5,-158 865.5,-158 865.5,-106 717.5,-106"/>
<text text-anchor="start" x="725.5" y="-146" font-family="Helvetica,sans-Serif" font-size="10.00">/home/sia/work/ADCP</text>
<text text-anchor="start" x="725.5" y="-135" font-family="Helvetica,sans-Serif" font-size="10.00">/Noise&#45;Estimation/code</text>
<text text-anchor="start" x="725.5" y="-124" font-family="Helvetica,sans-Serif" font-size="10.00">/imate/imate/_c_linear</text>
<text text-anchor="middle" x="791.5" y="-113" font-family="Helvetica,sans-Serif" font-size="10.00">_operator/c_dense_matrix.cpp</text>
</a>
</g>
</g>
<!-- Node20&#45;&gt;Node21 -->
<g id="edge23" class="edge">
<title>Node20&#45;&gt;Node21</title>
<path fill="none" stroke="midnightblue" d="M836.04,-197.19C827.15,-184.38 817.19,-170.03 808.95,-158.15"/>
<polygon fill="midnightblue" stroke="midnightblue" points="833.41,-199.54 841.99,-205.76 839.16,-195.55 833.41,-199.54"/>
</g>
<!-- Node22 -->
<g id="node22" class="node">
<title>Node22</title>
<g id="a_node22"><a xlink:href="cu__dense__matrix_8h.html" target="_top" xlink:title=" ">
<polygon fill="white" stroke="black" points="1032,-106 1032,-158 1175,-158 1175,-106 1032,-106"/>
<text text-anchor="start" x="1040" y="-146" font-family="Helvetica,sans-Serif" font-size="10.00">/home/sia/work/ADCP</text>
<text text-anchor="start" x="1040" y="-135" font-family="Helvetica,sans-Serif" font-size="10.00">/Noise&#45;Estimation/code</text>
<text text-anchor="start" x="1040" y="-124" font-family="Helvetica,sans-Serif" font-size="10.00">/imate/imate/_cu_linear</text>
<text text-anchor="middle" x="1103.5" y="-113" font-family="Helvetica,sans-Serif" font-size="10.00">_operator/cu_dense_matrix.h</text>
</a>
</g>
</g>
<!-- Node20&#45;&gt;Node22 -->
<g id="edge24" class="edge">
<title>Node20&#45;&gt;Node22</title>
<path fill="none" stroke="midnightblue" d="M931.02,-202.2C932.87,-201.46 934.69,-200.73 936.5,-200 970.99,-186.14 1009.5,-170.69 1040.84,-158.12"/>
<polygon fill="midnightblue" stroke="midnightblue" points="929.67,-198.97 921.7,-205.95 932.28,-205.47 929.67,-198.97"/>
</g>
<!-- Node23 -->
<g id="node23" class="node">
<title>Node23</title>
<g id="a_node23"><a xlink:href="cu__dense__affine__matrix__function_8h.html" target="_top" xlink:title=" ">
<polygon fill="white" stroke="black" points="1120,-0.5 1120,-63.5 1251,-63.5 1251,-0.5 1120,-0.5"/>
<text text-anchor="start" x="1128" y="-51.5" font-family="Helvetica,sans-Serif" font-size="10.00">/home/sia/work/ADCP</text>
<text text-anchor="start" x="1128" y="-40.5" font-family="Helvetica,sans-Serif" font-size="10.00">/Noise&#45;Estimation/code</text>
<text text-anchor="start" x="1128" y="-29.5" font-family="Helvetica,sans-Serif" font-size="10.00">/imate/imate/_cu_linear</text>
<text text-anchor="start" x="1128" y="-18.5" font-family="Helvetica,sans-Serif" font-size="10.00">_operator/cu_dense_affine</text>
<text text-anchor="middle" x="1185.5" y="-7.5" font-family="Helvetica,sans-Serif" font-size="10.00">_matrix_function.h</text>
</a>
</g>
</g>
<!-- Node22&#45;&gt;Node23 -->
<g id="edge25" class="edge">
<title>Node22&#45;&gt;Node23</title>
<path fill="none" stroke="midnightblue" d="M1131.14,-97.96C1140.4,-86.9 1150.67,-74.63 1159.77,-63.75"/>
<polygon fill="midnightblue" stroke="midnightblue" points="1128.35,-95.85 1124.62,-105.76 1133.72,-100.34 1128.35,-95.85"/>
</g>
<!-- Node26 -->
<g id="node26" class="node">
<title>Node26</title>
<g id="a_node26"><a xlink:href="c__golub__kahn__bidiagonalization_8cpp.html" target="_top" xlink:title=" ">
<polygon fill="white" stroke="black" points="1810,-200.5 1810,-263.5 1935,-263.5 1935,-200.5 1810,-200.5"/>
<text text-anchor="start" x="1818" y="-251.5" font-family="Helvetica,sans-Serif" font-size="10.00">/home/sia/work/ADCP</text>
<text text-anchor="start" x="1818" y="-240.5" font-family="Helvetica,sans-Serif" font-size="10.00">/Noise&#45;Estimation/code</text>
<text text-anchor="start" x="1818" y="-229.5" font-family="Helvetica,sans-Serif" font-size="10.00">/imate/imate/_c_trace</text>
<text text-anchor="start" x="1818" y="-218.5" font-family="Helvetica,sans-Serif" font-size="10.00">_estimator/c_golub_kahn</text>
<text text-anchor="middle" x="1872.5" y="-207.5" font-family="Helvetica,sans-Serif" font-size="10.00">_bidiagonalization.cpp</text>
</a>
</g>
</g>
<!-- Node25&#45;&gt;Node26 -->
<g id="edge28" class="edge">
<title>Node25&#45;&gt;Node26</title>
<path fill="none" stroke="midnightblue" d="M1870.75,-290.1C1871.02,-281.24 1871.31,-272.01 1871.56,-263.63"/>
<polygon fill="midnightblue" stroke="midnightblue" points="1867.25,-290.16 1870.44,-300.26 1874.25,-290.37 1867.25,-290.16"/>
</g>
<!-- Node27 -->
<g id="node27" class="node">
<title>Node27</title>
<g id="a_node27"><a xlink:href="c__trace__estimator_8cpp.html" target="_top" xlink:title=" ">
<polygon fill="white" stroke="black" points="1953,-206 1953,-258 2114,-258 2114,-206 1953,-206"/>
<text text-anchor="start" x="1961" y="-246" font-family="Helvetica,sans-Serif" font-size="10.00">/home/sia/work/ADCP</text>
<text text-anchor="start" x="1961" y="-235" font-family="Helvetica,sans-Serif" font-size="10.00">/Noise&#45;Estimation/code</text>
<text text-anchor="start" x="1961" y="-224" font-family="Helvetica,sans-Serif" font-size="10.00">/imate/imate/_c_trace</text>
<text text-anchor="middle" x="2033.5" y="-213" font-family="Helvetica,sans-Serif" font-size="10.00">_estimator/c_trace_estimator.cpp</text>
</a>
</g>
</g>
<!-- Node25&#45;&gt;Node27 -->
<g id="edge29" class="edge">
<title>Node25&#45;&gt;Node27</title>
<path fill="none" stroke="midnightblue" d="M1929.62,-295.07C1950.19,-282.78 1972.75,-269.3 1991.57,-258.05"/>
<polygon fill="midnightblue" stroke="midnightblue" points="1927.73,-292.13 1920.94,-300.26 1931.32,-298.14 1927.73,-292.13"/>
</g>
<!-- Node28&#45;&gt;Node27 -->
<g id="edge32" class="edge">
<title>Node28&#45;&gt;Node27</title>
<path fill="none" stroke="midnightblue" d="M2161.21,-301.02C2135.45,-287.3 2105.27,-271.23 2080.72,-258.15"/>
<polygon fill="midnightblue" stroke="midnightblue" points="2159.64,-304.15 2170.12,-305.76 2162.93,-297.97 2159.64,-304.15"/>
</g>
<!-- Node29 -->
<g id="node29" class="node">
<title>Node29</title>
<g id="a_node29"><a xlink:href="c__lanczos__tridiagonalization_8cpp.html" target="_top" xlink:title=" ">
<polygon fill="white" stroke="black" points="2132.5,-206 2132.5,-258 2338.5,-258 2338.5,-206 2132.5,-206"/>
<text text-anchor="start" x="2140.5" y="-246" font-family="Helvetica,sans-Serif" font-size="10.00">/home/sia/work/ADCP</text>
<text text-anchor="start" x="2140.5" y="-235" font-family="Helvetica,sans-Serif" font-size="10.00">/Noise&#45;Estimation/code</text>
<text text-anchor="start" x="2140.5" y="-224" font-family="Helvetica,sans-Serif" font-size="10.00">/imate/imate/_c_trace</text>
<text text-anchor="middle" x="2235.5" y="-213" font-family="Helvetica,sans-Serif" font-size="10.00">_estimator/c_lanczos_tridiagonalization.cpp</text>
</a>
</g>
</g>
<!-- Node28&#45;&gt;Node29 -->
<g id="edge31" class="edge">
<title>Node28&#45;&gt;Node29</title>
<path fill="none" stroke="midnightblue" d="M2223.98,-295.7C2226.27,-283.28 2228.78,-269.57 2230.88,-258.15"/>
<polygon fill="midnightblue" stroke="midnightblue" points="2220.5,-295.29 2222.14,-305.76 2227.38,-296.56 2220.5,-295.29"/>
</g>
<!-- Node30&#45;&gt;Node27 -->
<g id="edge34" class="edge">
<title>Node30&#45;&gt;Node27</title>
<path fill="none" stroke="midnightblue" d="M2028.38,-295.7C2029.4,-283.28 2030.51,-269.57 2031.45,-258.15"/>
<polygon fill="midnightblue" stroke="midnightblue" points="2024.89,-295.51 2027.56,-305.76 2031.86,-296.08 2024.89,-295.51"/>
</g>
<!-- Node32 -->
<g id="node32" class="node">
<title>Node32</title>
<g id="a_node32"><a xlink:href="cu__affine__matrix__function_8h.html" target="_top" xlink:title=" ">
<polygon fill="white" stroke="black" points="1499.5,-100.5 1499.5,-163.5 1631.5,-163.5 1631.5,-100.5 1499.5,-100.5"/>
<text text-anchor="start" x="1507.5" y="-151.5" font-family="Helvetica,sans-Serif" font-size="10.00">/home/sia/work/ADCP</text>
<text text-anchor="start" x="1507.5" y="-140.5" font-family="Helvetica,sans-Serif" font-size="10.00">/Noise&#45;Estimation/code</text>
<text text-anchor="start" x="1507.5" y="-129.5" font-family="Helvetica,sans-Serif" font-size="10.00">/imate/imate/_cu_linear</text>
<text text-anchor="start" x="1507.5" y="-118.5" font-family="Helvetica,sans-Serif" font-size="10.00">_operator/cu_affine_matrix</text>
<text text-anchor="middle" x="1565.5" y="-107.5" font-family="Helvetica,sans-Serif" font-size="10.00">_function.h</text>
</a>
</g>
</g>
<!-- Node31&#45;&gt;Node32 -->
<g id="edge36" class="edge">
<title>Node31&#45;&gt;Node32</title>
<path fill="none" stroke="midnightblue" d="M1611.83,-303.2C1615.43,-302.1 1619,-301.03 1622.5,-300 1683.72,-282 1722.44,-314.47 1761.5,-264 1778.91,-241.51 1778.04,-223.14 1761.5,-200 1732.22,-159.05 1676.35,-142.85 1631.72,-136.58"/>
<polygon fill="midnightblue" stroke="midnightblue" points="1610.76,-299.87 1602.25,-306.18 1612.84,-306.56 1610.76,-299.87"/>
</g>
<!-- Node33 -->
<g id="node33" class="node">
<title>Node33</title>
<g id="a_node33"><a xlink:href="cu__matrix_8h.html" target="_top" xlink:title=" ">
<polygon fill="white" stroke="black" points="946,-206 946,-258 1065,-258 1065,-206 946,-206"/>
<text text-anchor="start" x="954" y="-246" font-family="Helvetica,sans-Serif" font-size="10.00">/home/sia/work/ADCP</text>
<text text-anchor="start" x="954" y="-235" font-family="Helvetica,sans-Serif" font-size="10.00">/Noise&#45;Estimation/code</text>
<text text-anchor="start" x="954" y="-224" font-family="Helvetica,sans-Serif" font-size="10.00">/imate/imate/_cu_linear</text>
<text text-anchor="middle" x="1005.5" y="-213" font-family="Helvetica,sans-Serif" font-size="10.00">_operator/cu_matrix.h</text>
</a>
</g>
</g>
<!-- Node31&#45;&gt;Node33 -->
<g id="edge40" class="edge">
<title>Node31&#45;&gt;Node33</title>
<path fill="none" stroke="midnightblue" d="M1444.49,-325.73C1352.02,-318.31 1199.72,-301.25 1073.5,-264 1067.9,-262.35 1062.17,-260.32 1056.52,-258.1"/>
<polygon fill="midnightblue" stroke="midnightblue" points="1444.39,-329.24 1454.64,-326.53 1444.94,-322.26 1444.39,-329.24"/>
</g>
<!-- Node34 -->
<g id="node34" class="node">
<title>Node34</title>
<g id="a_node34"><a xlink:href="cu__golub__kahn__bidiagonalization_8h.html" target="_top" xlink:title=" ">
<polygon fill="white" stroke="black" points="1622,-200.5 1622,-263.5 1753,-263.5 1753,-200.5 1622,-200.5"/>
<text text-anchor="start" x="1630" y="-251.5" font-family="Helvetica,sans-Serif" font-size="10.00">/home/sia/work/ADCP</text>
<text text-anchor="start" x="1630" y="-240.5" font-family="Helvetica,sans-Serif" font-size="10.00">/Noise&#45;Estimation/code</text>
<text text-anchor="start" x="1630" y="-229.5" font-family="Helvetica,sans-Serif" font-size="10.00">/imate/imate/_cu_trace</text>
<text text-anchor="start" x="1630" y="-218.5" font-family="Helvetica,sans-Serif" font-size="10.00">_estimator/cu_golub_kahn</text>
<text text-anchor="middle" x="1687.5" y="-207.5" font-family="Helvetica,sans-Serif" font-size="10.00">_bidiagonalization.h</text>
</a>
</g>
</g>
<!-- Node31&#45;&gt;Node34 -->
<g id="edge44" class="edge">
<title>Node31&#45;&gt;Node34</title>
<path fill="none" stroke="midnightblue" d="M1578,-300.49C1597.06,-288.74 1618.83,-275.33 1637.9,-263.57"/>
<polygon fill="midnightblue" stroke="midnightblue" points="1576.12,-297.54 1569.45,-305.76 1579.8,-303.5 1576.12,-297.54"/>
</g>
<!-- Node35 -->
<g id="node35" class="node">
<title>Node35</title>
<g id="a_node35"><a xlink:href="cu__lanczos__tridiagonalization_8h.html" target="_top" xlink:title=" ">
<polygon fill="white" stroke="black" points="1228,-206 1228,-258 1429,-258 1429,-206 1228,-206"/>
<text text-anchor="start" x="1236" y="-246" font-family="Helvetica,sans-Serif" font-size="10.00">/home/sia/work/ADCP</text>
<text text-anchor="start" x="1236" y="-235" font-family="Helvetica,sans-Serif" font-size="10.00">/Noise&#45;Estimation/code</text>
<text text-anchor="start" x="1236" y="-224" font-family="Helvetica,sans-Serif" font-size="10.00">/imate/imate/_cu_trace</text>
<text text-anchor="middle" x="1328.5" y="-213" font-family="Helvetica,sans-Serif" font-size="10.00">_estimator/cu_lanczos_tridiagonalization.h</text>
</a>
</g>
</g>
<!-- Node31&#45;&gt;Node35 -->
<g id="edge45" class="edge">
<title>Node31&#45;&gt;Node35</title>
<path fill="none" stroke="midnightblue" d="M1468.27,-301.49C1439.99,-287.63 1406.64,-271.29 1379.61,-258.04"/>
<polygon fill="midnightblue" stroke="midnightblue" points="1466.73,-304.63 1477.25,-305.89 1469.81,-298.35 1466.73,-304.63"/>
</g>
<!-- Node36 -->
<g id="node36" class="node">
<title>Node36</title>
<g id="a_node36"><a xlink:href="cu__trace__estimator_8h.html" target="_top" xlink:title=" ">
<polygon fill="white" stroke="black" points="1447.5,-206 1447.5,-258 1603.5,-258 1603.5,-206 1447.5,-206"/>
<text text-anchor="start" x="1455.5" y="-246" font-family="Helvetica,sans-Serif" font-size="10.00">/home/sia/work/ADCP</text>
<text text-anchor="start" x="1455.5" y="-235" font-family="Helvetica,sans-Serif" font-size="10.00">/Noise&#45;Estimation/code</text>
<text text-anchor="start" x="1455.5" y="-224" font-family="Helvetica,sans-Serif" font-size="10.00">/imate/imate/_cu_trace</text>
<text text-anchor="middle" x="1525.5" y="-213" font-family="Helvetica,sans-Serif" font-size="10.00">_estimator/cu_trace_estimator.h</text>
</a>
</g>
</g>
<!-- Node31&#45;&gt;Node36 -->
<g id="edge46" class="edge">
<title>Node31&#45;&gt;Node36</title>
<path fill="none" stroke="midnightblue" d="M1527.42,-295.7C1527.04,-283.28 1526.62,-269.57 1526.27,-258.15"/>
<polygon fill="midnightblue" stroke="midnightblue" points="1523.92,-295.87 1527.73,-305.76 1530.92,-295.66 1523.92,-295.87"/>
</g>
<!-- Node32&#45;&gt;Node15 -->
<g id="edge37" class="edge">
<title>Node32&#45;&gt;Node15</title>
<path fill="none" stroke="midnightblue" d="M1508.8,-94.68C1492.86,-84.47 1475.69,-73.47 1460.32,-63.63"/>
<polygon fill="midnightblue" stroke="midnightblue" points="1507.2,-97.81 1517.51,-100.26 1510.98,-91.92 1507.2,-97.81"/>
</g>
<!-- Node32&#45;&gt;Node19 -->
<g id="edge38" class="edge">
<title>Node32&#45;&gt;Node19</title>
<path fill="none" stroke="midnightblue" d="M1489.09,-100.21C1323.29,-60.72 1274.65,-88.04 1110.5,-64 1078.53,-59.32 1043.2,-52.44 1014.26,-46.35"/>
<polygon fill="midnightblue" stroke="midnightblue" points="1488.6,-103.69 1499.14,-102.65 1490.25,-96.89 1488.6,-103.69"/>
</g>
<!-- Node32&#45;&gt;Node23 -->
<g id="edge39" class="edge">
<title>Node32&#45;&gt;Node23</title>
<path fill="none" stroke="midnightblue" d="M1489.81,-100.1C1489.7,-100.06 1489.6,-100.03 1489.5,-100 1445.77,-86.37 1326.68,-61.42 1251.19,-46.11"/>
<polygon fill="midnightblue" stroke="midnightblue" points="1488.83,-103.46 1499.42,-103.27 1491.03,-96.81 1488.83,-103.46"/>
</g>
<!-- Node33&#45;&gt;Node14 -->
<g id="edge41" class="edge">
<title>Node33&#45;&gt;Node14</title>
<path fill="none" stroke="midnightblue" d="M1068.59,-201.95C1070.24,-201.28 1071.88,-200.63 1073.5,-200 1121.42,-181.3 1135.21,-181.73 1183.5,-164 1188.58,-162.13 1193.83,-160.14 1199.09,-158.09"/>
<polygon fill="midnightblue" stroke="midnightblue" points="1066.97,-198.83 1059.09,-205.9 1069.66,-205.3 1066.97,-198.83"/>
</g>
<!-- Node33&#45;&gt;Node18 -->
<g id="edge42" class="edge">
<title>Node33&#45;&gt;Node18</title>
<path fill="none" stroke="midnightblue" d="M985.62,-196.82C978.22,-184.1 969.97,-169.91 963.13,-158.15"/>
<polygon fill="midnightblue" stroke="midnightblue" points="982.77,-198.88 990.82,-205.76 988.82,-195.36 982.77,-198.88"/>
</g>
<!-- Node33&#45;&gt;Node22 -->
<g id="edge43" class="edge">
<title>Node33&#45;&gt;Node22</title>
<path fill="none" stroke="midnightblue" d="M1037.84,-198.66C1051.02,-185.48 1066.01,-170.49 1078.35,-158.15"/>
<polygon fill="midnightblue" stroke="midnightblue" points="1035.33,-196.22 1030.74,-205.76 1040.28,-201.17 1035.33,-196.22"/>
</g>
</g>
</svg>
