<?xml version="1.0" encoding="UTF-8" standalone="no"?>
<!DOCTYPE svg PUBLIC "-//W3C//DTD SVG 1.1//EN"
 "http://www.w3.org/Graphics/SVG/1.1/DTD/svg11.dtd">
<!-- Generated by graphviz version 2.43.0 (0)
 -->
<!-- Title: /home/sia/work/ADCP/Noise&#45;Estimation/code/imate/imate/_c_trace_estimator/c_orthogonalization.h Pages: 1 -->
<svg width="719pt" height="161pt"
 viewBox="0.00 0.00 719.00 161.00" xmlns="http://www.w3.org/2000/svg" xmlns:xlink="http://www.w3.org/1999/xlink">
<g id="graph0" class="graph" transform="scale(1 1) rotate(0) translate(4 157)">
<title>/home/sia/work/ADCP/Noise&#45;Estimation/code/imate/imate/_c_trace_estimator/c_orthogonalization.h</title>
<polygon fill="white" stroke="transparent" points="-4,4 -4,-157 715,-157 715,4 -4,4"/>
<!-- Node1 -->
<g id="node1" class="node">
<title>Node1</title>
<g id="a_node1"><a xlink:title=" ">
<polygon fill="#bfbfbf" stroke="black" points="269.5,-100.5 269.5,-152.5 427.5,-152.5 427.5,-100.5 269.5,-100.5"/>
<text text-anchor="start" x="277.5" y="-140.5" font-family="Helvetica,sans-Serif" font-size="10.00">/home/sia/work/ADCP</text>
<text text-anchor="start" x="277.5" y="-129.5" font-family="Helvetica,sans-Serif" font-size="10.00">/Noise&#45;Estimation/code</text>
<text text-anchor="start" x="277.5" y="-118.5" font-family="Helvetica,sans-Serif" font-size="10.00">/imate/imate/_c_trace</text>
<text text-anchor="middle" x="348.5" y="-107.5" font-family="Helvetica,sans-Serif" font-size="10.00">_estimator/c_orthogonalization.h</text>
</a>
</g>
</g>
<!-- Node2 -->
<g id="node2" class="node">
<title>Node2</title>
<g id="a_node2"><a xlink:href="c__golub__kahn__bidiagonalization_8cpp.html" target="_top" xlink:title=" ">
<polygon fill="white" stroke="black" points="0,-0.5 0,-63.5 125,-63.5 125,-0.5 0,-0.5"/>
<text text-anchor="start" x="8" y="-51.5" font-family="Helvetica,sans-Serif" font-size="10.00">/home/sia/work/ADCP</text>
<text text-anchor="start" x="8" y="-40.5" font-family="Helvetica,sans-Serif" font-size="10.00">/Noise&#45;Estimation/code</text>
<text text-anchor="start" x="8" y="-29.5" font-family="Helvetica,sans-Serif" font-size="10.00">/imate/imate/_c_trace</text>
<text text-anchor="start" x="8" y="-18.5" font-family="Helvetica,sans-Serif" font-size="10.00">_estimator/c_golub_kahn</text>
<text text-anchor="middle" x="62.5" y="-7.5" font-family="Helvetica,sans-Serif" font-size="10.00">_bidiagonalization.cpp</text>
</a>
</g>
</g>
<!-- Node1&#45;&gt;Node2 -->
<g id="edge1" class="edge">
<title>Node1&#45;&gt;Node2</title>
<path fill="none" stroke="midnightblue" d="M259.77,-102.71C220.96,-92.05 175.11,-78.51 134.5,-64 131.42,-62.9 128.29,-61.74 125.14,-60.53"/>
<polygon fill="midnightblue" stroke="midnightblue" points="258.91,-106.11 269.48,-105.36 260.75,-99.35 258.91,-106.11"/>
</g>
<!-- Node3 -->
<g id="node3" class="node">
<title>Node3</title>
<g id="a_node3"><a xlink:href="c__lanczos__tridiagonalization_8cpp.html" target="_top" xlink:title=" ">
<polygon fill="white" stroke="black" points="143.5,-6 143.5,-58 349.5,-58 349.5,-6 143.5,-6"/>
<text text-anchor="start" x="151.5" y="-46" font-family="Helvetica,sans-Serif" font-size="10.00">/home/sia/work/ADCP</text>
<text text-anchor="start" x="151.5" y="-35" font-family="Helvetica,sans-Serif" font-size="10.00">/Noise&#45;Estimation/code</text>
<text text-anchor="start" x="151.5" y="-24" font-family="Helvetica,sans-Serif" font-size="10.00">/imate/imate/_c_trace</text>
<text text-anchor="middle" x="246.5" y="-13" font-family="Helvetica,sans-Serif" font-size="10.00">_estimator/c_lanczos_tridiagonalization.cpp</text>
</a>
</g>
</g>
<!-- Node1&#45;&gt;Node3 -->
<g id="edge2" class="edge">
<title>Node1&#45;&gt;Node3</title>
<path fill="none" stroke="midnightblue" d="M313.16,-93.45C300.38,-81.86 286.15,-68.95 274.12,-58.05"/>
<polygon fill="midnightblue" stroke="midnightblue" points="311.14,-96.34 320.9,-100.47 315.84,-91.16 311.14,-96.34"/>
</g>
<!-- Node4 -->
<g id="node4" class="node">
<title>Node4</title>
<g id="a_node4"><a xlink:href="c__orthogonalization_8cpp.html" target="_top" xlink:title=" ">
<polygon fill="white" stroke="black" points="367.5,-6 367.5,-58 535.5,-58 535.5,-6 367.5,-6"/>
<text text-anchor="start" x="375.5" y="-46" font-family="Helvetica,sans-Serif" font-size="10.00">/home/sia/work/ADCP</text>
<text text-anchor="start" x="375.5" y="-35" font-family="Helvetica,sans-Serif" font-size="10.00">/Noise&#45;Estimation/code</text>
<text text-anchor="start" x="375.5" y="-24" font-family="Helvetica,sans-Serif" font-size="10.00">/imate/imate/_c_trace</text>
<text text-anchor="middle" x="451.5" y="-13" font-family="Helvetica,sans-Serif" font-size="10.00">_estimator/c_orthogonalization.cpp</text>
</a>
</g>
</g>
<!-- Node1&#45;&gt;Node4 -->
<g id="edge3" class="edge">
<title>Node1&#45;&gt;Node4</title>
<path fill="none" stroke="midnightblue" d="M383.82,-93.78C396.82,-82.11 411.35,-69.06 423.6,-58.05"/>
<polygon fill="midnightblue" stroke="midnightblue" points="381.47,-91.18 376.37,-100.47 386.15,-96.39 381.47,-91.18"/>
</g>
<!-- Node5 -->
<g id="node5" class="node">
<title>Node5</title>
<g id="a_node5"><a xlink:href="random__array__generator_8cpp.html" target="_top" xlink:title=" ">
<polygon fill="white" stroke="black" points="554,-6 554,-58 711,-58 711,-6 554,-6"/>
<text text-anchor="start" x="562" y="-46" font-family="Helvetica,sans-Serif" font-size="10.00">/home/sia/work/ADCP</text>
<text text-anchor="start" x="562" y="-35" font-family="Helvetica,sans-Serif" font-size="10.00">/Noise&#45;Estimation/code</text>
<text text-anchor="start" x="562" y="-24" font-family="Helvetica,sans-Serif" font-size="10.00">/imate/imate/_random_generator</text>
<text text-anchor="middle" x="632.5" y="-13" font-family="Helvetica,sans-Serif" font-size="10.00">/random_array_generator.cpp</text>
</a>
</g>
</g>
<!-- Node1&#45;&gt;Node5 -->
<g id="edge4" class="edge">
<title>Node1&#45;&gt;Node5</title>
<path fill="none" stroke="midnightblue" d="M437.65,-98.24C471.23,-87.79 509.7,-75.59 544.5,-64 550.19,-62.11 556.07,-60.11 561.97,-58.09"/>
<polygon fill="midnightblue" stroke="midnightblue" points="436.37,-94.98 427.86,-101.29 438.44,-101.66 436.37,-94.98"/>
</g>
</g>
</svg>
