<?xml version="1.0" encoding="UTF-8" standalone="no"?>
<!DOCTYPE svg PUBLIC "-//W3C//DTD SVG 1.1//EN"
 "http://www.w3.org/Graphics/SVG/1.1/DTD/svg11.dtd">
<!-- Generated by graphviz version 2.43.0 (0)
 -->
<!-- Title: /home/sia/work/ADCP/Noise&#45;Estimation/code/imate/imate/_c_trace_estimator/c_trace_estimator.h Pages: 1 -->
<svg width="448pt" height="240pt"
 viewBox="0.00 0.00 447.50 240.00" xmlns="http://www.w3.org/2000/svg" xmlns:xlink="http://www.w3.org/1999/xlink">
<g id="graph0" class="graph" transform="scale(1 1) rotate(0) translate(4 236)">
<title>/home/sia/work/ADCP/Noise&#45;Estimation/code/imate/imate/_c_trace_estimator/c_trace_estimator.h</title>
<polygon fill="white" stroke="transparent" points="-4,4 -4,-236 443.5,-236 443.5,4 -4,4"/>
<!-- Node1 -->
<g id="node1" class="node">
<title>Node1</title>
<g id="a_node1"><a xlink:title=" ">
<polygon fill="#bfbfbf" stroke="black" points="151.5,-179.5 151.5,-231.5 302.5,-231.5 302.5,-179.5 151.5,-179.5"/>
<text text-anchor="start" x="159.5" y="-219.5" font-family="Helvetica,sans-Serif" font-size="10.00">/home/sia/work/ADCP</text>
<text text-anchor="start" x="159.5" y="-208.5" font-family="Helvetica,sans-Serif" font-size="10.00">/Noise&#45;Estimation/code</text>
<text text-anchor="start" x="159.5" y="-197.5" font-family="Helvetica,sans-Serif" font-size="10.00">/imate/imate/_c_trace</text>
<text text-anchor="middle" x="227" y="-186.5" font-family="Helvetica,sans-Serif" font-size="10.00">_estimator/c_trace_estimator.h</text>
</a>
</g>
</g>
<!-- Node2 -->
<g id="node2" class="node">
<title>Node2</title>
<g id="a_node2"><a xlink:href="functions_8h.html" target="_top" xlink:title=" ">
<polygon fill="white" stroke="black" points="0,-118 0,-137 116,-137 116,-118 0,-118"/>
<text text-anchor="middle" x="58" y="-125" font-family="Helvetica,sans-Serif" font-size="10.00">../functions/functions.h</text>
</a>
</g>
</g>
<!-- Node1&#45;&gt;Node2 -->
<g id="edge1" class="edge">
<title>Node1&#45;&gt;Node2</title>
<path fill="none" stroke="midnightblue" d="M171.19,-179.4C142.76,-166.62 109.41,-151.62 86.3,-141.23"/>
<polygon fill="midnightblue" stroke="midnightblue" points="87.63,-137.99 77.07,-137.08 84.76,-144.37 87.63,-137.99"/>
</g>
<!-- Node3 -->
<g id="node3" class="node">
<title>Node3</title>
<g id="a_node3"><a xlink:href="c__linear__operator_8h.html" target="_top" xlink:title=" ">
<polygon fill="white" stroke="black" points="134.5,-112.5 134.5,-142.5 239.5,-142.5 239.5,-112.5 134.5,-112.5"/>
<text text-anchor="start" x="142.5" y="-130.5" font-family="Helvetica,sans-Serif" font-size="10.00">../_c_linear_operator</text>
<text text-anchor="middle" x="187" y="-119.5" font-family="Helvetica,sans-Serif" font-size="10.00">/c_linear_operator.h</text>
</a>
</g>
</g>
<!-- Node1&#45;&gt;Node3 -->
<g id="edge2" class="edge">
<title>Node1&#45;&gt;Node3</title>
<path fill="none" stroke="midnightblue" d="M213.68,-179.19C209.06,-170.41 203.9,-160.6 199.35,-151.97"/>
<polygon fill="midnightblue" stroke="midnightblue" points="202.3,-150.06 194.55,-142.85 196.11,-153.32 202.3,-150.06"/>
</g>
<!-- Node4 -->
<g id="node4" class="node">
<title>Node4</title>
<g id="a_node4"><a xlink:href="types_8h.html" target="_top" xlink:title=" ">
<polygon fill="white" stroke="black" points="173,-56.5 173,-75.5 283,-75.5 283,-56.5 173,-56.5"/>
<text text-anchor="middle" x="228" y="-63.5" font-family="Helvetica,sans-Serif" font-size="10.00">../_definitions/types.h</text>
</a>
</g>
</g>
<!-- Node1&#45;&gt;Node4 -->
<g id="edge5" class="edge">
<title>Node1&#45;&gt;Node4</title>
<path fill="none" stroke="midnightblue" d="M238.67,-179.42C245.86,-160.83 252.85,-134.87 248,-112 246,-102.59 241.9,-92.76 237.93,-84.7"/>
<polygon fill="midnightblue" stroke="midnightblue" points="240.89,-82.81 233.13,-75.59 234.69,-86.07 240.89,-82.81"/>
</g>
<!-- Node6 -->
<g id="node6" class="node">
<title>Node6</title>
<g id="a_node6"><a xlink:href="random__number__generator_8h.html" target="_top" xlink:title=" ">
<polygon fill="white" stroke="black" points="296.5,-112.5 296.5,-142.5 439.5,-142.5 439.5,-112.5 296.5,-112.5"/>
<text text-anchor="start" x="304.5" y="-130.5" font-family="Helvetica,sans-Serif" font-size="10.00">../_random_generator</text>
<text text-anchor="middle" x="368" y="-119.5" font-family="Helvetica,sans-Serif" font-size="10.00">/random_number_generator.h</text>
</a>
</g>
</g>
<!-- Node1&#45;&gt;Node6 -->
<g id="edge6" class="edge">
<title>Node1&#45;&gt;Node6</title>
<path fill="none" stroke="midnightblue" d="M273.56,-179.4C292.82,-169.02 314.79,-157.18 332.69,-147.53"/>
<polygon fill="midnightblue" stroke="midnightblue" points="334.5,-150.53 341.64,-142.71 331.18,-144.37 334.5,-150.53"/>
</g>
<!-- Node3&#45;&gt;Node4 -->
<g id="edge3" class="edge">
<title>Node3&#45;&gt;Node4</title>
<path fill="none" stroke="midnightblue" d="M196.72,-112.4C202.55,-103.93 210.02,-93.1 216.19,-84.14"/>
<polygon fill="midnightblue" stroke="midnightblue" points="219.24,-85.88 222.03,-75.66 213.48,-81.91 219.24,-85.88"/>
</g>
<!-- Node5 -->
<g id="node5" class="node">
<title>Node5</title>
<g id="a_node5"><a xlink:href="definitions_8h.html" target="_top" xlink:title=" ">
<polygon fill="white" stroke="black" points="190.5,-0.5 190.5,-19.5 265.5,-19.5 265.5,-0.5 190.5,-0.5"/>
<text text-anchor="middle" x="228" y="-7.5" font-family="Helvetica,sans-Serif" font-size="10.00">./definitions.h</text>
</a>
</g>
</g>
<!-- Node4&#45;&gt;Node5 -->
<g id="edge4" class="edge">
<title>Node4&#45;&gt;Node5</title>
<path fill="none" stroke="midnightblue" d="M228,-56.08C228,-49.01 228,-38.86 228,-29.99"/>
<polygon fill="midnightblue" stroke="midnightblue" points="231.5,-29.75 228,-19.75 224.5,-29.75 231.5,-29.75"/>
</g>
<!-- Node7 -->
<g id="node7" class="node">
<title>Node7</title>
<g id="a_node7"><a xlink:title=" ">
<polygon fill="white" stroke="#bfbfbf" points="343.5,-56.5 343.5,-75.5 392.5,-75.5 392.5,-56.5 343.5,-56.5"/>
<text text-anchor="middle" x="368" y="-63.5" font-family="Helvetica,sans-Serif" font-size="10.00">stdint.h</text>
</a>
</g>
</g>
<!-- Node6&#45;&gt;Node7 -->
<g id="edge7" class="edge">
<title>Node6&#45;&gt;Node7</title>
<path fill="none" stroke="midnightblue" d="M368,-112.4C368,-104.47 368,-94.46 368,-85.86"/>
<polygon fill="midnightblue" stroke="midnightblue" points="371.5,-85.66 368,-75.66 364.5,-85.66 371.5,-85.66"/>
</g>
</g>
</svg>
