<?xml version="1.0" encoding="UTF-8" standalone="no"?>
<!DOCTYPE svg PUBLIC "-//W3C//DTD SVG 1.1//EN"
 "http://www.w3.org/Graphics/SVG/1.1/DTD/svg11.dtd">
<!-- Generated by graphviz version 2.43.0 (0)
 -->
<!-- Title: /home/sia/work/ADCP/Noise&#45;Estimation/code/imate/imate/_c_trace_estimator/c_trace_estimator.cpp Pages: 1 -->
<svg width="1004pt" height="307pt"
 viewBox="0.00 0.00 1004.00 307.00" xmlns="http://www.w3.org/2000/svg" xmlns:xlink="http://www.w3.org/1999/xlink">
<g id="graph0" class="graph" transform="scale(1 1) rotate(0) translate(4 303)">
<title>/home/sia/work/ADCP/Noise&#45;Estimation/code/imate/imate/_c_trace_estimator/c_trace_estimator.cpp</title>
<polygon fill="white" stroke="transparent" points="-4,4 -4,-303 1000,-303 1000,4 -4,4"/>
<!-- Node1 -->
<g id="node1" class="node">
<title>Node1</title>
<g id="a_node1"><a xlink:title=" ">
<polygon fill="#bfbfbf" stroke="black" points="582.5,-246.5 582.5,-298.5 743.5,-298.5 743.5,-246.5 582.5,-246.5"/>
<text text-anchor="start" x="590.5" y="-286.5" font-family="Helvetica,sans-Serif" font-size="10.00">/home/sia/work/ADCP</text>
<text text-anchor="start" x="590.5" y="-275.5" font-family="Helvetica,sans-Serif" font-size="10.00">/Noise&#45;Estimation/code</text>
<text text-anchor="start" x="590.5" y="-264.5" font-family="Helvetica,sans-Serif" font-size="10.00">/imate/imate/_c_trace</text>
<text text-anchor="middle" x="663" y="-253.5" font-family="Helvetica,sans-Serif" font-size="10.00">_estimator/c_trace_estimator.cpp</text>
</a>
</g>
</g>
<!-- Node2 -->
<g id="node2" class="node">
<title>Node2</title>
<g id="a_node2"><a xlink:href="c__trace__estimator_8h.html" target="_top" xlink:title=" ">
<polygon fill="white" stroke="black" points="150,-185 150,-204 258,-204 258,-185 150,-185"/>
<text text-anchor="middle" x="204" y="-192" font-family="Helvetica,sans-Serif" font-size="10.00">./c_trace_estimator.h</text>
</a>
</g>
</g>
<!-- Node1&#45;&gt;Node2 -->
<g id="edge1" class="edge">
<title>Node1&#45;&gt;Node2</title>
<path fill="none" stroke="midnightblue" d="M582.31,-260.71C502.08,-249.57 375.63,-230.91 267,-210 261.14,-208.87 255,-207.59 248.94,-206.26"/>
<polygon fill="midnightblue" stroke="midnightblue" points="249.42,-202.78 238.89,-204 247.88,-209.61 249.42,-202.78"/>
</g>
<!-- Node9 -->
<g id="node9" class="node">
<title>Node9</title>
<g id="a_node9"><a xlink:title=" ">
<polygon fill="white" stroke="#bfbfbf" points="710,-185 710,-204 754,-204 754,-185 710,-185"/>
<text text-anchor="middle" x="732" y="-192" font-family="Helvetica,sans-Serif" font-size="10.00">omp.h</text>
</a>
</g>
</g>
<!-- Node1&#45;&gt;Node9 -->
<g id="edge9" class="edge">
<title>Node1&#45;&gt;Node9</title>
<path fill="none" stroke="midnightblue" d="M685.98,-246.19C696.27,-234.86 708.1,-221.82 717.2,-211.81"/>
<polygon fill="midnightblue" stroke="midnightblue" points="719.96,-213.97 724.09,-204.21 714.78,-209.26 719.96,-213.97"/>
</g>
<!-- Node10 -->
<g id="node10" class="node">
<title>Node10</title>
<g id="a_node10"><a xlink:title=" ">
<polygon fill="white" stroke="#bfbfbf" points="772,-185 772,-204 816,-204 816,-185 772,-185"/>
<text text-anchor="middle" x="794" y="-192" font-family="Helvetica,sans-Serif" font-size="10.00">cmath</text>
</a>
</g>
</g>
<!-- Node1&#45;&gt;Node10 -->
<g id="edge10" class="edge">
<title>Node1&#45;&gt;Node10</title>
<path fill="none" stroke="midnightblue" d="M706.26,-246.4C727.51,-234.07 752.31,-219.69 770.11,-209.36"/>
<polygon fill="midnightblue" stroke="midnightblue" points="772.32,-212.12 779.21,-204.08 768.81,-206.07 772.32,-212.12"/>
</g>
<!-- Node11 -->
<g id="node11" class="node">
<title>Node11</title>
<g id="a_node11"><a xlink:title=" ">
<polygon fill="white" stroke="#bfbfbf" points="834.5,-185 834.5,-204 883.5,-204 883.5,-185 834.5,-185"/>
<text text-anchor="middle" x="859" y="-192" font-family="Helvetica,sans-Serif" font-size="10.00">cstddef</text>
</a>
</g>
</g>
<!-- Node1&#45;&gt;Node11 -->
<g id="edge11" class="edge">
<title>Node1&#45;&gt;Node11</title>
<path fill="none" stroke="midnightblue" d="M731.02,-246.37C760.08,-235.46 794.31,-222.37 825,-210 826.6,-209.36 828.23,-208.69 829.88,-208.01"/>
<polygon fill="midnightblue" stroke="midnightblue" points="831.41,-211.16 839.28,-204.07 828.7,-204.71 831.41,-211.16"/>
</g>
<!-- Node12 -->
<g id="node12" class="node">
<title>Node12</title>
<g id="a_node12"><a xlink:href="c__lanczos__tridiagonalization_8h.html" target="_top" xlink:title=" ">
<polygon fill="white" stroke="black" points="462.5,-185 462.5,-204 615.5,-204 615.5,-185 462.5,-185"/>
<text text-anchor="middle" x="539" y="-192" font-family="Helvetica,sans-Serif" font-size="10.00">./c_lanczos_tridiagonalization.h</text>
</a>
</g>
</g>
<!-- Node1&#45;&gt;Node12 -->
<g id="edge12" class="edge">
<title>Node1&#45;&gt;Node12</title>
<path fill="none" stroke="midnightblue" d="M622.05,-246.4C601.94,-234.07 578.46,-219.69 561.61,-209.36"/>
<polygon fill="midnightblue" stroke="midnightblue" points="563.35,-206.32 553,-204.08 559.69,-212.29 563.35,-206.32"/>
</g>
<!-- Node13 -->
<g id="node13" class="node">
<title>Node13</title>
<g id="a_node13"><a xlink:href="c__golub__kahn__bidiagonalization_8h.html" target="_top" xlink:title=" ">
<polygon fill="white" stroke="black" points="276,-185 276,-204 444,-204 444,-185 276,-185"/>
<text text-anchor="middle" x="360" y="-192" font-family="Helvetica,sans-Serif" font-size="10.00">./c_golub_kahn_bidiagonalization.h</text>
</a>
</g>
</g>
<!-- Node1&#45;&gt;Node13 -->
<g id="edge15" class="edge">
<title>Node1&#45;&gt;Node13</title>
<path fill="none" stroke="midnightblue" d="M582.2,-251.23C525.04,-236.89 450.56,-218.21 404.01,-206.54"/>
<polygon fill="midnightblue" stroke="midnightblue" points="404.78,-203.12 394.23,-204.09 403.08,-209.91 404.78,-203.12"/>
</g>
<!-- Node14 -->
<g id="node14" class="node">
<title>Node14</title>
<g id="a_node14"><a xlink:href="random__array__generator_8h.html" target="_top" xlink:title=" ">
<polygon fill="white" stroke="black" points="0,-179.5 0,-209.5 132,-209.5 132,-179.5 0,-179.5"/>
<text text-anchor="start" x="8" y="-197.5" font-family="Helvetica,sans-Serif" font-size="10.00">../_random_generator</text>
<text text-anchor="middle" x="66" y="-186.5" font-family="Helvetica,sans-Serif" font-size="10.00">/random_array_generator.h</text>
</a>
</g>
</g>
<!-- Node1&#45;&gt;Node14 -->
<g id="edge18" class="edge">
<title>Node1&#45;&gt;Node14</title>
<path fill="none" stroke="midnightblue" d="M582.27,-263.85C481.59,-253.9 304.01,-234.96 142.34,-210.14"/>
<polygon fill="midnightblue" stroke="midnightblue" points="142.62,-206.64 132.21,-208.57 141.55,-213.56 142.62,-206.64"/>
</g>
<!-- Node15 -->
<g id="node15" class="node">
<title>Node15</title>
<g id="a_node15"><a xlink:href="diagonalization_8h.html" target="_top" xlink:title=" ">
<polygon fill="white" stroke="black" points="558.5,-118 558.5,-137 653.5,-137 653.5,-118 558.5,-118"/>
<text text-anchor="middle" x="606" y="-125" font-family="Helvetica,sans-Serif" font-size="10.00">./diagonalization.h</text>
</a>
</g>
</g>
<!-- Node1&#45;&gt;Node15 -->
<g id="edge21" class="edge">
<title>Node1&#45;&gt;Node15</title>
<path fill="none" stroke="midnightblue" d="M652.94,-246.26C641.53,-217.64 623.21,-171.68 613.16,-146.47"/>
<polygon fill="midnightblue" stroke="midnightblue" points="616.36,-145.05 609.41,-137.05 609.86,-147.64 616.36,-145.05"/>
</g>
<!-- Node16 -->
<g id="node16" class="node">
<title>Node16</title>
<g id="a_node16"><a xlink:href="convergence__tools_8h.html" target="_top" xlink:title=" ">
<polygon fill="white" stroke="black" points="671.5,-118 671.5,-137 784.5,-137 784.5,-118 671.5,-118"/>
<text text-anchor="middle" x="728" y="-125" font-family="Helvetica,sans-Serif" font-size="10.00">./convergence_tools.h</text>
</a>
</g>
</g>
<!-- Node1&#45;&gt;Node16 -->
<g id="edge23" class="edge">
<title>Node1&#45;&gt;Node16</title>
<path fill="none" stroke="midnightblue" d="M672.49,-246.47C679.8,-227.69 690.42,-201.46 701,-179 706.22,-167.92 712.67,-155.81 717.96,-146.22"/>
<polygon fill="midnightblue" stroke="midnightblue" points="721.12,-147.74 722.94,-137.3 715.01,-144.32 721.12,-147.74"/>
</g>
<!-- Node17 -->
<g id="node17" class="node">
<title>Node17</title>
<g id="a_node17"><a xlink:href="timer_8h.html" target="_top" xlink:title=" ">
<polygon fill="white" stroke="black" points="902,-185 902,-204 996,-204 996,-185 902,-185"/>
<text text-anchor="middle" x="949" y="-192" font-family="Helvetica,sans-Serif" font-size="10.00">../_utilities/timer.h</text>
</a>
</g>
</g>
<!-- Node1&#45;&gt;Node17 -->
<g id="edge25" class="edge">
<title>Node1&#45;&gt;Node17</title>
<path fill="none" stroke="midnightblue" d="M743.81,-250.03C796.87,-235.93 864.13,-218.05 906.87,-206.69"/>
<polygon fill="midnightblue" stroke="midnightblue" points="907.9,-210.04 916.66,-204.09 906.1,-203.28 907.9,-210.04"/>
</g>
<!-- Node3 -->
<g id="node3" class="node">
<title>Node3</title>
<g id="a_node3"><a xlink:href="functions_8h.html" target="_top" xlink:title=" ">
<polygon fill="white" stroke="black" points="224,-118 224,-137 340,-137 340,-118 224,-118"/>
<text text-anchor="middle" x="282" y="-125" font-family="Helvetica,sans-Serif" font-size="10.00">../functions/functions.h</text>
</a>
</g>
</g>
<!-- Node2&#45;&gt;Node3 -->
<g id="edge2" class="edge">
<title>Node2&#45;&gt;Node3</title>
<path fill="none" stroke="midnightblue" d="M214.52,-184.73C227.15,-174.21 248.54,-156.38 263.86,-143.62"/>
<polygon fill="midnightblue" stroke="midnightblue" points="266.21,-146.22 271.65,-137.13 261.72,-140.84 266.21,-146.22"/>
</g>
<!-- Node4 -->
<g id="node4" class="node">
<title>Node4</title>
<g id="a_node4"><a xlink:href="c__linear__operator_8h.html" target="_top" xlink:title=" ">
<polygon fill="white" stroke="black" points="396.5,-112.5 396.5,-142.5 501.5,-142.5 501.5,-112.5 396.5,-112.5"/>
<text text-anchor="start" x="404.5" y="-130.5" font-family="Helvetica,sans-Serif" font-size="10.00">../_c_linear_operator</text>
<text text-anchor="middle" x="449" y="-119.5" font-family="Helvetica,sans-Serif" font-size="10.00">/c_linear_operator.h</text>
</a>
</g>
</g>
<!-- Node2&#45;&gt;Node4 -->
<g id="edge3" class="edge">
<title>Node2&#45;&gt;Node4</title>
<path fill="none" stroke="midnightblue" d="M236.28,-184.94C274.37,-174.83 338.58,-157.8 386.51,-145.08"/>
<polygon fill="midnightblue" stroke="midnightblue" points="387.71,-148.38 396.47,-142.44 385.91,-141.62 387.71,-148.38"/>
</g>
<!-- Node5 -->
<g id="node5" class="node">
<title>Node5</title>
<g id="a_node5"><a xlink:href="types_8h.html" target="_top" xlink:title=" ">
<polygon fill="white" stroke="black" points="394,-56.5 394,-75.5 504,-75.5 504,-56.5 394,-56.5"/>
<text text-anchor="middle" x="449" y="-63.5" font-family="Helvetica,sans-Serif" font-size="10.00">../_definitions/types.h</text>
</a>
</g>
</g>
<!-- Node2&#45;&gt;Node5 -->
<g id="edge6" class="edge">
<title>Node2&#45;&gt;Node5</title>
<path fill="none" stroke="midnightblue" d="M202.23,-184.76C199.43,-168.18 196.07,-132.02 215,-112 237.6,-88.1 322.44,-76.53 383.46,-71.19"/>
<polygon fill="midnightblue" stroke="midnightblue" points="384.12,-74.65 393.8,-70.32 383.54,-67.67 384.12,-74.65"/>
</g>
<!-- Node7 -->
<g id="node7" class="node">
<title>Node7</title>
<g id="a_node7"><a xlink:href="random__number__generator_8h.html" target="_top" xlink:title=" ">
<polygon fill="white" stroke="black" points="24.5,-112.5 24.5,-142.5 167.5,-142.5 167.5,-112.5 24.5,-112.5"/>
<text text-anchor="start" x="32.5" y="-130.5" font-family="Helvetica,sans-Serif" font-size="10.00">../_random_generator</text>
<text text-anchor="middle" x="96" y="-119.5" font-family="Helvetica,sans-Serif" font-size="10.00">/random_number_generator.h</text>
</a>
</g>
</g>
<!-- Node2&#45;&gt;Node7 -->
<g id="edge7" class="edge">
<title>Node2&#45;&gt;Node7</title>
<path fill="none" stroke="midnightblue" d="M189.43,-184.73C173.79,-175.32 148.42,-160.05 128.07,-147.8"/>
<polygon fill="midnightblue" stroke="midnightblue" points="129.78,-144.75 119.41,-142.59 126.17,-150.74 129.78,-144.75"/>
</g>
<!-- Node4&#45;&gt;Node5 -->
<g id="edge4" class="edge">
<title>Node4&#45;&gt;Node5</title>
<path fill="none" stroke="midnightblue" d="M449,-112.4C449,-104.47 449,-94.46 449,-85.86"/>
<polygon fill="midnightblue" stroke="midnightblue" points="452.5,-85.66 449,-75.66 445.5,-85.66 452.5,-85.66"/>
</g>
<!-- Node6 -->
<g id="node6" class="node">
<title>Node6</title>
<g id="a_node6"><a xlink:href="definitions_8h.html" target="_top" xlink:title=" ">
<polygon fill="white" stroke="black" points="411.5,-0.5 411.5,-19.5 486.5,-19.5 486.5,-0.5 411.5,-0.5"/>
<text text-anchor="middle" x="449" y="-7.5" font-family="Helvetica,sans-Serif" font-size="10.00">./definitions.h</text>
</a>
</g>
</g>
<!-- Node5&#45;&gt;Node6 -->
<g id="edge5" class="edge">
<title>Node5&#45;&gt;Node6</title>
<path fill="none" stroke="midnightblue" d="M449,-56.08C449,-49.01 449,-38.86 449,-29.99"/>
<polygon fill="midnightblue" stroke="midnightblue" points="452.5,-29.75 449,-19.75 445.5,-29.75 452.5,-29.75"/>
</g>
<!-- Node8 -->
<g id="node8" class="node">
<title>Node8</title>
<g id="a_node8"><a xlink:title=" ">
<polygon fill="white" stroke="#bfbfbf" points="71.5,-56.5 71.5,-75.5 120.5,-75.5 120.5,-56.5 71.5,-56.5"/>
<text text-anchor="middle" x="96" y="-63.5" font-family="Helvetica,sans-Serif" font-size="10.00">stdint.h</text>
</a>
</g>
</g>
<!-- Node7&#45;&gt;Node8 -->
<g id="edge8" class="edge">
<title>Node7&#45;&gt;Node8</title>
<path fill="none" stroke="midnightblue" d="M96,-112.4C96,-104.47 96,-94.46 96,-85.86"/>
<polygon fill="midnightblue" stroke="midnightblue" points="99.5,-85.66 96,-75.66 92.5,-85.66 99.5,-85.66"/>
</g>
<!-- Node12&#45;&gt;Node4 -->
<g id="edge13" class="edge">
<title>Node12&#45;&gt;Node4</title>
<path fill="none" stroke="midnightblue" d="M526.86,-184.73C514.11,-175.53 493.63,-160.73 476.87,-148.63"/>
<polygon fill="midnightblue" stroke="midnightblue" points="478.66,-145.61 468.51,-142.59 474.57,-151.28 478.66,-145.61"/>
</g>
<!-- Node12&#45;&gt;Node5 -->
<g id="edge14" class="edge">
<title>Node12&#45;&gt;Node5</title>
<path fill="none" stroke="midnightblue" d="M537.79,-184.85C535.22,-169.03 528,-134.97 511,-112 501.45,-99.09 487.12,-88.35 474.65,-80.61"/>
<polygon fill="midnightblue" stroke="midnightblue" points="476.38,-77.56 465.98,-75.51 472.83,-83.6 476.38,-77.56"/>
</g>
<!-- Node13&#45;&gt;Node4 -->
<g id="edge16" class="edge">
<title>Node13&#45;&gt;Node4</title>
<path fill="none" stroke="midnightblue" d="M372,-184.73C384.61,-175.53 404.87,-160.73 421.44,-148.63"/>
<polygon fill="midnightblue" stroke="midnightblue" points="423.7,-151.31 429.71,-142.59 419.57,-145.66 423.7,-151.31"/>
</g>
<!-- Node13&#45;&gt;Node5 -->
<g id="edge17" class="edge">
<title>Node13&#45;&gt;Node5</title>
<path fill="none" stroke="midnightblue" d="M361.23,-184.86C363.83,-169.07 371.09,-135.04 388,-112 397.31,-99.32 411.22,-88.67 423.41,-80.92"/>
<polygon fill="midnightblue" stroke="midnightblue" points="425.53,-83.73 432.29,-75.57 421.92,-77.73 425.53,-83.73"/>
</g>
<!-- Node14&#45;&gt;Node5 -->
<g id="edge19" class="edge">
<title>Node14&#45;&gt;Node5</title>
<path fill="none" stroke="midnightblue" d="M46.17,-179.22C24.72,-162.1 -4,-133.07 15,-112 39.19,-85.17 268.27,-73.34 383.49,-69.05"/>
<polygon fill="midnightblue" stroke="midnightblue" points="383.74,-72.55 393.6,-68.68 383.48,-65.55 383.74,-72.55"/>
</g>
<!-- Node14&#45;&gt;Node7 -->
<g id="edge20" class="edge">
<title>Node14&#45;&gt;Node7</title>
<path fill="none" stroke="midnightblue" d="M72.51,-179.4C76.24,-171.3 81.03,-160.94 85.3,-151.69"/>
<polygon fill="midnightblue" stroke="midnightblue" points="88.49,-153.12 89.5,-142.58 82.13,-150.19 88.49,-153.12"/>
</g>
<!-- Node15&#45;&gt;Node5 -->
<g id="edge22" class="edge">
<title>Node15&#45;&gt;Node5</title>
<path fill="none" stroke="midnightblue" d="M583.51,-117.98C556.69,-107.81 511.68,-90.76 481.19,-79.2"/>
<polygon fill="midnightblue" stroke="midnightblue" points="482.04,-75.78 471.45,-75.51 479.56,-82.33 482.04,-75.78"/>
</g>
<!-- Node16&#45;&gt;Node5 -->
<g id="edge24" class="edge">
<title>Node16&#45;&gt;Node5</title>
<path fill="none" stroke="midnightblue" d="M690.21,-117.99C681.29,-116 671.81,-113.91 663,-112 607.52,-99.98 543.85,-86.65 500.48,-77.64"/>
<polygon fill="midnightblue" stroke="midnightblue" points="500.96,-74.17 490.46,-75.56 499.54,-81.02 500.96,-74.17"/>
</g>
</g>
</svg>
