<?xml version="1.0" encoding="UTF-8" standalone="no"?>
<!DOCTYPE svg PUBLIC "-//W3C//DTD SVG 1.1//EN"
 "http://www.w3.org/Graphics/SVG/1.1/DTD/svg11.dtd">
<!-- Generated by graphviz version 2.43.0 (0)
 -->
<!-- Title: /home/sia/work/ADCP/Noise&#45;Estimation/code/imate/imate/_c_basic_algebra/c_vector_operations.cpp Pages: 1 -->
<svg width="237pt" height="229pt"
 viewBox="0.00 0.00 237.00 229.00" xmlns="http://www.w3.org/2000/svg" xmlns:xlink="http://www.w3.org/1999/xlink">
<g id="graph0" class="graph" transform="scale(1 1) rotate(0) translate(4 225)">
<title>/home/sia/work/ADCP/Noise&#45;Estimation/code/imate/imate/_c_basic_algebra/c_vector_operations.cpp</title>
<polygon fill="white" stroke="transparent" points="-4,4 -4,-225 233,-225 233,4 -4,4"/>
<!-- Node1 -->
<g id="node1" class="node">
<title>Node1</title>
<g id="a_node1"><a xlink:title=" ">
<polygon fill="#bfbfbf" stroke="black" points="66,-168.5 66,-220.5 229,-220.5 229,-168.5 66,-168.5"/>
<text text-anchor="start" x="74" y="-208.5" font-family="Helvetica,sans-Serif" font-size="10.00">/home/sia/work/ADCP</text>
<text text-anchor="start" x="74" y="-197.5" font-family="Helvetica,sans-Serif" font-size="10.00">/Noise&#45;Estimation/code</text>
<text text-anchor="start" x="74" y="-186.5" font-family="Helvetica,sans-Serif" font-size="10.00">/imate/imate/_c_basic</text>
<text text-anchor="middle" x="147.5" y="-175.5" font-family="Helvetica,sans-Serif" font-size="10.00">_algebra/c_vector_operations.cpp</text>
</a>
</g>
</g>
<!-- Node2 -->
<g id="node2" class="node">
<title>Node2</title>
<g id="a_node2"><a xlink:href="c__vector__operations_8h.html" target="_top" xlink:title=" ">
<polygon fill="white" stroke="black" points="0,-112.5 0,-131.5 119,-131.5 119,-112.5 0,-112.5"/>
<text text-anchor="middle" x="59.5" y="-119.5" font-family="Helvetica,sans-Serif" font-size="10.00">./c_vector_operations.h</text>
</a>
</g>
</g>
<!-- Node1&#45;&gt;Node2 -->
<g id="edge1" class="edge">
<title>Node1&#45;&gt;Node2</title>
<path fill="none" stroke="midnightblue" d="M116.23,-168.45C103.6,-158.33 89.44,-146.98 78.42,-138.16"/>
<polygon fill="midnightblue" stroke="midnightblue" points="80.35,-135.22 70.35,-131.7 75.97,-140.68 80.35,-135.22"/>
</g>
<!-- Node4 -->
<g id="node4" class="node">
<title>Node4</title>
<g id="a_node4"><a xlink:href="definitions_8h.html" target="_top" xlink:title=" ">
<polygon fill="white" stroke="black" points="66,-0.5 66,-19.5 141,-19.5 141,-0.5 66,-0.5"/>
<text text-anchor="middle" x="103.5" y="-7.5" font-family="Helvetica,sans-Serif" font-size="10.00">./definitions.h</text>
</a>
</g>
</g>
<!-- Node1&#45;&gt;Node4 -->
<g id="edge5" class="edge">
<title>Node1&#45;&gt;Node4</title>
<path fill="none" stroke="midnightblue" d="M146.08,-168.36C143.95,-140.36 138.77,-94.04 126.5,-56 123.44,-46.5 118.55,-36.56 114.07,-28.44"/>
<polygon fill="midnightblue" stroke="midnightblue" points="117,-26.51 108.96,-19.6 110.94,-30.01 117,-26.51"/>
</g>
<!-- Node5 -->
<g id="node5" class="node">
<title>Node5</title>
<g id="a_node5"><a xlink:title=" ">
<polygon fill="white" stroke="#bfbfbf" points="175.5,-112.5 175.5,-131.5 219.5,-131.5 219.5,-112.5 175.5,-112.5"/>
<text text-anchor="middle" x="197.5" y="-119.5" font-family="Helvetica,sans-Serif" font-size="10.00">cmath</text>
</a>
</g>
</g>
<!-- Node1&#45;&gt;Node5 -->
<g id="edge4" class="edge">
<title>Node1&#45;&gt;Node5</title>
<path fill="none" stroke="midnightblue" d="M165.27,-168.45C171.95,-159.03 179.38,-148.55 185.42,-140.03"/>
<polygon fill="midnightblue" stroke="midnightblue" points="188.4,-141.88 191.33,-131.7 182.69,-137.83 188.4,-141.88"/>
</g>
<!-- Node3 -->
<g id="node3" class="node">
<title>Node3</title>
<g id="a_node3"><a xlink:href="types_8h.html" target="_top" xlink:title=" ">
<polygon fill="white" stroke="black" points="7.5,-56.5 7.5,-75.5 117.5,-75.5 117.5,-56.5 7.5,-56.5"/>
<text text-anchor="middle" x="62.5" y="-63.5" font-family="Helvetica,sans-Serif" font-size="10.00">../_definitions/types.h</text>
</a>
</g>
</g>
<!-- Node2&#45;&gt;Node3 -->
<g id="edge2" class="edge">
<title>Node2&#45;&gt;Node3</title>
<path fill="none" stroke="midnightblue" d="M60,-112.08C60.39,-105.01 60.95,-94.86 61.45,-85.99"/>
<polygon fill="midnightblue" stroke="midnightblue" points="64.95,-85.93 62.01,-75.75 57.96,-85.54 64.95,-85.93"/>
</g>
<!-- Node3&#45;&gt;Node4 -->
<g id="edge3" class="edge">
<title>Node3&#45;&gt;Node4</title>
<path fill="none" stroke="midnightblue" d="M69.27,-56.08C75.06,-48.46 83.56,-37.26 90.64,-27.94"/>
<polygon fill="midnightblue" stroke="midnightblue" points="93.6,-29.83 96.86,-19.75 88.02,-25.6 93.6,-29.83"/>
</g>
</g>
</svg>
