<?xml version="1.0" encoding="UTF-8" standalone="no"?>
<!DOCTYPE svg PUBLIC "-//W3C//DTD SVG 1.1//EN"
 "http://www.w3.org/Graphics/SVG/1.1/DTD/svg11.dtd">
<!-- Generated by graphviz version 2.43.0 (0)
 -->
<!-- Title: /home/sia/work/ADCP/Noise&#45;Estimation/code/imate/imate/_c_basic_algebra/cblas_interface.cpp Pages: 1 -->
<svg width="149pt" height="173pt"
 viewBox="0.00 0.00 149.00 173.00" xmlns="http://www.w3.org/2000/svg" xmlns:xlink="http://www.w3.org/1999/xlink">
<g id="graph0" class="graph" transform="scale(1 1) rotate(0) translate(4 169)">
<title>/home/sia/work/ADCP/Noise&#45;Estimation/code/imate/imate/_c_basic_algebra/cblas_interface.cpp</title>
<polygon fill="white" stroke="transparent" points="-4,4 -4,-169 145,-169 145,4 -4,4"/>
<!-- Node1 -->
<g id="node1" class="node">
<title>Node1</title>
<g id="a_node1"><a xlink:title=" ">
<polygon fill="#bfbfbf" stroke="black" points="0,-112.5 0,-164.5 141,-164.5 141,-112.5 0,-112.5"/>
<text text-anchor="start" x="8" y="-152.5" font-family="Helvetica,sans-Serif" font-size="10.00">/home/sia/work/ADCP</text>
<text text-anchor="start" x="8" y="-141.5" font-family="Helvetica,sans-Serif" font-size="10.00">/Noise&#45;Estimation/code</text>
<text text-anchor="start" x="8" y="-130.5" font-family="Helvetica,sans-Serif" font-size="10.00">/imate/imate/_c_basic</text>
<text text-anchor="middle" x="70.5" y="-119.5" font-family="Helvetica,sans-Serif" font-size="10.00">_algebra/cblas_interface.cpp</text>
</a>
</g>
</g>
<!-- Node2 -->
<g id="node2" class="node">
<title>Node2</title>
<g id="a_node2"><a xlink:href="cblas__interface_8h.html" target="_top" xlink:title=" ">
<polygon fill="white" stroke="black" points="22,-56.5 22,-75.5 119,-75.5 119,-56.5 22,-56.5"/>
<text text-anchor="middle" x="70.5" y="-63.5" font-family="Helvetica,sans-Serif" font-size="10.00">./cblas_interface.h</text>
</a>
</g>
</g>
<!-- Node1&#45;&gt;Node2 -->
<g id="edge1" class="edge">
<title>Node1&#45;&gt;Node2</title>
<path fill="none" stroke="midnightblue" d="M70.5,-112.45C70.5,-103.73 70.5,-94.1 70.5,-85.96"/>
<polygon fill="midnightblue" stroke="midnightblue" points="74,-85.7 70.5,-75.7 67,-85.7 74,-85.7"/>
</g>
<!-- Node3 -->
<g id="node3" class="node">
<title>Node3</title>
<g id="a_node3"><a xlink:href="definitions_8h.html" target="_top" xlink:title=" ">
<polygon fill="white" stroke="black" points="5,-0.5 5,-19.5 136,-19.5 136,-0.5 5,-0.5"/>
<text text-anchor="middle" x="70.5" y="-7.5" font-family="Helvetica,sans-Serif" font-size="10.00">../_definitions/definitions.h</text>
</a>
</g>
</g>
<!-- Node2&#45;&gt;Node3 -->
<g id="edge2" class="edge">
<title>Node2&#45;&gt;Node3</title>
<path fill="none" stroke="midnightblue" d="M70.5,-56.08C70.5,-49.01 70.5,-38.86 70.5,-29.99"/>
<polygon fill="midnightblue" stroke="midnightblue" points="74,-29.75 70.5,-19.75 67,-29.75 74,-29.75"/>
</g>
</g>
</svg>
