<?xml version="1.0" encoding="UTF-8" standalone="no"?>
<!DOCTYPE svg PUBLIC "-//W3C//DTD SVG 1.1//EN"
 "http://www.w3.org/Graphics/SVG/1.1/DTD/svg11.dtd">
<!-- Generated by graphviz version 2.43.0 (0)
 -->
<!-- Title: RandomArrayGenerator::generate_random_array Pages: 1 -->
<svg width="423pt" height="100pt"
 viewBox="0.00 0.00 423.00 99.50" xmlns="http://www.w3.org/2000/svg" xmlns:xlink="http://www.w3.org/1999/xlink">
<g id="graph0" class="graph" transform="scale(1 1) rotate(0) translate(4 95.5)">
<title>RandomArrayGenerator::generate_random_array</title>
<polygon fill="white" stroke="transparent" points="-4,4 -4,-95.5 419,-95.5 419,4 -4,4"/>
<!-- Node1 -->
<g id="node1" class="node">
<title>Node1</title>
<g id="a_node1"><a xlink:title="Generates a pseudo&#45;random array with Rademacher distribution where elements are either +1 or &#45;1.">
<polygon fill="#bfbfbf" stroke="black" points="290,-27.5 290,-57.5 415,-57.5 415,-27.5 290,-27.5"/>
<text text-anchor="start" x="298" y="-45.5" font-family="Helvetica,sans-Serif" font-size="10.00">RandomArrayGenerator</text>
<text text-anchor="middle" x="352.5" y="-34.5" font-family="Helvetica,sans-Serif" font-size="10.00">::generate_random_array</text>
</a>
</g>
</g>
<!-- Node2 -->
<g id="node2" class="node">
<title>Node2</title>
<g id="a_node2"><a xlink:href="classcTraceEstimator.html#a02afa505a915c58380b99a62e4d56b30" target="_top" xlink:title="For a given random input vector, computes one Monte&#45;Carlo sample to estimate trace using Lanczos quad...">
<polygon fill="white" stroke="black" points="142,-50 142,-91 248,-91 248,-50 142,-50"/>
<text text-anchor="start" x="150" y="-79" font-family="Helvetica,sans-Serif" font-size="10.00">cTraceEstimator::_c</text>
<text text-anchor="start" x="150" y="-68" font-family="Helvetica,sans-Serif" font-size="10.00">_stochastic_lanczos</text>
<text text-anchor="middle" x="195" y="-57" font-family="Helvetica,sans-Serif" font-size="10.00">_quadrature</text>
</a>
</g>
</g>
<!-- Node1&#45;&gt;Node2 -->
<g id="edge1" class="edge">
<title>Node1&#45;&gt;Node2</title>
<path fill="none" stroke="midnightblue" d="M279.53,-55.46C268.96,-57.36 258.25,-59.29 248.18,-61.1"/>
<polygon fill="midnightblue" stroke="midnightblue" points="280.37,-58.86 289.6,-53.65 279.13,-51.97 280.37,-58.86"/>
</g>
<!-- Node4 -->
<g id="node4" class="node">
<title>Node4</title>
<g id="a_node4"><a xlink:href="classcOrthogonalization.html#a7b017e5520083a1cf3ac2ed27bb811d8" target="_top" xlink:title="Orthogonalizes set of vectors mutually using modified Gram&#45;Schmidt process.">
<polygon fill="white" stroke="black" points="136,-0.5 136,-30.5 254,-30.5 254,-0.5 136,-0.5"/>
<text text-anchor="start" x="144" y="-18.5" font-family="Helvetica,sans-Serif" font-size="10.00">cOrthogonalization</text>
<text text-anchor="middle" x="195" y="-7.5" font-family="Helvetica,sans-Serif" font-size="10.00">::orthogonalize_vectors</text>
</a>
</g>
</g>
<!-- Node1&#45;&gt;Node4 -->
<g id="edge3" class="edge">
<title>Node1&#45;&gt;Node4</title>
<path fill="none" stroke="midnightblue" d="M279.64,-30.02C271.1,-28.54 262.47,-27.04 254.15,-25.6"/>
<polygon fill="midnightblue" stroke="midnightblue" points="279.14,-33.49 289.6,-31.75 280.34,-26.59 279.14,-33.49"/>
</g>
<!-- Node3 -->
<g id="node3" class="node">
<title>Node3</title>
<g id="a_node3"><a xlink:href="classcTraceEstimator.html#a29144b4d62c71f0889002754384f57f4" target="_top" xlink:title="Stochastic Lanczos quadrature method to estimate trace of a function of a linear operator....">
<polygon fill="white" stroke="black" points="0,-55.5 0,-85.5 100,-85.5 100,-55.5 0,-55.5"/>
<text text-anchor="start" x="8" y="-73.5" font-family="Helvetica,sans-Serif" font-size="10.00">cTraceEstimator::c</text>
<text text-anchor="middle" x="50" y="-62.5" font-family="Helvetica,sans-Serif" font-size="10.00">_trace_estimator</text>
</a>
</g>
</g>
<!-- Node2&#45;&gt;Node3 -->
<g id="edge2" class="edge">
<title>Node2&#45;&gt;Node3</title>
<path fill="none" stroke="midnightblue" d="M131.96,-70.5C121.39,-70.5 110.55,-70.5 100.37,-70.5"/>
<polygon fill="midnightblue" stroke="midnightblue" points="131.97,-74 141.97,-70.5 131.97,-67 131.97,-74"/>
</g>
</g>
</svg>
