<?xml version="1.0" encoding="UTF-8" standalone="no"?>
<!DOCTYPE svg PUBLIC "-//W3C//DTD SVG 1.1//EN"
 "http://www.w3.org/Graphics/SVG/1.1/DTD/svg11.dtd">
<!-- Generated by graphviz version 2.43.0 (0)
 -->
<!-- Title: cAffineMatrixFunction&lt; DataType &gt; Pages: 1 -->
<svg width="478pt" height="137pt"
 viewBox="0.00 0.00 478.00 137.00" xmlns="http://www.w3.org/2000/svg" xmlns:xlink="http://www.w3.org/1999/xlink">
<g id="graph0" class="graph" transform="scale(1 1) rotate(0) translate(4 133)">
<title>cAffineMatrixFunction&lt; DataType &gt;</title>
<polygon fill="white" stroke="transparent" points="-4,4 -4,-133 474,-133 474,4 -4,4"/>
<!-- Node1 -->
<g id="node1" class="node">
<title>Node1</title>
<g id="a_node1"><a xlink:title="Base class for affine matrix functions of one parameter.">
<polygon fill="#bfbfbf" stroke="black" points="182,-49.5 182,-79.5 294,-79.5 294,-49.5 182,-49.5"/>
<text text-anchor="start" x="190" y="-67.5" font-family="Helvetica,sans-Serif" font-size="10.00">cAffineMatrixFunction</text>
<text text-anchor="middle" x="238" y="-56.5" font-family="Helvetica,sans-Serif" font-size="10.00">&lt; DataType &gt;</text>
</a>
</g>
</g>
<!-- Node3 -->
<g id="node3" class="node">
<title>Node3</title>
<g id="a_node3"><a xlink:href="classcCSCAffineMatrixFunction.html" target="_top" xlink:title=" ">
<polygon fill="white" stroke="black" points="333,-98.5 333,-128.5 467,-128.5 467,-98.5 333,-98.5"/>
<text text-anchor="start" x="341" y="-116.5" font-family="Helvetica,sans-Serif" font-size="10.00">cCSCAffineMatrixFunction</text>
<text text-anchor="middle" x="400" y="-105.5" font-family="Helvetica,sans-Serif" font-size="10.00">&lt; DataType &gt;</text>
</a>
</g>
</g>
<!-- Node1&#45;&gt;Node3 -->
<g id="edge2" class="edge">
<title>Node1&#45;&gt;Node3</title>
<path fill="none" stroke="midnightblue" d="M298.14,-82.61C315.15,-87.82 333.52,-93.45 349.85,-98.45"/>
<polygon fill="midnightblue" stroke="midnightblue" points="298.9,-79.18 288.31,-79.6 296.85,-85.88 298.9,-79.18"/>
</g>
<!-- Node4 -->
<g id="node4" class="node">
<title>Node4</title>
<g id="a_node4"><a xlink:href="classcCSRAffineMatrixFunction.html" target="_top" xlink:title=" ">
<polygon fill="white" stroke="black" points="333,-49.5 333,-79.5 467,-79.5 467,-49.5 333,-49.5"/>
<text text-anchor="start" x="341" y="-67.5" font-family="Helvetica,sans-Serif" font-size="10.00">cCSRAffineMatrixFunction</text>
<text text-anchor="middle" x="400" y="-56.5" font-family="Helvetica,sans-Serif" font-size="10.00">&lt; DataType &gt;</text>
</a>
</g>
</g>
<!-- Node1&#45;&gt;Node4 -->
<g id="edge3" class="edge">
<title>Node1&#45;&gt;Node4</title>
<path fill="none" stroke="midnightblue" d="M304.17,-64.5C313.61,-64.5 323.33,-64.5 332.79,-64.5"/>
<polygon fill="midnightblue" stroke="midnightblue" points="304.06,-61 294.06,-64.5 304.06,-68 304.06,-61"/>
</g>
<!-- Node5 -->
<g id="node5" class="node">
<title>Node5</title>
<g id="a_node5"><a xlink:href="classcDenseAffineMatrixFunction.html" target="_top" xlink:title=" ">
<polygon fill="white" stroke="black" points="330,-0.5 330,-30.5 470,-30.5 470,-0.5 330,-0.5"/>
<text text-anchor="start" x="338" y="-18.5" font-family="Helvetica,sans-Serif" font-size="10.00">cDenseAffineMatrixFunction</text>
<text text-anchor="middle" x="400" y="-7.5" font-family="Helvetica,sans-Serif" font-size="10.00">&lt; DataType &gt;</text>
</a>
</g>
</g>
<!-- Node1&#45;&gt;Node5 -->
<g id="edge4" class="edge">
<title>Node1&#45;&gt;Node5</title>
<path fill="none" stroke="midnightblue" d="M298.14,-46.39C315.15,-41.18 333.52,-35.55 349.85,-30.55"/>
<polygon fill="midnightblue" stroke="midnightblue" points="296.85,-43.12 288.31,-49.4 298.9,-49.82 296.85,-43.12"/>
</g>
<!-- Node2 -->
<g id="node2" class="node">
<title>Node2</title>
<g id="a_node2"><a xlink:href="classcLinearOperator.html" target="_top" xlink:title="Base class for linear operators. This class serves as interface for all derived classes.">
<polygon fill="white" stroke="black" points="0,-55 0,-74 146,-74 146,-55 0,-55"/>
<text text-anchor="middle" x="73" y="-62" font-family="Helvetica,sans-Serif" font-size="10.00">cLinearOperator&lt; DataType &gt;</text>
</a>
</g>
</g>
<!-- Node2&#45;&gt;Node1 -->
<g id="edge1" class="edge">
<title>Node2&#45;&gt;Node1</title>
<path fill="none" stroke="midnightblue" d="M156.53,-64.5C165.13,-64.5 173.72,-64.5 181.9,-64.5"/>
<polygon fill="midnightblue" stroke="midnightblue" points="156.44,-61 146.44,-64.5 156.44,-68 156.44,-61"/>
</g>
</g>
</svg>
