<?xml version="1.0" encoding="UTF-8" standalone="no"?>
<!DOCTYPE svg PUBLIC "-//W3C//DTD SVG 1.1//EN"
 "http://www.w3.org/Graphics/SVG/1.1/DTD/svg11.dtd">
<!-- Generated by graphviz version 2.43.0 (0)
 -->
<!-- Title: cublasSymbols::get_lib_name Pages: 1 -->
<svg width="242pt" height="522pt"
 viewBox="0.00 0.00 242.00 522.00" xmlns="http://www.w3.org/2000/svg" xmlns:xlink="http://www.w3.org/1999/xlink">
<g id="graph0" class="graph" transform="scale(1 1) rotate(0) translate(4 518)">
<title>cublasSymbols::get_lib_name</title>
<polygon fill="white" stroke="transparent" points="-4,4 -4,-518 238,-518 238,4 -4,4"/>
<!-- Node1 -->
<g id="node1" class="node">
<title>Node1</title>
<g id="a_node1"><a xlink:title="Returns the name of cublas shared library.">
<polygon fill="#bfbfbf" stroke="black" points="131,-242 131,-272 234,-272 234,-242 131,-242"/>
<text text-anchor="start" x="139" y="-260" font-family="Helvetica,sans-Serif" font-size="10.00">cublasSymbols::get</text>
<text text-anchor="middle" x="182.5" y="-249" font-family="Helvetica,sans-Serif" font-size="10.00">_lib_name</text>
</a>
</g>
</g>
<!-- Node2 -->
<g id="node2" class="node">
<title>Node2</title>
<g id="a_node2"><a xlink:href="cublas__symbols_8cpp.html#ac5a2643e5f24c6c27396d68bf317dda8" target="_top" xlink:title="Definition of CUDA&#39;s cublasCreate function using dynamically loaded cublas library.">
<polygon fill="white" stroke="black" points="2.5,-494.5 2.5,-513.5 92.5,-513.5 92.5,-494.5 2.5,-494.5"/>
<text text-anchor="middle" x="47.5" y="-501.5" font-family="Helvetica,sans-Serif" font-size="10.00">cublasCreate_v2</text>
</a>
</g>
</g>
<!-- Node1&#45;&gt;Node2 -->
<g id="edge1" class="edge">
<title>Node1&#45;&gt;Node2</title>
<path fill="none" stroke="midnightblue" d="M178.54,-282.31C171.85,-328.5 151.5,-427.05 95,-485 91.23,-488.87 86.55,-491.98 81.64,-494.47"/>
<polygon fill="midnightblue" stroke="midnightblue" points="182.03,-282.63 179.89,-272.26 175.09,-281.7 182.03,-282.63"/>
</g>
<!-- Node3 -->
<g id="node3" class="node">
<title>Node3</title>
<g id="a_node3"><a xlink:href="cublas__symbols_8cpp.html#a6c84951f2c95eb556e60cc0f0be709a1" target="_top" xlink:title="Definition of CUDA&#39;s cublasDaxpy function using dynamically loaded cublas library.">
<polygon fill="white" stroke="black" points="10.5,-456.5 10.5,-475.5 84.5,-475.5 84.5,-456.5 10.5,-456.5"/>
<text text-anchor="middle" x="47.5" y="-463.5" font-family="Helvetica,sans-Serif" font-size="10.00">cublasDaxpy</text>
</a>
</g>
</g>
<!-- Node1&#45;&gt;Node3 -->
<g id="edge2" class="edge">
<title>Node1&#45;&gt;Node3</title>
<path fill="none" stroke="midnightblue" d="M176.39,-281.99C166.99,-321.97 143.34,-400.52 95,-447 90.98,-450.87 86.06,-453.99 80.94,-456.5"/>
<polygon fill="midnightblue" stroke="midnightblue" points="179.85,-282.55 178.62,-272.02 173.02,-281.02 179.85,-282.55"/>
</g>
<!-- Node4 -->
<g id="node4" class="node">
<title>Node4</title>
<g id="a_node4"><a xlink:href="cublas__symbols_8cpp.html#a0f1595e513448a76b5f2c5dcc8b35b36" target="_top" xlink:title="Definition of CUDA&#39;s cublasDcopy function using dynamically loaded cublas library.">
<polygon fill="white" stroke="black" points="10.5,-418.5 10.5,-437.5 84.5,-437.5 84.5,-418.5 10.5,-418.5"/>
<text text-anchor="middle" x="47.5" y="-425.5" font-family="Helvetica,sans-Serif" font-size="10.00">cublasDcopy</text>
</a>
</g>
</g>
<!-- Node1&#45;&gt;Node4 -->
<g id="edge3" class="edge">
<title>Node1&#45;&gt;Node4</title>
<path fill="none" stroke="midnightblue" d="M173.19,-281.95C160.97,-315.15 135.14,-373.75 95,-409 90.68,-412.8 85.49,-415.9 80.17,-418.41"/>
<polygon fill="midnightblue" stroke="midnightblue" points="176.63,-282.72 176.68,-272.12 170.04,-280.37 176.63,-282.72"/>
</g>
<!-- Node5 -->
<g id="node5" class="node">
<title>Node5</title>
<g id="a_node5"><a xlink:href="cublas__symbols_8cpp.html#ab702f83f2aab0befc7aa8eb65313a960" target="_top" xlink:title="Definition of CUDA&#39;s cublasDdot function using dynamically loaded cublas library.">
<polygon fill="white" stroke="black" points="14.5,-380.5 14.5,-399.5 80.5,-399.5 80.5,-380.5 14.5,-380.5"/>
<text text-anchor="middle" x="47.5" y="-387.5" font-family="Helvetica,sans-Serif" font-size="10.00">cublasDdot</text>
</a>
</g>
</g>
<!-- Node1&#45;&gt;Node5 -->
<g id="edge4" class="edge">
<title>Node1&#45;&gt;Node5</title>
<path fill="none" stroke="midnightblue" d="M168.31,-281.37C153.46,-306.79 127.15,-346.31 95,-371 90.16,-374.72 84.49,-377.82 78.8,-380.37"/>
<polygon fill="midnightblue" stroke="midnightblue" points="171.52,-282.8 173.43,-272.37 165.44,-279.33 171.52,-282.8"/>
</g>
<!-- Node6 -->
<g id="node6" class="node">
<title>Node6</title>
<g id="a_node6"><a xlink:href="cublas__symbols_8cpp.html#a91a76328eb72b5961082394601292222" target="_top" xlink:title="Definition of CUDA&#39;s cublasDestroy function using dynamically loaded cublas library.">
<polygon fill="white" stroke="black" points="0,-342.5 0,-361.5 95,-361.5 95,-342.5 0,-342.5"/>
<text text-anchor="middle" x="47.5" y="-349.5" font-family="Helvetica,sans-Serif" font-size="10.00">cublasDestroy_v2</text>
</a>
</g>
</g>
<!-- Node1&#45;&gt;Node6 -->
<g id="edge5" class="edge">
<title>Node1&#45;&gt;Node6</title>
<path fill="none" stroke="midnightblue" d="M160.35,-279.23C143.77,-295.71 119.47,-317.85 95,-333 89.22,-336.58 82.64,-339.74 76.29,-342.41"/>
<polygon fill="midnightblue" stroke="midnightblue" points="162.86,-281.67 167.41,-272.1 157.88,-276.75 162.86,-281.67"/>
</g>
<!-- Node7 -->
<g id="node7" class="node">
<title>Node7</title>
<g id="a_node7"><a xlink:href="cublas__symbols_8cpp.html#a9d6205755e33464cf42bca7100859247" target="_top" xlink:title="Definition of CUDA&#39;s cublasDgemv function using dynamically loaded cublas library.">
<polygon fill="white" stroke="black" points="1.5,-304.5 1.5,-323.5 93.5,-323.5 93.5,-304.5 1.5,-304.5"/>
<text text-anchor="middle" x="47.5" y="-311.5" font-family="Helvetica,sans-Serif" font-size="10.00">cublasDgemv_v2</text>
</a>
</g>
</g>
<!-- Node1&#45;&gt;Node7 -->
<g id="edge6" class="edge">
<title>Node1&#45;&gt;Node7</title>
<path fill="none" stroke="midnightblue" d="M138.59,-276.11C124.71,-282.23 109.23,-288.97 95,-295 87.61,-298.13 79.53,-301.47 72.21,-304.45"/>
<polygon fill="midnightblue" stroke="midnightblue" points="140.17,-279.24 147.9,-272 137.34,-272.84 140.17,-279.24"/>
</g>
<!-- Node8 -->
<g id="node8" class="node">
<title>Node8</title>
<g id="a_node8"><a xlink:href="cublas__symbols_8cpp.html#a9413f9e26fd99ee1c5997c4838fca230" target="_top" xlink:title="Definition of CUDA&#39;s cublasDnrm2 function using dynamically loaded cublas library.">
<polygon fill="white" stroke="black" points="10.5,-266.5 10.5,-285.5 84.5,-285.5 84.5,-266.5 10.5,-266.5"/>
<text text-anchor="middle" x="47.5" y="-273.5" font-family="Helvetica,sans-Serif" font-size="10.00">cublasDnrm2</text>
</a>
</g>
</g>
<!-- Node1&#45;&gt;Node8 -->
<g id="edge7" class="edge">
<title>Node1&#45;&gt;Node8</title>
<path fill="none" stroke="midnightblue" d="M120.59,-265.7C108.26,-267.46 95.69,-269.26 84.56,-270.85"/>
<polygon fill="midnightblue" stroke="midnightblue" points="121.43,-269.12 130.84,-264.24 120.44,-262.19 121.43,-269.12"/>
</g>
<!-- Node9 -->
<g id="node9" class="node">
<title>Node9</title>
<g id="a_node9"><a xlink:href="cublas__symbols_8cpp.html#a42e36cca17f3a8a8b3caa5c9b0660956" target="_top" xlink:title="Definition of CUDA&#39;s cublasDscal function using dynamically loaded cublas library.">
<polygon fill="white" stroke="black" points="12,-228.5 12,-247.5 83,-247.5 83,-228.5 12,-228.5"/>
<text text-anchor="middle" x="47.5" y="-235.5" font-family="Helvetica,sans-Serif" font-size="10.00">cublasDscal</text>
</a>
</g>
</g>
<!-- Node1&#45;&gt;Node9 -->
<g id="edge8" class="edge">
<title>Node1&#45;&gt;Node9</title>
<path fill="none" stroke="midnightblue" d="M120.67,-248.31C107.87,-246.48 94.79,-244.61 83.34,-242.98"/>
<polygon fill="midnightblue" stroke="midnightblue" points="120.44,-251.81 130.84,-249.76 121.43,-244.88 120.44,-251.81"/>
</g>
<!-- Node10 -->
<g id="node10" class="node">
<title>Node10</title>
<g id="a_node10"><a xlink:href="cublas__symbols_8cpp.html#a62acf2de66cac606d7a4bd27112aa803" target="_top" xlink:title="Definition of CUDA&#39;s cublasSaxpy function using dynamically loaded cublas library.">
<polygon fill="white" stroke="black" points="11,-190.5 11,-209.5 84,-209.5 84,-190.5 11,-190.5"/>
<text text-anchor="middle" x="47.5" y="-197.5" font-family="Helvetica,sans-Serif" font-size="10.00">cublasSaxpy</text>
</a>
</g>
</g>
<!-- Node1&#45;&gt;Node10 -->
<g id="edge9" class="edge">
<title>Node1&#45;&gt;Node10</title>
<path fill="none" stroke="midnightblue" d="M138.59,-237.89C124.71,-231.77 109.23,-225.03 95,-219 87.61,-215.87 79.53,-212.53 72.21,-209.55"/>
<polygon fill="midnightblue" stroke="midnightblue" points="137.34,-241.16 147.9,-242 140.17,-234.76 137.34,-241.16"/>
</g>
<!-- Node11 -->
<g id="node11" class="node">
<title>Node11</title>
<g id="a_node11"><a xlink:href="cublas__symbols_8cpp.html#a89ae1ea2d0e82912eb230b596bcbe10a" target="_top" xlink:title="Definition of CUDA&#39;s cublasScopy function using dynamically loaded cublas library.">
<polygon fill="white" stroke="black" points="11,-152.5 11,-171.5 84,-171.5 84,-152.5 11,-152.5"/>
<text text-anchor="middle" x="47.5" y="-159.5" font-family="Helvetica,sans-Serif" font-size="10.00">cublasScopy</text>
</a>
</g>
</g>
<!-- Node1&#45;&gt;Node11 -->
<g id="edge10" class="edge">
<title>Node1&#45;&gt;Node11</title>
<path fill="none" stroke="midnightblue" d="M160.35,-234.77C143.77,-218.29 119.47,-196.15 95,-181 89.22,-177.42 82.64,-174.26 76.29,-171.59"/>
<polygon fill="midnightblue" stroke="midnightblue" points="157.88,-237.25 167.41,-241.9 162.86,-232.33 157.88,-237.25"/>
</g>
<!-- Node12 -->
<g id="node12" class="node">
<title>Node12</title>
<g id="a_node12"><a xlink:href="cublas__symbols_8cpp.html#a44c8284e4c9bdd530f002f7bee7792e5" target="_top" xlink:title="Definition of CUDA&#39;s cublasSdot function using dynamically loaded cublas library.">
<polygon fill="white" stroke="black" points="15,-114.5 15,-133.5 80,-133.5 80,-114.5 15,-114.5"/>
<text text-anchor="middle" x="47.5" y="-121.5" font-family="Helvetica,sans-Serif" font-size="10.00">cublasSdot</text>
</a>
</g>
</g>
<!-- Node1&#45;&gt;Node12 -->
<g id="edge11" class="edge">
<title>Node1&#45;&gt;Node12</title>
<path fill="none" stroke="midnightblue" d="M168.31,-232.63C153.46,-207.21 127.15,-167.69 95,-143 90.16,-139.28 84.49,-136.18 78.8,-133.63"/>
<polygon fill="midnightblue" stroke="midnightblue" points="165.44,-234.67 173.43,-241.63 171.52,-231.2 165.44,-234.67"/>
</g>
<!-- Node13 -->
<g id="node13" class="node">
<title>Node13</title>
<g id="a_node13"><a xlink:href="cublas__symbols_8cpp.html#a1d66fdeb4131b1523aee093318a204ee" target="_top" xlink:title="Definition of CUDA&#39;s cublasSgemv function using dynamically loaded cublas library.">
<polygon fill="white" stroke="black" points="1.5,-76.5 1.5,-95.5 93.5,-95.5 93.5,-76.5 1.5,-76.5"/>
<text text-anchor="middle" x="47.5" y="-83.5" font-family="Helvetica,sans-Serif" font-size="10.00">cublasSgemv_v2</text>
</a>
</g>
</g>
<!-- Node1&#45;&gt;Node13 -->
<g id="edge12" class="edge">
<title>Node1&#45;&gt;Node13</title>
<path fill="none" stroke="midnightblue" d="M173.19,-232.05C160.97,-198.85 135.14,-140.25 95,-105 90.68,-101.2 85.49,-98.1 80.17,-95.59"/>
<polygon fill="midnightblue" stroke="midnightblue" points="170.04,-233.63 176.68,-241.88 176.63,-231.28 170.04,-233.63"/>
</g>
<!-- Node14 -->
<g id="node14" class="node">
<title>Node14</title>
<g id="a_node14"><a xlink:href="cublas__symbols_8cpp.html#a5e52724d6890361c8cbf8ba1e8aa1097" target="_top" xlink:title="Definition of CUDA&#39;s cublasSnrm2 function using dynamically loaded cublas library.">
<polygon fill="white" stroke="black" points="10.5,-38.5 10.5,-57.5 84.5,-57.5 84.5,-38.5 10.5,-38.5"/>
<text text-anchor="middle" x="47.5" y="-45.5" font-family="Helvetica,sans-Serif" font-size="10.00">cublasSnrm2</text>
</a>
</g>
</g>
<!-- Node1&#45;&gt;Node14 -->
<g id="edge13" class="edge">
<title>Node1&#45;&gt;Node14</title>
<path fill="none" stroke="midnightblue" d="M176.39,-232.01C166.99,-192.03 143.34,-113.48 95,-67 90.98,-63.13 86.06,-60.01 80.94,-57.5"/>
<polygon fill="midnightblue" stroke="midnightblue" points="173.02,-232.98 178.62,-241.98 179.85,-231.45 173.02,-232.98"/>
</g>
<!-- Node15 -->
<g id="node15" class="node">
<title>Node15</title>
<g id="a_node15"><a xlink:href="cublas__symbols_8cpp.html#a1d9fddf373b0f2f694aef356e9f7e46c" target="_top" xlink:title="Definition of CUDA&#39;s cublasSscal function using dynamically loaded cublas library.">
<polygon fill="white" stroke="black" points="12.5,-0.5 12.5,-19.5 82.5,-19.5 82.5,-0.5 12.5,-0.5"/>
<text text-anchor="middle" x="47.5" y="-7.5" font-family="Helvetica,sans-Serif" font-size="10.00">cublasSscal</text>
</a>
</g>
</g>
<!-- Node1&#45;&gt;Node15 -->
<g id="edge14" class="edge">
<title>Node1&#45;&gt;Node15</title>
<path fill="none" stroke="midnightblue" d="M178.54,-231.69C171.85,-185.5 151.5,-86.95 95,-29 91.23,-25.13 86.55,-22.02 81.64,-19.53"/>
<polygon fill="midnightblue" stroke="midnightblue" points="175.09,-232.3 179.89,-241.74 182.03,-231.37 175.09,-232.3"/>
</g>
</g>
</svg>
