<?xml version="1.0" encoding="UTF-8" standalone="no"?>
<!DOCTYPE svg PUBLIC "-//W3C//DTD SVG 1.1//EN"
 "http://www.w3.org/Graphics/SVG/1.1/DTD/svg11.dtd">
<!-- Generated by graphviz version 2.43.0 (0)
 -->
<!-- Title: cVectorOperations::subtract_scaled_vector Pages: 1 -->
<svg width="754pt" height="215pt"
 viewBox="0.00 0.00 754.00 215.00" xmlns="http://www.w3.org/2000/svg" xmlns:xlink="http://www.w3.org/1999/xlink">
<g id="graph0" class="graph" transform="scale(1 1) rotate(0) translate(4 211)">
<title>cVectorOperations::subtract_scaled_vector</title>
<polygon fill="white" stroke="transparent" points="-4,4 -4,-211 750,-211 750,4 -4,4"/>
<!-- Node1 -->
<g id="node1" class="node">
<title>Node1</title>
<g id="a_node1"><a xlink:title="Subtracts the scaled input vector from the output vector.">
<polygon fill="#bfbfbf" stroke="black" points="628,-88.5 628,-118.5 746,-118.5 746,-88.5 628,-88.5"/>
<text text-anchor="start" x="636" y="-106.5" font-family="Helvetica,sans-Serif" font-size="10.00">cVectorOperations::</text>
<text text-anchor="middle" x="687" y="-95.5" font-family="Helvetica,sans-Serif" font-size="10.00">subtract_scaled_vector</text>
</a>
</g>
</g>
<!-- Node2 -->
<g id="node2" class="node">
<title>Node2</title>
<g id="a_node2"><a xlink:href="classcAffineMatrixFunction.html#a144b790e6cf7ef04d2b140a8031929a4" target="_top" xlink:title="Performs the operation , where &#160;is an input vector scaled by &#160;and &#160;it the output vector.">
<polygon fill="white" stroke="black" points="474,-176.5 474,-206.5 586,-206.5 586,-176.5 474,-176.5"/>
<text text-anchor="start" x="482" y="-194.5" font-family="Helvetica,sans-Serif" font-size="10.00">cAffineMatrixFunction</text>
<text text-anchor="middle" x="530" y="-183.5" font-family="Helvetica,sans-Serif" font-size="10.00">::_add_scaled_vector</text>
</a>
</g>
</g>
<!-- Node1&#45;&gt;Node2 -->
<g id="edge1" class="edge">
<title>Node1&#45;&gt;Node2</title>
<path fill="none" stroke="midnightblue" d="M653.91,-124.36C635.95,-135.76 613.01,-149.89 592,-161.5 582.7,-166.64 572.4,-171.87 562.96,-176.5"/>
<polygon fill="midnightblue" stroke="midnightblue" points="656.26,-127.01 662.81,-118.67 652.49,-121.11 656.26,-127.01"/>
</g>
<!-- Node3 -->
<g id="node3" class="node">
<title>Node3</title>
<g id="a_node3"><a xlink:href="c__golub__kahn__bidiagonalization_8cpp.html#a6125b021cd93b43ab4d9f20813487f85" target="_top" xlink:title="Bi&#45;diagonalizes the positive&#45;definite matrix A using Golub&#45;Kahn&#45;Lanczos method.">
<polygon fill="white" stroke="black" points="278,-113 278,-132 432,-132 432,-113 278,-113"/>
<text text-anchor="middle" x="355" y="-120" font-family="Helvetica,sans-Serif" font-size="10.00">c_golub_kahn_bidiagonalization</text>
</a>
</g>
</g>
<!-- Node1&#45;&gt;Node3 -->
<g id="edge2" class="edge">
<title>Node1&#45;&gt;Node3</title>
<path fill="none" stroke="midnightblue" d="M626.79,-121C615.34,-123.71 603.37,-126.07 592,-127.5 538.83,-134.18 478.41,-132.73 432.02,-129.72"/>
<polygon fill="midnightblue" stroke="midnightblue" points="627.82,-124.35 636.69,-118.55 626.14,-117.56 627.82,-124.35"/>
</g>
<!-- Node6 -->
<g id="node6" class="node">
<title>Node6</title>
<g id="a_node6"><a xlink:href="c__lanczos__tridiagonalization_8cpp.html#a88831f1a1ba564b198f446a7c8a8d5ef" target="_top" xlink:title="Tri&#45;diagonalizes matrix A to T using the start vector v. is the Lanczos degree, which will be the siz...">
<polygon fill="white" stroke="black" points="285.5,-75 285.5,-94 424.5,-94 424.5,-75 285.5,-75"/>
<text text-anchor="middle" x="355" y="-82" font-family="Helvetica,sans-Serif" font-size="10.00">c_lanczos_tridiagonalization</text>
</a>
</g>
</g>
<!-- Node1&#45;&gt;Node6 -->
<g id="edge5" class="edge">
<title>Node1&#45;&gt;Node6</title>
<path fill="none" stroke="midnightblue" d="M629.14,-85.85C617,-82.79 604.17,-80.09 592,-78.5 536.02,-71.18 471.95,-73.48 424.71,-77.16"/>
<polygon fill="midnightblue" stroke="midnightblue" points="628.58,-89.32 639.14,-88.48 630.36,-82.55 628.58,-89.32"/>
</g>
<!-- Node7 -->
<g id="node7" class="node">
<title>Node7</title>
<g id="a_node7"><a xlink:href="classcOrthogonalization.html#a1b1bcbb636f1a1608ce7a22d4538b3b3" target="_top" xlink:title="Modified Gram&#45;Schmidt orthogonalization process to orthogonalize the vector v against a subset of the...">
<polygon fill="white" stroke="black" points="468,-88.5 468,-118.5 592,-118.5 592,-88.5 468,-88.5"/>
<text text-anchor="start" x="476" y="-106.5" font-family="Helvetica,sans-Serif" font-size="10.00">cOrthogonalization</text>
<text text-anchor="middle" x="530" y="-95.5" font-family="Helvetica,sans-Serif" font-size="10.00">::gram_schmidt_process</text>
</a>
</g>
</g>
<!-- Node1&#45;&gt;Node7 -->
<g id="edge7" class="edge">
<title>Node1&#45;&gt;Node7</title>
<path fill="none" stroke="midnightblue" d="M617.58,-103.5C609.09,-103.5 600.45,-103.5 592.07,-103.5"/>
<polygon fill="midnightblue" stroke="midnightblue" points="617.84,-107 627.84,-103.5 617.84,-100 617.84,-107"/>
</g>
<!-- Node8 -->
<g id="node8" class="node">
<title>Node8</title>
<g id="a_node8"><a xlink:href="classcOrthogonalization.html#a7b017e5520083a1cf3ac2ed27bb811d8" target="_top" xlink:title="Orthogonalizes set of vectors mutually using modified Gram&#45;Schmidt process.">
<polygon fill="white" stroke="black" points="471,-0.5 471,-30.5 589,-30.5 589,-0.5 471,-0.5"/>
<text text-anchor="start" x="479" y="-18.5" font-family="Helvetica,sans-Serif" font-size="10.00">cOrthogonalization</text>
<text text-anchor="middle" x="530" y="-7.5" font-family="Helvetica,sans-Serif" font-size="10.00">::orthogonalize_vectors</text>
</a>
</g>
</g>
<!-- Node1&#45;&gt;Node8 -->
<g id="edge10" class="edge">
<title>Node1&#45;&gt;Node8</title>
<path fill="none" stroke="midnightblue" d="M653.91,-82.64C635.95,-71.24 613.01,-57.11 592,-45.5 582.7,-40.36 572.4,-35.13 562.96,-30.5"/>
<polygon fill="midnightblue" stroke="midnightblue" points="652.49,-85.89 662.81,-88.33 656.26,-79.99 652.49,-85.89"/>
</g>
<!-- Node4 -->
<g id="node4" class="node">
<title>Node4</title>
<g id="a_node4"><a xlink:href="classcTraceEstimator.html#a02afa505a915c58380b99a62e4d56b30" target="_top" xlink:title="For a given random input vector, computes one Monte&#45;Carlo sample to estimate trace using Lanczos quad...">
<polygon fill="white" stroke="black" points="136,-83 136,-124 242,-124 242,-83 136,-83"/>
<text text-anchor="start" x="144" y="-112" font-family="Helvetica,sans-Serif" font-size="10.00">cTraceEstimator::_c</text>
<text text-anchor="start" x="144" y="-101" font-family="Helvetica,sans-Serif" font-size="10.00">_stochastic_lanczos</text>
<text text-anchor="middle" x="189" y="-90" font-family="Helvetica,sans-Serif" font-size="10.00">_quadrature</text>
</a>
</g>
</g>
<!-- Node3&#45;&gt;Node4 -->
<g id="edge3" class="edge">
<title>Node3&#45;&gt;Node4</title>
<path fill="none" stroke="midnightblue" d="M267.58,-112.49C258.92,-111.48 250.32,-110.49 242.17,-109.54"/>
<polygon fill="midnightblue" stroke="midnightblue" points="267.43,-115.99 277.76,-113.67 268.23,-109.04 267.43,-115.99"/>
</g>
<!-- Node5 -->
<g id="node5" class="node">
<title>Node5</title>
<g id="a_node5"><a xlink:href="classcTraceEstimator.html#a29144b4d62c71f0889002754384f57f4" target="_top" xlink:title="Stochastic Lanczos quadrature method to estimate trace of a function of a linear operator....">
<polygon fill="white" stroke="black" points="0,-88.5 0,-118.5 100,-118.5 100,-88.5 0,-88.5"/>
<text text-anchor="start" x="8" y="-106.5" font-family="Helvetica,sans-Serif" font-size="10.00">cTraceEstimator::c</text>
<text text-anchor="middle" x="50" y="-95.5" font-family="Helvetica,sans-Serif" font-size="10.00">_trace_estimator</text>
</a>
</g>
</g>
<!-- Node4&#45;&gt;Node5 -->
<g id="edge4" class="edge">
<title>Node4&#45;&gt;Node5</title>
<path fill="none" stroke="midnightblue" d="M125.58,-103.5C117.12,-103.5 108.53,-103.5 100.33,-103.5"/>
<polygon fill="midnightblue" stroke="midnightblue" points="125.82,-107 135.82,-103.5 125.82,-100 125.82,-107"/>
</g>
<!-- Node6&#45;&gt;Node4 -->
<g id="edge6" class="edge">
<title>Node6&#45;&gt;Node4</title>
<path fill="none" stroke="midnightblue" d="M275.15,-93.64C263.93,-94.93 252.64,-96.24 242.11,-97.46"/>
<polygon fill="midnightblue" stroke="midnightblue" points="275.87,-97.08 285.4,-92.45 275.06,-90.12 275.87,-97.08"/>
</g>
<!-- Node7&#45;&gt;Node3 -->
<g id="edge8" class="edge">
<title>Node7&#45;&gt;Node3</title>
<path fill="none" stroke="midnightblue" d="M457.44,-111.36C449.09,-112.28 440.54,-113.22 432.12,-114.14"/>
<polygon fill="midnightblue" stroke="midnightblue" points="457.96,-114.82 467.52,-110.25 457.2,-107.86 457.96,-114.82"/>
</g>
<!-- Node7&#45;&gt;Node6 -->
<g id="edge9" class="edge">
<title>Node7&#45;&gt;Node6</title>
<path fill="none" stroke="midnightblue" d="M457.29,-95.62C446.49,-94.44 435.37,-93.22 424.64,-92.04"/>
<polygon fill="midnightblue" stroke="midnightblue" points="457.2,-99.14 467.52,-96.75 457.96,-92.18 457.2,-99.14"/>
</g>
</g>
</svg>
