<?xml version="1.0" encoding="UTF-8" standalone="no"?>
<!DOCTYPE svg PUBLIC "-//W3C//DTD SVG 1.1//EN"
 "http://www.w3.org/Graphics/SVG/1.1/DTD/svg11.dtd">
<!-- Generated by graphviz version 2.43.0 (0)
 -->
<!-- Title: cCSRMatrix::transpose_dot_plus Pages: 1 -->
<svg width="307pt" height="39pt"
 viewBox="0.00 0.00 307.00 39.00" xmlns="http://www.w3.org/2000/svg" xmlns:xlink="http://www.w3.org/1999/xlink">
<g id="graph0" class="graph" transform="scale(1 1) rotate(0) translate(4 35)">
<title>cCSRMatrix::transpose_dot_plus</title>
<polygon fill="white" stroke="transparent" points="-4,4 -4,-35 303,-35 303,4 -4,4"/>
<!-- Node1 -->
<g id="node1" class="node">
<title>Node1</title>
<g id="a_node1"><a xlink:title=" ">
<polygon fill="#bfbfbf" stroke="black" points="0,-0.5 0,-30.5 119,-30.5 119,-0.5 0,-0.5"/>
<text text-anchor="start" x="8" y="-18.5" font-family="Helvetica,sans-Serif" font-size="10.00">cCSRMatrix::transpose</text>
<text text-anchor="middle" x="59.5" y="-7.5" font-family="Helvetica,sans-Serif" font-size="10.00">_dot_plus</text>
</a>
</g>
</g>
<!-- Node2 -->
<g id="node2" class="node">
<title>Node2</title>
<g id="a_node2"><a xlink:href="classcMatrixOperations.html#a61d07d405149cf9ead02af227bfbb8b3" target="_top" xlink:title="Computes &#160;where &#160;is compressed sparse row (CSR) matrix and &#160;is a dense vector. The output &#160;is a dense...">
<polygon fill="white" stroke="black" points="155,-0.5 155,-30.5 299,-30.5 299,-0.5 155,-0.5"/>
<text text-anchor="start" x="163" y="-18.5" font-family="Helvetica,sans-Serif" font-size="10.00">cMatrixOperations::</text>
<text text-anchor="middle" x="227" y="-7.5" font-family="Helvetica,sans-Serif" font-size="10.00">csr_transposed_matvec_plus</text>
</a>
</g>
</g>
<!-- Node1&#45;&gt;Node2 -->
<g id="edge1" class="edge">
<title>Node1&#45;&gt;Node2</title>
<path fill="none" stroke="midnightblue" d="M119.32,-15.5C127.6,-15.5 136.23,-15.5 144.83,-15.5"/>
<polygon fill="midnightblue" stroke="midnightblue" points="144.91,-19 154.91,-15.5 144.91,-12 144.91,-19"/>
</g>
</g>
</svg>
