<?xml version="1.0" encoding="UTF-8" standalone="no"?>
<!DOCTYPE svg PUBLIC "-//W3C//DTD SVG 1.1//EN"
 "http://www.w3.org/Graphics/SVG/1.1/DTD/svg11.dtd">
<!-- Generated by graphviz version 2.43.0 (0)
 -->
<!-- Title: cVectorOperations::copy_vector Pages: 1 -->
<svg width="565pt" height="50pt"
 viewBox="0.00 0.00 565.00 50.00" xmlns="http://www.w3.org/2000/svg" xmlns:xlink="http://www.w3.org/1999/xlink">
<g id="graph0" class="graph" transform="scale(1 1) rotate(0) translate(4 46)">
<title>cVectorOperations::copy_vector</title>
<polygon fill="white" stroke="transparent" points="-4,4 -4,-46 561,-46 561,4 -4,4"/>
<!-- Node1 -->
<g id="node1" class="node">
<title>Node1</title>
<g id="a_node1"><a xlink:title="Copies a vector to a new vector. Result is written in&#45;place.">
<polygon fill="#bfbfbf" stroke="black" points="453,-6 453,-36 557,-36 557,-6 453,-6"/>
<text text-anchor="start" x="461" y="-24" font-family="Helvetica,sans-Serif" font-size="10.00">cVectorOperations::</text>
<text text-anchor="middle" x="505" y="-13" font-family="Helvetica,sans-Serif" font-size="10.00">copy_vector</text>
</a>
</g>
</g>
<!-- Node2 -->
<g id="node2" class="node">
<title>Node2</title>
<g id="a_node2"><a xlink:href="c__lanczos__tridiagonalization_8cpp.html#a88831f1a1ba564b198f446a7c8a8d5ef" target="_top" xlink:title="Tri&#45;diagonalizes matrix A to T using the start vector v. is the Lanczos degree, which will be the siz...">
<polygon fill="white" stroke="black" points="278,-11.5 278,-30.5 417,-30.5 417,-11.5 278,-11.5"/>
<text text-anchor="middle" x="347.5" y="-18.5" font-family="Helvetica,sans-Serif" font-size="10.00">c_lanczos_tridiagonalization</text>
</a>
</g>
</g>
<!-- Node1&#45;&gt;Node2 -->
<g id="edge1" class="edge">
<title>Node1&#45;&gt;Node2</title>
<path fill="none" stroke="midnightblue" d="M442.65,-21C434.32,-21 425.72,-21 417.27,-21"/>
<polygon fill="midnightblue" stroke="midnightblue" points="442.65,-24.5 452.65,-21 442.65,-17.5 442.65,-24.5"/>
</g>
<!-- Node3 -->
<g id="node3" class="node">
<title>Node3</title>
<g id="a_node3"><a xlink:href="classcTraceEstimator.html#a02afa505a915c58380b99a62e4d56b30" target="_top" xlink:title="For a given random input vector, computes one Monte&#45;Carlo sample to estimate trace using Lanczos quad...">
<polygon fill="white" stroke="black" points="136,-0.5 136,-41.5 242,-41.5 242,-0.5 136,-0.5"/>
<text text-anchor="start" x="144" y="-29.5" font-family="Helvetica,sans-Serif" font-size="10.00">cTraceEstimator::_c</text>
<text text-anchor="start" x="144" y="-18.5" font-family="Helvetica,sans-Serif" font-size="10.00">_stochastic_lanczos</text>
<text text-anchor="middle" x="189" y="-7.5" font-family="Helvetica,sans-Serif" font-size="10.00">_quadrature</text>
</a>
</g>
</g>
<!-- Node2&#45;&gt;Node3 -->
<g id="edge2" class="edge">
<title>Node2&#45;&gt;Node3</title>
<path fill="none" stroke="midnightblue" d="M267.69,-21C259.02,-21 250.35,-21 242.12,-21"/>
<polygon fill="midnightblue" stroke="midnightblue" points="267.86,-24.5 277.86,-21 267.86,-17.5 267.86,-24.5"/>
</g>
<!-- Node4 -->
<g id="node4" class="node">
<title>Node4</title>
<g id="a_node4"><a xlink:href="classcTraceEstimator.html#a29144b4d62c71f0889002754384f57f4" target="_top" xlink:title="Stochastic Lanczos quadrature method to estimate trace of a function of a linear operator....">
<polygon fill="white" stroke="black" points="0,-6 0,-36 100,-36 100,-6 0,-6"/>
<text text-anchor="start" x="8" y="-24" font-family="Helvetica,sans-Serif" font-size="10.00">cTraceEstimator::c</text>
<text text-anchor="middle" x="50" y="-13" font-family="Helvetica,sans-Serif" font-size="10.00">_trace_estimator</text>
</a>
</g>
</g>
<!-- Node3&#45;&gt;Node4 -->
<g id="edge3" class="edge">
<title>Node3&#45;&gt;Node4</title>
<path fill="none" stroke="midnightblue" d="M125.58,-21C117.12,-21 108.53,-21 100.33,-21"/>
<polygon fill="midnightblue" stroke="midnightblue" points="125.82,-24.5 135.82,-21 125.82,-17.5 125.82,-24.5"/>
</g>
</g>
</svg>
