<?xml version="1.0" encoding="UTF-8" standalone="no"?>
<!DOCTYPE svg PUBLIC "-//W3C//DTD SVG 1.1//EN"
 "http://www.w3.org/Graphics/SVG/1.1/DTD/svg11.dtd">
<!-- Generated by graphviz version 2.43.0 (0)
 -->
<!-- Title: cLinearOperator::set_parameters Pages: 1 -->
<svg width="391pt" height="50pt"
 viewBox="0.00 0.00 391.00 50.00" xmlns="http://www.w3.org/2000/svg" xmlns:xlink="http://www.w3.org/1999/xlink">
<g id="graph0" class="graph" transform="scale(1 1) rotate(0) translate(4 46)">
<title>cLinearOperator::set_parameters</title>
<polygon fill="white" stroke="transparent" points="-4,4 -4,-46 387,-46 387,4 -4,4"/>
<!-- Node1 -->
<g id="node1" class="node">
<title>Node1</title>
<g id="a_node1"><a xlink:title="Sets the scalar parameter this&#45;&gt;parameters. Parameter is initialized to NULL. However,...">
<polygon fill="#bfbfbf" stroke="black" points="278,-6 278,-36 383,-36 383,-6 278,-6"/>
<text text-anchor="start" x="286" y="-24" font-family="Helvetica,sans-Serif" font-size="10.00">cLinearOperator::set</text>
<text text-anchor="middle" x="330.5" y="-13" font-family="Helvetica,sans-Serif" font-size="10.00">_parameters</text>
</a>
</g>
</g>
<!-- Node2 -->
<g id="node2" class="node">
<title>Node2</title>
<g id="a_node2"><a xlink:href="classcTraceEstimator.html#a02afa505a915c58380b99a62e4d56b30" target="_top" xlink:title="For a given random input vector, computes one Monte&#45;Carlo sample to estimate trace using Lanczos quad...">
<polygon fill="white" stroke="black" points="136,-0.5 136,-41.5 242,-41.5 242,-0.5 136,-0.5"/>
<text text-anchor="start" x="144" y="-29.5" font-family="Helvetica,sans-Serif" font-size="10.00">cTraceEstimator::_c</text>
<text text-anchor="start" x="144" y="-18.5" font-family="Helvetica,sans-Serif" font-size="10.00">_stochastic_lanczos</text>
<text text-anchor="middle" x="189" y="-7.5" font-family="Helvetica,sans-Serif" font-size="10.00">_quadrature</text>
</a>
</g>
</g>
<!-- Node1&#45;&gt;Node2 -->
<g id="edge1" class="edge">
<title>Node1&#45;&gt;Node2</title>
<path fill="none" stroke="midnightblue" d="M267.71,-21C259.22,-21 250.57,-21 242.27,-21"/>
<polygon fill="midnightblue" stroke="midnightblue" points="267.95,-24.5 277.95,-21 267.95,-17.5 267.95,-24.5"/>
</g>
<!-- Node3 -->
<g id="node3" class="node">
<title>Node3</title>
<g id="a_node3"><a xlink:href="classcTraceEstimator.html#a29144b4d62c71f0889002754384f57f4" target="_top" xlink:title="Stochastic Lanczos quadrature method to estimate trace of a function of a linear operator....">
<polygon fill="white" stroke="black" points="0,-6 0,-36 100,-36 100,-6 0,-6"/>
<text text-anchor="start" x="8" y="-24" font-family="Helvetica,sans-Serif" font-size="10.00">cTraceEstimator::c</text>
<text text-anchor="middle" x="50" y="-13" font-family="Helvetica,sans-Serif" font-size="10.00">_trace_estimator</text>
</a>
</g>
</g>
<!-- Node2&#45;&gt;Node3 -->
<g id="edge2" class="edge">
<title>Node2&#45;&gt;Node3</title>
<path fill="none" stroke="midnightblue" d="M125.58,-21C117.12,-21 108.53,-21 100.33,-21"/>
<polygon fill="midnightblue" stroke="midnightblue" points="125.82,-24.5 135.82,-21 125.82,-17.5 125.82,-24.5"/>
</g>
</g>
</svg>
