<?xml version="1.0" encoding="UTF-8" standalone="no"?>
<!DOCTYPE svg PUBLIC "-//W3C//DTD SVG 1.1//EN"
 "http://www.w3.org/Graphics/SVG/1.1/DTD/svg11.dtd">
<!-- Generated by graphviz version 2.43.0 (0)
 -->
<!-- Title: cTraceEstimator::c_trace_estimator Pages: 1 -->
<svg width="952pt" height="757pt"
 viewBox="0.00 0.00 952.00 757.00" xmlns="http://www.w3.org/2000/svg" xmlns:xlink="http://www.w3.org/1999/xlink">
<g id="graph0" class="graph" transform="scale(1 1) rotate(0) translate(4 753)">
<title>cTraceEstimator::c_trace_estimator</title>
<polygon fill="white" stroke="transparent" points="-4,4 -4,-753 948,-753 948,4 -4,4"/>
<!-- Node1 -->
<g id="node1" class="node">
<title>Node1</title>
<g id="a_node1"><a xlink:title="Stochastic Lanczos quadrature method to estimate trace of a function of a linear operator....">
<polygon fill="#bfbfbf" stroke="black" points="0,-115 0,-145 100,-145 100,-115 0,-115"/>
<text text-anchor="start" x="8" y="-133" font-family="Helvetica,sans-Serif" font-size="10.00">cTraceEstimator::c</text>
<text text-anchor="middle" x="50" y="-122" font-family="Helvetica,sans-Serif" font-size="10.00">_trace_estimator</text>
</a>
</g>
</g>
<!-- Node2 -->
<g id="node2" class="node">
<title>Node2</title>
<g id="a_node2"><a xlink:href="classcTraceEstimator.html#a02afa505a915c58380b99a62e4d56b30" target="_top" xlink:title="For a given random input vector, computes one Monte&#45;Carlo sample to estimate trace using Lanczos quad...">
<polygon fill="white" stroke="black" points="152,-385.5 152,-426.5 258,-426.5 258,-385.5 152,-385.5"/>
<text text-anchor="start" x="160" y="-414.5" font-family="Helvetica,sans-Serif" font-size="10.00">cTraceEstimator::_c</text>
<text text-anchor="start" x="160" y="-403.5" font-family="Helvetica,sans-Serif" font-size="10.00">_stochastic_lanczos</text>
<text text-anchor="middle" x="205" y="-392.5" font-family="Helvetica,sans-Serif" font-size="10.00">_quadrature</text>
</a>
</g>
</g>
<!-- Node1&#45;&gt;Node2 -->
<g id="edge1" class="edge">
<title>Node1&#45;&gt;Node2</title>
<path fill="none" stroke="midnightblue" d="M59.44,-145.23C83.89,-189.34 155.06,-317.72 187.52,-376.27"/>
<polygon fill="midnightblue" stroke="midnightblue" points="184.66,-378.32 192.56,-385.37 190.78,-374.93 184.66,-378.32"/>
</g>
<!-- Node23 -->
<g id="node23" class="node">
<title>Node23</title>
<g id="a_node23"><a xlink:href="classcLinearOperator.html#aecc5b62db1d8a41f5112b289c7031aaf" target="_top" xlink:title=" ">
<polygon fill="white" stroke="black" points="334.5,-195 334.5,-225 439.5,-225 439.5,-195 334.5,-195"/>
<text text-anchor="start" x="342.5" y="-213" font-family="Helvetica,sans-Serif" font-size="10.00">cLinearOperator::get</text>
<text text-anchor="middle" x="387" y="-202" font-family="Helvetica,sans-Serif" font-size="10.00">_num_rows</text>
</a>
</g>
</g>
<!-- Node1&#45;&gt;Node23 -->
<g id="edge41" class="edge">
<title>Node1&#45;&gt;Node23</title>
<path fill="none" stroke="midnightblue" d="M62.57,-145.05C77.36,-162.94 104.81,-191.9 136,-204 196.71,-227.56 272.11,-225.57 324.14,-219.88"/>
<polygon fill="midnightblue" stroke="midnightblue" points="324.69,-223.34 334.22,-218.7 323.88,-216.39 324.69,-223.34"/>
</g>
<!-- Node28 -->
<g id="node28" class="node">
<title>Node28</title>
<g id="a_node28"><a xlink:href="classConvergenceTools.html#a88ae9fc09aa9af950d41cf803934c028" target="_top" xlink:title="Averages the estimates of trace. Removes outliers and reevaluates the error to take into account for ...">
<polygon fill="white" stroke="black" points="136,-115 136,-145 274,-145 274,-115 136,-115"/>
<text text-anchor="start" x="144" y="-133" font-family="Helvetica,sans-Serif" font-size="10.00">ConvergenceTools::average</text>
<text text-anchor="middle" x="205" y="-122" font-family="Helvetica,sans-Serif" font-size="10.00">_estimates</text>
</a>
</g>
</g>
<!-- Node1&#45;&gt;Node28 -->
<g id="edge36" class="edge">
<title>Node1&#45;&gt;Node28</title>
<path fill="none" stroke="midnightblue" d="M100.25,-130C108.41,-130 117.05,-130 125.72,-130"/>
<polygon fill="midnightblue" stroke="midnightblue" points="125.89,-133.5 135.89,-130 125.89,-126.5 125.89,-133.5"/>
</g>
<!-- Node30 -->
<g id="node30" class="node">
<title>Node30</title>
<g id="a_node30"><a xlink:href="classConvergenceTools.html#a5a0602ee4f933a4521ccf9ea137dd191" target="_top" xlink:title="Checks if the standard deviation of the set of the cumulative averages of trace estimators converged ...">
<polygon fill="white" stroke="black" points="140,-164 140,-194 270,-194 270,-164 140,-164"/>
<text text-anchor="start" x="148" y="-182" font-family="Helvetica,sans-Serif" font-size="10.00">ConvergenceTools::check</text>
<text text-anchor="middle" x="205" y="-171" font-family="Helvetica,sans-Serif" font-size="10.00">_convergence</text>
</a>
</g>
</g>
<!-- Node1&#45;&gt;Node30 -->
<g id="edge38" class="edge">
<title>Node1&#45;&gt;Node30</title>
<path fill="none" stroke="midnightblue" d="M98.15,-145.1C113.64,-150.06 131.02,-155.63 147.15,-160.79"/>
<polygon fill="midnightblue" stroke="midnightblue" points="146.41,-164.23 157,-163.95 148.55,-157.57 146.41,-164.23"/>
</g>
<!-- Node31 -->
<g id="node31" class="node">
<title>Node31</title>
<g id="a_node31"><a xlink:href="classTimer.html#a6a89a613c2af9b0d1e5f7e4ba9e46c54" target="_top" xlink:title="Returns the elapsed time in seconds.">
<polygon fill="white" stroke="black" points="164.5,-76.5 164.5,-95.5 245.5,-95.5 245.5,-76.5 164.5,-76.5"/>
<text text-anchor="middle" x="205" y="-83.5" font-family="Helvetica,sans-Serif" font-size="10.00">Timer::elapsed</text>
</a>
</g>
</g>
<!-- Node1&#45;&gt;Node31 -->
<g id="edge40" class="edge">
<title>Node1&#45;&gt;Node31</title>
<path fill="none" stroke="midnightblue" d="M100.25,-115.84C119.8,-110.21 142.08,-103.81 160.97,-98.37"/>
<polygon fill="midnightblue" stroke="midnightblue" points="162.15,-101.68 170.79,-95.55 160.21,-94.95 162.15,-101.68"/>
</g>
<!-- Node32 -->
<g id="node32" class="node">
<title>Node32</title>
<g id="a_node32"><a xlink:href="classTimer.html#a3a8b5272198d029779dc9302a54305a8" target="_top" xlink:title="Starts the timer.">
<polygon fill="white" stroke="black" points="171.5,-0.5 171.5,-19.5 238.5,-19.5 238.5,-0.5 171.5,-0.5"/>
<text text-anchor="middle" x="205" y="-7.5" font-family="Helvetica,sans-Serif" font-size="10.00">Timer::start</text>
</a>
</g>
</g>
<!-- Node1&#45;&gt;Node32 -->
<g id="edge42" class="edge">
<title>Node1&#45;&gt;Node32</title>
<path fill="none" stroke="midnightblue" d="M59.63,-114.85C73.07,-92.64 101.12,-51.45 136,-29 143.64,-24.08 152.55,-20.42 161.37,-17.7"/>
<polygon fill="midnightblue" stroke="midnightblue" points="162.48,-21.02 171.2,-15.01 160.63,-14.27 162.48,-21.02"/>
</g>
<!-- Node34 -->
<g id="node34" class="node">
<title>Node34</title>
<g id="a_node34"><a xlink:href="classTimer.html#a63f0eb44b27402196590a03781515dba" target="_top" xlink:title="Stops the timer.">
<polygon fill="white" stroke="black" points="172,-38.5 172,-57.5 238,-57.5 238,-38.5 172,-38.5"/>
<text text-anchor="middle" x="205" y="-45.5" font-family="Helvetica,sans-Serif" font-size="10.00">Timer::stop</text>
</a>
</g>
</g>
<!-- Node1&#45;&gt;Node34 -->
<g id="edge44" class="edge">
<title>Node1&#45;&gt;Node34</title>
<path fill="none" stroke="midnightblue" d="M67.37,-114.98C83.66,-100.77 109.93,-79.76 136,-67 144.16,-63.01 153.29,-59.73 162.15,-57.1"/>
<polygon fill="midnightblue" stroke="midnightblue" points="163.27,-60.42 171.97,-54.39 161.4,-53.67 163.27,-60.42"/>
</g>
<!-- Node3 -->
<g id="node3" class="node">
<title>Node3</title>
<g id="a_node3"><a xlink:href="c__golub__kahn__bidiagonalization_8cpp.html#a6125b021cd93b43ab4d9f20813487f85" target="_top" xlink:title="Bi&#45;diagonalizes the positive&#45;definite matrix A using Golub&#45;Kahn&#45;Lanczos method.">
<polygon fill="white" stroke="black" points="310,-516.5 310,-535.5 464,-535.5 464,-516.5 310,-516.5"/>
<text text-anchor="middle" x="387" y="-523.5" font-family="Helvetica,sans-Serif" font-size="10.00">c_golub_kahn_bidiagonalization</text>
</a>
</g>
</g>
<!-- Node2&#45;&gt;Node3 -->
<g id="edge2" class="edge">
<title>Node2&#45;&gt;Node3</title>
<path fill="none" stroke="midnightblue" d="M236.94,-426.63C272.62,-450.42 330.47,-488.98 362.6,-510.4"/>
<polygon fill="midnightblue" stroke="midnightblue" points="361.06,-513.58 371.32,-516.21 364.94,-507.75 361.06,-513.58"/>
</g>
<!-- Node13 -->
<g id="node13" class="node">
<title>Node13</title>
<g id="a_node13"><a xlink:href="c__lanczos__tridiagonalization_8cpp.html#a88831f1a1ba564b198f446a7c8a8d5ef" target="_top" xlink:title="Tri&#45;diagonalizes matrix A to T using the start vector v. is the Lanczos degree, which will be the siz...">
<polygon fill="white" stroke="black" points="317.5,-440.5 317.5,-459.5 456.5,-459.5 456.5,-440.5 317.5,-440.5"/>
<text text-anchor="middle" x="387" y="-447.5" font-family="Helvetica,sans-Serif" font-size="10.00">c_lanczos_tridiagonalization</text>
</a>
</g>
</g>
<!-- Node2&#45;&gt;Node13 -->
<g id="edge15" class="edge">
<title>Node2&#45;&gt;Node13</title>
<path fill="none" stroke="midnightblue" d="M258.06,-418.73C282.98,-424.82 312.64,-432.07 337.12,-438.05"/>
<polygon fill="midnightblue" stroke="midnightblue" points="336.38,-441.47 346.92,-440.45 338.04,-434.67 336.38,-441.47"/>
</g>
<!-- Node15 -->
<g id="node15" class="node">
<title>Node15</title>
<g id="a_node15"><a xlink:href="classDiagonalization.html#a18924365b0d74983ead3901886d51204" target="_top" xlink:title="Computes all eigenvalues and eigenvectors of a real and symmetric tridiagonal matrix.">
<polygon fill="white" stroke="black" points="333.5,-391 333.5,-421 440.5,-421 440.5,-391 333.5,-391"/>
<text text-anchor="start" x="341.5" y="-409" font-family="Helvetica,sans-Serif" font-size="10.00">Diagonalization::eigh</text>
<text text-anchor="middle" x="387" y="-398" font-family="Helvetica,sans-Serif" font-size="10.00">_tridiagonal</text>
</a>
</g>
</g>
<!-- Node2&#45;&gt;Node15 -->
<g id="edge23" class="edge">
<title>Node2&#45;&gt;Node15</title>
<path fill="none" stroke="midnightblue" d="M258.06,-406C278.41,-406 301.92,-406 323.19,-406"/>
<polygon fill="midnightblue" stroke="midnightblue" points="323.43,-409.5 333.43,-406 323.43,-402.5 323.43,-409.5"/>
</g>
<!-- Node17 -->
<g id="node17" class="node">
<title>Node17</title>
<g id="a_node17"><a xlink:href="classRandomArrayGenerator.html#a3a577526f391d531fe4d66bdfa0107db" target="_top" xlink:title="Generates a pseudo&#45;random array with Rademacher distribution where elements are either +1 or &#45;1.">
<polygon fill="white" stroke="black" points="324.5,-342 324.5,-372 449.5,-372 449.5,-342 324.5,-342"/>
<text text-anchor="start" x="332.5" y="-360" font-family="Helvetica,sans-Serif" font-size="10.00">RandomArrayGenerator</text>
<text text-anchor="middle" x="387" y="-349" font-family="Helvetica,sans-Serif" font-size="10.00">::generate_random_array</text>
</a>
</g>
</g>
<!-- Node2&#45;&gt;Node17 -->
<g id="edge25" class="edge">
<title>Node2&#45;&gt;Node17</title>
<path fill="none" stroke="midnightblue" d="M258.06,-391.83C277.69,-386.48 300.27,-380.34 320.94,-374.71"/>
<polygon fill="midnightblue" stroke="midnightblue" points="321.87,-378.08 330.6,-372.08 320.03,-371.33 321.87,-378.08"/>
</g>
<!-- Node21 -->
<g id="node21" class="node">
<title>Node21</title>
<g id="a_node21"><a xlink:href="classcLinearOperator.html#a0dd6306a434563e4a48a806b43f23d03" target="_top" xlink:title=" ">
<polygon fill="white" stroke="black" points="334.5,-293 334.5,-323 439.5,-323 439.5,-293 334.5,-293"/>
<text text-anchor="start" x="342.5" y="-311" font-family="Helvetica,sans-Serif" font-size="10.00">cLinearOperator::get</text>
<text text-anchor="middle" x="387" y="-300" font-family="Helvetica,sans-Serif" font-size="10.00">_eigenvalue</text>
</a>
</g>
</g>
<!-- Node2&#45;&gt;Node21 -->
<g id="edge29" class="edge">
<title>Node2&#45;&gt;Node21</title>
<path fill="none" stroke="midnightblue" d="M230.74,-385.47C251.03,-369.45 281.01,-347.54 310,-333 314.81,-330.59 319.91,-328.33 325.09,-326.24"/>
<polygon fill="midnightblue" stroke="midnightblue" points="326.38,-329.5 334.48,-322.66 323.89,-322.96 326.38,-329.5"/>
</g>
<!-- Node22 -->
<g id="node22" class="node">
<title>Node22</title>
<g id="a_node22"><a xlink:href="classcLinearOperator.html#af9be60b44a47eed5b2c98f077ff54987" target="_top" xlink:title=" ">
<polygon fill="white" stroke="black" points="334.5,-244 334.5,-274 439.5,-274 439.5,-244 334.5,-244"/>
<text text-anchor="start" x="342.5" y="-262" font-family="Helvetica,sans-Serif" font-size="10.00">cLinearOperator::get</text>
<text text-anchor="middle" x="387" y="-251" font-family="Helvetica,sans-Serif" font-size="10.00">_num_parameters</text>
</a>
</g>
</g>
<!-- Node2&#45;&gt;Node22 -->
<g id="edge30" class="edge">
<title>Node2&#45;&gt;Node22</title>
<path fill="none" stroke="midnightblue" d="M218.5,-385.24C235.81,-358.19 269.56,-311.15 310,-284 314.61,-280.9 319.64,-278.16 324.84,-275.74"/>
<polygon fill="midnightblue" stroke="midnightblue" points="326.48,-278.85 334.33,-271.73 323.76,-272.4 326.48,-278.85"/>
</g>
<!-- Node2&#45;&gt;Node23 -->
<g id="edge31" class="edge">
<title>Node2&#45;&gt;Node23</title>
<path fill="none" stroke="midnightblue" d="M213.07,-385.38C226.39,-349.58 258.57,-275.84 310,-235 314.6,-231.35 319.75,-228.22 325.15,-225.54"/>
<polygon fill="midnightblue" stroke="midnightblue" points="326.68,-228.69 334.41,-221.45 323.85,-222.29 326.68,-228.69"/>
</g>
<!-- Node24 -->
<g id="node24" class="node">
<title>Node24</title>
<g id="a_node24"><a xlink:href="classcLinearOperator.html#af0c980ca87c2795e0dbfda1c84f74591" target="_top" xlink:title="Returns a flag that determines whether a relation between the parameters of the operator and its eige...">
<polygon fill="white" stroke="black" points="317.5,-653 317.5,-683 456.5,-683 456.5,-653 317.5,-653"/>
<text text-anchor="start" x="325.5" y="-671" font-family="Helvetica,sans-Serif" font-size="10.00">cLinearOperator::is</text>
<text text-anchor="middle" x="387" y="-660" font-family="Helvetica,sans-Serif" font-size="10.00">_eigenvalue_relation_known</text>
</a>
</g>
</g>
<!-- Node2&#45;&gt;Node24 -->
<g id="edge32" class="edge">
<title>Node2&#45;&gt;Node24</title>
<path fill="none" stroke="midnightblue" d="M209.13,-426.53C217.18,-472.36 242.94,-583.7 310,-644 311.31,-645.18 312.67,-646.3 314.09,-647.36"/>
<polygon fill="midnightblue" stroke="midnightblue" points="312.36,-650.41 322.66,-652.87 316.15,-644.52 312.36,-650.41"/>
</g>
<!-- Node25 -->
<g id="node25" class="node">
<title>Node25</title>
<g id="a_node25"><a xlink:href="classcLinearOperator.html#ad7395bd04ec8014c9dd0e66c318ae125" target="_top" xlink:title="Sets the scalar parameter this&#45;&gt;parameters. Parameter is initialized to NULL. However,...">
<polygon fill="white" stroke="black" points="334.5,-604 334.5,-634 439.5,-634 439.5,-604 334.5,-604"/>
<text text-anchor="start" x="342.5" y="-622" font-family="Helvetica,sans-Serif" font-size="10.00">cLinearOperator::set</text>
<text text-anchor="middle" x="387" y="-611" font-family="Helvetica,sans-Serif" font-size="10.00">_parameters</text>
</a>
</g>
</g>
<!-- Node2&#45;&gt;Node25 -->
<g id="edge33" class="edge">
<title>Node2&#45;&gt;Node25</title>
<path fill="none" stroke="midnightblue" d="M211.73,-426.68C223.54,-465.45 254.25,-549.29 310,-595 314.52,-598.71 319.63,-601.85 324.99,-604.5"/>
<polygon fill="midnightblue" stroke="midnightblue" points="323.65,-607.74 334.22,-608.53 326.46,-601.32 323.65,-607.74"/>
</g>
<!-- Node26 -->
<g id="node26" class="node">
<title>Node26</title>
<g id="a_node26"><a xlink:href="classDiagonalization.html#a636b5e32ca7211d60dadc62b2258b8ea" target="_top" xlink:title="Computes all singular&#45;values and left and right eigenvectors of a real and symmetric upper bi&#45;diagona...">
<polygon fill="white" stroke="black" points="334.5,-555 334.5,-585 439.5,-585 439.5,-555 334.5,-555"/>
<text text-anchor="start" x="342.5" y="-573" font-family="Helvetica,sans-Serif" font-size="10.00">Diagonalization::svd</text>
<text text-anchor="middle" x="387" y="-562" font-family="Helvetica,sans-Serif" font-size="10.00">_bidiagonal</text>
</a>
</g>
</g>
<!-- Node2&#45;&gt;Node26 -->
<g id="edge34" class="edge">
<title>Node2&#45;&gt;Node26</title>
<path fill="none" stroke="midnightblue" d="M216.14,-426.6C232.05,-456.86 265.7,-513.17 310,-545 314.7,-548.38 319.88,-551.31 325.26,-553.87"/>
<polygon fill="midnightblue" stroke="midnightblue" points="323.88,-557.09 334.45,-557.82 326.64,-550.66 323.88,-557.09"/>
</g>
<!-- Node4 -->
<g id="node4" class="node">
<title>Node4</title>
<g id="a_node4"><a xlink:href="classcLinearOperator.html#a48c76860a74f00fefaa1297368d17a77" target="_top" xlink:title=" ">
<polygon fill="white" stroke="black" points="524,-516.5 524,-535.5 629,-535.5 629,-516.5 524,-516.5"/>
<text text-anchor="middle" x="576.5" y="-523.5" font-family="Helvetica,sans-Serif" font-size="10.00">cLinearOperator::dot</text>
</a>
</g>
</g>
<!-- Node3&#45;&gt;Node4 -->
<g id="edge3" class="edge">
<title>Node3&#45;&gt;Node4</title>
<path fill="none" stroke="midnightblue" d="M464.26,-526C480.73,-526 497.94,-526 513.77,-526"/>
<polygon fill="midnightblue" stroke="midnightblue" points="513.95,-529.5 523.95,-526 513.95,-522.5 513.95,-529.5"/>
</g>
<!-- Node5 -->
<g id="node5" class="node">
<title>Node5</title>
<g id="a_node5"><a xlink:href="classcOrthogonalization.html#a1b1bcbb636f1a1608ce7a22d4538b3b3" target="_top" xlink:title="Modified Gram&#45;Schmidt orthogonalization process to orthogonalize the vector v against a subset of the...">
<polygon fill="white" stroke="black" points="514.5,-391 514.5,-421 638.5,-421 638.5,-391 514.5,-391"/>
<text text-anchor="start" x="522.5" y="-409" font-family="Helvetica,sans-Serif" font-size="10.00">cOrthogonalization</text>
<text text-anchor="middle" x="576.5" y="-398" font-family="Helvetica,sans-Serif" font-size="10.00">::gram_schmidt_process</text>
</a>
</g>
</g>
<!-- Node3&#45;&gt;Node5 -->
<g id="edge4" class="edge">
<title>Node3&#45;&gt;Node5</title>
<path fill="none" stroke="midnightblue" d="M403.03,-516.38C433.39,-496.95 502.62,-452.64 543.54,-426.46"/>
<polygon fill="midnightblue" stroke="midnightblue" points="545.53,-429.34 552.06,-421 541.75,-423.44 545.53,-429.34"/>
</g>
<!-- Node8 -->
<g id="node8" class="node">
<title>Node8</title>
<g id="a_node8"><a xlink:href="classcVectorOperations.html#a9bd28bd08f5a6b096d99a4a2f7d23e90" target="_top" xlink:title="Subtracts the scaled input vector from the output vector.">
<polygon fill="white" stroke="black" points="689,-391 689,-421 807,-421 807,-391 689,-391"/>
<text text-anchor="start" x="697" y="-409" font-family="Helvetica,sans-Serif" font-size="10.00">cVectorOperations::</text>
<text text-anchor="middle" x="748" y="-398" font-family="Helvetica,sans-Serif" font-size="10.00">subtract_scaled_vector</text>
</a>
</g>
</g>
<!-- Node3&#45;&gt;Node8 -->
<g id="edge13" class="edge">
<title>Node3&#45;&gt;Node8</title>
<path fill="none" stroke="midnightblue" d="M434.69,-535.51C500.63,-547.9 617.02,-565.71 653,-545 680.61,-529.1 671.38,-509.55 689,-483 701.3,-464.46 716.46,-444.42 728.2,-429.43"/>
<polygon fill="midnightblue" stroke="midnightblue" points="731.22,-431.25 734.67,-421.24 725.72,-426.92 731.22,-431.25"/>
</g>
<!-- Node9 -->
<g id="node9" class="node">
<title>Node9</title>
<g id="a_node9"><a xlink:href="classcVectorOperations.html#aeb0171f2644e3036907bbbddf47ce998" target="_top" xlink:title="Normalizes a vector based on Euclidean 2&#45;norm. The result is written into another vector.">
<polygon fill="white" stroke="black" points="507.5,-593 507.5,-623 645.5,-623 645.5,-593 507.5,-593"/>
<text text-anchor="start" x="515.5" y="-611" font-family="Helvetica,sans-Serif" font-size="10.00">cVectorOperations::</text>
<text text-anchor="middle" x="576.5" y="-600" font-family="Helvetica,sans-Serif" font-size="10.00">normalize_vector_and_copy</text>
</a>
</g>
</g>
<!-- Node3&#45;&gt;Node9 -->
<g id="edge8" class="edge">
<title>Node3&#45;&gt;Node9</title>
<path fill="none" stroke="midnightblue" d="M437.93,-535.55C446.9,-538.25 455.94,-541.68 464,-546 482.87,-556.11 481.78,-566.77 500,-578 506.36,-581.92 513.31,-585.5 520.35,-588.71"/>
<polygon fill="midnightblue" stroke="midnightblue" points="519.37,-592.11 529.94,-592.87 522.16,-585.68 519.37,-592.11"/>
</g>
<!-- Node11 -->
<g id="node11" class="node">
<title>Node11</title>
<g id="a_node11"><a xlink:href="classcVectorOperations.html#ab0991d74cadf3a3969f0723dbff55dc9" target="_top" xlink:title="Normalizes a vector based on Euclidean 2&#45;norm. The result is written in&#45;place.">
<polygon fill="white" stroke="black" points="510.5,-642 510.5,-672 642.5,-672 642.5,-642 510.5,-642"/>
<text text-anchor="start" x="518.5" y="-660" font-family="Helvetica,sans-Serif" font-size="10.00">cVectorOperations::</text>
<text text-anchor="middle" x="576.5" y="-649" font-family="Helvetica,sans-Serif" font-size="10.00">normalize_vector_in_place</text>
</a>
</g>
</g>
<!-- Node3&#45;&gt;Node11 -->
<g id="edge11" class="edge">
<title>Node3&#45;&gt;Node11</title>
<path fill="none" stroke="midnightblue" d="M447.22,-535.62C453.31,-538.3 459.07,-541.69 464,-546 495.52,-573.53 469.19,-604.69 500,-633 501.29,-634.18 502.63,-635.31 504.03,-636.38"/>
<polygon fill="midnightblue" stroke="midnightblue" points="502.22,-639.37 512.5,-641.92 506.05,-633.52 502.22,-639.37"/>
</g>
<!-- Node12 -->
<g id="node12" class="node">
<title>Node12</title>
<g id="a_node12"><a xlink:href="classcLinearOperator.html#a40f5051c4399ebfa153ef7147e10a6e6" target="_top" xlink:title=" ">
<polygon fill="white" stroke="black" points="500,-691.5 500,-710.5 653,-710.5 653,-691.5 500,-691.5"/>
<text text-anchor="middle" x="576.5" y="-698.5" font-family="Helvetica,sans-Serif" font-size="10.00">cLinearOperator::transpose_dot</text>
</a>
</g>
</g>
<!-- Node3&#45;&gt;Node12 -->
<g id="edge14" class="edge">
<title>Node3&#45;&gt;Node12</title>
<path fill="none" stroke="midnightblue" d="M448.93,-535.52C454.49,-538.23 459.66,-541.66 464,-546 508.24,-590.18 455.52,-638.06 500,-682 501.44,-683.42 502.97,-684.75 504.58,-685.98"/>
<polygon fill="midnightblue" stroke="midnightblue" points="502.84,-689.01 513.17,-691.36 506.56,-683.08 502.84,-689.01"/>
</g>
<!-- Node6 -->
<g id="node6" class="node">
<title>Node6</title>
<g id="a_node6"><a xlink:href="classcVectorOperations.html#abd0d2c941f9d3598f42026755cbc4709" target="_top" xlink:title="Computes the Euclidean norm of a 1D array.">
<polygon fill="white" stroke="black" points="696,-567 696,-597 800,-597 800,-567 696,-567"/>
<text text-anchor="start" x="704" y="-585" font-family="Helvetica,sans-Serif" font-size="10.00">cVectorOperations::</text>
<text text-anchor="middle" x="748" y="-574" font-family="Helvetica,sans-Serif" font-size="10.00">euclidean_norm</text>
</a>
</g>
</g>
<!-- Node5&#45;&gt;Node6 -->
<g id="edge5" class="edge">
<title>Node5&#45;&gt;Node6</title>
<path fill="none" stroke="midnightblue" d="M597.21,-421.14C613.33,-434.11 636.14,-453.84 653,-474 672.47,-497.27 669.28,-508.94 689,-532 697.79,-542.29 708.76,-552.3 718.79,-560.62"/>
<polygon fill="midnightblue" stroke="midnightblue" points="716.59,-563.35 726.57,-566.92 721,-557.91 716.59,-563.35"/>
</g>
<!-- Node7 -->
<g id="node7" class="node">
<title>Node7</title>
<g id="a_node7"><a xlink:href="classcVectorOperations.html#ab8b945baba573b4479e8095ca87f8b3f" target="_top" xlink:title="Computes Euclidean inner product of two vectors.">
<polygon fill="white" stroke="black" points="696,-301 696,-331 800,-331 800,-301 696,-301"/>
<text text-anchor="start" x="704" y="-319" font-family="Helvetica,sans-Serif" font-size="10.00">cVectorOperations::</text>
<text text-anchor="middle" x="748" y="-308" font-family="Helvetica,sans-Serif" font-size="10.00">inner_product</text>
</a>
</g>
</g>
<!-- Node5&#45;&gt;Node7 -->
<g id="edge6" class="edge">
<title>Node5&#45;&gt;Node7</title>
<path fill="none" stroke="midnightblue" d="M631.91,-390.91C639.14,-388.27 646.34,-385.3 653,-382 677.41,-369.9 702.55,-351.92 720.67,-337.78"/>
<polygon fill="midnightblue" stroke="midnightblue" points="723.32,-340.14 728.98,-331.18 718.97,-334.66 723.32,-340.14"/>
</g>
<!-- Node5&#45;&gt;Node8 -->
<g id="edge7" class="edge">
<title>Node5&#45;&gt;Node8</title>
<path fill="none" stroke="midnightblue" d="M638.69,-406C651.56,-406 665.22,-406 678.34,-406"/>
<polygon fill="midnightblue" stroke="midnightblue" points="678.73,-409.5 688.73,-406 678.73,-402.5 678.73,-409.5"/>
</g>
<!-- Node9&#45;&gt;Node6 -->
<g id="edge10" class="edge">
<title>Node9&#45;&gt;Node6</title>
<path fill="none" stroke="midnightblue" d="M645.95,-597.5C659.08,-595.49 672.74,-593.39 685.62,-591.41"/>
<polygon fill="midnightblue" stroke="midnightblue" points="686.41,-594.84 695.76,-589.86 685.35,-587.92 686.41,-594.84"/>
</g>
<!-- Node10 -->
<g id="node10" class="node">
<title>Node10</title>
<g id="a_node10"><a xlink:href="classcVectorOperations.html#a6627fe95659faa224dca2af1dab1fab3" target="_top" xlink:title="Scales a vector and stores to a new vector.">
<polygon fill="white" stroke="black" points="696,-492 696,-522 800,-522 800,-492 696,-492"/>
<text text-anchor="start" x="704" y="-510" font-family="Helvetica,sans-Serif" font-size="10.00">cVectorOperations::</text>
<text text-anchor="middle" x="748" y="-499" font-family="Helvetica,sans-Serif" font-size="10.00">copy_scaled_vector</text>
</a>
</g>
</g>
<!-- Node9&#45;&gt;Node10 -->
<g id="edge9" class="edge">
<title>Node9&#45;&gt;Node10</title>
<path fill="none" stroke="midnightblue" d="M621.15,-592.96C631.83,-588.66 643.04,-583.6 653,-578 678.04,-563.91 703.9,-543.9 722.15,-528.72"/>
<polygon fill="midnightblue" stroke="midnightblue" points="724.58,-531.24 729.97,-522.12 720.07,-525.89 724.58,-531.24"/>
</g>
<!-- Node11&#45;&gt;Node6 -->
<g id="edge12" class="edge">
<title>Node11&#45;&gt;Node6</title>
<path fill="none" stroke="midnightblue" d="M629.55,-641.88C637.5,-639.17 645.53,-636.18 653,-633 673.66,-624.21 695.77,-612.34 713.36,-602.27"/>
<polygon fill="midnightblue" stroke="midnightblue" points="715.22,-605.24 722.11,-597.19 711.71,-599.18 715.22,-605.24"/>
</g>
<!-- Node13&#45;&gt;Node4 -->
<g id="edge18" class="edge">
<title>Node13&#45;&gt;Node4</title>
<path fill="none" stroke="midnightblue" d="M406.71,-459.58C428.69,-470.62 466.44,-488.94 500,-502 510.5,-506.09 522.01,-510.02 532.81,-513.47"/>
<polygon fill="midnightblue" stroke="midnightblue" points="531.89,-516.85 542.48,-516.5 533.98,-510.17 531.89,-516.85"/>
</g>
<!-- Node13&#45;&gt;Node5 -->
<g id="edge20" class="edge">
<title>Node13&#45;&gt;Node5</title>
<path fill="none" stroke="midnightblue" d="M428.68,-440.45C450.74,-435.28 478.65,-428.73 504.19,-422.73"/>
<polygon fill="midnightblue" stroke="midnightblue" points="505.28,-426.07 514.22,-420.38 503.68,-419.26 505.28,-426.07"/>
</g>
<!-- Node13&#45;&gt;Node6 -->
<g id="edge19" class="edge">
<title>Node13&#45;&gt;Node6</title>
<path fill="none" stroke="midnightblue" d="M432.53,-459.54C507.85,-475.69 652.37,-506.7 653,-507 667.79,-514.01 699.71,-540.55 722.24,-560.08"/>
<polygon fill="midnightblue" stroke="midnightblue" points="720.23,-562.97 730.06,-566.91 724.83,-557.7 720.23,-562.97"/>
</g>
<!-- Node13&#45;&gt;Node7 -->
<g id="edge21" class="edge">
<title>Node13&#45;&gt;Node7</title>
<path fill="none" stroke="midnightblue" d="M450.66,-440.32C455.55,-437.85 460.09,-434.78 464,-431 505.86,-390.51 453.5,-340.07 500,-305 557.59,-261.56 646,-279.89 699.95,-297.61"/>
<polygon fill="midnightblue" stroke="midnightblue" points="699.02,-300.99 709.61,-300.9 701.27,-294.36 699.02,-300.99"/>
</g>
<!-- Node13&#45;&gt;Node8 -->
<g id="edge22" class="edge">
<title>Node13&#45;&gt;Node8</title>
<path fill="none" stroke="midnightblue" d="M449.63,-440.37C454.85,-437.89 459.75,-434.82 464,-431 498.52,-399.99 461.95,-359.56 500,-333 555.76,-294.08 588.67,-310.96 653,-333 681.99,-342.93 708.93,-365.85 726.47,-383.38"/>
<polygon fill="midnightblue" stroke="midnightblue" points="724.37,-386.24 733.85,-390.99 729.4,-381.37 724.37,-386.24"/>
</g>
<!-- Node13&#45;&gt;Node10 -->
<g id="edge16" class="edge">
<title>Node13&#45;&gt;Node10</title>
<path fill="none" stroke="midnightblue" d="M456.51,-451.56C510.43,-453.91 587.21,-459.7 653,-474 668.94,-477.46 685.9,-482.86 700.96,-488.29"/>
<polygon fill="midnightblue" stroke="midnightblue" points="699.96,-491.65 710.55,-491.84 702.39,-485.08 699.96,-491.65"/>
</g>
<!-- Node14 -->
<g id="node14" class="node">
<title>Node14</title>
<g id="a_node14"><a xlink:href="classcVectorOperations.html#a492894cdc368a4f60b28aa15109cf9bc" target="_top" xlink:title="Copies a vector to a new vector. Result is written in&#45;place.">
<polygon fill="white" stroke="black" points="524.5,-342 524.5,-372 628.5,-372 628.5,-342 524.5,-342"/>
<text text-anchor="start" x="532.5" y="-360" font-family="Helvetica,sans-Serif" font-size="10.00">cVectorOperations::</text>
<text text-anchor="middle" x="576.5" y="-349" font-family="Helvetica,sans-Serif" font-size="10.00">copy_vector</text>
</a>
</g>
</g>
<!-- Node13&#45;&gt;Node14 -->
<g id="edge17" class="edge">
<title>Node13&#45;&gt;Node14</title>
<path fill="none" stroke="midnightblue" d="M445.07,-440.4C451.76,-437.94 458.24,-434.87 464,-431 486.44,-415.94 478.14,-397.89 500,-382 504.54,-378.7 509.54,-375.82 514.74,-373.31"/>
<polygon fill="midnightblue" stroke="midnightblue" points="516.48,-376.37 524.25,-369.17 513.69,-369.95 516.48,-376.37"/>
</g>
<!-- Node16 -->
<g id="node16" class="node">
<title>Node16</title>
<g id="a_node16"><a xlink:href="lapack__api_8h.html#a829a495cf9df4ce926be95ee1c6163a8" target="_top" xlink:title=" ">
<polygon fill="white" stroke="black" points="539.5,-227.5 539.5,-246.5 613.5,-246.5 613.5,-227.5 539.5,-227.5"/>
<text text-anchor="middle" x="576.5" y="-234.5" font-family="Helvetica,sans-Serif" font-size="10.00">lapack_xstev</text>
</a>
</g>
</g>
<!-- Node15&#45;&gt;Node16 -->
<g id="edge24" class="edge">
<title>Node15&#45;&gt;Node16</title>
<path fill="none" stroke="midnightblue" d="M440.87,-396.72C449.44,-393.26 457.6,-388.51 464,-382 503.34,-342 460.7,-301.04 500,-261 507.97,-252.88 518.66,-247.51 529.5,-243.95"/>
<polygon fill="midnightblue" stroke="midnightblue" points="530.73,-247.24 539.41,-241.16 528.83,-240.5 530.73,-247.24"/>
</g>
<!-- Node18 -->
<g id="node18" class="node">
<title>Node18</title>
<g id="a_node18"><a xlink:href="classRandomNumberGenerator.html#a91d8b9726bda7dcd40f9b992b2a1bccd" target="_top" xlink:title="Generates the next random number in the sequence, depending on the thread id.">
<polygon fill="white" stroke="black" points="511,-178 511,-208 642,-208 642,-178 511,-178"/>
<text text-anchor="start" x="519" y="-196" font-family="Helvetica,sans-Serif" font-size="10.00">RandomNumberGenerator</text>
<text text-anchor="middle" x="576.5" y="-185" font-family="Helvetica,sans-Serif" font-size="10.00">::next</text>
</a>
</g>
</g>
<!-- Node17&#45;&gt;Node18 -->
<g id="edge26" class="edge">
<title>Node17&#45;&gt;Node18</title>
<path fill="none" stroke="midnightblue" d="M449.56,-343.55C454.86,-340.69 459.8,-337.21 464,-333 501.82,-295.08 462.44,-256.18 500,-218 501.42,-216.56 502.92,-215.2 504.49,-213.93"/>
<polygon fill="midnightblue" stroke="midnightblue" points="506.61,-216.71 512.86,-208.16 502.64,-210.95 506.61,-216.71"/>
</g>
<!-- Node19 -->
<g id="node19" class="node">
<title>Node19</title>
<g id="a_node19"><a xlink:href="classXoshiro256StarStar.html#a6a99f74d2ed5f6e3667d785c46bf9569" target="_top" xlink:title="Generates the next presudo&#45;random number.">
<polygon fill="white" stroke="black" points="697.5,-178 697.5,-208 798.5,-208 798.5,-178 697.5,-178"/>
<text text-anchor="start" x="705.5" y="-196" font-family="Helvetica,sans-Serif" font-size="10.00">Xoshiro256StarStar</text>
<text text-anchor="middle" x="748" y="-185" font-family="Helvetica,sans-Serif" font-size="10.00">::next</text>
</a>
</g>
</g>
<!-- Node18&#45;&gt;Node19 -->
<g id="edge27" class="edge">
<title>Node18&#45;&gt;Node19</title>
<path fill="none" stroke="midnightblue" d="M642.06,-193C656.82,-193 672.44,-193 687,-193"/>
<polygon fill="midnightblue" stroke="midnightblue" points="687.38,-196.5 697.38,-193 687.38,-189.5 687.38,-196.5"/>
</g>
<!-- Node20 -->
<g id="node20" class="node">
<title>Node20</title>
<g id="a_node20"><a xlink:href="classXoshiro256StarStar.html#a3b10c22cbac4ff9bf4447e28e57f7a72" target="_top" xlink:title="Rotates the bits of a 64 bit integer toward left.">
<polygon fill="white" stroke="black" points="843,-178 843,-208 944,-208 944,-178 843,-178"/>
<text text-anchor="start" x="851" y="-196" font-family="Helvetica,sans-Serif" font-size="10.00">Xoshiro256StarStar</text>
<text text-anchor="middle" x="893.5" y="-185" font-family="Helvetica,sans-Serif" font-size="10.00">::rotation_left</text>
</a>
</g>
</g>
<!-- Node19&#45;&gt;Node20 -->
<g id="edge28" class="edge">
<title>Node19&#45;&gt;Node20</title>
<path fill="none" stroke="midnightblue" d="M798.79,-193C809.69,-193 821.35,-193 832.61,-193"/>
<polygon fill="midnightblue" stroke="midnightblue" points="832.8,-196.5 842.8,-193 832.8,-189.5 832.8,-196.5"/>
</g>
<!-- Node27 -->
<g id="node27" class="node">
<title>Node27</title>
<g id="a_node27"><a xlink:href="lapack__api_8h.html#a14ad2b140c825a35e626fadf98fe495b" target="_top" xlink:title=" ">
<polygon fill="white" stroke="black" points="535.5,-729.5 535.5,-748.5 617.5,-748.5 617.5,-729.5 535.5,-729.5"/>
<text text-anchor="middle" x="576.5" y="-736.5" font-family="Helvetica,sans-Serif" font-size="10.00">lapack_xbdsdc</text>
</a>
</g>
</g>
<!-- Node26&#45;&gt;Node27 -->
<g id="edge35" class="edge">
<title>Node26&#45;&gt;Node27</title>
<path fill="none" stroke="midnightblue" d="M439.77,-579.48C448.76,-583.1 457.35,-588.1 464,-595 504.11,-636.64 458.43,-679.82 500,-720 507,-726.76 516.03,-731.23 525.4,-734.15"/>
<polygon fill="midnightblue" stroke="midnightblue" points="524.66,-737.57 535.21,-736.66 526.4,-730.79 524.66,-737.57"/>
</g>
<!-- Node29 -->
<g id="node29" class="node">
<title>Node29</title>
<g id="a_node29"><a xlink:href="py__c__trace__estimator_8h.html#a46ed18cec69b159501e7cf93de3ab500" target="_top" xlink:title=" ">
<polygon fill="white" stroke="black" points="364,-132.5 364,-151.5 410,-151.5 410,-132.5 364,-132.5"/>
<text text-anchor="middle" x="387" y="-139.5" font-family="Helvetica,sans-Serif" font-size="10.00">erf_inv</text>
</a>
</g>
</g>
<!-- Node28&#45;&gt;Node29 -->
<g id="edge37" class="edge">
<title>Node28&#45;&gt;Node29</title>
<path fill="none" stroke="midnightblue" d="M274.05,-134.54C301.26,-136.35 331.31,-138.35 353.43,-139.83"/>
<polygon fill="midnightblue" stroke="midnightblue" points="353.39,-143.33 363.6,-140.51 353.85,-136.35 353.39,-143.33"/>
</g>
<!-- Node30&#45;&gt;Node29 -->
<g id="edge39" class="edge">
<title>Node30&#45;&gt;Node29</title>
<path fill="none" stroke="midnightblue" d="M270.22,-165.8C298.59,-159.97 330.69,-153.37 353.88,-148.6"/>
<polygon fill="midnightblue" stroke="midnightblue" points="354.77,-151.99 363.87,-146.55 353.37,-145.14 354.77,-151.99"/>
</g>
<!-- Node33 -->
<g id="node33" class="node">
<title>Node33</title>
<g id="a_node33"><a xlink:href="classTimer.html#a46df9c79ce115f9d206c92abcd5969f4" target="_top" xlink:title="Returns the wall time since the epoch.">
<polygon fill="white" stroke="black" points="333.5,-19.5 333.5,-38.5 440.5,-38.5 440.5,-19.5 333.5,-19.5"/>
<text text-anchor="middle" x="387" y="-26.5" font-family="Helvetica,sans-Serif" font-size="10.00">Timer::get_wall_time</text>
</a>
</g>
</g>
<!-- Node32&#45;&gt;Node33 -->
<g id="edge43" class="edge">
<title>Node32&#45;&gt;Node33</title>
<path fill="none" stroke="midnightblue" d="M238.6,-13.44C262.06,-15.92 294.45,-19.34 322.89,-22.34"/>
<polygon fill="midnightblue" stroke="midnightblue" points="322.86,-25.85 333.17,-23.42 323.59,-18.89 322.86,-25.85"/>
</g>
<!-- Node34&#45;&gt;Node33 -->
<g id="edge45" class="edge">
<title>Node34&#45;&gt;Node33</title>
<path fill="none" stroke="midnightblue" d="M238.18,-44.6C261.79,-42.11 294.6,-38.65 323.32,-35.62"/>
<polygon fill="midnightblue" stroke="midnightblue" points="323.71,-39.09 333.28,-34.56 322.97,-32.13 323.71,-39.09"/>
</g>
</g>
</svg>
