<?xml version="1.0" encoding="UTF-8" standalone="no"?>
<!DOCTYPE svg PUBLIC "-//W3C//DTD SVG 1.1//EN"
 "http://www.w3.org/Graphics/SVG/1.1/DTD/svg11.dtd">
<!-- Generated by graphviz version 2.43.0 (0)
 -->
<!-- Title: cOrthogonalization::gram_schmidt_process Pages: 1 -->
<svg width="286pt" height="137pt"
 viewBox="0.00 0.00 286.00 137.00" xmlns="http://www.w3.org/2000/svg" xmlns:xlink="http://www.w3.org/1999/xlink">
<g id="graph0" class="graph" transform="scale(1 1) rotate(0) translate(4 133)">
<title>cOrthogonalization::gram_schmidt_process</title>
<polygon fill="white" stroke="transparent" points="-4,4 -4,-133 282,-133 282,4 -4,4"/>
<!-- Node1 -->
<g id="node1" class="node">
<title>Node1</title>
<g id="a_node1"><a xlink:title="Modified Gram&#45;Schmidt orthogonalization process to orthogonalize the vector v against a subset of the...">
<polygon fill="#bfbfbf" stroke="black" points="0,-49.5 0,-79.5 124,-79.5 124,-49.5 0,-49.5"/>
<text text-anchor="start" x="8" y="-67.5" font-family="Helvetica,sans-Serif" font-size="10.00">cOrthogonalization</text>
<text text-anchor="middle" x="62" y="-56.5" font-family="Helvetica,sans-Serif" font-size="10.00">::gram_schmidt_process</text>
</a>
</g>
</g>
<!-- Node2 -->
<g id="node2" class="node">
<title>Node2</title>
<g id="a_node2"><a xlink:href="classcVectorOperations.html#abd0d2c941f9d3598f42026755cbc4709" target="_top" xlink:title="Computes the Euclidean norm of a 1D array.">
<polygon fill="white" stroke="black" points="167,-98.5 167,-128.5 271,-128.5 271,-98.5 167,-98.5"/>
<text text-anchor="start" x="175" y="-116.5" font-family="Helvetica,sans-Serif" font-size="10.00">cVectorOperations::</text>
<text text-anchor="middle" x="219" y="-105.5" font-family="Helvetica,sans-Serif" font-size="10.00">euclidean_norm</text>
</a>
</g>
</g>
<!-- Node1&#45;&gt;Node2 -->
<g id="edge1" class="edge">
<title>Node1&#45;&gt;Node2</title>
<path fill="none" stroke="midnightblue" d="M110.77,-79.6C126.46,-84.56 144.07,-90.13 160.41,-95.29"/>
<polygon fill="midnightblue" stroke="midnightblue" points="159.8,-98.77 170.39,-98.45 161.91,-92.1 159.8,-98.77"/>
</g>
<!-- Node3 -->
<g id="node3" class="node">
<title>Node3</title>
<g id="a_node3"><a xlink:href="classcVectorOperations.html#ab8b945baba573b4479e8095ca87f8b3f" target="_top" xlink:title="Computes Euclidean inner product of two vectors.">
<polygon fill="white" stroke="black" points="167,-49.5 167,-79.5 271,-79.5 271,-49.5 167,-49.5"/>
<text text-anchor="start" x="175" y="-67.5" font-family="Helvetica,sans-Serif" font-size="10.00">cVectorOperations::</text>
<text text-anchor="middle" x="219" y="-56.5" font-family="Helvetica,sans-Serif" font-size="10.00">inner_product</text>
</a>
</g>
</g>
<!-- Node1&#45;&gt;Node3 -->
<g id="edge2" class="edge">
<title>Node1&#45;&gt;Node3</title>
<path fill="none" stroke="midnightblue" d="M124.26,-64.5C134.9,-64.5 145.98,-64.5 156.63,-64.5"/>
<polygon fill="midnightblue" stroke="midnightblue" points="156.68,-68 166.68,-64.5 156.68,-61 156.68,-68"/>
</g>
<!-- Node4 -->
<g id="node4" class="node">
<title>Node4</title>
<g id="a_node4"><a xlink:href="classcVectorOperations.html#a9bd28bd08f5a6b096d99a4a2f7d23e90" target="_top" xlink:title="Subtracts the scaled input vector from the output vector.">
<polygon fill="white" stroke="black" points="160,-0.5 160,-30.5 278,-30.5 278,-0.5 160,-0.5"/>
<text text-anchor="start" x="168" y="-18.5" font-family="Helvetica,sans-Serif" font-size="10.00">cVectorOperations::</text>
<text text-anchor="middle" x="219" y="-7.5" font-family="Helvetica,sans-Serif" font-size="10.00">subtract_scaled_vector</text>
</a>
</g>
</g>
<!-- Node1&#45;&gt;Node4 -->
<g id="edge3" class="edge">
<title>Node1&#45;&gt;Node4</title>
<path fill="none" stroke="midnightblue" d="M110.77,-49.4C126.46,-44.44 144.07,-38.87 160.41,-33.71"/>
<polygon fill="midnightblue" stroke="midnightblue" points="161.91,-36.9 170.39,-30.55 159.8,-30.23 161.91,-36.9"/>
</g>
</g>
</svg>
