<?xml version="1.0" encoding="UTF-8" standalone="no"?>
<!DOCTYPE svg PUBLIC "-//W3C//DTD SVG 1.1//EN"
 "http://www.w3.org/Graphics/SVG/1.1/DTD/svg11.dtd">
<!-- Generated by graphviz version 2.43.0 (0)
 -->
<!-- Title: cVectorOperations::copy_scaled_vector Pages: 1 -->
<svg width="754pt" height="76pt"
 viewBox="0.00 0.00 754.00 75.50" xmlns="http://www.w3.org/2000/svg" xmlns:xlink="http://www.w3.org/1999/xlink">
<g id="graph0" class="graph" transform="scale(1 1) rotate(0) translate(4 71.5)">
<title>cVectorOperations::copy_scaled_vector</title>
<polygon fill="white" stroke="transparent" points="-4,4 -4,-71.5 750,-71.5 750,4 -4,4"/>
<!-- Node1 -->
<g id="node1" class="node">
<title>Node1</title>
<g id="a_node1"><a xlink:title="Scales a vector and stores to a new vector.">
<polygon fill="#bfbfbf" stroke="black" points="642,-22.5 642,-52.5 746,-52.5 746,-22.5 642,-22.5"/>
<text text-anchor="start" x="650" y="-40.5" font-family="Helvetica,sans-Serif" font-size="10.00">cVectorOperations::</text>
<text text-anchor="middle" x="694" y="-29.5" font-family="Helvetica,sans-Serif" font-size="10.00">copy_scaled_vector</text>
</a>
</g>
</g>
<!-- Node2 -->
<g id="node2" class="node">
<title>Node2</title>
<g id="a_node2"><a xlink:href="c__lanczos__tridiagonalization_8cpp.html#a88831f1a1ba564b198f446a7c8a8d5ef" target="_top" xlink:title="Tri&#45;diagonalizes matrix A to T using the start vector v. is the Lanczos degree, which will be the siz...">
<polygon fill="white" stroke="black" points="285.5,-48 285.5,-67 424.5,-67 424.5,-48 285.5,-48"/>
<text text-anchor="middle" x="355" y="-55" font-family="Helvetica,sans-Serif" font-size="10.00">c_lanczos_tridiagonalization</text>
</a>
</g>
</g>
<!-- Node1&#45;&gt;Node2 -->
<g id="edge1" class="edge">
<title>Node1&#45;&gt;Node2</title>
<path fill="none" stroke="midnightblue" d="M631.62,-41.14C573.17,-44.61 485.35,-49.82 424.62,-53.43"/>
<polygon fill="midnightblue" stroke="midnightblue" points="632.04,-44.62 641.82,-40.54 631.63,-37.64 632.04,-44.62"/>
</g>
<!-- Node5 -->
<g id="node5" class="node">
<title>Node5</title>
<g id="a_node5"><a xlink:href="classcVectorOperations.html#aeb0171f2644e3036907bbbddf47ce998" target="_top" xlink:title="Normalizes a vector based on Euclidean 2&#45;norm. The result is written into another vector.">
<polygon fill="white" stroke="black" points="468,-0.5 468,-30.5 606,-30.5 606,-0.5 468,-0.5"/>
<text text-anchor="start" x="476" y="-18.5" font-family="Helvetica,sans-Serif" font-size="10.00">cVectorOperations::</text>
<text text-anchor="middle" x="537" y="-7.5" font-family="Helvetica,sans-Serif" font-size="10.00">normalize_vector_and_copy</text>
</a>
</g>
</g>
<!-- Node1&#45;&gt;Node5 -->
<g id="edge4" class="edge">
<title>Node1&#45;&gt;Node5</title>
<path fill="none" stroke="midnightblue" d="M631.77,-28.81C623.39,-27.62 614.76,-26.39 606.27,-25.19"/>
<polygon fill="midnightblue" stroke="midnightblue" points="631.42,-32.3 641.82,-30.24 632.41,-25.36 631.42,-32.3"/>
</g>
<!-- Node3 -->
<g id="node3" class="node">
<title>Node3</title>
<g id="a_node3"><a xlink:href="classcTraceEstimator.html#a02afa505a915c58380b99a62e4d56b30" target="_top" xlink:title="For a given random input vector, computes one Monte&#45;Carlo sample to estimate trace using Lanczos quad...">
<polygon fill="white" stroke="black" points="136,-17 136,-58 242,-58 242,-17 136,-17"/>
<text text-anchor="start" x="144" y="-46" font-family="Helvetica,sans-Serif" font-size="10.00">cTraceEstimator::_c</text>
<text text-anchor="start" x="144" y="-35" font-family="Helvetica,sans-Serif" font-size="10.00">_stochastic_lanczos</text>
<text text-anchor="middle" x="189" y="-24" font-family="Helvetica,sans-Serif" font-size="10.00">_quadrature</text>
</a>
</g>
</g>
<!-- Node2&#45;&gt;Node3 -->
<g id="edge2" class="edge">
<title>Node2&#45;&gt;Node3</title>
<path fill="none" stroke="midnightblue" d="M275.15,-47.88C263.93,-46.52 252.64,-45.14 242.11,-43.85"/>
<polygon fill="midnightblue" stroke="midnightblue" points="275.05,-51.4 285.4,-49.13 275.9,-44.45 275.05,-51.4"/>
</g>
<!-- Node4 -->
<g id="node4" class="node">
<title>Node4</title>
<g id="a_node4"><a xlink:href="classcTraceEstimator.html#a29144b4d62c71f0889002754384f57f4" target="_top" xlink:title="Stochastic Lanczos quadrature method to estimate trace of a function of a linear operator....">
<polygon fill="white" stroke="black" points="0,-22.5 0,-52.5 100,-52.5 100,-22.5 0,-22.5"/>
<text text-anchor="start" x="8" y="-40.5" font-family="Helvetica,sans-Serif" font-size="10.00">cTraceEstimator::c</text>
<text text-anchor="middle" x="50" y="-29.5" font-family="Helvetica,sans-Serif" font-size="10.00">_trace_estimator</text>
</a>
</g>
</g>
<!-- Node3&#45;&gt;Node4 -->
<g id="edge3" class="edge">
<title>Node3&#45;&gt;Node4</title>
<path fill="none" stroke="midnightblue" d="M125.58,-37.5C117.12,-37.5 108.53,-37.5 100.33,-37.5"/>
<polygon fill="midnightblue" stroke="midnightblue" points="125.82,-41 135.82,-37.5 125.82,-34 125.82,-41"/>
</g>
<!-- Node6 -->
<g id="node6" class="node">
<title>Node6</title>
<g id="a_node6"><a xlink:href="c__golub__kahn__bidiagonalization_8cpp.html#a6125b021cd93b43ab4d9f20813487f85" target="_top" xlink:title="Bi&#45;diagonalizes the positive&#45;definite matrix A using Golub&#45;Kahn&#45;Lanczos method.">
<polygon fill="white" stroke="black" points="278,-9 278,-28 432,-28 432,-9 278,-9"/>
<text text-anchor="middle" x="355" y="-16" font-family="Helvetica,sans-Serif" font-size="10.00">c_golub_kahn_bidiagonalization</text>
</a>
</g>
</g>
<!-- Node5&#45;&gt;Node6 -->
<g id="edge5" class="edge">
<title>Node5&#45;&gt;Node6</title>
<path fill="none" stroke="midnightblue" d="M457.74,-16.8C449.29,-16.95 440.71,-17.09 432.29,-17.23"/>
<polygon fill="midnightblue" stroke="midnightblue" points="458.01,-20.3 467.95,-16.63 457.89,-13.3 458.01,-20.3"/>
</g>
<!-- Node6&#45;&gt;Node3 -->
<g id="edge6" class="edge">
<title>Node6&#45;&gt;Node3</title>
<path fill="none" stroke="midnightblue" d="M267.58,-28.51C258.92,-29.52 250.32,-30.51 242.17,-31.46"/>
<polygon fill="midnightblue" stroke="midnightblue" points="268.23,-31.96 277.76,-27.33 267.43,-25.01 268.23,-31.96"/>
</g>
</g>
</svg>
