<?xml version="1.0" encoding="UTF-8" standalone="no"?>
<!DOCTYPE svg PUBLIC "-//W3C//DTD SVG 1.1//EN"
 "http://www.w3.org/Graphics/SVG/1.1/DTD/svg11.dtd">
<!-- Generated by graphviz version 2.43.0 (0)
 -->
<!-- Title: cuAffineMatrixFunction&lt; DataType &gt; Pages: 1 -->
<svg width="159pt" height="151pt"
 viewBox="0.00 0.00 159.00 151.00" xmlns="http://www.w3.org/2000/svg" xmlns:xlink="http://www.w3.org/1999/xlink">
<g id="graph0" class="graph" transform="scale(1 1) rotate(0) translate(4 147)">
<title>cuAffineMatrixFunction&lt; DataType &gt;</title>
<polygon fill="white" stroke="transparent" points="-4,4 -4,-147 155,-147 155,4 -4,4"/>
<!-- Node1 -->
<g id="node1" class="node">
<title>Node1</title>
<g id="a_node1"><a xlink:title="Base class for affine matrix functions of one parameter.">
<polygon fill="#bfbfbf" stroke="black" points="17,-0.5 17,-30.5 134,-30.5 134,-0.5 17,-0.5"/>
<text text-anchor="start" x="25" y="-18.5" font-family="Helvetica,sans-Serif" font-size="10.00">cuAffineMatrixFunction</text>
<text text-anchor="middle" x="75.5" y="-7.5" font-family="Helvetica,sans-Serif" font-size="10.00">&lt; DataType &gt;</text>
</a>
</g>
</g>
<!-- Node2 -->
<g id="node2" class="node">
<title>Node2</title>
<g id="a_node2"><a xlink:href="classcuLinearOperator.html" target="_top" xlink:title="Base class for linear operators. This class serves as interface for all derived classes.">
<polygon fill="white" stroke="black" points="0,-67.5 0,-86.5 151,-86.5 151,-67.5 0,-67.5"/>
<text text-anchor="middle" x="75.5" y="-74.5" font-family="Helvetica,sans-Serif" font-size="10.00">cuLinearOperator&lt; DataType &gt;</text>
</a>
</g>
</g>
<!-- Node2&#45;&gt;Node1 -->
<g id="edge1" class="edge">
<title>Node2&#45;&gt;Node1</title>
<path fill="none" stroke="midnightblue" d="M75.5,-57.23C75.5,-48.59 75.5,-38.5 75.5,-30.52"/>
<polygon fill="midnightblue" stroke="midnightblue" points="72,-57.48 75.5,-67.48 79,-57.48 72,-57.48"/>
</g>
<!-- Node3 -->
<g id="node3" class="node">
<title>Node3</title>
<g id="a_node3"><a xlink:href="classcLinearOperator.html" target="_top" xlink:title="Base class for linear operators. This class serves as interface for all derived classes.">
<polygon fill="white" stroke="black" points="2.5,-123.5 2.5,-142.5 148.5,-142.5 148.5,-123.5 2.5,-123.5"/>
<text text-anchor="middle" x="75.5" y="-130.5" font-family="Helvetica,sans-Serif" font-size="10.00">cLinearOperator&lt; DataType &gt;</text>
</a>
</g>
</g>
<!-- Node3&#45;&gt;Node2 -->
<g id="edge2" class="edge">
<title>Node3&#45;&gt;Node2</title>
<path fill="none" stroke="midnightblue" d="M75.5,-112.8C75.5,-103.91 75.5,-93.78 75.5,-86.75"/>
<polygon fill="midnightblue" stroke="midnightblue" points="72,-113.08 75.5,-123.08 79,-113.08 72,-113.08"/>
</g>
</g>
</svg>
