<?xml version="1.0" encoding="UTF-8" standalone="no"?>
<!DOCTYPE svg PUBLIC "-//W3C//DTD SVG 1.1//EN"
 "http://www.w3.org/Graphics/SVG/1.1/DTD/svg11.dtd">
<!-- Generated by graphviz version 2.43.0 (0)
 -->
<!-- Title: cuLinearOperator&lt; DataType &gt; Pages: 1 -->
<svg width="676pt" height="252pt"
 viewBox="0.00 0.00 676.00 251.50" xmlns="http://www.w3.org/2000/svg" xmlns:xlink="http://www.w3.org/1999/xlink">
<g id="graph0" class="graph" transform="scale(1 1) rotate(0) translate(4 247.5)">
<title>cuLinearOperator&lt; DataType &gt;</title>
<polygon fill="white" stroke="transparent" points="-4,4 -4,-247.5 672,-247.5 672,4 -4,4"/>
<!-- Node1 -->
<g id="node1" class="node">
<title>Node1</title>
<g id="a_node1"><a xlink:title="Base class for linear operators. This class serves as interface for all derived classes.">
<polygon fill="#bfbfbf" stroke="black" points="182,-79.5 182,-98.5 333,-98.5 333,-79.5 182,-79.5"/>
<text text-anchor="middle" x="257.5" y="-86.5" font-family="Helvetica,sans-Serif" font-size="10.00">cuLinearOperator&lt; DataType &gt;</text>
</a>
</g>
</g>
<!-- Node3 -->
<g id="node3" class="node">
<title>Node3</title>
<g id="a_node3"><a xlink:href="classcuAffineMatrixFunction.html" target="_top" xlink:title="Base class for affine matrix functions of one parameter.">
<polygon fill="white" stroke="black" points="369,-139 369,-169 486,-169 486,-139 369,-139"/>
<text text-anchor="start" x="377" y="-157" font-family="Helvetica,sans-Serif" font-size="10.00">cuAffineMatrixFunction</text>
<text text-anchor="middle" x="427.5" y="-146" font-family="Helvetica,sans-Serif" font-size="10.00">&lt; DataType &gt;</text>
</a>
</g>
</g>
<!-- Node1&#45;&gt;Node3 -->
<g id="edge2" class="edge">
<title>Node1&#45;&gt;Node3</title>
<path fill="none" stroke="midnightblue" d="M292.88,-102.3C320.38,-112.94 358.95,-127.86 387.58,-138.94"/>
<polygon fill="midnightblue" stroke="midnightblue" points="293.88,-98.94 283.29,-98.59 291.35,-105.46 293.88,-98.94"/>
</g>
<!-- Node7 -->
<g id="node7" class="node">
<title>Node7</title>
<g id="a_node7"><a xlink:href="classcuMatrix.html" target="_top" xlink:title="Base class for constant matrices.">
<polygon fill="white" stroke="black" points="370.5,-57.5 370.5,-76.5 484.5,-76.5 484.5,-57.5 370.5,-57.5"/>
<text text-anchor="middle" x="427.5" y="-64.5" font-family="Helvetica,sans-Serif" font-size="10.00">cuMatrix&lt; DataType &gt;</text>
</a>
</g>
</g>
<!-- Node1&#45;&gt;Node7 -->
<g id="edge6" class="edge">
<title>Node1&#45;&gt;Node7</title>
<path fill="none" stroke="midnightblue" d="M341.41,-78.14C351.23,-76.86 361.07,-75.57 370.39,-74.35"/>
<polygon fill="midnightblue" stroke="midnightblue" points="340.67,-74.71 331.21,-79.48 341.58,-81.65 340.67,-74.71"/>
</g>
<!-- Node2 -->
<g id="node2" class="node">
<title>Node2</title>
<g id="a_node2"><a xlink:href="classcLinearOperator.html" target="_top" xlink:title="Base class for linear operators. This class serves as interface for all derived classes.">
<polygon fill="white" stroke="black" points="0,-79.5 0,-98.5 146,-98.5 146,-79.5 0,-79.5"/>
<text text-anchor="middle" x="73" y="-86.5" font-family="Helvetica,sans-Serif" font-size="10.00">cLinearOperator&lt; DataType &gt;</text>
</a>
</g>
</g>
<!-- Node2&#45;&gt;Node1 -->
<g id="edge1" class="edge">
<title>Node2&#45;&gt;Node1</title>
<path fill="none" stroke="midnightblue" d="M156.14,-89C164.72,-89 173.41,-89 181.9,-89"/>
<polygon fill="midnightblue" stroke="midnightblue" points="156.13,-85.5 146.13,-89 156.13,-92.5 156.13,-85.5"/>
</g>
<!-- Node4 -->
<g id="node4" class="node">
<title>Node4</title>
<g id="a_node4"><a xlink:href="classcuCSCAffineMatrixFunction.html" target="_top" xlink:title=" ">
<polygon fill="white" stroke="black" points="525.5,-213 525.5,-243 664.5,-243 664.5,-213 525.5,-213"/>
<text text-anchor="start" x="533.5" y="-231" font-family="Helvetica,sans-Serif" font-size="10.00">cuCSCAffineMatrixFunction</text>
<text text-anchor="middle" x="595" y="-220" font-family="Helvetica,sans-Serif" font-size="10.00">&lt; DataType &gt;</text>
</a>
</g>
</g>
<!-- Node3&#45;&gt;Node4 -->
<g id="edge3" class="edge">
<title>Node3&#45;&gt;Node4</title>
<path fill="none" stroke="midnightblue" d="M463.27,-174.41C480.58,-184.1 502.03,-195.4 522,-204 529.38,-207.18 537.34,-210.2 545.17,-212.97"/>
<polygon fill="midnightblue" stroke="midnightblue" points="464.54,-171.1 454.11,-169.22 461.09,-177.19 464.54,-171.1"/>
</g>
<!-- Node5 -->
<g id="node5" class="node">
<title>Node5</title>
<g id="a_node5"><a xlink:href="classcuCSRAffineMatrixFunction.html" target="_top" xlink:title=" ">
<polygon fill="white" stroke="black" points="525.5,-164 525.5,-194 664.5,-194 664.5,-164 525.5,-164"/>
<text text-anchor="start" x="533.5" y="-182" font-family="Helvetica,sans-Serif" font-size="10.00">cuCSRAffineMatrixFunction</text>
<text text-anchor="middle" x="595" y="-171" font-family="Helvetica,sans-Serif" font-size="10.00">&lt; DataType &gt;</text>
</a>
</g>
</g>
<!-- Node3&#45;&gt;Node5 -->
<g id="edge4" class="edge">
<title>Node3&#45;&gt;Node5</title>
<path fill="none" stroke="midnightblue" d="M496.57,-164.28C506.07,-165.72 515.84,-167.19 525.35,-168.63"/>
<polygon fill="midnightblue" stroke="midnightblue" points="496.79,-160.78 486.38,-162.74 495.75,-167.7 496.79,-160.78"/>
</g>
<!-- Node6 -->
<g id="node6" class="node">
<title>Node6</title>
<g id="a_node6"><a xlink:href="classcuDenseAffineMatrixFunction.html" target="_top" xlink:title=" ">
<polygon fill="white" stroke="black" points="522,-115 522,-145 668,-145 668,-115 522,-115"/>
<text text-anchor="start" x="530" y="-133" font-family="Helvetica,sans-Serif" font-size="10.00">cuDenseAffineMatrixFunction</text>
<text text-anchor="middle" x="595" y="-122" font-family="Helvetica,sans-Serif" font-size="10.00">&lt; DataType &gt;</text>
</a>
</g>
</g>
<!-- Node3&#45;&gt;Node6 -->
<g id="edge5" class="edge">
<title>Node3&#45;&gt;Node6</title>
<path fill="none" stroke="midnightblue" d="M496.48,-144.14C504.86,-142.93 513.45,-141.68 521.89,-140.46"/>
<polygon fill="midnightblue" stroke="midnightblue" points="495.78,-140.71 486.38,-145.61 496.78,-147.63 495.78,-140.71"/>
</g>
<!-- Node8 -->
<g id="node8" class="node">
<title>Node8</title>
<g id="a_node8"><a xlink:href="classcuCSCMatrix.html" target="_top" xlink:title=" ">
<polygon fill="white" stroke="black" points="527,-76.5 527,-95.5 663,-95.5 663,-76.5 527,-76.5"/>
<text text-anchor="middle" x="595" y="-83.5" font-family="Helvetica,sans-Serif" font-size="10.00">cuCSCMatrix&lt; DataType &gt;</text>
</a>
</g>
</g>
<!-- Node7&#45;&gt;Node8 -->
<g id="edge7" class="edge">
<title>Node7&#45;&gt;Node8</title>
<path fill="none" stroke="midnightblue" d="M494.58,-74.59C505.2,-75.81 516.21,-77.07 526.86,-78.29"/>
<polygon fill="midnightblue" stroke="midnightblue" points="494.86,-71.1 484.53,-73.43 494.07,-78.05 494.86,-71.1"/>
</g>
<!-- Node9 -->
<g id="node9" class="node">
<title>Node9</title>
<g id="a_node9"><a xlink:href="classcuCSRMatrix.html" target="_top" xlink:title=" ">
<polygon fill="white" stroke="black" points="527,-38.5 527,-57.5 663,-57.5 663,-38.5 527,-38.5"/>
<text text-anchor="middle" x="595" y="-45.5" font-family="Helvetica,sans-Serif" font-size="10.00">cuCSRMatrix&lt; DataType &gt;</text>
</a>
</g>
</g>
<!-- Node7&#45;&gt;Node9 -->
<g id="edge8" class="edge">
<title>Node7&#45;&gt;Node9</title>
<path fill="none" stroke="midnightblue" d="M494.58,-59.41C505.2,-58.19 516.21,-56.93 526.86,-55.71"/>
<polygon fill="midnightblue" stroke="midnightblue" points="494.07,-55.95 484.53,-60.57 494.86,-62.9 494.07,-55.95"/>
</g>
<!-- Node10 -->
<g id="node10" class="node">
<title>Node10</title>
<g id="a_node10"><a xlink:href="classcuDenseMatrix.html" target="_top" xlink:title=" ">
<polygon fill="white" stroke="black" points="523.5,-0.5 523.5,-19.5 666.5,-19.5 666.5,-0.5 523.5,-0.5"/>
<text text-anchor="middle" x="595" y="-7.5" font-family="Helvetica,sans-Serif" font-size="10.00">cuDenseMatrix&lt; DataType &gt;</text>
</a>
</g>
</g>
<!-- Node7&#45;&gt;Node10 -->
<g id="edge9" class="edge">
<title>Node7&#45;&gt;Node10</title>
<path fill="none" stroke="midnightblue" d="M459.19,-53.37C477.26,-45.64 500.68,-36.11 522,-29 532.3,-25.56 543.59,-22.34 554.12,-19.55"/>
<polygon fill="midnightblue" stroke="midnightblue" points="457.53,-50.27 449.75,-57.45 460.31,-56.69 457.53,-50.27"/>
</g>
</g>
</svg>
