<?xml version="1.0" encoding="UTF-8" standalone="no"?>
<!DOCTYPE svg PUBLIC "-//W3C//DTD SVG 1.1//EN"
 "http://www.w3.org/Graphics/SVG/1.1/DTD/svg11.dtd">
<!-- Generated by graphviz version 2.43.0 (0)
 -->
<!-- Title: cTraceEstimator::_c_stochastic_lanczos_quadrature Pages: 1 -->
<svg width="784pt" height="799pt"
 viewBox="0.00 0.00 784.00 799.00" xmlns="http://www.w3.org/2000/svg" xmlns:xlink="http://www.w3.org/1999/xlink">
<g id="graph0" class="graph" transform="scale(1 1) rotate(0) translate(4 795)">
<title>cTraceEstimator::_c_stochastic_lanczos_quadrature</title>
<polygon fill="white" stroke="transparent" points="-4,4 -4,-795 780,-795 780,4 -4,4"/>
<!-- Node1 -->
<g id="node1" class="node">
<title>Node1</title>
<g id="a_node1"><a xlink:title="For a given random input vector, computes one Monte&#45;Carlo sample to estimate trace using Lanczos quad...">
<polygon fill="#bfbfbf" stroke="black" points="0,-215 0,-256 106,-256 106,-215 0,-215"/>
<text text-anchor="start" x="8" y="-244" font-family="Helvetica,sans-Serif" font-size="10.00">cTraceEstimator::_c</text>
<text text-anchor="start" x="8" y="-233" font-family="Helvetica,sans-Serif" font-size="10.00">_stochastic_lanczos</text>
<text text-anchor="middle" x="53" y="-222" font-family="Helvetica,sans-Serif" font-size="10.00">_quadrature</text>
</a>
</g>
</g>
<!-- Node2 -->
<g id="node2" class="node">
<title>Node2</title>
<g id="a_node2"><a xlink:href="c__golub__kahn__bidiagonalization_8cpp.html#a6125b021cd93b43ab4d9f20813487f85" target="_top" xlink:title="Bi&#45;diagonalizes the positive&#45;definite matrix A using Golub&#45;Kahn&#45;Lanczos method.">
<polygon fill="white" stroke="black" points="142,-635 142,-654 296,-654 296,-635 142,-635"/>
<text text-anchor="middle" x="219" y="-642" font-family="Helvetica,sans-Serif" font-size="10.00">c_golub_kahn_bidiagonalization</text>
</a>
</g>
</g>
<!-- Node1&#45;&gt;Node2 -->
<g id="edge1" class="edge">
<title>Node1&#45;&gt;Node2</title>
<path fill="none" stroke="midnightblue" d="M60.67,-256.15C74.58,-298.75 108.21,-399.27 142,-481.5 163.86,-534.69 193.6,-595.72 208.57,-625.77"/>
<polygon fill="midnightblue" stroke="midnightblue" points="205.45,-627.34 213.05,-634.72 211.71,-624.21 205.45,-627.34"/>
</g>
<!-- Node12 -->
<g id="node12" class="node">
<title>Node12</title>
<g id="a_node12"><a xlink:href="c__lanczos__tridiagonalization_8cpp.html#a88831f1a1ba564b198f446a7c8a8d5ef" target="_top" xlink:title="Tri&#45;diagonalizes matrix A to T using the start vector v. is the Lanczos degree, which will be the siz...">
<polygon fill="white" stroke="black" points="149.5,-453 149.5,-472 288.5,-472 288.5,-453 149.5,-453"/>
<text text-anchor="middle" x="219" y="-460" font-family="Helvetica,sans-Serif" font-size="10.00">c_lanczos_tridiagonalization</text>
</a>
</g>
</g>
<!-- Node1&#45;&gt;Node12 -->
<g id="edge14" class="edge">
<title>Node1&#45;&gt;Node12</title>
<path fill="none" stroke="midnightblue" d="M64.29,-256.06C79.46,-285.54 109.56,-340.94 142,-383.5 159.68,-406.7 183.44,-430.44 199.65,-445.76"/>
<polygon fill="midnightblue" stroke="midnightblue" points="197.67,-448.69 207.37,-452.95 202.44,-443.57 197.67,-448.69"/>
</g>
<!-- Node14 -->
<g id="node14" class="node">
<title>Node14</title>
<g id="a_node14"><a xlink:href="classDiagonalization.html#a18924365b0d74983ead3901886d51204" target="_top" xlink:title="Computes all eigenvalues and eigenvectors of a real and symmetric tridiagonal matrix.">
<polygon fill="white" stroke="black" points="165.5,-343.5 165.5,-373.5 272.5,-373.5 272.5,-343.5 165.5,-343.5"/>
<text text-anchor="start" x="173.5" y="-361.5" font-family="Helvetica,sans-Serif" font-size="10.00">Diagonalization::eigh</text>
<text text-anchor="middle" x="219" y="-350.5" font-family="Helvetica,sans-Serif" font-size="10.00">_tridiagonal</text>
</a>
</g>
</g>
<!-- Node1&#45;&gt;Node14 -->
<g id="edge22" class="edge">
<title>Node1&#45;&gt;Node14</title>
<path fill="none" stroke="midnightblue" d="M67.38,-256.31C82.81,-278.7 110.16,-313.86 142,-334.5 146.32,-337.3 150.98,-339.79 155.8,-342"/>
<polygon fill="midnightblue" stroke="midnightblue" points="154.64,-345.31 165.22,-345.93 157.34,-338.85 154.64,-345.31"/>
</g>
<!-- Node16 -->
<g id="node16" class="node">
<title>Node16</title>
<g id="a_node16"><a xlink:href="classRandomArrayGenerator.html#a3a577526f391d531fe4d66bdfa0107db" target="_top" xlink:title="Generates a pseudo&#45;random array with Rademacher distribution where elements are either +1 or &#45;1.">
<polygon fill="white" stroke="black" points="156.5,-294.5 156.5,-324.5 281.5,-324.5 281.5,-294.5 156.5,-294.5"/>
<text text-anchor="start" x="164.5" y="-312.5" font-family="Helvetica,sans-Serif" font-size="10.00">RandomArrayGenerator</text>
<text text-anchor="middle" x="219" y="-301.5" font-family="Helvetica,sans-Serif" font-size="10.00">::generate_random_array</text>
</a>
</g>
</g>
<!-- Node1&#45;&gt;Node16 -->
<g id="edge24" class="edge">
<title>Node1&#45;&gt;Node16</title>
<path fill="none" stroke="midnightblue" d="M86.58,-256.2C102.81,-265.94 122.99,-277.21 142,-285.5 146.37,-287.41 150.94,-289.23 155.57,-290.97"/>
<polygon fill="midnightblue" stroke="midnightblue" points="154.54,-294.32 165.14,-294.4 156.9,-287.73 154.54,-294.32"/>
</g>
<!-- Node20 -->
<g id="node20" class="node">
<title>Node20</title>
<g id="a_node20"><a xlink:href="classcLinearOperator.html#a0dd6306a434563e4a48a806b43f23d03" target="_top" xlink:title=" ">
<polygon fill="white" stroke="black" points="166.5,-245.5 166.5,-275.5 271.5,-275.5 271.5,-245.5 166.5,-245.5"/>
<text text-anchor="start" x="174.5" y="-263.5" font-family="Helvetica,sans-Serif" font-size="10.00">cLinearOperator::get</text>
<text text-anchor="middle" x="219" y="-252.5" font-family="Helvetica,sans-Serif" font-size="10.00">_eigenvalue</text>
</a>
</g>
</g>
<!-- Node1&#45;&gt;Node20 -->
<g id="edge28" class="edge">
<title>Node1&#45;&gt;Node20</title>
<path fill="none" stroke="midnightblue" d="M106.34,-243.48C122.26,-245.9 139.89,-248.59 156.36,-251.1"/>
<polygon fill="midnightblue" stroke="midnightblue" points="156.02,-254.59 166.44,-252.64 157.08,-247.67 156.02,-254.59"/>
</g>
<!-- Node21 -->
<g id="node21" class="node">
<title>Node21</title>
<g id="a_node21"><a xlink:href="classcLinearOperator.html#af9be60b44a47eed5b2c98f077ff54987" target="_top" xlink:title=" ">
<polygon fill="white" stroke="black" points="166.5,-196.5 166.5,-226.5 271.5,-226.5 271.5,-196.5 166.5,-196.5"/>
<text text-anchor="start" x="174.5" y="-214.5" font-family="Helvetica,sans-Serif" font-size="10.00">cLinearOperator::get</text>
<text text-anchor="middle" x="219" y="-203.5" font-family="Helvetica,sans-Serif" font-size="10.00">_num_parameters</text>
</a>
</g>
</g>
<!-- Node1&#45;&gt;Node21 -->
<g id="edge29" class="edge">
<title>Node1&#45;&gt;Node21</title>
<path fill="none" stroke="midnightblue" d="M106.34,-227.84C122.26,-225.51 139.89,-222.93 156.36,-220.52"/>
<polygon fill="midnightblue" stroke="midnightblue" points="157.05,-223.96 166.44,-219.05 156.03,-217.03 157.05,-223.96"/>
</g>
<!-- Node22 -->
<g id="node22" class="node">
<title>Node22</title>
<g id="a_node22"><a xlink:href="classcLinearOperator.html#aecc5b62db1d8a41f5112b289c7031aaf" target="_top" xlink:title=" ">
<polygon fill="white" stroke="black" points="166.5,-147.5 166.5,-177.5 271.5,-177.5 271.5,-147.5 166.5,-147.5"/>
<text text-anchor="start" x="174.5" y="-165.5" font-family="Helvetica,sans-Serif" font-size="10.00">cLinearOperator::get</text>
<text text-anchor="middle" x="219" y="-154.5" font-family="Helvetica,sans-Serif" font-size="10.00">_num_rows</text>
</a>
</g>
</g>
<!-- Node1&#45;&gt;Node22 -->
<g id="edge30" class="edge">
<title>Node1&#45;&gt;Node22</title>
<path fill="none" stroke="midnightblue" d="M88.39,-214.85C104.35,-205.76 123.79,-195.38 142,-187.5 147.1,-185.29 152.46,-183.16 157.88,-181.15"/>
<polygon fill="midnightblue" stroke="midnightblue" points="159.42,-184.31 167.64,-177.63 157.05,-177.72 159.42,-184.31"/>
</g>
<!-- Node23 -->
<g id="node23" class="node">
<title>Node23</title>
<g id="a_node23"><a xlink:href="classcLinearOperator.html#af0c980ca87c2795e0dbfda1c84f74591" target="_top" xlink:title="Returns a flag that determines whether a relation between the parameters of the operator and its eige...">
<polygon fill="white" stroke="black" points="149.5,-98.5 149.5,-128.5 288.5,-128.5 288.5,-98.5 149.5,-98.5"/>
<text text-anchor="start" x="157.5" y="-116.5" font-family="Helvetica,sans-Serif" font-size="10.00">cLinearOperator::is</text>
<text text-anchor="middle" x="219" y="-105.5" font-family="Helvetica,sans-Serif" font-size="10.00">_eigenvalue_relation_known</text>
</a>
</g>
</g>
<!-- Node1&#45;&gt;Node23 -->
<g id="edge31" class="edge">
<title>Node1&#45;&gt;Node23</title>
<path fill="none" stroke="midnightblue" d="M67.81,-214.79C83.41,-192.91 110.72,-158.81 142,-138.5 145.09,-136.49 148.36,-134.63 151.74,-132.91"/>
<polygon fill="midnightblue" stroke="midnightblue" points="153.28,-136.05 160.88,-128.66 150.34,-129.7 153.28,-136.05"/>
</g>
<!-- Node24 -->
<g id="node24" class="node">
<title>Node24</title>
<g id="a_node24"><a xlink:href="classcLinearOperator.html#ad7395bd04ec8014c9dd0e66c318ae125" target="_top" xlink:title="Sets the scalar parameter this&#45;&gt;parameters. Parameter is initialized to NULL. However,...">
<polygon fill="white" stroke="black" points="166.5,-49.5 166.5,-79.5 271.5,-79.5 271.5,-49.5 166.5,-49.5"/>
<text text-anchor="start" x="174.5" y="-67.5" font-family="Helvetica,sans-Serif" font-size="10.00">cLinearOperator::set</text>
<text text-anchor="middle" x="219" y="-56.5" font-family="Helvetica,sans-Serif" font-size="10.00">_parameters</text>
</a>
</g>
</g>
<!-- Node1&#45;&gt;Node24 -->
<g id="edge32" class="edge">
<title>Node1&#45;&gt;Node24</title>
<path fill="none" stroke="midnightblue" d="M61.06,-214.89C72.88,-183.36 99.65,-123.26 142,-89.5 146.59,-85.84 151.74,-82.71 157.14,-80.02"/>
<polygon fill="midnightblue" stroke="midnightblue" points="158.67,-83.17 166.4,-75.93 155.83,-76.77 158.67,-83.17"/>
</g>
<!-- Node25 -->
<g id="node25" class="node">
<title>Node25</title>
<g id="a_node25"><a xlink:href="classDiagonalization.html#a636b5e32ca7211d60dadc62b2258b8ea" target="_top" xlink:title="Computes all singular&#45;values and left and right eigenvectors of a real and symmetric upper bi&#45;diagona...">
<polygon fill="white" stroke="black" points="166.5,-0.5 166.5,-30.5 271.5,-30.5 271.5,-0.5 166.5,-0.5"/>
<text text-anchor="start" x="174.5" y="-18.5" font-family="Helvetica,sans-Serif" font-size="10.00">Diagonalization::svd</text>
<text text-anchor="middle" x="219" y="-7.5" font-family="Helvetica,sans-Serif" font-size="10.00">_bidiagonal</text>
</a>
</g>
</g>
<!-- Node1&#45;&gt;Node25 -->
<g id="edge33" class="edge">
<title>Node1&#45;&gt;Node25</title>
<path fill="none" stroke="midnightblue" d="M57.53,-214.74C65.4,-174.91 88.09,-87.49 142,-39.5 146.44,-35.55 151.52,-32.25 156.91,-29.5"/>
<polygon fill="midnightblue" stroke="midnightblue" points="158.51,-32.62 166.22,-25.35 155.66,-26.22 158.51,-32.62"/>
</g>
<!-- Node3 -->
<g id="node3" class="node">
<title>Node3</title>
<g id="a_node3"><a xlink:href="classcLinearOperator.html#a48c76860a74f00fefaa1297368d17a77" target="_top" xlink:title=" ">
<polygon fill="white" stroke="black" points="356,-597 356,-616 461,-616 461,-597 356,-597"/>
<text text-anchor="middle" x="408.5" y="-604" font-family="Helvetica,sans-Serif" font-size="10.00">cLinearOperator::dot</text>
</a>
</g>
</g>
<!-- Node2&#45;&gt;Node3 -->
<g id="edge2" class="edge">
<title>Node2&#45;&gt;Node3</title>
<path fill="none" stroke="midnightblue" d="M267.31,-634.91C292.61,-629.78 323.95,-623.43 350.57,-618.04"/>
<polygon fill="midnightblue" stroke="midnightblue" points="351.42,-621.44 360.53,-616.02 350.03,-614.58 351.42,-621.44"/>
</g>
<!-- Node4 -->
<g id="node4" class="node">
<title>Node4</title>
<g id="a_node4"><a xlink:href="classcOrthogonalization.html#a1b1bcbb636f1a1608ce7a22d4538b3b3" target="_top" xlink:title="Modified Gram&#45;Schmidt orthogonalization process to orthogonalize the vector v against a subset of the...">
<polygon fill="white" stroke="black" points="346.5,-471.5 346.5,-501.5 470.5,-501.5 470.5,-471.5 346.5,-471.5"/>
<text text-anchor="start" x="354.5" y="-489.5" font-family="Helvetica,sans-Serif" font-size="10.00">cOrthogonalization</text>
<text text-anchor="middle" x="408.5" y="-478.5" font-family="Helvetica,sans-Serif" font-size="10.00">::gram_schmidt_process</text>
</a>
</g>
</g>
<!-- Node2&#45;&gt;Node4 -->
<g id="edge3" class="edge">
<title>Node2&#45;&gt;Node4</title>
<path fill="none" stroke="midnightblue" d="M231.45,-634.85C261.04,-609.92 340.64,-542.84 381.91,-508.07"/>
<polygon fill="midnightblue" stroke="midnightblue" points="384.23,-510.69 389.62,-501.57 379.72,-505.33 384.23,-510.69"/>
</g>
<!-- Node7 -->
<g id="node7" class="node">
<title>Node7</title>
<g id="a_node7"><a xlink:href="classcVectorOperations.html#a9bd28bd08f5a6b096d99a4a2f7d23e90" target="_top" xlink:title="Subtracts the scaled input vector from the output vector.">
<polygon fill="white" stroke="black" points="521,-471.5 521,-501.5 639,-501.5 639,-471.5 521,-471.5"/>
<text text-anchor="start" x="529" y="-489.5" font-family="Helvetica,sans-Serif" font-size="10.00">cVectorOperations::</text>
<text text-anchor="middle" x="580" y="-478.5" font-family="Helvetica,sans-Serif" font-size="10.00">subtract_scaled_vector</text>
</a>
</g>
</g>
<!-- Node2&#45;&gt;Node7 -->
<g id="edge12" class="edge">
<title>Node2&#45;&gt;Node7</title>
<path fill="none" stroke="midnightblue" d="M276.36,-654C333.01,-660.6 420.9,-662.53 485,-625.5 496.71,-618.73 540.92,-548.6 564.3,-510.62"/>
<polygon fill="midnightblue" stroke="midnightblue" points="567.52,-512.07 569.76,-501.72 561.55,-508.41 567.52,-512.07"/>
</g>
<!-- Node8 -->
<g id="node8" class="node">
<title>Node8</title>
<g id="a_node8"><a xlink:href="classcVectorOperations.html#aeb0171f2644e3036907bbbddf47ce998" target="_top" xlink:title="Normalizes a vector based on Euclidean 2&#45;norm. The result is written into another vector.">
<polygon fill="white" stroke="black" points="339.5,-711.5 339.5,-741.5 477.5,-741.5 477.5,-711.5 339.5,-711.5"/>
<text text-anchor="start" x="347.5" y="-729.5" font-family="Helvetica,sans-Serif" font-size="10.00">cVectorOperations::</text>
<text text-anchor="middle" x="408.5" y="-718.5" font-family="Helvetica,sans-Serif" font-size="10.00">normalize_vector_and_copy</text>
</a>
</g>
</g>
<!-- Node2&#45;&gt;Node8 -->
<g id="edge7" class="edge">
<title>Node2&#45;&gt;Node8</title>
<path fill="none" stroke="midnightblue" d="M236.7,-654.01C258.26,-666.05 297.17,-686.97 332,-701.5 337.39,-703.75 343.06,-705.94 348.76,-708.02"/>
<polygon fill="midnightblue" stroke="midnightblue" points="347.77,-711.38 358.37,-711.43 350.11,-704.79 347.77,-711.38"/>
</g>
<!-- Node10 -->
<g id="node10" class="node">
<title>Node10</title>
<g id="a_node10"><a xlink:href="classcVectorOperations.html#ab0991d74cadf3a3969f0723dbff55dc9" target="_top" xlink:title="Normalizes a vector based on Euclidean 2&#45;norm. The result is written in&#45;place.">
<polygon fill="white" stroke="black" points="342.5,-760.5 342.5,-790.5 474.5,-790.5 474.5,-760.5 342.5,-760.5"/>
<text text-anchor="start" x="350.5" y="-778.5" font-family="Helvetica,sans-Serif" font-size="10.00">cVectorOperations::</text>
<text text-anchor="middle" x="408.5" y="-767.5" font-family="Helvetica,sans-Serif" font-size="10.00">normalize_vector_in_place</text>
</a>
</g>
</g>
<!-- Node2&#45;&gt;Node10 -->
<g id="edge10" class="edge">
<title>Node2&#45;&gt;Node10</title>
<path fill="none" stroke="midnightblue" d="M227.59,-654.31C244.25,-675.19 286.2,-724.35 332,-751.5 334.84,-753.18 337.81,-754.76 340.86,-756.24"/>
<polygon fill="midnightblue" stroke="midnightblue" points="339.65,-759.53 350.21,-760.38 342.49,-753.13 339.65,-759.53"/>
</g>
<!-- Node11 -->
<g id="node11" class="node">
<title>Node11</title>
<g id="a_node11"><a xlink:href="classcLinearOperator.html#a40f5051c4399ebfa153ef7147e10a6e6" target="_top" xlink:title=" ">
<polygon fill="white" stroke="black" points="332,-673 332,-692 485,-692 485,-673 332,-673"/>
<text text-anchor="middle" x="408.5" y="-680" font-family="Helvetica,sans-Serif" font-size="10.00">cLinearOperator::transpose_dot</text>
</a>
</g>
</g>
<!-- Node2&#45;&gt;Node11 -->
<g id="edge13" class="edge">
<title>Node2&#45;&gt;Node11</title>
<path fill="none" stroke="midnightblue" d="M267.31,-654.09C292.61,-659.22 323.95,-665.57 350.57,-670.96"/>
<polygon fill="midnightblue" stroke="midnightblue" points="350.03,-674.42 360.53,-672.98 351.42,-667.56 350.03,-674.42"/>
</g>
<!-- Node5 -->
<g id="node5" class="node">
<title>Node5</title>
<g id="a_node5"><a xlink:href="classcVectorOperations.html#abd0d2c941f9d3598f42026755cbc4709" target="_top" xlink:title="Computes the Euclidean norm of a 1D array.">
<polygon fill="white" stroke="black" points="528,-675.5 528,-705.5 632,-705.5 632,-675.5 528,-675.5"/>
<text text-anchor="start" x="536" y="-693.5" font-family="Helvetica,sans-Serif" font-size="10.00">cVectorOperations::</text>
<text text-anchor="middle" x="580" y="-682.5" font-family="Helvetica,sans-Serif" font-size="10.00">euclidean_norm</text>
</a>
</g>
</g>
<!-- Node4&#45;&gt;Node5 -->
<g id="edge4" class="edge">
<title>Node4&#45;&gt;Node5</title>
<path fill="none" stroke="midnightblue" d="M430.51,-501.65C446.96,-514.33 469.57,-533.66 485,-554.5 507.48,-584.86 499.45,-600.47 521,-631.5 530.23,-644.79 542.57,-657.81 553.49,-668.22"/>
<polygon fill="midnightblue" stroke="midnightblue" points="551.42,-671.07 561.13,-675.31 556.18,-665.94 551.42,-671.07"/>
</g>
<!-- Node6 -->
<g id="node6" class="node">
<title>Node6</title>
<g id="a_node6"><a xlink:href="classcVectorOperations.html#ab8b945baba573b4479e8095ca87f8b3f" target="_top" xlink:title="Computes Euclidean inner product of two vectors.">
<polygon fill="white" stroke="black" points="528,-381.5 528,-411.5 632,-411.5 632,-381.5 528,-381.5"/>
<text text-anchor="start" x="536" y="-399.5" font-family="Helvetica,sans-Serif" font-size="10.00">cVectorOperations::</text>
<text text-anchor="middle" x="580" y="-388.5" font-family="Helvetica,sans-Serif" font-size="10.00">inner_product</text>
</a>
</g>
</g>
<!-- Node4&#45;&gt;Node6 -->
<g id="edge5" class="edge">
<title>Node4&#45;&gt;Node6</title>
<path fill="none" stroke="midnightblue" d="M463.91,-471.41C471.14,-468.77 478.34,-465.8 485,-462.5 509.41,-450.4 534.55,-432.42 552.67,-418.28"/>
<polygon fill="midnightblue" stroke="midnightblue" points="555.32,-420.64 560.98,-411.68 550.97,-415.16 555.32,-420.64"/>
</g>
<!-- Node4&#45;&gt;Node7 -->
<g id="edge6" class="edge">
<title>Node4&#45;&gt;Node7</title>
<path fill="none" stroke="midnightblue" d="M470.69,-486.5C483.56,-486.5 497.22,-486.5 510.34,-486.5"/>
<polygon fill="midnightblue" stroke="midnightblue" points="510.73,-490 520.73,-486.5 510.73,-483 510.73,-490"/>
</g>
<!-- Node8&#45;&gt;Node5 -->
<g id="edge9" class="edge">
<title>Node8&#45;&gt;Node5</title>
<path fill="none" stroke="midnightblue" d="M477.95,-711.96C491.08,-709.17 504.74,-706.27 517.62,-703.54"/>
<polygon fill="midnightblue" stroke="midnightblue" points="518.71,-706.88 527.76,-701.38 517.25,-700.04 518.71,-706.88"/>
</g>
<!-- Node9 -->
<g id="node9" class="node">
<title>Node9</title>
<g id="a_node9"><a xlink:href="classcVectorOperations.html#a6627fe95659faa224dca2af1dab1fab3" target="_top" xlink:title="Scales a vector and stores to a new vector.">
<polygon fill="white" stroke="black" points="528,-591.5 528,-621.5 632,-621.5 632,-591.5 528,-591.5"/>
<text text-anchor="start" x="536" y="-609.5" font-family="Helvetica,sans-Serif" font-size="10.00">cVectorOperations::</text>
<text text-anchor="middle" x="580" y="-598.5" font-family="Helvetica,sans-Serif" font-size="10.00">copy_scaled_vector</text>
</a>
</g>
</g>
<!-- Node8&#45;&gt;Node9 -->
<g id="edge8" class="edge">
<title>Node8&#45;&gt;Node9</title>
<path fill="none" stroke="midnightblue" d="M465.3,-711.39C472.16,-708.56 478.9,-705.28 485,-701.5 489.28,-698.84 531.02,-656.07 557.42,-628.83"/>
<polygon fill="midnightblue" stroke="midnightblue" points="559.97,-631.23 564.41,-621.61 554.94,-626.36 559.97,-631.23"/>
</g>
<!-- Node10&#45;&gt;Node5 -->
<g id="edge11" class="edge">
<title>Node10&#45;&gt;Node5</title>
<path fill="none" stroke="midnightblue" d="M462.99,-760.47C470.51,-757.79 478.04,-754.79 485,-751.5 508.28,-740.49 532.61,-724.56 550.68,-711.74"/>
<polygon fill="midnightblue" stroke="midnightblue" points="552.96,-714.42 559.02,-705.74 548.86,-708.74 552.96,-714.42"/>
</g>
<!-- Node12&#45;&gt;Node3 -->
<g id="edge17" class="edge">
<title>Node12&#45;&gt;Node3</title>
<path fill="none" stroke="midnightblue" d="M226.35,-472.16C241.74,-494.81 283.34,-551.74 332,-582.5 338.94,-586.89 346.75,-590.54 354.65,-593.55"/>
<polygon fill="midnightblue" stroke="midnightblue" points="353.68,-596.92 364.28,-596.92 355.99,-590.31 353.68,-596.92"/>
</g>
<!-- Node12&#45;&gt;Node4 -->
<g id="edge19" class="edge">
<title>Node12&#45;&gt;Node4</title>
<path fill="none" stroke="midnightblue" d="M288.75,-471.3C304.19,-473.28 320.59,-475.38 336.13,-477.36"/>
<polygon fill="midnightblue" stroke="midnightblue" points="335.83,-480.85 346.19,-478.65 336.72,-473.91 335.83,-480.85"/>
</g>
<!-- Node12&#45;&gt;Node5 -->
<g id="edge18" class="edge">
<title>Node12&#45;&gt;Node5</title>
<path fill="none" stroke="midnightblue" d="M229.92,-472.07C248.45,-489.43 290.25,-526.2 332,-546.5 395.31,-577.29 425.86,-549.31 485,-587.5 506.23,-601.21 504.13,-612.69 521,-631.5 532.22,-644.01 545.3,-657.41 556.2,-668.27"/>
<polygon fill="midnightblue" stroke="midnightblue" points="553.77,-670.79 563.34,-675.34 558.7,-665.82 553.77,-670.79"/>
</g>
<!-- Node12&#45;&gt;Node6 -->
<g id="edge20" class="edge">
<title>Node12&#45;&gt;Node6</title>
<path fill="none" stroke="midnightblue" d="M231.12,-452.98C250.22,-437.33 291.16,-406.78 332,-395.5 393.48,-378.51 466.91,-381.6 517.64,-387.18"/>
<polygon fill="midnightblue" stroke="midnightblue" points="517.46,-390.68 527.79,-388.36 518.27,-383.73 517.46,-390.68"/>
</g>
<!-- Node12&#45;&gt;Node7 -->
<g id="edge21" class="edge">
<title>Node12&#45;&gt;Node7</title>
<path fill="none" stroke="midnightblue" d="M235.99,-452.97C257.1,-440.98 295.85,-421.06 332,-413.5 398.56,-399.58 420.67,-391.46 485,-413.5 513.99,-423.43 540.93,-446.35 558.47,-463.88"/>
<polygon fill="midnightblue" stroke="midnightblue" points="556.37,-466.74 565.85,-471.49 561.4,-461.87 556.37,-466.74"/>
</g>
<!-- Node12&#45;&gt;Node9 -->
<g id="edge15" class="edge">
<title>Node12&#45;&gt;Node9</title>
<path fill="none" stroke="midnightblue" d="M239.49,-472.01C261.58,-482.56 298.82,-499.64 332,-511.5 398.52,-535.27 419.66,-527.67 485,-554.5 506.3,-563.25 528.92,-575.65 546.64,-586.15"/>
<polygon fill="midnightblue" stroke="midnightblue" points="545.05,-589.28 555.42,-591.44 548.66,-583.29 545.05,-589.28"/>
</g>
<!-- Node13 -->
<g id="node13" class="node">
<title>Node13</title>
<g id="a_node13"><a xlink:href="classcVectorOperations.html#a492894cdc368a4f60b28aa15109cf9bc" target="_top" xlink:title="Copies a vector to a new vector. Result is written in&#45;place.">
<polygon fill="white" stroke="black" points="356.5,-422.5 356.5,-452.5 460.5,-452.5 460.5,-422.5 356.5,-422.5"/>
<text text-anchor="start" x="364.5" y="-440.5" font-family="Helvetica,sans-Serif" font-size="10.00">cVectorOperations::</text>
<text text-anchor="middle" x="408.5" y="-429.5" font-family="Helvetica,sans-Serif" font-size="10.00">copy_vector</text>
</a>
</g>
</g>
<!-- Node12&#45;&gt;Node13 -->
<g id="edge16" class="edge">
<title>Node12&#45;&gt;Node13</title>
<path fill="none" stroke="midnightblue" d="M288.75,-453.33C307.63,-450.82 327.95,-448.11 346.37,-445.65"/>
<polygon fill="midnightblue" stroke="midnightblue" points="346.93,-449.11 356.38,-444.32 346,-442.17 346.93,-449.11"/>
</g>
<!-- Node15 -->
<g id="node15" class="node">
<title>Node15</title>
<g id="a_node15"><a xlink:href="lapack__api_8h.html#a829a495cf9df4ce926be95ee1c6163a8" target="_top" xlink:title=" ">
<polygon fill="white" stroke="black" points="371.5,-308 371.5,-327 445.5,-327 445.5,-308 371.5,-308"/>
<text text-anchor="middle" x="408.5" y="-315" font-family="Helvetica,sans-Serif" font-size="10.00">lapack_xstev</text>
</a>
</g>
</g>
<!-- Node14&#45;&gt;Node15 -->
<g id="edge23" class="edge">
<title>Node14&#45;&gt;Node15</title>
<path fill="none" stroke="midnightblue" d="M272.73,-346.97C300.68,-340.86 334.69,-333.42 361.55,-327.55"/>
<polygon fill="midnightblue" stroke="midnightblue" points="362.44,-330.94 371.47,-325.38 360.95,-324.1 362.44,-330.94"/>
</g>
<!-- Node17 -->
<g id="node17" class="node">
<title>Node17</title>
<g id="a_node17"><a xlink:href="classRandomNumberGenerator.html#a91d8b9726bda7dcd40f9b992b2a1bccd" target="_top" xlink:title="Generates the next random number in the sequence, depending on the thread id.">
<polygon fill="white" stroke="black" points="343,-258.5 343,-288.5 474,-288.5 474,-258.5 343,-258.5"/>
<text text-anchor="start" x="351" y="-276.5" font-family="Helvetica,sans-Serif" font-size="10.00">RandomNumberGenerator</text>
<text text-anchor="middle" x="408.5" y="-265.5" font-family="Helvetica,sans-Serif" font-size="10.00">::next</text>
</a>
</g>
</g>
<!-- Node16&#45;&gt;Node17 -->
<g id="edge25" class="edge">
<title>Node16&#45;&gt;Node17</title>
<path fill="none" stroke="midnightblue" d="M281.65,-297.66C298.07,-294.51 315.98,-291.07 333.01,-287.8"/>
<polygon fill="midnightblue" stroke="midnightblue" points="333.75,-291.22 342.91,-285.9 332.43,-284.35 333.75,-291.22"/>
</g>
<!-- Node18 -->
<g id="node18" class="node">
<title>Node18</title>
<g id="a_node18"><a xlink:href="classXoshiro256StarStar.html#a6a99f74d2ed5f6e3667d785c46bf9569" target="_top" xlink:title="Generates the next presudo&#45;random number.">
<polygon fill="white" stroke="black" points="529.5,-258.5 529.5,-288.5 630.5,-288.5 630.5,-258.5 529.5,-258.5"/>
<text text-anchor="start" x="537.5" y="-276.5" font-family="Helvetica,sans-Serif" font-size="10.00">Xoshiro256StarStar</text>
<text text-anchor="middle" x="580" y="-265.5" font-family="Helvetica,sans-Serif" font-size="10.00">::next</text>
</a>
</g>
</g>
<!-- Node17&#45;&gt;Node18 -->
<g id="edge26" class="edge">
<title>Node17&#45;&gt;Node18</title>
<path fill="none" stroke="midnightblue" d="M474.06,-273.5C488.82,-273.5 504.44,-273.5 519,-273.5"/>
<polygon fill="midnightblue" stroke="midnightblue" points="519.38,-277 529.38,-273.5 519.38,-270 519.38,-277"/>
</g>
<!-- Node19 -->
<g id="node19" class="node">
<title>Node19</title>
<g id="a_node19"><a xlink:href="classXoshiro256StarStar.html#a3b10c22cbac4ff9bf4447e28e57f7a72" target="_top" xlink:title="Rotates the bits of a 64 bit integer toward left.">
<polygon fill="white" stroke="black" points="675,-258.5 675,-288.5 776,-288.5 776,-258.5 675,-258.5"/>
<text text-anchor="start" x="683" y="-276.5" font-family="Helvetica,sans-Serif" font-size="10.00">Xoshiro256StarStar</text>
<text text-anchor="middle" x="725.5" y="-265.5" font-family="Helvetica,sans-Serif" font-size="10.00">::rotation_left</text>
</a>
</g>
</g>
<!-- Node18&#45;&gt;Node19 -->
<g id="edge27" class="edge">
<title>Node18&#45;&gt;Node19</title>
<path fill="none" stroke="midnightblue" d="M630.79,-273.5C641.69,-273.5 653.35,-273.5 664.61,-273.5"/>
<polygon fill="midnightblue" stroke="midnightblue" points="664.8,-277 674.8,-273.5 664.8,-270 664.8,-277"/>
</g>
<!-- Node26 -->
<g id="node26" class="node">
<title>Node26</title>
<g id="a_node26"><a xlink:href="lapack__api_8h.html#a14ad2b140c825a35e626fadf98fe495b" target="_top" xlink:title=" ">
<polygon fill="white" stroke="black" points="367.5,-6 367.5,-25 449.5,-25 449.5,-6 367.5,-6"/>
<text text-anchor="middle" x="408.5" y="-13" font-family="Helvetica,sans-Serif" font-size="10.00">lapack_xbdsdc</text>
</a>
</g>
</g>
<!-- Node25&#45;&gt;Node26 -->
<g id="edge34" class="edge">
<title>Node25&#45;&gt;Node26</title>
<path fill="none" stroke="midnightblue" d="M271.73,-15.5C298.33,-15.5 330.63,-15.5 357.05,-15.5"/>
<polygon fill="midnightblue" stroke="midnightblue" points="357.23,-19 367.23,-15.5 357.23,-12 357.23,-19"/>
</g>
</g>
</svg>
