<?xml version="1.0" encoding="UTF-8" standalone="no"?>
<!DOCTYPE svg PUBLIC "-//W3C//DTD SVG 1.1//EN"
 "http://www.w3.org/Graphics/SVG/1.1/DTD/svg11.dtd">
<!-- Generated by graphviz version 2.43.0 (0)
 -->
<!-- Title: /home/sia/work/ADCP/Noise&#45;Estimation/code/imate/imate/_cu_trace_estimator/cu_golub_kahn_bidiagonalization.h Pages: 1 -->
<svg width="335pt" height="318pt"
 viewBox="0.00 0.00 335.37 318.00" xmlns="http://www.w3.org/2000/svg" xmlns:xlink="http://www.w3.org/1999/xlink">
<g id="graph0" class="graph" transform="scale(1 1) rotate(0) translate(4 314)">
<title>/home/sia/work/ADCP/Noise&#45;Estimation/code/imate/imate/_cu_trace_estimator/cu_golub_kahn_bidiagonalization.h</title>
<polygon fill="white" stroke="transparent" points="-4,4 -4,-314 331.37,-314 331.37,4 -4,4"/>
<!-- Node1 -->
<g id="node1" class="node">
<title>Node1</title>
<g id="a_node1"><a xlink:title=" ">
<polygon fill="#bfbfbf" stroke="black" points="196,-246.5 196,-309.5 327,-309.5 327,-246.5 196,-246.5"/>
<text text-anchor="start" x="204" y="-297.5" font-family="Helvetica,sans-Serif" font-size="10.00">/home/sia/work/ADCP</text>
<text text-anchor="start" x="204" y="-286.5" font-family="Helvetica,sans-Serif" font-size="10.00">/Noise&#45;Estimation/code</text>
<text text-anchor="start" x="204" y="-275.5" font-family="Helvetica,sans-Serif" font-size="10.00">/imate/imate/_cu_trace</text>
<text text-anchor="start" x="204" y="-264.5" font-family="Helvetica,sans-Serif" font-size="10.00">_estimator/cu_golub_kahn</text>
<text text-anchor="middle" x="261.5" y="-253.5" font-family="Helvetica,sans-Serif" font-size="10.00">_bidiagonalization.h</text>
</a>
</g>
</g>
<!-- Node2 -->
<g id="node2" class="node">
<title>Node2</title>
<g id="a_node2"><a xlink:href="cu__linear__operator_8h.html" target="_top" xlink:title=" ">
<polygon fill="white" stroke="black" points="125.5,-179.5 125.5,-209.5 235.5,-209.5 235.5,-179.5 125.5,-179.5"/>
<text text-anchor="start" x="133.5" y="-197.5" font-family="Helvetica,sans-Serif" font-size="10.00">../_cu_linear_operator</text>
<text text-anchor="middle" x="180.5" y="-186.5" font-family="Helvetica,sans-Serif" font-size="10.00">/cu_linear_operator.h</text>
</a>
</g>
</g>
<!-- Node1&#45;&gt;Node2 -->
<g id="edge1" class="edge">
<title>Node1&#45;&gt;Node2</title>
<path fill="none" stroke="midnightblue" d="M230.88,-246.19C221.08,-236.33 210.46,-225.64 201.5,-216.63"/>
<polygon fill="midnightblue" stroke="midnightblue" points="203.96,-214.14 194.43,-209.52 199,-219.08 203.96,-214.14"/>
</g>
<!-- Node5 -->
<g id="node5" class="node">
<title>Node5</title>
<g id="a_node5"><a xlink:href="types_8h.html" target="_top" xlink:title=" ">
<polygon fill="white" stroke="black" points="206.5,-56.5 206.5,-75.5 316.5,-75.5 316.5,-56.5 206.5,-56.5"/>
<text text-anchor="middle" x="261.5" y="-63.5" font-family="Helvetica,sans-Serif" font-size="10.00">../_definitions/types.h</text>
</a>
</g>
</g>
<!-- Node1&#45;&gt;Node5 -->
<g id="edge8" class="edge">
<title>Node1&#45;&gt;Node5</title>
<path fill="none" stroke="midnightblue" d="M280.33,-246.42C295.37,-220.1 315.23,-180.55 323.5,-143 326.46,-129.54 329.76,-124.27 323.5,-112 316.5,-98.27 303.13,-87.75 290.6,-80.35"/>
<polygon fill="midnightblue" stroke="midnightblue" points="292.18,-77.22 281.72,-75.51 288.83,-83.37 292.18,-77.22"/>
</g>
<!-- Node3 -->
<g id="node3" class="node">
<title>Node3</title>
<g id="a_node3"><a xlink:title=" ">
<polygon fill="white" stroke="#bfbfbf" points="0,-118 0,-137 69,-137 69,-118 0,-118"/>
<text text-anchor="middle" x="34.5" y="-125" font-family="Helvetica,sans-Serif" font-size="10.00">cublas_v2.h</text>
</a>
</g>
</g>
<!-- Node2&#45;&gt;Node3 -->
<g id="edge2" class="edge">
<title>Node2&#45;&gt;Node3</title>
<path fill="none" stroke="midnightblue" d="M148.82,-179.4C123.2,-167.99 87.46,-152.08 62.8,-141.1"/>
<polygon fill="midnightblue" stroke="midnightblue" points="64.17,-137.88 53.61,-137.01 61.32,-144.27 64.17,-137.88"/>
</g>
<!-- Node4 -->
<g id="node4" class="node">
<title>Node4</title>
<g id="a_node4"><a xlink:title=" ">
<polygon fill="white" stroke="#bfbfbf" points="87,-118 87,-137 152,-137 152,-118 87,-118"/>
<text text-anchor="middle" x="119.5" y="-125" font-family="Helvetica,sans-Serif" font-size="10.00">cusparse.h</text>
</a>
</g>
</g>
<!-- Node2&#45;&gt;Node4 -->
<g id="edge3" class="edge">
<title>Node2&#45;&gt;Node4</title>
<path fill="none" stroke="midnightblue" d="M167.26,-179.4C157.66,-169.16 144.65,-155.3 134.63,-144.62"/>
<polygon fill="midnightblue" stroke="midnightblue" points="137.05,-142.09 127.66,-137.19 131.95,-146.88 137.05,-142.09"/>
</g>
<!-- Node2&#45;&gt;Node5 -->
<g id="edge4" class="edge">
<title>Node2&#45;&gt;Node5</title>
<path fill="none" stroke="midnightblue" d="M181.08,-179.37C182.4,-162.13 186.68,-132.73 200.5,-112 209.11,-99.09 222.73,-88.52 234.92,-80.88"/>
<polygon fill="midnightblue" stroke="midnightblue" points="237.02,-83.71 243.86,-75.62 233.47,-77.68 237.02,-83.71"/>
</g>
<!-- Node7 -->
<g id="node7" class="node">
<title>Node7</title>
<g id="a_node7"><a xlink:href="c__linear__operator_8h.html" target="_top" xlink:title=" ">
<polygon fill="white" stroke="black" points="209,-112.5 209,-142.5 314,-142.5 314,-112.5 209,-112.5"/>
<text text-anchor="start" x="217" y="-130.5" font-family="Helvetica,sans-Serif" font-size="10.00">../_c_linear_operator</text>
<text text-anchor="middle" x="261.5" y="-119.5" font-family="Helvetica,sans-Serif" font-size="10.00">/c_linear_operator.h</text>
</a>
</g>
</g>
<!-- Node2&#45;&gt;Node7 -->
<g id="edge6" class="edge">
<title>Node2&#45;&gt;Node7</title>
<path fill="none" stroke="midnightblue" d="M198.08,-179.4C209.11,-170.54 223.54,-158.96 235.85,-149.09"/>
<polygon fill="midnightblue" stroke="midnightblue" points="238.35,-151.56 243.96,-142.58 233.97,-146.11 238.35,-151.56"/>
</g>
<!-- Node6 -->
<g id="node6" class="node">
<title>Node6</title>
<g id="a_node6"><a xlink:href="definitions_8h.html" target="_top" xlink:title=" ">
<polygon fill="white" stroke="black" points="224,-0.5 224,-19.5 299,-19.5 299,-0.5 224,-0.5"/>
<text text-anchor="middle" x="261.5" y="-7.5" font-family="Helvetica,sans-Serif" font-size="10.00">./definitions.h</text>
</a>
</g>
</g>
<!-- Node5&#45;&gt;Node6 -->
<g id="edge5" class="edge">
<title>Node5&#45;&gt;Node6</title>
<path fill="none" stroke="midnightblue" d="M261.5,-56.08C261.5,-49.01 261.5,-38.86 261.5,-29.99"/>
<polygon fill="midnightblue" stroke="midnightblue" points="265,-29.75 261.5,-19.75 258,-29.75 265,-29.75"/>
</g>
<!-- Node7&#45;&gt;Node5 -->
<g id="edge7" class="edge">
<title>Node7&#45;&gt;Node5</title>
<path fill="none" stroke="midnightblue" d="M261.5,-112.4C261.5,-104.47 261.5,-94.46 261.5,-85.86"/>
<polygon fill="midnightblue" stroke="midnightblue" points="265,-85.66 261.5,-75.66 258,-85.66 265,-85.66"/>
</g>
</g>
</svg>
