<?xml version="1.0" encoding="UTF-8" standalone="no"?>
<!DOCTYPE svg PUBLIC "-//W3C//DTD SVG 1.1//EN"
 "http://www.w3.org/Graphics/SVG/1.1/DTD/svg11.dtd">
<!-- Generated by graphviz version 2.43.0 (0)
 -->
<!-- Title: /home/sia/work/ADCP/Noise&#45;Estimation/code/imate/imate/_cu_linear_operator/cu_matrix.h Pages: 1 -->
<svg width="450pt" height="250pt"
 viewBox="0.00 0.00 449.50 250.00" xmlns="http://www.w3.org/2000/svg" xmlns:xlink="http://www.w3.org/1999/xlink">
<g id="graph0" class="graph" transform="scale(1 1) rotate(0) translate(4 246)">
<title>/home/sia/work/ADCP/Noise&#45;Estimation/code/imate/imate/_cu_linear_operator/cu_matrix.h</title>
<polygon fill="white" stroke="transparent" points="-4,4 -4,-246 445.5,-246 445.5,4 -4,4"/>
<!-- Node1 -->
<g id="node1" class="node">
<title>Node1</title>
<g id="a_node1"><a xlink:title=" ">
<polygon fill="#bfbfbf" stroke="black" points="155.5,-189.5 155.5,-241.5 274.5,-241.5 274.5,-189.5 155.5,-189.5"/>
<text text-anchor="start" x="163.5" y="-229.5" font-family="Helvetica,sans-Serif" font-size="10.00">/home/sia/work/ADCP</text>
<text text-anchor="start" x="163.5" y="-218.5" font-family="Helvetica,sans-Serif" font-size="10.00">/Noise&#45;Estimation/code</text>
<text text-anchor="start" x="163.5" y="-207.5" font-family="Helvetica,sans-Serif" font-size="10.00">/imate/imate/_cu_linear</text>
<text text-anchor="middle" x="215" y="-196.5" font-family="Helvetica,sans-Serif" font-size="10.00">_operator/cu_matrix.h</text>
</a>
</g>
</g>
<!-- Node2 -->
<g id="node2" class="node">
<title>Node2</title>
<g id="a_node2"><a xlink:href="cu__csc__matrix_8h.html" target="_top" xlink:title=" ">
<polygon fill="white" stroke="black" points="0,-100.5 0,-152.5 132,-152.5 132,-100.5 0,-100.5"/>
<text text-anchor="start" x="8" y="-140.5" font-family="Helvetica,sans-Serif" font-size="10.00">/home/sia/work/ADCP</text>
<text text-anchor="start" x="8" y="-129.5" font-family="Helvetica,sans-Serif" font-size="10.00">/Noise&#45;Estimation/code</text>
<text text-anchor="start" x="8" y="-118.5" font-family="Helvetica,sans-Serif" font-size="10.00">/imate/imate/_cu_linear</text>
<text text-anchor="middle" x="66" y="-107.5" font-family="Helvetica,sans-Serif" font-size="10.00">_operator/cu_csc_matrix.h</text>
</a>
</g>
</g>
<!-- Node1&#45;&gt;Node2 -->
<g id="edge1" class="edge">
<title>Node1&#45;&gt;Node2</title>
<path fill="none" stroke="midnightblue" d="M162.89,-184.07C145.27,-173.79 125.82,-162.43 109,-152.61"/>
<polygon fill="midnightblue" stroke="midnightblue" points="161.5,-187.32 171.9,-189.34 165.03,-181.27 161.5,-187.32"/>
</g>
<!-- Node4 -->
<g id="node4" class="node">
<title>Node4</title>
<g id="a_node4"><a xlink:href="cu__csr__matrix_8h.html" target="_top" xlink:title=" ">
<polygon fill="white" stroke="black" points="150,-100.5 150,-152.5 280,-152.5 280,-100.5 150,-100.5"/>
<text text-anchor="start" x="158" y="-140.5" font-family="Helvetica,sans-Serif" font-size="10.00">/home/sia/work/ADCP</text>
<text text-anchor="start" x="158" y="-129.5" font-family="Helvetica,sans-Serif" font-size="10.00">/Noise&#45;Estimation/code</text>
<text text-anchor="start" x="158" y="-118.5" font-family="Helvetica,sans-Serif" font-size="10.00">/imate/imate/_cu_linear</text>
<text text-anchor="middle" x="215" y="-107.5" font-family="Helvetica,sans-Serif" font-size="10.00">_operator/cu_csr_matrix.h</text>
</a>
</g>
</g>
<!-- Node1&#45;&gt;Node4 -->
<g id="edge3" class="edge">
<title>Node1&#45;&gt;Node4</title>
<path fill="none" stroke="midnightblue" d="M215,-179.19C215,-170.28 215,-160.9 215,-152.61"/>
<polygon fill="midnightblue" stroke="midnightblue" points="211.5,-179.34 215,-189.34 218.5,-179.34 211.5,-179.34"/>
</g>
<!-- Node6 -->
<g id="node6" class="node">
<title>Node6</title>
<g id="a_node6"><a xlink:href="cu__dense__matrix_8h.html" target="_top" xlink:title=" ">
<polygon fill="white" stroke="black" points="298.5,-100.5 298.5,-152.5 441.5,-152.5 441.5,-100.5 298.5,-100.5"/>
<text text-anchor="start" x="306.5" y="-140.5" font-family="Helvetica,sans-Serif" font-size="10.00">/home/sia/work/ADCP</text>
<text text-anchor="start" x="306.5" y="-129.5" font-family="Helvetica,sans-Serif" font-size="10.00">/Noise&#45;Estimation/code</text>
<text text-anchor="start" x="306.5" y="-118.5" font-family="Helvetica,sans-Serif" font-size="10.00">/imate/imate/_cu_linear</text>
<text text-anchor="middle" x="370" y="-107.5" font-family="Helvetica,sans-Serif" font-size="10.00">_operator/cu_dense_matrix.h</text>
</a>
</g>
</g>
<!-- Node1&#45;&gt;Node6 -->
<g id="edge5" class="edge">
<title>Node1&#45;&gt;Node6</title>
<path fill="none" stroke="midnightblue" d="M268.71,-184.35C287.16,-174 307.61,-162.52 325.27,-152.61"/>
<polygon fill="midnightblue" stroke="midnightblue" points="266.84,-181.39 259.83,-189.34 270.27,-187.49 266.84,-181.39"/>
</g>
<!-- Node3 -->
<g id="node3" class="node">
<title>Node3</title>
<g id="a_node3"><a xlink:href="cu__csc__affine__matrix__function_8h.html" target="_top" xlink:title=" ">
<polygon fill="white" stroke="black" points="5.5,-0.5 5.5,-63.5 126.5,-63.5 126.5,-0.5 5.5,-0.5"/>
<text text-anchor="start" x="13.5" y="-51.5" font-family="Helvetica,sans-Serif" font-size="10.00">/home/sia/work/ADCP</text>
<text text-anchor="start" x="13.5" y="-40.5" font-family="Helvetica,sans-Serif" font-size="10.00">/Noise&#45;Estimation/code</text>
<text text-anchor="start" x="13.5" y="-29.5" font-family="Helvetica,sans-Serif" font-size="10.00">/imate/imate/_cu_linear</text>
<text text-anchor="start" x="13.5" y="-18.5" font-family="Helvetica,sans-Serif" font-size="10.00">_operator/cu_csc_affine</text>
<text text-anchor="middle" x="66" y="-7.5" font-family="Helvetica,sans-Serif" font-size="10.00">_matrix_function.h</text>
</a>
</g>
</g>
<!-- Node2&#45;&gt;Node3 -->
<g id="edge2" class="edge">
<title>Node2&#45;&gt;Node3</title>
<path fill="none" stroke="midnightblue" d="M66,-89.94C66,-81.23 66,-71.97 66,-63.51"/>
<polygon fill="midnightblue" stroke="midnightblue" points="62.5,-90.22 66,-100.22 69.5,-90.22 62.5,-90.22"/>
</g>
<!-- Node5 -->
<g id="node5" class="node">
<title>Node5</title>
<g id="a_node5"><a xlink:href="cu__csr__affine__matrix__function_8h.html" target="_top" xlink:title=" ">
<polygon fill="white" stroke="black" points="155.5,-0.5 155.5,-63.5 274.5,-63.5 274.5,-0.5 155.5,-0.5"/>
<text text-anchor="start" x="163.5" y="-51.5" font-family="Helvetica,sans-Serif" font-size="10.00">/home/sia/work/ADCP</text>
<text text-anchor="start" x="163.5" y="-40.5" font-family="Helvetica,sans-Serif" font-size="10.00">/Noise&#45;Estimation/code</text>
<text text-anchor="start" x="163.5" y="-29.5" font-family="Helvetica,sans-Serif" font-size="10.00">/imate/imate/_cu_linear</text>
<text text-anchor="start" x="163.5" y="-18.5" font-family="Helvetica,sans-Serif" font-size="10.00">_operator/cu_csr_affine</text>
<text text-anchor="middle" x="215" y="-7.5" font-family="Helvetica,sans-Serif" font-size="10.00">_matrix_function.h</text>
</a>
</g>
</g>
<!-- Node4&#45;&gt;Node5 -->
<g id="edge4" class="edge">
<title>Node4&#45;&gt;Node5</title>
<path fill="none" stroke="midnightblue" d="M215,-89.94C215,-81.23 215,-71.97 215,-63.51"/>
<polygon fill="midnightblue" stroke="midnightblue" points="211.5,-90.22 215,-100.22 218.5,-90.22 211.5,-90.22"/>
</g>
<!-- Node7 -->
<g id="node7" class="node">
<title>Node7</title>
<g id="a_node7"><a xlink:href="cu__dense__affine__matrix__function_8h.html" target="_top" xlink:title=" ">
<polygon fill="white" stroke="black" points="304.5,-0.5 304.5,-63.5 435.5,-63.5 435.5,-0.5 304.5,-0.5"/>
<text text-anchor="start" x="312.5" y="-51.5" font-family="Helvetica,sans-Serif" font-size="10.00">/home/sia/work/ADCP</text>
<text text-anchor="start" x="312.5" y="-40.5" font-family="Helvetica,sans-Serif" font-size="10.00">/Noise&#45;Estimation/code</text>
<text text-anchor="start" x="312.5" y="-29.5" font-family="Helvetica,sans-Serif" font-size="10.00">/imate/imate/_cu_linear</text>
<text text-anchor="start" x="312.5" y="-18.5" font-family="Helvetica,sans-Serif" font-size="10.00">_operator/cu_dense_affine</text>
<text text-anchor="middle" x="370" y="-7.5" font-family="Helvetica,sans-Serif" font-size="10.00">_matrix_function.h</text>
</a>
</g>
</g>
<!-- Node6&#45;&gt;Node7 -->
<g id="edge6" class="edge">
<title>Node6&#45;&gt;Node7</title>
<path fill="none" stroke="midnightblue" d="M370,-89.94C370,-81.23 370,-71.97 370,-63.51"/>
<polygon fill="midnightblue" stroke="midnightblue" points="366.5,-90.22 370,-100.22 373.5,-90.22 366.5,-90.22"/>
</g>
</g>
</svg>
