<?xml version="1.0" encoding="UTF-8" standalone="no"?>
<!DOCTYPE svg PUBLIC "-//W3C//DTD SVG 1.1//EN"
 "http://www.w3.org/Graphics/SVG/1.1/DTD/svg11.dtd">
<!-- Generated by graphviz version 2.43.0 (0)
 -->
<!-- Title: /home/sia/work/ADCP/Noise&#45;Estimation/code/imate/imate/_cu_linear_operator/cu_linear_operator.h Pages: 1 -->
<svg width="322pt" height="240pt"
 viewBox="0.00 0.00 322.00 240.00" xmlns="http://www.w3.org/2000/svg" xmlns:xlink="http://www.w3.org/1999/xlink">
<g id="graph0" class="graph" transform="scale(1 1) rotate(0) translate(4 236)">
<title>/home/sia/work/ADCP/Noise&#45;Estimation/code/imate/imate/_cu_linear_operator/cu_linear_operator.h</title>
<polygon fill="white" stroke="transparent" points="-4,4 -4,-236 318,-236 318,4 -4,4"/>
<!-- Node1 -->
<g id="node1" class="node">
<title>Node1</title>
<g id="a_node1"><a xlink:title=" ">
<polygon fill="#bfbfbf" stroke="black" points="76,-179.5 76,-231.5 223,-231.5 223,-179.5 76,-179.5"/>
<text text-anchor="start" x="84" y="-219.5" font-family="Helvetica,sans-Serif" font-size="10.00">/home/sia/work/ADCP</text>
<text text-anchor="start" x="84" y="-208.5" font-family="Helvetica,sans-Serif" font-size="10.00">/Noise&#45;Estimation/code</text>
<text text-anchor="start" x="84" y="-197.5" font-family="Helvetica,sans-Serif" font-size="10.00">/imate/imate/_cu_linear</text>
<text text-anchor="middle" x="149.5" y="-186.5" font-family="Helvetica,sans-Serif" font-size="10.00">_operator/cu_linear_operator.h</text>
</a>
</g>
</g>
<!-- Node2 -->
<g id="node2" class="node">
<title>Node2</title>
<g id="a_node2"><a xlink:title=" ">
<polygon fill="white" stroke="#bfbfbf" points="0,-118 0,-137 69,-137 69,-118 0,-118"/>
<text text-anchor="middle" x="34.5" y="-125" font-family="Helvetica,sans-Serif" font-size="10.00">cublas_v2.h</text>
</a>
</g>
</g>
<!-- Node1&#45;&gt;Node2 -->
<g id="edge1" class="edge">
<title>Node1&#45;&gt;Node2</title>
<path fill="none" stroke="midnightblue" d="M111.53,-179.4C93.04,-167.19 71.5,-152.95 55.91,-142.65"/>
<polygon fill="midnightblue" stroke="midnightblue" points="57.75,-139.67 47.48,-137.08 53.89,-145.51 57.75,-139.67"/>
</g>
<!-- Node3 -->
<g id="node3" class="node">
<title>Node3</title>
<g id="a_node3"><a xlink:title=" ">
<polygon fill="white" stroke="#bfbfbf" points="87,-118 87,-137 152,-137 152,-118 87,-118"/>
<text text-anchor="middle" x="119.5" y="-125" font-family="Helvetica,sans-Serif" font-size="10.00">cusparse.h</text>
</a>
</g>
</g>
<!-- Node1&#45;&gt;Node3 -->
<g id="edge2" class="edge">
<title>Node1&#45;&gt;Node3</title>
<path fill="none" stroke="midnightblue" d="M139.51,-179.19C135.3,-168.54 130.5,-156.38 126.66,-146.64"/>
<polygon fill="midnightblue" stroke="midnightblue" points="129.86,-145.23 122.94,-137.21 123.35,-147.8 129.86,-145.23"/>
</g>
<!-- Node4 -->
<g id="node4" class="node">
<title>Node4</title>
<g id="a_node4"><a xlink:href="types_8h.html" target="_top" xlink:title=" ">
<polygon fill="white" stroke="black" points="165.5,-56.5 165.5,-75.5 275.5,-75.5 275.5,-56.5 165.5,-56.5"/>
<text text-anchor="middle" x="220.5" y="-63.5" font-family="Helvetica,sans-Serif" font-size="10.00">../_definitions/types.h</text>
</a>
</g>
</g>
<!-- Node1&#45;&gt;Node4 -->
<g id="edge3" class="edge">
<title>Node1&#45;&gt;Node4</title>
<path fill="none" stroke="midnightblue" d="M162.52,-179.28C176.67,-151.87 198.92,-108.79 211.34,-84.74"/>
<polygon fill="midnightblue" stroke="midnightblue" points="214.53,-86.19 216.01,-75.7 208.31,-82.98 214.53,-86.19"/>
</g>
<!-- Node6 -->
<g id="node6" class="node">
<title>Node6</title>
<g id="a_node6"><a xlink:href="c__linear__operator_8h.html" target="_top" xlink:title=" ">
<polygon fill="white" stroke="black" points="209,-112.5 209,-142.5 314,-142.5 314,-112.5 209,-112.5"/>
<text text-anchor="start" x="217" y="-130.5" font-family="Helvetica,sans-Serif" font-size="10.00">../_c_linear_operator</text>
<text text-anchor="middle" x="261.5" y="-119.5" font-family="Helvetica,sans-Serif" font-size="10.00">/c_linear_operator.h</text>
</a>
</g>
</g>
<!-- Node1&#45;&gt;Node6 -->
<g id="edge5" class="edge">
<title>Node1&#45;&gt;Node6</title>
<path fill="none" stroke="midnightblue" d="M186.48,-179.4C201.36,-169.31 218.28,-157.83 232.27,-148.33"/>
<polygon fill="midnightblue" stroke="midnightblue" points="234.25,-151.22 240.56,-142.71 230.32,-145.43 234.25,-151.22"/>
</g>
<!-- Node5 -->
<g id="node5" class="node">
<title>Node5</title>
<g id="a_node5"><a xlink:href="definitions_8h.html" target="_top" xlink:title=" ">
<polygon fill="white" stroke="black" points="183,-0.5 183,-19.5 258,-19.5 258,-0.5 183,-0.5"/>
<text text-anchor="middle" x="220.5" y="-7.5" font-family="Helvetica,sans-Serif" font-size="10.00">./definitions.h</text>
</a>
</g>
</g>
<!-- Node4&#45;&gt;Node5 -->
<g id="edge4" class="edge">
<title>Node4&#45;&gt;Node5</title>
<path fill="none" stroke="midnightblue" d="M220.5,-56.08C220.5,-49.01 220.5,-38.86 220.5,-29.99"/>
<polygon fill="midnightblue" stroke="midnightblue" points="224,-29.75 220.5,-19.75 217,-29.75 224,-29.75"/>
</g>
<!-- Node6&#45;&gt;Node4 -->
<g id="edge6" class="edge">
<title>Node6&#45;&gt;Node4</title>
<path fill="none" stroke="midnightblue" d="M251.78,-112.4C245.95,-103.93 238.48,-93.1 232.31,-84.14"/>
<polygon fill="midnightblue" stroke="midnightblue" points="235.02,-81.91 226.47,-75.66 229.26,-85.88 235.02,-81.91"/>
</g>
</g>
</svg>
