<?xml version="1.0" encoding="UTF-8" standalone="no"?>
<!DOCTYPE svg PUBLIC "-//W3C//DTD SVG 1.1//EN"
 "http://www.w3.org/Graphics/SVG/1.1/DTD/svg11.dtd">
<!-- Generated by graphviz version 2.43.0 (0)
 -->
<!-- Title: /home/sia/work/ADCP/Noise&#45;Estimation/code/imate/imate/_cu_linear_operator/cu_csc_affine_matrix_function.h Pages: 1 -->
<svg width="481pt" height="419pt"
 viewBox="0.00 0.00 481.05 419.00" xmlns="http://www.w3.org/2000/svg" xmlns:xlink="http://www.w3.org/1999/xlink">
<g id="graph0" class="graph" transform="scale(1 1) rotate(0) translate(4 415)">
<title>/home/sia/work/ADCP/Noise&#45;Estimation/code/imate/imate/_cu_linear_operator/cu_csc_affine_matrix_function.h</title>
<polygon fill="white" stroke="transparent" points="-4,4 -4,-415 477.05,-415 477.05,4 -4,4"/>
<!-- Node1 -->
<g id="node1" class="node">
<title>Node1</title>
<g id="a_node1"><a xlink:title=" ">
<polygon fill="#bfbfbf" stroke="black" points="283.55,-347.5 283.55,-410.5 404.55,-410.5 404.55,-347.5 283.55,-347.5"/>
<text text-anchor="start" x="291.55" y="-398.5" font-family="Helvetica,sans-Serif" font-size="10.00">/home/sia/work/ADCP</text>
<text text-anchor="start" x="291.55" y="-387.5" font-family="Helvetica,sans-Serif" font-size="10.00">/Noise&#45;Estimation/code</text>
<text text-anchor="start" x="291.55" y="-376.5" font-family="Helvetica,sans-Serif" font-size="10.00">/imate/imate/_cu_linear</text>
<text text-anchor="start" x="291.55" y="-365.5" font-family="Helvetica,sans-Serif" font-size="10.00">_operator/cu_csc_affine</text>
<text text-anchor="middle" x="344.05" y="-354.5" font-family="Helvetica,sans-Serif" font-size="10.00">_matrix_function.h</text>
</a>
</g>
</g>
<!-- Node2 -->
<g id="node2" class="node">
<title>Node2</title>
<g id="a_node2"><a xlink:href="types_8h.html" target="_top" xlink:title=" ">
<polygon fill="white" stroke="black" points="93.05,-56.5 93.05,-75.5 203.05,-75.5 203.05,-56.5 93.05,-56.5"/>
<text text-anchor="middle" x="148.05" y="-63.5" font-family="Helvetica,sans-Serif" font-size="10.00">../_definitions/types.h</text>
</a>
</g>
</g>
<!-- Node1&#45;&gt;Node2 -->
<g id="edge1" class="edge">
<title>Node1&#45;&gt;Node2</title>
<path fill="none" stroke="midnightblue" d="M399.13,-347.37C434.19,-323.41 473.05,-286.49 473.05,-240.5 473.05,-240.5 473.05,-240.5 473.05,-177 473.05,-143.31 461.98,-130.83 434.05,-112 398.97,-88.35 286.37,-76.35 213.36,-70.9"/>
<polygon fill="midnightblue" stroke="midnightblue" points="213.56,-67.4 203.33,-70.17 213.05,-74.38 213.56,-67.4"/>
</g>
<!-- Node4 -->
<g id="node4" class="node">
<title>Node4</title>
<g id="a_node4"><a xlink:href="cu__csc__matrix_8h.html" target="_top" xlink:title=" ">
<polygon fill="white" stroke="black" points="86.55,-291.5 86.55,-310.5 181.55,-310.5 181.55,-291.5 86.55,-291.5"/>
<text text-anchor="middle" x="134.05" y="-298.5" font-family="Helvetica,sans-Serif" font-size="10.00">./cu_csc_matrix.h</text>
</a>
</g>
</g>
<!-- Node1&#45;&gt;Node4 -->
<g id="edge3" class="edge">
<title>Node1&#45;&gt;Node4</title>
<path fill="none" stroke="midnightblue" d="M283.31,-356.02C245.49,-342.33 198.29,-325.25 167.22,-314"/>
<polygon fill="midnightblue" stroke="midnightblue" points="168.32,-310.68 157.73,-310.57 165.94,-317.26 168.32,-310.68"/>
</g>
<!-- Node12 -->
<g id="node12" class="node">
<title>Node12</title>
<g id="a_node12"><a xlink:href="cu__affine__matrix__function_8h.html" target="_top" xlink:title=" ">
<polygon fill="white" stroke="black" points="296.55,-224.5 296.55,-254.5 391.55,-254.5 391.55,-224.5 296.55,-224.5"/>
<text text-anchor="start" x="304.55" y="-242.5" font-family="Helvetica,sans-Serif" font-size="10.00">./cu_affine_matrix</text>
<text text-anchor="middle" x="344.05" y="-231.5" font-family="Helvetica,sans-Serif" font-size="10.00">_function.h</text>
</a>
</g>
</g>
<!-- Node1&#45;&gt;Node12 -->
<g id="edge18" class="edge">
<title>Node1&#45;&gt;Node12</title>
<path fill="none" stroke="midnightblue" d="M344.05,-347.48C344.05,-322.6 344.05,-287.91 344.05,-264.86"/>
<polygon fill="midnightblue" stroke="midnightblue" points="347.55,-264.57 344.05,-254.57 340.55,-264.57 347.55,-264.57"/>
</g>
<!-- Node3 -->
<g id="node3" class="node">
<title>Node3</title>
<g id="a_node3"><a xlink:href="definitions_8h.html" target="_top" xlink:title=" ">
<polygon fill="white" stroke="black" points="110.55,-0.5 110.55,-19.5 185.55,-19.5 185.55,-0.5 110.55,-0.5"/>
<text text-anchor="middle" x="148.05" y="-7.5" font-family="Helvetica,sans-Serif" font-size="10.00">./definitions.h</text>
</a>
</g>
</g>
<!-- Node2&#45;&gt;Node3 -->
<g id="edge2" class="edge">
<title>Node2&#45;&gt;Node3</title>
<path fill="none" stroke="midnightblue" d="M148.05,-56.08C148.05,-49.01 148.05,-38.86 148.05,-29.99"/>
<polygon fill="midnightblue" stroke="midnightblue" points="151.55,-29.75 148.05,-19.75 144.55,-29.75 151.55,-29.75"/>
</g>
<!-- Node4&#45;&gt;Node2 -->
<g id="edge4" class="edge">
<title>Node4&#45;&gt;Node2</title>
<path fill="none" stroke="midnightblue" d="M86.27,-296.84C57.36,-292.18 22.61,-281.07 4.05,-255 -3.94,-243.78 2.66,-237.71 4.05,-224 9.19,-173.44 -6.02,-150.58 27.05,-112 41.41,-95.25 62.61,-84.73 83.27,-78.12"/>
<polygon fill="midnightblue" stroke="midnightblue" points="84.4,-81.44 93.01,-75.27 82.43,-74.72 84.4,-81.44"/>
</g>
<!-- Node5 -->
<g id="node5" class="node">
<title>Node5</title>
<g id="a_node5"><a xlink:href="c__csc__matrix_8h.html" target="_top" xlink:title=" ">
<polygon fill="white" stroke="black" points="13.55,-224.5 13.55,-254.5 118.55,-254.5 118.55,-224.5 13.55,-224.5"/>
<text text-anchor="start" x="21.55" y="-242.5" font-family="Helvetica,sans-Serif" font-size="10.00">../_c_linear_operator</text>
<text text-anchor="middle" x="66.05" y="-231.5" font-family="Helvetica,sans-Serif" font-size="10.00">/c_csc_matrix.h</text>
</a>
</g>
</g>
<!-- Node4&#45;&gt;Node5 -->
<g id="edge5" class="edge">
<title>Node4&#45;&gt;Node5</title>
<path fill="none" stroke="midnightblue" d="M124.31,-291.48C115.36,-283.64 101.72,-271.71 89.9,-261.37"/>
<polygon fill="midnightblue" stroke="midnightblue" points="91.91,-258.47 82.08,-254.52 87.3,-263.74 91.91,-258.47"/>
</g>
<!-- Node8 -->
<g id="node8" class="node">
<title>Node8</title>
<g id="a_node8"><a xlink:href="cu__matrix_8h.html" target="_top" xlink:title=" ">
<polygon fill="white" stroke="black" points="151.05,-230 151.05,-249 225.05,-249 225.05,-230 151.05,-230"/>
<text text-anchor="middle" x="188.05" y="-237" font-family="Helvetica,sans-Serif" font-size="10.00">./cu_matrix.h</text>
</a>
</g>
</g>
<!-- Node4&#45;&gt;Node8 -->
<g id="edge11" class="edge">
<title>Node4&#45;&gt;Node8</title>
<path fill="none" stroke="midnightblue" d="M141.79,-291.48C150.05,-282.37 163.33,-267.74 173.55,-256.48"/>
<polygon fill="midnightblue" stroke="midnightblue" points="176.2,-258.77 180.33,-249.01 171.02,-254.06 176.2,-258.77"/>
</g>
<!-- Node5&#45;&gt;Node2 -->
<g id="edge6" class="edge">
<title>Node5&#45;&gt;Node2</title>
<path fill="none" stroke="midnightblue" d="M49.25,-224.47C39.57,-215.24 28.3,-202.26 23.05,-188 14.42,-164.55 37.69,-113.52 39.05,-112 53.52,-95.79 74.73,-85.29 94.6,-78.54"/>
<polygon fill="midnightblue" stroke="midnightblue" points="95.72,-81.86 104.21,-75.53 93.62,-75.18 95.72,-81.86"/>
</g>
<!-- Node6 -->
<g id="node6" class="node">
<title>Node6</title>
<g id="a_node6"><a xlink:href="c__matrix_8h.html" target="_top" xlink:title=" ">
<polygon fill="white" stroke="black" points="32.05,-168.5 32.05,-187.5 100.05,-187.5 100.05,-168.5 32.05,-168.5"/>
<text text-anchor="middle" x="66.05" y="-175.5" font-family="Helvetica,sans-Serif" font-size="10.00">./c_matrix.h</text>
</a>
</g>
</g>
<!-- Node5&#45;&gt;Node6 -->
<g id="edge7" class="edge">
<title>Node5&#45;&gt;Node6</title>
<path fill="none" stroke="midnightblue" d="M66.05,-224.4C66.05,-216.47 66.05,-206.46 66.05,-197.86"/>
<polygon fill="midnightblue" stroke="midnightblue" points="69.55,-197.66 66.05,-187.66 62.55,-197.66 69.55,-197.66"/>
</g>
<!-- Node6&#45;&gt;Node2 -->
<g id="edge8" class="edge">
<title>Node6&#45;&gt;Node2</title>
<path fill="none" stroke="midnightblue" d="M59.29,-168.35C49.92,-155.23 35.4,-129.95 47.05,-112 57.46,-95.97 75.05,-85.6 92.66,-78.92"/>
<polygon fill="midnightblue" stroke="midnightblue" points="94.08,-82.13 102.4,-75.57 91.8,-75.51 94.08,-82.13"/>
</g>
<!-- Node7 -->
<g id="node7" class="node">
<title>Node7</title>
<g id="a_node7"><a xlink:href="c__linear__operator_8h.html" target="_top" xlink:title=" ">
<polygon fill="white" stroke="black" points="56.05,-112.5 56.05,-131.5 160.05,-131.5 160.05,-112.5 56.05,-112.5"/>
<text text-anchor="middle" x="108.05" y="-119.5" font-family="Helvetica,sans-Serif" font-size="10.00">./c_linear_operator.h</text>
</a>
</g>
</g>
<!-- Node6&#45;&gt;Node7 -->
<g id="edge9" class="edge">
<title>Node6&#45;&gt;Node7</title>
<path fill="none" stroke="midnightblue" d="M72.99,-168.08C78.98,-160.38 87.8,-149.03 95.1,-139.65"/>
<polygon fill="midnightblue" stroke="midnightblue" points="97.87,-141.79 101.24,-131.75 92.34,-137.5 97.87,-141.79"/>
</g>
<!-- Node7&#45;&gt;Node2 -->
<g id="edge10" class="edge">
<title>Node7&#45;&gt;Node2</title>
<path fill="none" stroke="midnightblue" d="M114.66,-112.08C120.31,-104.46 128.6,-93.26 135.5,-83.94"/>
<polygon fill="midnightblue" stroke="midnightblue" points="138.43,-85.87 141.57,-75.75 132.8,-81.7 138.43,-85.87"/>
</g>
<!-- Node8&#45;&gt;Node2 -->
<g id="edge12" class="edge">
<title>Node8&#45;&gt;Node2</title>
<path fill="none" stroke="midnightblue" d="M187.6,-229.72C186.34,-208.88 182,-154.95 169.05,-112 166.22,-102.61 161.76,-92.68 157.67,-84.54"/>
<polygon fill="midnightblue" stroke="midnightblue" points="160.76,-82.89 153.02,-75.67 154.56,-86.15 160.76,-82.89"/>
</g>
<!-- Node9 -->
<g id="node9" class="node">
<title>Node9</title>
<g id="a_node9"><a xlink:href="cu__linear__operator_8h.html" target="_top" xlink:title=" ">
<polygon fill="white" stroke="black" points="225.05,-168.5 225.05,-187.5 335.05,-187.5 335.05,-168.5 225.05,-168.5"/>
<text text-anchor="middle" x="280.05" y="-175.5" font-family="Helvetica,sans-Serif" font-size="10.00">./cu_linear_operator.h</text>
</a>
</g>
</g>
<!-- Node8&#45;&gt;Node9 -->
<g id="edge13" class="edge">
<title>Node8&#45;&gt;Node9</title>
<path fill="none" stroke="midnightblue" d="M201.23,-229.98C216.13,-220.34 240.6,-204.52 258.32,-193.05"/>
<polygon fill="midnightblue" stroke="midnightblue" points="260.4,-195.88 266.89,-187.51 256.6,-190 260.4,-195.88"/>
</g>
<!-- Node9&#45;&gt;Node2 -->
<g id="edge16" class="edge">
<title>Node9&#45;&gt;Node2</title>
<path fill="none" stroke="midnightblue" d="M269.69,-168.37C247.33,-149.73 194.29,-105.53 166.21,-82.13"/>
<polygon fill="midnightblue" stroke="midnightblue" points="168.28,-79.3 158.36,-75.59 163.8,-84.68 168.28,-79.3"/>
</g>
<!-- Node9&#45;&gt;Node7 -->
<g id="edge17" class="edge">
<title>Node9&#45;&gt;Node7</title>
<path fill="none" stroke="midnightblue" d="M252.8,-168.44C223.61,-159.28 177.13,-144.69 144.74,-134.52"/>
<polygon fill="midnightblue" stroke="midnightblue" points="145.77,-131.17 135.18,-131.52 143.67,-137.85 145.77,-131.17"/>
</g>
<!-- Node10 -->
<g id="node10" class="node">
<title>Node10</title>
<g id="a_node10"><a xlink:title=" ">
<polygon fill="white" stroke="#bfbfbf" points="254.55,-112.5 254.55,-131.5 323.55,-131.5 323.55,-112.5 254.55,-112.5"/>
<text text-anchor="middle" x="289.05" y="-119.5" font-family="Helvetica,sans-Serif" font-size="10.00">cublas_v2.h</text>
</a>
</g>
</g>
<!-- Node9&#45;&gt;Node10 -->
<g id="edge14" class="edge">
<title>Node9&#45;&gt;Node10</title>
<path fill="none" stroke="midnightblue" d="M281.54,-168.08C282.73,-160.93 284.44,-150.64 285.94,-141.69"/>
<polygon fill="midnightblue" stroke="midnightblue" points="289.4,-142.19 287.59,-131.75 282.5,-141.04 289.4,-142.19"/>
</g>
<!-- Node11 -->
<g id="node11" class="node">
<title>Node11</title>
<g id="a_node11"><a xlink:title=" ">
<polygon fill="white" stroke="#bfbfbf" points="341.55,-112.5 341.55,-131.5 406.55,-131.5 406.55,-112.5 341.55,-112.5"/>
<text text-anchor="middle" x="374.05" y="-119.5" font-family="Helvetica,sans-Serif" font-size="10.00">cusparse.h</text>
</a>
</g>
</g>
<!-- Node9&#45;&gt;Node11 -->
<g id="edge15" class="edge">
<title>Node9&#45;&gt;Node11</title>
<path fill="none" stroke="midnightblue" d="M295.15,-168.32C309.95,-159.82 332.75,-146.73 350.03,-136.8"/>
<polygon fill="midnightblue" stroke="midnightblue" points="352.06,-139.67 358.99,-131.65 348.57,-133.6 352.06,-139.67"/>
</g>
<!-- Node12&#45;&gt;Node2 -->
<g id="edge19" class="edge">
<title>Node12&#45;&gt;Node2</title>
<path fill="none" stroke="midnightblue" d="M363.09,-224.14C393.52,-199.49 446.74,-148.27 416.05,-112 390.6,-81.92 284.27,-71.93 213.43,-68.63"/>
<polygon fill="midnightblue" stroke="midnightblue" points="213.4,-65.12 203.25,-68.19 213.09,-72.12 213.4,-65.12"/>
</g>
<!-- Node12&#45;&gt;Node9 -->
<g id="edge20" class="edge">
<title>Node12&#45;&gt;Node9</title>
<path fill="none" stroke="midnightblue" d="M328.88,-224.4C319.3,-215.49 306.89,-203.95 296.98,-194.74"/>
<polygon fill="midnightblue" stroke="midnightblue" points="299.07,-191.9 289.36,-187.66 294.3,-197.03 299.07,-191.9"/>
</g>
</g>
</svg>
