<?xml version="1.0" encoding="UTF-8" standalone="no"?>
<!DOCTYPE svg PUBLIC "-//W3C//DTD SVG 1.1//EN"
 "http://www.w3.org/Graphics/SVG/1.1/DTD/svg11.dtd">
<!-- Generated by graphviz version 2.43.0 (0)
 -->
<!-- Title: /home/sia/work/ADCP/Noise&#45;Estimation/code/imate/imate/_cuda_dynamic_loading/cudart_symbols.cpp Pages: 1 -->
<svg width="417pt" height="229pt"
 viewBox="0.00 0.00 416.50 229.00" xmlns="http://www.w3.org/2000/svg" xmlns:xlink="http://www.w3.org/1999/xlink">
<g id="graph0" class="graph" transform="scale(1 1) rotate(0) translate(4 225)">
<title>/home/sia/work/ADCP/Noise&#45;Estimation/code/imate/imate/_cuda_dynamic_loading/cudart_symbols.cpp</title>
<polygon fill="white" stroke="transparent" points="-4,4 -4,-225 412.5,-225 412.5,4 -4,4"/>
<!-- Node1 -->
<g id="node1" class="node">
<title>Node1</title>
<g id="a_node1"><a xlink:title=" ">
<polygon fill="#bfbfbf" stroke="black" points="154,-168.5 154,-220.5 297,-220.5 297,-168.5 154,-168.5"/>
<text text-anchor="start" x="162" y="-208.5" font-family="Helvetica,sans-Serif" font-size="10.00">/home/sia/work/ADCP</text>
<text text-anchor="start" x="162" y="-197.5" font-family="Helvetica,sans-Serif" font-size="10.00">/Noise&#45;Estimation/code</text>
<text text-anchor="start" x="162" y="-186.5" font-family="Helvetica,sans-Serif" font-size="10.00">/imate/imate/_cuda_dynamic</text>
<text text-anchor="middle" x="225.5" y="-175.5" font-family="Helvetica,sans-Serif" font-size="10.00">_loading/cudart_symbols.cpp</text>
</a>
</g>
</g>
<!-- Node2 -->
<g id="node2" class="node">
<title>Node2</title>
<g id="a_node2"><a xlink:href="cudart__symbols_8h.html" target="_top" xlink:title=" ">
<polygon fill="white" stroke="black" points="46.5,-112.5 46.5,-131.5 146.5,-131.5 146.5,-112.5 46.5,-112.5"/>
<text text-anchor="middle" x="96.5" y="-119.5" font-family="Helvetica,sans-Serif" font-size="10.00">./cudart_symbols.h</text>
</a>
</g>
</g>
<!-- Node1&#45;&gt;Node2 -->
<g id="edge1" class="edge">
<title>Node1&#45;&gt;Node2</title>
<path fill="none" stroke="midnightblue" d="M179.66,-168.45C159.92,-157.66 137.64,-145.48 121.11,-136.45"/>
<polygon fill="midnightblue" stroke="midnightblue" points="122.56,-133.25 112.1,-131.53 119.2,-139.39 122.56,-133.25"/>
</g>
<!-- Node5 -->
<g id="node5" class="node">
<title>Node5</title>
<g id="a_node5"><a xlink:title=" ">
<polygon fill="white" stroke="#bfbfbf" points="88,-0.5 88,-19.5 189,-19.5 189,-0.5 88,-0.5"/>
<text text-anchor="middle" x="138.5" y="-7.5" font-family="Helvetica,sans-Serif" font-size="10.00">cuda_runtime_api.h</text>
</a>
</g>
</g>
<!-- Node1&#45;&gt;Node5 -->
<g id="edge5" class="edge">
<title>Node1&#45;&gt;Node5</title>
<path fill="none" stroke="midnightblue" d="M211.96,-168.22C206.14,-157.17 199.35,-144.01 193.5,-132 175.89,-95.84 156.76,-52.83 146.35,-29.06"/>
<polygon fill="midnightblue" stroke="midnightblue" points="149.42,-27.35 142.21,-19.58 143.01,-30.15 149.42,-27.35"/>
</g>
<!-- Node6 -->
<g id="node6" class="node">
<title>Node6</title>
<g id="a_node6"><a xlink:title=" ">
<polygon fill="white" stroke="#bfbfbf" points="203,-112.5 203,-131.5 248,-131.5 248,-112.5 203,-112.5"/>
<text text-anchor="middle" x="225.5" y="-119.5" font-family="Helvetica,sans-Serif" font-size="10.00">cstdlib</text>
</a>
</g>
</g>
<!-- Node1&#45;&gt;Node6 -->
<g id="edge6" class="edge">
<title>Node1&#45;&gt;Node6</title>
<path fill="none" stroke="midnightblue" d="M225.5,-168.45C225.5,-159.73 225.5,-150.1 225.5,-141.96"/>
<polygon fill="midnightblue" stroke="midnightblue" points="229,-141.7 225.5,-131.7 222,-141.7 229,-141.7"/>
</g>
<!-- Node7 -->
<g id="node7" class="node">
<title>Node7</title>
<g id="a_node7"><a xlink:title=" ">
<polygon fill="white" stroke="#bfbfbf" points="253.5,-56.5 253.5,-75.5 305.5,-75.5 305.5,-56.5 253.5,-56.5"/>
<text text-anchor="middle" x="279.5" y="-63.5" font-family="Helvetica,sans-Serif" font-size="10.00">sstream</text>
</a>
</g>
</g>
<!-- Node1&#45;&gt;Node7 -->
<g id="edge7" class="edge">
<title>Node1&#45;&gt;Node7</title>
<path fill="none" stroke="midnightblue" d="M239.05,-168.41C244.77,-157.39 251.29,-144.21 256.5,-132 263.11,-116.52 269.4,-98.43 273.72,-85.27"/>
<polygon fill="midnightblue" stroke="midnightblue" points="277.12,-86.14 276.86,-75.55 270.46,-83.99 277.12,-86.14"/>
</g>
<!-- Node8 -->
<g id="node8" class="node">
<title>Node8</title>
<g id="a_node8"><a xlink:href="dynamic__loading_8h.html" target="_top" xlink:title=" ">
<polygon fill="white" stroke="black" points="304.5,-112.5 304.5,-131.5 408.5,-131.5 408.5,-112.5 304.5,-112.5"/>
<text text-anchor="middle" x="356.5" y="-119.5" font-family="Helvetica,sans-Serif" font-size="10.00">./dynamic_loading.h</text>
</a>
</g>
</g>
<!-- Node1&#45;&gt;Node8 -->
<g id="edge8" class="edge">
<title>Node1&#45;&gt;Node8</title>
<path fill="none" stroke="midnightblue" d="M272.05,-168.45C292.1,-157.66 314.73,-145.48 331.51,-136.45"/>
<polygon fill="midnightblue" stroke="midnightblue" points="333.51,-139.35 340.66,-131.53 330.19,-133.18 333.51,-139.35"/>
</g>
<!-- Node3 -->
<g id="node3" class="node">
<title>Node3</title>
<g id="a_node3"><a xlink:title=" ">
<polygon fill="white" stroke="#bfbfbf" points="0,-56.5 0,-75.5 41,-75.5 41,-56.5 0,-56.5"/>
<text text-anchor="middle" x="20.5" y="-63.5" font-family="Helvetica,sans-Serif" font-size="10.00">string</text>
</a>
</g>
</g>
<!-- Node2&#45;&gt;Node3 -->
<g id="edge2" class="edge">
<title>Node2&#45;&gt;Node3</title>
<path fill="none" stroke="midnightblue" d="M84.29,-112.32C72.72,-104.11 55.12,-91.6 41.34,-81.81"/>
<polygon fill="midnightblue" stroke="midnightblue" points="43.11,-78.77 32.93,-75.83 39.06,-84.48 43.11,-78.77"/>
</g>
<!-- Node4 -->
<g id="node4" class="node">
<title>Node4</title>
<g id="a_node4"><a xlink:href="cudart__types_8h.html" target="_top" xlink:title=" ">
<polygon fill="white" stroke="black" points="59,-56.5 59,-75.5 146,-75.5 146,-56.5 59,-56.5"/>
<text text-anchor="middle" x="102.5" y="-63.5" font-family="Helvetica,sans-Serif" font-size="10.00">./cudart_types.h</text>
</a>
</g>
</g>
<!-- Node2&#45;&gt;Node4 -->
<g id="edge3" class="edge">
<title>Node2&#45;&gt;Node4</title>
<path fill="none" stroke="midnightblue" d="M97.49,-112.08C98.29,-104.93 99.43,-94.64 100.42,-85.69"/>
<polygon fill="midnightblue" stroke="midnightblue" points="103.9,-86.08 101.53,-75.75 96.94,-85.3 103.9,-86.08"/>
</g>
<!-- Node4&#45;&gt;Node5 -->
<g id="edge4" class="edge">
<title>Node4&#45;&gt;Node5</title>
<path fill="none" stroke="midnightblue" d="M108.44,-56.08C113.48,-48.53 120.84,-37.49 127.01,-28.23"/>
<polygon fill="midnightblue" stroke="midnightblue" points="130.03,-30.01 132.67,-19.75 124.21,-26.13 130.03,-30.01"/>
</g>
<!-- Node8&#45;&gt;Node7 -->
<g id="edge10" class="edge">
<title>Node8&#45;&gt;Node7</title>
<path fill="none" stroke="midnightblue" d="M344.13,-112.32C332.34,-104.06 314.37,-91.45 300.36,-81.63"/>
<polygon fill="midnightblue" stroke="midnightblue" points="302.04,-78.53 291.84,-75.65 298.02,-84.26 302.04,-78.53"/>
</g>
<!-- Node9 -->
<g id="node9" class="node">
<title>Node9</title>
<g id="a_node9"><a xlink:title=" ">
<polygon fill="white" stroke="#bfbfbf" points="327,-56.5 327,-75.5 386,-75.5 386,-56.5 327,-56.5"/>
<text text-anchor="middle" x="356.5" y="-63.5" font-family="Helvetica,sans-Serif" font-size="10.00">stdexcept</text>
</a>
</g>
</g>
<!-- Node8&#45;&gt;Node9 -->
<g id="edge9" class="edge">
<title>Node8&#45;&gt;Node9</title>
<path fill="none" stroke="midnightblue" d="M356.5,-112.08C356.5,-105.01 356.5,-94.86 356.5,-85.99"/>
<polygon fill="midnightblue" stroke="midnightblue" points="360,-85.75 356.5,-75.75 353,-85.75 360,-85.75"/>
</g>
</g>
</svg>
