<?xml version="1.0" encoding="UTF-8" standalone="no"?>
<!DOCTYPE svg PUBLIC "-//W3C//DTD SVG 1.1//EN"
 "http://www.w3.org/Graphics/SVG/1.1/DTD/svg11.dtd">
<!-- Generated by graphviz version 2.43.0 (0)
 -->
<!-- Title: /home/sia/work/ADCP/Noise&#45;Estimation/code/imate/imate/_cuda_utilities/cuda_interface.h Pages: 1 -->
<svg width="238pt" height="173pt"
 viewBox="0.00 0.00 237.50 173.00" xmlns="http://www.w3.org/2000/svg" xmlns:xlink="http://www.w3.org/1999/xlink">
<g id="graph0" class="graph" transform="scale(1 1) rotate(0) translate(4 169)">
<title>/home/sia/work/ADCP/Noise&#45;Estimation/code/imate/imate/_cuda_utilities/cuda_interface.h</title>
<polygon fill="white" stroke="transparent" points="-4,4 -4,-169 233.5,-169 233.5,4 -4,4"/>
<!-- Node1 -->
<g id="node1" class="node">
<title>Node1</title>
<g id="a_node1"><a xlink:title=" ">
<polygon fill="#bfbfbf" stroke="black" points="44.5,-112.5 44.5,-164.5 180.5,-164.5 180.5,-112.5 44.5,-112.5"/>
<text text-anchor="start" x="52.5" y="-152.5" font-family="Helvetica,sans-Serif" font-size="10.00">/home/sia/work/ADCP</text>
<text text-anchor="start" x="52.5" y="-141.5" font-family="Helvetica,sans-Serif" font-size="10.00">/Noise&#45;Estimation/code</text>
<text text-anchor="start" x="52.5" y="-130.5" font-family="Helvetica,sans-Serif" font-size="10.00">/imate/imate/_cuda_utilities</text>
<text text-anchor="middle" x="112.5" y="-119.5" font-family="Helvetica,sans-Serif" font-size="10.00">/cuda_interface.h</text>
</a>
</g>
</g>
<!-- Node2 -->
<g id="node2" class="node">
<title>Node2</title>
<g id="a_node2"><a xlink:title=" ">
<polygon fill="white" stroke="#bfbfbf" points="0,-56.5 0,-75.5 101,-75.5 101,-56.5 0,-56.5"/>
<text text-anchor="middle" x="50.5" y="-63.5" font-family="Helvetica,sans-Serif" font-size="10.00">cuda_runtime_api.h</text>
</a>
</g>
</g>
<!-- Node1&#45;&gt;Node2 -->
<g id="edge1" class="edge">
<title>Node1&#45;&gt;Node2</title>
<path fill="none" stroke="midnightblue" d="M90.47,-112.45C81.92,-102.73 72.38,-91.88 64.76,-83.22"/>
<polygon fill="midnightblue" stroke="midnightblue" points="67.38,-80.89 58.15,-75.7 62.12,-85.52 67.38,-80.89"/>
</g>
<!-- Node3 -->
<g id="node3" class="node">
<title>Node3</title>
<g id="a_node3"><a xlink:href="types_8h.html" target="_top" xlink:title=" ">
<polygon fill="white" stroke="black" points="119.5,-56.5 119.5,-75.5 229.5,-75.5 229.5,-56.5 119.5,-56.5"/>
<text text-anchor="middle" x="174.5" y="-63.5" font-family="Helvetica,sans-Serif" font-size="10.00">../_definitions/types.h</text>
</a>
</g>
</g>
<!-- Node1&#45;&gt;Node3 -->
<g id="edge2" class="edge">
<title>Node1&#45;&gt;Node3</title>
<path fill="none" stroke="midnightblue" d="M134.53,-112.45C143.08,-102.73 152.62,-91.88 160.24,-83.22"/>
<polygon fill="midnightblue" stroke="midnightblue" points="162.88,-85.52 166.85,-75.7 157.62,-80.89 162.88,-85.52"/>
</g>
<!-- Node4 -->
<g id="node4" class="node">
<title>Node4</title>
<g id="a_node4"><a xlink:href="definitions_8h.html" target="_top" xlink:title=" ">
<polygon fill="white" stroke="black" points="137,-0.5 137,-19.5 212,-19.5 212,-0.5 137,-0.5"/>
<text text-anchor="middle" x="174.5" y="-7.5" font-family="Helvetica,sans-Serif" font-size="10.00">./definitions.h</text>
</a>
</g>
</g>
<!-- Node3&#45;&gt;Node4 -->
<g id="edge3" class="edge">
<title>Node3&#45;&gt;Node4</title>
<path fill="none" stroke="midnightblue" d="M174.5,-56.08C174.5,-49.01 174.5,-38.86 174.5,-29.99"/>
<polygon fill="midnightblue" stroke="midnightblue" points="178,-29.75 174.5,-19.75 171,-29.75 178,-29.75"/>
</g>
</g>
</svg>
