<?xml version="1.0" encoding="UTF-8" standalone="no"?>
<!DOCTYPE svg PUBLIC "-//W3C//DTD SVG 1.1//EN"
 "http://www.w3.org/Graphics/SVG/1.1/DTD/svg11.dtd">
<!-- Generated by graphviz version 2.43.0 (0)
 -->
<!-- Title: /home/sia/work/ADCP/Noise&#45;Estimation/code/imate/imate/_cuda_dynamic_loading/cusparse_symbols.cpp Pages: 1 -->
<svg width="430pt" height="229pt"
 viewBox="0.00 0.00 429.50 229.00" xmlns="http://www.w3.org/2000/svg" xmlns:xlink="http://www.w3.org/1999/xlink">
<g id="graph0" class="graph" transform="scale(1 1) rotate(0) translate(4 225)">
<title>/home/sia/work/ADCP/Noise&#45;Estimation/code/imate/imate/_cuda_dynamic_loading/cusparse_symbols.cpp</title>
<polygon fill="white" stroke="transparent" points="-4,4 -4,-225 425.5,-225 425.5,4 -4,4"/>
<!-- Node1 -->
<g id="node1" class="node">
<title>Node1</title>
<g id="a_node1"><a xlink:title=" ">
<polygon fill="#bfbfbf" stroke="black" points="160.5,-168.5 160.5,-220.5 316.5,-220.5 316.5,-168.5 160.5,-168.5"/>
<text text-anchor="start" x="168.5" y="-208.5" font-family="Helvetica,sans-Serif" font-size="10.00">/home/sia/work/ADCP</text>
<text text-anchor="start" x="168.5" y="-197.5" font-family="Helvetica,sans-Serif" font-size="10.00">/Noise&#45;Estimation/code</text>
<text text-anchor="start" x="168.5" y="-186.5" font-family="Helvetica,sans-Serif" font-size="10.00">/imate/imate/_cuda_dynamic</text>
<text text-anchor="middle" x="238.5" y="-175.5" font-family="Helvetica,sans-Serif" font-size="10.00">_loading/cusparse_symbols.cpp</text>
</a>
</g>
</g>
<!-- Node2 -->
<g id="node2" class="node">
<title>Node2</title>
<g id="a_node2"><a xlink:href="cusparse__symbols_8h.html" target="_top" xlink:title=" ">
<polygon fill="white" stroke="black" points="46,-112.5 46,-131.5 159,-131.5 159,-112.5 46,-112.5"/>
<text text-anchor="middle" x="102.5" y="-119.5" font-family="Helvetica,sans-Serif" font-size="10.00">./cusparse_symbols.h</text>
</a>
</g>
</g>
<!-- Node1&#45;&gt;Node2 -->
<g id="edge1" class="edge">
<title>Node1&#45;&gt;Node2</title>
<path fill="none" stroke="midnightblue" d="M190.17,-168.45C169.17,-157.56 145.43,-145.25 127.96,-136.2"/>
<polygon fill="midnightblue" stroke="midnightblue" points="129.44,-133.02 118.95,-131.53 126.22,-139.24 129.44,-133.02"/>
</g>
<!-- Node5 -->
<g id="node5" class="node">
<title>Node5</title>
<g id="a_node5"><a xlink:title=" ">
<polygon fill="white" stroke="#bfbfbf" points="116,-0.5 116,-19.5 181,-19.5 181,-0.5 116,-0.5"/>
<text text-anchor="middle" x="148.5" y="-7.5" font-family="Helvetica,sans-Serif" font-size="10.00">cusparse.h</text>
</a>
</g>
</g>
<!-- Node1&#45;&gt;Node5 -->
<g id="edge5" class="edge">
<title>Node1&#45;&gt;Node5</title>
<path fill="none" stroke="midnightblue" d="M225.23,-168.46C219.4,-157.34 212.53,-144.06 206.5,-132 188.27,-95.51 167.84,-52.33 156.76,-28.69"/>
<polygon fill="midnightblue" stroke="midnightblue" points="159.89,-27.13 152.48,-19.56 153.55,-30.1 159.89,-27.13"/>
</g>
<!-- Node6 -->
<g id="node6" class="node">
<title>Node6</title>
<g id="a_node6"><a xlink:title=" ">
<polygon fill="white" stroke="#bfbfbf" points="216,-112.5 216,-131.5 261,-131.5 261,-112.5 216,-112.5"/>
<text text-anchor="middle" x="238.5" y="-119.5" font-family="Helvetica,sans-Serif" font-size="10.00">cstdlib</text>
</a>
</g>
</g>
<!-- Node1&#45;&gt;Node6 -->
<g id="edge6" class="edge">
<title>Node1&#45;&gt;Node6</title>
<path fill="none" stroke="midnightblue" d="M238.5,-168.45C238.5,-159.73 238.5,-150.1 238.5,-141.96"/>
<polygon fill="midnightblue" stroke="midnightblue" points="242,-141.7 238.5,-131.7 235,-141.7 242,-141.7"/>
</g>
<!-- Node7 -->
<g id="node7" class="node">
<title>Node7</title>
<g id="a_node7"><a xlink:title=" ">
<polygon fill="white" stroke="#bfbfbf" points="266.5,-56.5 266.5,-75.5 318.5,-75.5 318.5,-56.5 266.5,-56.5"/>
<text text-anchor="middle" x="292.5" y="-63.5" font-family="Helvetica,sans-Serif" font-size="10.00">sstream</text>
</a>
</g>
</g>
<!-- Node1&#45;&gt;Node7 -->
<g id="edge7" class="edge">
<title>Node1&#45;&gt;Node7</title>
<path fill="none" stroke="midnightblue" d="M252.05,-168.41C257.77,-157.39 264.29,-144.21 269.5,-132 276.11,-116.52 282.4,-98.43 286.72,-85.27"/>
<polygon fill="midnightblue" stroke="midnightblue" points="290.12,-86.14 289.86,-75.55 283.46,-83.99 290.12,-86.14"/>
</g>
<!-- Node8 -->
<g id="node8" class="node">
<title>Node8</title>
<g id="a_node8"><a xlink:href="dynamic__loading_8h.html" target="_top" xlink:title=" ">
<polygon fill="white" stroke="black" points="317.5,-112.5 317.5,-131.5 421.5,-131.5 421.5,-112.5 317.5,-112.5"/>
<text text-anchor="middle" x="369.5" y="-119.5" font-family="Helvetica,sans-Serif" font-size="10.00">./dynamic_loading.h</text>
</a>
</g>
</g>
<!-- Node1&#45;&gt;Node8 -->
<g id="edge8" class="edge">
<title>Node1&#45;&gt;Node8</title>
<path fill="none" stroke="midnightblue" d="M285.05,-168.45C305.1,-157.66 327.73,-145.48 344.51,-136.45"/>
<polygon fill="midnightblue" stroke="midnightblue" points="346.51,-139.35 353.66,-131.53 343.19,-133.18 346.51,-139.35"/>
</g>
<!-- Node3 -->
<g id="node3" class="node">
<title>Node3</title>
<g id="a_node3"><a xlink:title=" ">
<polygon fill="white" stroke="#bfbfbf" points="0,-56.5 0,-75.5 41,-75.5 41,-56.5 0,-56.5"/>
<text text-anchor="middle" x="20.5" y="-63.5" font-family="Helvetica,sans-Serif" font-size="10.00">string</text>
</a>
</g>
</g>
<!-- Node2&#45;&gt;Node3 -->
<g id="edge2" class="edge">
<title>Node2&#45;&gt;Node3</title>
<path fill="none" stroke="midnightblue" d="M89.33,-112.32C76.65,-103.98 57.27,-91.21 42.29,-81.35"/>
<polygon fill="midnightblue" stroke="midnightblue" points="43.92,-78.23 33.64,-75.65 40.07,-84.08 43.92,-78.23"/>
</g>
<!-- Node4 -->
<g id="node4" class="node">
<title>Node4</title>
<g id="a_node4"><a xlink:href="cusparse__types_8h.html" target="_top" xlink:title=" ">
<polygon fill="white" stroke="black" points="59.5,-56.5 59.5,-75.5 159.5,-75.5 159.5,-56.5 59.5,-56.5"/>
<text text-anchor="middle" x="109.5" y="-63.5" font-family="Helvetica,sans-Serif" font-size="10.00">./cusparse_types.h</text>
</a>
</g>
</g>
<!-- Node2&#45;&gt;Node4 -->
<g id="edge3" class="edge">
<title>Node2&#45;&gt;Node4</title>
<path fill="none" stroke="midnightblue" d="M103.66,-112.08C104.58,-104.93 105.92,-94.64 107.08,-85.69"/>
<polygon fill="midnightblue" stroke="midnightblue" points="110.55,-86.12 108.37,-75.75 103.61,-85.22 110.55,-86.12"/>
</g>
<!-- Node4&#45;&gt;Node5 -->
<g id="edge4" class="edge">
<title>Node4&#45;&gt;Node5</title>
<path fill="none" stroke="midnightblue" d="M115.94,-56.08C121.45,-48.46 129.53,-37.26 136.26,-27.94"/>
<polygon fill="midnightblue" stroke="midnightblue" points="139.16,-29.91 142.18,-19.75 133.49,-25.81 139.16,-29.91"/>
</g>
<!-- Node8&#45;&gt;Node7 -->
<g id="edge10" class="edge">
<title>Node8&#45;&gt;Node7</title>
<path fill="none" stroke="midnightblue" d="M357.13,-112.32C345.34,-104.06 327.37,-91.45 313.36,-81.63"/>
<polygon fill="midnightblue" stroke="midnightblue" points="315.04,-78.53 304.84,-75.65 311.02,-84.26 315.04,-78.53"/>
</g>
<!-- Node9 -->
<g id="node9" class="node">
<title>Node9</title>
<g id="a_node9"><a xlink:title=" ">
<polygon fill="white" stroke="#bfbfbf" points="340,-56.5 340,-75.5 399,-75.5 399,-56.5 340,-56.5"/>
<text text-anchor="middle" x="369.5" y="-63.5" font-family="Helvetica,sans-Serif" font-size="10.00">stdexcept</text>
</a>
</g>
</g>
<!-- Node8&#45;&gt;Node9 -->
<g id="edge9" class="edge">
<title>Node8&#45;&gt;Node9</title>
<path fill="none" stroke="midnightblue" d="M369.5,-112.08C369.5,-105.01 369.5,-94.86 369.5,-85.99"/>
<polygon fill="midnightblue" stroke="midnightblue" points="373,-85.75 369.5,-75.75 366,-85.75 373,-85.75"/>
</g>
</g>
</svg>
