<?xml version="1.0" encoding="UTF-8" standalone="no"?>
<!DOCTYPE svg PUBLIC "-//W3C//DTD SVG 1.1//EN"
 "http://www.w3.org/Graphics/SVG/1.1/DTD/svg11.dtd">
<!-- Generated by graphviz version 2.43.0 (0)
 -->
<!-- Title: /home/sia/work/ADCP/Noise&#45;Estimation/code/imate/imate/_c_linear_operator Pages: 1 -->
<svg width="152pt" height="239pt"
 viewBox="0.00 0.00 152.00 239.00" xmlns="http://www.w3.org/2000/svg" xmlns:xlink="http://www.w3.org/1999/xlink">
<g id="graph0" class="graph" transform="scale(1 1) rotate(0) translate(4 235)">
<title>/home/sia/work/ADCP/Noise&#45;Estimation/code/imate/imate/_c_linear_operator</title>
<polygon fill="white" stroke="transparent" points="-4,4 -4,-235 148,-235 148,4 -4,4"/>
<g id="clust1" class="cluster">
<title>clusterdir_7cbdf7f1e0681c65fd455a0f383ae44b</title>
<g id="a_clust1"><a xlink:href="dir_7cbdf7f1e0681c65fd455a0f383ae44b.html" target="_top" xlink:title="imate">
<polygon fill="#ddddee" stroke="black" points="8,-8 8,-223 136,-223 136,-8 8,-8"/>
<text text-anchor="middle" x="72" y="-211" font-family="Helvetica,sans-Serif" font-size="10.00">imate</text>
</a>
</g>
</g>
<!-- dir_2ff42a6f7227c02b81ec09c474d04963 -->
<g id="node1" class="node">
<title>dir_2ff42a6f7227c02b81ec09c474d04963</title>
<g id="a_node1"><a xlink:href="dir_2ff42a6f7227c02b81ec09c474d04963.html" target="_top" xlink:title="_definitions">
<polygon fill="none" stroke="black" points="98,-52 32,-52 32,-16 98,-16 98,-52"/>
<text text-anchor="middle" x="65" y="-31.5" font-family="Helvetica,sans-Serif" font-size="10.00">_definitions</text>
</a>
</g>
</g>
<!-- dir_fbd53f1886fd051e381aeabaf0a35943 -->
<g id="node2" class="node">
<title>dir_fbd53f1886fd051e381aeabaf0a35943</title>
<g id="a_node2"><a xlink:href="dir_fbd53f1886fd051e381aeabaf0a35943.html" target="_top" xlink:title="_c_basic_algebra">
<polygon fill="none" stroke="black" points="128,-124 36,-124 36,-88 128,-88 128,-124"/>
<text text-anchor="middle" x="82" y="-103.5" font-family="Helvetica,sans-Serif" font-size="10.00">_c_basic_algebra</text>
</a>
</g>
</g>
<!-- dir_fbd53f1886fd051e381aeabaf0a35943&#45;&gt;dir_2ff42a6f7227c02b81ec09c474d04963 -->
<g id="edge1" class="edge">
<title>dir_fbd53f1886fd051e381aeabaf0a35943&#45;&gt;dir_2ff42a6f7227c02b81ec09c474d04963</title>
<path fill="none" stroke="black" d="M77.8,-87.7C75.9,-79.9 73.62,-70.51 71.52,-61.83"/>
<polygon fill="black" stroke="black" points="74.92,-61 69.15,-52.1 68.11,-62.65 74.92,-61"/>
<g id="a_edge1&#45;headlabel"><a xlink:href="dir_000001_000009.html" target="_top" xlink:title="5">
<text text-anchor="middle" x="78.52" y="-61.32" font-family="Helvetica,sans-Serif" font-size="10.00">5</text>
</a>
</g>
</g>
<!-- dir_efb4b864fb6767b525480da2336c3c23 -->
<g id="node3" class="node">
<title>dir_efb4b864fb6767b525480da2336c3c23</title>
<g id="a_node3"><a xlink:href="dir_efb4b864fb6767b525480da2336c3c23.html" target="_top" xlink:title="_c_linear_operator">
<polygon fill="#eeeeff" stroke="black" points="120,-196 24,-196 24,-160 120,-160 120,-196"/>
<text text-anchor="middle" x="72" y="-175.5" font-family="Helvetica,sans-Serif" font-size="10.00">_c_linear_operator</text>
</a>
</g>
</g>
<!-- dir_efb4b864fb6767b525480da2336c3c23&#45;&gt;dir_2ff42a6f7227c02b81ec09c474d04963 -->
<g id="edge2" class="edge">
<title>dir_efb4b864fb6767b525480da2336c3c23&#45;&gt;dir_2ff42a6f7227c02b81ec09c474d04963</title>
<path fill="none" stroke="black" d="M51.62,-159.53C42.19,-150.09 31.99,-137.6 27,-124 21.48,-108.98 22.1,-103.23 27,-88 30.19,-78.08 36,-68.44 42.13,-60.17"/>
<polygon fill="black" stroke="black" points="45.07,-62.09 48.54,-52.08 39.58,-57.74 45.07,-62.09"/>
<g id="a_edge2&#45;headlabel"><a xlink:href="dir_000002_000009.html" target="_top" xlink:title="9">
<text text-anchor="middle" x="45.06" y="-64.17" font-family="Helvetica,sans-Serif" font-size="10.00">9</text>
</a>
</g>
</g>
<!-- dir_efb4b864fb6767b525480da2336c3c23&#45;&gt;dir_fbd53f1886fd051e381aeabaf0a35943 -->
<g id="edge3" class="edge">
<title>dir_efb4b864fb6767b525480da2336c3c23&#45;&gt;dir_fbd53f1886fd051e381aeabaf0a35943</title>
<path fill="none" stroke="black" d="M74.47,-159.7C75.57,-151.98 76.9,-142.71 78.13,-134.11"/>
<polygon fill="black" stroke="black" points="81.61,-134.5 79.56,-124.1 74.68,-133.51 81.61,-134.5"/>
<g id="a_edge3&#45;headlabel"><a xlink:href="dir_000002_000001.html" target="_top" xlink:title="4">
<text text-anchor="middle" x="83.91" y="-135.96" font-family="Helvetica,sans-Serif" font-size="10.00">4</text>
</a>
</g>
</g>
</g>
</svg>
