<?xml version="1.0" encoding="UTF-8" standalone="no"?>
<!DOCTYPE svg PUBLIC "-//W3C//DTD SVG 1.1//EN"
 "http://www.w3.org/Graphics/SVG/1.1/DTD/svg11.dtd">
<!-- Generated by graphviz version 2.43.0 (0)
 -->
<!-- Title: /home/sia/work/ADCP/Noise&#45;Estimation/code/imate/imate Pages: 1 -->
<svg width="480pt" height="364pt"
 viewBox="0.00 0.00 480.00 364.00" xmlns="http://www.w3.org/2000/svg" xmlns:xlink="http://www.w3.org/1999/xlink">
<g id="graph0" class="graph" transform="scale(1 1) rotate(0) translate(4 360)">
<title>/home/sia/work/ADCP/Noise&#45;Estimation/code/imate/imate</title>
<polygon fill="white" stroke="transparent" points="-4,4 -4,-360 476,-360 476,4 -4,4"/>
<g id="clust1" class="cluster">
<title>clusterdir_7cbdf7f1e0681c65fd455a0f383ae44b</title>
<g id="a_clust1"><a xlink:href="dir_7cbdf7f1e0681c65fd455a0f383ae44b.html" target="_top">
<polygon fill="#eeeeff" stroke="black" points="8,-8 8,-348 464,-348 464,-8 8,-8"/>
</a>
</g>
</g>
<!-- dir_7cbdf7f1e0681c65fd455a0f383ae44b -->
<g id="node1" class="node">
<title>dir_7cbdf7f1e0681c65fd455a0f383ae44b</title>
<text text-anchor="middle" x="367" y="-319.5" font-family="Helvetica,sans-Serif" font-size="10.00">imate</text>
</g>
<!-- dir_fbd53f1886fd051e381aeabaf0a35943 -->
<g id="node2" class="node">
<title>dir_fbd53f1886fd051e381aeabaf0a35943</title>
<g id="a_node2"><a xlink:href="dir_fbd53f1886fd051e381aeabaf0a35943.html" target="_top" xlink:title="_c_basic_algebra">
<polygon fill="white" stroke="black" points="300,-124 208,-124 208,-88 300,-88 300,-124"/>
<text text-anchor="middle" x="254" y="-103.5" font-family="Helvetica,sans-Serif" font-size="10.00">_c_basic_algebra</text>
</a>
</g>
</g>
<!-- dir_2ff42a6f7227c02b81ec09c474d04963 -->
<g id="node10" class="node">
<title>dir_2ff42a6f7227c02b81ec09c474d04963</title>
<g id="a_node10"><a xlink:href="dir_2ff42a6f7227c02b81ec09c474d04963.html" target="_top" xlink:title="_definitions">
<polygon fill="white" stroke="black" points="254,-52 188,-52 188,-16 254,-16 254,-52"/>
<text text-anchor="middle" x="221" y="-31.5" font-family="Helvetica,sans-Serif" font-size="10.00">_definitions</text>
</a>
</g>
</g>
<!-- dir_fbd53f1886fd051e381aeabaf0a35943&#45;&gt;dir_2ff42a6f7227c02b81ec09c474d04963 -->
<g id="edge9" class="edge">
<title>dir_fbd53f1886fd051e381aeabaf0a35943&#45;&gt;dir_2ff42a6f7227c02b81ec09c474d04963</title>
<path fill="none" stroke="black" d="M245.84,-87.7C242.09,-79.73 237.55,-70.1 233.38,-61.26"/>
<polygon fill="black" stroke="black" points="236.49,-59.66 229.06,-52.1 230.16,-62.64 236.49,-59.66"/>
<g id="a_edge9&#45;headlabel"><a xlink:href="dir_000001_000009.html" target="_top" xlink:title="5">
<text text-anchor="middle" x="240.59" y="-59.2" font-family="Helvetica,sans-Serif" font-size="10.00">5</text>
</a>
</g>
</g>
<!-- dir_efb4b864fb6767b525480da2336c3c23 -->
<g id="node3" class="node">
<title>dir_efb4b864fb6767b525480da2336c3c23</title>
<g id="a_node3"><a xlink:href="dir_efb4b864fb6767b525480da2336c3c23.html" target="_top" xlink:title="_c_linear_operator">
<polygon fill="white" stroke="black" points="436,-196 340,-196 340,-160 436,-160 436,-196"/>
<text text-anchor="middle" x="388" y="-175.5" font-family="Helvetica,sans-Serif" font-size="10.00">_c_linear_operator</text>
</a>
</g>
</g>
<!-- dir_efb4b864fb6767b525480da2336c3c23&#45;&gt;dir_fbd53f1886fd051e381aeabaf0a35943 -->
<g id="edge20" class="edge">
<title>dir_efb4b864fb6767b525480da2336c3c23&#45;&gt;dir_fbd53f1886fd051e381aeabaf0a35943</title>
<path fill="none" stroke="black" d="M355.22,-159.88C337.37,-150.55 315.1,-138.92 296,-128.94"/>
<polygon fill="black" stroke="black" points="297.39,-125.72 286.91,-124.19 294.15,-131.92 297.39,-125.72"/>
<g id="a_edge20&#45;headlabel"><a xlink:href="dir_000002_000001.html" target="_top" xlink:title="4">
<text text-anchor="middle" x="301.89" y="-122.37" font-family="Helvetica,sans-Serif" font-size="10.00">4</text>
</a>
</g>
</g>
<!-- dir_efb4b864fb6767b525480da2336c3c23&#45;&gt;dir_2ff42a6f7227c02b81ec09c474d04963 -->
<g id="edge19" class="edge">
<title>dir_efb4b864fb6767b525480da2336c3c23&#45;&gt;dir_2ff42a6f7227c02b81ec09c474d04963</title>
<path fill="none" stroke="black" d="M365.61,-159.91C353.82,-150.2 339.64,-137.35 329,-124 317.59,-109.69 321.71,-101.17 309,-88 296.06,-74.59 279.02,-63.3 263.38,-54.63"/>
<polygon fill="black" stroke="black" points="264.85,-51.45 254.38,-49.83 261.56,-57.63 264.85,-51.45"/>
<g id="a_edge19&#45;headlabel"><a xlink:href="dir_000002_000009.html" target="_top" xlink:title="9">
<text text-anchor="middle" x="269.36" y="-48.13" font-family="Helvetica,sans-Serif" font-size="10.00">9</text>
</a>
</g>
</g>
<!-- dir_5951bf1a1af500d6bf056d938250a591 -->
<g id="node4" class="node">
<title>dir_5951bf1a1af500d6bf056d938250a591</title>
<g id="a_node4"><a xlink:href="dir_5951bf1a1af500d6bf056d938250a591.html" target="_top" xlink:title="_c_trace_estimator">
<polygon fill="white" stroke="black" points="305,-268 205,-268 205,-232 305,-232 305,-268"/>
<text text-anchor="middle" x="255" y="-247.5" font-family="Helvetica,sans-Serif" font-size="10.00">_c_trace_estimator</text>
</a>
</g>
</g>
<!-- dir_5951bf1a1af500d6bf056d938250a591&#45;&gt;dir_fbd53f1886fd051e381aeabaf0a35943 -->
<g id="edge15" class="edge">
<title>dir_5951bf1a1af500d6bf056d938250a591&#45;&gt;dir_fbd53f1886fd051e381aeabaf0a35943</title>
<path fill="none" stroke="black" d="M278.3,-231.82C288.9,-222.54 300.32,-210.09 306,-196 311.98,-181.16 312.05,-174.81 306,-160 301.51,-149.02 293.53,-139.08 285.15,-130.86"/>
<polygon fill="black" stroke="black" points="287.49,-128.26 277.75,-124.09 282.76,-133.42 287.49,-128.26"/>
<g id="a_edge15&#45;headlabel"><a xlink:href="dir_000003_000001.html" target="_top" xlink:title="3">
<text text-anchor="middle" x="292.06" y="-126.09" font-family="Helvetica,sans-Serif" font-size="10.00">3</text>
</a>
</g>
</g>
<!-- dir_5951bf1a1af500d6bf056d938250a591&#45;&gt;dir_efb4b864fb6767b525480da2336c3c23 -->
<g id="edge14" class="edge">
<title>dir_5951bf1a1af500d6bf056d938250a591&#45;&gt;dir_efb4b864fb6767b525480da2336c3c23</title>
<path fill="none" stroke="black" d="M287.54,-231.88C305.25,-222.55 327.35,-210.92 346.32,-200.94"/>
<polygon fill="black" stroke="black" points="348.12,-203.94 355.34,-196.19 344.86,-197.75 348.12,-203.94"/>
<g id="a_edge14&#45;headlabel"><a xlink:href="dir_000003_000002.html" target="_top" xlink:title="3">
<text text-anchor="middle" x="346.26" y="-205.63" font-family="Helvetica,sans-Serif" font-size="10.00">3</text>
</a>
</g>
</g>
<!-- dir_5951bf1a1af500d6bf056d938250a591&#45;&gt;dir_2ff42a6f7227c02b81ec09c474d04963 -->
<g id="edge10" class="edge">
<title>dir_5951bf1a1af500d6bf056d938250a591&#45;&gt;dir_2ff42a6f7227c02b81ec09c474d04963</title>
<path fill="none" stroke="black" d="M271.29,-231.87C287.07,-213.12 306.5,-182.71 291,-160 266.25,-123.73 223.75,-160.27 199,-124 186.26,-105.33 194.42,-79.99 204.22,-61.12"/>
<polygon fill="black" stroke="black" points="207.4,-62.61 209.23,-52.17 201.29,-59.19 207.4,-62.61"/>
<g id="a_edge10&#45;headlabel"><a xlink:href="dir_000003_000009.html" target="_top" xlink:title="6">
<text text-anchor="middle" x="208.12" y="-64.63" font-family="Helvetica,sans-Serif" font-size="10.00">6</text>
</a>
</g>
</g>
<!-- dir_77b32d754a5600b39cb38f56cd86ee8c -->
<g id="node11" class="node">
<title>dir_77b32d754a5600b39cb38f56cd86ee8c</title>
<g id="a_node11"><a xlink:href="dir_77b32d754a5600b39cb38f56cd86ee8c.html" target="_top" xlink:title="_random_generator">
<polygon fill="white" stroke="black" points="210,-196 110,-196 110,-160 210,-160 210,-196"/>
<text text-anchor="middle" x="160" y="-175.5" font-family="Helvetica,sans-Serif" font-size="10.00">_random_generator</text>
</a>
</g>
</g>
<!-- dir_5951bf1a1af500d6bf056d938250a591&#45;&gt;dir_77b32d754a5600b39cb38f56cd86ee8c -->
<g id="edge11" class="edge">
<title>dir_5951bf1a1af500d6bf056d938250a591&#45;&gt;dir_77b32d754a5600b39cb38f56cd86ee8c</title>
<path fill="none" stroke="black" d="M225.86,-231.88C212.98,-223.06 198.04,-212.18 185.59,-202.59"/>
<polygon fill="black" stroke="black" points="187.46,-199.6 177.42,-196.19 183.14,-205.11 187.46,-199.6"/>
<g id="a_edge11&#45;headlabel"><a xlink:href="dir_000003_000010.html" target="_top" xlink:title="4">
<text text-anchor="middle" x="192.04" y="-197.08" font-family="Helvetica,sans-Serif" font-size="10.00">4</text>
</a>
</g>
</g>
<!-- dir_ec4e484f3d193ae05ef37ec16f521131 -->
<g id="node12" class="node">
<title>dir_ec4e484f3d193ae05ef37ec16f521131</title>
<g id="a_node12"><a xlink:href="dir_ec4e484f3d193ae05ef37ec16f521131.html" target="_top" xlink:title="_utilities">
<polygon fill="white" stroke="black" points="282,-196 228,-196 228,-160 282,-160 282,-196"/>
<text text-anchor="middle" x="255" y="-175.5" font-family="Helvetica,sans-Serif" font-size="10.00">_utilities</text>
</a>
</g>
</g>
<!-- dir_5951bf1a1af500d6bf056d938250a591&#45;&gt;dir_ec4e484f3d193ae05ef37ec16f521131 -->
<g id="edge13" class="edge">
<title>dir_5951bf1a1af500d6bf056d938250a591&#45;&gt;dir_ec4e484f3d193ae05ef37ec16f521131</title>
<path fill="none" stroke="black" d="M255,-231.7C255,-223.98 255,-214.71 255,-206.11"/>
<polygon fill="black" stroke="black" points="258.5,-206.1 255,-196.1 251.5,-206.1 258.5,-206.1"/>
<g id="a_edge13&#45;headlabel"><a xlink:href="dir_000003_000011.html" target="_top" xlink:title="1">
<text text-anchor="middle" x="261.34" y="-207.2" font-family="Helvetica,sans-Serif" font-size="10.00">1</text>
</a>
</g>
</g>
<!-- dir_b9c2215538fdb66ef13c462a340a5421 -->
<g id="node13" class="node">
<title>dir_b9c2215538fdb66ef13c462a340a5421</title>
<g id="a_node13"><a xlink:href="dir_b9c2215538fdb66ef13c462a340a5421.html" target="_top" xlink:title="functions">
<polygon fill="white" stroke="black" points="92,-196 36,-196 36,-160 92,-160 92,-196"/>
<text text-anchor="middle" x="64" y="-175.5" font-family="Helvetica,sans-Serif" font-size="10.00">functions</text>
</a>
</g>
</g>
<!-- dir_5951bf1a1af500d6bf056d938250a591&#45;&gt;dir_b9c2215538fdb66ef13c462a340a5421 -->
<g id="edge12" class="edge">
<title>dir_5951bf1a1af500d6bf056d938250a591&#45;&gt;dir_b9c2215538fdb66ef13c462a340a5421</title>
<path fill="none" stroke="black" d="M204.95,-233.17C176.85,-223.97 141.04,-211.71 101.69,-196.1"/>
<polygon fill="black" stroke="black" points="102.74,-192.76 92.16,-192.29 100.14,-199.25 102.74,-192.76"/>
<g id="a_edge12&#45;headlabel"><a xlink:href="dir_000003_000012.html" target="_top" xlink:title="1">
<text text-anchor="middle" x="107.13" y="-188.96" font-family="Helvetica,sans-Serif" font-size="10.00">1</text>
</a>
</g>
</g>
<!-- dir_fa510a0d81ceaab53f9515f8b3cbd91b -->
<g id="node5" class="node">
<title>dir_fa510a0d81ceaab53f9515f8b3cbd91b</title>
<g id="a_node5"><a xlink:href="dir_fa510a0d81ceaab53f9515f8b3cbd91b.html" target="_top" xlink:title="_cu_basic_algebra">
<polygon fill="white" stroke="black" points="436,-124 338,-124 338,-88 436,-88 436,-124"/>
<text text-anchor="middle" x="387" y="-103.5" font-family="Helvetica,sans-Serif" font-size="10.00">_cu_basic_algebra</text>
</a>
</g>
</g>
<!-- dir_fa510a0d81ceaab53f9515f8b3cbd91b&#45;&gt;dir_2ff42a6f7227c02b81ec09c474d04963 -->
<g id="edge4" class="edge">
<title>dir_fa510a0d81ceaab53f9515f8b3cbd91b&#45;&gt;dir_2ff42a6f7227c02b81ec09c474d04963</title>
<path fill="none" stroke="black" d="M346.39,-87.88C321.28,-77.29 289.1,-63.72 263.63,-52.98"/>
<polygon fill="black" stroke="black" points="264.8,-49.67 254.22,-49.01 262.08,-56.12 264.8,-49.67"/>
<g id="a_edge4&#45;headlabel"><a xlink:href="dir_000004_000009.html" target="_top" xlink:title="3">
<text text-anchor="middle" x="269.21" y="-45.95" font-family="Helvetica,sans-Serif" font-size="10.00">3</text>
</a>
</g>
</g>
<!-- dir_79acc20440caf1103cd45750e5b7ca22 -->
<g id="node6" class="node">
<title>dir_79acc20440caf1103cd45750e5b7ca22</title>
<g id="a_node6"><a xlink:href="dir_79acc20440caf1103cd45750e5b7ca22.html" target="_top" xlink:title="_cu_linear_operator">
<polygon fill="white" stroke="black" points="438.5,-268 337.5,-268 337.5,-232 438.5,-232 438.5,-268"/>
<text text-anchor="middle" x="388" y="-247.5" font-family="Helvetica,sans-Serif" font-size="10.00">_cu_linear_operator</text>
</a>
</g>
</g>
<!-- dir_79acc20440caf1103cd45750e5b7ca22&#45;&gt;dir_efb4b864fb6767b525480da2336c3c23 -->
<g id="edge18" class="edge">
<title>dir_79acc20440caf1103cd45750e5b7ca22&#45;&gt;dir_efb4b864fb6767b525480da2336c3c23</title>
<path fill="none" stroke="black" d="M388,-231.7C388,-223.98 388,-214.71 388,-206.11"/>
<polygon fill="black" stroke="black" points="391.5,-206.1 388,-196.1 384.5,-206.1 391.5,-206.1"/>
<g id="a_edge18&#45;headlabel"><a xlink:href="dir_000005_000002.html" target="_top" xlink:title="4">
<text text-anchor="middle" x="394.34" y="-207.2" font-family="Helvetica,sans-Serif" font-size="10.00">4</text>
</a>
</g>
</g>
<!-- dir_79acc20440caf1103cd45750e5b7ca22&#45;&gt;dir_2ff42a6f7227c02b81ec09c474d04963 -->
<g id="edge17" class="edge">
<title>dir_79acc20440caf1103cd45750e5b7ca22&#45;&gt;dir_2ff42a6f7227c02b81ec09c474d04963</title>
<path fill="none" stroke="black" d="M414.58,-231.91C426.24,-222.81 438.69,-210.49 445,-196 464.17,-151.99 474.78,-125.65 445,-88 422.9,-60.06 322.93,-45.33 264.28,-38.96"/>
<polygon fill="black" stroke="black" points="264.49,-35.47 254.18,-37.9 263.76,-42.43 264.49,-35.47"/>
<g id="a_edge17&#45;headlabel"><a xlink:href="dir_000005_000009.html" target="_top" xlink:title="9">
<text text-anchor="middle" x="268.37" y="-30.52" font-family="Helvetica,sans-Serif" font-size="10.00">9</text>
</a>
</g>
</g>
<!-- dir_59d5e17feeae2d3397badb0c8eed906c -->
<g id="node7" class="node">
<title>dir_59d5e17feeae2d3397badb0c8eed906c</title>
<g id="a_node7"><a xlink:href="dir_59d5e17feeae2d3397badb0c8eed906c.html" target="_top" xlink:title="_cu_trace_estimator">
<polygon fill="white" stroke="black" points="260.5,-340 155.5,-340 155.5,-304 260.5,-304 260.5,-340"/>
<text text-anchor="middle" x="208" y="-319.5" font-family="Helvetica,sans-Serif" font-size="10.00">_cu_trace_estimator</text>
</a>
</g>
</g>
<!-- dir_59d5e17feeae2d3397badb0c8eed906c&#45;&gt;dir_79acc20440caf1103cd45750e5b7ca22 -->
<g id="edge7" class="edge">
<title>dir_59d5e17feeae2d3397badb0c8eed906c&#45;&gt;dir_79acc20440caf1103cd45750e5b7ca22</title>
<path fill="none" stroke="black" d="M252.03,-303.88C276.97,-294.18 308.34,-281.98 334.66,-271.74"/>
<polygon fill="black" stroke="black" points="336.06,-274.95 344.11,-268.07 333.52,-268.43 336.06,-274.95"/>
<g id="a_edge7&#45;headlabel"><a xlink:href="dir_000006_000005.html" target="_top" xlink:title="3">
<text text-anchor="middle" x="333.74" y="-276.4" font-family="Helvetica,sans-Serif" font-size="10.00">3</text>
</a>
</g>
</g>
<!-- dir_59d5e17feeae2d3397badb0c8eed906c&#45;&gt;dir_2ff42a6f7227c02b81ec09c474d04963 -->
<g id="edge5" class="edge">
<title>dir_59d5e17feeae2d3397badb0c8eed906c&#45;&gt;dir_2ff42a6f7227c02b81ec09c474d04963</title>
<path fill="none" stroke="black" d="M159.42,-303.96C92.94,-277.81 -13.75,-224.04 27,-160 47.28,-128.13 71.67,-143.55 104,-124 136.29,-104.48 170.31,-77.82 193.28,-58.78"/>
<polygon fill="black" stroke="black" points="195.8,-61.24 201.23,-52.14 191.31,-55.87 195.8,-61.24"/>
<g id="a_edge5&#45;headlabel"><a xlink:href="dir_000006_000009.html" target="_top" xlink:title="4">
<text text-anchor="middle" x="194.87" y="-63.22" font-family="Helvetica,sans-Serif" font-size="10.00">4</text>
</a>
</g>
</g>
<!-- dir_59d5e17feeae2d3397badb0c8eed906c&#45;&gt;dir_77b32d754a5600b39cb38f56cd86ee8c -->
<g id="edge6" class="edge">
<title>dir_59d5e17feeae2d3397badb0c8eed906c&#45;&gt;dir_77b32d754a5600b39cb38f56cd86ee8c</title>
<path fill="none" stroke="black" d="M202.21,-303.87C193.99,-279.56 178.87,-234.82 169.13,-206.01"/>
<polygon fill="black" stroke="black" points="172.33,-204.54 165.81,-196.19 165.7,-206.78 172.33,-204.54"/>
<g id="a_edge6&#45;headlabel"><a xlink:href="dir_000006_000010.html" target="_top" xlink:title="1">
<text text-anchor="middle" x="176.17" y="-204.54" font-family="Helvetica,sans-Serif" font-size="10.00">1</text>
</a>
</g>
</g>
<!-- dir_59d5e17feeae2d3397badb0c8eed906c&#45;&gt;dir_b9c2215538fdb66ef13c462a340a5421 -->
<g id="edge8" class="edge">
<title>dir_59d5e17feeae2d3397badb0c8eed906c&#45;&gt;dir_b9c2215538fdb66ef13c462a340a5421</title>
<path fill="none" stroke="black" d="M190.63,-303.87C165.22,-278.82 117.8,-232.05 88.75,-203.41"/>
<polygon fill="black" stroke="black" points="91.01,-200.72 81.43,-196.19 86.09,-205.7 91.01,-200.72"/>
<g id="a_edge8&#45;headlabel"><a xlink:href="dir_000006_000012.html" target="_top" xlink:title="1">
<text text-anchor="middle" x="95.56" y="-198.72" font-family="Helvetica,sans-Serif" font-size="10.00">1</text>
</a>
</g>
</g>
<!-- dir_840a0c0b74a381937dddd569631ad4e4 -->
<g id="node8" class="node">
<title>dir_840a0c0b74a381937dddd569631ad4e4</title>
<g id="a_node8"><a xlink:href="dir_840a0c0b74a381937dddd569631ad4e4.html" target="_top" xlink:title="_cuda_dynamic_loading">
<polygon fill="white" stroke="black" points="137.5,-340 16.5,-340 16.5,-304 137.5,-304 137.5,-340"/>
<text text-anchor="middle" x="77" y="-319.5" font-family="Helvetica,sans-Serif" font-size="10.00">_cuda_dynamic_loading</text>
</a>
</g>
</g>
<!-- dir_63c857fa666e30b2d1e86870013e15a3 -->
<g id="node9" class="node">
<title>dir_63c857fa666e30b2d1e86870013e15a3</title>
<g id="a_node9"><a xlink:href="dir_63c857fa666e30b2d1e86870013e15a3.html" target="_top" xlink:title="_cuda_utilities">
<polygon fill="white" stroke="black" points="94.5,-124 15.5,-124 15.5,-88 94.5,-88 94.5,-124"/>
<text text-anchor="middle" x="55" y="-103.5" font-family="Helvetica,sans-Serif" font-size="10.00">_cuda_utilities</text>
</a>
</g>
</g>
<!-- dir_63c857fa666e30b2d1e86870013e15a3&#45;&gt;dir_2ff42a6f7227c02b81ec09c474d04963 -->
<g id="edge16" class="edge">
<title>dir_63c857fa666e30b2d1e86870013e15a3&#45;&gt;dir_2ff42a6f7227c02b81ec09c474d04963</title>
<path fill="none" stroke="black" d="M94.76,-88.23C120.02,-77.58 152.7,-63.8 178.47,-52.93"/>
<polygon fill="black" stroke="black" points="180.13,-56.03 187.98,-48.92 177.41,-49.58 180.13,-56.03"/>
<g id="a_edge16&#45;headlabel"><a xlink:href="dir_000008_000009.html" target="_top" xlink:title="1">
<text text-anchor="middle" x="177.92" y="-57.55" font-family="Helvetica,sans-Serif" font-size="10.00">1</text>
</a>
</g>
</g>
<!-- dir_77b32d754a5600b39cb38f56cd86ee8c&#45;&gt;dir_fbd53f1886fd051e381aeabaf0a35943 -->
<g id="edge3" class="edge">
<title>dir_77b32d754a5600b39cb38f56cd86ee8c&#45;&gt;dir_fbd53f1886fd051e381aeabaf0a35943</title>
<path fill="none" stroke="black" d="M183.24,-159.7C195.19,-150.8 209.92,-139.82 222.85,-130.2"/>
<polygon fill="black" stroke="black" points="225.1,-132.88 231.03,-124.1 220.92,-127.27 225.1,-132.88"/>
<g id="a_edge3&#45;headlabel"><a xlink:href="dir_000010_000001.html" target="_top" xlink:title="1">
<text text-anchor="middle" x="223.91" y="-134.81" font-family="Helvetica,sans-Serif" font-size="10.00">1</text>
</a>
</g>
</g>
<!-- dir_77b32d754a5600b39cb38f56cd86ee8c&#45;&gt;dir_5951bf1a1af500d6bf056d938250a591 -->
<g id="edge2" class="edge">
<title>dir_77b32d754a5600b39cb38f56cd86ee8c&#45;&gt;dir_5951bf1a1af500d6bf056d938250a591</title>
<path fill="none" stroke="black" d="M189.11,-196.1C201.95,-204.89 216.84,-215.73 229.27,-225.31"/>
<polygon fill="black" stroke="black" points="227.4,-228.29 237.43,-231.7 231.72,-222.78 227.4,-228.29"/>
<g id="a_edge2&#45;headlabel"><a xlink:href="dir_000010_000003.html" target="_top" xlink:title="1">
<text text-anchor="middle" x="222.82" y="-225.81" font-family="Helvetica,sans-Serif" font-size="10.00">1</text>
</a>
</g>
</g>
<!-- dir_77b32d754a5600b39cb38f56cd86ee8c&#45;&gt;dir_2ff42a6f7227c02b81ec09c474d04963 -->
<g id="edge1" class="edge">
<title>dir_77b32d754a5600b39cb38f56cd86ee8c&#45;&gt;dir_2ff42a6f7227c02b81ec09c474d04963</title>
<path fill="none" stroke="black" d="M162.77,-159.99C166.18,-141.62 172.91,-111.79 184,-88 188.44,-78.49 194.57,-68.85 200.57,-60.46"/>
<polygon fill="black" stroke="black" points="203.54,-62.32 206.69,-52.21 197.92,-58.15 203.54,-62.32"/>
<g id="a_edge1&#45;headlabel"><a xlink:href="dir_000010_000009.html" target="_top" xlink:title="1">
<text text-anchor="middle" x="203.68" y="-64.4" font-family="Helvetica,sans-Serif" font-size="10.00">1</text>
</a>
</g>
</g>
</g>
</svg>
