<?xml version="1.0" encoding="UTF-8" standalone="no"?>
<!DOCTYPE svg PUBLIC "-//W3C//DTD SVG 1.1//EN"
 "http://www.w3.org/Graphics/SVG/1.1/DTD/svg11.dtd">
<!-- Generated by graphviz version 2.43.0 (0)
 -->
<!-- Title: /home/sia/work/ADCP/Noise&#45;Estimation/code/imate/imate/_c_basic_algebra Pages: 1 -->
<svg width="132pt" height="167pt"
 viewBox="0.00 0.00 132.00 167.00" xmlns="http://www.w3.org/2000/svg" xmlns:xlink="http://www.w3.org/1999/xlink">
<g id="graph0" class="graph" transform="scale(1 1) rotate(0) translate(4 163)">
<title>/home/sia/work/ADCP/Noise&#45;Estimation/code/imate/imate/_c_basic_algebra</title>
<polygon fill="white" stroke="transparent" points="-4,4 -4,-163 128,-163 128,4 -4,4"/>
<g id="clust1" class="cluster">
<title>clusterdir_7cbdf7f1e0681c65fd455a0f383ae44b</title>
<g id="a_clust1"><a xlink:href="dir_7cbdf7f1e0681c65fd455a0f383ae44b.html" target="_top" xlink:title="imate">
<polygon fill="#ddddee" stroke="black" points="8,-8 8,-151 116,-151 116,-8 8,-8"/>
<text text-anchor="middle" x="62" y="-139" font-family="Helvetica,sans-Serif" font-size="10.00">imate</text>
</a>
</g>
</g>
<!-- dir_2ff42a6f7227c02b81ec09c474d04963 -->
<g id="node1" class="node">
<title>dir_2ff42a6f7227c02b81ec09c474d04963</title>
<g id="a_node1"><a xlink:href="dir_2ff42a6f7227c02b81ec09c474d04963.html" target="_top" xlink:title="_definitions">
<polygon fill="none" stroke="black" points="95,-52 29,-52 29,-16 95,-16 95,-52"/>
<text text-anchor="middle" x="62" y="-31.5" font-family="Helvetica,sans-Serif" font-size="10.00">_definitions</text>
</a>
</g>
</g>
<!-- dir_fbd53f1886fd051e381aeabaf0a35943 -->
<g id="node2" class="node">
<title>dir_fbd53f1886fd051e381aeabaf0a35943</title>
<g id="a_node2"><a xlink:href="dir_fbd53f1886fd051e381aeabaf0a35943.html" target="_top" xlink:title="_c_basic_algebra">
<polygon fill="#eeeeff" stroke="black" points="108,-124 16,-124 16,-88 108,-88 108,-124"/>
<text text-anchor="middle" x="62" y="-103.5" font-family="Helvetica,sans-Serif" font-size="10.00">_c_basic_algebra</text>
</a>
</g>
</g>
<!-- dir_fbd53f1886fd051e381aeabaf0a35943&#45;&gt;dir_2ff42a6f7227c02b81ec09c474d04963 -->
<g id="edge1" class="edge">
<title>dir_fbd53f1886fd051e381aeabaf0a35943&#45;&gt;dir_2ff42a6f7227c02b81ec09c474d04963</title>
<path fill="none" stroke="black" d="M62,-87.7C62,-79.98 62,-70.71 62,-62.11"/>
<polygon fill="black" stroke="black" points="65.5,-62.1 62,-52.1 58.5,-62.1 65.5,-62.1"/>
<g id="a_edge1&#45;headlabel"><a xlink:href="dir_000001_000009.html" target="_top" xlink:title="5">
<text text-anchor="middle" x="68.34" y="-63.2" font-family="Helvetica,sans-Serif" font-size="10.00">5</text>
</a>
</g>
</g>
</g>
</svg>
