<?xml version="1.0" encoding="UTF-8" standalone="no"?>
<!DOCTYPE svg PUBLIC "-//W3C//DTD SVG 1.1//EN"
 "http://www.w3.org/Graphics/SVG/1.1/DTD/svg11.dtd">
<!-- Generated by graphviz version 2.43.0 (0)
 -->
<!-- Title: lapack_dbdsdc Pages: 1 -->
<svg width="254pt" height="78pt"
 viewBox="0.00 0.00 254.00 77.50" xmlns="http://www.w3.org/2000/svg" xmlns:xlink="http://www.w3.org/1999/xlink">
<g id="graph0" class="graph" transform="scale(1 1) rotate(0) translate(4 73.5)">
<title>lapack_dbdsdc</title>
<polygon fill="white" stroke="transparent" points="-4,4 -4,-73.5 250,-73.5 250,4 -4,4"/>
<!-- Node1 -->
<g id="node1" class="node">
<title>Node1</title>
<g id="a_node1"><a xlink:title=" ">
<polygon fill="#bfbfbf" stroke="black" points="164,-28 164,-47 246,-47 246,-28 164,-28"/>
<text text-anchor="middle" x="205" y="-35" font-family="Helvetica,sans-Serif" font-size="10.00">lapack_dbdsdc</text>
</a>
</g>
</g>
<!-- Node2 -->
<g id="node2" class="node">
<title>Node2</title>
<g id="a_node2"><a xlink:href="lapack__api_8cpp.html#a3b18f4180424f79a3e5720c19fa59ca2" target="_top" xlink:title="Overlodng wrapper for both lapack_sbdsdc (a double function) and lapack_dbdsdc (a double function)....">
<polygon fill="white" stroke="black" points="0,-50 0,-69 128,-69 128,-50 0,-50"/>
<text text-anchor="middle" x="64" y="-57" font-family="Helvetica,sans-Serif" font-size="10.00">lapack_xbdsdc&lt; double &gt;</text>
</a>
</g>
</g>
<!-- Node1&#45;&gt;Node2 -->
<g id="edge1" class="edge">
<title>Node1&#45;&gt;Node2</title>
<path fill="none" stroke="midnightblue" d="M153.88,-45.43C144.52,-46.91 134.65,-48.48 125.03,-50"/>
<polygon fill="midnightblue" stroke="midnightblue" points="154.47,-48.88 163.8,-43.86 153.37,-41.97 154.47,-48.88"/>
</g>
<!-- Node3 -->
<g id="node3" class="node">
<title>Node3</title>
<g id="a_node3"><a xlink:href="lapack__api_8cpp.html#a24fe9da580dd800a9e1d427b69bf3f1c" target="_top" xlink:title="Overlodng wrapper for both lapack_sbdsdc (a double function) and lapack_dbdsdc (a double function)....">
<polygon fill="white" stroke="black" points="9.5,-0.5 9.5,-30.5 118.5,-30.5 118.5,-0.5 9.5,-0.5"/>
<text text-anchor="start" x="17.5" y="-18.5" font-family="Helvetica,sans-Serif" font-size="10.00">lapack_xbdsdc&lt; long</text>
<text text-anchor="middle" x="64" y="-7.5" font-family="Helvetica,sans-Serif" font-size="10.00"> double &gt;</text>
</a>
</g>
</g>
<!-- Node1&#45;&gt;Node3 -->
<g id="edge2" class="edge">
<title>Node1&#45;&gt;Node3</title>
<path fill="none" stroke="midnightblue" d="M153.59,-29.52C142.2,-27.72 130.08,-25.8 118.57,-23.98"/>
<polygon fill="midnightblue" stroke="midnightblue" points="153.37,-33.03 163.8,-31.14 154.47,-26.12 153.37,-33.03"/>
</g>
</g>
</svg>
