<?xml version="1.0" encoding="UTF-8" standalone="no"?>
<!DOCTYPE svg PUBLIC "-//W3C//DTD SVG 1.1//EN"
 "http://www.w3.org/Graphics/SVG/1.1/DTD/svg11.dtd">
<!-- Generated by graphviz version 2.43.0 (0)
 -->
<!-- Title: erf_inv Pages: 1 -->
<svg width="364pt" height="88pt"
 viewBox="0.00 0.00 364.00 88.00" xmlns="http://www.w3.org/2000/svg" xmlns:xlink="http://www.w3.org/1999/xlink">
<g id="graph0" class="graph" transform="scale(1 1) rotate(0) translate(4 84)">
<title>erf_inv</title>
<polygon fill="white" stroke="transparent" points="-4,4 -4,-84 360,-84 360,4 -4,4"/>
<!-- Node1 -->
<g id="node1" class="node">
<title>Node1</title>
<g id="a_node1"><a xlink:title=" ">
<polygon fill="#bfbfbf" stroke="black" points="310,-30 310,-49 356,-49 356,-30 310,-30"/>
<text text-anchor="middle" x="333" y="-37" font-family="Helvetica,sans-Serif" font-size="10.00">erf_inv</text>
</a>
</g>
</g>
<!-- Node2 -->
<g id="node2" class="node">
<title>Node2</title>
<g id="a_node2"><a xlink:href="classConvergenceTools.html#a88ae9fc09aa9af950d41cf803934c028" target="_top" xlink:title="Averages the estimates of trace. Removes outliers and reevaluates the error to take into account for ...">
<polygon fill="white" stroke="black" points="136,-49.5 136,-79.5 274,-79.5 274,-49.5 136,-49.5"/>
<text text-anchor="start" x="144" y="-67.5" font-family="Helvetica,sans-Serif" font-size="10.00">ConvergenceTools::average</text>
<text text-anchor="middle" x="205" y="-56.5" font-family="Helvetica,sans-Serif" font-size="10.00">_estimates</text>
</a>
</g>
</g>
<!-- Node1&#45;&gt;Node2 -->
<g id="edge1" class="edge">
<title>Node1&#45;&gt;Node2</title>
<path fill="none" stroke="midnightblue" d="M299.91,-45.87C291.98,-47.44 283.19,-49.18 274.26,-50.96"/>
<polygon fill="midnightblue" stroke="midnightblue" points="300.64,-49.29 309.76,-43.91 299.27,-42.43 300.64,-49.29"/>
</g>
<!-- Node4 -->
<g id="node4" class="node">
<title>Node4</title>
<g id="a_node4"><a xlink:href="classConvergenceTools.html#a5a0602ee4f933a4521ccf9ea137dd191" target="_top" xlink:title="Checks if the standard deviation of the set of the cumulative averages of trace estimators converged ...">
<polygon fill="white" stroke="black" points="140,-0.5 140,-30.5 270,-30.5 270,-0.5 140,-0.5"/>
<text text-anchor="start" x="148" y="-18.5" font-family="Helvetica,sans-Serif" font-size="10.00">ConvergenceTools::check</text>
<text text-anchor="middle" x="205" y="-7.5" font-family="Helvetica,sans-Serif" font-size="10.00">_convergence</text>
</a>
</g>
</g>
<!-- Node1&#45;&gt;Node4 -->
<g id="edge3" class="edge">
<title>Node1&#45;&gt;Node4</title>
<path fill="none" stroke="midnightblue" d="M299.7,-33.35C290.63,-31.62 280.44,-29.68 270.21,-27.73"/>
<polygon fill="midnightblue" stroke="midnightblue" points="299.29,-36.83 309.76,-35.26 300.6,-29.96 299.29,-36.83"/>
</g>
<!-- Node3 -->
<g id="node3" class="node">
<title>Node3</title>
<g id="a_node3"><a xlink:href="classcTraceEstimator.html#a29144b4d62c71f0889002754384f57f4" target="_top" xlink:title="Stochastic Lanczos quadrature method to estimate trace of a function of a linear operator....">
<polygon fill="white" stroke="black" points="0,-24.5 0,-54.5 100,-54.5 100,-24.5 0,-24.5"/>
<text text-anchor="start" x="8" y="-42.5" font-family="Helvetica,sans-Serif" font-size="10.00">cTraceEstimator::c</text>
<text text-anchor="middle" x="50" y="-31.5" font-family="Helvetica,sans-Serif" font-size="10.00">_trace_estimator</text>
</a>
</g>
</g>
<!-- Node2&#45;&gt;Node3 -->
<g id="edge2" class="edge">
<title>Node2&#45;&gt;Node3</title>
<path fill="none" stroke="midnightblue" d="M125.45,-51.66C116.83,-50.26 108.25,-48.85 100.14,-47.53"/>
<polygon fill="midnightblue" stroke="midnightblue" points="125.12,-55.16 135.56,-53.32 126.25,-48.25 125.12,-55.16"/>
</g>
<!-- Node4&#45;&gt;Node3 -->
<g id="edge4" class="edge">
<title>Node4&#45;&gt;Node3</title>
<path fill="none" stroke="midnightblue" d="M129.57,-27.18C119.54,-28.75 109.46,-30.33 100.02,-31.81"/>
<polygon fill="midnightblue" stroke="midnightblue" points="130.22,-30.62 139.56,-25.61 129.14,-23.7 130.22,-30.62"/>
</g>
</g>
</svg>
