<?xml version="1.0" encoding="UTF-8" standalone="no"?>
<!DOCTYPE svg PUBLIC "-//W3C//DTD SVG 1.1//EN"
 "http://www.w3.org/Graphics/SVG/1.1/DTD/svg11.dtd">
<!-- Generated by graphviz version 2.43.0 (0)
 -->
<!-- Title: /home/sia/work/ADCP/Noise&#45;Estimation/code/imate/imate/_random_generator/random_array_generator.cpp Pages: 1 -->
<svg width="494pt" height="240pt"
 viewBox="0.00 0.00 493.53 240.00" xmlns="http://www.w3.org/2000/svg" xmlns:xlink="http://www.w3.org/1999/xlink">
<g id="graph0" class="graph" transform="scale(1 1) rotate(0) translate(4 236)">
<title>/home/sia/work/ADCP/Noise&#45;Estimation/code/imate/imate/_random_generator/random_array_generator.cpp</title>
<polygon fill="white" stroke="transparent" points="-4,4 -4,-236 489.53,-236 489.53,4 -4,4"/>
<!-- Node1 -->
<g id="node1" class="node">
<title>Node1</title>
<g id="a_node1"><a xlink:title=" ">
<polygon fill="#bfbfbf" stroke="black" points="121.03,-179.5 121.03,-231.5 278.03,-231.5 278.03,-179.5 121.03,-179.5"/>
<text text-anchor="start" x="129.03" y="-219.5" font-family="Helvetica,sans-Serif" font-size="10.00">/home/sia/work/ADCP</text>
<text text-anchor="start" x="129.03" y="-208.5" font-family="Helvetica,sans-Serif" font-size="10.00">/Noise&#45;Estimation/code</text>
<text text-anchor="start" x="129.03" y="-197.5" font-family="Helvetica,sans-Serif" font-size="10.00">/imate/imate/_random_generator</text>
<text text-anchor="middle" x="199.53" y="-186.5" font-family="Helvetica,sans-Serif" font-size="10.00">/random_array_generator.cpp</text>
</a>
</g>
</g>
<!-- Node2 -->
<g id="node2" class="node">
<title>Node2</title>
<g id="a_node2"><a xlink:href="random__array__generator_8h.html" target="_top" xlink:title=" ">
<polygon fill="white" stroke="black" points="24.03,-118 24.03,-137 159.03,-137 159.03,-118 24.03,-118"/>
<text text-anchor="middle" x="91.53" y="-125" font-family="Helvetica,sans-Serif" font-size="10.00">./random_array_generator.h</text>
</a>
</g>
</g>
<!-- Node1&#45;&gt;Node2 -->
<g id="edge1" class="edge">
<title>Node1&#45;&gt;Node2</title>
<path fill="none" stroke="midnightblue" d="M163.87,-179.4C146.67,-167.3 126.66,-153.22 112.04,-142.94"/>
<polygon fill="midnightblue" stroke="midnightblue" points="113.91,-139.97 103.72,-137.08 109.88,-145.7 113.91,-139.97"/>
</g>
<!-- Node6 -->
<g id="node6" class="node">
<title>Node6</title>
<g id="a_node6"><a xlink:title=" ">
<polygon fill="white" stroke="#bfbfbf" points="20.03,-0.5 20.03,-19.5 69.03,-19.5 69.03,-0.5 20.03,-0.5"/>
<text text-anchor="middle" x="44.53" y="-7.5" font-family="Helvetica,sans-Serif" font-size="10.00">stdint.h</text>
</a>
</g>
</g>
<!-- Node1&#45;&gt;Node6 -->
<g id="edge7" class="edge">
<title>Node1&#45;&gt;Node6</title>
<path fill="none" stroke="midnightblue" d="M120.8,-198.82C82.36,-191.64 39.18,-176.12 14.53,-143 -8.56,-111.97 0.77,-92.84 12.53,-56 15.87,-45.54 22.63,-35.43 29.08,-27.45"/>
<polygon fill="midnightblue" stroke="midnightblue" points="31.88,-29.56 35.78,-19.71 26.59,-24.98 31.88,-29.56"/>
</g>
<!-- Node7 -->
<g id="node7" class="node">
<title>Node7</title>
<g id="a_node7"><a xlink:title=" ">
<polygon fill="white" stroke="#bfbfbf" points="177.53,-118 177.53,-137 221.53,-137 221.53,-118 177.53,-118"/>
<text text-anchor="middle" x="199.53" y="-125" font-family="Helvetica,sans-Serif" font-size="10.00">omp.h</text>
</a>
</g>
</g>
<!-- Node1&#45;&gt;Node7 -->
<g id="edge6" class="edge">
<title>Node1&#45;&gt;Node7</title>
<path fill="none" stroke="midnightblue" d="M199.53,-179.19C199.53,-168.76 199.53,-156.9 199.53,-147.27"/>
<polygon fill="midnightblue" stroke="midnightblue" points="203.03,-147.21 199.53,-137.21 196.03,-147.21 203.03,-147.21"/>
</g>
<!-- Node8 -->
<g id="node8" class="node">
<title>Node8</title>
<g id="a_node8"><a xlink:href="c__orthogonalization_8h.html" target="_top" xlink:title=" ">
<polygon fill="white" stroke="black" points="373.53,-112.5 373.53,-142.5 485.53,-142.5 485.53,-112.5 373.53,-112.5"/>
<text text-anchor="start" x="381.53" y="-130.5" font-family="Helvetica,sans-Serif" font-size="10.00">../_c_trace_estimator</text>
<text text-anchor="middle" x="429.53" y="-119.5" font-family="Helvetica,sans-Serif" font-size="10.00">/c_orthogonalization.h</text>
</a>
</g>
</g>
<!-- Node1&#45;&gt;Node8 -->
<g id="edge8" class="edge">
<title>Node1&#45;&gt;Node8</title>
<path fill="none" stroke="midnightblue" d="M275.48,-179.4C308.75,-168.41 346.96,-155.78 377.01,-145.85"/>
<polygon fill="midnightblue" stroke="midnightblue" points="378.47,-149.06 386.87,-142.6 376.27,-142.41 378.47,-149.06"/>
</g>
<!-- Node9 -->
<g id="node9" class="node">
<title>Node9</title>
<g id="a_node9"><a xlink:href="c__vector__operations_8h.html" target="_top" xlink:title=" ">
<polygon fill="white" stroke="black" points="239.53,-112.5 239.53,-142.5 355.53,-142.5 355.53,-112.5 239.53,-112.5"/>
<text text-anchor="start" x="247.53" y="-130.5" font-family="Helvetica,sans-Serif" font-size="10.00">../_c_basic_algebra</text>
<text text-anchor="middle" x="297.53" y="-119.5" font-family="Helvetica,sans-Serif" font-size="10.00">/c_vector_operations.h</text>
</a>
</g>
</g>
<!-- Node1&#45;&gt;Node9 -->
<g id="edge10" class="edge">
<title>Node1&#45;&gt;Node9</title>
<path fill="none" stroke="midnightblue" d="M231.89,-179.4C244.66,-169.5 259.15,-158.26 271.26,-148.87"/>
<polygon fill="midnightblue" stroke="midnightblue" points="273.45,-151.6 279.21,-142.71 269.16,-146.07 273.45,-151.6"/>
</g>
<!-- Node3 -->
<g id="node3" class="node">
<title>Node3</title>
<g id="a_node3"><a xlink:href="types_8h.html" target="_top" xlink:title=" ">
<polygon fill="white" stroke="black" points="242.53,-56.5 242.53,-75.5 352.53,-75.5 352.53,-56.5 242.53,-56.5"/>
<text text-anchor="middle" x="297.53" y="-63.5" font-family="Helvetica,sans-Serif" font-size="10.00">../_definitions/types.h</text>
</a>
</g>
</g>
<!-- Node2&#45;&gt;Node3 -->
<g id="edge2" class="edge">
<title>Node2&#45;&gt;Node3</title>
<path fill="none" stroke="midnightblue" d="M121.04,-117.98C157.15,-107.55 218.38,-89.86 258.38,-78.31"/>
<polygon fill="midnightblue" stroke="midnightblue" points="259.43,-81.65 268.07,-75.51 257.49,-74.92 259.43,-81.65"/>
</g>
<!-- Node5 -->
<g id="node5" class="node">
<title>Node5</title>
<g id="a_node5"><a xlink:href="random__number__generator_8h.html" target="_top" xlink:title=" ">
<polygon fill="white" stroke="black" points="21.53,-56.5 21.53,-75.5 167.53,-75.5 167.53,-56.5 21.53,-56.5"/>
<text text-anchor="middle" x="94.53" y="-63.5" font-family="Helvetica,sans-Serif" font-size="10.00">./random_number_generator.h</text>
</a>
</g>
</g>
<!-- Node2&#45;&gt;Node5 -->
<g id="edge4" class="edge">
<title>Node2&#45;&gt;Node5</title>
<path fill="none" stroke="midnightblue" d="M91.96,-117.98C92.38,-109.58 93.04,-96.48 93.59,-85.66"/>
<polygon fill="midnightblue" stroke="midnightblue" points="97.09,-85.67 94.1,-75.51 90.1,-85.32 97.09,-85.67"/>
</g>
<!-- Node4 -->
<g id="node4" class="node">
<title>Node4</title>
<g id="a_node4"><a xlink:href="definitions_8h.html" target="_top" xlink:title=" ">
<polygon fill="white" stroke="black" points="260.03,-0.5 260.03,-19.5 335.03,-19.5 335.03,-0.5 260.03,-0.5"/>
<text text-anchor="middle" x="297.53" y="-7.5" font-family="Helvetica,sans-Serif" font-size="10.00">./definitions.h</text>
</a>
</g>
</g>
<!-- Node3&#45;&gt;Node4 -->
<g id="edge3" class="edge">
<title>Node3&#45;&gt;Node4</title>
<path fill="none" stroke="midnightblue" d="M297.53,-56.08C297.53,-49.01 297.53,-38.86 297.53,-29.99"/>
<polygon fill="midnightblue" stroke="midnightblue" points="301.03,-29.75 297.53,-19.75 294.03,-29.75 301.03,-29.75"/>
</g>
<!-- Node5&#45;&gt;Node6 -->
<g id="edge5" class="edge">
<title>Node5&#45;&gt;Node6</title>
<path fill="none" stroke="midnightblue" d="M86.27,-56.08C79.06,-48.3 68.42,-36.8 59.68,-27.37"/>
<polygon fill="midnightblue" stroke="midnightblue" points="61.99,-24.71 52.63,-19.75 56.86,-29.47 61.99,-24.71"/>
</g>
<!-- Node8&#45;&gt;Node3 -->
<g id="edge9" class="edge">
<title>Node8&#45;&gt;Node3</title>
<path fill="none" stroke="midnightblue" d="M398.25,-112.4C376.3,-102.51 347.19,-89.38 325.91,-79.79"/>
<polygon fill="midnightblue" stroke="midnightblue" points="327.29,-76.58 316.74,-75.66 324.42,-82.96 327.29,-76.58"/>
</g>
<!-- Node9&#45;&gt;Node3 -->
<g id="edge11" class="edge">
<title>Node9&#45;&gt;Node3</title>
<path fill="none" stroke="midnightblue" d="M297.53,-112.4C297.53,-104.47 297.53,-94.46 297.53,-85.86"/>
<polygon fill="midnightblue" stroke="midnightblue" points="301.03,-85.66 297.53,-75.66 294.03,-85.66 301.03,-85.66"/>
</g>
</g>
</svg>
