<?xml version="1.0" encoding="UTF-8" standalone="no"?>
<!DOCTYPE svg PUBLIC "-//W3C//DTD SVG 1.1//EN"
 "http://www.w3.org/Graphics/SVG/1.1/DTD/svg11.dtd">
<!-- Generated by graphviz version 2.43.0 (0)
 -->
<!-- Title: /home/sia/work/ADCP/Noise&#45;Estimation/code/imate/imate/_random_generator/xoshiro_256_star_star.cpp Pages: 1 -->
<svg width="273pt" height="184pt"
 viewBox="0.00 0.00 272.50 184.00" xmlns="http://www.w3.org/2000/svg" xmlns:xlink="http://www.w3.org/1999/xlink">
<g id="graph0" class="graph" transform="scale(1 1) rotate(0) translate(4 180)">
<title>/home/sia/work/ADCP/Noise&#45;Estimation/code/imate/imate/_random_generator/xoshiro_256_star_star.cpp</title>
<polygon fill="white" stroke="transparent" points="-4,4 -4,-180 268.5,-180 268.5,4 -4,4"/>
<!-- Node1 -->
<g id="node1" class="node">
<title>Node1</title>
<g id="a_node1"><a xlink:title=" ">
<polygon fill="#bfbfbf" stroke="black" points="59,-123.5 59,-175.5 216,-175.5 216,-123.5 59,-123.5"/>
<text text-anchor="start" x="67" y="-163.5" font-family="Helvetica,sans-Serif" font-size="10.00">/home/sia/work/ADCP</text>
<text text-anchor="start" x="67" y="-152.5" font-family="Helvetica,sans-Serif" font-size="10.00">/Noise&#45;Estimation/code</text>
<text text-anchor="start" x="67" y="-141.5" font-family="Helvetica,sans-Serif" font-size="10.00">/imate/imate/_random_generator</text>
<text text-anchor="middle" x="137.5" y="-130.5" font-family="Helvetica,sans-Serif" font-size="10.00">/xoshiro_256_star_star.cpp</text>
</a>
</g>
</g>
<!-- Node2 -->
<g id="node2" class="node">
<title>Node2</title>
<g id="a_node2"><a xlink:href="xoshiro__256__star__star_8h.html" target="_top" xlink:title=" ">
<polygon fill="white" stroke="black" points="0,-56.5 0,-86.5 97,-86.5 97,-56.5 0,-56.5"/>
<text text-anchor="start" x="8" y="-74.5" font-family="Helvetica,sans-Serif" font-size="10.00">./xoshiro_256_star</text>
<text text-anchor="middle" x="48.5" y="-63.5" font-family="Helvetica,sans-Serif" font-size="10.00">_star.h</text>
</a>
</g>
</g>
<!-- Node1&#45;&gt;Node2 -->
<g id="edge1" class="edge">
<title>Node1&#45;&gt;Node2</title>
<path fill="none" stroke="midnightblue" d="M107.86,-123.19C96.5,-113.49 83.68,-102.54 72.86,-93.3"/>
<polygon fill="midnightblue" stroke="midnightblue" points="74.92,-90.46 65.04,-86.63 70.37,-95.78 74.92,-90.46"/>
</g>
<!-- Node4 -->
<g id="node4" class="node">
<title>Node4</title>
<g id="a_node4"><a xlink:title=" ">
<polygon fill="white" stroke="#bfbfbf" points="115,-62 115,-81 160,-81 160,-62 115,-62"/>
<text text-anchor="middle" x="137.5" y="-69" font-family="Helvetica,sans-Serif" font-size="10.00">cstdlib</text>
</a>
</g>
</g>
<!-- Node1&#45;&gt;Node4 -->
<g id="edge3" class="edge">
<title>Node1&#45;&gt;Node4</title>
<path fill="none" stroke="midnightblue" d="M137.5,-123.19C137.5,-112.76 137.5,-100.9 137.5,-91.27"/>
<polygon fill="midnightblue" stroke="midnightblue" points="141,-91.21 137.5,-81.21 134,-91.21 141,-91.21"/>
</g>
<!-- Node5 -->
<g id="node5" class="node">
<title>Node5</title>
<g id="a_node5"><a xlink:href="split__mix__64_8h.html" target="_top" xlink:title=" ">
<polygon fill="white" stroke="black" points="178.5,-62 178.5,-81 264.5,-81 264.5,-62 178.5,-62"/>
<text text-anchor="middle" x="221.5" y="-69" font-family="Helvetica,sans-Serif" font-size="10.00">./split_mix_64.h</text>
</a>
</g>
</g>
<!-- Node1&#45;&gt;Node5 -->
<g id="edge4" class="edge">
<title>Node1&#45;&gt;Node5</title>
<path fill="none" stroke="midnightblue" d="M165.47,-123.19C178.25,-111.63 192.99,-98.3 204.14,-88.21"/>
<polygon fill="midnightblue" stroke="midnightblue" points="206.81,-90.51 211.87,-81.21 202.11,-85.32 206.81,-90.51"/>
</g>
<!-- Node3 -->
<g id="node3" class="node">
<title>Node3</title>
<g id="a_node3"><a xlink:title=" ">
<polygon fill="white" stroke="#bfbfbf" points="110,-0.5 110,-19.5 159,-19.5 159,-0.5 110,-0.5"/>
<text text-anchor="middle" x="134.5" y="-7.5" font-family="Helvetica,sans-Serif" font-size="10.00">stdint.h</text>
</a>
</g>
</g>
<!-- Node2&#45;&gt;Node3 -->
<g id="edge2" class="edge">
<title>Node2&#45;&gt;Node3</title>
<path fill="none" stroke="midnightblue" d="M68.88,-56.4C82.41,-47.04 100.11,-34.79 113.72,-25.38"/>
<polygon fill="midnightblue" stroke="midnightblue" points="115.75,-28.23 121.99,-19.66 111.77,-22.47 115.75,-28.23"/>
</g>
<!-- Node5&#45;&gt;Node3 -->
<g id="edge5" class="edge">
<title>Node5&#45;&gt;Node3</title>
<path fill="none" stroke="midnightblue" d="M209.04,-61.98C195.08,-52.43 172.24,-36.81 155.51,-25.37"/>
<polygon fill="midnightblue" stroke="midnightblue" points="157.17,-22.27 146.94,-19.51 153.22,-28.04 157.17,-22.27"/>
</g>
</g>
</svg>
