<?xml version="1.0" encoding="utf-8" standalone="no"?>
<!DOCTYPE svg PUBLIC "-//W3C//DTD SVG 1.1//EN"
  "http://www.w3.org/Graphics/SVG/1.1/DTD/svg11.dtd">
<svg height="343.296pt" version="1.1" viewBox="0 0 487.296 343.296" width="487.296pt" xmlns="http://www.w3.org/2000/svg" xmlns:xlink="http://www.w3.org/1999/xlink">
 <metadata>
  <rdf:RDF xmlns:cc="http://creativecommons.org/ns#" xmlns:dc="http://purl.org/dc/elements/1.1/" xmlns:rdf="http://www.w3.org/1999/02/22-rdf-syntax-ns#">
   <cc:Work>
    <dc:type rdf:resource="http://purl.org/dc/dcmitype/StillImage"/>
    <dc:date>2021-08-22T16:42:56.729704</dc:date>
    <dc:format>image/svg+xml</dc:format>
    <dc:creator>
     <cc:Agent>
      <dc:title>Matplotlib v3.4.2, https://matplotlib.org/</dc:title>
     </cc:Agent>
    </dc:creator>
   </cc:Work>
  </rdf:RDF>
 </metadata>
 <defs>
  <style type="text/css">*{stroke-linecap:butt;stroke-linejoin:round;}</style>
 </defs>
 <g id="figure_1">
  <g id="patch_1">
   <path d="M 0 343.296 
L 487.296 343.296 
L 487.296 0 
L 0 0 
z
" style="fill:none;"/>
  </g>
  <g id="axes_1">
   <g id="patch_2">
    <path d="M 73.06452 298.154392 
L 417.649575 298.154392 
L 417.649575 23.162625 
L 73.06452 23.162625 
z
" style="fill:none;"/>
   </g>
   <g id="matplotlib.axis_1">
    <g id="xtick_1">
     <g id="line2d_1">
      <defs>
       <path d="M 0 0 
L 0 6 
" id="m315ac2573e" style="stroke:#262626;stroke-width:1.25;"/>
      </defs>
      <g>
       <use style="fill:#262626;stroke:#262626;stroke-width:1.25;" x="73.06452" xlink:href="#m315ac2573e" y="298.154392"/>
      </g>
     </g>
     <g id="text_1">
      <!-- $\mathdefault{10^{-3}}$ -->
      <g style="fill:#262626;" transform="translate(60.581683 316.786787)scale(0.132 -0.132)">
       <defs>
        <path d="M 1702 4058 
C 1702 4192 1696 4192 1606 4192 
C 1357 3916 979 3827 621 3827 
C 602 3827 570 3827 563 3808 
C 557 3795 557 3782 557 3648 
C 755 3648 1088 3686 1344 3839 
L 1344 461 
C 1344 236 1331 160 781 160 
L 589 160 
L 589 0 
C 896 0 1216 0 1523 0 
C 1830 0 2150 0 2458 0 
L 2458 160 
L 2266 160 
C 1715 160 1702 230 1702 458 
L 1702 4058 
z
" id="CMR17-31" transform="scale(0.015625)"/>
        <path d="M 2688 2025 
C 2688 2416 2682 3080 2413 3591 
C 2176 4039 1798 4198 1466 4198 
C 1158 4198 768 4058 525 3597 
C 269 3118 243 2524 243 2025 
C 243 1661 250 1106 448 619 
C 723 -39 1216 -128 1466 -128 
C 1760 -128 2208 -7 2470 600 
C 2662 1042 2688 1559 2688 2025 
z
M 1466 -26 
C 1056 -26 813 325 723 812 
C 653 1188 653 1738 653 2096 
C 653 2588 653 2997 736 3387 
C 858 3929 1216 4096 1466 4096 
C 1728 4096 2067 3923 2189 3400 
C 2272 3036 2278 2607 2278 2096 
C 2278 1680 2278 1169 2202 792 
C 2067 95 1690 -26 1466 -26 
z
" id="CMR17-30" transform="scale(0.015625)"/>
        <path d="M 4218 1472 
C 4326 1472 4442 1472 4442 1600 
C 4442 1728 4326 1728 4218 1728 
L 755 1728 
C 646 1728 531 1728 531 1600 
C 531 1472 646 1472 755 1472 
L 4218 1472 
z
" id="CMSY10-0" transform="scale(0.015625)"/>
        <path d="M 1414 2157 
C 1984 2157 2234 1662 2234 1090 
C 2234 320 1824 25 1453 25 
C 1114 25 563 194 390 693 
C 422 680 454 680 486 680 
C 640 680 755 782 755 948 
C 755 1133 614 1216 486 1216 
C 378 1216 211 1165 211 926 
C 211 335 787 -128 1466 -128 
C 2176 -128 2720 430 2720 1085 
C 2720 1707 2208 2157 1600 2227 
C 2086 2328 2554 2756 2554 3329 
C 2554 3820 2048 4179 1472 4179 
C 890 4179 378 3829 378 3329 
C 378 3110 544 3072 627 3072 
C 762 3072 877 3155 877 3321 
C 877 3486 762 3569 627 3569 
C 602 3569 570 3569 544 3557 
C 730 3959 1235 4032 1459 4032 
C 1683 4032 2106 3925 2106 3320 
C 2106 3143 2080 2828 1862 2550 
C 1670 2304 1453 2304 1242 2284 
C 1210 2284 1062 2269 1037 2269 
C 992 2263 966 2257 966 2208 
C 966 2163 973 2157 1101 2157 
L 1414 2157 
z
" id="CMR17-33" transform="scale(0.015625)"/>
       </defs>
       <use transform="scale(0.996264)" xlink:href="#CMR17-31"/>
       <use transform="translate(45.690477 0)scale(0.996264)" xlink:href="#CMR17-30"/>
       <use transform="translate(91.380954 36.153639)scale(0.697382)" xlink:href="#CMSY10-0"/>
       <use transform="translate(145.621947 36.153639)scale(0.697382)" xlink:href="#CMR17-33"/>
      </g>
     </g>
    </g>
    <g id="xtick_2">
     <g id="line2d_2">
      <g>
       <use style="fill:#262626;stroke:#262626;stroke-width:1.25;" x="130.495363" xlink:href="#m315ac2573e" y="298.154392"/>
      </g>
     </g>
     <g id="text_2">
      <!-- $\mathdefault{10^{-2}}$ -->
      <g style="fill:#262626;" transform="translate(118.012525 316.786787)scale(0.132 -0.132)">
       <defs>
        <path d="M 2669 989 
L 2554 989 
C 2490 536 2438 459 2413 420 
C 2381 369 1920 369 1830 369 
L 602 369 
C 832 619 1280 1072 1824 1597 
C 2214 1967 2669 2402 2669 3035 
C 2669 3790 2067 4224 1395 4224 
C 691 4224 262 3604 262 3030 
C 262 2780 448 2748 525 2748 
C 589 2748 781 2787 781 3010 
C 781 3207 614 3264 525 3264 
C 486 3264 448 3258 422 3245 
C 544 3790 915 4058 1306 4058 
C 1862 4058 2227 3617 2227 3035 
C 2227 2479 1901 2000 1536 1584 
L 262 146 
L 262 0 
L 2515 0 
L 2669 989 
z
" id="CMR17-32" transform="scale(0.015625)"/>
       </defs>
       <use transform="scale(0.996264)" xlink:href="#CMR17-31"/>
       <use transform="translate(45.690477 0)scale(0.996264)" xlink:href="#CMR17-30"/>
       <use transform="translate(91.380954 36.153639)scale(0.697382)" xlink:href="#CMSY10-0"/>
       <use transform="translate(145.621947 36.153639)scale(0.697382)" xlink:href="#CMR17-32"/>
      </g>
     </g>
    </g>
    <g id="xtick_3">
     <g id="line2d_3">
      <g>
       <use style="fill:#262626;stroke:#262626;stroke-width:1.25;" x="187.926205" xlink:href="#m315ac2573e" y="298.154392"/>
      </g>
     </g>
     <g id="text_3">
      <!-- $\mathdefault{10^{-1}}$ -->
      <g style="fill:#262626;" transform="translate(175.443368 316.786787)scale(0.132 -0.132)">
       <use transform="scale(0.996264)" xlink:href="#CMR17-31"/>
       <use transform="translate(45.690477 0)scale(0.996264)" xlink:href="#CMR17-30"/>
       <use transform="translate(91.380954 36.153639)scale(0.697382)" xlink:href="#CMSY10-0"/>
       <use transform="translate(145.621947 36.153639)scale(0.697382)" xlink:href="#CMR17-31"/>
      </g>
     </g>
    </g>
    <g id="xtick_4">
     <g id="line2d_4">
      <g>
       <use style="fill:#262626;stroke:#262626;stroke-width:1.25;" x="245.357047" xlink:href="#m315ac2573e" y="298.154392"/>
      </g>
     </g>
     <g id="text_4">
      <!-- $\mathdefault{10^{0}}$ -->
      <g style="fill:#262626;" transform="translate(236.553513 316.786787)scale(0.132 -0.132)">
       <use transform="scale(0.996264)" xlink:href="#CMR17-31"/>
       <use transform="translate(45.690477 0)scale(0.996264)" xlink:href="#CMR17-30"/>
       <use transform="translate(91.380954 36.153639)scale(0.697382)" xlink:href="#CMR17-30"/>
      </g>
     </g>
    </g>
    <g id="xtick_5">
     <g id="line2d_5">
      <g>
       <use style="fill:#262626;stroke:#262626;stroke-width:1.25;" x="302.78789" xlink:href="#m315ac2573e" y="298.154392"/>
      </g>
     </g>
     <g id="text_5">
      <!-- $\mathdefault{10^{1}}$ -->
      <g style="fill:#262626;" transform="translate(293.984355 316.786787)scale(0.132 -0.132)">
       <use transform="scale(0.996264)" xlink:href="#CMR17-31"/>
       <use transform="translate(45.690477 0)scale(0.996264)" xlink:href="#CMR17-30"/>
       <use transform="translate(91.380954 36.153639)scale(0.697382)" xlink:href="#CMR17-31"/>
      </g>
     </g>
    </g>
    <g id="xtick_6">
     <g id="line2d_6">
      <g>
       <use style="fill:#262626;stroke:#262626;stroke-width:1.25;" x="360.218732" xlink:href="#m315ac2573e" y="298.154392"/>
      </g>
     </g>
     <g id="text_6">
      <!-- $\mathdefault{10^{2}}$ -->
      <g style="fill:#262626;" transform="translate(351.415198 316.786787)scale(0.132 -0.132)">
       <use transform="scale(0.996264)" xlink:href="#CMR17-31"/>
       <use transform="translate(45.690477 0)scale(0.996264)" xlink:href="#CMR17-30"/>
       <use transform="translate(91.380954 36.153639)scale(0.697382)" xlink:href="#CMR17-32"/>
      </g>
     </g>
    </g>
    <g id="xtick_7">
     <g id="line2d_7">
      <g>
       <use style="fill:#262626;stroke:#262626;stroke-width:1.25;" x="417.649575" xlink:href="#m315ac2573e" y="298.154392"/>
      </g>
     </g>
     <g id="text_7">
      <!-- $\mathdefault{10^{3}}$ -->
      <g style="fill:#262626;" transform="translate(408.84604 316.786787)scale(0.132 -0.132)">
       <use transform="scale(0.996264)" xlink:href="#CMR17-31"/>
       <use transform="translate(45.690477 0)scale(0.996264)" xlink:href="#CMR17-30"/>
       <use transform="translate(91.380954 36.153639)scale(0.697382)" xlink:href="#CMR17-33"/>
      </g>
     </g>
    </g>
    <g id="xtick_8">
     <g id="line2d_8">
      <defs>
       <path d="M 0 0 
L 0 4 
" id="mb3e6b09401" style="stroke:#262626;"/>
      </defs>
      <g>
       <use style="fill:#262626;stroke:#262626;" x="90.352926" xlink:href="#mb3e6b09401" y="298.154392"/>
      </g>
     </g>
    </g>
    <g id="xtick_9">
     <g id="line2d_9">
      <g>
       <use style="fill:#262626;stroke:#262626;" x="100.465996" xlink:href="#mb3e6b09401" y="298.154392"/>
      </g>
     </g>
    </g>
    <g id="xtick_10">
     <g id="line2d_10">
      <g>
       <use style="fill:#262626;stroke:#262626;" x="107.641333" xlink:href="#mb3e6b09401" y="298.154392"/>
      </g>
     </g>
    </g>
    <g id="xtick_11">
     <g id="line2d_11">
      <g>
       <use style="fill:#262626;stroke:#262626;" x="113.206956" xlink:href="#mb3e6b09401" y="298.154392"/>
      </g>
     </g>
    </g>
    <g id="xtick_12">
     <g id="line2d_12">
      <g>
       <use style="fill:#262626;stroke:#262626;" x="117.754402" xlink:href="#mb3e6b09401" y="298.154392"/>
      </g>
     </g>
    </g>
    <g id="xtick_13">
     <g id="line2d_13">
      <g>
       <use style="fill:#262626;stroke:#262626;" x="121.599213" xlink:href="#mb3e6b09401" y="298.154392"/>
      </g>
     </g>
    </g>
    <g id="xtick_14">
     <g id="line2d_14">
      <g>
       <use style="fill:#262626;stroke:#262626;" x="124.929739" xlink:href="#mb3e6b09401" y="298.154392"/>
      </g>
     </g>
    </g>
    <g id="xtick_15">
     <g id="line2d_15">
      <g>
       <use style="fill:#262626;stroke:#262626;" x="127.867471" xlink:href="#mb3e6b09401" y="298.154392"/>
      </g>
     </g>
    </g>
    <g id="xtick_16">
     <g id="line2d_16">
      <g>
       <use style="fill:#262626;stroke:#262626;" x="147.783769" xlink:href="#mb3e6b09401" y="298.154392"/>
      </g>
     </g>
    </g>
    <g id="xtick_17">
     <g id="line2d_17">
      <g>
       <use style="fill:#262626;stroke:#262626;" x="157.896838" xlink:href="#mb3e6b09401" y="298.154392"/>
      </g>
     </g>
    </g>
    <g id="xtick_18">
     <g id="line2d_18">
      <g>
       <use style="fill:#262626;stroke:#262626;" x="165.072175" xlink:href="#mb3e6b09401" y="298.154392"/>
      </g>
     </g>
    </g>
    <g id="xtick_19">
     <g id="line2d_19">
      <g>
       <use style="fill:#262626;stroke:#262626;" x="170.637799" xlink:href="#mb3e6b09401" y="298.154392"/>
      </g>
     </g>
    </g>
    <g id="xtick_20">
     <g id="line2d_20">
      <g>
       <use style="fill:#262626;stroke:#262626;" x="175.185245" xlink:href="#mb3e6b09401" y="298.154392"/>
      </g>
     </g>
    </g>
    <g id="xtick_21">
     <g id="line2d_21">
      <g>
       <use style="fill:#262626;stroke:#262626;" x="179.030055" xlink:href="#mb3e6b09401" y="298.154392"/>
      </g>
     </g>
    </g>
    <g id="xtick_22">
     <g id="line2d_22">
      <g>
       <use style="fill:#262626;stroke:#262626;" x="182.360581" xlink:href="#mb3e6b09401" y="298.154392"/>
      </g>
     </g>
    </g>
    <g id="xtick_23">
     <g id="line2d_23">
      <g>
       <use style="fill:#262626;stroke:#262626;" x="185.298314" xlink:href="#mb3e6b09401" y="298.154392"/>
      </g>
     </g>
    </g>
    <g id="xtick_24">
     <g id="line2d_24">
      <g>
       <use style="fill:#262626;stroke:#262626;" x="205.214611" xlink:href="#mb3e6b09401" y="298.154392"/>
      </g>
     </g>
    </g>
    <g id="xtick_25">
     <g id="line2d_25">
      <g>
       <use style="fill:#262626;stroke:#262626;" x="215.327681" xlink:href="#mb3e6b09401" y="298.154392"/>
      </g>
     </g>
    </g>
    <g id="xtick_26">
     <g id="line2d_26">
      <g>
       <use style="fill:#262626;stroke:#262626;" x="222.503018" xlink:href="#mb3e6b09401" y="298.154392"/>
      </g>
     </g>
    </g>
    <g id="xtick_27">
     <g id="line2d_27">
      <g>
       <use style="fill:#262626;stroke:#262626;" x="228.068641" xlink:href="#mb3e6b09401" y="298.154392"/>
      </g>
     </g>
    </g>
    <g id="xtick_28">
     <g id="line2d_28">
      <g>
       <use style="fill:#262626;stroke:#262626;" x="232.616087" xlink:href="#mb3e6b09401" y="298.154392"/>
      </g>
     </g>
    </g>
    <g id="xtick_29">
     <g id="line2d_29">
      <g>
       <use style="fill:#262626;stroke:#262626;" x="236.460897" xlink:href="#mb3e6b09401" y="298.154392"/>
      </g>
     </g>
    </g>
    <g id="xtick_30">
     <g id="line2d_30">
      <g>
       <use style="fill:#262626;stroke:#262626;" x="239.791424" xlink:href="#mb3e6b09401" y="298.154392"/>
      </g>
     </g>
    </g>
    <g id="xtick_31">
     <g id="line2d_31">
      <g>
       <use style="fill:#262626;stroke:#262626;" x="242.729156" xlink:href="#mb3e6b09401" y="298.154392"/>
      </g>
     </g>
    </g>
    <g id="xtick_32">
     <g id="line2d_32">
      <g>
       <use style="fill:#262626;stroke:#262626;" x="262.645454" xlink:href="#mb3e6b09401" y="298.154392"/>
      </g>
     </g>
    </g>
    <g id="xtick_33">
     <g id="line2d_33">
      <g>
       <use style="fill:#262626;stroke:#262626;" x="272.758523" xlink:href="#mb3e6b09401" y="298.154392"/>
      </g>
     </g>
    </g>
    <g id="xtick_34">
     <g id="line2d_34">
      <g>
       <use style="fill:#262626;stroke:#262626;" x="279.93386" xlink:href="#mb3e6b09401" y="298.154392"/>
      </g>
     </g>
    </g>
    <g id="xtick_35">
     <g id="line2d_35">
      <g>
       <use style="fill:#262626;stroke:#262626;" x="285.499484" xlink:href="#mb3e6b09401" y="298.154392"/>
      </g>
     </g>
    </g>
    <g id="xtick_36">
     <g id="line2d_36">
      <g>
       <use style="fill:#262626;stroke:#262626;" x="290.046929" xlink:href="#mb3e6b09401" y="298.154392"/>
      </g>
     </g>
    </g>
    <g id="xtick_37">
     <g id="line2d_37">
      <g>
       <use style="fill:#262626;stroke:#262626;" x="293.89174" xlink:href="#mb3e6b09401" y="298.154392"/>
      </g>
     </g>
    </g>
    <g id="xtick_38">
     <g id="line2d_38">
      <g>
       <use style="fill:#262626;stroke:#262626;" x="297.222266" xlink:href="#mb3e6b09401" y="298.154392"/>
      </g>
     </g>
    </g>
    <g id="xtick_39">
     <g id="line2d_39">
      <g>
       <use style="fill:#262626;stroke:#262626;" x="300.159999" xlink:href="#mb3e6b09401" y="298.154392"/>
      </g>
     </g>
    </g>
    <g id="xtick_40">
     <g id="line2d_40">
      <g>
       <use style="fill:#262626;stroke:#262626;" x="320.076296" xlink:href="#mb3e6b09401" y="298.154392"/>
      </g>
     </g>
    </g>
    <g id="xtick_41">
     <g id="line2d_41">
      <g>
       <use style="fill:#262626;stroke:#262626;" x="330.189365" xlink:href="#mb3e6b09401" y="298.154392"/>
      </g>
     </g>
    </g>
    <g id="xtick_42">
     <g id="line2d_42">
      <g>
       <use style="fill:#262626;stroke:#262626;" x="337.364702" xlink:href="#mb3e6b09401" y="298.154392"/>
      </g>
     </g>
    </g>
    <g id="xtick_43">
     <g id="line2d_43">
      <g>
       <use style="fill:#262626;stroke:#262626;" x="342.930326" xlink:href="#mb3e6b09401" y="298.154392"/>
      </g>
     </g>
    </g>
    <g id="xtick_44">
     <g id="line2d_44">
      <g>
       <use style="fill:#262626;stroke:#262626;" x="347.477772" xlink:href="#mb3e6b09401" y="298.154392"/>
      </g>
     </g>
    </g>
    <g id="xtick_45">
     <g id="line2d_45">
      <g>
       <use style="fill:#262626;stroke:#262626;" x="351.322582" xlink:href="#mb3e6b09401" y="298.154392"/>
      </g>
     </g>
    </g>
    <g id="xtick_46">
     <g id="line2d_46">
      <g>
       <use style="fill:#262626;stroke:#262626;" x="354.653109" xlink:href="#mb3e6b09401" y="298.154392"/>
      </g>
     </g>
    </g>
    <g id="xtick_47">
     <g id="line2d_47">
      <g>
       <use style="fill:#262626;stroke:#262626;" x="357.590841" xlink:href="#mb3e6b09401" y="298.154392"/>
      </g>
     </g>
    </g>
    <g id="xtick_48">
     <g id="line2d_48">
      <g>
       <use style="fill:#262626;stroke:#262626;" x="377.507139" xlink:href="#mb3e6b09401" y="298.154392"/>
      </g>
     </g>
    </g>
    <g id="xtick_49">
     <g id="line2d_49">
      <g>
       <use style="fill:#262626;stroke:#262626;" x="387.620208" xlink:href="#mb3e6b09401" y="298.154392"/>
      </g>
     </g>
    </g>
    <g id="xtick_50">
     <g id="line2d_50">
      <g>
       <use style="fill:#262626;stroke:#262626;" x="394.795545" xlink:href="#mb3e6b09401" y="298.154392"/>
      </g>
     </g>
    </g>
    <g id="xtick_51">
     <g id="line2d_51">
      <g>
       <use style="fill:#262626;stroke:#262626;" x="400.361168" xlink:href="#mb3e6b09401" y="298.154392"/>
      </g>
     </g>
    </g>
    <g id="xtick_52">
     <g id="line2d_52">
      <g>
       <use style="fill:#262626;stroke:#262626;" x="404.908614" xlink:href="#mb3e6b09401" y="298.154392"/>
      </g>
     </g>
    </g>
    <g id="xtick_53">
     <g id="line2d_53">
      <g>
       <use style="fill:#262626;stroke:#262626;" x="408.753425" xlink:href="#mb3e6b09401" y="298.154392"/>
      </g>
     </g>
    </g>
    <g id="xtick_54">
     <g id="line2d_54">
      <g>
       <use style="fill:#262626;stroke:#262626;" x="412.083951" xlink:href="#mb3e6b09401" y="298.154392"/>
      </g>
     </g>
    </g>
    <g id="xtick_55">
     <g id="line2d_55">
      <g>
       <use style="fill:#262626;stroke:#262626;" x="415.021683" xlink:href="#mb3e6b09401" y="298.154392"/>
      </g>
     </g>
    </g>
    <g id="text_8">
     <!-- $t$ -->
     <g style="fill:#262626;" transform="translate(242.820759 333.306473)scale(0.144 -0.144)">
      <defs>
       <path d="M 1286 2566 
L 1875 2566 
C 1997 2566 2061 2566 2061 2681 
C 2061 2752 2022 2752 1894 2752 
L 1331 2752 
L 1568 3692 
C 1594 3781 1594 3794 1594 3840 
C 1594 3943 1510 4000 1427 4000 
C 1376 4000 1229 3981 1178 3775 
L 928 2752 
L 326 2752 
C 198 2752 141 2752 141 2630 
C 141 2566 186 2566 307 2566 
L 877 2566 
L 454 881 
C 403 658 384 594 384 511 
C 384 211 595 -64 954 -64 
C 1600 -64 1946 868 1946 912 
C 1946 951 1920 970 1882 970 
C 1869 970 1843 970 1830 944 
C 1824 938 1818 931 1773 829 
C 1638 511 1344 64 973 64 
C 781 64 768 224 768 364 
C 768 370 768 492 787 568 
L 1286 2566 
z
" id="CMMI12-74" transform="scale(0.015625)"/>
      </defs>
      <use transform="scale(0.996264)" xlink:href="#CMMI12-74"/>
     </g>
    </g>
   </g>
   <g id="matplotlib.axis_2">
    <g id="ytick_1">
     <g id="line2d_56">
      <defs>
       <path d="M 0 0 
L -4 0 
" id="mb2230ae514" style="stroke:#262626;"/>
      </defs>
      <g>
       <use style="fill:#262626;stroke:#262626;" x="73.06452" xlink:href="#mb2230ae514" y="270.654679"/>
      </g>
     </g>
     <g id="text_9">
      <!-- $\mathdefault{3\times10^{3}}$ -->
      <g style="fill:#262626;" transform="translate(25.54618 275.276416)scale(0.132 -0.132)">
       <defs>
        <path d="M 2490 1785 
L 1210 3059 
C 1133 3136 1120 3148 1069 3148 
C 1005 3148 941 3091 941 3020 
C 941 2976 954 2963 1024 2892 
L 2304 1606 
L 1024 320 
C 954 249 941 236 941 192 
C 941 121 1005 64 1069 64 
C 1120 64 1133 76 1210 153 
L 2483 1427 
L 3808 102 
C 3821 96 3866 64 3904 64 
C 3981 64 4032 121 4032 192 
C 4032 204 4032 230 4013 262 
C 4006 275 2989 1280 2669 1606 
L 3840 2777 
C 3872 2816 3968 2899 4000 2937 
C 4006 2950 4032 2976 4032 3020 
C 4032 3091 3981 3148 3904 3148 
C 3853 3148 3827 3123 3757 3052 
L 2490 1785 
z
" id="CMSY10-2" transform="scale(0.015625)"/>
       </defs>
       <use transform="scale(0.996264)" xlink:href="#CMR17-33"/>
       <use transform="translate(67.829684 0)scale(0.996264)" xlink:href="#CMSY10-2"/>
       <use transform="translate(167.456359 0)scale(0.996264)" xlink:href="#CMR17-31"/>
       <use transform="translate(213.146836 0)scale(0.996264)" xlink:href="#CMR17-30"/>
       <use transform="translate(258.837313 36.153639)scale(0.697382)" xlink:href="#CMR17-33"/>
      </g>
     </g>
    </g>
    <g id="ytick_2">
     <g id="line2d_57">
      <g>
       <use style="fill:#262626;stroke:#262626;" x="73.06452" xlink:href="#mb2230ae514" y="192.263358"/>
      </g>
     </g>
     <g id="text_10">
      <!-- $\mathdefault{4\times10^{3}}$ -->
      <g style="fill:#262626;" transform="translate(25.54618 196.885095)scale(0.132 -0.132)">
       <defs>
        <path d="M 2150 4122 
C 2150 4256 2144 4256 2029 4256 
L 128 1254 
L 128 1088 
L 1779 1088 
L 1779 457 
C 1779 224 1766 160 1318 160 
L 1197 160 
L 1197 0 
C 1402 0 1747 0 1965 0 
C 2182 0 2528 0 2733 0 
L 2733 160 
L 2611 160 
C 2163 160 2150 224 2150 457 
L 2150 1088 
L 2803 1088 
L 2803 1254 
L 2150 1254 
L 2150 4122 
z
M 1798 3703 
L 1798 1254 
L 256 1254 
L 1798 3703 
z
" id="CMR17-34" transform="scale(0.015625)"/>
       </defs>
       <use transform="scale(0.996264)" xlink:href="#CMR17-34"/>
       <use transform="translate(67.829684 0)scale(0.996264)" xlink:href="#CMSY10-2"/>
       <use transform="translate(167.456359 0)scale(0.996264)" xlink:href="#CMR17-31"/>
       <use transform="translate(213.146836 0)scale(0.996264)" xlink:href="#CMR17-30"/>
       <use transform="translate(258.837313 36.153639)scale(0.697382)" xlink:href="#CMR17-33"/>
      </g>
     </g>
    </g>
    <g id="ytick_3">
     <g id="line2d_58">
      <g>
       <use style="fill:#262626;stroke:#262626;" x="73.06452" xlink:href="#mb2230ae514" y="131.458325"/>
      </g>
     </g>
    </g>
    <g id="ytick_4">
     <g id="line2d_59">
      <g>
       <use style="fill:#262626;stroke:#262626;" x="73.06452" xlink:href="#mb2230ae514" y="81.776996"/>
      </g>
     </g>
     <g id="text_11">
      <!-- $\mathdefault{6\times10^{3}}$ -->
      <g style="fill:#262626;" transform="translate(25.54618 86.398733)scale(0.132 -0.132)">
       <defs>
        <path d="M 678 2176 
C 678 3690 1395 4032 1811 4032 
C 1946 4032 2272 4009 2400 3776 
C 2298 3776 2106 3776 2106 3553 
C 2106 3381 2246 3323 2336 3323 
C 2394 3323 2566 3348 2566 3560 
C 2566 3954 2246 4179 1805 4179 
C 1043 4179 243 3390 243 1984 
C 243 253 966 -128 1478 -128 
C 2099 -128 2688 427 2688 1283 
C 2688 2081 2170 2662 1517 2662 
C 1126 2662 838 2407 678 1960 
L 678 2176 
z
M 1478 25 
C 691 25 691 1200 691 1436 
C 691 1896 909 2560 1504 2560 
C 1613 2560 1926 2560 2138 2120 
C 2253 1870 2253 1609 2253 1289 
C 2253 944 2253 690 2118 434 
C 1978 171 1773 25 1478 25 
z
" id="CMR17-36" transform="scale(0.015625)"/>
       </defs>
       <use transform="scale(0.996264)" xlink:href="#CMR17-36"/>
       <use transform="translate(67.829684 0)scale(0.996264)" xlink:href="#CMSY10-2"/>
       <use transform="translate(167.456359 0)scale(0.996264)" xlink:href="#CMR17-31"/>
       <use transform="translate(213.146836 0)scale(0.996264)" xlink:href="#CMR17-30"/>
       <use transform="translate(258.837313 36.153639)scale(0.697382)" xlink:href="#CMR17-33"/>
      </g>
     </g>
    </g>
    <g id="ytick_5">
     <g id="line2d_60">
      <g>
       <use style="fill:#262626;stroke:#262626;" x="73.06452" xlink:href="#mb2230ae514" y="39.772031"/>
      </g>
     </g>
    </g>
    <g id="text_12">
     <!-- $\mathrm{log det}(\mathbf{A} + t \mathbf{I})$ -->
     <g style="fill:#262626;" transform="translate(17.959639 205.137092)rotate(-90)scale(0.144 -0.144)">
      <defs>
       <path d="M 979 4396 
L 218 4326 
L 218 4160 
C 595 4160 653 4122 653 3817 
L 653 426 
C 653 184 627 153 218 153 
L 218 -13 
C 371 0 653 0 813 0 
C 979 0 1261 0 1414 -13 
L 1414 153 
C 1005 153 979 178 979 426 
L 979 4396 
z
" id="CMR17-6c" transform="scale(0.015625)"/>
       <path d="M 2758 1356 
C 2758 2176 2163 2816 1466 2816 
C 768 2816 173 2176 173 1356 
C 173 551 768 -64 1466 -64 
C 2163 -64 2758 551 2758 1356 
z
M 1466 51 
C 1165 51 909 230 762 480 
C 602 767 582 1126 582 1408 
C 582 1677 595 2010 762 2298 
C 890 2509 1139 2714 1466 2714 
C 1754 2714 1997 2554 2150 2330 
C 2349 2029 2349 1607 2349 1408 
C 2349 1158 2336 775 2163 467 
C 1984 173 1709 51 1466 51 
z
" id="CMR17-6f" transform="scale(0.015625)"/>
       <path d="M 710 1164 
C 832 1068 1043 960 1299 960 
C 1805 960 2240 1357 2240 1888 
C 2240 2054 2189 2310 1997 2509 
C 2176 2692 2438 2752 2586 2752 
C 2611 2752 2650 2752 2682 2734 
C 2656 2728 2598 2703 2598 2605 
C 2598 2527 2656 2471 2739 2471 
C 2835 2471 2886 2533 2886 2614 
C 2886 2731 2790 2854 2586 2854 
C 2330 2854 2106 2738 1926 2580 
C 1734 2753 1504 2816 1299 2816 
C 794 2816 358 2419 358 1888 
C 358 1522 570 1292 634 1228 
C 442 1004 442 743 442 711 
C 442 545 506 302 723 168 
C 390 85 128 -169 128 -486 
C 128 -943 736 -1280 1466 -1280 
C 2170 -1280 2803 -956 2803 -479 
C 2803 384 1856 384 1363 384 
C 1216 384 954 384 922 391 
C 723 423 589 602 589 826 
C 589 883 589 1024 710 1164 
z
M 1299 1068 
C 736 1068 736 1760 736 1889 
C 736 2016 736 2708 1299 2708 
C 1862 2708 1862 2016 1862 1889 
C 1862 1760 1862 1068 1299 1068 
z
M 1466 -1171 
C 826 -1171 384 -835 384 -486 
C 384 -289 493 -105 634 -4 
C 794 104 858 104 1293 104 
C 1818 104 2547 104 2547 -486 
C 2547 -835 2106 -1171 1466 -1171 
z
" id="CMR17-67" transform="scale(0.015625)"/>
       <path d="M 1869 4326 
L 1869 4160 
C 2246 4160 2304 4122 2304 3820 
L 2304 2345 
C 2278 2377 2016 2790 1498 2790 
C 845 2790 211 2208 211 1364 
C 211 525 806 -64 1434 -64 
C 1978 -64 2259 337 2291 380 
L 2291 -63 
L 3066 -63 
L 3066 128 
C 2688 128 2630 166 2630 473 
L 2630 4396 
L 1869 4326 
z
M 2291 755 
C 2291 563 2176 390 2029 262 
C 1811 70 1594 38 1472 38 
C 1286 38 621 134 621 1356 
C 621 2612 1363 2688 1530 2688 
C 1824 2688 2061 2522 2208 2291 
C 2291 2157 2291 2138 2291 2023 
L 2291 755 
z
" id="CMR17-64" transform="scale(0.015625)"/>
       <path d="M 2438 1472 
C 2464 1498 2464 1511 2464 1576 
C 2464 2238 2118 2816 1389 2816 
C 710 2816 173 2169 173 1383 
C 173 551 781 -64 1459 -64 
C 2176 -64 2458 607 2458 740 
C 2458 784 2419 784 2406 784 
C 2362 784 2355 771 2330 696 
C 2189 265 1837 51 1504 51 
C 1229 51 954 203 781 480 
C 582 803 582 1176 582 1472 
L 2438 1472 
z
M 589 1568 
C 634 2505 1126 2714 1382 2714 
C 1818 2714 2112 2297 2118 1568 
L 589 1568 
z
" id="CMR17-65" transform="scale(0.015625)"/>
       <path d="M 966 2560 
L 1862 2560 
L 1862 2725 
L 966 2725 
L 966 3904 
L 851 3904 
C 838 3245 614 2668 70 2668 
L 70 2560 
L 627 2560 
L 627 771 
C 627 650 627 -64 1370 -64 
C 1747 -64 1965 306 1965 777 
L 1965 1140 
L 1850 1140 
L 1850 783 
C 1850 344 1677 51 1408 51 
C 1222 51 966 178 966 758 
L 966 2560 
z
" id="CMR17-74" transform="scale(0.015625)"/>
       <path d="M 1958 -1561 
C 1958 -1555 1958 -1542 1939 -1523 
C 1645 -1224 858 -407 858 1581 
C 858 3569 1632 4379 1946 4697 
C 1946 4704 1958 4717 1958 4736 
C 1958 4755 1939 4768 1914 4768 
C 1843 4768 1299 4296 986 3594 
C 666 2887 576 2199 576 1588 
C 576 1128 621 351 1005 -471 
C 1312 -1135 1837 -1600 1914 -1600 
C 1946 -1600 1958 -1587 1958 -1561 
z
" id="CMR17-28" transform="scale(0.015625)"/>
       <path d="M 2931 4301 
C 2886 4416 2874 4448 2720 4448 
C 2560 4448 2547 4416 2502 4301 
L 915 413 
C 870 311 870 299 691 279 
C 531 260 506 260 365 260 
L 250 260 
L 250 -13 
C 416 0 800 0 986 0 
C 1158 0 1626 0 1773 -13 
L 1773 260 
C 1632 260 1389 260 1210 331 
C 1229 390 1229 402 1242 428 
L 1581 1262 
L 3296 1262 
L 3699 260 
L 3098 260 
L 3098 0 
C 3302 0 3923 0 4166 0 
C 4371 0 5024 0 5184 -13 
L 5184 260 
L 4576 260 
L 2931 4301 
z
M 2438 3367 
L 3181 1536 
L 1690 1536 
L 2438 3367 
z
" id="CMBX12-41" transform="scale(0.015625)"/>
       <path d="M 2413 1472 
L 4109 1472 
C 4198 1472 4307 1472 4307 1580 
C 4307 1695 4205 1695 4109 1695 
L 2413 1695 
L 2413 3386 
C 2413 3475 2413 3584 2304 3584 
C 2189 3584 2189 3482 2189 3386 
L 2189 1695 
L 493 1695 
C 403 1695 294 1695 294 1587 
C 294 1472 397 1472 493 1472 
L 2189 1472 
L 2189 -218 
C 2189 -307 2189 -416 2298 -416 
C 2413 -416 2413 -314 2413 -218 
L 2413 1472 
z
" id="CMR17-2b" transform="scale(0.015625)"/>
       <path d="M 1760 4085 
L 2477 4085 
L 2477 4352 
C 2246 4352 1606 4352 1338 4352 
C 1069 4352 429 4352 198 4352 
L 198 4085 
L 915 4085 
L 915 267 
L 198 267 
L 198 0 
C 429 0 1069 0 1338 0 
C 1606 0 2246 0 2477 0 
L 2477 267 
L 1760 267 
L 1760 4085 
z
" id="CMBX12-49" transform="scale(0.015625)"/>
       <path d="M 1683 1581 
C 1683 2040 1638 2817 1254 3639 
C 947 4303 422 4768 346 4768 
C 326 4768 301 4761 301 4729 
C 301 4717 307 4710 314 4697 
C 621 4378 1402 3568 1402 1584 
C 1402 -407 627 -1217 314 -1537 
C 307 -1549 301 -1556 301 -1568 
C 301 -1600 326 -1600 346 -1600 
C 416 -1600 960 -1128 1274 -426 
C 1594 281 1683 969 1683 1581 
z
" id="CMR17-29" transform="scale(0.015625)"/>
      </defs>
      <use transform="scale(0.996264)" xlink:href="#CMR17-6c"/>
      <use transform="translate(24.871058 0)scale(0.996264)" xlink:href="#CMR17-6f"/>
      <use transform="translate(70.561536 0)scale(0.996264)" xlink:href="#CMR17-67"/>
      <use transform="translate(116.252013 0)scale(0.996264)" xlink:href="#CMR17-64"/>
      <use transform="translate(167.147382 0)scale(0.996264)" xlink:href="#CMR17-65"/>
      <use transform="translate(207.633043 0)scale(0.996264)" xlink:href="#CMR17-74"/>
      <use transform="translate(242.913811 0)scale(0.996264)" xlink:href="#CMR17-28"/>
      <use transform="translate(278.194579 0)scale(0.996264)" xlink:href="#CMBX12-41"/>
      <use transform="translate(384.97018 0)scale(0.996264)" xlink:href="#CMR17-2b"/>
      <use transform="translate(478.824176 0)scale(0.996264)" xlink:href="#CMMI12-74"/>
      <use transform="translate(514.050506 0)scale(0.996264)" xlink:href="#CMBX12-49"/>
      <use transform="translate(555.792214 0)scale(0.996264)" xlink:href="#CMR17-29"/>
     </g>
    </g>
   </g>
   <g id="line2d_61">
    <path clip-path="url(#pb1c2db1237)" d="M 73.06452 285.65469 
L 80.096868 285.648783 
L 87.129216 285.640953 
L 94.161564 285.630577 
L 101.193912 285.616827 
L 108.226261 285.598609 
L 115.258609 285.574476 
L 122.290957 285.542516 
L 129.323305 285.500204 
L 136.355653 285.444211 
L 143.388001 285.370159 
L 150.420349 285.272296 
L 157.452697 285.143097 
L 164.485045 284.972752 
L 171.517393 284.748545 
L 178.549741 284.454102 
L 185.582089 284.068535 
L 192.614437 283.565506 
L 199.646785 282.912293 
L 206.679133 282.069011 
L 213.711481 280.988175 
L 220.743829 279.614876 
L 227.776177 277.887815 
L 234.808525 275.741367 
L 241.840873 273.108612 
L 248.873222 269.925036 
L 255.90557 266.132286 
L 262.937918 261.681367 
L 269.970266 256.590592 
L 277.002614 250.718144 
L 284.034962 244.111592 
L 291.06731 236.769461 
L 298.099658 228.700911 
L 305.132006 219.925272 
L 312.164354 210.472152 
L 319.196702 200.382107 
L 326.22905 189.727567 
L 333.261398 178.530232 
L 340.293746 166.892373 
L 347.326094 154.9038 
L 354.358442 142.663044 
L 361.39079 130.272828 
L 368.423138 117.834509 
L 375.455486 105.442481 
L 382.487834 93.179544 
L 389.520183 81.111838 
L 396.552531 69.29683 
L 403.584879 57.769348 
L 410.617227 46.553722 
L 417.649575 35.663203 
" style="fill:none;stroke:#000000;stroke-linecap:round;stroke-width:1.5;"/>
   </g>
   <g id="line2d_62">
    <path clip-path="url(#pb1c2db1237)" d="M 73.06452 285.654766 
L 80.096868 285.648849 
L 87.129216 285.641007 
L 94.161564 285.630614 
L 101.193912 285.616843 
L 108.226261 285.598596 
L 115.258609 285.574426 
L 122.290957 285.542415 
L 129.323305 285.500037 
L 136.355653 285.443958 
L 143.388001 285.36979 
L 150.420349 285.271776 
L 157.452697 285.142378 
L 164.485045 284.971774 
L 171.517393 284.747228 
L 178.549741 284.452347 
L 185.582089 284.066218 
L 192.614437 283.562472 
L 199.646785 282.908357 
L 206.679133 282.063958 
L 213.711481 280.981766 
L 220.743829 279.606858 
L 227.776177 277.877947 
L 234.808525 275.729446 
L 241.840873 273.094518 
L 248.873222 269.908764 
L 255.90557 266.11398 
L 262.937918 261.661331 
L 269.970266 256.513431 
L 277.002614 250.645191 
L 284.034962 244.043637 
L 291.06731 236.707164 
L 298.099658 228.644744 
L 305.132006 219.875485 
L 312.164354 210.428772 
L 319.196702 200.344954 
L 326.22905 189.676352 
L 333.261398 178.488102 
L 340.293746 166.858268 
L 347.326094 154.876616 
L 354.358442 142.641693 
L 361.39079 130.256284 
L 368.423138 117.821845 
L 375.455486 105.432888 
L 382.487834 93.172343 
L 389.520183 81.108598 
L 396.552531 69.294432 
L 403.584879 57.76758 
L 410.617227 46.552423 
L 417.649575 35.662251 
" style="fill:none;stroke:#800000;stroke-linecap:round;stroke-width:1.5;"/>
   </g>
   <g id="patch_3">
    <path d="M 73.06452 298.154392 
L 73.06452 23.162625 
" style="fill:none;stroke:#262626;stroke-linecap:square;stroke-linejoin:miter;stroke-width:1.25;"/>
   </g>
   <g id="patch_4">
    <path d="M 417.649575 298.154392 
L 417.649575 23.162625 
" style="fill:none;stroke:#262626;stroke-linecap:square;stroke-linejoin:miter;stroke-width:1.25;"/>
   </g>
   <g id="patch_5">
    <path d="M 73.06452 298.154392 
L 417.649575 298.154392 
" style="fill:none;stroke:#262626;stroke-linecap:square;stroke-linejoin:miter;stroke-width:1.25;"/>
   </g>
   <g id="patch_6">
    <path d="M 73.06452 23.162625 
L 417.649575 23.162625 
" style="fill:none;stroke:#262626;stroke-linecap:square;stroke-linejoin:miter;stroke-width:1.25;"/>
   </g>
   <g id="text_13">
    <!-- Comparison of stochastic estimation with direct solution -->
    <g style="fill:#262626;" transform="translate(71.328555 17.162625)scale(0.144 -0.144)">
     <defs>
      <path d="M 3974 4289 
C 3974 4403 3968 4410 3930 4410 
C 3904 4410 3898 4403 3853 4327 
L 3571 3792 
C 3258 4187 2874 4416 2381 4416 
C 1286 4416 294 3456 294 2148 
C 294 826 1286 -128 2387 -128 
C 3366 -128 3974 730 3974 1461 
C 3974 1524 3974 1550 3917 1550 
C 3866 1550 3866 1531 3859 1474 
C 3808 585 3168 38 2477 38 
C 1824 38 781 495 781 2147 
C 781 3805 1843 4250 2464 4250 
C 3187 4250 3712 3628 3834 2745 
C 3846 2668 3846 2655 3904 2655 
C 3974 2655 3974 2668 3974 2783 
L 3974 4289 
z
" id="CMR17-43" transform="scale(0.015625)"/>
      <path d="M 4326 1933 
C 4326 2252 4269 2790 3507 2790 
C 3072 2790 2771 2496 2656 2151 
L 2650 2151 
C 2573 2676 2195 2790 1837 2790 
C 1331 2790 1069 2400 973 2144 
L 966 2144 
L 966 2790 
L 211 2720 
L 211 2554 
C 589 2554 646 2515 646 2208 
L 646 428 
C 646 184 621 153 211 153 
L 211 -13 
C 365 0 646 0 813 0 
C 979 0 1267 0 1421 -13 
L 1421 153 
C 1011 153 986 178 986 428 
L 986 1658 
C 986 2247 1344 2688 1792 2688 
C 2266 2688 2317 2266 2317 1958 
L 2317 428 
C 2317 184 2291 153 1882 153 
L 1882 -13 
C 2035 0 2317 0 2483 0 
C 2650 0 2938 0 3091 -13 
L 3091 153 
C 2682 153 2656 178 2656 428 
L 2656 1658 
C 2656 2247 3014 2688 3462 2688 
C 3936 2688 3987 2266 3987 1958 
L 3987 428 
C 3987 184 3962 153 3552 153 
L 3552 -13 
C 3706 0 3987 0 4154 0 
C 4320 0 4608 0 4762 -13 
L 4762 153 
C 4352 153 4326 178 4326 428 
L 4326 1933 
z
" id="CMR17-6d" transform="scale(0.015625)"/>
      <path d="M 1408 -1063 
C 998 -1063 973 -1037 973 -789 
L 973 402 
C 1158 134 1427 -38 1766 -38 
C 2406 -38 3053 523 3053 1388 
C 3053 2191 2496 2802 1837 2802 
C 1453 2802 1139 2592 960 2338 
L 960 2802 
L 198 2732 
L 198 2567 
C 576 2567 634 2528 634 2223 
L 634 -789 
C 634 -1031 608 -1063 198 -1063 
L 198 -1228 
C 352 -1216 634 -1216 800 -1216 
C 966 -1216 1254 -1216 1408 -1228 
L 1408 -1063 
z
M 973 2012 
C 973 2102 973 2235 1222 2471 
C 1254 2497 1472 2688 1792 2688 
C 2259 2688 2643 2108 2643 1382 
C 2643 656 2234 64 1728 64 
C 1498 64 1248 172 1056 472 
C 973 612 973 650 973 752 
L 973 2012 
z
" id="CMR17-70" transform="scale(0.015625)"/>
      <path d="M 2304 1653 
C 2304 2072 2304 2294 2035 2543 
C 1798 2752 1523 2816 1306 2816 
C 800 2816 435 2407 435 1971 
C 435 1728 627 1728 666 1728 
C 749 1728 896 1778 896 1954 
C 896 2112 774 2181 666 2181 
C 640 2181 608 2174 589 2168 
C 723 2592 1069 2714 1293 2714 
C 1613 2714 1965 2429 1965 1885 
L 1965 1600 
C 1587 1600 1133 1549 774 1357 
C 371 1133 256 813 256 570 
C 256 77 832 -64 1171 -64 
C 1523 -64 1850 139 1990 511 
C 2003 233 2182 -18 2464 -18 
C 2598 -18 2938 70 2938 567 
L 2938 920 
L 2822 920 
L 2822 562 
C 2822 178 2650 128 2566 128 
C 2304 128 2304 458 2304 738 
L 2304 1653 
z
M 1965 870 
C 1965 317 1568 38 1216 38 
C 896 38 646 275 646 570 
C 646 761 730 1100 1101 1305 
C 1408 1478 1760 1504 1965 1504 
L 1965 870 
z
" id="CMR17-61" transform="scale(0.015625)"/>
      <path d="M 960 1497 
C 960 2112 1222 2688 1702 2688 
C 1747 2688 1792 2682 1837 2662 
C 1837 2662 1696 2617 1696 2452 
C 1696 2298 1818 2234 1914 2234 
C 1990 2234 2131 2279 2131 2458 
C 2131 2663 1926 2790 1709 2790 
C 1222 2790 1011 2317 947 2093 
L 941 2093 
L 941 2790 
L 198 2720 
L 198 2554 
C 576 2554 634 2515 634 2208 
L 634 428 
C 634 184 608 153 198 153 
L 198 -13 
C 352 0 646 0 813 0 
C 998 0 1325 0 1498 -13 
L 1498 153 
C 1037 153 960 153 960 440 
L 960 1497 
z
" id="CMR17-72" transform="scale(0.015625)"/>
      <path d="M 992 3909 
C 992 4049 877 4170 730 4170 
C 589 4170 467 4056 467 3909 
C 467 3769 582 3648 730 3648 
C 870 3648 992 3763 992 3909 
z
M 243 2706 
L 243 2541 
C 602 2541 653 2502 653 2197 
L 653 427 
C 653 184 627 153 218 153 
L 218 -13 
C 371 0 646 0 806 0 
C 960 0 1222 0 1370 -13 
L 1370 153 
C 992 153 979 191 979 420 
L 979 2776 
L 243 2706 
z
" id="CMR17-69" transform="scale(0.015625)"/>
      <path d="M 1978 2697 
C 1978 2813 1971 2819 1933 2819 
C 1907 2819 1901 2813 1824 2717 
C 1805 2691 1747 2626 1728 2601 
C 1523 2819 1235 2819 1126 2819 
C 416 2819 160 2447 160 2076 
C 160 1498 813 1365 998 1325 
C 1402 1243 1542 1217 1677 1101 
C 1760 1025 1901 884 1901 654 
C 1901 384 1747 38 1158 38 
C 602 38 403 460 288 1021 
C 269 1110 269 1117 218 1117 
C 166 1117 160 1110 160 983 
L 160 63 
C 160 -51 166 -58 205 -58 
C 237 -58 243 -51 275 0 
C 314 57 410 211 448 276 
C 576 103 800 -64 1158 -64 
C 1792 -64 2131 283 2131 784 
C 2131 1112 1958 1285 1875 1362 
C 1683 1561 1459 1606 1190 1657 
C 838 1735 390 1825 390 2217 
C 390 2383 480 2737 1126 2737 
C 1811 2737 1850 2094 1862 1888 
C 1869 1856 1901 1849 1920 1849 
C 1978 1849 1978 1869 1978 1978 
L 1978 2697 
z
" id="CMR17-73" transform="scale(0.015625)"/>
      <path d="M 2656 1933 
C 2656 2259 2592 2790 1837 2790 
C 1331 2790 1069 2400 973 2144 
L 966 2144 
L 966 2790 
L 211 2720 
L 211 2554 
C 589 2554 646 2515 646 2208 
L 646 428 
C 646 184 621 153 211 153 
L 211 -13 
C 365 0 646 0 813 0 
C 979 0 1267 0 1421 -13 
L 1421 153 
C 1011 153 986 178 986 428 
L 986 1658 
C 986 2247 1344 2688 1792 2688 
C 2266 2688 2317 2266 2317 1958 
L 2317 428 
C 2317 184 2291 153 1882 153 
L 1882 -13 
C 2035 0 2317 0 2483 0 
C 2650 0 2938 0 3091 -13 
L 3091 153 
C 2682 153 2656 178 2656 428 
L 2656 1933 
z
" id="CMR17-6e" transform="scale(0.015625)"/>
      <path d="M 979 2560 
L 1709 2560 
L 1709 2725 
L 966 2725 
L 966 3494 
C 966 4022 1235 4352 1510 4352 
C 1594 4352 1690 4327 1754 4282 
C 1702 4269 1568 4225 1568 4067 
C 1568 3901 1696 3850 1786 3850 
C 1875 3850 2003 3901 2003 4067 
C 2003 4308 1773 4454 1517 4454 
C 1152 4454 653 4156 653 3481 
L 653 2725 
L 141 2725 
L 141 2560 
L 653 2560 
L 653 427 
C 653 184 627 153 218 153 
L 218 -13 
C 371 0 666 0 832 0 
C 1018 0 1344 0 1517 -13 
L 1517 153 
C 1056 153 979 153 979 439 
L 979 2560 
z
" id="CMR17-66" transform="scale(0.015625)"/>
      <path d="M 2234 2240 
C 2112 2240 1933 2240 1933 2017 
C 1933 1838 2080 1787 2163 1787 
C 2208 1787 2394 1807 2394 2024 
C 2394 2467 1958 2803 1466 2803 
C 787 2803 211 2178 211 1363 
C 211 516 813 -64 1466 -64 
C 2259 -64 2458 677 2458 748 
C 2458 774 2451 793 2406 793 
C 2362 793 2355 787 2330 703 
C 2163 180 1798 51 1523 51 
C 1114 51 621 427 621 1369 
C 621 2338 1094 2688 1472 2688 
C 1722 2688 2093 2573 2234 2240 
z
" id="CMR17-63" transform="scale(0.015625)"/>
      <path d="M 2656 1933 
C 2656 2259 2592 2790 1837 2790 
C 1312 2790 1056 2368 979 2157 
L 973 2157 
L 973 4396 
L 211 4326 
L 211 4160 
C 589 4160 646 4122 646 3817 
L 646 426 
C 646 184 621 153 211 153 
L 211 -13 
C 365 0 646 0 813 0 
C 979 0 1267 0 1421 -13 
L 1421 153 
C 1011 153 986 178 986 428 
L 986 1658 
C 986 2247 1344 2688 1792 2688 
C 2266 2688 2317 2266 2317 1958 
L 2317 428 
C 2317 184 2291 153 1882 153 
L 1882 -13 
C 2035 0 2317 0 2483 0 
C 2650 0 2938 0 3091 -13 
L 3091 153 
C 2682 153 2656 178 2656 428 
L 2656 1933 
z
" id="CMR17-68" transform="scale(0.015625)"/>
      <path d="M 3725 2183 
C 3853 2560 4109 2560 4205 2560 
L 4205 2732 
C 4077 2732 3949 2732 3821 2732 
C 3699 2732 3424 2732 3315 2738 
L 3315 2560 
C 3514 2560 3622 2445 3622 2286 
C 3622 2241 3610 2184 3597 2140 
L 2995 407 
L 2342 2275 
C 2330 2319 2310 2370 2310 2395 
C 2310 2560 2528 2560 2630 2560 
L 2630 2738 
C 2483 2732 2214 2732 2061 2732 
C 1901 2732 1734 2732 1587 2738 
L 1587 2560 
C 1939 2560 1939 2547 2074 2149 
L 1485 451 
L 851 2281 
C 819 2363 819 2376 819 2395 
C 819 2560 1037 2560 1139 2560 
L 1139 2738 
C 986 2732 717 2732 557 2732 
C 416 2732 198 2732 64 2738 
L 64 2560 
C 346 2560 416 2541 486 2331 
L 1274 49 
C 1299 -33 1318 -52 1370 -52 
C 1414 -52 1440 -39 1472 56 
L 2131 1980 
L 2797 56 
C 2829 -39 2854 -52 2899 -52 
C 2950 -52 2970 -33 2995 50 
L 3725 2183 
z
" id="CMR17-77" transform="scale(0.015625)"/>
      <path d="M 1882 2693 
L 1882 2528 
C 2259 2528 2317 2489 2317 2186 
L 2317 1032 
C 2317 500 2029 38 1555 38 
C 1030 38 986 348 986 678 
L 986 2763 
L 211 2693 
L 211 2528 
C 467 2528 640 2528 646 2274 
L 646 1058 
C 646 633 646 361 813 183 
C 896 101 1056 -64 1517 -64 
C 2061 -64 2272 377 2323 506 
L 2330 506 
L 2330 -63 
L 3091 -63 
L 3091 128 
C 2714 128 2656 166 2656 473 
L 2656 2763 
L 1882 2693 
z
" id="CMR17-75" transform="scale(0.015625)"/>
     </defs>
     <use transform="scale(0.996264)" xlink:href="#CMR17-43"/>
     <use transform="translate(66.509881 0)scale(0.996264)" xlink:href="#CMR17-6f"/>
     <use transform="translate(112.200358 0)scale(0.996264)" xlink:href="#CMR17-6d"/>
     <use transform="translate(189.119948 0)scale(0.996264)" xlink:href="#CMR17-70"/>
     <use transform="translate(240.015317 0)scale(0.996264)" xlink:href="#CMR17-61"/>
     <use transform="translate(285.705794 0)scale(0.996264)" xlink:href="#CMR17-72"/>
     <use transform="translate(320.986562 0)scale(0.996264)" xlink:href="#CMR17-69"/>
     <use transform="translate(345.857621 0)scale(0.996264)" xlink:href="#CMR17-73"/>
     <use transform="translate(381.658958 0)scale(0.996264)" xlink:href="#CMR17-6f"/>
     <use transform="translate(427.349435 0)scale(0.996264)" xlink:href="#CMR17-6e"/>
     <use transform="translate(508.320772 0)scale(0.996264)" xlink:href="#CMR17-6f"/>
     <use transform="translate(554.011249 0)scale(0.996264)" xlink:href="#CMR17-66"/>
     <use transform="translate(611.560727 0)scale(0.996264)" xlink:href="#CMR17-73"/>
     <use transform="translate(647.362065 0)scale(0.996264)" xlink:href="#CMR17-74"/>
     <use transform="translate(682.642833 0)scale(0.996264)" xlink:href="#CMR17-6f"/>
     <use transform="translate(730.935749 0)scale(0.996264)" xlink:href="#CMR17-63"/>
     <use transform="translate(768.818955 0)scale(0.996264)" xlink:href="#CMR17-68"/>
     <use transform="translate(819.714325 0)scale(0.996264)" xlink:href="#CMR17-61"/>
     <use transform="translate(865.404802 0)scale(0.996264)" xlink:href="#CMR17-73"/>
     <use transform="translate(901.20614 0)scale(0.996264)" xlink:href="#CMR17-74"/>
     <use transform="translate(936.486908 0)scale(0.996264)" xlink:href="#CMR17-69"/>
     <use transform="translate(961.357966 0)scale(0.996264)" xlink:href="#CMR17-63"/>
     <use transform="translate(1031.919593 0)scale(0.996264)" xlink:href="#CMR17-65"/>
     <use transform="translate(1072.405253 0)scale(0.996264)" xlink:href="#CMR17-73"/>
     <use transform="translate(1108.206591 0)scale(0.996264)" xlink:href="#CMR17-74"/>
     <use transform="translate(1143.487359 0)scale(0.996264)" xlink:href="#CMR17-69"/>
     <use transform="translate(1168.358417 0)scale(0.996264)" xlink:href="#CMR17-6d"/>
     <use transform="translate(1245.278007 0)scale(0.996264)" xlink:href="#CMR17-61"/>
     <use transform="translate(1290.968484 0)scale(0.996264)" xlink:href="#CMR17-74"/>
     <use transform="translate(1326.249252 0)scale(0.996264)" xlink:href="#CMR17-69"/>
     <use transform="translate(1351.120311 0)scale(0.996264)" xlink:href="#CMR17-6f"/>
     <use transform="translate(1396.810788 0)scale(0.996264)" xlink:href="#CMR17-6e"/>
     <use transform="translate(1477.782124 0)scale(0.996264)" xlink:href="#CMR17-77"/>
     <use transform="translate(1544.292004 0)scale(0.996264)" xlink:href="#CMR17-69"/>
     <use transform="translate(1569.163063 0)scale(0.996264)" xlink:href="#CMR17-74"/>
     <use transform="translate(1604.443831 0)scale(0.996264)" xlink:href="#CMR17-68"/>
     <use transform="translate(1685.415167 0)scale(0.996264)" xlink:href="#CMR17-64"/>
     <use transform="translate(1736.310537 0)scale(0.996264)" xlink:href="#CMR17-69"/>
     <use transform="translate(1761.181595 0)scale(0.996264)" xlink:href="#CMR17-72"/>
     <use transform="translate(1796.462363 0)scale(0.996264)" xlink:href="#CMR17-65"/>
     <use transform="translate(1836.948023 0)scale(0.996264)" xlink:href="#CMR17-63"/>
     <use transform="translate(1877.433684 0)scale(0.996264)" xlink:href="#CMR17-74"/>
     <use transform="translate(1942.790418 0)scale(0.996264)" xlink:href="#CMR17-73"/>
     <use transform="translate(1978.591756 0)scale(0.996264)" xlink:href="#CMR17-6f"/>
     <use transform="translate(2024.282233 0)scale(0.996264)" xlink:href="#CMR17-6c"/>
     <use transform="translate(2049.153291 0)scale(0.996264)" xlink:href="#CMR17-75"/>
     <use transform="translate(2100.048661 0)scale(0.996264)" xlink:href="#CMR17-74"/>
     <use transform="translate(2135.329429 0)scale(0.996264)" xlink:href="#CMR17-69"/>
     <use transform="translate(2160.200487 0)scale(0.996264)" xlink:href="#CMR17-6f"/>
     <use transform="translate(2205.890964 0)scale(0.996264)" xlink:href="#CMR17-6e"/>
    </g>
   </g>
   <g id="legend_1">
    <g id="patch_7">
     <path d="M 81.46116 66.663543 
L 173.191059 66.663543 
Q 175.590099 66.663543 175.590099 64.264503 
L 175.590099 32.028176 
Q 175.590099 29.629136 173.191059 29.629136 
L 81.46116 29.629136 
Q 79.06212 29.629136 79.06212 32.028176 
L 79.06212 64.264503 
Q 79.06212 66.663543 81.46116 66.663543 
z
" style="fill:#ffffff;opacity:0.8;stroke:#cccccc;stroke-linejoin:miter;"/>
    </g>
    <g id="line2d_63">
     <path d="M 83.8602 38.625536 
L 107.8506 38.625536 
" style="fill:none;stroke:#000000;stroke-linecap:round;stroke-width:1.5;"/>
    </g>
    <g id="line2d_64"/>
    <g id="text_14">
     <!-- Estimated -->
     <g style="fill:#262626;" transform="translate(117.44676 42.823856)scale(0.119952 -0.119952)">
      <defs>
       <path d="M 3885 1615 
L 3770 1615 
C 3629 676 3546 166 2419 166 
L 1530 166 
C 1274 166 1261 197 1261 414 
L 1261 2176 
L 1862 2176 
C 2464 2176 2522 1960 2522 1430 
L 2637 1430 
L 2637 3081 
L 2522 3081 
C 2522 2557 2464 2342 1862 2342 
L 1261 2342 
L 1261 3913 
C 1261 4128 1274 4160 1530 4160 
L 2406 4160 
C 3398 4160 3514 3769 3603 2929 
L 3718 2929 
L 3565 4325 
L 326 4325 
L 326 4160 
C 768 4160 838 4160 838 3874 
L 838 451 
C 838 166 768 166 326 166 
L 326 0 
L 3654 0 
L 3885 1615 
z
" id="CMR17-45" transform="scale(0.015625)"/>
      </defs>
      <use transform="scale(0.996264)" xlink:href="#CMR17-45"/>
      <use transform="translate(62.586301 0)scale(0.996264)" xlink:href="#CMR17-73"/>
      <use transform="translate(98.387638 0)scale(0.996264)" xlink:href="#CMR17-74"/>
      <use transform="translate(133.668406 0)scale(0.996264)" xlink:href="#CMR17-69"/>
      <use transform="translate(158.539464 0)scale(0.996264)" xlink:href="#CMR17-6d"/>
      <use transform="translate(235.459054 0)scale(0.996264)" xlink:href="#CMR17-61"/>
      <use transform="translate(281.149531 0)scale(0.996264)" xlink:href="#CMR17-74"/>
      <use transform="translate(316.430299 0)scale(0.996264)" xlink:href="#CMR17-65"/>
      <use transform="translate(356.91596 0)scale(0.996264)" xlink:href="#CMR17-64"/>
     </g>
    </g>
    <g id="line2d_65">
     <path d="M 83.8602 55.343459 
L 107.8506 55.343459 
" style="fill:none;stroke:#800000;stroke-linecap:round;stroke-width:1.5;"/>
    </g>
    <g id="line2d_66"/>
    <g id="text_15">
     <!-- Exact -->
     <g style="fill:#262626;" transform="translate(117.44676 59.541779)scale(0.119952 -0.119952)">
      <defs>
       <path d="M 1664 1477 
C 1856 1726 2074 2006 2253 2216 
C 2464 2458 2707 2560 2989 2560 
L 2989 2726 
C 2880 2726 2656 2726 2541 2726 
C 2368 2726 2170 2726 2022 2732 
L 2022 2566 
C 2112 2553 2163 2489 2163 2400 
C 2163 2285 2099 2215 2067 2171 
L 1594 1573 
L 1030 2306 
C 973 2376 973 2388 973 2420 
C 973 2497 1037 2560 1146 2560 
L 1146 2732 
C 992 2726 717 2726 557 2726 
C 384 2726 179 2726 38 2732 
L 38 2560 
C 384 2560 461 2534 614 2343 
L 1350 1395 
C 1363 1382 1395 1344 1395 1325 
C 1395 1299 838 619 768 530 
C 480 185 179 160 6 160 
L 6 0 
C 115 0 339 0 454 0 
C 582 0 864 0 979 -6 
L 979 160 
C 941 166 838 179 838 325 
C 838 440 890 510 947 586 
L 1478 1236 
L 2035 512 
C 2086 442 2163 346 2163 301 
C 2163 211 2086 160 1984 160 
L 1984 -6 
C 2138 0 2413 0 2573 0 
C 2746 0 2950 0 3091 -6 
L 3091 160 
C 2771 160 2675 172 2522 370 
L 1664 1477 
z
" id="CMR17-78" transform="scale(0.015625)"/>
      </defs>
      <use transform="scale(0.996264)" xlink:href="#CMR17-45"/>
      <use transform="translate(62.586301 0)scale(0.996264)" xlink:href="#CMR17-78"/>
      <use transform="translate(110.879216 0)scale(0.996264)" xlink:href="#CMR17-61"/>
      <use transform="translate(156.569693 0)scale(0.996264)" xlink:href="#CMR17-63"/>
      <use transform="translate(197.055354 0)scale(0.996264)" xlink:href="#CMR17-74"/>
     </g>
    </g>
   </g>
  </g>
  <g id="axes_2">
   <g id="matplotlib.axis_3">
    <g id="ytick_6">
     <g id="line2d_67">
      <defs>
       <path d="M 0 0 
L 6 0 
" id="ma7ad6f2cdd" style="stroke:#262626;stroke-width:1.25;"/>
      </defs>
      <g>
       <use style="fill:#262626;stroke:#262626;stroke-width:1.25;" x="417.649575" xlink:href="#ma7ad6f2cdd" y="262.970717"/>
      </g>
     </g>
     <g id="text_16">
      <!-- $10^{-5}\%$ -->
      <g style="fill:#262626;" transform="translate(427.149575 267.536915)scale(0.132 -0.132)">
       <defs>
        <path d="M 730 3692 
C 794 3666 1056 3584 1325 3584 
C 1920 3584 2246 3911 2432 4100 
C 2432 4157 2432 4192 2394 4192 
C 2387 4192 2374 4192 2323 4163 
C 2099 4058 1837 3973 1517 3973 
C 1325 3973 1037 3999 723 4139 
C 653 4171 640 4171 634 4171 
C 602 4171 595 4164 595 4037 
L 595 2203 
C 595 2089 595 2057 659 2057 
C 691 2057 704 2070 736 2114 
C 941 2401 1222 2522 1542 2522 
C 1766 2522 2246 2382 2246 1289 
C 2246 1085 2246 715 2054 421 
C 1894 159 1645 25 1370 25 
C 947 25 518 320 403 814 
C 429 807 480 795 506 795 
C 589 795 749 840 749 1038 
C 749 1210 627 1280 506 1280 
C 358 1280 262 1190 262 1011 
C 262 454 704 -128 1382 -128 
C 2042 -128 2669 440 2669 1264 
C 2669 2030 2170 2624 1549 2624 
C 1222 2624 947 2503 730 2274 
L 730 3692 
z
" id="CMR17-35" transform="scale(0.015625)"/>
        <path d="M 4640 959 
C 4640 1698 4275 2240 3846 2240 
C 3411 2240 2970 1736 2970 959 
C 2970 183 3405 -320 3846 -320 
C 4275 -320 4640 215 4640 959 
z
M 3853 -218 
C 3686 -218 3270 -66 3270 959 
C 3270 1991 3686 2138 3853 2138 
C 4205 2138 4525 1634 4525 959 
C 4525 285 4205 -218 3853 -218 
z
M 4083 4577 
C 4128 4647 4134 4653 4134 4685 
C 4134 4761 4077 4800 4026 4800 
C 3962 4800 3936 4756 3891 4706 
C 3520 4190 3008 4134 2746 4134 
C 2106 4134 1715 4494 1594 4607 
C 1510 4682 1389 4800 1171 4800 
C 736 4800 294 4296 294 3519 
C 294 2743 730 2240 1171 2240 
C 1600 2240 1965 2778 1965 3527 
C 1965 3969 1830 4270 1811 4308 
C 2202 4064 2586 4032 2752 4032 
C 3162 4032 3456 4183 3616 4289 
L 3622 4283 
L 858 -84 
C 800 -174 800 -187 800 -206 
C 800 -276 858 -320 915 -320 
C 973 -320 992 -289 1037 -218 
L 4083 4577 
z
M 1178 2342 
C 1011 2342 595 2494 595 3519 
C 595 4551 1011 4698 1178 4698 
C 1530 4698 1850 4194 1850 3519 
C 1850 2845 1530 2342 1178 2342 
z
" id="CMR17-25" transform="scale(0.015625)"/>
       </defs>
       <use transform="scale(0.996264)" xlink:href="#CMR17-31"/>
       <use transform="translate(45.690477 0)scale(0.996264)" xlink:href="#CMR17-30"/>
       <use transform="translate(91.380954 36.153639)scale(0.697382)" xlink:href="#CMSY10-0"/>
       <use transform="translate(145.621947 36.153639)scale(0.697382)" xlink:href="#CMR17-35"/>
       <use transform="translate(178.103261 0)scale(0.996264)" xlink:href="#CMR17-25"/>
      </g>
     </g>
    </g>
    <g id="ytick_7">
     <g id="line2d_68">
      <g>
       <use style="fill:#262626;stroke:#262626;stroke-width:1.25;" x="417.649575" xlink:href="#ma7ad6f2cdd" y="197.121977"/>
      </g>
     </g>
     <g id="text_17">
      <!-- $10^{-4}\%$ -->
      <g style="fill:#262626;" transform="translate(427.149575 201.688174)scale(0.132 -0.132)">
       <use transform="scale(0.996264)" xlink:href="#CMR17-31"/>
       <use transform="translate(45.690477 0)scale(0.996264)" xlink:href="#CMR17-30"/>
       <use transform="translate(91.380954 36.153639)scale(0.697382)" xlink:href="#CMSY10-0"/>
       <use transform="translate(145.621947 36.153639)scale(0.697382)" xlink:href="#CMR17-34"/>
       <use transform="translate(178.103261 0)scale(0.996264)" xlink:href="#CMR17-25"/>
      </g>
     </g>
    </g>
    <g id="ytick_8">
     <g id="line2d_69">
      <g>
       <use style="fill:#262626;stroke:#262626;stroke-width:1.25;" x="417.649575" xlink:href="#ma7ad6f2cdd" y="131.273236"/>
      </g>
     </g>
     <g id="text_18">
      <!-- $10^{-3}\%$ -->
      <g style="fill:#262626;" transform="translate(427.149575 135.839434)scale(0.132 -0.132)">
       <use transform="scale(0.996264)" xlink:href="#CMR17-31"/>
       <use transform="translate(45.690477 0)scale(0.996264)" xlink:href="#CMR17-30"/>
       <use transform="translate(91.380954 36.153639)scale(0.697382)" xlink:href="#CMSY10-0"/>
       <use transform="translate(145.621947 36.153639)scale(0.697382)" xlink:href="#CMR17-33"/>
       <use transform="translate(178.103261 0)scale(0.996264)" xlink:href="#CMR17-25"/>
      </g>
     </g>
    </g>
    <g id="ytick_9">
     <g id="line2d_70">
      <g>
       <use style="fill:#262626;stroke:#262626;stroke-width:1.25;" x="417.649575" xlink:href="#ma7ad6f2cdd" y="65.424496"/>
      </g>
     </g>
     <g id="text_19">
      <!-- $10^{-2}\%$ -->
      <g style="fill:#262626;" transform="translate(427.149575 69.990693)scale(0.132 -0.132)">
       <use transform="scale(0.996264)" xlink:href="#CMR17-31"/>
       <use transform="translate(45.690477 0)scale(0.996264)" xlink:href="#CMR17-30"/>
       <use transform="translate(91.380954 36.153639)scale(0.697382)" xlink:href="#CMSY10-0"/>
       <use transform="translate(145.621947 36.153639)scale(0.697382)" xlink:href="#CMR17-32"/>
       <use transform="translate(178.103261 0)scale(0.996264)" xlink:href="#CMR17-25"/>
      </g>
     </g>
    </g>
    <g id="ytick_10">
     <g id="line2d_71">
      <defs>
       <path d="M 0 0 
L 4 0 
" id="me3a25448f0" style="stroke:#262626;"/>
      </defs>
      <g>
       <use style="fill:#262626;stroke:#262626;" x="417.649575" xlink:href="#me3a25448f0" y="297.401624"/>
      </g>
     </g>
    </g>
    <g id="ytick_11">
     <g id="line2d_72">
      <g>
       <use style="fill:#262626;stroke:#262626;" x="417.649575" xlink:href="#me3a25448f0" y="289.174566"/>
      </g>
     </g>
    </g>
    <g id="ytick_12">
     <g id="line2d_73">
      <g>
       <use style="fill:#262626;stroke:#262626;" x="417.649575" xlink:href="#me3a25448f0" y="282.793163"/>
      </g>
     </g>
    </g>
    <g id="ytick_13">
     <g id="line2d_74">
      <g>
       <use style="fill:#262626;stroke:#262626;" x="417.649575" xlink:href="#me3a25448f0" y="277.579178"/>
      </g>
     </g>
    </g>
    <g id="ytick_14">
     <g id="line2d_75">
      <g>
       <use style="fill:#262626;stroke:#262626;" x="417.649575" xlink:href="#me3a25448f0" y="273.170816"/>
      </g>
     </g>
    </g>
    <g id="ytick_15">
     <g id="line2d_76">
      <g>
       <use style="fill:#262626;stroke:#262626;" x="417.649575" xlink:href="#me3a25448f0" y="269.35212"/>
      </g>
     </g>
    </g>
    <g id="ytick_16">
     <g id="line2d_77">
      <g>
       <use style="fill:#262626;stroke:#262626;" x="417.649575" xlink:href="#me3a25448f0" y="265.98379"/>
      </g>
     </g>
    </g>
    <g id="ytick_17">
     <g id="line2d_78">
      <g>
       <use style="fill:#262626;stroke:#262626;" x="417.649575" xlink:href="#me3a25448f0" y="243.148271"/>
      </g>
     </g>
    </g>
    <g id="ytick_18">
     <g id="line2d_79">
      <g>
       <use style="fill:#262626;stroke:#262626;" x="417.649575" xlink:href="#me3a25448f0" y="231.552884"/>
      </g>
     </g>
    </g>
    <g id="ytick_19">
     <g id="line2d_80">
      <g>
       <use style="fill:#262626;stroke:#262626;" x="417.649575" xlink:href="#me3a25448f0" y="223.325825"/>
      </g>
     </g>
    </g>
    <g id="ytick_20">
     <g id="line2d_81">
      <g>
       <use style="fill:#262626;stroke:#262626;" x="417.649575" xlink:href="#me3a25448f0" y="216.944423"/>
      </g>
     </g>
    </g>
    <g id="ytick_21">
     <g id="line2d_82">
      <g>
       <use style="fill:#262626;stroke:#262626;" x="417.649575" xlink:href="#me3a25448f0" y="211.730437"/>
      </g>
     </g>
    </g>
    <g id="ytick_22">
     <g id="line2d_83">
      <g>
       <use style="fill:#262626;stroke:#262626;" x="417.649575" xlink:href="#me3a25448f0" y="207.322076"/>
      </g>
     </g>
    </g>
    <g id="ytick_23">
     <g id="line2d_84">
      <g>
       <use style="fill:#262626;stroke:#262626;" x="417.649575" xlink:href="#me3a25448f0" y="203.503379"/>
      </g>
     </g>
    </g>
    <g id="ytick_24">
     <g id="line2d_85">
      <g>
       <use style="fill:#262626;stroke:#262626;" x="417.649575" xlink:href="#me3a25448f0" y="200.13505"/>
      </g>
     </g>
    </g>
    <g id="ytick_25">
     <g id="line2d_86">
      <g>
       <use style="fill:#262626;stroke:#262626;" x="417.649575" xlink:href="#me3a25448f0" y="177.299531"/>
      </g>
     </g>
    </g>
    <g id="ytick_26">
     <g id="line2d_87">
      <g>
       <use style="fill:#262626;stroke:#262626;" x="417.649575" xlink:href="#me3a25448f0" y="165.704143"/>
      </g>
     </g>
    </g>
    <g id="ytick_27">
     <g id="line2d_88">
      <g>
       <use style="fill:#262626;stroke:#262626;" x="417.649575" xlink:href="#me3a25448f0" y="157.477085"/>
      </g>
     </g>
    </g>
    <g id="ytick_28">
     <g id="line2d_89">
      <g>
       <use style="fill:#262626;stroke:#262626;" x="417.649575" xlink:href="#me3a25448f0" y="151.095682"/>
      </g>
     </g>
    </g>
    <g id="ytick_29">
     <g id="line2d_90">
      <g>
       <use style="fill:#262626;stroke:#262626;" x="417.649575" xlink:href="#me3a25448f0" y="145.881697"/>
      </g>
     </g>
    </g>
    <g id="ytick_30">
     <g id="line2d_91">
      <g>
       <use style="fill:#262626;stroke:#262626;" x="417.649575" xlink:href="#me3a25448f0" y="141.473335"/>
      </g>
     </g>
    </g>
    <g id="ytick_31">
     <g id="line2d_92">
      <g>
       <use style="fill:#262626;stroke:#262626;" x="417.649575" xlink:href="#me3a25448f0" y="137.654639"/>
      </g>
     </g>
    </g>
    <g id="ytick_32">
     <g id="line2d_93">
      <g>
       <use style="fill:#262626;stroke:#262626;" x="417.649575" xlink:href="#me3a25448f0" y="134.286309"/>
      </g>
     </g>
    </g>
    <g id="ytick_33">
     <g id="line2d_94">
      <g>
       <use style="fill:#262626;stroke:#262626;" x="417.649575" xlink:href="#me3a25448f0" y="111.45079"/>
      </g>
     </g>
    </g>
    <g id="ytick_34">
     <g id="line2d_95">
      <g>
       <use style="fill:#262626;stroke:#262626;" x="417.649575" xlink:href="#me3a25448f0" y="99.855402"/>
      </g>
     </g>
    </g>
    <g id="ytick_35">
     <g id="line2d_96">
      <g>
       <use style="fill:#262626;stroke:#262626;" x="417.649575" xlink:href="#me3a25448f0" y="91.628344"/>
      </g>
     </g>
    </g>
    <g id="ytick_36">
     <g id="line2d_97">
      <g>
       <use style="fill:#262626;stroke:#262626;" x="417.649575" xlink:href="#me3a25448f0" y="85.246942"/>
      </g>
     </g>
    </g>
    <g id="ytick_37">
     <g id="line2d_98">
      <g>
       <use style="fill:#262626;stroke:#262626;" x="417.649575" xlink:href="#me3a25448f0" y="80.032956"/>
      </g>
     </g>
    </g>
    <g id="ytick_38">
     <g id="line2d_99">
      <g>
       <use style="fill:#262626;stroke:#262626;" x="417.649575" xlink:href="#me3a25448f0" y="75.624595"/>
      </g>
     </g>
    </g>
    <g id="ytick_39">
     <g id="line2d_100">
      <g>
       <use style="fill:#262626;stroke:#262626;" x="417.649575" xlink:href="#me3a25448f0" y="71.805898"/>
      </g>
     </g>
    </g>
    <g id="ytick_40">
     <g id="line2d_101">
      <g>
       <use style="fill:#262626;stroke:#262626;" x="417.649575" xlink:href="#me3a25448f0" y="68.437569"/>
      </g>
     </g>
    </g>
    <g id="ytick_41">
     <g id="line2d_102">
      <g>
       <use style="fill:#262626;stroke:#262626;" x="417.649575" xlink:href="#me3a25448f0" y="45.60205"/>
      </g>
     </g>
    </g>
    <g id="ytick_42">
     <g id="line2d_103">
      <g>
       <use style="fill:#262626;stroke:#262626;" x="417.649575" xlink:href="#me3a25448f0" y="34.006662"/>
      </g>
     </g>
    </g>
    <g id="ytick_43">
     <g id="line2d_104">
      <g>
       <use style="fill:#262626;stroke:#262626;" x="417.649575" xlink:href="#me3a25448f0" y="25.779604"/>
      </g>
     </g>
    </g>
    <g id="text_20">
     <!-- Relative error -->
     <g style="fill:#262626;" transform="translate(477.306473 202.896243)rotate(-90)scale(0.144 -0.144)">
      <defs>
       <path d="M 2509 2146 
C 3117 2268 3629 2676 3629 3186 
C 3629 3785 2950 4326 2054 4326 
L 333 4326 
L 333 4160 
C 774 4160 845 4160 845 3873 
L 845 415 
C 845 128 774 128 333 128 
L 333 -26 
C 518 -26 851 -26 1050 -26 
C 1248 -26 1581 -26 1766 -26 
L 1766 128 
C 1325 128 1254 128 1254 417 
L 1254 2112 
L 2003 2112 
C 2368 2112 2573 1964 2662 1881 
C 2918 1632 2918 1459 2918 1024 
C 2918 595 2918 377 3110 160 
C 3354 -102 3680 -128 3821 -128 
C 4294 -128 4365 396 4365 503 
C 4365 540 4365 585 4307 585 
C 4256 585 4250 547 4250 522 
C 4218 112 4032 -26 3834 -26 
C 3482 -26 3443 375 3405 764 
C 3386 898 3373 993 3360 1133 
C 3322 1452 3270 1917 2509 2146 
z
M 1984 2214 
L 1254 2214 
L 1254 3913 
C 1254 4129 1267 4160 1523 4160 
L 1990 4160 
C 2522 4160 3142 3977 3142 3190 
C 3142 2372 2464 2214 1984 2214 
z
" id="CMR17-52" transform="scale(0.015625)"/>
       <path d="M 2502 2163 
C 2560 2304 2662 2560 3034 2560 
L 3034 2726 
C 2912 2726 2752 2726 2630 2726 
C 2496 2726 2285 2726 2157 2732 
L 2157 2566 
C 2317 2553 2406 2477 2406 2311 
C 2406 2253 2406 2240 2368 2151 
L 1664 377 
L 902 2286 
C 864 2369 864 2381 864 2407 
C 864 2560 1075 2560 1171 2560 
L 1171 2732 
C 1018 2726 736 2726 576 2726 
C 403 2726 205 2726 64 2732 
L 64 2560 
C 307 2560 442 2560 518 2362 
L 1446 44 
C 1485 -51 1491 -64 1549 -64 
C 1606 -64 1613 -51 1651 44 
L 2502 2163 
z
" id="CMR17-76" transform="scale(0.015625)"/>
      </defs>
      <use transform="scale(0.996264)" xlink:href="#CMR17-52"/>
      <use transform="translate(67.791102 0)scale(0.996264)" xlink:href="#CMR17-65"/>
      <use transform="translate(108.276762 0)scale(0.996264)" xlink:href="#CMR17-6c"/>
      <use transform="translate(133.147821 0)scale(0.996264)" xlink:href="#CMR17-61"/>
      <use transform="translate(178.838298 0)scale(0.996264)" xlink:href="#CMR17-74"/>
      <use transform="translate(214.119066 0)scale(0.996264)" xlink:href="#CMR17-69"/>
      <use transform="translate(238.990124 0)scale(0.996264)" xlink:href="#CMR17-76"/>
      <use transform="translate(284.680586 0)scale(0.996264)" xlink:href="#CMR17-65"/>
      <use transform="translate(355.242213 0)scale(0.996264)" xlink:href="#CMR17-65"/>
      <use transform="translate(395.727874 0)scale(0.996264)" xlink:href="#CMR17-72"/>
      <use transform="translate(431.008641 0)scale(0.996264)" xlink:href="#CMR17-72"/>
      <use transform="translate(466.289409 0)scale(0.996264)" xlink:href="#CMR17-6f"/>
      <use transform="translate(511.979886 0)scale(0.996264)" xlink:href="#CMR17-72"/>
     </g>
    </g>
   </g>
   <g id="line2d_105">
    <path clip-path="url(#pb1c2db1237)" d="M 73.06452 233.704116 
L 80.096868 237.445438 
L 87.129216 243.301851 
L 94.161564 253.544278 
L 101.193912 277.70272 
L 108.226261 285.654766 
L 115.258609 245.510193 
L 122.290957 225.72376 
L 129.323305 211.23347 
L 136.355653 199.172012 
L 143.388001 188.477023 
L 150.420349 178.642566 
L 157.452697 169.393995 
L 164.485045 160.571704 
L 171.517393 152.081229 
L 178.549741 143.869185 
L 185.582089 135.910799 
L 192.614437 128.203152 
L 199.646785 120.761412 
L 206.679133 113.616532 
L 213.711481 106.813478 
L 220.743829 100.409286 
L 227.776177 94.470415 
L 234.808525 89.069141 
L 241.840873 84.278965 
L 248.873222 80.169384 
L 255.90557 76.800571 
L 262.937918 74.218586 
L 269.970266 35.662251 
L 277.002614 37.265758 
L 284.034962 39.295083 
L 291.06731 41.780825 
L 298.099658 44.742464 
L 305.132006 48.190593 
L 312.164354 52.129842 
L 319.196702 56.561194 
L 326.22905 47.381936 
L 333.261398 52.965304 
L 340.293746 59.00832 
L 347.326094 65.495129 
L 354.358442 72.40161 
L 361.39079 79.695401 
L 368.423138 87.336983 
L 375.455486 95.28176 
L 382.487834 103.482785 
L 389.520183 126.321479 
L 396.552531 134.921857 
L 403.584879 143.643225 
L 410.617227 152.454152 
L 417.649575 161.328428 
" style="fill:none;stroke:#000000;stroke-dasharray:5.55,2.4;stroke-dashoffset:0;stroke-width:1.5;"/>
   </g>
   <g id="patch_8">
    <path d="M 73.06452 298.154392 
L 73.06452 23.162625 
" style="fill:none;stroke:#262626;stroke-linecap:square;stroke-linejoin:miter;stroke-width:1.25;"/>
   </g>
   <g id="patch_9">
    <path d="M 417.649575 298.154392 
L 417.649575 23.162625 
" style="fill:none;stroke:#262626;stroke-linecap:square;stroke-linejoin:miter;stroke-width:1.25;"/>
   </g>
   <g id="patch_10">
    <path d="M 73.06452 298.154392 
L 417.649575 298.154392 
" style="fill:none;stroke:#262626;stroke-linecap:square;stroke-linejoin:miter;stroke-width:1.25;"/>
   </g>
   <g id="patch_11">
    <path d="M 73.06452 23.162625 
L 417.649575 23.162625 
" style="fill:none;stroke:#262626;stroke-linecap:square;stroke-linejoin:miter;stroke-width:1.25;"/>
   </g>
   <g id="legend_2">
    <g id="patch_12">
     <path d="M 81.46116 93.475391 
L 191.813774 93.475391 
Q 194.212814 93.475391 194.212814 91.076351 
L 194.212814 75.557948 
Q 194.212814 73.158908 191.813774 73.158908 
L 81.46116 73.158908 
Q 79.06212 73.158908 79.06212 75.557948 
L 79.06212 91.076351 
Q 79.06212 93.475391 81.46116 93.475391 
z
" style="fill:#ffffff;opacity:0.8;stroke:#cccccc;stroke-linejoin:miter;"/>
    </g>
    <g id="line2d_106">
     <path d="M 83.8602 82.155308 
L 107.8506 82.155308 
" style="fill:none;stroke:#000000;stroke-dasharray:5.55,2.4;stroke-dashoffset:0;stroke-width:1.5;"/>
    </g>
    <g id="line2d_107"/>
    <g id="text_21">
     <!-- Relative error -->
     <g style="fill:#262626;" transform="translate(117.44676 86.353628)scale(0.119952 -0.119952)">
      <use transform="scale(0.996264)" xlink:href="#CMR17-52"/>
      <use transform="translate(67.791102 0)scale(0.996264)" xlink:href="#CMR17-65"/>
      <use transform="translate(108.276762 0)scale(0.996264)" xlink:href="#CMR17-6c"/>
      <use transform="translate(133.147821 0)scale(0.996264)" xlink:href="#CMR17-61"/>
      <use transform="translate(178.838298 0)scale(0.996264)" xlink:href="#CMR17-74"/>
      <use transform="translate(214.119066 0)scale(0.996264)" xlink:href="#CMR17-69"/>
      <use transform="translate(238.990124 0)scale(0.996264)" xlink:href="#CMR17-76"/>
      <use transform="translate(284.680586 0)scale(0.996264)" xlink:href="#CMR17-65"/>
      <use transform="translate(355.242213 0)scale(0.996264)" xlink:href="#CMR17-65"/>
      <use transform="translate(395.727874 0)scale(0.996264)" xlink:href="#CMR17-72"/>
      <use transform="translate(431.008641 0)scale(0.996264)" xlink:href="#CMR17-72"/>
      <use transform="translate(466.289409 0)scale(0.996264)" xlink:href="#CMR17-6f"/>
      <use transform="translate(511.979886 0)scale(0.996264)" xlink:href="#CMR17-72"/>
     </g>
    </g>
   </g>
  </g>
 </g>
 <defs>
  <clipPath id="pb1c2db1237">
   <rect height="274.991767" width="344.585054" x="73.06452" y="23.162625"/>
  </clipPath>
 </defs>
</svg>
