<?xml version="1.0" encoding="utf-8" standalone="no"?>
<!DOCTYPE svg PUBLIC "-//W3C//DTD SVG 1.1//EN"
  "http://www.w3.org/Graphics/SVG/1.1/DTD/svg11.dtd">
<svg height="343.296pt" version="1.1" viewBox="0 0 487.296 343.296" width="487.296pt" xmlns="http://www.w3.org/2000/svg" xmlns:xlink="http://www.w3.org/1999/xlink">
 <metadata>
  <rdf:RDF xmlns:cc="http://creativecommons.org/ns#" xmlns:dc="http://purl.org/dc/elements/1.1/" xmlns:rdf="http://www.w3.org/1999/02/22-rdf-syntax-ns#">
   <cc:Work>
    <dc:type rdf:resource="http://purl.org/dc/dcmitype/StillImage"/>
    <dc:date>2021-08-22T21:19:13.380954</dc:date>
    <dc:format>image/svg+xml</dc:format>
    <dc:creator>
     <cc:Agent>
      <dc:title>Matplotlib v3.4.2, https://matplotlib.org/</dc:title>
     </cc:Agent>
    </dc:creator>
   </cc:Work>
  </rdf:RDF>
 </metadata>
 <defs>
  <style type="text/css">*{stroke-linecap:butt;stroke-linejoin:round;}</style>
 </defs>
 <g id="figure_1">
  <g id="patch_1">
   <path d="M 0 343.296 
L 487.296 343.296 
L 487.296 0 
L 0 0 
z
" style="fill:none;"/>
  </g>
  <g id="axes_1">
   <g id="patch_2">
    <path d="M 53.520086 298.154392 
L 417.649575 298.154392 
L 417.649575 24.826475 
L 53.520086 24.826475 
z
" style="fill:none;"/>
   </g>
   <g id="matplotlib.axis_1">
    <g id="xtick_1">
     <g id="line2d_1">
      <defs>
       <path d="M 0 0 
L 0 6 
" id="mcd3b7b45ce" style="stroke:#262626;stroke-width:1.25;"/>
      </defs>
      <g>
       <use style="fill:#262626;stroke:#262626;stroke-width:1.25;" x="53.520086" xlink:href="#mcd3b7b45ce" y="298.154392"/>
      </g>
     </g>
     <g id="text_1">
      <!-- $\mathdefault{10^{-3}}$ -->
      <g style="fill:#262626;" transform="translate(41.037249 316.786787)scale(0.132 -0.132)">
       <defs>
        <path d="M 1702 4058 
C 1702 4192 1696 4192 1606 4192 
C 1357 3916 979 3827 621 3827 
C 602 3827 570 3827 563 3808 
C 557 3795 557 3782 557 3648 
C 755 3648 1088 3686 1344 3839 
L 1344 461 
C 1344 236 1331 160 781 160 
L 589 160 
L 589 0 
C 896 0 1216 0 1523 0 
C 1830 0 2150 0 2458 0 
L 2458 160 
L 2266 160 
C 1715 160 1702 230 1702 458 
L 1702 4058 
z
" id="CMR17-31" transform="scale(0.015625)"/>
        <path d="M 2688 2025 
C 2688 2416 2682 3080 2413 3591 
C 2176 4039 1798 4198 1466 4198 
C 1158 4198 768 4058 525 3597 
C 269 3118 243 2524 243 2025 
C 243 1661 250 1106 448 619 
C 723 -39 1216 -128 1466 -128 
C 1760 -128 2208 -7 2470 600 
C 2662 1042 2688 1559 2688 2025 
z
M 1466 -26 
C 1056 -26 813 325 723 812 
C 653 1188 653 1738 653 2096 
C 653 2588 653 2997 736 3387 
C 858 3929 1216 4096 1466 4096 
C 1728 4096 2067 3923 2189 3400 
C 2272 3036 2278 2607 2278 2096 
C 2278 1680 2278 1169 2202 792 
C 2067 95 1690 -26 1466 -26 
z
" id="CMR17-30" transform="scale(0.015625)"/>
        <path d="M 4218 1472 
C 4326 1472 4442 1472 4442 1600 
C 4442 1728 4326 1728 4218 1728 
L 755 1728 
C 646 1728 531 1728 531 1600 
C 531 1472 646 1472 755 1472 
L 4218 1472 
z
" id="CMSY10-0" transform="scale(0.015625)"/>
        <path d="M 1414 2157 
C 1984 2157 2234 1662 2234 1090 
C 2234 320 1824 25 1453 25 
C 1114 25 563 194 390 693 
C 422 680 454 680 486 680 
C 640 680 755 782 755 948 
C 755 1133 614 1216 486 1216 
C 378 1216 211 1165 211 926 
C 211 335 787 -128 1466 -128 
C 2176 -128 2720 430 2720 1085 
C 2720 1707 2208 2157 1600 2227 
C 2086 2328 2554 2756 2554 3329 
C 2554 3820 2048 4179 1472 4179 
C 890 4179 378 3829 378 3329 
C 378 3110 544 3072 627 3072 
C 762 3072 877 3155 877 3321 
C 877 3486 762 3569 627 3569 
C 602 3569 570 3569 544 3557 
C 730 3959 1235 4032 1459 4032 
C 1683 4032 2106 3925 2106 3320 
C 2106 3143 2080 2828 1862 2550 
C 1670 2304 1453 2304 1242 2284 
C 1210 2284 1062 2269 1037 2269 
C 992 2263 966 2257 966 2208 
C 966 2163 973 2157 1101 2157 
L 1414 2157 
z
" id="CMR17-33" transform="scale(0.015625)"/>
       </defs>
       <use transform="scale(0.996264)" xlink:href="#CMR17-31"/>
       <use transform="translate(45.690477 0)scale(0.996264)" xlink:href="#CMR17-30"/>
       <use transform="translate(91.380954 36.153639)scale(0.697382)" xlink:href="#CMSY10-0"/>
       <use transform="translate(145.621947 36.153639)scale(0.697382)" xlink:href="#CMR17-33"/>
      </g>
     </g>
    </g>
    <g id="xtick_2">
     <g id="line2d_2">
      <g>
       <use style="fill:#262626;stroke:#262626;stroke-width:1.25;" x="114.208334" xlink:href="#mcd3b7b45ce" y="298.154392"/>
      </g>
     </g>
     <g id="text_2">
      <!-- $\mathdefault{10^{-2}}$ -->
      <g style="fill:#262626;" transform="translate(101.725497 316.786787)scale(0.132 -0.132)">
       <defs>
        <path d="M 2669 989 
L 2554 989 
C 2490 536 2438 459 2413 420 
C 2381 369 1920 369 1830 369 
L 602 369 
C 832 619 1280 1072 1824 1597 
C 2214 1967 2669 2402 2669 3035 
C 2669 3790 2067 4224 1395 4224 
C 691 4224 262 3604 262 3030 
C 262 2780 448 2748 525 2748 
C 589 2748 781 2787 781 3010 
C 781 3207 614 3264 525 3264 
C 486 3264 448 3258 422 3245 
C 544 3790 915 4058 1306 4058 
C 1862 4058 2227 3617 2227 3035 
C 2227 2479 1901 2000 1536 1584 
L 262 146 
L 262 0 
L 2515 0 
L 2669 989 
z
" id="CMR17-32" transform="scale(0.015625)"/>
       </defs>
       <use transform="scale(0.996264)" xlink:href="#CMR17-31"/>
       <use transform="translate(45.690477 0)scale(0.996264)" xlink:href="#CMR17-30"/>
       <use transform="translate(91.380954 36.153639)scale(0.697382)" xlink:href="#CMSY10-0"/>
       <use transform="translate(145.621947 36.153639)scale(0.697382)" xlink:href="#CMR17-32"/>
      </g>
     </g>
    </g>
    <g id="xtick_3">
     <g id="line2d_3">
      <g>
       <use style="fill:#262626;stroke:#262626;stroke-width:1.25;" x="174.896582" xlink:href="#mcd3b7b45ce" y="298.154392"/>
      </g>
     </g>
     <g id="text_3">
      <!-- $\mathdefault{10^{-1}}$ -->
      <g style="fill:#262626;" transform="translate(162.413745 316.786787)scale(0.132 -0.132)">
       <use transform="scale(0.996264)" xlink:href="#CMR17-31"/>
       <use transform="translate(45.690477 0)scale(0.996264)" xlink:href="#CMR17-30"/>
       <use transform="translate(91.380954 36.153639)scale(0.697382)" xlink:href="#CMSY10-0"/>
       <use transform="translate(145.621947 36.153639)scale(0.697382)" xlink:href="#CMR17-31"/>
      </g>
     </g>
    </g>
    <g id="xtick_4">
     <g id="line2d_4">
      <g>
       <use style="fill:#262626;stroke:#262626;stroke-width:1.25;" x="235.58483" xlink:href="#mcd3b7b45ce" y="298.154392"/>
      </g>
     </g>
     <g id="text_4">
      <!-- $\mathdefault{10^{0}}$ -->
      <g style="fill:#262626;" transform="translate(226.781296 316.786787)scale(0.132 -0.132)">
       <use transform="scale(0.996264)" xlink:href="#CMR17-31"/>
       <use transform="translate(45.690477 0)scale(0.996264)" xlink:href="#CMR17-30"/>
       <use transform="translate(91.380954 36.153639)scale(0.697382)" xlink:href="#CMR17-30"/>
      </g>
     </g>
    </g>
    <g id="xtick_5">
     <g id="line2d_5">
      <g>
       <use style="fill:#262626;stroke:#262626;stroke-width:1.25;" x="296.273078" xlink:href="#mcd3b7b45ce" y="298.154392"/>
      </g>
     </g>
     <g id="text_5">
      <!-- $\mathdefault{10^{1}}$ -->
      <g style="fill:#262626;" transform="translate(287.469544 316.786787)scale(0.132 -0.132)">
       <use transform="scale(0.996264)" xlink:href="#CMR17-31"/>
       <use transform="translate(45.690477 0)scale(0.996264)" xlink:href="#CMR17-30"/>
       <use transform="translate(91.380954 36.153639)scale(0.697382)" xlink:href="#CMR17-31"/>
      </g>
     </g>
    </g>
    <g id="xtick_6">
     <g id="line2d_6">
      <g>
       <use style="fill:#262626;stroke:#262626;stroke-width:1.25;" x="356.961327" xlink:href="#mcd3b7b45ce" y="298.154392"/>
      </g>
     </g>
     <g id="text_6">
      <!-- $\mathdefault{10^{2}}$ -->
      <g style="fill:#262626;" transform="translate(348.157792 316.786787)scale(0.132 -0.132)">
       <use transform="scale(0.996264)" xlink:href="#CMR17-31"/>
       <use transform="translate(45.690477 0)scale(0.996264)" xlink:href="#CMR17-30"/>
       <use transform="translate(91.380954 36.153639)scale(0.697382)" xlink:href="#CMR17-32"/>
      </g>
     </g>
    </g>
    <g id="xtick_7">
     <g id="line2d_7">
      <g>
       <use style="fill:#262626;stroke:#262626;stroke-width:1.25;" x="417.649575" xlink:href="#mcd3b7b45ce" y="298.154392"/>
      </g>
     </g>
     <g id="text_7">
      <!-- $\mathdefault{10^{3}}$ -->
      <g style="fill:#262626;" transform="translate(408.84604 316.786787)scale(0.132 -0.132)">
       <use transform="scale(0.996264)" xlink:href="#CMR17-31"/>
       <use transform="translate(45.690477 0)scale(0.996264)" xlink:href="#CMR17-30"/>
       <use transform="translate(91.380954 36.153639)scale(0.697382)" xlink:href="#CMR17-33"/>
      </g>
     </g>
    </g>
    <g id="xtick_8">
     <g id="line2d_8">
      <defs>
       <path d="M 0 0 
L 0 4 
" id="m7e3fc3dc9a" style="stroke:#262626;"/>
      </defs>
      <g>
       <use style="fill:#262626;stroke:#262626;" x="71.789069" xlink:href="#m7e3fc3dc9a" y="298.154392"/>
      </g>
     </g>
    </g>
    <g id="xtick_9">
     <g id="line2d_9">
      <g>
       <use style="fill:#262626;stroke:#262626;" x="82.475739" xlink:href="#m7e3fc3dc9a" y="298.154392"/>
      </g>
     </g>
    </g>
    <g id="xtick_10">
     <g id="line2d_10">
      <g>
       <use style="fill:#262626;stroke:#262626;" x="90.058052" xlink:href="#m7e3fc3dc9a" y="298.154392"/>
      </g>
     </g>
    </g>
    <g id="xtick_11">
     <g id="line2d_11">
      <g>
       <use style="fill:#262626;stroke:#262626;" x="95.939351" xlink:href="#m7e3fc3dc9a" y="298.154392"/>
      </g>
     </g>
    </g>
    <g id="xtick_12">
     <g id="line2d_12">
      <g>
       <use style="fill:#262626;stroke:#262626;" x="100.744722" xlink:href="#m7e3fc3dc9a" y="298.154392"/>
      </g>
     </g>
    </g>
    <g id="xtick_13">
     <g id="line2d_13">
      <g>
       <use style="fill:#262626;stroke:#262626;" x="104.807605" xlink:href="#m7e3fc3dc9a" y="298.154392"/>
      </g>
     </g>
    </g>
    <g id="xtick_14">
     <g id="line2d_14">
      <g>
       <use style="fill:#262626;stroke:#262626;" x="108.327035" xlink:href="#m7e3fc3dc9a" y="298.154392"/>
      </g>
     </g>
    </g>
    <g id="xtick_15">
     <g id="line2d_15">
      <g>
       <use style="fill:#262626;stroke:#262626;" x="111.431392" xlink:href="#m7e3fc3dc9a" y="298.154392"/>
      </g>
     </g>
    </g>
    <g id="xtick_16">
     <g id="line2d_16">
      <g>
       <use style="fill:#262626;stroke:#262626;" x="132.477317" xlink:href="#m7e3fc3dc9a" y="298.154392"/>
      </g>
     </g>
    </g>
    <g id="xtick_17">
     <g id="line2d_17">
      <g>
       <use style="fill:#262626;stroke:#262626;" x="143.163987" xlink:href="#m7e3fc3dc9a" y="298.154392"/>
      </g>
     </g>
    </g>
    <g id="xtick_18">
     <g id="line2d_18">
      <g>
       <use style="fill:#262626;stroke:#262626;" x="150.7463" xlink:href="#m7e3fc3dc9a" y="298.154392"/>
      </g>
     </g>
    </g>
    <g id="xtick_19">
     <g id="line2d_19">
      <g>
       <use style="fill:#262626;stroke:#262626;" x="156.627599" xlink:href="#m7e3fc3dc9a" y="298.154392"/>
      </g>
     </g>
    </g>
    <g id="xtick_20">
     <g id="line2d_20">
      <g>
       <use style="fill:#262626;stroke:#262626;" x="161.43297" xlink:href="#m7e3fc3dc9a" y="298.154392"/>
      </g>
     </g>
    </g>
    <g id="xtick_21">
     <g id="line2d_21">
      <g>
       <use style="fill:#262626;stroke:#262626;" x="165.495853" xlink:href="#m7e3fc3dc9a" y="298.154392"/>
      </g>
     </g>
    </g>
    <g id="xtick_22">
     <g id="line2d_22">
      <g>
       <use style="fill:#262626;stroke:#262626;" x="169.015283" xlink:href="#m7e3fc3dc9a" y="298.154392"/>
      </g>
     </g>
    </g>
    <g id="xtick_23">
     <g id="line2d_23">
      <g>
       <use style="fill:#262626;stroke:#262626;" x="172.11964" xlink:href="#m7e3fc3dc9a" y="298.154392"/>
      </g>
     </g>
    </g>
    <g id="xtick_24">
     <g id="line2d_24">
      <g>
       <use style="fill:#262626;stroke:#262626;" x="193.165565" xlink:href="#m7e3fc3dc9a" y="298.154392"/>
      </g>
     </g>
    </g>
    <g id="xtick_25">
     <g id="line2d_25">
      <g>
       <use style="fill:#262626;stroke:#262626;" x="203.852235" xlink:href="#m7e3fc3dc9a" y="298.154392"/>
      </g>
     </g>
    </g>
    <g id="xtick_26">
     <g id="line2d_26">
      <g>
       <use style="fill:#262626;stroke:#262626;" x="211.434548" xlink:href="#m7e3fc3dc9a" y="298.154392"/>
      </g>
     </g>
    </g>
    <g id="xtick_27">
     <g id="line2d_27">
      <g>
       <use style="fill:#262626;stroke:#262626;" x="217.315847" xlink:href="#m7e3fc3dc9a" y="298.154392"/>
      </g>
     </g>
    </g>
    <g id="xtick_28">
     <g id="line2d_28">
      <g>
       <use style="fill:#262626;stroke:#262626;" x="222.121218" xlink:href="#m7e3fc3dc9a" y="298.154392"/>
      </g>
     </g>
    </g>
    <g id="xtick_29">
     <g id="line2d_29">
      <g>
       <use style="fill:#262626;stroke:#262626;" x="226.184102" xlink:href="#m7e3fc3dc9a" y="298.154392"/>
      </g>
     </g>
    </g>
    <g id="xtick_30">
     <g id="line2d_30">
      <g>
       <use style="fill:#262626;stroke:#262626;" x="229.703531" xlink:href="#m7e3fc3dc9a" y="298.154392"/>
      </g>
     </g>
    </g>
    <g id="xtick_31">
     <g id="line2d_31">
      <g>
       <use style="fill:#262626;stroke:#262626;" x="232.807888" xlink:href="#m7e3fc3dc9a" y="298.154392"/>
      </g>
     </g>
    </g>
    <g id="xtick_32">
     <g id="line2d_32">
      <g>
       <use style="fill:#262626;stroke:#262626;" x="253.853813" xlink:href="#m7e3fc3dc9a" y="298.154392"/>
      </g>
     </g>
    </g>
    <g id="xtick_33">
     <g id="line2d_33">
      <g>
       <use style="fill:#262626;stroke:#262626;" x="264.540483" xlink:href="#m7e3fc3dc9a" y="298.154392"/>
      </g>
     </g>
    </g>
    <g id="xtick_34">
     <g id="line2d_34">
      <g>
       <use style="fill:#262626;stroke:#262626;" x="272.122796" xlink:href="#m7e3fc3dc9a" y="298.154392"/>
      </g>
     </g>
    </g>
    <g id="xtick_35">
     <g id="line2d_35">
      <g>
       <use style="fill:#262626;stroke:#262626;" x="278.004095" xlink:href="#m7e3fc3dc9a" y="298.154392"/>
      </g>
     </g>
    </g>
    <g id="xtick_36">
     <g id="line2d_36">
      <g>
       <use style="fill:#262626;stroke:#262626;" x="282.809466" xlink:href="#m7e3fc3dc9a" y="298.154392"/>
      </g>
     </g>
    </g>
    <g id="xtick_37">
     <g id="line2d_37">
      <g>
       <use style="fill:#262626;stroke:#262626;" x="286.87235" xlink:href="#m7e3fc3dc9a" y="298.154392"/>
      </g>
     </g>
    </g>
    <g id="xtick_38">
     <g id="line2d_38">
      <g>
       <use style="fill:#262626;stroke:#262626;" x="290.391779" xlink:href="#m7e3fc3dc9a" y="298.154392"/>
      </g>
     </g>
    </g>
    <g id="xtick_39">
     <g id="line2d_39">
      <g>
       <use style="fill:#262626;stroke:#262626;" x="293.496136" xlink:href="#m7e3fc3dc9a" y="298.154392"/>
      </g>
     </g>
    </g>
    <g id="xtick_40">
     <g id="line2d_40">
      <g>
       <use style="fill:#262626;stroke:#262626;" x="314.542061" xlink:href="#m7e3fc3dc9a" y="298.154392"/>
      </g>
     </g>
    </g>
    <g id="xtick_41">
     <g id="line2d_41">
      <g>
       <use style="fill:#262626;stroke:#262626;" x="325.228731" xlink:href="#m7e3fc3dc9a" y="298.154392"/>
      </g>
     </g>
    </g>
    <g id="xtick_42">
     <g id="line2d_42">
      <g>
       <use style="fill:#262626;stroke:#262626;" x="332.811045" xlink:href="#m7e3fc3dc9a" y="298.154392"/>
      </g>
     </g>
    </g>
    <g id="xtick_43">
     <g id="line2d_43">
      <g>
       <use style="fill:#262626;stroke:#262626;" x="338.692343" xlink:href="#m7e3fc3dc9a" y="298.154392"/>
      </g>
     </g>
    </g>
    <g id="xtick_44">
     <g id="line2d_44">
      <g>
       <use style="fill:#262626;stroke:#262626;" x="343.497715" xlink:href="#m7e3fc3dc9a" y="298.154392"/>
      </g>
     </g>
    </g>
    <g id="xtick_45">
     <g id="line2d_45">
      <g>
       <use style="fill:#262626;stroke:#262626;" x="347.560598" xlink:href="#m7e3fc3dc9a" y="298.154392"/>
      </g>
     </g>
    </g>
    <g id="xtick_46">
     <g id="line2d_46">
      <g>
       <use style="fill:#262626;stroke:#262626;" x="351.080028" xlink:href="#m7e3fc3dc9a" y="298.154392"/>
      </g>
     </g>
    </g>
    <g id="xtick_47">
     <g id="line2d_47">
      <g>
       <use style="fill:#262626;stroke:#262626;" x="354.184385" xlink:href="#m7e3fc3dc9a" y="298.154392"/>
      </g>
     </g>
    </g>
    <g id="xtick_48">
     <g id="line2d_48">
      <g>
       <use style="fill:#262626;stroke:#262626;" x="375.23031" xlink:href="#m7e3fc3dc9a" y="298.154392"/>
      </g>
     </g>
    </g>
    <g id="xtick_49">
     <g id="line2d_49">
      <g>
       <use style="fill:#262626;stroke:#262626;" x="385.91698" xlink:href="#m7e3fc3dc9a" y="298.154392"/>
      </g>
     </g>
    </g>
    <g id="xtick_50">
     <g id="line2d_50">
      <g>
       <use style="fill:#262626;stroke:#262626;" x="393.499293" xlink:href="#m7e3fc3dc9a" y="298.154392"/>
      </g>
     </g>
    </g>
    <g id="xtick_51">
     <g id="line2d_51">
      <g>
       <use style="fill:#262626;stroke:#262626;" x="399.380592" xlink:href="#m7e3fc3dc9a" y="298.154392"/>
      </g>
     </g>
    </g>
    <g id="xtick_52">
     <g id="line2d_52">
      <g>
       <use style="fill:#262626;stroke:#262626;" x="404.185963" xlink:href="#m7e3fc3dc9a" y="298.154392"/>
      </g>
     </g>
    </g>
    <g id="xtick_53">
     <g id="line2d_53">
      <g>
       <use style="fill:#262626;stroke:#262626;" x="408.248846" xlink:href="#m7e3fc3dc9a" y="298.154392"/>
      </g>
     </g>
    </g>
    <g id="xtick_54">
     <g id="line2d_54">
      <g>
       <use style="fill:#262626;stroke:#262626;" x="411.768276" xlink:href="#m7e3fc3dc9a" y="298.154392"/>
      </g>
     </g>
    </g>
    <g id="xtick_55">
     <g id="line2d_55">
      <g>
       <use style="fill:#262626;stroke:#262626;" x="414.872633" xlink:href="#m7e3fc3dc9a" y="298.154392"/>
      </g>
     </g>
    </g>
    <g id="text_8">
     <!-- $t$ -->
     <g style="fill:#262626;" transform="translate(233.048542 333.306473)scale(0.144 -0.144)">
      <defs>
       <path d="M 1286 2566 
L 1875 2566 
C 1997 2566 2061 2566 2061 2681 
C 2061 2752 2022 2752 1894 2752 
L 1331 2752 
L 1568 3692 
C 1594 3781 1594 3794 1594 3840 
C 1594 3943 1510 4000 1427 4000 
C 1376 4000 1229 3981 1178 3775 
L 928 2752 
L 326 2752 
C 198 2752 141 2752 141 2630 
C 141 2566 186 2566 307 2566 
L 877 2566 
L 454 881 
C 403 658 384 594 384 511 
C 384 211 595 -64 954 -64 
C 1600 -64 1946 868 1946 912 
C 1946 951 1920 970 1882 970 
C 1869 970 1843 970 1830 944 
C 1824 938 1818 931 1773 829 
C 1638 511 1344 64 973 64 
C 781 64 768 224 768 364 
C 768 370 768 492 787 568 
L 1286 2566 
z
" id="CMMI12-74" transform="scale(0.015625)"/>
      </defs>
      <use transform="scale(0.996264)" xlink:href="#CMMI12-74"/>
     </g>
    </g>
   </g>
   <g id="matplotlib.axis_2">
    <g id="ytick_1">
     <g id="line2d_56">
      <path clip-path="url(#padeebfb7da)" d="M 53.520086 247.366961 
L 417.649575 247.366961 
" style="fill:none;stroke:#cccccc;stroke-linecap:round;"/>
     </g>
     <g id="line2d_57">
      <defs>
       <path d="M 0 0 
L -6 0 
" id="mc65070f035" style="stroke:#262626;stroke-width:1.25;"/>
      </defs>
      <g>
       <use style="fill:#262626;stroke:#262626;stroke-width:1.25;" x="53.520086" xlink:href="#mc65070f035" y="247.366961"/>
      </g>
     </g>
     <g id="text_9">
      <!-- $\mathdefault{10^{1}}$ -->
      <g style="fill:#262626;" transform="translate(26.413016 251.933159)scale(0.132 -0.132)">
       <use transform="scale(0.996264)" xlink:href="#CMR17-31"/>
       <use transform="translate(45.690477 0)scale(0.996264)" xlink:href="#CMR17-30"/>
       <use transform="translate(91.380954 36.153639)scale(0.697382)" xlink:href="#CMR17-31"/>
      </g>
     </g>
    </g>
    <g id="ytick_2">
     <g id="line2d_58">
      <path clip-path="url(#padeebfb7da)" d="M 53.520086 148.950003 
L 417.649575 148.950003 
" style="fill:none;stroke:#cccccc;stroke-linecap:round;"/>
     </g>
     <g id="line2d_59">
      <g>
       <use style="fill:#262626;stroke:#262626;stroke-width:1.25;" x="53.520086" xlink:href="#mc65070f035" y="148.950003"/>
      </g>
     </g>
     <g id="text_10">
      <!-- $\mathdefault{10^{2}}$ -->
      <g style="fill:#262626;" transform="translate(26.413016 153.5162)scale(0.132 -0.132)">
       <use transform="scale(0.996264)" xlink:href="#CMR17-31"/>
       <use transform="translate(45.690477 0)scale(0.996264)" xlink:href="#CMR17-30"/>
       <use transform="translate(91.380954 36.153639)scale(0.697382)" xlink:href="#CMR17-32"/>
      </g>
     </g>
    </g>
    <g id="ytick_3">
     <g id="line2d_60">
      <path clip-path="url(#padeebfb7da)" d="M 53.520086 50.533044 
L 417.649575 50.533044 
" style="fill:none;stroke:#cccccc;stroke-linecap:round;"/>
     </g>
     <g id="line2d_61">
      <g>
       <use style="fill:#262626;stroke:#262626;stroke-width:1.25;" x="53.520086" xlink:href="#mc65070f035" y="50.533044"/>
      </g>
     </g>
     <g id="text_11">
      <!-- $\mathdefault{10^{3}}$ -->
      <g style="fill:#262626;" transform="translate(26.413016 55.099241)scale(0.132 -0.132)">
       <use transform="scale(0.996264)" xlink:href="#CMR17-31"/>
       <use transform="translate(45.690477 0)scale(0.996264)" xlink:href="#CMR17-30"/>
       <use transform="translate(91.380954 36.153639)scale(0.697382)" xlink:href="#CMR17-33"/>
      </g>
     </g>
    </g>
    <g id="ytick_4">
     <g id="line2d_62">
      <defs>
       <path d="M 0 0 
L -4 0 
" id="md75cb7f3a4" style="stroke:#262626;"/>
      </defs>
      <g>
       <use style="fill:#262626;stroke:#262626;" x="53.520086" xlink:href="#md75cb7f3a4" y="286.531007"/>
      </g>
     </g>
    </g>
    <g id="ytick_5">
     <g id="line2d_63">
      <g>
       <use style="fill:#262626;stroke:#262626;" x="53.520086" xlink:href="#md75cb7f3a4" y="276.993418"/>
      </g>
     </g>
    </g>
    <g id="ytick_6">
     <g id="line2d_64">
      <g>
       <use style="fill:#262626;stroke:#262626;" x="53.520086" xlink:href="#md75cb7f3a4" y="269.200641"/>
      </g>
     </g>
    </g>
    <g id="ytick_7">
     <g id="line2d_65">
      <g>
       <use style="fill:#262626;stroke:#262626;" x="53.520086" xlink:href="#md75cb7f3a4" y="262.611941"/>
      </g>
     </g>
    </g>
    <g id="ytick_8">
     <g id="line2d_66">
      <g>
       <use style="fill:#262626;stroke:#262626;" x="53.520086" xlink:href="#md75cb7f3a4" y="256.90455"/>
      </g>
     </g>
    </g>
    <g id="ytick_9">
     <g id="line2d_67">
      <g>
       <use style="fill:#262626;stroke:#262626;" x="53.520086" xlink:href="#md75cb7f3a4" y="251.870274"/>
      </g>
     </g>
    </g>
    <g id="ytick_10">
     <g id="line2d_68">
      <g>
       <use style="fill:#262626;stroke:#262626;" x="53.520086" xlink:href="#md75cb7f3a4" y="217.740505"/>
      </g>
     </g>
    </g>
    <g id="ytick_11">
     <g id="line2d_69">
      <g>
       <use style="fill:#262626;stroke:#262626;" x="53.520086" xlink:href="#md75cb7f3a4" y="200.410138"/>
      </g>
     </g>
    </g>
    <g id="ytick_12">
     <g id="line2d_70">
      <g>
       <use style="fill:#262626;stroke:#262626;" x="53.520086" xlink:href="#md75cb7f3a4" y="188.114048"/>
      </g>
     </g>
    </g>
    <g id="ytick_13">
     <g id="line2d_71">
      <g>
       <use style="fill:#262626;stroke:#262626;" x="53.520086" xlink:href="#md75cb7f3a4" y="178.576459"/>
      </g>
     </g>
    </g>
    <g id="ytick_14">
     <g id="line2d_72">
      <g>
       <use style="fill:#262626;stroke:#262626;" x="53.520086" xlink:href="#md75cb7f3a4" y="170.783682"/>
      </g>
     </g>
    </g>
    <g id="ytick_15">
     <g id="line2d_73">
      <g>
       <use style="fill:#262626;stroke:#262626;" x="53.520086" xlink:href="#md75cb7f3a4" y="164.194982"/>
      </g>
     </g>
    </g>
    <g id="ytick_16">
     <g id="line2d_74">
      <g>
       <use style="fill:#262626;stroke:#262626;" x="53.520086" xlink:href="#md75cb7f3a4" y="158.487591"/>
      </g>
     </g>
    </g>
    <g id="ytick_17">
     <g id="line2d_75">
      <g>
       <use style="fill:#262626;stroke:#262626;" x="53.520086" xlink:href="#md75cb7f3a4" y="153.453316"/>
      </g>
     </g>
    </g>
    <g id="ytick_18">
     <g id="line2d_76">
      <g>
       <use style="fill:#262626;stroke:#262626;" x="53.520086" xlink:href="#md75cb7f3a4" y="119.323546"/>
      </g>
     </g>
    </g>
    <g id="ytick_19">
     <g id="line2d_77">
      <g>
       <use style="fill:#262626;stroke:#262626;" x="53.520086" xlink:href="#md75cb7f3a4" y="101.99318"/>
      </g>
     </g>
    </g>
    <g id="ytick_20">
     <g id="line2d_78">
      <g>
       <use style="fill:#262626;stroke:#262626;" x="53.520086" xlink:href="#md75cb7f3a4" y="89.697089"/>
      </g>
     </g>
    </g>
    <g id="ytick_21">
     <g id="line2d_79">
      <g>
       <use style="fill:#262626;stroke:#262626;" x="53.520086" xlink:href="#md75cb7f3a4" y="80.1595"/>
      </g>
     </g>
    </g>
    <g id="ytick_22">
     <g id="line2d_80">
      <g>
       <use style="fill:#262626;stroke:#262626;" x="53.520086" xlink:href="#md75cb7f3a4" y="72.366723"/>
      </g>
     </g>
    </g>
    <g id="ytick_23">
     <g id="line2d_81">
      <g>
       <use style="fill:#262626;stroke:#262626;" x="53.520086" xlink:href="#md75cb7f3a4" y="65.778024"/>
      </g>
     </g>
    </g>
    <g id="ytick_24">
     <g id="line2d_82">
      <g>
       <use style="fill:#262626;stroke:#262626;" x="53.520086" xlink:href="#md75cb7f3a4" y="60.070632"/>
      </g>
     </g>
    </g>
    <g id="ytick_25">
     <g id="line2d_83">
      <g>
       <use style="fill:#262626;stroke:#262626;" x="53.520086" xlink:href="#md75cb7f3a4" y="55.036357"/>
      </g>
     </g>
    </g>
    <g id="text_12">
     <!-- $\mathrm{trace}(\mathbf{A}^{\intercal}\mathbf{A} + t \mathbf{I})^{-1}$ -->
     <g style="fill:#262626;" transform="translate(18.826475 217.932561)rotate(-90)scale(0.144 -0.144)">
      <defs>
       <path d="M 966 2560 
L 1862 2560 
L 1862 2725 
L 966 2725 
L 966 3904 
L 851 3904 
C 838 3245 614 2668 70 2668 
L 70 2560 
L 627 2560 
L 627 771 
C 627 650 627 -64 1370 -64 
C 1747 -64 1965 306 1965 777 
L 1965 1140 
L 1850 1140 
L 1850 783 
C 1850 344 1677 51 1408 51 
C 1222 51 966 178 966 758 
L 966 2560 
z
" id="CMR17-74" transform="scale(0.015625)"/>
       <path d="M 960 1497 
C 960 2112 1222 2688 1702 2688 
C 1747 2688 1792 2682 1837 2662 
C 1837 2662 1696 2617 1696 2452 
C 1696 2298 1818 2234 1914 2234 
C 1990 2234 2131 2279 2131 2458 
C 2131 2663 1926 2790 1709 2790 
C 1222 2790 1011 2317 947 2093 
L 941 2093 
L 941 2790 
L 198 2720 
L 198 2554 
C 576 2554 634 2515 634 2208 
L 634 428 
C 634 184 608 153 198 153 
L 198 -13 
C 352 0 646 0 813 0 
C 998 0 1325 0 1498 -13 
L 1498 153 
C 1037 153 960 153 960 440 
L 960 1497 
z
" id="CMR17-72" transform="scale(0.015625)"/>
       <path d="M 2304 1653 
C 2304 2072 2304 2294 2035 2543 
C 1798 2752 1523 2816 1306 2816 
C 800 2816 435 2407 435 1971 
C 435 1728 627 1728 666 1728 
C 749 1728 896 1778 896 1954 
C 896 2112 774 2181 666 2181 
C 640 2181 608 2174 589 2168 
C 723 2592 1069 2714 1293 2714 
C 1613 2714 1965 2429 1965 1885 
L 1965 1600 
C 1587 1600 1133 1549 774 1357 
C 371 1133 256 813 256 570 
C 256 77 832 -64 1171 -64 
C 1523 -64 1850 139 1990 511 
C 2003 233 2182 -18 2464 -18 
C 2598 -18 2938 70 2938 567 
L 2938 920 
L 2822 920 
L 2822 562 
C 2822 178 2650 128 2566 128 
C 2304 128 2304 458 2304 738 
L 2304 1653 
z
M 1965 870 
C 1965 317 1568 38 1216 38 
C 896 38 646 275 646 570 
C 646 761 730 1100 1101 1305 
C 1408 1478 1760 1504 1965 1504 
L 1965 870 
z
" id="CMR17-61" transform="scale(0.015625)"/>
       <path d="M 2234 2240 
C 2112 2240 1933 2240 1933 2017 
C 1933 1838 2080 1787 2163 1787 
C 2208 1787 2394 1807 2394 2024 
C 2394 2467 1958 2803 1466 2803 
C 787 2803 211 2178 211 1363 
C 211 516 813 -64 1466 -64 
C 2259 -64 2458 677 2458 748 
C 2458 774 2451 793 2406 793 
C 2362 793 2355 787 2330 703 
C 2163 180 1798 51 1523 51 
C 1114 51 621 427 621 1369 
C 621 2338 1094 2688 1472 2688 
C 1722 2688 2093 2573 2234 2240 
z
" id="CMR17-63" transform="scale(0.015625)"/>
       <path d="M 2438 1472 
C 2464 1498 2464 1511 2464 1576 
C 2464 2238 2118 2816 1389 2816 
C 710 2816 173 2169 173 1383 
C 173 551 781 -64 1459 -64 
C 2176 -64 2458 607 2458 740 
C 2458 784 2419 784 2406 784 
C 2362 784 2355 771 2330 696 
C 2189 265 1837 51 1504 51 
C 1229 51 954 203 781 480 
C 582 803 582 1176 582 1472 
L 2438 1472 
z
M 589 1568 
C 634 2505 1126 2714 1382 2714 
C 1818 2714 2112 2297 2118 1568 
L 589 1568 
z
" id="CMR17-65" transform="scale(0.015625)"/>
       <path d="M 1958 -1561 
C 1958 -1555 1958 -1542 1939 -1523 
C 1645 -1224 858 -407 858 1581 
C 858 3569 1632 4379 1946 4697 
C 1946 4704 1958 4717 1958 4736 
C 1958 4755 1939 4768 1914 4768 
C 1843 4768 1299 4296 986 3594 
C 666 2887 576 2199 576 1588 
C 576 1128 621 351 1005 -471 
C 1312 -1135 1837 -1600 1914 -1600 
C 1946 -1600 1958 -1587 1958 -1561 
z
" id="CMR17-28" transform="scale(0.015625)"/>
       <path d="M 2931 4301 
C 2886 4416 2874 4448 2720 4448 
C 2560 4448 2547 4416 2502 4301 
L 915 413 
C 870 311 870 299 691 279 
C 531 260 506 260 365 260 
L 250 260 
L 250 -13 
C 416 0 800 0 986 0 
C 1158 0 1626 0 1773 -13 
L 1773 260 
C 1632 260 1389 260 1210 331 
C 1229 390 1229 402 1242 428 
L 1581 1262 
L 3296 1262 
L 3699 260 
L 3098 260 
L 3098 0 
C 3302 0 3923 0 4166 0 
C 4371 0 5024 0 5184 -13 
L 5184 260 
L 4576 260 
L 2931 4301 
z
M 2438 3367 
L 3181 1536 
L 1690 1536 
L 2438 3367 
z
" id="CMBX12-41" transform="scale(0.015625)"/>
       <path d="M 2035 2243 
L 2861 2243 
C 2950 2243 3200 2243 3200 2499 
C 3200 2755 2950 2755 2861 2755 
L 698 2755 
C 608 2755 358 2755 358 2499 
C 358 2243 608 2243 698 2243 
L 1523 2243 
L 1523 -1027 
C 1523 -1117 1523 -1366 1779 -1366 
C 2035 -1366 2035 -1117 2035 -1027 
L 2035 2243 
z
" id="MSAM10-7c" transform="scale(0.015625)"/>
       <path d="M 2413 1472 
L 4109 1472 
C 4198 1472 4307 1472 4307 1580 
C 4307 1695 4205 1695 4109 1695 
L 2413 1695 
L 2413 3386 
C 2413 3475 2413 3584 2304 3584 
C 2189 3584 2189 3482 2189 3386 
L 2189 1695 
L 493 1695 
C 403 1695 294 1695 294 1587 
C 294 1472 397 1472 493 1472 
L 2189 1472 
L 2189 -218 
C 2189 -307 2189 -416 2298 -416 
C 2413 -416 2413 -314 2413 -218 
L 2413 1472 
z
" id="CMR17-2b" transform="scale(0.015625)"/>
       <path d="M 1760 4085 
L 2477 4085 
L 2477 4352 
C 2246 4352 1606 4352 1338 4352 
C 1069 4352 429 4352 198 4352 
L 198 4085 
L 915 4085 
L 915 267 
L 198 267 
L 198 0 
C 429 0 1069 0 1338 0 
C 1606 0 2246 0 2477 0 
L 2477 267 
L 1760 267 
L 1760 4085 
z
" id="CMBX12-49" transform="scale(0.015625)"/>
       <path d="M 1683 1581 
C 1683 2040 1638 2817 1254 3639 
C 947 4303 422 4768 346 4768 
C 326 4768 301 4761 301 4729 
C 301 4717 307 4710 314 4697 
C 621 4378 1402 3568 1402 1584 
C 1402 -407 627 -1217 314 -1537 
C 307 -1549 301 -1556 301 -1568 
C 301 -1600 326 -1600 346 -1600 
C 416 -1600 960 -1128 1274 -426 
C 1594 281 1683 969 1683 1581 
z
" id="CMR17-29" transform="scale(0.015625)"/>
      </defs>
      <use transform="scale(0.996264)" xlink:href="#CMR17-74"/>
      <use transform="translate(35.280768 0)scale(0.996264)" xlink:href="#CMR17-72"/>
      <use transform="translate(70.561536 0)scale(0.996264)" xlink:href="#CMR17-61"/>
      <use transform="translate(116.252013 0)scale(0.996264)" xlink:href="#CMR17-63"/>
      <use transform="translate(156.737673 0)scale(0.996264)" xlink:href="#CMR17-65"/>
      <use transform="translate(197.223334 0)scale(0.996264)" xlink:href="#CMR17-28"/>
      <use transform="translate(232.504101 0)scale(0.996264)" xlink:href="#CMBX12-41"/>
      <use transform="translate(317.140496 36.153639)scale(0.697382)" xlink:href="#MSAM10-7c"/>
      <use transform="translate(356.382164 0)scale(0.996264)" xlink:href="#CMBX12-41"/>
      <use transform="translate(463.157766 0)scale(0.996264)" xlink:href="#CMR17-2b"/>
      <use transform="translate(557.011761 0)scale(0.996264)" xlink:href="#CMMI12-74"/>
      <use transform="translate(592.238092 0)scale(0.996264)" xlink:href="#CMBX12-49"/>
      <use transform="translate(633.979799 0)scale(0.996264)" xlink:href="#CMR17-29"/>
      <use transform="translate(669.260567 36.153639)scale(0.697382)" xlink:href="#CMSY10-0"/>
      <use transform="translate(723.50156 36.153639)scale(0.697382)" xlink:href="#CMR17-31"/>
     </g>
    </g>
   </g>
   <g id="line2d_84">
    <path clip-path="url(#padeebfb7da)" d="M 53.520086 37.305124 
L 60.9513 37.312843 
L 68.382514 37.323074 
L 75.813728 37.336629 
L 83.244942 37.35459 
L 90.676156 37.378381 
L 98.10737 37.409887 
L 105.538584 37.451598 
L 112.969798 37.506791 
L 120.401012 37.579781 
L 127.832226 37.676232 
L 135.26344 37.803551 
L 142.694654 37.971389 
L 150.125868 38.192247 
L 157.557083 38.4822 
L 164.988297 38.861726 
L 172.419511 39.356578 
L 179.850725 39.99864 
L 187.281939 40.826566 
L 194.713153 41.88601 
L 202.144367 43.229136 
L 209.575581 44.913149 
L 217.006795 46.997705 
L 224.438009 49.541377 
L 231.869223 52.597706 
L 239.300437 56.211745 
L 246.731651 60.417967 
L 254.162865 65.239985 
L 261.594079 70.691779 
L 269.025293 76.779475 
L 276.456508 83.502513 
L 283.887722 90.853486 
L 291.318936 98.816737 
L 298.75015 107.366596 
L 306.181364 116.466383 
L 313.612578 126.069076 
L 321.043792 136.119749 
L 328.475006 146.559229 
L 335.90622 157.328025 
L 343.337434 168.369715 
L 350.768648 179.633319 
L 358.199862 191.074543 
L 365.631076 202.656105 
L 373.06229 214.347397 
L 380.493504 226.123783 
L 387.924718 237.965733 
L 395.355933 249.857946 
L 402.787147 261.788544 
L 410.218361 273.748368 
L 417.649575 285.730396 
" style="fill:none;stroke:#000000;stroke-linecap:round;stroke-width:1.5;"/>
   </g>
   <g id="line2d_85">
    <path clip-path="url(#padeebfb7da)" d="M 53.520086 37.250471 
L 60.9513 37.258196 
L 68.382514 37.268433 
L 75.813728 37.281998 
L 83.244942 37.29997 
L 90.676156 37.323777 
L 98.10737 37.355305 
L 105.538584 37.397044 
L 112.969798 37.452274 
L 120.401012 37.525313 
L 127.832226 37.621829 
L 135.26344 37.749234 
L 142.694654 37.917185 
L 150.125868 38.138191 
L 157.557083 38.42834 
L 164.988297 38.80812 
L 172.419511 39.303304 
L 179.850725 39.945794 
L 187.281939 40.774272 
L 194.713153 41.834422 
L 202.144367 43.17844 
L 209.575581 44.863569 
L 217.006795 46.949507 
L 224.438009 49.494863 
L 231.869223 52.553214 
L 239.300437 56.169634 
L 246.731651 60.378599 
L 254.162865 65.203697 
L 261.594079 70.658854 
L 269.025293 76.750107 
L 276.456508 83.476782 
L 283.887722 90.831349 
L 291.318936 98.798032 
L 298.75015 107.351059 
L 306.181364 116.453682 
L 313.612578 126.05884 
L 321.043792 136.111604 
L 328.475006 146.552817 
L 335.90622 157.323021 
L 343.337434 168.365839 
L 350.768648 179.630335 
L 358.199862 191.072256 
L 365.631076 202.654358 
L 373.06229 214.346067 
L 380.493504 226.122773 
L 387.924718 237.964967 
L 395.355933 249.857366 
L 402.787147 261.788105 
L 410.218361 273.748036 
L 417.649575 285.730145 
" style="fill:none;stroke:#800000;stroke-linecap:round;stroke-width:1.5;"/>
   </g>
   <g id="patch_3">
    <path d="M 53.520086 298.154392 
L 53.520086 24.826475 
" style="fill:none;stroke:#262626;stroke-linecap:square;stroke-linejoin:miter;stroke-width:1.25;"/>
   </g>
   <g id="patch_4">
    <path d="M 417.649575 298.154392 
L 417.649575 24.826475 
" style="fill:none;stroke:#262626;stroke-linecap:square;stroke-linejoin:miter;stroke-width:1.25;"/>
   </g>
   <g id="patch_5">
    <path d="M 53.520086 298.154392 
L 417.649575 298.154392 
" style="fill:none;stroke:#262626;stroke-linecap:square;stroke-linejoin:miter;stroke-width:1.25;"/>
   </g>
   <g id="patch_6">
    <path d="M 53.520086 24.826475 
L 417.649575 24.826475 
" style="fill:none;stroke:#262626;stroke-linecap:square;stroke-linejoin:miter;stroke-width:1.25;"/>
   </g>
   <g id="text_13">
    <!-- Input matrix: $\mathbf{A} = \mathbf{M}$, Estimating: $\mathrm{trace}(\mathbf{A}^{\intercal}\mathbf{A} + t \mathbf{I})^{-1}$ -->
    <g style="fill:#262626;" transform="translate(68.018996 18.826475)scale(0.144 -0.144)">
     <defs>
      <path d="M 1261 3905 
C 1261 4192 1338 4192 1798 4192 
L 1798 4352 
C 1594 4352 1267 4352 1050 4352 
C 832 4352 506 4352 301 4352 
L 301 4192 
C 762 4192 838 4192 838 3905 
L 838 447 
C 838 160 762 160 301 160 
L 301 0 
C 506 0 832 0 1050 0 
C 1267 0 1594 0 1798 0 
L 1798 160 
C 1338 160 1261 160 1261 447 
L 1261 3905 
z
" id="CMR17-49" transform="scale(0.015625)"/>
      <path d="M 2656 1933 
C 2656 2259 2592 2790 1837 2790 
C 1331 2790 1069 2400 973 2144 
L 966 2144 
L 966 2790 
L 211 2720 
L 211 2554 
C 589 2554 646 2515 646 2208 
L 646 428 
C 646 184 621 153 211 153 
L 211 -13 
C 365 0 646 0 813 0 
C 979 0 1267 0 1421 -13 
L 1421 153 
C 1011 153 986 178 986 428 
L 986 1658 
C 986 2247 1344 2688 1792 2688 
C 2266 2688 2317 2266 2317 1958 
L 2317 428 
C 2317 184 2291 153 1882 153 
L 1882 -13 
C 2035 0 2317 0 2483 0 
C 2650 0 2938 0 3091 -13 
L 3091 153 
C 2682 153 2656 178 2656 428 
L 2656 1933 
z
" id="CMR17-6e" transform="scale(0.015625)"/>
      <path d="M 1408 -1063 
C 998 -1063 973 -1037 973 -789 
L 973 402 
C 1158 134 1427 -38 1766 -38 
C 2406 -38 3053 523 3053 1388 
C 3053 2191 2496 2802 1837 2802 
C 1453 2802 1139 2592 960 2338 
L 960 2802 
L 198 2732 
L 198 2567 
C 576 2567 634 2528 634 2223 
L 634 -789 
C 634 -1031 608 -1063 198 -1063 
L 198 -1228 
C 352 -1216 634 -1216 800 -1216 
C 966 -1216 1254 -1216 1408 -1228 
L 1408 -1063 
z
M 973 2012 
C 973 2102 973 2235 1222 2471 
C 1254 2497 1472 2688 1792 2688 
C 2259 2688 2643 2108 2643 1382 
C 2643 656 2234 64 1728 64 
C 1498 64 1248 172 1056 472 
C 973 612 973 650 973 752 
L 973 2012 
z
" id="CMR17-70" transform="scale(0.015625)"/>
      <path d="M 1882 2693 
L 1882 2528 
C 2259 2528 2317 2489 2317 2186 
L 2317 1032 
C 2317 500 2029 38 1555 38 
C 1030 38 986 348 986 678 
L 986 2763 
L 211 2693 
L 211 2528 
C 467 2528 640 2528 646 2274 
L 646 1058 
C 646 633 646 361 813 183 
C 896 101 1056 -64 1517 -64 
C 2061 -64 2272 377 2323 506 
L 2330 506 
L 2330 -63 
L 3091 -63 
L 3091 128 
C 2714 128 2656 166 2656 473 
L 2656 2763 
L 1882 2693 
z
" id="CMR17-75" transform="scale(0.015625)"/>
      <path d="M 4326 1933 
C 4326 2252 4269 2790 3507 2790 
C 3072 2790 2771 2496 2656 2151 
L 2650 2151 
C 2573 2676 2195 2790 1837 2790 
C 1331 2790 1069 2400 973 2144 
L 966 2144 
L 966 2790 
L 211 2720 
L 211 2554 
C 589 2554 646 2515 646 2208 
L 646 428 
C 646 184 621 153 211 153 
L 211 -13 
C 365 0 646 0 813 0 
C 979 0 1267 0 1421 -13 
L 1421 153 
C 1011 153 986 178 986 428 
L 986 1658 
C 986 2247 1344 2688 1792 2688 
C 2266 2688 2317 2266 2317 1958 
L 2317 428 
C 2317 184 2291 153 1882 153 
L 1882 -13 
C 2035 0 2317 0 2483 0 
C 2650 0 2938 0 3091 -13 
L 3091 153 
C 2682 153 2656 178 2656 428 
L 2656 1658 
C 2656 2247 3014 2688 3462 2688 
C 3936 2688 3987 2266 3987 1958 
L 3987 428 
C 3987 184 3962 153 3552 153 
L 3552 -13 
C 3706 0 3987 0 4154 0 
C 4320 0 4608 0 4762 -13 
L 4762 153 
C 4352 153 4326 178 4326 428 
L 4326 1933 
z
" id="CMR17-6d" transform="scale(0.015625)"/>
      <path d="M 992 3909 
C 992 4049 877 4170 730 4170 
C 589 4170 467 4056 467 3909 
C 467 3769 582 3648 730 3648 
C 870 3648 992 3763 992 3909 
z
M 243 2706 
L 243 2541 
C 602 2541 653 2502 653 2197 
L 653 427 
C 653 184 627 153 218 153 
L 218 -13 
C 371 0 646 0 806 0 
C 960 0 1222 0 1370 -13 
L 1370 153 
C 992 153 979 191 979 420 
L 979 2776 
L 243 2706 
z
" id="CMR17-69" transform="scale(0.015625)"/>
      <path d="M 1664 1477 
C 1856 1726 2074 2006 2253 2216 
C 2464 2458 2707 2560 2989 2560 
L 2989 2726 
C 2880 2726 2656 2726 2541 2726 
C 2368 2726 2170 2726 2022 2732 
L 2022 2566 
C 2112 2553 2163 2489 2163 2400 
C 2163 2285 2099 2215 2067 2171 
L 1594 1573 
L 1030 2306 
C 973 2376 973 2388 973 2420 
C 973 2497 1037 2560 1146 2560 
L 1146 2732 
C 992 2726 717 2726 557 2726 
C 384 2726 179 2726 38 2732 
L 38 2560 
C 384 2560 461 2534 614 2343 
L 1350 1395 
C 1363 1382 1395 1344 1395 1325 
C 1395 1299 838 619 768 530 
C 480 185 179 160 6 160 
L 6 0 
C 115 0 339 0 454 0 
C 582 0 864 0 979 -6 
L 979 160 
C 941 166 838 179 838 325 
C 838 440 890 510 947 586 
L 1478 1236 
L 2035 512 
C 2086 442 2163 346 2163 301 
C 2163 211 2086 160 1984 160 
L 1984 -6 
C 2138 0 2413 0 2573 0 
C 2746 0 2950 0 3091 -6 
L 3091 160 
C 2771 160 2675 172 2522 370 
L 1664 1477 
z
" id="CMR17-78" transform="scale(0.015625)"/>
      <path d="M 1062 2491 
C 1062 2650 934 2752 800 2752 
C 672 2752 538 2650 538 2491 
C 538 2332 666 2230 800 2230 
C 928 2230 1062 2332 1062 2491 
z
M 1062 261 
C 1062 420 934 522 800 522 
C 672 522 538 420 538 261 
C 538 102 666 0 800 0 
C 928 0 1062 102 1062 261 
z
" id="CMR17-3a" transform="scale(0.015625)"/>
      <path d="M 4115 2017 
C 4211 2017 4307 2017 4307 2125 
C 4307 2240 4198 2240 4090 2240 
L 512 2240 
C 403 2240 294 2240 294 2125 
C 294 2017 390 2017 486 2017 
L 4115 2017 
z
M 4090 896 
C 4198 896 4307 896 4307 1011 
C 4307 1119 4211 1119 4115 1119 
L 486 1119 
C 390 1119 294 1119 294 1011 
C 294 896 403 896 512 896 
L 4090 896 
z
" id="CMR17-3d" transform="scale(0.015625)"/>
      <path d="M 3411 797 
L 1875 4218 
C 1818 4352 1760 4352 1626 4352 
L 262 4352 
L 262 4078 
L 941 4078 
L 941 444 
C 941 304 934 298 768 272 
C 653 260 525 260 410 260 
L 262 260 
L 262 -13 
C 410 0 909 0 1088 0 
C 1267 0 1773 0 1920 -13 
L 1920 260 
L 1773 260 
C 1600 260 1587 260 1434 279 
C 1248 305 1242 311 1242 451 
L 1242 4002 
L 1248 4002 
L 2989 134 
C 3021 64 3059 0 3168 0 
C 3277 0 3315 64 3347 134 
L 5120 4078 
L 5126 4078 
L 5126 260 
L 4448 260 
L 4448 -13 
C 4621 0 5286 0 5504 0 
C 5722 0 6387 0 6560 -13 
L 6560 260 
L 5882 260 
L 5882 4078 
L 6560 4078 
L 6560 4352 
L 5197 4352 
C 5062 4352 5005 4352 4947 4218 
L 3411 797 
z
" id="CMBX12-4d" transform="scale(0.015625)"/>
      <path d="M 1011 102 
C 1024 45 1024 25 1024 -77 
C 1024 -463 896 -817 627 -1139 
C 595 -1170 595 -1183 595 -1197 
C 595 -1222 621 -1248 646 -1248 
C 685 -1248 1126 -799 1126 -87 
C 1126 124 1101 522 800 522 
C 659 522 538 427 538 261 
C 538 96 659 0 800 0 
C 877 0 960 32 1011 102 
z
" id="CMR17-2c" transform="scale(0.015625)"/>
      <path d="M 3885 1615 
L 3770 1615 
C 3629 676 3546 166 2419 166 
L 1530 166 
C 1274 166 1261 197 1261 414 
L 1261 2176 
L 1862 2176 
C 2464 2176 2522 1960 2522 1430 
L 2637 1430 
L 2637 3081 
L 2522 3081 
C 2522 2557 2464 2342 1862 2342 
L 1261 2342 
L 1261 3913 
C 1261 4128 1274 4160 1530 4160 
L 2406 4160 
C 3398 4160 3514 3769 3603 2929 
L 3718 2929 
L 3565 4325 
L 326 4325 
L 326 4160 
C 768 4160 838 4160 838 3874 
L 838 451 
C 838 166 768 166 326 166 
L 326 0 
L 3654 0 
L 3885 1615 
z
" id="CMR17-45" transform="scale(0.015625)"/>
      <path d="M 1978 2697 
C 1978 2813 1971 2819 1933 2819 
C 1907 2819 1901 2813 1824 2717 
C 1805 2691 1747 2626 1728 2601 
C 1523 2819 1235 2819 1126 2819 
C 416 2819 160 2447 160 2076 
C 160 1498 813 1365 998 1325 
C 1402 1243 1542 1217 1677 1101 
C 1760 1025 1901 884 1901 654 
C 1901 384 1747 38 1158 38 
C 602 38 403 460 288 1021 
C 269 1110 269 1117 218 1117 
C 166 1117 160 1110 160 983 
L 160 63 
C 160 -51 166 -58 205 -58 
C 237 -58 243 -51 275 0 
C 314 57 410 211 448 276 
C 576 103 800 -64 1158 -64 
C 1792 -64 2131 283 2131 784 
C 2131 1112 1958 1285 1875 1362 
C 1683 1561 1459 1606 1190 1657 
C 838 1735 390 1825 390 2217 
C 390 2383 480 2737 1126 2737 
C 1811 2737 1850 2094 1862 1888 
C 1869 1856 1901 1849 1920 1849 
C 1978 1849 1978 1869 1978 1978 
L 1978 2697 
z
" id="CMR17-73" transform="scale(0.015625)"/>
      <path d="M 710 1164 
C 832 1068 1043 960 1299 960 
C 1805 960 2240 1357 2240 1888 
C 2240 2054 2189 2310 1997 2509 
C 2176 2692 2438 2752 2586 2752 
C 2611 2752 2650 2752 2682 2734 
C 2656 2728 2598 2703 2598 2605 
C 2598 2527 2656 2471 2739 2471 
C 2835 2471 2886 2533 2886 2614 
C 2886 2731 2790 2854 2586 2854 
C 2330 2854 2106 2738 1926 2580 
C 1734 2753 1504 2816 1299 2816 
C 794 2816 358 2419 358 1888 
C 358 1522 570 1292 634 1228 
C 442 1004 442 743 442 711 
C 442 545 506 302 723 168 
C 390 85 128 -169 128 -486 
C 128 -943 736 -1280 1466 -1280 
C 2170 -1280 2803 -956 2803 -479 
C 2803 384 1856 384 1363 384 
C 1216 384 954 384 922 391 
C 723 423 589 602 589 826 
C 589 883 589 1024 710 1164 
z
M 1299 1068 
C 736 1068 736 1760 736 1889 
C 736 2016 736 2708 1299 2708 
C 1862 2708 1862 2016 1862 1889 
C 1862 1760 1862 1068 1299 1068 
z
M 1466 -1171 
C 826 -1171 384 -835 384 -486 
C 384 -289 493 -105 634 -4 
C 794 104 858 104 1293 104 
C 1818 104 2547 104 2547 -486 
C 2547 -835 2106 -1171 1466 -1171 
z
" id="CMR17-67" transform="scale(0.015625)"/>
     </defs>
     <use transform="scale(0.996264)" xlink:href="#CMR17-49"/>
     <use transform="translate(32.638409 0)scale(0.996264)" xlink:href="#CMR17-6e"/>
     <use transform="translate(83.533779 0)scale(0.996264)" xlink:href="#CMR17-70"/>
     <use transform="translate(134.429149 0)scale(0.996264)" xlink:href="#CMR17-75"/>
     <use transform="translate(185.324519 0)scale(0.996264)" xlink:href="#CMR17-74"/>
     <use transform="translate(250.681253 0)scale(0.996264)" xlink:href="#CMR17-6d"/>
     <use transform="translate(327.600843 0)scale(0.996264)" xlink:href="#CMR17-61"/>
     <use transform="translate(373.29132 0)scale(0.996264)" xlink:href="#CMR17-74"/>
     <use transform="translate(408.572087 0)scale(0.996264)" xlink:href="#CMR17-72"/>
     <use transform="translate(443.852855 0)scale(0.996264)" xlink:href="#CMR17-69"/>
     <use transform="translate(468.723914 0)scale(0.996264)" xlink:href="#CMR17-78"/>
     <use transform="translate(517.01683 0)scale(0.996264)" xlink:href="#CMR17-3a"/>
     <use transform="translate(582.373549 0)scale(0.996264)" xlink:href="#CMBX12-41"/>
     <use transform="translate(694.683952 0)scale(0.996264)" xlink:href="#CMR17-3d"/>
     <use transform="translate(794.072749 0)scale(0.996264)" xlink:href="#CMBX12-4d"/>
     <use transform="translate(900.387174 0)scale(0.996264)" xlink:href="#CMR17-2c"/>
     <use transform="translate(955.334199 0)scale(0.996264)" xlink:href="#CMR17-45"/>
     <use transform="translate(1017.9205 0)scale(0.996264)" xlink:href="#CMR17-73"/>
     <use transform="translate(1053.721837 0)scale(0.996264)" xlink:href="#CMR17-74"/>
     <use transform="translate(1089.002605 0)scale(0.996264)" xlink:href="#CMR17-69"/>
     <use transform="translate(1113.873663 0)scale(0.996264)" xlink:href="#CMR17-6d"/>
     <use transform="translate(1190.793253 0)scale(0.996264)" xlink:href="#CMR17-61"/>
     <use transform="translate(1236.48373 0)scale(0.996264)" xlink:href="#CMR17-74"/>
     <use transform="translate(1271.764498 0)scale(0.996264)" xlink:href="#CMR17-69"/>
     <use transform="translate(1296.635557 0)scale(0.996264)" xlink:href="#CMR17-6e"/>
     <use transform="translate(1347.530927 0)scale(0.996264)" xlink:href="#CMR17-67"/>
     <use transform="translate(1393.221404 0)scale(0.996264)" xlink:href="#CMR17-3a"/>
     <use transform="translate(1458.578123 0)scale(0.996264)" xlink:href="#CMR17-74"/>
     <use transform="translate(1493.85889 0)scale(0.996264)" xlink:href="#CMR17-72"/>
     <use transform="translate(1529.139658 0)scale(0.996264)" xlink:href="#CMR17-61"/>
     <use transform="translate(1574.830135 0)scale(0.996264)" xlink:href="#CMR17-63"/>
     <use transform="translate(1615.315796 0)scale(0.996264)" xlink:href="#CMR17-65"/>
     <use transform="translate(1655.801456 0)scale(0.996264)" xlink:href="#CMR17-28"/>
     <use transform="translate(1691.082224 0)scale(0.996264)" xlink:href="#CMBX12-41"/>
     <use transform="translate(1775.718619 36.153639)scale(0.697382)" xlink:href="#MSAM10-7c"/>
     <use transform="translate(1814.960287 0)scale(0.996264)" xlink:href="#CMBX12-41"/>
     <use transform="translate(1921.735888 0)scale(0.996264)" xlink:href="#CMR17-2b"/>
     <use transform="translate(2015.589884 0)scale(0.996264)" xlink:href="#CMMI12-74"/>
     <use transform="translate(2050.816214 0)scale(0.996264)" xlink:href="#CMBX12-49"/>
     <use transform="translate(2092.557922 0)scale(0.996264)" xlink:href="#CMR17-29"/>
     <use transform="translate(2127.83869 36.153639)scale(0.697382)" xlink:href="#CMSY10-0"/>
     <use transform="translate(2182.079683 36.153639)scale(0.697382)" xlink:href="#CMR17-31"/>
    </g>
   </g>
   <g id="legend_1">
    <g id="patch_7">
     <path d="M 61.916726 264.824 
L 265.914007 264.824 
Q 268.313047 264.824 268.313047 262.42496 
L 268.313047 227.728551 
Q 268.313047 225.329511 265.914007 225.329511 
L 61.916726 225.329511 
Q 59.517686 225.329511 59.517686 227.728551 
L 59.517686 262.42496 
Q 59.517686 264.824 61.916726 264.824 
z
" style="fill:#ffffff;opacity:0.8;stroke:#cccccc;stroke-linejoin:miter;"/>
    </g>
    <g id="line2d_86">
     <path d="M 64.315766 234.892045 
L 88.306166 234.892045 
" style="fill:none;stroke:#000000;stroke-linecap:round;stroke-width:1.5;"/>
    </g>
    <g id="line2d_87"/>
    <g id="text_14">
     <!-- Estimated (using SLQ method) -->
     <g style="fill:#262626;" transform="translate(97.902326 239.090365)scale(0.119952 -0.119952)">
      <defs>
       <path d="M 1869 4326 
L 1869 4160 
C 2246 4160 2304 4122 2304 3820 
L 2304 2345 
C 2278 2377 2016 2790 1498 2790 
C 845 2790 211 2208 211 1364 
C 211 525 806 -64 1434 -64 
C 1978 -64 2259 337 2291 380 
L 2291 -63 
L 3066 -63 
L 3066 128 
C 2688 128 2630 166 2630 473 
L 2630 4396 
L 1869 4326 
z
M 2291 755 
C 2291 563 2176 390 2029 262 
C 1811 70 1594 38 1472 38 
C 1286 38 621 134 621 1356 
C 621 2612 1363 2688 1530 2688 
C 1824 2688 2061 2522 2208 2291 
C 2291 2157 2291 2138 2291 2023 
L 2291 755 
z
" id="CMR17-64" transform="scale(0.015625)"/>
       <path d="M 2803 4290 
C 2803 4404 2797 4411 2758 4411 
C 2720 4411 2707 4385 2682 4328 
L 2490 3907 
C 2246 4257 1875 4416 1472 4416 
C 819 4416 294 3901 294 3253 
C 294 3056 339 2776 557 2510 
C 794 2218 1018 2167 1530 2033 
C 1722 1982 2042 1899 2106 1874 
C 2470 1722 2662 1341 2662 985 
C 2662 527 2336 38 1779 38 
C 1094 38 454 419 410 1311 
C 403 1413 397 1419 352 1419 
C 301 1419 294 1413 294 1285 
L 294 -1 
C 294 -115 301 -122 339 -122 
C 384 -122 397 -90 486 108 
C 493 127 493 140 614 381 
C 934 -39 1472 -128 1779 -128 
C 2477 -128 2970 451 2970 1124 
C 2970 1454 2848 1708 2778 1823 
C 2509 2230 2221 2306 1914 2382 
C 1869 2402 1856 2402 1498 2490 
C 1152 2579 1005 2624 845 2796 
C 666 2992 602 3196 602 3399 
C 602 3812 934 4263 1478 4263 
C 2157 4263 2579 3786 2675 2993 
C 2694 2878 2701 2872 2746 2872 
C 2803 2872 2803 2891 2803 2999 
L 2803 4290 
z
" id="CMR17-53" transform="scale(0.015625)"/>
       <path d="M 3469 1615 
L 3354 1615 
C 3302 983 3219 166 2125 166 
L 1530 166 
C 1274 166 1261 197 1261 414 
L 1261 3898 
C 1261 4129 1274 4192 1760 4192 
L 1901 4192 
L 1901 4352 
C 1638 4352 1331 4352 1069 4352 
C 870 4352 512 4352 326 4352 
L 326 4192 
C 768 4192 838 4192 838 3905 
L 838 452 
C 838 166 768 166 326 166 
L 326 0 
L 3315 0 
L 3469 1615 
z
" id="CMR17-4c" transform="scale(0.015625)"/>
       <path d="M 3027 83 
C 3789 408 4307 1236 4307 2193 
C 4307 3499 3366 4480 2304 4480 
C 1216 4480 294 3488 294 2199 
C 294 928 1216 -64 2304 -64 
C 2451 -64 2656 -45 2899 38 
C 3008 -747 3078 -1216 3629 -1216 
C 4307 -1216 4339 -213 4339 -33 
C 4339 32 4339 76 4294 76 
C 4262 76 4256 31 4256 18 
C 4211 -603 3866 -732 3661 -732 
C 3283 -732 3149 -394 3027 83 
z
M 1958 100 
C 1293 310 768 1017 768 2199 
C 768 3711 1606 4365 2298 4365 
C 3014 4365 3834 3686 3834 2198 
C 3834 1124 3405 527 2976 254 
C 2880 579 2726 960 2310 960 
C 2003 960 1830 692 1830 450 
C 1830 304 1888 183 1958 100 
z
M 2874 192 
C 2618 57 2413 57 2304 57 
C 2016 57 1933 315 1933 454 
C 1933 650 2067 858 2310 858 
C 2720 858 2822 493 2874 192 
z
" id="CMR17-51" transform="scale(0.015625)"/>
       <path d="M 2656 1933 
C 2656 2259 2592 2790 1837 2790 
C 1312 2790 1056 2368 979 2157 
L 973 2157 
L 973 4396 
L 211 4326 
L 211 4160 
C 589 4160 646 4122 646 3817 
L 646 426 
C 646 184 621 153 211 153 
L 211 -13 
C 365 0 646 0 813 0 
C 979 0 1267 0 1421 -13 
L 1421 153 
C 1011 153 986 178 986 428 
L 986 1658 
C 986 2247 1344 2688 1792 2688 
C 2266 2688 2317 2266 2317 1958 
L 2317 428 
C 2317 184 2291 153 1882 153 
L 1882 -13 
C 2035 0 2317 0 2483 0 
C 2650 0 2938 0 3091 -13 
L 3091 153 
C 2682 153 2656 178 2656 428 
L 2656 1933 
z
" id="CMR17-68" transform="scale(0.015625)"/>
       <path d="M 2758 1356 
C 2758 2176 2163 2816 1466 2816 
C 768 2816 173 2176 173 1356 
C 173 551 768 -64 1466 -64 
C 2163 -64 2758 551 2758 1356 
z
M 1466 51 
C 1165 51 909 230 762 480 
C 602 767 582 1126 582 1408 
C 582 1677 595 2010 762 2298 
C 890 2509 1139 2714 1466 2714 
C 1754 2714 1997 2554 2150 2330 
C 2349 2029 2349 1607 2349 1408 
C 2349 1158 2336 775 2163 467 
C 1984 173 1709 51 1466 51 
z
" id="CMR17-6f" transform="scale(0.015625)"/>
      </defs>
      <use transform="scale(0.996264)" xlink:href="#CMR17-45"/>
      <use transform="translate(62.586301 0)scale(0.996264)" xlink:href="#CMR17-73"/>
      <use transform="translate(98.387638 0)scale(0.996264)" xlink:href="#CMR17-74"/>
      <use transform="translate(133.668406 0)scale(0.996264)" xlink:href="#CMR17-69"/>
      <use transform="translate(158.539464 0)scale(0.996264)" xlink:href="#CMR17-6d"/>
      <use transform="translate(235.459054 0)scale(0.996264)" xlink:href="#CMR17-61"/>
      <use transform="translate(281.149531 0)scale(0.996264)" xlink:href="#CMR17-74"/>
      <use transform="translate(316.430299 0)scale(0.996264)" xlink:href="#CMR17-65"/>
      <use transform="translate(356.91596 0)scale(0.996264)" xlink:href="#CMR17-64"/>
      <use transform="translate(437.887296 0)scale(0.996264)" xlink:href="#CMR17-28"/>
      <use transform="translate(473.168064 0)scale(0.996264)" xlink:href="#CMR17-75"/>
      <use transform="translate(524.063433 0)scale(0.996264)" xlink:href="#CMR17-73"/>
      <use transform="translate(559.864771 0)scale(0.996264)" xlink:href="#CMR17-69"/>
      <use transform="translate(584.73583 0)scale(0.996264)" xlink:href="#CMR17-6e"/>
      <use transform="translate(635.631199 0)scale(0.996264)" xlink:href="#CMR17-67"/>
      <use transform="translate(711.397643 0)scale(0.996264)" xlink:href="#CMR17-53"/>
      <use transform="translate(762.293013 0)scale(0.996264)" xlink:href="#CMR17-4c"/>
      <use transform="translate(819.67442 0)scale(0.996264)" xlink:href="#CMR17-51"/>
      <use transform="translate(921.465175 0)scale(0.996264)" xlink:href="#CMR17-6d"/>
      <use transform="translate(998.384765 0)scale(0.996264)" xlink:href="#CMR17-65"/>
      <use transform="translate(1038.870425 0)scale(0.996264)" xlink:href="#CMR17-74"/>
      <use transform="translate(1074.151193 0)scale(0.996264)" xlink:href="#CMR17-68"/>
      <use transform="translate(1125.046563 0)scale(0.996264)" xlink:href="#CMR17-6f"/>
      <use transform="translate(1173.339479 0)scale(0.996264)" xlink:href="#CMR17-64"/>
      <use transform="translate(1224.234849 0)scale(0.996264)" xlink:href="#CMR17-29"/>
     </g>
    </g>
    <g id="line2d_88">
     <path d="M 64.315766 252.840009 
L 88.306166 252.840009 
" style="fill:none;stroke:#800000;stroke-linecap:round;stroke-width:1.5;"/>
    </g>
    <g id="line2d_89"/>
    <g id="text_15">
     <!-- Exact (using Cholesky method) -->
     <g style="fill:#262626;" transform="translate(97.902326 257.038329)scale(0.119952 -0.119952)">
      <defs>
       <path d="M 3974 4289 
C 3974 4403 3968 4410 3930 4410 
C 3904 4410 3898 4403 3853 4327 
L 3571 3792 
C 3258 4187 2874 4416 2381 4416 
C 1286 4416 294 3456 294 2148 
C 294 826 1286 -128 2387 -128 
C 3366 -128 3974 730 3974 1461 
C 3974 1524 3974 1550 3917 1550 
C 3866 1550 3866 1531 3859 1474 
C 3808 585 3168 38 2477 38 
C 1824 38 781 495 781 2147 
C 781 3805 1843 4250 2464 4250 
C 3187 4250 3712 3628 3834 2745 
C 3846 2668 3846 2655 3904 2655 
C 3974 2655 3974 2668 3974 2783 
L 3974 4289 
z
" id="CMR17-43" transform="scale(0.015625)"/>
       <path d="M 979 4396 
L 218 4326 
L 218 4160 
C 595 4160 653 4122 653 3817 
L 653 426 
C 653 184 627 153 218 153 
L 218 -13 
C 371 0 653 0 813 0 
C 979 0 1261 0 1414 -13 
L 1414 153 
C 1005 153 979 178 979 426 
L 979 4396 
z
" id="CMR17-6c" transform="scale(0.015625)"/>
       <path d="M 1670 1673 
C 1664 1686 1632 1724 1632 1743 
C 1632 1756 2086 2171 2144 2222 
C 2509 2528 2739 2560 2906 2560 
L 2906 2733 
C 2867 2733 2854 2733 2848 2720 
L 2534 2720 
C 2355 2720 2080 2720 1907 2733 
L 1907 2566 
C 1997 2559 2061 2508 2061 2419 
C 2061 2291 1933 2170 1926 2170 
L 960 1289 
L 960 4396 
L 198 4326 
L 198 4160 
C 576 4160 634 4122 634 3817 
L 634 426 
C 634 184 608 153 198 153 
L 198 -13 
C 352 0 634 0 794 0 
C 954 0 1235 0 1389 -13 
L 1389 153 
C 979 153 954 178 954 428 
L 954 1130 
L 1395 1532 
L 2042 574 
C 2118 459 2182 369 2182 286 
C 2182 172 2067 153 1990 153 
L 1990 -13 
C 2144 0 2419 0 2579 0 
C 2694 0 2931 0 3040 0 
L 3040 153 
C 2739 153 2669 210 2477 491 
L 1670 1673 
z
" id="CMR17-6b" transform="scale(0.015625)"/>
       <path d="M 2496 2197 
C 2656 2586 2944 2586 3034 2586 
L 3034 2752 
C 2912 2752 2752 2752 2630 2752 
C 2496 2752 2285 2752 2157 2758 
L 2157 2592 
C 2400 2573 2406 2394 2406 2343 
C 2406 2280 2394 2248 2362 2171 
L 1664 449 
L 902 2306 
C 870 2382 870 2426 870 2433 
C 870 2573 1018 2586 1171 2586 
L 1171 2758 
C 1018 2752 742 2752 582 2752 
C 410 2752 205 2752 64 2758 
L 64 2586 
C 410 2586 448 2554 531 2350 
L 1485 15 
C 1197 -738 1030 -1178 627 -1178 
C 557 -1178 397 -1159 282 -1044 
C 429 -1031 493 -942 493 -833 
C 493 -725 416 -629 288 -629 
C 147 -629 77 -725 77 -840 
C 77 -1095 339 -1280 627 -1280 
C 998 -1280 1229 -922 1357 -604 
L 2496 2197 
z
" id="CMR17-79" transform="scale(0.015625)"/>
      </defs>
      <use transform="scale(0.996264)" xlink:href="#CMR17-45"/>
      <use transform="translate(62.586301 0)scale(0.996264)" xlink:href="#CMR17-78"/>
      <use transform="translate(110.879216 0)scale(0.996264)" xlink:href="#CMR17-61"/>
      <use transform="translate(156.569693 0)scale(0.996264)" xlink:href="#CMR17-63"/>
      <use transform="translate(197.055354 0)scale(0.996264)" xlink:href="#CMR17-74"/>
      <use transform="translate(262.412088 0)scale(0.996264)" xlink:href="#CMR17-28"/>
      <use transform="translate(297.692856 0)scale(0.996264)" xlink:href="#CMR17-75"/>
      <use transform="translate(348.588226 0)scale(0.996264)" xlink:href="#CMR17-73"/>
      <use transform="translate(384.389563 0)scale(0.996264)" xlink:href="#CMR17-69"/>
      <use transform="translate(409.260622 0)scale(0.996264)" xlink:href="#CMR17-6e"/>
      <use transform="translate(460.155992 0)scale(0.996264)" xlink:href="#CMR17-67"/>
      <use transform="translate(535.922435 0)scale(0.996264)" xlink:href="#CMR17-43"/>
      <use transform="translate(602.432316 0)scale(0.996264)" xlink:href="#CMR17-68"/>
      <use transform="translate(653.327685 0)scale(0.996264)" xlink:href="#CMR17-6f"/>
      <use transform="translate(699.018162 0)scale(0.996264)" xlink:href="#CMR17-6c"/>
      <use transform="translate(723.889221 0)scale(0.996264)" xlink:href="#CMR17-65"/>
      <use transform="translate(764.374881 0)scale(0.996264)" xlink:href="#CMR17-73"/>
      <use transform="translate(800.176219 0)scale(0.996264)" xlink:href="#CMR17-6b"/>
      <use transform="translate(848.469135 0)scale(0.996264)" xlink:href="#CMR17-79"/>
      <use transform="translate(926.838017 0)scale(0.996264)" xlink:href="#CMR17-6d"/>
      <use transform="translate(1003.757607 0)scale(0.996264)" xlink:href="#CMR17-65"/>
      <use transform="translate(1044.243267 0)scale(0.996264)" xlink:href="#CMR17-74"/>
      <use transform="translate(1079.524035 0)scale(0.996264)" xlink:href="#CMR17-68"/>
      <use transform="translate(1130.419405 0)scale(0.996264)" xlink:href="#CMR17-6f"/>
      <use transform="translate(1178.712321 0)scale(0.996264)" xlink:href="#CMR17-64"/>
      <use transform="translate(1229.607691 0)scale(0.996264)" xlink:href="#CMR17-29"/>
     </g>
    </g>
   </g>
  </g>
  <g id="axes_2">
   <g id="matplotlib.axis_3">
    <g id="ytick_26">
     <g id="line2d_90">
      <defs>
       <path d="M 0 0 
L 6 0 
" id="m19cf3cc5d1" style="stroke:#262626;stroke-width:1.25;"/>
      </defs>
      <g>
       <use style="fill:#262626;stroke:#262626;stroke-width:1.25;" x="417.649575" xlink:href="#m19cf3cc5d1" y="261.142536"/>
      </g>
     </g>
     <g id="text_16">
      <!-- $10^{-3}\%$ -->
      <g style="fill:#262626;" transform="translate(427.149575 265.708733)scale(0.132 -0.132)">
       <defs>
        <path d="M 4640 959 
C 4640 1698 4275 2240 3846 2240 
C 3411 2240 2970 1736 2970 959 
C 2970 183 3405 -320 3846 -320 
C 4275 -320 4640 215 4640 959 
z
M 3853 -218 
C 3686 -218 3270 -66 3270 959 
C 3270 1991 3686 2138 3853 2138 
C 4205 2138 4525 1634 4525 959 
C 4525 285 4205 -218 3853 -218 
z
M 4083 4577 
C 4128 4647 4134 4653 4134 4685 
C 4134 4761 4077 4800 4026 4800 
C 3962 4800 3936 4756 3891 4706 
C 3520 4190 3008 4134 2746 4134 
C 2106 4134 1715 4494 1594 4607 
C 1510 4682 1389 4800 1171 4800 
C 736 4800 294 4296 294 3519 
C 294 2743 730 2240 1171 2240 
C 1600 2240 1965 2778 1965 3527 
C 1965 3969 1830 4270 1811 4308 
C 2202 4064 2586 4032 2752 4032 
C 3162 4032 3456 4183 3616 4289 
L 3622 4283 
L 858 -84 
C 800 -174 800 -187 800 -206 
C 800 -276 858 -320 915 -320 
C 973 -320 992 -289 1037 -218 
L 4083 4577 
z
M 1178 2342 
C 1011 2342 595 2494 595 3519 
C 595 4551 1011 4698 1178 4698 
C 1530 4698 1850 4194 1850 3519 
C 1850 2845 1530 2342 1178 2342 
z
" id="CMR17-25" transform="scale(0.015625)"/>
       </defs>
       <use transform="scale(0.996264)" xlink:href="#CMR17-31"/>
       <use transform="translate(45.690477 0)scale(0.996264)" xlink:href="#CMR17-30"/>
       <use transform="translate(91.380954 36.153639)scale(0.697382)" xlink:href="#CMSY10-0"/>
       <use transform="translate(145.621947 36.153639)scale(0.697382)" xlink:href="#CMR17-33"/>
       <use transform="translate(178.103261 0)scale(0.996264)" xlink:href="#CMR17-25"/>
      </g>
     </g>
    </g>
    <g id="ytick_27">
     <g id="line2d_91">
      <g>
       <use style="fill:#262626;stroke:#262626;stroke-width:1.25;" x="417.649575" xlink:href="#m19cf3cc5d1" y="154.855274"/>
      </g>
     </g>
     <g id="text_17">
      <!-- $10^{-2}\%$ -->
      <g style="fill:#262626;" transform="translate(427.149575 159.421471)scale(0.132 -0.132)">
       <use transform="scale(0.996264)" xlink:href="#CMR17-31"/>
       <use transform="translate(45.690477 0)scale(0.996264)" xlink:href="#CMR17-30"/>
       <use transform="translate(91.380954 36.153639)scale(0.697382)" xlink:href="#CMSY10-0"/>
       <use transform="translate(145.621947 36.153639)scale(0.697382)" xlink:href="#CMR17-32"/>
       <use transform="translate(178.103261 0)scale(0.996264)" xlink:href="#CMR17-25"/>
      </g>
     </g>
    </g>
    <g id="ytick_28">
     <g id="line2d_92">
      <g>
       <use style="fill:#262626;stroke:#262626;stroke-width:1.25;" x="417.649575" xlink:href="#m19cf3cc5d1" y="48.568012"/>
      </g>
     </g>
     <g id="text_18">
      <!-- $10^{-1}\%$ -->
      <g style="fill:#262626;" transform="translate(427.149575 53.134209)scale(0.132 -0.132)">
       <use transform="scale(0.996264)" xlink:href="#CMR17-31"/>
       <use transform="translate(45.690477 0)scale(0.996264)" xlink:href="#CMR17-30"/>
       <use transform="translate(91.380954 36.153639)scale(0.697382)" xlink:href="#CMSY10-0"/>
       <use transform="translate(145.621947 36.153639)scale(0.697382)" xlink:href="#CMR17-31"/>
       <use transform="translate(178.103261 0)scale(0.996264)" xlink:href="#CMR17-25"/>
      </g>
     </g>
    </g>
    <g id="ytick_29">
     <g id="line2d_93">
      <defs>
       <path d="M 0 0 
L 4 0 
" id="m1a7c3c46fb" style="stroke:#262626;"/>
      </defs>
      <g>
       <use style="fill:#262626;stroke:#262626;" x="417.649575" xlink:href="#m1a7c3c46fb" y="293.13819"/>
      </g>
     </g>
    </g>
    <g id="ytick_30">
     <g id="line2d_94">
      <g>
       <use style="fill:#262626;stroke:#262626;" x="417.649575" xlink:href="#m1a7c3c46fb" y="284.722232"/>
      </g>
     </g>
    </g>
    <g id="ytick_31">
     <g id="line2d_95">
      <g>
       <use style="fill:#262626;stroke:#262626;" x="417.649575" xlink:href="#m1a7c3c46fb" y="277.606641"/>
      </g>
     </g>
    </g>
    <g id="ytick_32">
     <g id="line2d_96">
      <g>
       <use style="fill:#262626;stroke:#262626;" x="417.649575" xlink:href="#m1a7c3c46fb" y="271.442836"/>
      </g>
     </g>
    </g>
    <g id="ytick_33">
     <g id="line2d_97">
      <g>
       <use style="fill:#262626;stroke:#262626;" x="417.649575" xlink:href="#m1a7c3c46fb" y="266.005974"/>
      </g>
     </g>
    </g>
    <g id="ytick_34">
     <g id="line2d_98">
      <g>
       <use style="fill:#262626;stroke:#262626;" x="417.649575" xlink:href="#m1a7c3c46fb" y="229.146882"/>
      </g>
     </g>
    </g>
    <g id="ytick_35">
     <g id="line2d_99">
      <g>
       <use style="fill:#262626;stroke:#262626;" x="417.649575" xlink:href="#m1a7c3c46fb" y="210.430624"/>
      </g>
     </g>
    </g>
    <g id="ytick_36">
     <g id="line2d_100">
      <g>
       <use style="fill:#262626;stroke:#262626;" x="417.649575" xlink:href="#m1a7c3c46fb" y="197.151228"/>
      </g>
     </g>
    </g>
    <g id="ytick_37">
     <g id="line2d_101">
      <g>
       <use style="fill:#262626;stroke:#262626;" x="417.649575" xlink:href="#m1a7c3c46fb" y="186.850928"/>
      </g>
     </g>
    </g>
    <g id="ytick_38">
     <g id="line2d_102">
      <g>
       <use style="fill:#262626;stroke:#262626;" x="417.649575" xlink:href="#m1a7c3c46fb" y="178.43497"/>
      </g>
     </g>
    </g>
    <g id="ytick_39">
     <g id="line2d_103">
      <g>
       <use style="fill:#262626;stroke:#262626;" x="417.649575" xlink:href="#m1a7c3c46fb" y="171.319379"/>
      </g>
     </g>
    </g>
    <g id="ytick_40">
     <g id="line2d_104">
      <g>
       <use style="fill:#262626;stroke:#262626;" x="417.649575" xlink:href="#m1a7c3c46fb" y="165.155574"/>
      </g>
     </g>
    </g>
    <g id="ytick_41">
     <g id="line2d_105">
      <g>
       <use style="fill:#262626;stroke:#262626;" x="417.649575" xlink:href="#m1a7c3c46fb" y="159.718712"/>
      </g>
     </g>
    </g>
    <g id="ytick_42">
     <g id="line2d_106">
      <g>
       <use style="fill:#262626;stroke:#262626;" x="417.649575" xlink:href="#m1a7c3c46fb" y="122.85962"/>
      </g>
     </g>
    </g>
    <g id="ytick_43">
     <g id="line2d_107">
      <g>
       <use style="fill:#262626;stroke:#262626;" x="417.649575" xlink:href="#m1a7c3c46fb" y="104.143362"/>
      </g>
     </g>
    </g>
    <g id="ytick_44">
     <g id="line2d_108">
      <g>
       <use style="fill:#262626;stroke:#262626;" x="417.649575" xlink:href="#m1a7c3c46fb" y="90.863966"/>
      </g>
     </g>
    </g>
    <g id="ytick_45">
     <g id="line2d_109">
      <g>
       <use style="fill:#262626;stroke:#262626;" x="417.649575" xlink:href="#m1a7c3c46fb" y="80.563666"/>
      </g>
     </g>
    </g>
    <g id="ytick_46">
     <g id="line2d_110">
      <g>
       <use style="fill:#262626;stroke:#262626;" x="417.649575" xlink:href="#m1a7c3c46fb" y="72.147708"/>
      </g>
     </g>
    </g>
    <g id="ytick_47">
     <g id="line2d_111">
      <g>
       <use style="fill:#262626;stroke:#262626;" x="417.649575" xlink:href="#m1a7c3c46fb" y="65.032117"/>
      </g>
     </g>
    </g>
    <g id="ytick_48">
     <g id="line2d_112">
      <g>
       <use style="fill:#262626;stroke:#262626;" x="417.649575" xlink:href="#m1a7c3c46fb" y="58.868312"/>
      </g>
     </g>
    </g>
    <g id="ytick_49">
     <g id="line2d_113">
      <g>
       <use style="fill:#262626;stroke:#262626;" x="417.649575" xlink:href="#m1a7c3c46fb" y="53.43145"/>
      </g>
     </g>
    </g>
    <g id="text_19">
     <!-- Relative error -->
     <g style="fill:#262626;" transform="translate(477.306473 203.728168)rotate(-90)scale(0.144 -0.144)">
      <defs>
       <path d="M 2509 2146 
C 3117 2268 3629 2676 3629 3186 
C 3629 3785 2950 4326 2054 4326 
L 333 4326 
L 333 4160 
C 774 4160 845 4160 845 3873 
L 845 415 
C 845 128 774 128 333 128 
L 333 -26 
C 518 -26 851 -26 1050 -26 
C 1248 -26 1581 -26 1766 -26 
L 1766 128 
C 1325 128 1254 128 1254 417 
L 1254 2112 
L 2003 2112 
C 2368 2112 2573 1964 2662 1881 
C 2918 1632 2918 1459 2918 1024 
C 2918 595 2918 377 3110 160 
C 3354 -102 3680 -128 3821 -128 
C 4294 -128 4365 396 4365 503 
C 4365 540 4365 585 4307 585 
C 4256 585 4250 547 4250 522 
C 4218 112 4032 -26 3834 -26 
C 3482 -26 3443 375 3405 764 
C 3386 898 3373 993 3360 1133 
C 3322 1452 3270 1917 2509 2146 
z
M 1984 2214 
L 1254 2214 
L 1254 3913 
C 1254 4129 1267 4160 1523 4160 
L 1990 4160 
C 2522 4160 3142 3977 3142 3190 
C 3142 2372 2464 2214 1984 2214 
z
" id="CMR17-52" transform="scale(0.015625)"/>
       <path d="M 2502 2163 
C 2560 2304 2662 2560 3034 2560 
L 3034 2726 
C 2912 2726 2752 2726 2630 2726 
C 2496 2726 2285 2726 2157 2732 
L 2157 2566 
C 2317 2553 2406 2477 2406 2311 
C 2406 2253 2406 2240 2368 2151 
L 1664 377 
L 902 2286 
C 864 2369 864 2381 864 2407 
C 864 2560 1075 2560 1171 2560 
L 1171 2732 
C 1018 2726 736 2726 576 2726 
C 403 2726 205 2726 64 2732 
L 64 2560 
C 307 2560 442 2560 518 2362 
L 1446 44 
C 1485 -51 1491 -64 1549 -64 
C 1606 -64 1613 -51 1651 44 
L 2502 2163 
z
" id="CMR17-76" transform="scale(0.015625)"/>
      </defs>
      <use transform="scale(0.996264)" xlink:href="#CMR17-52"/>
      <use transform="translate(67.791102 0)scale(0.996264)" xlink:href="#CMR17-65"/>
      <use transform="translate(108.276762 0)scale(0.996264)" xlink:href="#CMR17-6c"/>
      <use transform="translate(133.147821 0)scale(0.996264)" xlink:href="#CMR17-61"/>
      <use transform="translate(178.838298 0)scale(0.996264)" xlink:href="#CMR17-74"/>
      <use transform="translate(214.119066 0)scale(0.996264)" xlink:href="#CMR17-69"/>
      <use transform="translate(238.990124 0)scale(0.996264)" xlink:href="#CMR17-76"/>
      <use transform="translate(284.680586 0)scale(0.996264)" xlink:href="#CMR17-65"/>
      <use transform="translate(355.242213 0)scale(0.996264)" xlink:href="#CMR17-65"/>
      <use transform="translate(395.727874 0)scale(0.996264)" xlink:href="#CMR17-72"/>
      <use transform="translate(431.008641 0)scale(0.996264)" xlink:href="#CMR17-72"/>
      <use transform="translate(466.289409 0)scale(0.996264)" xlink:href="#CMR17-6f"/>
      <use transform="translate(511.979886 0)scale(0.996264)" xlink:href="#CMR17-72"/>
     </g>
    </g>
   </g>
   <g id="line2d_114">
    <path clip-path="url(#padeebfb7da)" d="M 53.520086 37.250471 
L 60.9513 37.254871 
L 68.382514 37.260701 
L 75.813728 37.268428 
L 83.244942 37.278666 
L 90.676156 37.29223 
L 98.10737 37.310196 
L 105.538584 37.333986 
L 112.969798 37.365477 
L 120.401012 37.40714 
L 127.832226 37.462228 
L 135.26344 37.535004 
L 142.694654 37.631045 
L 150.125868 37.757609 
L 157.557083 37.924099 
L 164.988297 38.142616 
L 172.419511 38.428606 
L 179.850725 38.801601 
L 187.281939 39.286041 
L 194.713153 39.912137 
L 202.144367 40.71678 
L 209.575581 41.744447 
L 217.006795 43.048038 
L 224.438009 44.689464 
L 231.869223 46.739596 
L 239.300437 49.276943 
L 246.731651 52.384477 
L 254.162865 56.144419 
L 261.594079 60.631516 
L 269.025293 65.905977 
L 276.456508 72.007342 
L 283.887722 78.950315 
L 291.318936 86.723197 
L 298.75015 95.289173 
L 306.181364 104.590216 
L 313.612578 114.55291 
L 321.043792 125.095106 
L 328.475006 136.132328 
L 335.90622 147.583083 
L 343.337434 159.37264 
L 350.768648 171.435205 
L 358.199862 183.714738 
L 365.631076 196.16476 
L 373.06229 208.747533 
L 380.493504 221.432924 
L 387.924718 234.197191 
L 395.355933 247.021817 
L 402.787147 259.892475 
L 410.218361 272.798146 
L 417.649575 285.730396 
" style="fill:none;stroke:#000000;stroke-dasharray:5.55,2.4;stroke-dashoffset:0;stroke-width:1.5;"/>
   </g>
   <g id="patch_8">
    <path d="M 53.520086 298.154392 
L 53.520086 24.826475 
" style="fill:none;stroke:#262626;stroke-linecap:square;stroke-linejoin:miter;stroke-width:1.25;"/>
   </g>
   <g id="patch_9">
    <path d="M 417.649575 298.154392 
L 417.649575 24.826475 
" style="fill:none;stroke:#262626;stroke-linecap:square;stroke-linejoin:miter;stroke-width:1.25;"/>
   </g>
   <g id="patch_10">
    <path d="M 53.520086 298.154392 
L 417.649575 298.154392 
" style="fill:none;stroke:#262626;stroke-linecap:square;stroke-linejoin:miter;stroke-width:1.25;"/>
   </g>
   <g id="patch_11">
    <path d="M 53.520086 24.826475 
L 417.649575 24.826475 
" style="fill:none;stroke:#262626;stroke-linecap:square;stroke-linejoin:miter;stroke-width:1.25;"/>
   </g>
   <g id="legend_2">
    <g id="patch_12">
     <path d="M 61.916726 291.669126 
L 172.26934 291.669126 
Q 174.66838 291.669126 174.66838 289.270086 
L 174.66838 273.751682 
Q 174.66838 271.352642 172.26934 271.352642 
L 61.916726 271.352642 
Q 59.517686 271.352642 59.517686 273.751682 
L 59.517686 289.270086 
Q 59.517686 291.669126 61.916726 291.669126 
z
" style="fill:#ffffff;opacity:0.8;stroke:#cccccc;stroke-linejoin:miter;"/>
    </g>
    <g id="line2d_115">
     <path d="M 64.315766 280.349042 
L 88.306166 280.349042 
" style="fill:none;stroke:#000000;stroke-dasharray:5.55,2.4;stroke-dashoffset:0;stroke-width:1.5;"/>
    </g>
    <g id="line2d_116"/>
    <g id="text_20">
     <!-- Relative error -->
     <g style="fill:#262626;" transform="translate(97.902326 284.547362)scale(0.119952 -0.119952)">
      <use transform="scale(0.996264)" xlink:href="#CMR17-52"/>
      <use transform="translate(67.791102 0)scale(0.996264)" xlink:href="#CMR17-65"/>
      <use transform="translate(108.276762 0)scale(0.996264)" xlink:href="#CMR17-6c"/>
      <use transform="translate(133.147821 0)scale(0.996264)" xlink:href="#CMR17-61"/>
      <use transform="translate(178.838298 0)scale(0.996264)" xlink:href="#CMR17-74"/>
      <use transform="translate(214.119066 0)scale(0.996264)" xlink:href="#CMR17-69"/>
      <use transform="translate(238.990124 0)scale(0.996264)" xlink:href="#CMR17-76"/>
      <use transform="translate(284.680586 0)scale(0.996264)" xlink:href="#CMR17-65"/>
      <use transform="translate(355.242213 0)scale(0.996264)" xlink:href="#CMR17-65"/>
      <use transform="translate(395.727874 0)scale(0.996264)" xlink:href="#CMR17-72"/>
      <use transform="translate(431.008641 0)scale(0.996264)" xlink:href="#CMR17-72"/>
      <use transform="translate(466.289409 0)scale(0.996264)" xlink:href="#CMR17-6f"/>
      <use transform="translate(511.979886 0)scale(0.996264)" xlink:href="#CMR17-72"/>
     </g>
    </g>
   </g>
  </g>
 </g>
 <defs>
  <clipPath id="padeebfb7da">
   <rect height="273.327917" width="364.129489" x="53.520086" y="24.826475"/>
  </clipPath>
 </defs>
</svg>
