<?xml version="1.0" encoding="utf-8" standalone="no"?>
<!DOCTYPE svg PUBLIC "-//W3C//DTD SVG 1.1//EN"
  "http://www.w3.org/Graphics/SVG/1.1/DTD/svg11.dtd">
<svg height="341.768083pt" version="1.1" viewBox="0 0 746.446425 341.768083" width="746.446425pt" xmlns="http://www.w3.org/2000/svg" xmlns:xlink="http://www.w3.org/1999/xlink">
 <metadata>
  <rdf:RDF xmlns:cc="http://creativecommons.org/ns#" xmlns:dc="http://purl.org/dc/elements/1.1/" xmlns:rdf="http://www.w3.org/1999/02/22-rdf-syntax-ns#">
   <cc:Work>
    <dc:type rdf:resource="http://purl.org/dc/dcmitype/StillImage"/>
    <dc:date>2021-08-16T19:14:31.317357</dc:date>
    <dc:format>image/svg+xml</dc:format>
    <dc:creator>
     <cc:Agent>
      <dc:title>Matplotlib v3.4.2, https://matplotlib.org/</dc:title>
     </cc:Agent>
    </dc:creator>
   </cc:Work>
  </rdf:RDF>
 </metadata>
 <defs>
  <style type="text/css">*{stroke-linecap:butt;stroke-linejoin:round;}</style>
 </defs>
 <g id="figure_1">
  <g id="patch_1">
   <path d="M 0 341.768083 
L 746.446425 341.768083 
L 746.446425 0 
L 0 0 
z
" style="fill:none;"/>
  </g>
  <g id="axes_1">
   <g id="patch_2">
    <path d="M 69.646425 296.626475 
L 739.246425 296.626475 
L 739.246425 24.826475 
L 69.646425 24.826475 
z
" style="fill:none;"/>
   </g>
   <g id="matplotlib.axis_1">
    <g id="xtick_1">
     <g id="line2d_1">
      <defs>
       <path d="M 0 0 
L 0 6 
" id="ma29aaac9bd" style="stroke:#262626;stroke-width:1.25;"/>
      </defs>
      <g>
       <use style="fill:#262626;stroke:#262626;stroke-width:1.25;" x="126.919295" xlink:href="#ma29aaac9bd" y="296.626475"/>
      </g>
     </g>
     <g id="text_1">
      <!-- $\mathdefault{2^{8}}$ -->
      <g style="fill:#262626;" transform="translate(121.334898 315.25887)scale(0.132 -0.132)">
       <defs>
        <path d="M 2669 989 
L 2554 989 
C 2490 536 2438 459 2413 420 
C 2381 369 1920 369 1830 369 
L 602 369 
C 832 619 1280 1072 1824 1597 
C 2214 1967 2669 2402 2669 3035 
C 2669 3790 2067 4224 1395 4224 
C 691 4224 262 3604 262 3030 
C 262 2780 448 2748 525 2748 
C 589 2748 781 2787 781 3010 
C 781 3207 614 3264 525 3264 
C 486 3264 448 3258 422 3245 
C 544 3790 915 4058 1306 4058 
C 1862 4058 2227 3617 2227 3035 
C 2227 2479 1901 2000 1536 1584 
L 262 146 
L 262 0 
L 2515 0 
L 2669 989 
z
" id="CMR17-32" transform="scale(0.015625)"/>
        <path d="M 1741 2264 
C 2144 2467 2554 2773 2554 3263 
C 2554 3841 1990 4179 1472 4179 
C 890 4179 378 3759 378 3180 
C 378 3021 416 2747 666 2505 
C 730 2442 998 2251 1171 2130 
C 883 1983 211 1634 211 934 
C 211 279 838 -128 1459 -128 
C 2144 -128 2720 362 2720 1010 
C 2720 1590 2330 1857 2074 2029 
L 1741 2264 
z
M 902 2822 
C 851 2854 595 3051 595 3351 
C 595 3739 998 4032 1459 4032 
C 1965 4032 2336 3676 2336 3262 
C 2336 2669 1670 2331 1638 2331 
C 1632 2331 1626 2331 1574 2370 
L 902 2822 
z
M 2080 1519 
C 2176 1449 2483 1240 2483 851 
C 2483 381 2010 25 1472 25 
C 890 25 448 438 448 940 
C 448 1443 838 1862 1280 2060 
L 2080 1519 
z
" id="CMR17-38" transform="scale(0.015625)"/>
       </defs>
       <use transform="scale(0.996264)" xlink:href="#CMR17-32"/>
       <use transform="translate(45.690477 36.153639)scale(0.697382)" xlink:href="#CMR17-38"/>
      </g>
     </g>
    </g>
    <g id="xtick_2">
     <g id="line2d_2">
      <g>
       <use style="fill:#262626;stroke:#262626;stroke-width:1.25;" x="219.463971" xlink:href="#ma29aaac9bd" y="296.626475"/>
      </g>
     </g>
     <g id="text_2">
      <!-- $\mathdefault{2^{9}}$ -->
      <g style="fill:#262626;" transform="translate(213.879573 315.25887)scale(0.132 -0.132)">
       <defs>
        <path d="M 2253 1864 
C 2253 464 1670 31 1190 31 
C 1043 31 685 31 538 294 
C 704 268 826 357 826 518 
C 826 692 685 749 595 749 
C 538 749 365 723 365 506 
C 365 71 742 -128 1203 -128 
C 1939 -128 2688 674 2688 2073 
C 2688 3817 1971 4179 1485 4179 
C 851 4179 243 3628 243 2778 
C 243 1991 762 1408 1414 1408 
C 1952 1408 2189 1903 2253 2112 
L 2253 1864 
z
M 1427 1510 
C 1254 1510 1011 1542 813 1922 
C 678 2169 678 2461 678 2771 
C 678 3146 678 3405 858 3684 
C 947 3817 1114 4032 1485 4032 
C 2240 4032 2240 2885 2240 2632 
C 2240 2182 2035 1510 1427 1510 
z
" id="CMR17-39" transform="scale(0.015625)"/>
       </defs>
       <use transform="scale(0.996264)" xlink:href="#CMR17-32"/>
       <use transform="translate(45.690477 36.153639)scale(0.697382)" xlink:href="#CMR17-39"/>
      </g>
     </g>
    </g>
    <g id="xtick_3">
     <g id="line2d_3">
      <g>
       <use style="fill:#262626;stroke:#262626;stroke-width:1.25;" x="312.008646" xlink:href="#ma29aaac9bd" y="296.626475"/>
      </g>
     </g>
     <g id="text_3">
      <!-- $\mathdefault{2^{10}}$ -->
      <g style="fill:#262626;" transform="translate(304.058988 315.25887)scale(0.132 -0.132)">
       <defs>
        <path d="M 1702 4058 
C 1702 4192 1696 4192 1606 4192 
C 1357 3916 979 3827 621 3827 
C 602 3827 570 3827 563 3808 
C 557 3795 557 3782 557 3648 
C 755 3648 1088 3686 1344 3839 
L 1344 461 
C 1344 236 1331 160 781 160 
L 589 160 
L 589 0 
C 896 0 1216 0 1523 0 
C 1830 0 2150 0 2458 0 
L 2458 160 
L 2266 160 
C 1715 160 1702 230 1702 458 
L 1702 4058 
z
" id="CMR17-31" transform="scale(0.015625)"/>
        <path d="M 2688 2025 
C 2688 2416 2682 3080 2413 3591 
C 2176 4039 1798 4198 1466 4198 
C 1158 4198 768 4058 525 3597 
C 269 3118 243 2524 243 2025 
C 243 1661 250 1106 448 619 
C 723 -39 1216 -128 1466 -128 
C 1760 -128 2208 -7 2470 600 
C 2662 1042 2688 1559 2688 2025 
z
M 1466 -26 
C 1056 -26 813 325 723 812 
C 653 1188 653 1738 653 2096 
C 653 2588 653 2997 736 3387 
C 858 3929 1216 4096 1466 4096 
C 1728 4096 2067 3923 2189 3400 
C 2272 3036 2278 2607 2278 2096 
C 2278 1680 2278 1169 2202 792 
C 2067 95 1690 -26 1466 -26 
z
" id="CMR17-30" transform="scale(0.015625)"/>
       </defs>
       <use transform="scale(0.996264)" xlink:href="#CMR17-32"/>
       <use transform="translate(45.690477 36.153639)scale(0.697382)" xlink:href="#CMR17-31"/>
       <use transform="translate(77.673659 36.153639)scale(0.697382)" xlink:href="#CMR17-30"/>
      </g>
     </g>
    </g>
    <g id="xtick_4">
     <g id="line2d_4">
      <g>
       <use style="fill:#262626;stroke:#262626;stroke-width:1.25;" x="404.553322" xlink:href="#ma29aaac9bd" y="296.626475"/>
      </g>
     </g>
     <g id="text_4">
      <!-- $\mathdefault{2^{11}}$ -->
      <g style="fill:#262626;" transform="translate(396.603664 315.25887)scale(0.132 -0.132)">
       <use transform="scale(0.996264)" xlink:href="#CMR17-32"/>
       <use transform="translate(45.690477 36.153639)scale(0.697382)" xlink:href="#CMR17-31"/>
       <use transform="translate(77.673659 36.153639)scale(0.697382)" xlink:href="#CMR17-31"/>
      </g>
     </g>
    </g>
    <g id="xtick_5">
     <g id="line2d_5">
      <g>
       <use style="fill:#262626;stroke:#262626;stroke-width:1.25;" x="497.097997" xlink:href="#ma29aaac9bd" y="296.626475"/>
      </g>
     </g>
     <g id="text_5">
      <!-- $\mathdefault{2^{12}}$ -->
      <g style="fill:#262626;" transform="translate(489.148339 315.25887)scale(0.132 -0.132)">
       <use transform="scale(0.996264)" xlink:href="#CMR17-32"/>
       <use transform="translate(45.690477 36.153639)scale(0.697382)" xlink:href="#CMR17-31"/>
       <use transform="translate(77.673659 36.153639)scale(0.697382)" xlink:href="#CMR17-32"/>
      </g>
     </g>
    </g>
    <g id="xtick_6">
     <g id="line2d_6">
      <g>
       <use style="fill:#262626;stroke:#262626;stroke-width:1.25;" x="589.642673" xlink:href="#ma29aaac9bd" y="296.626475"/>
      </g>
     </g>
     <g id="text_6">
      <!-- $\mathdefault{2^{13}}$ -->
      <g style="fill:#262626;" transform="translate(581.693015 315.25887)scale(0.132 -0.132)">
       <defs>
        <path d="M 1414 2157 
C 1984 2157 2234 1662 2234 1090 
C 2234 320 1824 25 1453 25 
C 1114 25 563 194 390 693 
C 422 680 454 680 486 680 
C 640 680 755 782 755 948 
C 755 1133 614 1216 486 1216 
C 378 1216 211 1165 211 926 
C 211 335 787 -128 1466 -128 
C 2176 -128 2720 430 2720 1085 
C 2720 1707 2208 2157 1600 2227 
C 2086 2328 2554 2756 2554 3329 
C 2554 3820 2048 4179 1472 4179 
C 890 4179 378 3829 378 3329 
C 378 3110 544 3072 627 3072 
C 762 3072 877 3155 877 3321 
C 877 3486 762 3569 627 3569 
C 602 3569 570 3569 544 3557 
C 730 3959 1235 4032 1459 4032 
C 1683 4032 2106 3925 2106 3320 
C 2106 3143 2080 2828 1862 2550 
C 1670 2304 1453 2304 1242 2284 
C 1210 2284 1062 2269 1037 2269 
C 992 2263 966 2257 966 2208 
C 966 2163 973 2157 1101 2157 
L 1414 2157 
z
" id="CMR17-33" transform="scale(0.015625)"/>
       </defs>
       <use transform="scale(0.996264)" xlink:href="#CMR17-32"/>
       <use transform="translate(45.690477 36.153639)scale(0.697382)" xlink:href="#CMR17-31"/>
       <use transform="translate(77.673659 36.153639)scale(0.697382)" xlink:href="#CMR17-33"/>
      </g>
     </g>
    </g>
    <g id="xtick_7">
     <g id="line2d_7">
      <g>
       <use style="fill:#262626;stroke:#262626;stroke-width:1.25;" x="682.187348" xlink:href="#ma29aaac9bd" y="296.626475"/>
      </g>
     </g>
     <g id="text_7">
      <!-- $\mathdefault{2^{14}}$ -->
      <g style="fill:#262626;" transform="translate(674.23769 315.25887)scale(0.132 -0.132)">
       <defs>
        <path d="M 2150 4122 
C 2150 4256 2144 4256 2029 4256 
L 128 1254 
L 128 1088 
L 1779 1088 
L 1779 457 
C 1779 224 1766 160 1318 160 
L 1197 160 
L 1197 0 
C 1402 0 1747 0 1965 0 
C 2182 0 2528 0 2733 0 
L 2733 160 
L 2611 160 
C 2163 160 2150 224 2150 457 
L 2150 1088 
L 2803 1088 
L 2803 1254 
L 2150 1254 
L 2150 4122 
z
M 1798 3703 
L 1798 1254 
L 256 1254 
L 1798 3703 
z
" id="CMR17-34" transform="scale(0.015625)"/>
       </defs>
       <use transform="scale(0.996264)" xlink:href="#CMR17-32"/>
       <use transform="translate(45.690477 36.153639)scale(0.697382)" xlink:href="#CMR17-31"/>
       <use transform="translate(77.673659 36.153639)scale(0.697382)" xlink:href="#CMR17-34"/>
      </g>
     </g>
    </g>
    <g id="text_8">
     <!-- Matrix size -->
     <g style="fill:#262626;" transform="translate(370.072429 331.778556)scale(0.144 -0.144)">
      <defs>
       <path d="M 1338 4224 
C 1299 4320 1293 4320 1158 4320 
L 339 4320 
L 339 4160 
C 781 4160 851 4160 851 3875 
L 851 610 
C 851 451 851 153 339 153 
L 339 -13 
C 486 0 755 0 915 0 
C 1075 0 1344 0 1491 -13 
L 1491 153 
C 979 153 979 451 979 610 
L 979 4135 
L 986 4135 
L 2490 89 
C 2515 25 2528 -13 2579 -13 
C 2630 -13 2643 25 2669 89 
L 4186 4166 
L 4192 4166 
L 4192 438 
C 4192 153 4122 153 3680 153 
L 3680 -13 
C 3853 0 4198 0 4384 0 
C 4570 0 4922 0 5094 -13 
L 5094 153 
C 4653 153 4582 153 4582 438 
L 4582 3875 
C 4582 4160 4653 4160 5094 4160 
L 5094 4320 
L 4282 4320 
C 4147 4320 4141 4314 4102 4218 
L 2720 502 
L 1338 4224 
z
" id="CMR17-4d" transform="scale(0.015625)"/>
       <path d="M 2304 1653 
C 2304 2072 2304 2294 2035 2543 
C 1798 2752 1523 2816 1306 2816 
C 800 2816 435 2407 435 1971 
C 435 1728 627 1728 666 1728 
C 749 1728 896 1778 896 1954 
C 896 2112 774 2181 666 2181 
C 640 2181 608 2174 589 2168 
C 723 2592 1069 2714 1293 2714 
C 1613 2714 1965 2429 1965 1885 
L 1965 1600 
C 1587 1600 1133 1549 774 1357 
C 371 1133 256 813 256 570 
C 256 77 832 -64 1171 -64 
C 1523 -64 1850 139 1990 511 
C 2003 233 2182 -18 2464 -18 
C 2598 -18 2938 70 2938 567 
L 2938 920 
L 2822 920 
L 2822 562 
C 2822 178 2650 128 2566 128 
C 2304 128 2304 458 2304 738 
L 2304 1653 
z
M 1965 870 
C 1965 317 1568 38 1216 38 
C 896 38 646 275 646 570 
C 646 761 730 1100 1101 1305 
C 1408 1478 1760 1504 1965 1504 
L 1965 870 
z
" id="CMR17-61" transform="scale(0.015625)"/>
       <path d="M 966 2560 
L 1862 2560 
L 1862 2725 
L 966 2725 
L 966 3904 
L 851 3904 
C 838 3245 614 2668 70 2668 
L 70 2560 
L 627 2560 
L 627 771 
C 627 650 627 -64 1370 -64 
C 1747 -64 1965 306 1965 777 
L 1965 1140 
L 1850 1140 
L 1850 783 
C 1850 344 1677 51 1408 51 
C 1222 51 966 178 966 758 
L 966 2560 
z
" id="CMR17-74" transform="scale(0.015625)"/>
       <path d="M 960 1497 
C 960 2112 1222 2688 1702 2688 
C 1747 2688 1792 2682 1837 2662 
C 1837 2662 1696 2617 1696 2452 
C 1696 2298 1818 2234 1914 2234 
C 1990 2234 2131 2279 2131 2458 
C 2131 2663 1926 2790 1709 2790 
C 1222 2790 1011 2317 947 2093 
L 941 2093 
L 941 2790 
L 198 2720 
L 198 2554 
C 576 2554 634 2515 634 2208 
L 634 428 
C 634 184 608 153 198 153 
L 198 -13 
C 352 0 646 0 813 0 
C 998 0 1325 0 1498 -13 
L 1498 153 
C 1037 153 960 153 960 440 
L 960 1497 
z
" id="CMR17-72" transform="scale(0.015625)"/>
       <path d="M 992 3909 
C 992 4049 877 4170 730 4170 
C 589 4170 467 4056 467 3909 
C 467 3769 582 3648 730 3648 
C 870 3648 992 3763 992 3909 
z
M 243 2706 
L 243 2541 
C 602 2541 653 2502 653 2197 
L 653 427 
C 653 184 627 153 218 153 
L 218 -13 
C 371 0 646 0 806 0 
C 960 0 1222 0 1370 -13 
L 1370 153 
C 992 153 979 191 979 420 
L 979 2776 
L 243 2706 
z
" id="CMR17-69" transform="scale(0.015625)"/>
       <path d="M 1664 1477 
C 1856 1726 2074 2006 2253 2216 
C 2464 2458 2707 2560 2989 2560 
L 2989 2726 
C 2880 2726 2656 2726 2541 2726 
C 2368 2726 2170 2726 2022 2732 
L 2022 2566 
C 2112 2553 2163 2489 2163 2400 
C 2163 2285 2099 2215 2067 2171 
L 1594 1573 
L 1030 2306 
C 973 2376 973 2388 973 2420 
C 973 2497 1037 2560 1146 2560 
L 1146 2732 
C 992 2726 717 2726 557 2726 
C 384 2726 179 2726 38 2732 
L 38 2560 
C 384 2560 461 2534 614 2343 
L 1350 1395 
C 1363 1382 1395 1344 1395 1325 
C 1395 1299 838 619 768 530 
C 480 185 179 160 6 160 
L 6 0 
C 115 0 339 0 454 0 
C 582 0 864 0 979 -6 
L 979 160 
C 941 166 838 179 838 325 
C 838 440 890 510 947 586 
L 1478 1236 
L 2035 512 
C 2086 442 2163 346 2163 301 
C 2163 211 2086 160 1984 160 
L 1984 -6 
C 2138 0 2413 0 2573 0 
C 2746 0 2950 0 3091 -6 
L 3091 160 
C 2771 160 2675 172 2522 370 
L 1664 1477 
z
" id="CMR17-78" transform="scale(0.015625)"/>
       <path d="M 1978 2697 
C 1978 2813 1971 2819 1933 2819 
C 1907 2819 1901 2813 1824 2717 
C 1805 2691 1747 2626 1728 2601 
C 1523 2819 1235 2819 1126 2819 
C 416 2819 160 2447 160 2076 
C 160 1498 813 1365 998 1325 
C 1402 1243 1542 1217 1677 1101 
C 1760 1025 1901 884 1901 654 
C 1901 384 1747 38 1158 38 
C 602 38 403 460 288 1021 
C 269 1110 269 1117 218 1117 
C 166 1117 160 1110 160 983 
L 160 63 
C 160 -51 166 -58 205 -58 
C 237 -58 243 -51 275 0 
C 314 57 410 211 448 276 
C 576 103 800 -64 1158 -64 
C 1792 -64 2131 283 2131 784 
C 2131 1112 1958 1285 1875 1362 
C 1683 1561 1459 1606 1190 1657 
C 838 1735 390 1825 390 2217 
C 390 2383 480 2737 1126 2737 
C 1811 2737 1850 2094 1862 1888 
C 1869 1856 1901 1849 1920 1849 
C 1978 1849 1978 1869 1978 1978 
L 1978 2697 
z
" id="CMR17-73" transform="scale(0.015625)"/>
       <path d="M 2310 2605 
C 2362 2670 2362 2682 2362 2695 
C 2362 2752 2336 2752 2221 2752 
L 275 2752 
L 211 1760 
L 326 1760 
C 371 2381 442 2650 1178 2650 
L 1958 2650 
L 128 96 
C 128 0 134 0 269 0 
L 2291 0 
L 2381 1152 
L 2266 1152 
C 2214 442 2131 115 1350 115 
L 531 115 
L 2310 2605 
z
" id="CMR17-7a" transform="scale(0.015625)"/>
       <path d="M 2438 1472 
C 2464 1498 2464 1511 2464 1576 
C 2464 2238 2118 2816 1389 2816 
C 710 2816 173 2169 173 1383 
C 173 551 781 -64 1459 -64 
C 2176 -64 2458 607 2458 740 
C 2458 784 2419 784 2406 784 
C 2362 784 2355 771 2330 696 
C 2189 265 1837 51 1504 51 
C 1229 51 954 203 781 480 
C 582 803 582 1176 582 1472 
L 2438 1472 
z
M 589 1568 
C 634 2505 1126 2714 1382 2714 
C 1818 2714 2112 2297 2118 1568 
L 589 1568 
z
" id="CMR17-65" transform="scale(0.015625)"/>
      </defs>
      <use transform="scale(0.996264)" xlink:href="#CMR17-4d"/>
      <use transform="translate(84.686941 0)scale(0.996264)" xlink:href="#CMR17-61"/>
      <use transform="translate(130.377418 0)scale(0.996264)" xlink:href="#CMR17-74"/>
      <use transform="translate(165.658185 0)scale(0.996264)" xlink:href="#CMR17-72"/>
      <use transform="translate(200.938953 0)scale(0.996264)" xlink:href="#CMR17-69"/>
      <use transform="translate(225.810012 0)scale(0.996264)" xlink:href="#CMR17-78"/>
      <use transform="translate(304.178894 0)scale(0.996264)" xlink:href="#CMR17-73"/>
      <use transform="translate(339.980232 0)scale(0.996264)" xlink:href="#CMR17-69"/>
      <use transform="translate(364.85129 0)scale(0.996264)" xlink:href="#CMR17-7a"/>
      <use transform="translate(405.336951 0)scale(0.996264)" xlink:href="#CMR17-65"/>
     </g>
    </g>
   </g>
   <g id="matplotlib.axis_2">
    <g id="ytick_1">
     <g id="line2d_8">
      <path clip-path="url(#p0e83bfbfc9)" d="M 69.646425 296.626475 
L 739.246425 296.626475 
" style="fill:none;stroke:#cccccc;stroke-linecap:round;"/>
     </g>
     <g id="line2d_9">
      <defs>
       <path d="M 0 0 
L -6 0 
" id="m18ce3bc964" style="stroke:#262626;stroke-width:1.25;"/>
      </defs>
      <g>
       <use style="fill:#262626;stroke:#262626;stroke-width:1.25;" x="69.646425" xlink:href="#m18ce3bc964" y="296.626475"/>
      </g>
     </g>
     <g id="text_9">
      <!-- $10^{-2}\%$ -->
      <g style="fill:#262626;" transform="translate(23.952152 301.192673)scale(0.132 -0.132)">
       <defs>
        <path d="M 4218 1472 
C 4326 1472 4442 1472 4442 1600 
C 4442 1728 4326 1728 4218 1728 
L 755 1728 
C 646 1728 531 1728 531 1600 
C 531 1472 646 1472 755 1472 
L 4218 1472 
z
" id="CMSY10-0" transform="scale(0.015625)"/>
        <path d="M 4640 959 
C 4640 1698 4275 2240 3846 2240 
C 3411 2240 2970 1736 2970 959 
C 2970 183 3405 -320 3846 -320 
C 4275 -320 4640 215 4640 959 
z
M 3853 -218 
C 3686 -218 3270 -66 3270 959 
C 3270 1991 3686 2138 3853 2138 
C 4205 2138 4525 1634 4525 959 
C 4525 285 4205 -218 3853 -218 
z
M 4083 4577 
C 4128 4647 4134 4653 4134 4685 
C 4134 4761 4077 4800 4026 4800 
C 3962 4800 3936 4756 3891 4706 
C 3520 4190 3008 4134 2746 4134 
C 2106 4134 1715 4494 1594 4607 
C 1510 4682 1389 4800 1171 4800 
C 736 4800 294 4296 294 3519 
C 294 2743 730 2240 1171 2240 
C 1600 2240 1965 2778 1965 3527 
C 1965 3969 1830 4270 1811 4308 
C 2202 4064 2586 4032 2752 4032 
C 3162 4032 3456 4183 3616 4289 
L 3622 4283 
L 858 -84 
C 800 -174 800 -187 800 -206 
C 800 -276 858 -320 915 -320 
C 973 -320 992 -289 1037 -218 
L 4083 4577 
z
M 1178 2342 
C 1011 2342 595 2494 595 3519 
C 595 4551 1011 4698 1178 4698 
C 1530 4698 1850 4194 1850 3519 
C 1850 2845 1530 2342 1178 2342 
z
" id="CMR17-25" transform="scale(0.015625)"/>
       </defs>
       <use transform="scale(0.996264)" xlink:href="#CMR17-31"/>
       <use transform="translate(45.690477 0)scale(0.996264)" xlink:href="#CMR17-30"/>
       <use transform="translate(91.380954 36.153639)scale(0.697382)" xlink:href="#CMSY10-0"/>
       <use transform="translate(145.621947 36.153639)scale(0.697382)" xlink:href="#CMR17-32"/>
       <use transform="translate(178.103261 0)scale(0.996264)" xlink:href="#CMR17-25"/>
      </g>
     </g>
    </g>
    <g id="ytick_2">
     <g id="line2d_10">
      <path clip-path="url(#p0e83bfbfc9)" d="M 69.646425 228.676475 
L 739.246425 228.676475 
" style="fill:none;stroke:#cccccc;stroke-linecap:round;"/>
     </g>
     <g id="line2d_11">
      <g>
       <use style="fill:#262626;stroke:#262626;stroke-width:1.25;" x="69.646425" xlink:href="#m18ce3bc964" y="228.676475"/>
      </g>
     </g>
     <g id="text_10">
      <!-- $10^{-1}\%$ -->
      <g style="fill:#262626;" transform="translate(23.952152 233.242673)scale(0.132 -0.132)">
       <use transform="scale(0.996264)" xlink:href="#CMR17-31"/>
       <use transform="translate(45.690477 0)scale(0.996264)" xlink:href="#CMR17-30"/>
       <use transform="translate(91.380954 36.153639)scale(0.697382)" xlink:href="#CMSY10-0"/>
       <use transform="translate(145.621947 36.153639)scale(0.697382)" xlink:href="#CMR17-31"/>
       <use transform="translate(178.103261 0)scale(0.996264)" xlink:href="#CMR17-25"/>
      </g>
     </g>
    </g>
    <g id="ytick_3">
     <g id="line2d_12">
      <path clip-path="url(#p0e83bfbfc9)" d="M 69.646425 160.726475 
L 739.246425 160.726475 
" style="fill:none;stroke:#cccccc;stroke-linecap:round;"/>
     </g>
     <g id="line2d_13">
      <g>
       <use style="fill:#262626;stroke:#262626;stroke-width:1.25;" x="69.646425" xlink:href="#m18ce3bc964" y="160.726475"/>
      </g>
     </g>
     <g id="text_11">
      <!-- $10^{0}\%$ -->
      <g style="fill:#262626;" transform="translate(31.310757 165.292673)scale(0.132 -0.132)">
       <use transform="scale(0.996264)" xlink:href="#CMR17-31"/>
       <use transform="translate(45.690477 0)scale(0.996264)" xlink:href="#CMR17-30"/>
       <use transform="translate(91.380954 36.153639)scale(0.697382)" xlink:href="#CMR17-30"/>
       <use transform="translate(123.862268 0)scale(0.996264)" xlink:href="#CMR17-25"/>
      </g>
     </g>
    </g>
    <g id="ytick_4">
     <g id="line2d_14">
      <path clip-path="url(#p0e83bfbfc9)" d="M 69.646425 92.776475 
L 739.246425 92.776475 
" style="fill:none;stroke:#cccccc;stroke-linecap:round;"/>
     </g>
     <g id="line2d_15">
      <g>
       <use style="fill:#262626;stroke:#262626;stroke-width:1.25;" x="69.646425" xlink:href="#m18ce3bc964" y="92.776475"/>
      </g>
     </g>
     <g id="text_12">
      <!-- $10^{1}\%$ -->
      <g style="fill:#262626;" transform="translate(31.310757 97.342673)scale(0.132 -0.132)">
       <use transform="scale(0.996264)" xlink:href="#CMR17-31"/>
       <use transform="translate(45.690477 0)scale(0.996264)" xlink:href="#CMR17-30"/>
       <use transform="translate(91.380954 36.153639)scale(0.697382)" xlink:href="#CMR17-31"/>
       <use transform="translate(123.862268 0)scale(0.996264)" xlink:href="#CMR17-25"/>
      </g>
     </g>
    </g>
    <g id="ytick_5">
     <g id="line2d_16">
      <path clip-path="url(#p0e83bfbfc9)" d="M 69.646425 24.826475 
L 739.246425 24.826475 
" style="fill:none;stroke:#cccccc;stroke-linecap:round;"/>
     </g>
     <g id="line2d_17">
      <g>
       <use style="fill:#262626;stroke:#262626;stroke-width:1.25;" x="69.646425" xlink:href="#m18ce3bc964" y="24.826475"/>
      </g>
     </g>
     <g id="text_13">
      <!-- $10^{2}\%$ -->
      <g style="fill:#262626;" transform="translate(31.310757 29.392673)scale(0.132 -0.132)">
       <use transform="scale(0.996264)" xlink:href="#CMR17-31"/>
       <use transform="translate(45.690477 0)scale(0.996264)" xlink:href="#CMR17-30"/>
       <use transform="translate(91.380954 36.153639)scale(0.697382)" xlink:href="#CMR17-32"/>
       <use transform="translate(123.862268 0)scale(0.996264)" xlink:href="#CMR17-25"/>
      </g>
     </g>
    </g>
    <g id="ytick_6">
     <g id="line2d_18">
      <defs>
       <path d="M 0 0 
L -4 0 
" id="m07c1102ba1" style="stroke:#262626;"/>
      </defs>
      <g>
       <use style="fill:#262626;stroke:#262626;" x="69.646425" xlink:href="#m07c1102ba1" y="276.171487"/>
      </g>
     </g>
    </g>
    <g id="ytick_7">
     <g id="line2d_19">
      <g>
       <use style="fill:#262626;stroke:#262626;" x="69.646425" xlink:href="#m07c1102ba1" y="264.206086"/>
      </g>
     </g>
    </g>
    <g id="ytick_8">
     <g id="line2d_20">
      <g>
       <use style="fill:#262626;stroke:#262626;" x="69.646425" xlink:href="#m07c1102ba1" y="255.716499"/>
      </g>
     </g>
    </g>
    <g id="ytick_9">
     <g id="line2d_21">
      <g>
       <use style="fill:#262626;stroke:#262626;" x="69.646425" xlink:href="#m07c1102ba1" y="249.131463"/>
      </g>
     </g>
    </g>
    <g id="ytick_10">
     <g id="line2d_22">
      <g>
       <use style="fill:#262626;stroke:#262626;" x="69.646425" xlink:href="#m07c1102ba1" y="243.751098"/>
      </g>
     </g>
    </g>
    <g id="ytick_11">
     <g id="line2d_23">
      <g>
       <use style="fill:#262626;stroke:#262626;" x="69.646425" xlink:href="#m07c1102ba1" y="239.202063"/>
      </g>
     </g>
    </g>
    <g id="ytick_12">
     <g id="line2d_24">
      <g>
       <use style="fill:#262626;stroke:#262626;" x="69.646425" xlink:href="#m07c1102ba1" y="235.261511"/>
      </g>
     </g>
    </g>
    <g id="ytick_13">
     <g id="line2d_25">
      <g>
       <use style="fill:#262626;stroke:#262626;" x="69.646425" xlink:href="#m07c1102ba1" y="231.785697"/>
      </g>
     </g>
    </g>
    <g id="ytick_14">
     <g id="line2d_26">
      <g>
       <use style="fill:#262626;stroke:#262626;" x="69.646425" xlink:href="#m07c1102ba1" y="208.221487"/>
      </g>
     </g>
    </g>
    <g id="ytick_15">
     <g id="line2d_27">
      <g>
       <use style="fill:#262626;stroke:#262626;" x="69.646425" xlink:href="#m07c1102ba1" y="196.256086"/>
      </g>
     </g>
    </g>
    <g id="ytick_16">
     <g id="line2d_28">
      <g>
       <use style="fill:#262626;stroke:#262626;" x="69.646425" xlink:href="#m07c1102ba1" y="187.766499"/>
      </g>
     </g>
    </g>
    <g id="ytick_17">
     <g id="line2d_29">
      <g>
       <use style="fill:#262626;stroke:#262626;" x="69.646425" xlink:href="#m07c1102ba1" y="181.181463"/>
      </g>
     </g>
    </g>
    <g id="ytick_18">
     <g id="line2d_30">
      <g>
       <use style="fill:#262626;stroke:#262626;" x="69.646425" xlink:href="#m07c1102ba1" y="175.801098"/>
      </g>
     </g>
    </g>
    <g id="ytick_19">
     <g id="line2d_31">
      <g>
       <use style="fill:#262626;stroke:#262626;" x="69.646425" xlink:href="#m07c1102ba1" y="171.252063"/>
      </g>
     </g>
    </g>
    <g id="ytick_20">
     <g id="line2d_32">
      <g>
       <use style="fill:#262626;stroke:#262626;" x="69.646425" xlink:href="#m07c1102ba1" y="167.311511"/>
      </g>
     </g>
    </g>
    <g id="ytick_21">
     <g id="line2d_33">
      <g>
       <use style="fill:#262626;stroke:#262626;" x="69.646425" xlink:href="#m07c1102ba1" y="163.835697"/>
      </g>
     </g>
    </g>
    <g id="ytick_22">
     <g id="line2d_34">
      <g>
       <use style="fill:#262626;stroke:#262626;" x="69.646425" xlink:href="#m07c1102ba1" y="140.271487"/>
      </g>
     </g>
    </g>
    <g id="ytick_23">
     <g id="line2d_35">
      <g>
       <use style="fill:#262626;stroke:#262626;" x="69.646425" xlink:href="#m07c1102ba1" y="128.306086"/>
      </g>
     </g>
    </g>
    <g id="ytick_24">
     <g id="line2d_36">
      <g>
       <use style="fill:#262626;stroke:#262626;" x="69.646425" xlink:href="#m07c1102ba1" y="119.816499"/>
      </g>
     </g>
    </g>
    <g id="ytick_25">
     <g id="line2d_37">
      <g>
       <use style="fill:#262626;stroke:#262626;" x="69.646425" xlink:href="#m07c1102ba1" y="113.231463"/>
      </g>
     </g>
    </g>
    <g id="ytick_26">
     <g id="line2d_38">
      <g>
       <use style="fill:#262626;stroke:#262626;" x="69.646425" xlink:href="#m07c1102ba1" y="107.851098"/>
      </g>
     </g>
    </g>
    <g id="ytick_27">
     <g id="line2d_39">
      <g>
       <use style="fill:#262626;stroke:#262626;" x="69.646425" xlink:href="#m07c1102ba1" y="103.302063"/>
      </g>
     </g>
    </g>
    <g id="ytick_28">
     <g id="line2d_40">
      <g>
       <use style="fill:#262626;stroke:#262626;" x="69.646425" xlink:href="#m07c1102ba1" y="99.361511"/>
      </g>
     </g>
    </g>
    <g id="ytick_29">
     <g id="line2d_41">
      <g>
       <use style="fill:#262626;stroke:#262626;" x="69.646425" xlink:href="#m07c1102ba1" y="95.885697"/>
      </g>
     </g>
    </g>
    <g id="ytick_30">
     <g id="line2d_42">
      <g>
       <use style="fill:#262626;stroke:#262626;" x="69.646425" xlink:href="#m07c1102ba1" y="72.321487"/>
      </g>
     </g>
    </g>
    <g id="ytick_31">
     <g id="line2d_43">
      <g>
       <use style="fill:#262626;stroke:#262626;" x="69.646425" xlink:href="#m07c1102ba1" y="60.356086"/>
      </g>
     </g>
    </g>
    <g id="ytick_32">
     <g id="line2d_44">
      <g>
       <use style="fill:#262626;stroke:#262626;" x="69.646425" xlink:href="#m07c1102ba1" y="51.866499"/>
      </g>
     </g>
    </g>
    <g id="ytick_33">
     <g id="line2d_45">
      <g>
       <use style="fill:#262626;stroke:#262626;" x="69.646425" xlink:href="#m07c1102ba1" y="45.281463"/>
      </g>
     </g>
    </g>
    <g id="ytick_34">
     <g id="line2d_46">
      <g>
       <use style="fill:#262626;stroke:#262626;" x="69.646425" xlink:href="#m07c1102ba1" y="39.901098"/>
      </g>
     </g>
    </g>
    <g id="ytick_35">
     <g id="line2d_47">
      <g>
       <use style="fill:#262626;stroke:#262626;" x="69.646425" xlink:href="#m07c1102ba1" y="35.352063"/>
      </g>
     </g>
    </g>
    <g id="ytick_36">
     <g id="line2d_48">
      <g>
       <use style="fill:#262626;stroke:#262626;" x="69.646425" xlink:href="#m07c1102ba1" y="31.411511"/>
      </g>
     </g>
    </g>
    <g id="ytick_37">
     <g id="line2d_49">
      <g>
       <use style="fill:#262626;stroke:#262626;" x="69.646425" xlink:href="#m07c1102ba1" y="27.935697"/>
      </g>
     </g>
    </g>
    <g id="text_14">
     <!-- Relative error compared to 128-bit precision -->
     <g style="fill:#262626;" transform="translate(17.162625 296.650848)rotate(-90)scale(0.144 -0.144)">
      <defs>
       <path d="M 2509 2146 
C 3117 2268 3629 2676 3629 3186 
C 3629 3785 2950 4326 2054 4326 
L 333 4326 
L 333 4160 
C 774 4160 845 4160 845 3873 
L 845 415 
C 845 128 774 128 333 128 
L 333 -26 
C 518 -26 851 -26 1050 -26 
C 1248 -26 1581 -26 1766 -26 
L 1766 128 
C 1325 128 1254 128 1254 417 
L 1254 2112 
L 2003 2112 
C 2368 2112 2573 1964 2662 1881 
C 2918 1632 2918 1459 2918 1024 
C 2918 595 2918 377 3110 160 
C 3354 -102 3680 -128 3821 -128 
C 4294 -128 4365 396 4365 503 
C 4365 540 4365 585 4307 585 
C 4256 585 4250 547 4250 522 
C 4218 112 4032 -26 3834 -26 
C 3482 -26 3443 375 3405 764 
C 3386 898 3373 993 3360 1133 
C 3322 1452 3270 1917 2509 2146 
z
M 1984 2214 
L 1254 2214 
L 1254 3913 
C 1254 4129 1267 4160 1523 4160 
L 1990 4160 
C 2522 4160 3142 3977 3142 3190 
C 3142 2372 2464 2214 1984 2214 
z
" id="CMR17-52" transform="scale(0.015625)"/>
       <path d="M 979 4396 
L 218 4326 
L 218 4160 
C 595 4160 653 4122 653 3817 
L 653 426 
C 653 184 627 153 218 153 
L 218 -13 
C 371 0 653 0 813 0 
C 979 0 1261 0 1414 -13 
L 1414 153 
C 1005 153 979 178 979 426 
L 979 4396 
z
" id="CMR17-6c" transform="scale(0.015625)"/>
       <path d="M 2502 2163 
C 2560 2304 2662 2560 3034 2560 
L 3034 2726 
C 2912 2726 2752 2726 2630 2726 
C 2496 2726 2285 2726 2157 2732 
L 2157 2566 
C 2317 2553 2406 2477 2406 2311 
C 2406 2253 2406 2240 2368 2151 
L 1664 377 
L 902 2286 
C 864 2369 864 2381 864 2407 
C 864 2560 1075 2560 1171 2560 
L 1171 2732 
C 1018 2726 736 2726 576 2726 
C 403 2726 205 2726 64 2732 
L 64 2560 
C 307 2560 442 2560 518 2362 
L 1446 44 
C 1485 -51 1491 -64 1549 -64 
C 1606 -64 1613 -51 1651 44 
L 2502 2163 
z
" id="CMR17-76" transform="scale(0.015625)"/>
       <path d="M 2758 1356 
C 2758 2176 2163 2816 1466 2816 
C 768 2816 173 2176 173 1356 
C 173 551 768 -64 1466 -64 
C 2163 -64 2758 551 2758 1356 
z
M 1466 51 
C 1165 51 909 230 762 480 
C 602 767 582 1126 582 1408 
C 582 1677 595 2010 762 2298 
C 890 2509 1139 2714 1466 2714 
C 1754 2714 1997 2554 2150 2330 
C 2349 2029 2349 1607 2349 1408 
C 2349 1158 2336 775 2163 467 
C 1984 173 1709 51 1466 51 
z
" id="CMR17-6f" transform="scale(0.015625)"/>
       <path d="M 2234 2240 
C 2112 2240 1933 2240 1933 2017 
C 1933 1838 2080 1787 2163 1787 
C 2208 1787 2394 1807 2394 2024 
C 2394 2467 1958 2803 1466 2803 
C 787 2803 211 2178 211 1363 
C 211 516 813 -64 1466 -64 
C 2259 -64 2458 677 2458 748 
C 2458 774 2451 793 2406 793 
C 2362 793 2355 787 2330 703 
C 2163 180 1798 51 1523 51 
C 1114 51 621 427 621 1369 
C 621 2338 1094 2688 1472 2688 
C 1722 2688 2093 2573 2234 2240 
z
" id="CMR17-63" transform="scale(0.015625)"/>
       <path d="M 4326 1933 
C 4326 2252 4269 2790 3507 2790 
C 3072 2790 2771 2496 2656 2151 
L 2650 2151 
C 2573 2676 2195 2790 1837 2790 
C 1331 2790 1069 2400 973 2144 
L 966 2144 
L 966 2790 
L 211 2720 
L 211 2554 
C 589 2554 646 2515 646 2208 
L 646 428 
C 646 184 621 153 211 153 
L 211 -13 
C 365 0 646 0 813 0 
C 979 0 1267 0 1421 -13 
L 1421 153 
C 1011 153 986 178 986 428 
L 986 1658 
C 986 2247 1344 2688 1792 2688 
C 2266 2688 2317 2266 2317 1958 
L 2317 428 
C 2317 184 2291 153 1882 153 
L 1882 -13 
C 2035 0 2317 0 2483 0 
C 2650 0 2938 0 3091 -13 
L 3091 153 
C 2682 153 2656 178 2656 428 
L 2656 1658 
C 2656 2247 3014 2688 3462 2688 
C 3936 2688 3987 2266 3987 1958 
L 3987 428 
C 3987 184 3962 153 3552 153 
L 3552 -13 
C 3706 0 3987 0 4154 0 
C 4320 0 4608 0 4762 -13 
L 4762 153 
C 4352 153 4326 178 4326 428 
L 4326 1933 
z
" id="CMR17-6d" transform="scale(0.015625)"/>
       <path d="M 1408 -1063 
C 998 -1063 973 -1037 973 -789 
L 973 402 
C 1158 134 1427 -38 1766 -38 
C 2406 -38 3053 523 3053 1388 
C 3053 2191 2496 2802 1837 2802 
C 1453 2802 1139 2592 960 2338 
L 960 2802 
L 198 2732 
L 198 2567 
C 576 2567 634 2528 634 2223 
L 634 -789 
C 634 -1031 608 -1063 198 -1063 
L 198 -1228 
C 352 -1216 634 -1216 800 -1216 
C 966 -1216 1254 -1216 1408 -1228 
L 1408 -1063 
z
M 973 2012 
C 973 2102 973 2235 1222 2471 
C 1254 2497 1472 2688 1792 2688 
C 2259 2688 2643 2108 2643 1382 
C 2643 656 2234 64 1728 64 
C 1498 64 1248 172 1056 472 
C 973 612 973 650 973 752 
L 973 2012 
z
" id="CMR17-70" transform="scale(0.015625)"/>
       <path d="M 1869 4326 
L 1869 4160 
C 2246 4160 2304 4122 2304 3820 
L 2304 2345 
C 2278 2377 2016 2790 1498 2790 
C 845 2790 211 2208 211 1364 
C 211 525 806 -64 1434 -64 
C 1978 -64 2259 337 2291 380 
L 2291 -63 
L 3066 -63 
L 3066 128 
C 2688 128 2630 166 2630 473 
L 2630 4396 
L 1869 4326 
z
M 2291 755 
C 2291 563 2176 390 2029 262 
C 1811 70 1594 38 1472 38 
C 1286 38 621 134 621 1356 
C 621 2612 1363 2688 1530 2688 
C 1824 2688 2061 2522 2208 2291 
C 2291 2157 2291 2138 2291 2023 
L 2291 755 
z
" id="CMR17-64" transform="scale(0.015625)"/>
       <path d="M 1632 1216 
L 1632 1496 
L 26 1496 
L 26 1216 
L 1632 1216 
z
" id="CMR17-2d" transform="scale(0.015625)"/>
       <path d="M 960 4396 
L 198 4326 
L 198 4160 
C 576 4160 634 4122 634 3817 
L 634 -13 
L 749 -13 
L 934 441 
C 1120 141 1395 -64 1766 -64 
C 2406 -64 3053 500 3053 1370 
C 3053 2188 2477 2790 1830 2790 
C 1434 2790 1152 2579 960 2330 
L 960 4396 
z
M 973 2004 
C 973 2118 973 2138 1062 2272 
C 1312 2657 1670 2688 1792 2688 
C 1984 2688 2643 2585 2643 1376 
C 2643 108 1888 38 1734 38 
C 1536 38 1248 114 1043 486 
C 973 608 973 621 973 735 
L 973 2004 
z
" id="CMR17-62" transform="scale(0.015625)"/>
       <path d="M 2656 1933 
C 2656 2259 2592 2790 1837 2790 
C 1331 2790 1069 2400 973 2144 
L 966 2144 
L 966 2790 
L 211 2720 
L 211 2554 
C 589 2554 646 2515 646 2208 
L 646 428 
C 646 184 621 153 211 153 
L 211 -13 
C 365 0 646 0 813 0 
C 979 0 1267 0 1421 -13 
L 1421 153 
C 1011 153 986 178 986 428 
L 986 1658 
C 986 2247 1344 2688 1792 2688 
C 2266 2688 2317 2266 2317 1958 
L 2317 428 
C 2317 184 2291 153 1882 153 
L 1882 -13 
C 2035 0 2317 0 2483 0 
C 2650 0 2938 0 3091 -13 
L 3091 153 
C 2682 153 2656 178 2656 428 
L 2656 1933 
z
" id="CMR17-6e" transform="scale(0.015625)"/>
      </defs>
      <use transform="scale(0.996264)" xlink:href="#CMR17-52"/>
      <use transform="translate(67.791102 0)scale(0.996264)" xlink:href="#CMR17-65"/>
      <use transform="translate(108.276762 0)scale(0.996264)" xlink:href="#CMR17-6c"/>
      <use transform="translate(133.147821 0)scale(0.996264)" xlink:href="#CMR17-61"/>
      <use transform="translate(178.838298 0)scale(0.996264)" xlink:href="#CMR17-74"/>
      <use transform="translate(214.119066 0)scale(0.996264)" xlink:href="#CMR17-69"/>
      <use transform="translate(238.990124 0)scale(0.996264)" xlink:href="#CMR17-76"/>
      <use transform="translate(284.680586 0)scale(0.996264)" xlink:href="#CMR17-65"/>
      <use transform="translate(355.242213 0)scale(0.996264)" xlink:href="#CMR17-65"/>
      <use transform="translate(395.727874 0)scale(0.996264)" xlink:href="#CMR17-72"/>
      <use transform="translate(431.008641 0)scale(0.996264)" xlink:href="#CMR17-72"/>
      <use transform="translate(466.289409 0)scale(0.996264)" xlink:href="#CMR17-6f"/>
      <use transform="translate(511.979886 0)scale(0.996264)" xlink:href="#CMR17-72"/>
      <use transform="translate(577.33662 0)scale(0.996264)" xlink:href="#CMR17-63"/>
      <use transform="translate(617.822281 0)scale(0.996264)" xlink:href="#CMR17-6f"/>
      <use transform="translate(663.512758 0)scale(0.996264)" xlink:href="#CMR17-6d"/>
      <use transform="translate(740.432348 0)scale(0.996264)" xlink:href="#CMR17-70"/>
      <use transform="translate(791.327718 0)scale(0.996264)" xlink:href="#CMR17-61"/>
      <use transform="translate(837.018195 0)scale(0.996264)" xlink:href="#CMR17-72"/>
      <use transform="translate(872.298963 0)scale(0.996264)" xlink:href="#CMR17-65"/>
      <use transform="translate(912.784623 0)scale(0.996264)" xlink:href="#CMR17-64"/>
      <use transform="translate(993.755959 0)scale(0.996264)" xlink:href="#CMR17-74"/>
      <use transform="translate(1029.036727 0)scale(0.996264)" xlink:href="#CMR17-6f"/>
      <use transform="translate(1104.80317 0)scale(0.996264)" xlink:href="#CMR17-31"/>
      <use transform="translate(1150.493647 0)scale(0.996264)" xlink:href="#CMR17-32"/>
      <use transform="translate(1196.184125 0)scale(0.996264)" xlink:href="#CMR17-38"/>
      <use transform="translate(1241.874602 0)scale(0.996264)" xlink:href="#CMR17-2d"/>
      <use transform="translate(1271.950568 0)scale(0.996264)" xlink:href="#CMR17-62"/>
      <use transform="translate(1322.845938 0)scale(0.996264)" xlink:href="#CMR17-69"/>
      <use transform="translate(1347.716996 0)scale(0.996264)" xlink:href="#CMR17-74"/>
      <use transform="translate(1413.07373 0)scale(0.996264)" xlink:href="#CMR17-70"/>
      <use transform="translate(1463.9691 0)scale(0.996264)" xlink:href="#CMR17-72"/>
      <use transform="translate(1499.249868 0)scale(0.996264)" xlink:href="#CMR17-65"/>
      <use transform="translate(1539.735529 0)scale(0.996264)" xlink:href="#CMR17-63"/>
      <use transform="translate(1580.221189 0)scale(0.996264)" xlink:href="#CMR17-69"/>
      <use transform="translate(1605.092247 0)scale(0.996264)" xlink:href="#CMR17-73"/>
      <use transform="translate(1640.893585 0)scale(0.996264)" xlink:href="#CMR17-69"/>
      <use transform="translate(1665.764644 0)scale(0.996264)" xlink:href="#CMR17-6f"/>
      <use transform="translate(1711.455121 0)scale(0.996264)" xlink:href="#CMR17-6e"/>
     </g>
    </g>
   </g>
   <g id="patch_3">
    <path clip-path="url(#p0e83bfbfc9)" d="M 100.082789 68110.726475 
L 110.769591 68110.726475 
L 110.769591 203.867612 
L 100.082789 203.867612 
z
" style="fill:#0093ff;stroke:#000000;stroke-linejoin:miter;"/>
   </g>
   <g id="patch_4">
    <path clip-path="url(#p0e83bfbfc9)" d="M 192.627464 68110.726475 
L 203.314266 68110.726475 
L 203.314266 233.976853 
L 192.627464 233.976853 
z
" style="fill:#0093ff;stroke:#000000;stroke-linejoin:miter;"/>
   </g>
   <g id="patch_5">
    <path clip-path="url(#p0e83bfbfc9)" d="M 285.17214 68110.726475 
L 295.858941 68110.726475 
L 295.858941 256.961001 
L 285.17214 256.961001 
z
" style="fill:#0093ff;stroke:#000000;stroke-linejoin:miter;"/>
   </g>
   <g id="patch_6">
    <path clip-path="url(#p0e83bfbfc9)" d="M 377.716815 68110.726475 
L 388.403617 68110.726475 
L 388.403617 250.14769 
L 377.716815 250.14769 
z
" style="fill:#0093ff;stroke:#000000;stroke-linejoin:miter;"/>
   </g>
   <g id="patch_7">
    <path clip-path="url(#p0e83bfbfc9)" d="M 470.261491 68110.726475 
L 480.948292 68110.726475 
L 480.948292 244.99465 
L 470.261491 244.99465 
z
" style="fill:#0093ff;stroke:#000000;stroke-linejoin:miter;"/>
   </g>
   <g id="patch_8">
    <path clip-path="url(#p0e83bfbfc9)" d="M 562.806166 68110.726475 
L 573.492968 68110.726475 
L 573.492968 311.85567 
L 562.806166 311.85567 
z
" style="fill:#0093ff;stroke:#000000;stroke-linejoin:miter;"/>
   </g>
   <g id="patch_9">
    <path clip-path="url(#p0e83bfbfc9)" d="M 655.350842 68110.726475 
L 666.037643 68110.726475 
L 666.037643 258.299526 
L 655.350842 258.299526 
z
" style="fill:#0093ff;stroke:#000000;stroke-linejoin:miter;"/>
   </g>
   <g id="patch_10">
    <path clip-path="url(#p0e83bfbfc9)" d="M 132.162103 68110.726475 
L 142.848904 68110.726475 
L 142.848904 184.525274 
L 132.162103 184.525274 
z
" style="fill:#fab300;stroke:#000000;stroke-linejoin:miter;"/>
   </g>
   <g id="patch_11">
    <path clip-path="url(#p0e83bfbfc9)" d="M 224.706778 68110.726475 
L 235.39358 68110.726475 
L 235.39358 230.211122 
L 224.706778 230.211122 
z
" style="fill:#fab300;stroke:#000000;stroke-linejoin:miter;"/>
   </g>
   <g id="patch_12">
    <path clip-path="url(#p0e83bfbfc9)" d="M 317.251454 68110.726475 
L 327.938255 68110.726475 
L 327.938255 243.566592 
L 317.251454 243.566592 
z
" style="fill:#fab300;stroke:#000000;stroke-linejoin:miter;"/>
   </g>
   <g id="patch_13">
    <path clip-path="url(#p0e83bfbfc9)" d="M 409.796129 68110.726475 
L 420.482931 68110.726475 
L 420.482931 247.78878 
L 409.796129 247.78878 
z
" style="fill:#fab300;stroke:#000000;stroke-linejoin:miter;"/>
   </g>
   <g id="patch_14">
    <path clip-path="url(#p0e83bfbfc9)" d="M 502.340805 68110.726475 
L 513.027606 68110.726475 
L 513.027606 263.775847 
L 502.340805 263.775847 
z
" style="fill:#fab300;stroke:#000000;stroke-linejoin:miter;"/>
   </g>
   <g id="patch_15">
    <path clip-path="url(#p0e83bfbfc9)" d="M 594.88548 68110.726475 
L 605.572282 68110.726475 
L 605.572282 288.692275 
L 594.88548 288.692275 
z
" style="fill:#fab300;stroke:#000000;stroke-linejoin:miter;"/>
   </g>
   <g id="patch_16">
    <path clip-path="url(#p0e83bfbfc9)" d="M 687.430155 68110.726475 
L 698.116957 68110.726475 
L 698.116957 279.848066 
L 687.430155 279.848066 
z
" style="fill:#fab300;stroke:#000000;stroke-linejoin:miter;"/>
   </g>
   <g id="patch_17">
    <path clip-path="url(#p0e83bfbfc9)" d="M 110.775894 68110.726475 
L 121.462695 68110.726475 
L 121.462695 217.176607 
L 110.775894 217.176607 
z
" style="fill:#0072c6;stroke:#000000;stroke-linejoin:miter;"/>
   </g>
   <g id="patch_18">
    <path clip-path="url(#p0e83bfbfc9)" d="M 203.320569 68110.726475 
L 214.007371 68110.726475 
L 214.007371 203.433276 
L 203.320569 203.433276 
z
" style="fill:#0072c6;stroke:#000000;stroke-linejoin:miter;"/>
   </g>
   <g id="patch_19">
    <path clip-path="url(#p0e83bfbfc9)" d="M 295.865244 68110.726475 
L 306.552046 68110.726475 
L 306.552046 243.485148 
L 295.865244 243.485148 
z
" style="fill:#0072c6;stroke:#000000;stroke-linejoin:miter;"/>
   </g>
   <g id="patch_20">
    <path clip-path="url(#p0e83bfbfc9)" d="M 388.40992 68110.726475 
L 399.096721 68110.726475 
L 399.096721 236.548957 
L 388.40992 236.548957 
z
" style="fill:#0072c6;stroke:#000000;stroke-linejoin:miter;"/>
   </g>
   <g id="patch_21">
    <path clip-path="url(#p0e83bfbfc9)" d="M 480.954595 68110.726475 
L 491.641397 68110.726475 
L 491.641397 345.061117 
L 480.954595 345.061117 
z
" style="fill:#0072c6;stroke:#000000;stroke-linejoin:miter;"/>
   </g>
   <g id="patch_22">
    <path clip-path="url(#p0e83bfbfc9)" d="M 573.499271 68110.726475 
L 584.186072 68110.726475 
L 584.186072 246.389455 
L 573.499271 246.389455 
z
" style="fill:#0072c6;stroke:#000000;stroke-linejoin:miter;"/>
   </g>
   <g id="patch_23">
    <path clip-path="url(#p0e83bfbfc9)" d="M 666.043946 68110.726475 
L 676.730748 68110.726475 
L 676.730748 249.708977 
L 666.043946 249.708977 
z
" style="fill:#0072c6;stroke:#000000;stroke-linejoin:miter;"/>
   </g>
   <g id="patch_24">
    <path clip-path="url(#p0e83bfbfc9)" d="M 142.855207 68110.726475 
L 153.542009 68110.726475 
L 153.542009 295.093976 
L 142.855207 295.093976 
z
" style="fill:#c77e00;stroke:#000000;stroke-linejoin:miter;"/>
   </g>
   <g id="patch_25">
    <path clip-path="url(#p0e83bfbfc9)" d="M 235.399883 68110.726475 
L 246.086684 68110.726475 
L 246.086684 208.317662 
L 235.399883 208.317662 
z
" style="fill:#c77e00;stroke:#000000;stroke-linejoin:miter;"/>
   </g>
   <g id="patch_26">
    <path clip-path="url(#p0e83bfbfc9)" d="M 327.944558 68110.726475 
L 338.63136 68110.726475 
L 338.63136 225.610056 
L 327.944558 225.610056 
z
" style="fill:#c77e00;stroke:#000000;stroke-linejoin:miter;"/>
   </g>
   <g id="patch_27">
    <path clip-path="url(#p0e83bfbfc9)" d="M 420.489234 68110.726475 
L 431.176035 68110.726475 
L 431.176035 252.841791 
L 420.489234 252.841791 
z
" style="fill:#c77e00;stroke:#000000;stroke-linejoin:miter;"/>
   </g>
   <g id="patch_28">
    <path clip-path="url(#p0e83bfbfc9)" d="M 513.033909 68110.726475 
L 523.720711 68110.726475 
L 523.720711 282.897944 
L 513.033909 282.897944 
z
" style="fill:#c77e00;stroke:#000000;stroke-linejoin:miter;"/>
   </g>
   <g id="patch_29">
    <path clip-path="url(#p0e83bfbfc9)" d="M 605.578585 68110.726475 
L 616.265386 68110.726475 
L 616.265386 394.338188 
L 605.578585 394.338188 
z
" style="fill:#c77e00;stroke:#000000;stroke-linejoin:miter;"/>
   </g>
   <g id="patch_30">
    <path clip-path="url(#p0e83bfbfc9)" d="M 698.12326 68110.726475 
L 708.810062 68110.726475 
L 708.810062 278.394175 
L 698.12326 278.394175 
z
" style="fill:#c77e00;stroke:#000000;stroke-linejoin:miter;"/>
   </g>
   <g id="patch_31">
    <path clip-path="url(#p0e83bfbfc9)" d="M 121.468998 68110.726475 
L 132.1558 68110.726475 
L 132.1558 252.103069 
L 121.468998 252.103069 
z
" style="fill:#005ea3;stroke:#000000;stroke-linejoin:miter;"/>
   </g>
   <g id="patch_32">
    <path clip-path="url(#p0e83bfbfc9)" d="M 214.013674 68110.726475 
L 224.700475 68110.726475 
L 224.700475 237.557152 
L 214.013674 237.557152 
z
" style="fill:#005ea3;stroke:#000000;stroke-linejoin:miter;"/>
   </g>
   <g id="patch_33">
    <path clip-path="url(#p0e83bfbfc9)" d="M 306.558349 68110.726475 
L 317.245151 68110.726475 
L 317.245151 276.387222 
L 306.558349 276.387222 
z
" style="fill:#005ea3;stroke:#000000;stroke-linejoin:miter;"/>
   </g>
   <g id="patch_34">
    <path clip-path="url(#p0e83bfbfc9)" d="M 399.103024 68110.726475 
L 409.789826 68110.726475 
L 409.789826 250.66527 
L 399.103024 250.66527 
z
" style="fill:#005ea3;stroke:#000000;stroke-linejoin:miter;"/>
   </g>
   <g id="patch_35">
    <path clip-path="url(#p0e83bfbfc9)" d="M 491.6477 68110.726475 
L 502.334502 68110.726475 
L 502.334502 243.94822 
L 491.6477 243.94822 
z
" style="fill:#005ea3;stroke:#000000;stroke-linejoin:miter;"/>
   </g>
   <g id="patch_36">
    <path clip-path="url(#p0e83bfbfc9)" d="M 584.192375 68110.726475 
L 594.879177 68110.726475 
L 594.879177 270.656117 
L 584.192375 270.656117 
z
" style="fill:#005ea3;stroke:#000000;stroke-linejoin:miter;"/>
   </g>
   <g id="patch_37">
    <path clip-path="url(#p0e83bfbfc9)" d="M 676.737051 68110.726475 
L 687.423852 68110.726475 
L 687.423852 265.595568 
L 676.737051 265.595568 
z
" style="fill:#005ea3;stroke:#000000;stroke-linejoin:miter;"/>
   </g>
   <g id="LineCollection_1">
    <path clip-path="url(#p0e83bfbfc9)" d="M 105.533086 342.768083 
L 105.533086 155.605701 
" style="fill:none;stroke:#1a1a1a;stroke-width:1.5;"/>
    <path clip-path="url(#p0e83bfbfc9)" d="M 198.077762 342.768083 
L 198.077762 169.008664 
" style="fill:none;stroke:#1a1a1a;stroke-width:1.5;"/>
    <path clip-path="url(#p0e83bfbfc9)" d="M 290.622437 342.768083 
L 290.622437 179.835857 
" style="fill:none;stroke:#1a1a1a;stroke-width:1.5;"/>
    <path clip-path="url(#p0e83bfbfc9)" d="M 383.167113 342.768083 
L 383.167113 188.363559 
" style="fill:none;stroke:#1a1a1a;stroke-width:1.5;"/>
    <path clip-path="url(#p0e83bfbfc9)" d="M 475.711788 342.768083 
L 475.711788 197.052441 
" style="fill:none;stroke:#1a1a1a;stroke-width:1.5;"/>
    <path clip-path="url(#p0e83bfbfc9)" d="M 568.256463 342.768083 
L 568.256463 212.247867 
" style="fill:none;stroke:#1a1a1a;stroke-width:1.5;"/>
    <path clip-path="url(#p0e83bfbfc9)" d="M 660.801139 342.768083 
L 660.801139 215.931002 
" style="fill:none;stroke:#1a1a1a;stroke-width:1.5;"/>
   </g>
   <g id="LineCollection_2">
    <path clip-path="url(#p0e83bfbfc9)" d="M 137.6124 342.768083 
L 137.6124 150.37045 
" style="fill:none;stroke:#1a1a1a;stroke-width:1.5;"/>
    <path clip-path="url(#p0e83bfbfc9)" d="M 230.157076 342.768083 
L 230.157076 168.451056 
" style="fill:none;stroke:#1a1a1a;stroke-width:1.5;"/>
    <path clip-path="url(#p0e83bfbfc9)" d="M 322.701751 342.768083 
L 322.701751 179.247705 
" style="fill:none;stroke:#1a1a1a;stroke-width:1.5;"/>
    <path clip-path="url(#p0e83bfbfc9)" d="M 415.246426 342.768083 
L 415.246426 188.883358 
" style="fill:none;stroke:#1a1a1a;stroke-width:1.5;"/>
    <path clip-path="url(#p0e83bfbfc9)" d="M 507.791102 342.768083 
L 507.791102 198.430437 
" style="fill:none;stroke:#1a1a1a;stroke-width:1.5;"/>
    <path clip-path="url(#p0e83bfbfc9)" d="M 600.335777 342.768083 
L 600.335777 210.420401 
" style="fill:none;stroke:#1a1a1a;stroke-width:1.5;"/>
    <path clip-path="url(#p0e83bfbfc9)" d="M 692.880453 342.768083 
L 692.880453 219.421857 
" style="fill:none;stroke:#1a1a1a;stroke-width:1.5;"/>
   </g>
   <g id="LineCollection_3">
    <path clip-path="url(#p0e83bfbfc9)" d="M 116.226191 342.768083 
L 116.226191 156.853182 
" style="fill:none;stroke:#1a1a1a;stroke-width:1.5;"/>
    <path clip-path="url(#p0e83bfbfc9)" d="M 208.770866 342.768083 
L 208.770866 163.443382 
" style="fill:none;stroke:#1a1a1a;stroke-width:1.5;"/>
    <path clip-path="url(#p0e83bfbfc9)" d="M 301.315542 342.768083 
L 301.315542 178.028468 
" style="fill:none;stroke:#1a1a1a;stroke-width:1.5;"/>
    <path clip-path="url(#p0e83bfbfc9)" d="M 393.860217 342.768083 
L 393.860217 186.348531 
" style="fill:none;stroke:#1a1a1a;stroke-width:1.5;"/>
    <path clip-path="url(#p0e83bfbfc9)" d="M 486.404893 342.768083 
L 486.404893 202.303897 
" style="fill:none;stroke:#1a1a1a;stroke-width:1.5;"/>
    <path clip-path="url(#p0e83bfbfc9)" d="M 578.949568 342.768083 
L 578.949568 204.985777 
" style="fill:none;stroke:#1a1a1a;stroke-width:1.5;"/>
    <path clip-path="url(#p0e83bfbfc9)" d="M 671.494244 342.768083 
L 671.494244 213.226636 
" style="fill:none;stroke:#1a1a1a;stroke-width:1.5;"/>
   </g>
   <g id="LineCollection_4">
    <path clip-path="url(#p0e83bfbfc9)" d="M 148.305505 342.768083 
L 148.305505 160.94546 
" style="fill:none;stroke:#1a1a1a;stroke-width:1.5;"/>
    <path clip-path="url(#p0e83bfbfc9)" d="M 240.85018 342.768083 
L 240.85018 164.759065 
" style="fill:none;stroke:#1a1a1a;stroke-width:1.5;"/>
    <path clip-path="url(#p0e83bfbfc9)" d="M 333.394856 342.768083 
L 333.394856 176.234003 
" style="fill:none;stroke:#1a1a1a;stroke-width:1.5;"/>
    <path clip-path="url(#p0e83bfbfc9)" d="M 425.939531 342.768083 
L 425.939531 188.515595 
" style="fill:none;stroke:#1a1a1a;stroke-width:1.5;"/>
    <path clip-path="url(#p0e83bfbfc9)" d="M 518.484206 342.768083 
L 518.484206 199.976182 
" style="fill:none;stroke:#1a1a1a;stroke-width:1.5;"/>
    <path clip-path="url(#p0e83bfbfc9)" d="M 611.028882 342.768083 
L 611.028882 211.629752 
" style="fill:none;stroke:#1a1a1a;stroke-width:1.5;"/>
    <path clip-path="url(#p0e83bfbfc9)" d="M 703.573557 342.768083 
L 703.573557 219.455852 
" style="fill:none;stroke:#1a1a1a;stroke-width:1.5;"/>
   </g>
   <g id="LineCollection_5">
    <path clip-path="url(#p0e83bfbfc9)" d="M 126.919295 342.768083 
L 126.919295 160.066698 
" style="fill:none;stroke:#1a1a1a;stroke-width:1.5;"/>
    <path clip-path="url(#p0e83bfbfc9)" d="M 219.463971 342.768083 
L 219.463971 168.686463 
" style="fill:none;stroke:#1a1a1a;stroke-width:1.5;"/>
    <path clip-path="url(#p0e83bfbfc9)" d="M 312.008646 342.768083 
L 312.008646 181.025596 
" style="fill:none;stroke:#1a1a1a;stroke-width:1.5;"/>
    <path clip-path="url(#p0e83bfbfc9)" d="M 404.553322 342.768083 
L 404.553322 188.157605 
" style="fill:none;stroke:#1a1a1a;stroke-width:1.5;"/>
    <path clip-path="url(#p0e83bfbfc9)" d="M 497.097997 342.768083 
L 497.097997 196.121631 
" style="fill:none;stroke:#1a1a1a;stroke-width:1.5;"/>
    <path clip-path="url(#p0e83bfbfc9)" d="M 589.642673 342.768083 
L 589.642673 209.568552 
" style="fill:none;stroke:#1a1a1a;stroke-width:1.5;"/>
    <path clip-path="url(#p0e83bfbfc9)" d="M 682.187348 342.768083 
L 682.187348 217.011968 
" style="fill:none;stroke:#1a1a1a;stroke-width:1.5;"/>
   </g>
   <g id="patch_38">
    <path d="M 69.646425 296.626475 
L 69.646425 24.826475 
" style="fill:none;stroke:#262626;stroke-linecap:square;stroke-linejoin:miter;stroke-width:1.25;"/>
   </g>
   <g id="patch_39">
    <path d="M 739.246425 296.626475 
L 739.246425 24.826475 
" style="fill:none;stroke:#262626;stroke-linecap:square;stroke-linejoin:miter;stroke-width:1.25;"/>
   </g>
   <g id="patch_40">
    <path d="M 69.646425 296.626475 
L 739.246425 296.626475 
" style="fill:none;stroke:#262626;stroke-linecap:square;stroke-linejoin:miter;stroke-width:1.25;"/>
   </g>
   <g id="patch_41">
    <path d="M 69.646425 24.826475 
L 739.246425 24.826475 
" style="fill:none;stroke:#262626;stroke-linecap:square;stroke-linejoin:miter;stroke-width:1.25;"/>
   </g>
   <g id="text_15">
    <!-- Accuracy of estimating $\mathrm{trace}(\mathbf{A}^{-1})$, with and withput OpenBLAS -->
    <g style="fill:#262626;" transform="translate(202.26557 18.826475)scale(0.144 -0.144)">
     <defs>
      <path d="M 2323 4378 
C 2291 4461 2278 4480 2214 4480 
C 2150 4480 2138 4461 2106 4378 
L 749 566 
C 627 223 371 153 147 153 
L 147 -13 
C 262 0 518 0 640 0 
C 800 0 1056 0 1210 -13 
L 1210 153 
C 909 153 864 361 864 439 
C 864 497 877 530 890 569 
L 1229 1536 
L 2906 1536 
L 3290 442 
C 3322 365 3322 352 3322 327 
C 3322 153 3046 153 2925 153 
L 2925 0 
C 3110 0 3443 0 3642 0 
C 3808 0 4128 0 4282 -13 
L 4282 153 
C 3942 153 3827 153 3744 387 
L 2323 4378 
z
M 2067 3893 
L 2848 1702 
L 1286 1702 
L 2067 3893 
z
" id="CMR17-41" transform="scale(0.015625)"/>
      <path d="M 1882 2693 
L 1882 2528 
C 2259 2528 2317 2489 2317 2186 
L 2317 1032 
C 2317 500 2029 38 1555 38 
C 1030 38 986 348 986 678 
L 986 2763 
L 211 2693 
L 211 2528 
C 467 2528 640 2528 646 2274 
L 646 1058 
C 646 633 646 361 813 183 
C 896 101 1056 -64 1517 -64 
C 2061 -64 2272 377 2323 506 
L 2330 506 
L 2330 -63 
L 3091 -63 
L 3091 128 
C 2714 128 2656 166 2656 473 
L 2656 2763 
L 1882 2693 
z
" id="CMR17-75" transform="scale(0.015625)"/>
      <path d="M 2496 2197 
C 2656 2586 2944 2586 3034 2586 
L 3034 2752 
C 2912 2752 2752 2752 2630 2752 
C 2496 2752 2285 2752 2157 2758 
L 2157 2592 
C 2400 2573 2406 2394 2406 2343 
C 2406 2280 2394 2248 2362 2171 
L 1664 449 
L 902 2306 
C 870 2382 870 2426 870 2433 
C 870 2573 1018 2586 1171 2586 
L 1171 2758 
C 1018 2752 742 2752 582 2752 
C 410 2752 205 2752 64 2758 
L 64 2586 
C 410 2586 448 2554 531 2350 
L 1485 15 
C 1197 -738 1030 -1178 627 -1178 
C 557 -1178 397 -1159 282 -1044 
C 429 -1031 493 -942 493 -833 
C 493 -725 416 -629 288 -629 
C 147 -629 77 -725 77 -840 
C 77 -1095 339 -1280 627 -1280 
C 998 -1280 1229 -922 1357 -604 
L 2496 2197 
z
" id="CMR17-79" transform="scale(0.015625)"/>
      <path d="M 979 2560 
L 1709 2560 
L 1709 2725 
L 966 2725 
L 966 3494 
C 966 4022 1235 4352 1510 4352 
C 1594 4352 1690 4327 1754 4282 
C 1702 4269 1568 4225 1568 4067 
C 1568 3901 1696 3850 1786 3850 
C 1875 3850 2003 3901 2003 4067 
C 2003 4308 1773 4454 1517 4454 
C 1152 4454 653 4156 653 3481 
L 653 2725 
L 141 2725 
L 141 2560 
L 653 2560 
L 653 427 
C 653 184 627 153 218 153 
L 218 -13 
C 371 0 666 0 832 0 
C 1018 0 1344 0 1517 -13 
L 1517 153 
C 1056 153 979 153 979 439 
L 979 2560 
z
" id="CMR17-66" transform="scale(0.015625)"/>
      <path d="M 710 1164 
C 832 1068 1043 960 1299 960 
C 1805 960 2240 1357 2240 1888 
C 2240 2054 2189 2310 1997 2509 
C 2176 2692 2438 2752 2586 2752 
C 2611 2752 2650 2752 2682 2734 
C 2656 2728 2598 2703 2598 2605 
C 2598 2527 2656 2471 2739 2471 
C 2835 2471 2886 2533 2886 2614 
C 2886 2731 2790 2854 2586 2854 
C 2330 2854 2106 2738 1926 2580 
C 1734 2753 1504 2816 1299 2816 
C 794 2816 358 2419 358 1888 
C 358 1522 570 1292 634 1228 
C 442 1004 442 743 442 711 
C 442 545 506 302 723 168 
C 390 85 128 -169 128 -486 
C 128 -943 736 -1280 1466 -1280 
C 2170 -1280 2803 -956 2803 -479 
C 2803 384 1856 384 1363 384 
C 1216 384 954 384 922 391 
C 723 423 589 602 589 826 
C 589 883 589 1024 710 1164 
z
M 1299 1068 
C 736 1068 736 1760 736 1889 
C 736 2016 736 2708 1299 2708 
C 1862 2708 1862 2016 1862 1889 
C 1862 1760 1862 1068 1299 1068 
z
M 1466 -1171 
C 826 -1171 384 -835 384 -486 
C 384 -289 493 -105 634 -4 
C 794 104 858 104 1293 104 
C 1818 104 2547 104 2547 -486 
C 2547 -835 2106 -1171 1466 -1171 
z
" id="CMR17-67" transform="scale(0.015625)"/>
      <path d="M 1958 -1561 
C 1958 -1555 1958 -1542 1939 -1523 
C 1645 -1224 858 -407 858 1581 
C 858 3569 1632 4379 1946 4697 
C 1946 4704 1958 4717 1958 4736 
C 1958 4755 1939 4768 1914 4768 
C 1843 4768 1299 4296 986 3594 
C 666 2887 576 2199 576 1588 
C 576 1128 621 351 1005 -471 
C 1312 -1135 1837 -1600 1914 -1600 
C 1946 -1600 1958 -1587 1958 -1561 
z
" id="CMR17-28" transform="scale(0.015625)"/>
      <path d="M 2931 4301 
C 2886 4416 2874 4448 2720 4448 
C 2560 4448 2547 4416 2502 4301 
L 915 413 
C 870 311 870 299 691 279 
C 531 260 506 260 365 260 
L 250 260 
L 250 -13 
C 416 0 800 0 986 0 
C 1158 0 1626 0 1773 -13 
L 1773 260 
C 1632 260 1389 260 1210 331 
C 1229 390 1229 402 1242 428 
L 1581 1262 
L 3296 1262 
L 3699 260 
L 3098 260 
L 3098 0 
C 3302 0 3923 0 4166 0 
C 4371 0 5024 0 5184 -13 
L 5184 260 
L 4576 260 
L 2931 4301 
z
M 2438 3367 
L 3181 1536 
L 1690 1536 
L 2438 3367 
z
" id="CMBX12-41" transform="scale(0.015625)"/>
      <path d="M 1683 1581 
C 1683 2040 1638 2817 1254 3639 
C 947 4303 422 4768 346 4768 
C 326 4768 301 4761 301 4729 
C 301 4717 307 4710 314 4697 
C 621 4378 1402 3568 1402 1584 
C 1402 -407 627 -1217 314 -1537 
C 307 -1549 301 -1556 301 -1568 
C 301 -1600 326 -1600 346 -1600 
C 416 -1600 960 -1128 1274 -426 
C 1594 281 1683 969 1683 1581 
z
" id="CMR17-29" transform="scale(0.015625)"/>
      <path d="M 1011 102 
C 1024 45 1024 25 1024 -77 
C 1024 -463 896 -817 627 -1139 
C 595 -1170 595 -1183 595 -1197 
C 595 -1222 621 -1248 646 -1248 
C 685 -1248 1126 -799 1126 -87 
C 1126 124 1101 522 800 522 
C 659 522 538 427 538 261 
C 538 96 659 0 800 0 
C 877 0 960 32 1011 102 
z
" id="CMR17-2c" transform="scale(0.015625)"/>
      <path d="M 3725 2183 
C 3853 2560 4109 2560 4205 2560 
L 4205 2732 
C 4077 2732 3949 2732 3821 2732 
C 3699 2732 3424 2732 3315 2738 
L 3315 2560 
C 3514 2560 3622 2445 3622 2286 
C 3622 2241 3610 2184 3597 2140 
L 2995 407 
L 2342 2275 
C 2330 2319 2310 2370 2310 2395 
C 2310 2560 2528 2560 2630 2560 
L 2630 2738 
C 2483 2732 2214 2732 2061 2732 
C 1901 2732 1734 2732 1587 2738 
L 1587 2560 
C 1939 2560 1939 2547 2074 2149 
L 1485 451 
L 851 2281 
C 819 2363 819 2376 819 2395 
C 819 2560 1037 2560 1139 2560 
L 1139 2738 
C 986 2732 717 2732 557 2732 
C 416 2732 198 2732 64 2738 
L 64 2560 
C 346 2560 416 2541 486 2331 
L 1274 49 
C 1299 -33 1318 -52 1370 -52 
C 1414 -52 1440 -39 1472 56 
L 2131 1980 
L 2797 56 
C 2829 -39 2854 -52 2899 -52 
C 2950 -52 2970 -33 2995 50 
L 3725 2183 
z
" id="CMR17-77" transform="scale(0.015625)"/>
      <path d="M 2656 1933 
C 2656 2259 2592 2790 1837 2790 
C 1312 2790 1056 2368 979 2157 
L 973 2157 
L 973 4396 
L 211 4326 
L 211 4160 
C 589 4160 646 4122 646 3817 
L 646 426 
C 646 184 621 153 211 153 
L 211 -13 
C 365 0 646 0 813 0 
C 979 0 1267 0 1421 -13 
L 1421 153 
C 1011 153 986 178 986 428 
L 986 1658 
C 986 2247 1344 2688 1792 2688 
C 2266 2688 2317 2266 2317 1958 
L 2317 428 
C 2317 184 2291 153 1882 153 
L 1882 -13 
C 2035 0 2317 0 2483 0 
C 2650 0 2938 0 3091 -13 
L 3091 153 
C 2682 153 2656 178 2656 428 
L 2656 1933 
z
" id="CMR17-68" transform="scale(0.015625)"/>
      <path d="M 4307 2135 
C 4307 3437 3366 4416 2304 4416 
C 1216 4416 294 3424 294 2135 
C 294 845 1229 -128 2298 -128 
C 3392 -128 4307 864 4307 2135 
z
M 2304 -13 
C 1574 -13 781 711 781 2217 
C 781 3716 1651 4301 2298 4301 
C 2976 4301 3821 3698 3821 2217 
C 3821 686 3008 -13 2304 -13 
z
" id="CMR17-4f" transform="scale(0.015625)"/>
      <path d="M 333 4352 
L 333 4186 
C 774 4186 845 4186 845 3900 
L 845 452 
C 845 166 774 166 333 166 
L 333 0 
L 2534 0 
C 3354 0 3885 583 3885 1164 
C 3885 1741 3360 2233 2675 2233 
C 3290 2356 3718 2771 3718 3264 
C 3718 3802 3194 4352 2368 4352 
L 333 4352 
z
M 1248 2304 
L 1248 3937 
C 1248 4155 1261 4186 1517 4186 
L 2336 4186 
C 2970 4186 3251 3674 3251 3277 
C 3251 2791 2861 2304 2170 2304 
L 1248 2304 
z
M 1517 166 
C 1261 166 1248 197 1248 413 
L 1248 2202 
L 2432 2202 
C 3091 2202 3411 1625 3411 1162 
C 3411 699 3046 166 2349 166 
L 1517 166 
z
" id="CMR17-42" transform="scale(0.015625)"/>
      <path d="M 3469 1615 
L 3354 1615 
C 3302 983 3219 166 2125 166 
L 1530 166 
C 1274 166 1261 197 1261 414 
L 1261 3898 
C 1261 4129 1274 4192 1760 4192 
L 1901 4192 
L 1901 4352 
C 1638 4352 1331 4352 1069 4352 
C 870 4352 512 4352 326 4352 
L 326 4192 
C 768 4192 838 4192 838 3905 
L 838 452 
C 838 166 768 166 326 166 
L 326 0 
L 3315 0 
L 3469 1615 
z
" id="CMR17-4c" transform="scale(0.015625)"/>
      <path d="M 2803 4290 
C 2803 4404 2797 4411 2758 4411 
C 2720 4411 2707 4385 2682 4328 
L 2490 3907 
C 2246 4257 1875 4416 1472 4416 
C 819 4416 294 3901 294 3253 
C 294 3056 339 2776 557 2510 
C 794 2218 1018 2167 1530 2033 
C 1722 1982 2042 1899 2106 1874 
C 2470 1722 2662 1341 2662 985 
C 2662 527 2336 38 1779 38 
C 1094 38 454 419 410 1311 
C 403 1413 397 1419 352 1419 
C 301 1419 294 1413 294 1285 
L 294 -1 
C 294 -115 301 -122 339 -122 
C 384 -122 397 -90 486 108 
C 493 127 493 140 614 381 
C 934 -39 1472 -128 1779 -128 
C 2477 -128 2970 451 2970 1124 
C 2970 1454 2848 1708 2778 1823 
C 2509 2230 2221 2306 1914 2382 
C 1869 2402 1856 2402 1498 2490 
C 1152 2579 1005 2624 845 2796 
C 666 2992 602 3196 602 3399 
C 602 3812 934 4263 1478 4263 
C 2157 4263 2579 3786 2675 2993 
C 2694 2878 2701 2872 2746 2872 
C 2803 2872 2803 2891 2803 2999 
L 2803 4290 
z
" id="CMR17-53" transform="scale(0.015625)"/>
     </defs>
     <use transform="scale(0.996264)" xlink:href="#CMR17-41"/>
     <use transform="translate(69.07243 0)scale(0.996264)" xlink:href="#CMR17-63"/>
     <use transform="translate(109.55809 0)scale(0.996264)" xlink:href="#CMR17-63"/>
     <use transform="translate(150.043751 0)scale(0.996264)" xlink:href="#CMR17-75"/>
     <use transform="translate(200.939121 0)scale(0.996264)" xlink:href="#CMR17-72"/>
     <use transform="translate(236.219888 0)scale(0.996264)" xlink:href="#CMR17-61"/>
     <use transform="translate(281.910365 0)scale(0.996264)" xlink:href="#CMR17-63"/>
     <use transform="translate(322.396026 0)scale(0.996264)" xlink:href="#CMR17-79"/>
     <use transform="translate(400.764908 0)scale(0.996264)" xlink:href="#CMR17-6f"/>
     <use transform="translate(446.455385 0)scale(0.996264)" xlink:href="#CMR17-66"/>
     <use transform="translate(504.004864 0)scale(0.996264)" xlink:href="#CMR17-65"/>
     <use transform="translate(544.490524 0)scale(0.996264)" xlink:href="#CMR17-73"/>
     <use transform="translate(580.291862 0)scale(0.996264)" xlink:href="#CMR17-74"/>
     <use transform="translate(615.57263 0)scale(0.996264)" xlink:href="#CMR17-69"/>
     <use transform="translate(640.443688 0)scale(0.996264)" xlink:href="#CMR17-6d"/>
     <use transform="translate(717.363278 0)scale(0.996264)" xlink:href="#CMR17-61"/>
     <use transform="translate(763.053755 0)scale(0.996264)" xlink:href="#CMR17-74"/>
     <use transform="translate(798.334523 0)scale(0.996264)" xlink:href="#CMR17-69"/>
     <use transform="translate(823.205582 0)scale(0.996264)" xlink:href="#CMR17-6e"/>
     <use transform="translate(874.100951 0)scale(0.996264)" xlink:href="#CMR17-67"/>
     <use transform="translate(949.867395 0)scale(0.996264)" xlink:href="#CMR17-74"/>
     <use transform="translate(985.148163 0)scale(0.996264)" xlink:href="#CMR17-72"/>
     <use transform="translate(1020.42893 0)scale(0.996264)" xlink:href="#CMR17-61"/>
     <use transform="translate(1066.119408 0)scale(0.996264)" xlink:href="#CMR17-63"/>
     <use transform="translate(1106.605068 0)scale(0.996264)" xlink:href="#CMR17-65"/>
     <use transform="translate(1147.090728 0)scale(0.996264)" xlink:href="#CMR17-28"/>
     <use transform="translate(1182.371496 0)scale(0.996264)" xlink:href="#CMBX12-41"/>
     <use transform="translate(1267.007891 36.153639)scale(0.697382)" xlink:href="#CMSY10-0"/>
     <use transform="translate(1321.248884 36.153639)scale(0.697382)" xlink:href="#CMR17-31"/>
     <use transform="translate(1353.730198 0)scale(0.996264)" xlink:href="#CMR17-29"/>
     <use transform="translate(1389.010966 0)scale(0.996264)" xlink:href="#CMR17-2c"/>
     <use transform="translate(1443.957991 0)scale(0.996264)" xlink:href="#CMR17-77"/>
     <use transform="translate(1510.467871 0)scale(0.996264)" xlink:href="#CMR17-69"/>
     <use transform="translate(1535.33893 0)scale(0.996264)" xlink:href="#CMR17-74"/>
     <use transform="translate(1570.619698 0)scale(0.996264)" xlink:href="#CMR17-68"/>
     <use transform="translate(1651.591034 0)scale(0.996264)" xlink:href="#CMR17-61"/>
     <use transform="translate(1697.281511 0)scale(0.996264)" xlink:href="#CMR17-6e"/>
     <use transform="translate(1748.176881 0)scale(0.996264)" xlink:href="#CMR17-64"/>
     <use transform="translate(1829.148217 0)scale(0.996264)" xlink:href="#CMR17-77"/>
     <use transform="translate(1895.658097 0)scale(0.996264)" xlink:href="#CMR17-69"/>
     <use transform="translate(1920.529156 0)scale(0.996264)" xlink:href="#CMR17-74"/>
     <use transform="translate(1955.809924 0)scale(0.996264)" xlink:href="#CMR17-68"/>
     <use transform="translate(2006.705293 0)scale(0.996264)" xlink:href="#CMR17-70"/>
     <use transform="translate(2057.600663 0)scale(0.996264)" xlink:href="#CMR17-75"/>
     <use transform="translate(2108.496033 0)scale(0.996264)" xlink:href="#CMR17-74"/>
     <use transform="translate(2173.852767 0)scale(0.996264)" xlink:href="#CMR17-4f"/>
     <use transform="translate(2245.567556 0)scale(0.996264)" xlink:href="#CMR17-70"/>
     <use transform="translate(2299.065364 0)scale(0.996264)" xlink:href="#CMR17-65"/>
     <use transform="translate(2339.551024 0)scale(0.996264)" xlink:href="#CMR17-6e"/>
     <use transform="translate(2390.446394 0)scale(0.996264)" xlink:href="#CMR17-42"/>
     <use transform="translate(2455.635149 0)scale(0.996264)" xlink:href="#CMR17-4c"/>
     <use transform="translate(2513.016557 0)scale(0.996264)" xlink:href="#CMR17-41"/>
     <use transform="translate(2582.088986 0)scale(0.996264)" xlink:href="#CMR17-53"/>
    </g>
   </g>
   <g id="legend_1">
    <g id="patch_42">
     <path d="M 561.886495 101.29433 
L 730.849785 101.29433 
Q 733.248825 101.29433 733.248825 98.89529 
L 733.248825 33.223115 
Q 733.248825 30.824075 730.849785 30.824075 
L 561.886495 30.824075 
Q 559.487455 30.824075 559.487455 33.223115 
L 559.487455 98.89529 
Q 559.487455 101.29433 561.886495 101.29433 
z
" style="fill:#ffffff;opacity:0.8;stroke:#cccccc;stroke-linejoin:miter;"/>
    </g>
    <g id="patch_43">
     <path d="M 564.285535 44.018795 
L 588.275935 44.018795 
L 588.275935 35.622155 
L 564.285535 35.622155 
z
" style="fill:none;"/>
    </g>
    <g id="patch_44">
     <path d="M 564.285535 60.736719 
L 588.275935 60.736719 
L 588.275935 52.340079 
L 564.285535 52.340079 
z
" style="fill:none;"/>
    </g>
    <g id="text_16">
     <!-- 32 bit -->
     <g style="fill:#262626;" transform="translate(564.285535 60.736719)scale(0.119952 -0.119952)">
      <use transform="scale(0.996264)" xlink:href="#CMR17-33"/>
      <use transform="translate(45.690477 0)scale(0.996264)" xlink:href="#CMR17-32"/>
      <use transform="translate(121.456921 0)scale(0.996264)" xlink:href="#CMR17-62"/>
      <use transform="translate(172.35229 0)scale(0.996264)" xlink:href="#CMR17-69"/>
      <use transform="translate(197.223349 0)scale(0.996264)" xlink:href="#CMR17-74"/>
     </g>
    </g>
    <g id="patch_45">
     <path d="M 564.285535 77.454642 
L 588.275935 77.454642 
L 588.275935 69.058002 
L 564.285535 69.058002 
z
" style="fill:none;"/>
    </g>
    <g id="text_17">
     <!-- 64 bit -->
     <g style="fill:#262626;" transform="translate(564.285535 77.454642)scale(0.119952 -0.119952)">
      <defs>
       <path d="M 678 2176 
C 678 3690 1395 4032 1811 4032 
C 1946 4032 2272 4009 2400 3776 
C 2298 3776 2106 3776 2106 3553 
C 2106 3381 2246 3323 2336 3323 
C 2394 3323 2566 3348 2566 3560 
C 2566 3954 2246 4179 1805 4179 
C 1043 4179 243 3390 243 1984 
C 243 253 966 -128 1478 -128 
C 2099 -128 2688 427 2688 1283 
C 2688 2081 2170 2662 1517 2662 
C 1126 2662 838 2407 678 1960 
L 678 2176 
z
M 1478 25 
C 691 25 691 1200 691 1436 
C 691 1896 909 2560 1504 2560 
C 1613 2560 1926 2560 2138 2120 
C 2253 1870 2253 1609 2253 1289 
C 2253 944 2253 690 2118 434 
C 1978 171 1773 25 1478 25 
z
" id="CMR17-36" transform="scale(0.015625)"/>
      </defs>
      <use transform="scale(0.996264)" xlink:href="#CMR17-36"/>
      <use transform="translate(45.690477 0)scale(0.996264)" xlink:href="#CMR17-34"/>
      <use transform="translate(121.456921 0)scale(0.996264)" xlink:href="#CMR17-62"/>
      <use transform="translate(172.35229 0)scale(0.996264)" xlink:href="#CMR17-69"/>
      <use transform="translate(197.223349 0)scale(0.996264)" xlink:href="#CMR17-74"/>
     </g>
    </g>
    <g id="patch_46">
     <path d="M 564.285535 94.172566 
L 588.275935 94.172566 
L 588.275935 85.775926 
L 564.285535 85.775926 
z
" style="fill:none;"/>
    </g>
    <g id="text_18">
     <!-- 128 bit -->
     <g style="fill:#262626;" transform="translate(564.285535 94.172566)scale(0.119952 -0.119952)">
      <use transform="scale(0.996264)" xlink:href="#CMR17-31"/>
      <use transform="translate(45.690477 0)scale(0.996264)" xlink:href="#CMR17-32"/>
      <use transform="translate(91.380954 0)scale(0.996264)" xlink:href="#CMR17-38"/>
      <use transform="translate(167.147398 0)scale(0.996264)" xlink:href="#CMR17-62"/>
      <use transform="translate(218.042767 0)scale(0.996264)" xlink:href="#CMR17-69"/>
      <use transform="translate(242.913826 0)scale(0.996264)" xlink:href="#CMR17-74"/>
     </g>
    </g>
    <g id="patch_47">
     <path d="M 624.791027 44.018795 
L 648.781427 44.018795 
L 648.781427 35.622155 
L 624.791027 35.622155 
z
" style="fill:none;"/>
    </g>
    <g id="text_19">
     <!-- no BLAS -->
     <g style="fill:#262626;" transform="translate(624.791027 44.018795)scale(0.119952 -0.119952)">
      <use transform="scale(0.996264)" xlink:href="#CMR17-6e"/>
      <use transform="translate(50.89537 0)scale(0.996264)" xlink:href="#CMR17-6f"/>
      <use transform="translate(126.661813 0)scale(0.996264)" xlink:href="#CMR17-42"/>
      <use transform="translate(191.850568 0)scale(0.996264)" xlink:href="#CMR17-4c"/>
      <use transform="translate(249.231976 0)scale(0.996264)" xlink:href="#CMR17-41"/>
      <use transform="translate(318.304405 0)scale(0.996264)" xlink:href="#CMR17-53"/>
     </g>
    </g>
    <g id="patch_48">
     <path d="M 624.791027 60.736719 
L 648.781427 60.736719 
L 648.781427 52.340079 
L 624.791027 52.340079 
z
" style="fill:#0093ff;stroke:#000000;stroke-linejoin:miter;"/>
    </g>
    <g id="patch_49">
     <path d="M 624.791027 77.454642 
L 648.781427 77.454642 
L 648.781427 69.058002 
L 624.791027 69.058002 
z
" style="fill:#0072c6;stroke:#000000;stroke-linejoin:miter;"/>
    </g>
    <g id="patch_50">
     <path d="M 624.791027 94.172566 
L 648.781427 94.172566 
L 648.781427 85.775926 
L 624.791027 85.775926 
z
" style="fill:#005ea3;stroke:#000000;stroke-linejoin:miter;"/>
    </g>
    <g id="patch_51">
     <path d="M 696.914967 44.018795 
L 720.905367 44.018795 
L 720.905367 35.622155 
L 696.914967 35.622155 
z
" style="fill:none;"/>
    </g>
    <g id="text_20">
     <!-- BLAS -->
     <g style="fill:#262626;" transform="translate(696.914967 44.018795)scale(0.119952 -0.119952)">
      <use transform="scale(0.996264)" xlink:href="#CMR17-42"/>
      <use transform="translate(65.188754 0)scale(0.996264)" xlink:href="#CMR17-4c"/>
      <use transform="translate(122.570162 0)scale(0.996264)" xlink:href="#CMR17-41"/>
      <use transform="translate(191.642592 0)scale(0.996264)" xlink:href="#CMR17-53"/>
     </g>
    </g>
    <g id="patch_52">
     <path d="M 696.914967 60.736719 
L 720.905367 60.736719 
L 720.905367 52.340079 
L 696.914967 52.340079 
z
" style="fill:#fab300;stroke:#000000;stroke-linejoin:miter;"/>
    </g>
    <g id="patch_53">
     <path d="M 696.914967 77.454642 
L 720.905367 77.454642 
L 720.905367 69.058002 
L 696.914967 69.058002 
z
" style="fill:#c77e00;stroke:#000000;stroke-linejoin:miter;"/>
    </g>
    <g id="patch_54">
     <path d="M 696.914967 94.172566 
L 720.905367 94.172566 
L 720.905367 85.775926 
L 696.914967 85.775926 
z
" style="fill:none;"/>
    </g>
   </g>
  </g>
 </g>
 <defs>
  <clipPath id="p0e83bfbfc9">
   <rect height="271.8" width="669.6" x="69.646425" y="24.826475"/>
  </clipPath>
 </defs>
</svg>
