<?xml version="1.0" encoding="utf-8" standalone="no"?>
<!DOCTYPE svg PUBLIC "-//W3C//DTD SVG 1.1//EN"
  "http://www.w3.org/Graphics/SVG/1.1/DTD/svg11.dtd">
<svg height="340.104233pt" version="1.1" viewBox="0 0 501.671076 340.104233" width="501.671076pt" xmlns="http://www.w3.org/2000/svg" xmlns:xlink="http://www.w3.org/1999/xlink">
 <metadata>
  <rdf:RDF xmlns:cc="http://creativecommons.org/ns#" xmlns:dc="http://purl.org/dc/elements/1.1/" xmlns:rdf="http://www.w3.org/1999/02/22-rdf-syntax-ns#">
   <cc:Work>
    <dc:type rdf:resource="http://purl.org/dc/dcmitype/StillImage"/>
    <dc:date>2021-08-16T19:16:39.665645</dc:date>
    <dc:format>image/svg+xml</dc:format>
    <dc:creator>
     <cc:Agent>
      <dc:title>Matplotlib v3.4.2, https://matplotlib.org/</dc:title>
     </cc:Agent>
    </dc:creator>
   </cc:Work>
  </rdf:RDF>
 </metadata>
 <defs>
  <style type="text/css">*{stroke-linecap:butt;stroke-linejoin:round;}</style>
 </defs>
 <g id="figure_1">
  <g id="patch_1">
   <path d="M 0 340.104233 
L 501.671076 340.104233 
L 501.671076 0 
L 0 0 
z
" style="fill:none;"/>
  </g>
  <g id="axes_1">
   <g id="patch_2">
    <path d="M 60.011855 294.962625 
L 450.611855 294.962625 
L 450.611855 23.162625 
L 60.011855 23.162625 
z
" style="fill:none;"/>
   </g>
   <g id="matplotlib.axis_1">
    <g id="xtick_1">
     <g id="line2d_1">
      <defs>
       <path d="M 0 0 
L 0 6 
" id="m2e4012a8c8" style="stroke:#262626;stroke-width:1.25;"/>
      </defs>
      <g>
       <use style="fill:#262626;stroke:#262626;stroke-width:1.25;" x="99.007654" xlink:href="#m2e4012a8c8" y="294.962625"/>
      </g>
     </g>
     <g id="text_1">
      <!-- $\mathdefault{10^{4}}$ -->
      <g style="fill:#262626;" transform="translate(90.204119 313.59502)scale(0.132 -0.132)">
       <defs>
        <path d="M 1702 4058 
C 1702 4192 1696 4192 1606 4192 
C 1357 3916 979 3827 621 3827 
C 602 3827 570 3827 563 3808 
C 557 3795 557 3782 557 3648 
C 755 3648 1088 3686 1344 3839 
L 1344 461 
C 1344 236 1331 160 781 160 
L 589 160 
L 589 0 
C 896 0 1216 0 1523 0 
C 1830 0 2150 0 2458 0 
L 2458 160 
L 2266 160 
C 1715 160 1702 230 1702 458 
L 1702 4058 
z
" id="CMR17-31" transform="scale(0.015625)"/>
        <path d="M 2688 2025 
C 2688 2416 2682 3080 2413 3591 
C 2176 4039 1798 4198 1466 4198 
C 1158 4198 768 4058 525 3597 
C 269 3118 243 2524 243 2025 
C 243 1661 250 1106 448 619 
C 723 -39 1216 -128 1466 -128 
C 1760 -128 2208 -7 2470 600 
C 2662 1042 2688 1559 2688 2025 
z
M 1466 -26 
C 1056 -26 813 325 723 812 
C 653 1188 653 1738 653 2096 
C 653 2588 653 2997 736 3387 
C 858 3929 1216 4096 1466 4096 
C 1728 4096 2067 3923 2189 3400 
C 2272 3036 2278 2607 2278 2096 
C 2278 1680 2278 1169 2202 792 
C 2067 95 1690 -26 1466 -26 
z
" id="CMR17-30" transform="scale(0.015625)"/>
        <path d="M 2150 4122 
C 2150 4256 2144 4256 2029 4256 
L 128 1254 
L 128 1088 
L 1779 1088 
L 1779 457 
C 1779 224 1766 160 1318 160 
L 1197 160 
L 1197 0 
C 1402 0 1747 0 1965 0 
C 2182 0 2528 0 2733 0 
L 2733 160 
L 2611 160 
C 2163 160 2150 224 2150 457 
L 2150 1088 
L 2803 1088 
L 2803 1254 
L 2150 1254 
L 2150 4122 
z
M 1798 3703 
L 1798 1254 
L 256 1254 
L 1798 3703 
z
" id="CMR17-34" transform="scale(0.015625)"/>
       </defs>
       <use transform="scale(0.996264)" xlink:href="#CMR17-31"/>
       <use transform="translate(45.690477 0)scale(0.996264)" xlink:href="#CMR17-30"/>
       <use transform="translate(91.380954 36.153639)scale(0.697382)" xlink:href="#CMR17-34"/>
      </g>
     </g>
    </g>
    <g id="xtick_2">
     <g id="line2d_2">
      <g>
       <use style="fill:#262626;stroke:#262626;stroke-width:1.25;" x="173.189198" xlink:href="#m2e4012a8c8" y="294.962625"/>
      </g>
     </g>
     <g id="text_2">
      <!-- $\mathdefault{10^{5}}$ -->
      <g style="fill:#262626;" transform="translate(164.385663 313.59502)scale(0.132 -0.132)">
       <defs>
        <path d="M 730 3692 
C 794 3666 1056 3584 1325 3584 
C 1920 3584 2246 3911 2432 4100 
C 2432 4157 2432 4192 2394 4192 
C 2387 4192 2374 4192 2323 4163 
C 2099 4058 1837 3973 1517 3973 
C 1325 3973 1037 3999 723 4139 
C 653 4171 640 4171 634 4171 
C 602 4171 595 4164 595 4037 
L 595 2203 
C 595 2089 595 2057 659 2057 
C 691 2057 704 2070 736 2114 
C 941 2401 1222 2522 1542 2522 
C 1766 2522 2246 2382 2246 1289 
C 2246 1085 2246 715 2054 421 
C 1894 159 1645 25 1370 25 
C 947 25 518 320 403 814 
C 429 807 480 795 506 795 
C 589 795 749 840 749 1038 
C 749 1210 627 1280 506 1280 
C 358 1280 262 1190 262 1011 
C 262 454 704 -128 1382 -128 
C 2042 -128 2669 440 2669 1264 
C 2669 2030 2170 2624 1549 2624 
C 1222 2624 947 2503 730 2274 
L 730 3692 
z
" id="CMR17-35" transform="scale(0.015625)"/>
       </defs>
       <use transform="scale(0.996264)" xlink:href="#CMR17-31"/>
       <use transform="translate(45.690477 0)scale(0.996264)" xlink:href="#CMR17-30"/>
       <use transform="translate(91.380954 36.153639)scale(0.697382)" xlink:href="#CMR17-35"/>
      </g>
     </g>
    </g>
    <g id="xtick_3">
     <g id="line2d_3">
      <g>
       <use style="fill:#262626;stroke:#262626;stroke-width:1.25;" x="247.370742" xlink:href="#m2e4012a8c8" y="294.962625"/>
      </g>
     </g>
     <g id="text_3">
      <!-- $\mathdefault{10^{6}}$ -->
      <g style="fill:#262626;" transform="translate(238.567208 313.59502)scale(0.132 -0.132)">
       <defs>
        <path d="M 678 2176 
C 678 3690 1395 4032 1811 4032 
C 1946 4032 2272 4009 2400 3776 
C 2298 3776 2106 3776 2106 3553 
C 2106 3381 2246 3323 2336 3323 
C 2394 3323 2566 3348 2566 3560 
C 2566 3954 2246 4179 1805 4179 
C 1043 4179 243 3390 243 1984 
C 243 253 966 -128 1478 -128 
C 2099 -128 2688 427 2688 1283 
C 2688 2081 2170 2662 1517 2662 
C 1126 2662 838 2407 678 1960 
L 678 2176 
z
M 1478 25 
C 691 25 691 1200 691 1436 
C 691 1896 909 2560 1504 2560 
C 1613 2560 1926 2560 2138 2120 
C 2253 1870 2253 1609 2253 1289 
C 2253 944 2253 690 2118 434 
C 1978 171 1773 25 1478 25 
z
" id="CMR17-36" transform="scale(0.015625)"/>
       </defs>
       <use transform="scale(0.996264)" xlink:href="#CMR17-31"/>
       <use transform="translate(45.690477 0)scale(0.996264)" xlink:href="#CMR17-30"/>
       <use transform="translate(91.380954 36.153639)scale(0.697382)" xlink:href="#CMR17-36"/>
      </g>
     </g>
    </g>
    <g id="xtick_4">
     <g id="line2d_4">
      <g>
       <use style="fill:#262626;stroke:#262626;stroke-width:1.25;" x="321.552287" xlink:href="#m2e4012a8c8" y="294.962625"/>
      </g>
     </g>
     <g id="text_4">
      <!-- $\mathdefault{10^{7}}$ -->
      <g style="fill:#262626;" transform="translate(312.748752 313.59502)scale(0.132 -0.132)">
       <defs>
        <path d="M 2886 3941 
L 2886 4081 
L 1382 4081 
C 634 4081 621 4165 595 4288 
L 480 4288 
L 294 3094 
L 410 3094 
C 429 3215 474 3540 550 3661 
C 589 3712 1062 3712 1171 3712 
L 2579 3712 
L 1869 2661 
C 1395 1954 1069 999 1069 165 
C 1069 89 1069 -128 1299 -128 
C 1530 -128 1530 89 1530 171 
L 1530 465 
C 1530 1508 1709 2196 2003 2636 
L 2886 3941 
z
" id="CMR17-37" transform="scale(0.015625)"/>
       </defs>
       <use transform="scale(0.996264)" xlink:href="#CMR17-31"/>
       <use transform="translate(45.690477 0)scale(0.996264)" xlink:href="#CMR17-30"/>
       <use transform="translate(91.380954 36.153639)scale(0.697382)" xlink:href="#CMR17-37"/>
      </g>
     </g>
    </g>
    <g id="xtick_5">
     <g id="line2d_5">
      <g>
       <use style="fill:#262626;stroke:#262626;stroke-width:1.25;" x="395.733831" xlink:href="#m2e4012a8c8" y="294.962625"/>
      </g>
     </g>
     <g id="text_5">
      <!-- $\mathdefault{10^{8}}$ -->
      <g style="fill:#262626;" transform="translate(386.930296 313.59502)scale(0.132 -0.132)">
       <defs>
        <path d="M 1741 2264 
C 2144 2467 2554 2773 2554 3263 
C 2554 3841 1990 4179 1472 4179 
C 890 4179 378 3759 378 3180 
C 378 3021 416 2747 666 2505 
C 730 2442 998 2251 1171 2130 
C 883 1983 211 1634 211 934 
C 211 279 838 -128 1459 -128 
C 2144 -128 2720 362 2720 1010 
C 2720 1590 2330 1857 2074 2029 
L 1741 2264 
z
M 902 2822 
C 851 2854 595 3051 595 3351 
C 595 3739 998 4032 1459 4032 
C 1965 4032 2336 3676 2336 3262 
C 2336 2669 1670 2331 1638 2331 
C 1632 2331 1626 2331 1574 2370 
L 902 2822 
z
M 2080 1519 
C 2176 1449 2483 1240 2483 851 
C 2483 381 2010 25 1472 25 
C 890 25 448 438 448 940 
C 448 1443 838 1862 1280 2060 
L 2080 1519 
z
" id="CMR17-38" transform="scale(0.015625)"/>
       </defs>
       <use transform="scale(0.996264)" xlink:href="#CMR17-31"/>
       <use transform="translate(45.690477 0)scale(0.996264)" xlink:href="#CMR17-30"/>
       <use transform="translate(91.380954 36.153639)scale(0.697382)" xlink:href="#CMR17-38"/>
      </g>
     </g>
    </g>
    <g id="xtick_6">
     <g id="line2d_6">
      <defs>
       <path d="M 0 0 
L 0 4 
" id="med545f869e" style="stroke:#262626;"/>
      </defs>
      <g>
       <use style="fill:#262626;stroke:#262626;" x="60.219701" xlink:href="#med545f869e" y="294.962625"/>
      </g>
     </g>
    </g>
    <g id="xtick_7">
     <g id="line2d_7">
      <g>
       <use style="fill:#262626;stroke:#262626;" x="69.487849" xlink:href="#med545f869e" y="294.962625"/>
      </g>
     </g>
    </g>
    <g id="xtick_8">
     <g id="line2d_8">
      <g>
       <use style="fill:#262626;stroke:#262626;" x="76.676784" xlink:href="#med545f869e" y="294.962625"/>
      </g>
     </g>
    </g>
    <g id="xtick_9">
     <g id="line2d_9">
      <g>
       <use style="fill:#262626;stroke:#262626;" x="82.550571" xlink:href="#med545f869e" y="294.962625"/>
      </g>
     </g>
    </g>
    <g id="xtick_10">
     <g id="line2d_10">
      <g>
       <use style="fill:#262626;stroke:#262626;" x="87.516787" xlink:href="#med545f869e" y="294.962625"/>
      </g>
     </g>
    </g>
    <g id="xtick_11">
     <g id="line2d_11">
      <g>
       <use style="fill:#262626;stroke:#262626;" x="91.818719" xlink:href="#med545f869e" y="294.962625"/>
      </g>
     </g>
    </g>
    <g id="xtick_12">
     <g id="line2d_12">
      <g>
       <use style="fill:#262626;stroke:#262626;" x="95.613292" xlink:href="#med545f869e" y="294.962625"/>
      </g>
     </g>
    </g>
    <g id="xtick_13">
     <g id="line2d_13">
      <g>
       <use style="fill:#262626;stroke:#262626;" x="121.338524" xlink:href="#med545f869e" y="294.962625"/>
      </g>
     </g>
    </g>
    <g id="xtick_14">
     <g id="line2d_14">
      <g>
       <use style="fill:#262626;stroke:#262626;" x="134.401245" xlink:href="#med545f869e" y="294.962625"/>
      </g>
     </g>
    </g>
    <g id="xtick_15">
     <g id="line2d_15">
      <g>
       <use style="fill:#262626;stroke:#262626;" x="143.669394" xlink:href="#med545f869e" y="294.962625"/>
      </g>
     </g>
    </g>
    <g id="xtick_16">
     <g id="line2d_16">
      <g>
       <use style="fill:#262626;stroke:#262626;" x="150.858328" xlink:href="#med545f869e" y="294.962625"/>
      </g>
     </g>
    </g>
    <g id="xtick_17">
     <g id="line2d_17">
      <g>
       <use style="fill:#262626;stroke:#262626;" x="156.732115" xlink:href="#med545f869e" y="294.962625"/>
      </g>
     </g>
    </g>
    <g id="xtick_18">
     <g id="line2d_18">
      <g>
       <use style="fill:#262626;stroke:#262626;" x="161.698331" xlink:href="#med545f869e" y="294.962625"/>
      </g>
     </g>
    </g>
    <g id="xtick_19">
     <g id="line2d_19">
      <g>
       <use style="fill:#262626;stroke:#262626;" x="166.000264" xlink:href="#med545f869e" y="294.962625"/>
      </g>
     </g>
    </g>
    <g id="xtick_20">
     <g id="line2d_20">
      <g>
       <use style="fill:#262626;stroke:#262626;" x="169.794837" xlink:href="#med545f869e" y="294.962625"/>
      </g>
     </g>
    </g>
    <g id="xtick_21">
     <g id="line2d_21">
      <g>
       <use style="fill:#262626;stroke:#262626;" x="195.520068" xlink:href="#med545f869e" y="294.962625"/>
      </g>
     </g>
    </g>
    <g id="xtick_22">
     <g id="line2d_22">
      <g>
       <use style="fill:#262626;stroke:#262626;" x="208.58279" xlink:href="#med545f869e" y="294.962625"/>
      </g>
     </g>
    </g>
    <g id="xtick_23">
     <g id="line2d_23">
      <g>
       <use style="fill:#262626;stroke:#262626;" x="217.850938" xlink:href="#med545f869e" y="294.962625"/>
      </g>
     </g>
    </g>
    <g id="xtick_24">
     <g id="line2d_24">
      <g>
       <use style="fill:#262626;stroke:#262626;" x="225.039872" xlink:href="#med545f869e" y="294.962625"/>
      </g>
     </g>
    </g>
    <g id="xtick_25">
     <g id="line2d_25">
      <g>
       <use style="fill:#262626;stroke:#262626;" x="230.91366" xlink:href="#med545f869e" y="294.962625"/>
      </g>
     </g>
    </g>
    <g id="xtick_26">
     <g id="line2d_26">
      <g>
       <use style="fill:#262626;stroke:#262626;" x="235.879876" xlink:href="#med545f869e" y="294.962625"/>
      </g>
     </g>
    </g>
    <g id="xtick_27">
     <g id="line2d_27">
      <g>
       <use style="fill:#262626;stroke:#262626;" x="240.181808" xlink:href="#med545f869e" y="294.962625"/>
      </g>
     </g>
    </g>
    <g id="xtick_28">
     <g id="line2d_28">
      <g>
       <use style="fill:#262626;stroke:#262626;" x="243.976381" xlink:href="#med545f869e" y="294.962625"/>
      </g>
     </g>
    </g>
    <g id="xtick_29">
     <g id="line2d_29">
      <g>
       <use style="fill:#262626;stroke:#262626;" x="269.701612" xlink:href="#med545f869e" y="294.962625"/>
      </g>
     </g>
    </g>
    <g id="xtick_30">
     <g id="line2d_30">
      <g>
       <use style="fill:#262626;stroke:#262626;" x="282.764334" xlink:href="#med545f869e" y="294.962625"/>
      </g>
     </g>
    </g>
    <g id="xtick_31">
     <g id="line2d_31">
      <g>
       <use style="fill:#262626;stroke:#262626;" x="292.032482" xlink:href="#med545f869e" y="294.962625"/>
      </g>
     </g>
    </g>
    <g id="xtick_32">
     <g id="line2d_32">
      <g>
       <use style="fill:#262626;stroke:#262626;" x="299.221417" xlink:href="#med545f869e" y="294.962625"/>
      </g>
     </g>
    </g>
    <g id="xtick_33">
     <g id="line2d_33">
      <g>
       <use style="fill:#262626;stroke:#262626;" x="305.095204" xlink:href="#med545f869e" y="294.962625"/>
      </g>
     </g>
    </g>
    <g id="xtick_34">
     <g id="line2d_34">
      <g>
       <use style="fill:#262626;stroke:#262626;" x="310.06142" xlink:href="#med545f869e" y="294.962625"/>
      </g>
     </g>
    </g>
    <g id="xtick_35">
     <g id="line2d_35">
      <g>
       <use style="fill:#262626;stroke:#262626;" x="314.363352" xlink:href="#med545f869e" y="294.962625"/>
      </g>
     </g>
    </g>
    <g id="xtick_36">
     <g id="line2d_36">
      <g>
       <use style="fill:#262626;stroke:#262626;" x="318.157925" xlink:href="#med545f869e" y="294.962625"/>
      </g>
     </g>
    </g>
    <g id="xtick_37">
     <g id="line2d_37">
      <g>
       <use style="fill:#262626;stroke:#262626;" x="343.883157" xlink:href="#med545f869e" y="294.962625"/>
      </g>
     </g>
    </g>
    <g id="xtick_38">
     <g id="line2d_38">
      <g>
       <use style="fill:#262626;stroke:#262626;" x="356.945878" xlink:href="#med545f869e" y="294.962625"/>
      </g>
     </g>
    </g>
    <g id="xtick_39">
     <g id="line2d_39">
      <g>
       <use style="fill:#262626;stroke:#262626;" x="366.214027" xlink:href="#med545f869e" y="294.962625"/>
      </g>
     </g>
    </g>
    <g id="xtick_40">
     <g id="line2d_40">
      <g>
       <use style="fill:#262626;stroke:#262626;" x="373.402961" xlink:href="#med545f869e" y="294.962625"/>
      </g>
     </g>
    </g>
    <g id="xtick_41">
     <g id="line2d_41">
      <g>
       <use style="fill:#262626;stroke:#262626;" x="379.276748" xlink:href="#med545f869e" y="294.962625"/>
      </g>
     </g>
    </g>
    <g id="xtick_42">
     <g id="line2d_42">
      <g>
       <use style="fill:#262626;stroke:#262626;" x="384.242964" xlink:href="#med545f869e" y="294.962625"/>
      </g>
     </g>
    </g>
    <g id="xtick_43">
     <g id="line2d_43">
      <g>
       <use style="fill:#262626;stroke:#262626;" x="388.544897" xlink:href="#med545f869e" y="294.962625"/>
      </g>
     </g>
    </g>
    <g id="xtick_44">
     <g id="line2d_44">
      <g>
       <use style="fill:#262626;stroke:#262626;" x="392.33947" xlink:href="#med545f869e" y="294.962625"/>
      </g>
     </g>
    </g>
    <g id="xtick_45">
     <g id="line2d_45">
      <g>
       <use style="fill:#262626;stroke:#262626;" x="418.064701" xlink:href="#med545f869e" y="294.962625"/>
      </g>
     </g>
    </g>
    <g id="xtick_46">
     <g id="line2d_46">
      <g>
       <use style="fill:#262626;stroke:#262626;" x="431.127423" xlink:href="#med545f869e" y="294.962625"/>
      </g>
     </g>
    </g>
    <g id="xtick_47">
     <g id="line2d_47">
      <g>
       <use style="fill:#262626;stroke:#262626;" x="440.395571" xlink:href="#med545f869e" y="294.962625"/>
      </g>
     </g>
    </g>
    <g id="xtick_48">
     <g id="line2d_48">
      <g>
       <use style="fill:#262626;stroke:#262626;" x="447.584505" xlink:href="#med545f869e" y="294.962625"/>
      </g>
     </g>
    </g>
    <g id="text_6">
     <!-- Matrix nnz -->
     <g style="fill:#262626;" transform="translate(220.976874 330.114706)scale(0.144 -0.144)">
      <defs>
       <path d="M 1338 4224 
C 1299 4320 1293 4320 1158 4320 
L 339 4320 
L 339 4160 
C 781 4160 851 4160 851 3875 
L 851 610 
C 851 451 851 153 339 153 
L 339 -13 
C 486 0 755 0 915 0 
C 1075 0 1344 0 1491 -13 
L 1491 153 
C 979 153 979 451 979 610 
L 979 4135 
L 986 4135 
L 2490 89 
C 2515 25 2528 -13 2579 -13 
C 2630 -13 2643 25 2669 89 
L 4186 4166 
L 4192 4166 
L 4192 438 
C 4192 153 4122 153 3680 153 
L 3680 -13 
C 3853 0 4198 0 4384 0 
C 4570 0 4922 0 5094 -13 
L 5094 153 
C 4653 153 4582 153 4582 438 
L 4582 3875 
C 4582 4160 4653 4160 5094 4160 
L 5094 4320 
L 4282 4320 
C 4147 4320 4141 4314 4102 4218 
L 2720 502 
L 1338 4224 
z
" id="CMR17-4d" transform="scale(0.015625)"/>
       <path d="M 2304 1653 
C 2304 2072 2304 2294 2035 2543 
C 1798 2752 1523 2816 1306 2816 
C 800 2816 435 2407 435 1971 
C 435 1728 627 1728 666 1728 
C 749 1728 896 1778 896 1954 
C 896 2112 774 2181 666 2181 
C 640 2181 608 2174 589 2168 
C 723 2592 1069 2714 1293 2714 
C 1613 2714 1965 2429 1965 1885 
L 1965 1600 
C 1587 1600 1133 1549 774 1357 
C 371 1133 256 813 256 570 
C 256 77 832 -64 1171 -64 
C 1523 -64 1850 139 1990 511 
C 2003 233 2182 -18 2464 -18 
C 2598 -18 2938 70 2938 567 
L 2938 920 
L 2822 920 
L 2822 562 
C 2822 178 2650 128 2566 128 
C 2304 128 2304 458 2304 738 
L 2304 1653 
z
M 1965 870 
C 1965 317 1568 38 1216 38 
C 896 38 646 275 646 570 
C 646 761 730 1100 1101 1305 
C 1408 1478 1760 1504 1965 1504 
L 1965 870 
z
" id="CMR17-61" transform="scale(0.015625)"/>
       <path d="M 966 2560 
L 1862 2560 
L 1862 2725 
L 966 2725 
L 966 3904 
L 851 3904 
C 838 3245 614 2668 70 2668 
L 70 2560 
L 627 2560 
L 627 771 
C 627 650 627 -64 1370 -64 
C 1747 -64 1965 306 1965 777 
L 1965 1140 
L 1850 1140 
L 1850 783 
C 1850 344 1677 51 1408 51 
C 1222 51 966 178 966 758 
L 966 2560 
z
" id="CMR17-74" transform="scale(0.015625)"/>
       <path d="M 960 1497 
C 960 2112 1222 2688 1702 2688 
C 1747 2688 1792 2682 1837 2662 
C 1837 2662 1696 2617 1696 2452 
C 1696 2298 1818 2234 1914 2234 
C 1990 2234 2131 2279 2131 2458 
C 2131 2663 1926 2790 1709 2790 
C 1222 2790 1011 2317 947 2093 
L 941 2093 
L 941 2790 
L 198 2720 
L 198 2554 
C 576 2554 634 2515 634 2208 
L 634 428 
C 634 184 608 153 198 153 
L 198 -13 
C 352 0 646 0 813 0 
C 998 0 1325 0 1498 -13 
L 1498 153 
C 1037 153 960 153 960 440 
L 960 1497 
z
" id="CMR17-72" transform="scale(0.015625)"/>
       <path d="M 992 3909 
C 992 4049 877 4170 730 4170 
C 589 4170 467 4056 467 3909 
C 467 3769 582 3648 730 3648 
C 870 3648 992 3763 992 3909 
z
M 243 2706 
L 243 2541 
C 602 2541 653 2502 653 2197 
L 653 427 
C 653 184 627 153 218 153 
L 218 -13 
C 371 0 646 0 806 0 
C 960 0 1222 0 1370 -13 
L 1370 153 
C 992 153 979 191 979 420 
L 979 2776 
L 243 2706 
z
" id="CMR17-69" transform="scale(0.015625)"/>
       <path d="M 1664 1477 
C 1856 1726 2074 2006 2253 2216 
C 2464 2458 2707 2560 2989 2560 
L 2989 2726 
C 2880 2726 2656 2726 2541 2726 
C 2368 2726 2170 2726 2022 2732 
L 2022 2566 
C 2112 2553 2163 2489 2163 2400 
C 2163 2285 2099 2215 2067 2171 
L 1594 1573 
L 1030 2306 
C 973 2376 973 2388 973 2420 
C 973 2497 1037 2560 1146 2560 
L 1146 2732 
C 992 2726 717 2726 557 2726 
C 384 2726 179 2726 38 2732 
L 38 2560 
C 384 2560 461 2534 614 2343 
L 1350 1395 
C 1363 1382 1395 1344 1395 1325 
C 1395 1299 838 619 768 530 
C 480 185 179 160 6 160 
L 6 0 
C 115 0 339 0 454 0 
C 582 0 864 0 979 -6 
L 979 160 
C 941 166 838 179 838 325 
C 838 440 890 510 947 586 
L 1478 1236 
L 2035 512 
C 2086 442 2163 346 2163 301 
C 2163 211 2086 160 1984 160 
L 1984 -6 
C 2138 0 2413 0 2573 0 
C 2746 0 2950 0 3091 -6 
L 3091 160 
C 2771 160 2675 172 2522 370 
L 1664 1477 
z
" id="CMR17-78" transform="scale(0.015625)"/>
       <path d="M 2656 1933 
C 2656 2259 2592 2790 1837 2790 
C 1331 2790 1069 2400 973 2144 
L 966 2144 
L 966 2790 
L 211 2720 
L 211 2554 
C 589 2554 646 2515 646 2208 
L 646 428 
C 646 184 621 153 211 153 
L 211 -13 
C 365 0 646 0 813 0 
C 979 0 1267 0 1421 -13 
L 1421 153 
C 1011 153 986 178 986 428 
L 986 1658 
C 986 2247 1344 2688 1792 2688 
C 2266 2688 2317 2266 2317 1958 
L 2317 428 
C 2317 184 2291 153 1882 153 
L 1882 -13 
C 2035 0 2317 0 2483 0 
C 2650 0 2938 0 3091 -13 
L 3091 153 
C 2682 153 2656 178 2656 428 
L 2656 1933 
z
" id="CMR17-6e" transform="scale(0.015625)"/>
       <path d="M 2310 2605 
C 2362 2670 2362 2682 2362 2695 
C 2362 2752 2336 2752 2221 2752 
L 275 2752 
L 211 1760 
L 326 1760 
C 371 2381 442 2650 1178 2650 
L 1958 2650 
L 128 96 
C 128 0 134 0 269 0 
L 2291 0 
L 2381 1152 
L 2266 1152 
C 2214 442 2131 115 1350 115 
L 531 115 
L 2310 2605 
z
" id="CMR17-7a" transform="scale(0.015625)"/>
      </defs>
      <use transform="scale(0.996264)" xlink:href="#CMR17-4d"/>
      <use transform="translate(84.686941 0)scale(0.996264)" xlink:href="#CMR17-61"/>
      <use transform="translate(130.377418 0)scale(0.996264)" xlink:href="#CMR17-74"/>
      <use transform="translate(165.658185 0)scale(0.996264)" xlink:href="#CMR17-72"/>
      <use transform="translate(200.938953 0)scale(0.996264)" xlink:href="#CMR17-69"/>
      <use transform="translate(225.810012 0)scale(0.996264)" xlink:href="#CMR17-78"/>
      <use transform="translate(304.178894 0)scale(0.996264)" xlink:href="#CMR17-6e"/>
      <use transform="translate(355.074264 0)scale(0.996264)" xlink:href="#CMR17-6e"/>
      <use transform="translate(405.969634 0)scale(0.996264)" xlink:href="#CMR17-7a"/>
     </g>
    </g>
   </g>
   <g id="matplotlib.axis_2">
    <g id="ytick_1">
     <g id="line2d_49">
      <path clip-path="url(#p63fdda68f4)" d="M 60.011855 260.863147 
L 450.611855 260.863147 
" style="fill:none;stroke:#cccccc;stroke-linecap:round;"/>
     </g>
     <g id="line2d_50">
      <defs>
       <path d="M 0 0 
L -6 0 
" id="m1215546128" style="stroke:#262626;stroke-width:1.25;"/>
      </defs>
      <g>
       <use style="fill:#262626;stroke:#262626;stroke-width:1.25;" x="60.011855" xlink:href="#m1215546128" y="260.863147"/>
      </g>
     </g>
     <g id="text_7">
      <!-- $\mathdefault{10^{-1}}$ -->
      <g style="fill:#262626;" transform="translate(25.54618 265.429344)scale(0.132 -0.132)">
       <defs>
        <path d="M 4218 1472 
C 4326 1472 4442 1472 4442 1600 
C 4442 1728 4326 1728 4218 1728 
L 755 1728 
C 646 1728 531 1728 531 1600 
C 531 1472 646 1472 755 1472 
L 4218 1472 
z
" id="CMSY10-0" transform="scale(0.015625)"/>
       </defs>
       <use transform="scale(0.996264)" xlink:href="#CMR17-31"/>
       <use transform="translate(45.690477 0)scale(0.996264)" xlink:href="#CMR17-30"/>
       <use transform="translate(91.380954 36.153639)scale(0.697382)" xlink:href="#CMSY10-0"/>
       <use transform="translate(145.621947 36.153639)scale(0.697382)" xlink:href="#CMR17-31"/>
      </g>
     </g>
    </g>
    <g id="ytick_2">
     <g id="line2d_51">
      <path clip-path="url(#p63fdda68f4)" d="M 60.011855 205.718989 
L 450.611855 205.718989 
" style="fill:none;stroke:#cccccc;stroke-linecap:round;"/>
     </g>
     <g id="line2d_52">
      <g>
       <use style="fill:#262626;stroke:#262626;stroke-width:1.25;" x="60.011855" xlink:href="#m1215546128" y="205.718989"/>
      </g>
     </g>
     <g id="text_8">
      <!-- $\mathdefault{10^{0}}$ -->
      <g style="fill:#262626;" transform="translate(32.904786 210.285187)scale(0.132 -0.132)">
       <use transform="scale(0.996264)" xlink:href="#CMR17-31"/>
       <use transform="translate(45.690477 0)scale(0.996264)" xlink:href="#CMR17-30"/>
       <use transform="translate(91.380954 36.153639)scale(0.697382)" xlink:href="#CMR17-30"/>
      </g>
     </g>
    </g>
    <g id="ytick_3">
     <g id="line2d_53">
      <path clip-path="url(#p63fdda68f4)" d="M 60.011855 150.574832 
L 450.611855 150.574832 
" style="fill:none;stroke:#cccccc;stroke-linecap:round;"/>
     </g>
     <g id="line2d_54">
      <g>
       <use style="fill:#262626;stroke:#262626;stroke-width:1.25;" x="60.011855" xlink:href="#m1215546128" y="150.574832"/>
      </g>
     </g>
     <g id="text_9">
      <!-- $\mathdefault{10^{1}}$ -->
      <g style="fill:#262626;" transform="translate(32.904786 155.141029)scale(0.132 -0.132)">
       <use transform="scale(0.996264)" xlink:href="#CMR17-31"/>
       <use transform="translate(45.690477 0)scale(0.996264)" xlink:href="#CMR17-30"/>
       <use transform="translate(91.380954 36.153639)scale(0.697382)" xlink:href="#CMR17-31"/>
      </g>
     </g>
    </g>
    <g id="ytick_4">
     <g id="line2d_55">
      <path clip-path="url(#p63fdda68f4)" d="M 60.011855 95.430674 
L 450.611855 95.430674 
" style="fill:none;stroke:#cccccc;stroke-linecap:round;"/>
     </g>
     <g id="line2d_56">
      <g>
       <use style="fill:#262626;stroke:#262626;stroke-width:1.25;" x="60.011855" xlink:href="#m1215546128" y="95.430674"/>
      </g>
     </g>
     <g id="text_10">
      <!-- $\mathdefault{10^{2}}$ -->
      <g style="fill:#262626;" transform="translate(32.904786 99.996872)scale(0.132 -0.132)">
       <defs>
        <path d="M 2669 989 
L 2554 989 
C 2490 536 2438 459 2413 420 
C 2381 369 1920 369 1830 369 
L 602 369 
C 832 619 1280 1072 1824 1597 
C 2214 1967 2669 2402 2669 3035 
C 2669 3790 2067 4224 1395 4224 
C 691 4224 262 3604 262 3030 
C 262 2780 448 2748 525 2748 
C 589 2748 781 2787 781 3010 
C 781 3207 614 3264 525 3264 
C 486 3264 448 3258 422 3245 
C 544 3790 915 4058 1306 4058 
C 1862 4058 2227 3617 2227 3035 
C 2227 2479 1901 2000 1536 1584 
L 262 146 
L 262 0 
L 2515 0 
L 2669 989 
z
" id="CMR17-32" transform="scale(0.015625)"/>
       </defs>
       <use transform="scale(0.996264)" xlink:href="#CMR17-31"/>
       <use transform="translate(45.690477 0)scale(0.996264)" xlink:href="#CMR17-30"/>
       <use transform="translate(91.380954 36.153639)scale(0.697382)" xlink:href="#CMR17-32"/>
      </g>
     </g>
    </g>
    <g id="ytick_5">
     <g id="line2d_57">
      <path clip-path="url(#p63fdda68f4)" d="M 60.011855 40.286517 
L 450.611855 40.286517 
" style="fill:none;stroke:#cccccc;stroke-linecap:round;"/>
     </g>
     <g id="line2d_58">
      <g>
       <use style="fill:#262626;stroke:#262626;stroke-width:1.25;" x="60.011855" xlink:href="#m1215546128" y="40.286517"/>
      </g>
     </g>
     <g id="text_11">
      <!-- $\mathdefault{10^{3}}$ -->
      <g style="fill:#262626;" transform="translate(32.904786 44.852714)scale(0.132 -0.132)">
       <defs>
        <path d="M 1414 2157 
C 1984 2157 2234 1662 2234 1090 
C 2234 320 1824 25 1453 25 
C 1114 25 563 194 390 693 
C 422 680 454 680 486 680 
C 640 680 755 782 755 948 
C 755 1133 614 1216 486 1216 
C 378 1216 211 1165 211 926 
C 211 335 787 -128 1466 -128 
C 2176 -128 2720 430 2720 1085 
C 2720 1707 2208 2157 1600 2227 
C 2086 2328 2554 2756 2554 3329 
C 2554 3820 2048 4179 1472 4179 
C 890 4179 378 3829 378 3329 
C 378 3110 544 3072 627 3072 
C 762 3072 877 3155 877 3321 
C 877 3486 762 3569 627 3569 
C 602 3569 570 3569 544 3557 
C 730 3959 1235 4032 1459 4032 
C 1683 4032 2106 3925 2106 3320 
C 2106 3143 2080 2828 1862 2550 
C 1670 2304 1453 2304 1242 2284 
C 1210 2284 1062 2269 1037 2269 
C 992 2263 966 2257 966 2208 
C 966 2163 973 2157 1101 2157 
L 1414 2157 
z
" id="CMR17-33" transform="scale(0.015625)"/>
       </defs>
       <use transform="scale(0.996264)" xlink:href="#CMR17-31"/>
       <use transform="translate(45.690477 0)scale(0.996264)" xlink:href="#CMR17-30"/>
       <use transform="translate(91.380954 36.153639)scale(0.697382)" xlink:href="#CMR17-33"/>
      </g>
     </g>
    </g>
    <g id="ytick_6">
     <g id="line2d_59">
      <defs>
       <path d="M 0 0 
L -4 0 
" id="mb97a7ea58e" style="stroke:#262626;"/>
      </defs>
      <g>
       <use style="fill:#262626;stroke:#262626;" x="60.011855" xlink:href="#mb97a7ea58e" y="289.696855"/>
      </g>
     </g>
    </g>
    <g id="ytick_7">
     <g id="line2d_60">
      <g>
       <use style="fill:#262626;stroke:#262626;" x="60.011855" xlink:href="#mb97a7ea58e" y="282.807214"/>
      </g>
     </g>
    </g>
    <g id="ytick_8">
     <g id="line2d_61">
      <g>
       <use style="fill:#262626;stroke:#262626;" x="60.011855" xlink:href="#mb97a7ea58e" y="277.463193"/>
      </g>
     </g>
    </g>
    <g id="ytick_9">
     <g id="line2d_62">
      <g>
       <use style="fill:#262626;stroke:#262626;" x="60.011855" xlink:href="#mb97a7ea58e" y="273.096809"/>
      </g>
     </g>
    </g>
    <g id="ytick_10">
     <g id="line2d_63">
      <g>
       <use style="fill:#262626;stroke:#262626;" x="60.011855" xlink:href="#mb97a7ea58e" y="269.405085"/>
      </g>
     </g>
    </g>
    <g id="ytick_11">
     <g id="line2d_64">
      <g>
       <use style="fill:#262626;stroke:#262626;" x="60.011855" xlink:href="#mb97a7ea58e" y="266.207168"/>
      </g>
     </g>
    </g>
    <g id="ytick_12">
     <g id="line2d_65">
      <g>
       <use style="fill:#262626;stroke:#262626;" x="60.011855" xlink:href="#mb97a7ea58e" y="263.386405"/>
      </g>
     </g>
    </g>
    <g id="ytick_13">
     <g id="line2d_66">
      <g>
       <use style="fill:#262626;stroke:#262626;" x="60.011855" xlink:href="#mb97a7ea58e" y="244.263101"/>
      </g>
     </g>
    </g>
    <g id="ytick_14">
     <g id="line2d_67">
      <g>
       <use style="fill:#262626;stroke:#262626;" x="60.011855" xlink:href="#mb97a7ea58e" y="234.552697"/>
      </g>
     </g>
    </g>
    <g id="ytick_15">
     <g id="line2d_68">
      <g>
       <use style="fill:#262626;stroke:#262626;" x="60.011855" xlink:href="#mb97a7ea58e" y="227.663056"/>
      </g>
     </g>
    </g>
    <g id="ytick_16">
     <g id="line2d_69">
      <g>
       <use style="fill:#262626;stroke:#262626;" x="60.011855" xlink:href="#mb97a7ea58e" y="222.319035"/>
      </g>
     </g>
    </g>
    <g id="ytick_17">
     <g id="line2d_70">
      <g>
       <use style="fill:#262626;stroke:#262626;" x="60.011855" xlink:href="#mb97a7ea58e" y="217.952652"/>
      </g>
     </g>
    </g>
    <g id="ytick_18">
     <g id="line2d_71">
      <g>
       <use style="fill:#262626;stroke:#262626;" x="60.011855" xlink:href="#mb97a7ea58e" y="214.260928"/>
      </g>
     </g>
    </g>
    <g id="ytick_19">
     <g id="line2d_72">
      <g>
       <use style="fill:#262626;stroke:#262626;" x="60.011855" xlink:href="#mb97a7ea58e" y="211.06301"/>
      </g>
     </g>
    </g>
    <g id="ytick_20">
     <g id="line2d_73">
      <g>
       <use style="fill:#262626;stroke:#262626;" x="60.011855" xlink:href="#mb97a7ea58e" y="208.242248"/>
      </g>
     </g>
    </g>
    <g id="ytick_21">
     <g id="line2d_74">
      <g>
       <use style="fill:#262626;stroke:#262626;" x="60.011855" xlink:href="#mb97a7ea58e" y="189.118944"/>
      </g>
     </g>
    </g>
    <g id="ytick_22">
     <g id="line2d_75">
      <g>
       <use style="fill:#262626;stroke:#262626;" x="60.011855" xlink:href="#mb97a7ea58e" y="179.40854"/>
      </g>
     </g>
    </g>
    <g id="ytick_23">
     <g id="line2d_76">
      <g>
       <use style="fill:#262626;stroke:#262626;" x="60.011855" xlink:href="#mb97a7ea58e" y="172.518898"/>
      </g>
     </g>
    </g>
    <g id="ytick_24">
     <g id="line2d_77">
      <g>
       <use style="fill:#262626;stroke:#262626;" x="60.011855" xlink:href="#mb97a7ea58e" y="167.174877"/>
      </g>
     </g>
    </g>
    <g id="ytick_25">
     <g id="line2d_78">
      <g>
       <use style="fill:#262626;stroke:#262626;" x="60.011855" xlink:href="#mb97a7ea58e" y="162.808494"/>
      </g>
     </g>
    </g>
    <g id="ytick_26">
     <g id="line2d_79">
      <g>
       <use style="fill:#262626;stroke:#262626;" x="60.011855" xlink:href="#mb97a7ea58e" y="159.11677"/>
      </g>
     </g>
    </g>
    <g id="ytick_27">
     <g id="line2d_80">
      <g>
       <use style="fill:#262626;stroke:#262626;" x="60.011855" xlink:href="#mb97a7ea58e" y="155.918853"/>
      </g>
     </g>
    </g>
    <g id="ytick_28">
     <g id="line2d_81">
      <g>
       <use style="fill:#262626;stroke:#262626;" x="60.011855" xlink:href="#mb97a7ea58e" y="153.09809"/>
      </g>
     </g>
    </g>
    <g id="ytick_29">
     <g id="line2d_82">
      <g>
       <use style="fill:#262626;stroke:#262626;" x="60.011855" xlink:href="#mb97a7ea58e" y="133.974786"/>
      </g>
     </g>
    </g>
    <g id="ytick_30">
     <g id="line2d_83">
      <g>
       <use style="fill:#262626;stroke:#262626;" x="60.011855" xlink:href="#mb97a7ea58e" y="124.264382"/>
      </g>
     </g>
    </g>
    <g id="ytick_31">
     <g id="line2d_84">
      <g>
       <use style="fill:#262626;stroke:#262626;" x="60.011855" xlink:href="#mb97a7ea58e" y="117.374741"/>
      </g>
     </g>
    </g>
    <g id="ytick_32">
     <g id="line2d_85">
      <g>
       <use style="fill:#262626;stroke:#262626;" x="60.011855" xlink:href="#mb97a7ea58e" y="112.03072"/>
      </g>
     </g>
    </g>
    <g id="ytick_33">
     <g id="line2d_86">
      <g>
       <use style="fill:#262626;stroke:#262626;" x="60.011855" xlink:href="#mb97a7ea58e" y="107.664337"/>
      </g>
     </g>
    </g>
    <g id="ytick_34">
     <g id="line2d_87">
      <g>
       <use style="fill:#262626;stroke:#262626;" x="60.011855" xlink:href="#mb97a7ea58e" y="103.972612"/>
      </g>
     </g>
    </g>
    <g id="ytick_35">
     <g id="line2d_88">
      <g>
       <use style="fill:#262626;stroke:#262626;" x="60.011855" xlink:href="#mb97a7ea58e" y="100.774695"/>
      </g>
     </g>
    </g>
    <g id="ytick_36">
     <g id="line2d_89">
      <g>
       <use style="fill:#262626;stroke:#262626;" x="60.011855" xlink:href="#mb97a7ea58e" y="97.953933"/>
      </g>
     </g>
    </g>
    <g id="ytick_37">
     <g id="line2d_90">
      <g>
       <use style="fill:#262626;stroke:#262626;" x="60.011855" xlink:href="#mb97a7ea58e" y="78.830629"/>
      </g>
     </g>
    </g>
    <g id="ytick_38">
     <g id="line2d_91">
      <g>
       <use style="fill:#262626;stroke:#262626;" x="60.011855" xlink:href="#mb97a7ea58e" y="69.120225"/>
      </g>
     </g>
    </g>
    <g id="ytick_39">
     <g id="line2d_92">
      <g>
       <use style="fill:#262626;stroke:#262626;" x="60.011855" xlink:href="#mb97a7ea58e" y="62.230583"/>
      </g>
     </g>
    </g>
    <g id="ytick_40">
     <g id="line2d_93">
      <g>
       <use style="fill:#262626;stroke:#262626;" x="60.011855" xlink:href="#mb97a7ea58e" y="56.886562"/>
      </g>
     </g>
    </g>
    <g id="ytick_41">
     <g id="line2d_94">
      <g>
       <use style="fill:#262626;stroke:#262626;" x="60.011855" xlink:href="#mb97a7ea58e" y="52.520179"/>
      </g>
     </g>
    </g>
    <g id="ytick_42">
     <g id="line2d_95">
      <g>
       <use style="fill:#262626;stroke:#262626;" x="60.011855" xlink:href="#mb97a7ea58e" y="48.828455"/>
      </g>
     </g>
    </g>
    <g id="ytick_43">
     <g id="line2d_96">
      <g>
       <use style="fill:#262626;stroke:#262626;" x="60.011855" xlink:href="#mb97a7ea58e" y="45.630538"/>
      </g>
     </g>
    </g>
    <g id="ytick_44">
     <g id="line2d_97">
      <g>
       <use style="fill:#262626;stroke:#262626;" x="60.011855" xlink:href="#mb97a7ea58e" y="42.809775"/>
      </g>
     </g>
    </g>
    <g id="ytick_45">
     <g id="line2d_98">
      <g>
       <use style="fill:#262626;stroke:#262626;" x="60.011855" xlink:href="#mb97a7ea58e" y="23.686471"/>
      </g>
     </g>
    </g>
    <g id="text_12">
     <!-- Elapsed time (sec) -->
     <g style="fill:#262626;" transform="translate(17.959639 215.815751)rotate(-90)scale(0.144 -0.144)">
      <defs>
       <path d="M 3885 1615 
L 3770 1615 
C 3629 676 3546 166 2419 166 
L 1530 166 
C 1274 166 1261 197 1261 414 
L 1261 2176 
L 1862 2176 
C 2464 2176 2522 1960 2522 1430 
L 2637 1430 
L 2637 3081 
L 2522 3081 
C 2522 2557 2464 2342 1862 2342 
L 1261 2342 
L 1261 3913 
C 1261 4128 1274 4160 1530 4160 
L 2406 4160 
C 3398 4160 3514 3769 3603 2929 
L 3718 2929 
L 3565 4325 
L 326 4325 
L 326 4160 
C 768 4160 838 4160 838 3874 
L 838 451 
C 838 166 768 166 326 166 
L 326 0 
L 3654 0 
L 3885 1615 
z
" id="CMR17-45" transform="scale(0.015625)"/>
       <path d="M 979 4396 
L 218 4326 
L 218 4160 
C 595 4160 653 4122 653 3817 
L 653 426 
C 653 184 627 153 218 153 
L 218 -13 
C 371 0 653 0 813 0 
C 979 0 1261 0 1414 -13 
L 1414 153 
C 1005 153 979 178 979 426 
L 979 4396 
z
" id="CMR17-6c" transform="scale(0.015625)"/>
       <path d="M 1408 -1063 
C 998 -1063 973 -1037 973 -789 
L 973 402 
C 1158 134 1427 -38 1766 -38 
C 2406 -38 3053 523 3053 1388 
C 3053 2191 2496 2802 1837 2802 
C 1453 2802 1139 2592 960 2338 
L 960 2802 
L 198 2732 
L 198 2567 
C 576 2567 634 2528 634 2223 
L 634 -789 
C 634 -1031 608 -1063 198 -1063 
L 198 -1228 
C 352 -1216 634 -1216 800 -1216 
C 966 -1216 1254 -1216 1408 -1228 
L 1408 -1063 
z
M 973 2012 
C 973 2102 973 2235 1222 2471 
C 1254 2497 1472 2688 1792 2688 
C 2259 2688 2643 2108 2643 1382 
C 2643 656 2234 64 1728 64 
C 1498 64 1248 172 1056 472 
C 973 612 973 650 973 752 
L 973 2012 
z
" id="CMR17-70" transform="scale(0.015625)"/>
       <path d="M 1978 2697 
C 1978 2813 1971 2819 1933 2819 
C 1907 2819 1901 2813 1824 2717 
C 1805 2691 1747 2626 1728 2601 
C 1523 2819 1235 2819 1126 2819 
C 416 2819 160 2447 160 2076 
C 160 1498 813 1365 998 1325 
C 1402 1243 1542 1217 1677 1101 
C 1760 1025 1901 884 1901 654 
C 1901 384 1747 38 1158 38 
C 602 38 403 460 288 1021 
C 269 1110 269 1117 218 1117 
C 166 1117 160 1110 160 983 
L 160 63 
C 160 -51 166 -58 205 -58 
C 237 -58 243 -51 275 0 
C 314 57 410 211 448 276 
C 576 103 800 -64 1158 -64 
C 1792 -64 2131 283 2131 784 
C 2131 1112 1958 1285 1875 1362 
C 1683 1561 1459 1606 1190 1657 
C 838 1735 390 1825 390 2217 
C 390 2383 480 2737 1126 2737 
C 1811 2737 1850 2094 1862 1888 
C 1869 1856 1901 1849 1920 1849 
C 1978 1849 1978 1869 1978 1978 
L 1978 2697 
z
" id="CMR17-73" transform="scale(0.015625)"/>
       <path d="M 2438 1472 
C 2464 1498 2464 1511 2464 1576 
C 2464 2238 2118 2816 1389 2816 
C 710 2816 173 2169 173 1383 
C 173 551 781 -64 1459 -64 
C 2176 -64 2458 607 2458 740 
C 2458 784 2419 784 2406 784 
C 2362 784 2355 771 2330 696 
C 2189 265 1837 51 1504 51 
C 1229 51 954 203 781 480 
C 582 803 582 1176 582 1472 
L 2438 1472 
z
M 589 1568 
C 634 2505 1126 2714 1382 2714 
C 1818 2714 2112 2297 2118 1568 
L 589 1568 
z
" id="CMR17-65" transform="scale(0.015625)"/>
       <path d="M 1869 4326 
L 1869 4160 
C 2246 4160 2304 4122 2304 3820 
L 2304 2345 
C 2278 2377 2016 2790 1498 2790 
C 845 2790 211 2208 211 1364 
C 211 525 806 -64 1434 -64 
C 1978 -64 2259 337 2291 380 
L 2291 -63 
L 3066 -63 
L 3066 128 
C 2688 128 2630 166 2630 473 
L 2630 4396 
L 1869 4326 
z
M 2291 755 
C 2291 563 2176 390 2029 262 
C 1811 70 1594 38 1472 38 
C 1286 38 621 134 621 1356 
C 621 2612 1363 2688 1530 2688 
C 1824 2688 2061 2522 2208 2291 
C 2291 2157 2291 2138 2291 2023 
L 2291 755 
z
" id="CMR17-64" transform="scale(0.015625)"/>
       <path d="M 4326 1933 
C 4326 2252 4269 2790 3507 2790 
C 3072 2790 2771 2496 2656 2151 
L 2650 2151 
C 2573 2676 2195 2790 1837 2790 
C 1331 2790 1069 2400 973 2144 
L 966 2144 
L 966 2790 
L 211 2720 
L 211 2554 
C 589 2554 646 2515 646 2208 
L 646 428 
C 646 184 621 153 211 153 
L 211 -13 
C 365 0 646 0 813 0 
C 979 0 1267 0 1421 -13 
L 1421 153 
C 1011 153 986 178 986 428 
L 986 1658 
C 986 2247 1344 2688 1792 2688 
C 2266 2688 2317 2266 2317 1958 
L 2317 428 
C 2317 184 2291 153 1882 153 
L 1882 -13 
C 2035 0 2317 0 2483 0 
C 2650 0 2938 0 3091 -13 
L 3091 153 
C 2682 153 2656 178 2656 428 
L 2656 1658 
C 2656 2247 3014 2688 3462 2688 
C 3936 2688 3987 2266 3987 1958 
L 3987 428 
C 3987 184 3962 153 3552 153 
L 3552 -13 
C 3706 0 3987 0 4154 0 
C 4320 0 4608 0 4762 -13 
L 4762 153 
C 4352 153 4326 178 4326 428 
L 4326 1933 
z
" id="CMR17-6d" transform="scale(0.015625)"/>
       <path d="M 1958 -1561 
C 1958 -1555 1958 -1542 1939 -1523 
C 1645 -1224 858 -407 858 1581 
C 858 3569 1632 4379 1946 4697 
C 1946 4704 1958 4717 1958 4736 
C 1958 4755 1939 4768 1914 4768 
C 1843 4768 1299 4296 986 3594 
C 666 2887 576 2199 576 1588 
C 576 1128 621 351 1005 -471 
C 1312 -1135 1837 -1600 1914 -1600 
C 1946 -1600 1958 -1587 1958 -1561 
z
" id="CMR17-28" transform="scale(0.015625)"/>
       <path d="M 2234 2240 
C 2112 2240 1933 2240 1933 2017 
C 1933 1838 2080 1787 2163 1787 
C 2208 1787 2394 1807 2394 2024 
C 2394 2467 1958 2803 1466 2803 
C 787 2803 211 2178 211 1363 
C 211 516 813 -64 1466 -64 
C 2259 -64 2458 677 2458 748 
C 2458 774 2451 793 2406 793 
C 2362 793 2355 787 2330 703 
C 2163 180 1798 51 1523 51 
C 1114 51 621 427 621 1369 
C 621 2338 1094 2688 1472 2688 
C 1722 2688 2093 2573 2234 2240 
z
" id="CMR17-63" transform="scale(0.015625)"/>
       <path d="M 1683 1581 
C 1683 2040 1638 2817 1254 3639 
C 947 4303 422 4768 346 4768 
C 326 4768 301 4761 301 4729 
C 301 4717 307 4710 314 4697 
C 621 4378 1402 3568 1402 1584 
C 1402 -407 627 -1217 314 -1537 
C 307 -1549 301 -1556 301 -1568 
C 301 -1600 326 -1600 346 -1600 
C 416 -1600 960 -1128 1274 -426 
C 1594 281 1683 969 1683 1581 
z
" id="CMR17-29" transform="scale(0.015625)"/>
      </defs>
      <use transform="scale(0.996264)" xlink:href="#CMR17-45"/>
      <use transform="translate(62.586301 0)scale(0.996264)" xlink:href="#CMR17-6c"/>
      <use transform="translate(87.457359 0)scale(0.996264)" xlink:href="#CMR17-61"/>
      <use transform="translate(133.147836 0)scale(0.996264)" xlink:href="#CMR17-70"/>
      <use transform="translate(184.043206 0)scale(0.996264)" xlink:href="#CMR17-73"/>
      <use transform="translate(219.844544 0)scale(0.996264)" xlink:href="#CMR17-65"/>
      <use transform="translate(260.330204 0)scale(0.996264)" xlink:href="#CMR17-64"/>
      <use transform="translate(341.30154 0)scale(0.996264)" xlink:href="#CMR17-74"/>
      <use transform="translate(376.582308 0)scale(0.996264)" xlink:href="#CMR17-69"/>
      <use transform="translate(401.453366 0)scale(0.996264)" xlink:href="#CMR17-6d"/>
      <use transform="translate(478.372956 0)scale(0.996264)" xlink:href="#CMR17-65"/>
      <use transform="translate(548.934583 0)scale(0.996264)" xlink:href="#CMR17-28"/>
      <use transform="translate(584.215351 0)scale(0.996264)" xlink:href="#CMR17-73"/>
      <use transform="translate(620.016689 0)scale(0.996264)" xlink:href="#CMR17-65"/>
      <use transform="translate(660.502349 0)scale(0.996264)" xlink:href="#CMR17-63"/>
      <use transform="translate(700.988009 0)scale(0.996264)" xlink:href="#CMR17-29"/>
     </g>
    </g>
   </g>
   <g id="line2d_99">
    <path clip-path="url(#p63fdda68f4)" d="M 77.7664 282.608079 
L 131.621453 259.217497 
L 182.667997 232.815943 
L 237.084701 191.025143 
L 289.299117 151.054008 
L 345.463278 111.669322 
L 403.618778 75.032554 
L 432.857309 52.736948 
" style="fill:none;stroke:#0093ff;stroke-linecap:round;stroke-width:1.5;"/>
    <defs>
     <path d="M 0 3 
C 0.795609 3 1.55874 2.683901 2.12132 2.12132 
C 2.683901 1.55874 3 0.795609 3 0 
C 3 -0.795609 2.683901 -1.55874 2.12132 -2.12132 
C 1.55874 -2.683901 0.795609 -3 0 -3 
C -0.795609 -3 -1.55874 -2.683901 -2.12132 -2.12132 
C -2.683901 -1.55874 -3 -0.795609 -3 0 
C -3 0.795609 -2.683901 1.55874 -2.12132 2.12132 
C -1.55874 2.683901 -0.795609 3 0 3 
z
" id="m87e0b8f240" style="stroke:#0093ff;"/>
    </defs>
    <g clip-path="url(#p63fdda68f4)">
     <use style="fill:#0093ff;stroke:#0093ff;" x="77.7664" xlink:href="#m87e0b8f240" y="282.608079"/>
     <use style="fill:#0093ff;stroke:#0093ff;" x="131.621453" xlink:href="#m87e0b8f240" y="259.217497"/>
     <use style="fill:#0093ff;stroke:#0093ff;" x="182.667997" xlink:href="#m87e0b8f240" y="232.815943"/>
     <use style="fill:#0093ff;stroke:#0093ff;" x="237.084701" xlink:href="#m87e0b8f240" y="191.025143"/>
     <use style="fill:#0093ff;stroke:#0093ff;" x="289.299117" xlink:href="#m87e0b8f240" y="151.054008"/>
     <use style="fill:#0093ff;stroke:#0093ff;" x="345.463278" xlink:href="#m87e0b8f240" y="111.669322"/>
     <use style="fill:#0093ff;stroke:#0093ff;" x="403.618778" xlink:href="#m87e0b8f240" y="75.032554"/>
     <use style="fill:#0093ff;stroke:#0093ff;" x="432.857309" xlink:href="#m87e0b8f240" y="52.736948"/>
    </g>
   </g>
   <g id="line2d_100">
    <path clip-path="url(#p63fdda68f4)" d="M 77.7664 244.315267 
L 131.621453 242.473349 
L 182.667997 243.35953 
L 237.084701 236.668067 
L 289.299117 225.454047 
L 345.463278 202.975627 
L 403.618778 174.818636 
L 432.857309 157.174658 
" style="fill:none;stroke:#77b900;stroke-linecap:round;stroke-width:1.5;"/>
    <defs>
     <path d="M 0 3 
C 0.795609 3 1.55874 2.683901 2.12132 2.12132 
C 2.683901 1.55874 3 0.795609 3 0 
C 3 -0.795609 2.683901 -1.55874 2.12132 -2.12132 
C 1.55874 -2.683901 0.795609 -3 0 -3 
C -0.795609 -3 -1.55874 -2.683901 -2.12132 -2.12132 
C -2.683901 -1.55874 -3 -0.795609 -3 0 
C -3 0.795609 -2.683901 1.55874 -2.12132 2.12132 
C -1.55874 2.683901 -0.795609 3 0 3 
z
" id="m64ad87e152" style="stroke:#77b900;"/>
    </defs>
    <g clip-path="url(#p63fdda68f4)">
     <use style="fill:#77b900;stroke:#77b900;" x="77.7664" xlink:href="#m64ad87e152" y="244.315267"/>
     <use style="fill:#77b900;stroke:#77b900;" x="131.621453" xlink:href="#m64ad87e152" y="242.473349"/>
     <use style="fill:#77b900;stroke:#77b900;" x="182.667997" xlink:href="#m64ad87e152" y="243.35953"/>
     <use style="fill:#77b900;stroke:#77b900;" x="237.084701" xlink:href="#m64ad87e152" y="236.668067"/>
     <use style="fill:#77b900;stroke:#77b900;" x="289.299117" xlink:href="#m64ad87e152" y="225.454047"/>
     <use style="fill:#77b900;stroke:#77b900;" x="345.463278" xlink:href="#m64ad87e152" y="202.975627"/>
     <use style="fill:#77b900;stroke:#77b900;" x="403.618778" xlink:href="#m64ad87e152" y="174.818636"/>
     <use style="fill:#77b900;stroke:#77b900;" x="432.857309" xlink:href="#m64ad87e152" y="157.174658"/>
    </g>
   </g>
   <g id="line2d_101">
    <path clip-path="url(#p63fdda68f4)" d="M 77.7664 275.724066 
L 131.621453 257.605752 
L 182.667997 229.578021 
L 237.084701 185.80034 
L 289.299117 138.328939 
L 345.463278 103.866692 
L 403.618778 68.1258 
L 432.857309 49.018135 
" style="fill:none;stroke:#0072c6;stroke-linecap:round;stroke-width:1.5;"/>
    <defs>
     <path d="M -3 3 
L 3 3 
L 3 -3 
L -3 -3 
z
" id="m6c9333ef87" style="stroke:#0072c6;stroke-linejoin:miter;"/>
    </defs>
    <g clip-path="url(#p63fdda68f4)">
     <use style="fill:#0072c6;stroke:#0072c6;stroke-linejoin:miter;" x="77.7664" xlink:href="#m6c9333ef87" y="275.724066"/>
     <use style="fill:#0072c6;stroke:#0072c6;stroke-linejoin:miter;" x="131.621453" xlink:href="#m6c9333ef87" y="257.605752"/>
     <use style="fill:#0072c6;stroke:#0072c6;stroke-linejoin:miter;" x="182.667997" xlink:href="#m6c9333ef87" y="229.578021"/>
     <use style="fill:#0072c6;stroke:#0072c6;stroke-linejoin:miter;" x="237.084701" xlink:href="#m6c9333ef87" y="185.80034"/>
     <use style="fill:#0072c6;stroke:#0072c6;stroke-linejoin:miter;" x="289.299117" xlink:href="#m6c9333ef87" y="138.328939"/>
     <use style="fill:#0072c6;stroke:#0072c6;stroke-linejoin:miter;" x="345.463278" xlink:href="#m6c9333ef87" y="103.866692"/>
     <use style="fill:#0072c6;stroke:#0072c6;stroke-linejoin:miter;" x="403.618778" xlink:href="#m6c9333ef87" y="68.1258"/>
     <use style="fill:#0072c6;stroke:#0072c6;stroke-linejoin:miter;" x="432.857309" xlink:href="#m6c9333ef87" y="49.018135"/>
    </g>
   </g>
   <g id="line2d_102">
    <path clip-path="url(#p63fdda68f4)" d="M 77.7664 236.810253 
L 131.621453 234.94466 
L 182.667997 231.96591 
L 237.084701 222.634617 
L 289.299117 211.236166 
L 345.463278 189.184362 
L 403.618778 156.660162 
L 432.857309 137.417185 
" style="fill:none;stroke:#598a00;stroke-linecap:round;stroke-width:1.5;"/>
    <defs>
     <path d="M -3 3 
L 3 3 
L 3 -3 
L -3 -3 
z
" id="m7951b90ad0" style="stroke:#598a00;stroke-linejoin:miter;"/>
    </defs>
    <g clip-path="url(#p63fdda68f4)">
     <use style="fill:#598a00;stroke:#598a00;stroke-linejoin:miter;" x="77.7664" xlink:href="#m7951b90ad0" y="236.810253"/>
     <use style="fill:#598a00;stroke:#598a00;stroke-linejoin:miter;" x="131.621453" xlink:href="#m7951b90ad0" y="234.94466"/>
     <use style="fill:#598a00;stroke:#598a00;stroke-linejoin:miter;" x="182.667997" xlink:href="#m7951b90ad0" y="231.96591"/>
     <use style="fill:#598a00;stroke:#598a00;stroke-linejoin:miter;" x="237.084701" xlink:href="#m7951b90ad0" y="222.634617"/>
     <use style="fill:#598a00;stroke:#598a00;stroke-linejoin:miter;" x="289.299117" xlink:href="#m7951b90ad0" y="211.236166"/>
     <use style="fill:#598a00;stroke:#598a00;stroke-linejoin:miter;" x="345.463278" xlink:href="#m7951b90ad0" y="189.184362"/>
     <use style="fill:#598a00;stroke:#598a00;stroke-linejoin:miter;" x="403.618778" xlink:href="#m7951b90ad0" y="156.660162"/>
     <use style="fill:#598a00;stroke:#598a00;stroke-linejoin:miter;" x="432.857309" xlink:href="#m7951b90ad0" y="137.417185"/>
    </g>
   </g>
   <g id="line2d_103">
    <path clip-path="url(#p63fdda68f4)" d="M 77.7664 268.102395 
L 131.621453 245.387125 
L 182.667997 214.395353 
L 237.084701 161.57004 
L 289.299117 120.512625 
L 345.463278 90.220574 
L 403.618778 55.106862 
L 432.857309 35.51717 
" style="fill:none;stroke:#005ea3;stroke-linecap:round;stroke-width:1.5;"/>
    <defs>
     <path d="M -0 4.242641 
L 4.242641 0 
L 0 -4.242641 
L -4.242641 -0 
z
" id="mc44caf64da" style="stroke:#005ea3;stroke-linejoin:miter;"/>
    </defs>
    <g clip-path="url(#p63fdda68f4)">
     <use style="fill:#005ea3;stroke:#005ea3;stroke-linejoin:miter;" x="77.7664" xlink:href="#mc44caf64da" y="268.102395"/>
     <use style="fill:#005ea3;stroke:#005ea3;stroke-linejoin:miter;" x="131.621453" xlink:href="#mc44caf64da" y="245.387125"/>
     <use style="fill:#005ea3;stroke:#005ea3;stroke-linejoin:miter;" x="182.667997" xlink:href="#mc44caf64da" y="214.395353"/>
     <use style="fill:#005ea3;stroke:#005ea3;stroke-linejoin:miter;" x="237.084701" xlink:href="#mc44caf64da" y="161.57004"/>
     <use style="fill:#005ea3;stroke:#005ea3;stroke-linejoin:miter;" x="289.299117" xlink:href="#mc44caf64da" y="120.512625"/>
     <use style="fill:#005ea3;stroke:#005ea3;stroke-linejoin:miter;" x="345.463278" xlink:href="#mc44caf64da" y="90.220574"/>
     <use style="fill:#005ea3;stroke:#005ea3;stroke-linejoin:miter;" x="403.618778" xlink:href="#mc44caf64da" y="55.106862"/>
     <use style="fill:#005ea3;stroke:#005ea3;stroke-linejoin:miter;" x="432.857309" xlink:href="#mc44caf64da" y="35.51717"/>
    </g>
   </g>
   <g id="patch_3">
    <path d="M 60.011855 294.962625 
L 60.011855 23.162625 
" style="fill:none;stroke:#262626;stroke-linecap:square;stroke-linejoin:miter;stroke-width:1.25;"/>
   </g>
   <g id="patch_4">
    <path d="M 450.611855 294.962625 
L 450.611855 23.162625 
" style="fill:none;stroke:#262626;stroke-linecap:square;stroke-linejoin:miter;stroke-width:1.25;"/>
   </g>
   <g id="patch_5">
    <path d="M 60.011855 294.962625 
L 450.611855 294.962625 
" style="fill:none;stroke:#262626;stroke-linecap:square;stroke-linejoin:miter;stroke-width:1.25;"/>
   </g>
   <g id="patch_6">
    <path d="M 60.011855 23.162625 
L 450.611855 23.162625 
" style="fill:none;stroke:#262626;stroke-linecap:square;stroke-linejoin:miter;stroke-width:1.25;"/>
   </g>
   <g id="text_13">
    <!-- Comparsison of Elapsed Time Between CPU v.s. GPU -->
    <g style="fill:#262626;" transform="translate(86.356669 17.162625)scale(0.144 -0.144)">
     <defs>
      <path d="M 3974 4289 
C 3974 4403 3968 4410 3930 4410 
C 3904 4410 3898 4403 3853 4327 
L 3571 3792 
C 3258 4187 2874 4416 2381 4416 
C 1286 4416 294 3456 294 2148 
C 294 826 1286 -128 2387 -128 
C 3366 -128 3974 730 3974 1461 
C 3974 1524 3974 1550 3917 1550 
C 3866 1550 3866 1531 3859 1474 
C 3808 585 3168 38 2477 38 
C 1824 38 781 495 781 2147 
C 781 3805 1843 4250 2464 4250 
C 3187 4250 3712 3628 3834 2745 
C 3846 2668 3846 2655 3904 2655 
C 3974 2655 3974 2668 3974 2783 
L 3974 4289 
z
" id="CMR17-43" transform="scale(0.015625)"/>
      <path d="M 2758 1356 
C 2758 2176 2163 2816 1466 2816 
C 768 2816 173 2176 173 1356 
C 173 551 768 -64 1466 -64 
C 2163 -64 2758 551 2758 1356 
z
M 1466 51 
C 1165 51 909 230 762 480 
C 602 767 582 1126 582 1408 
C 582 1677 595 2010 762 2298 
C 890 2509 1139 2714 1466 2714 
C 1754 2714 1997 2554 2150 2330 
C 2349 2029 2349 1607 2349 1408 
C 2349 1158 2336 775 2163 467 
C 1984 173 1709 51 1466 51 
z
" id="CMR17-6f" transform="scale(0.015625)"/>
      <path d="M 979 2560 
L 1709 2560 
L 1709 2725 
L 966 2725 
L 966 3494 
C 966 4022 1235 4352 1510 4352 
C 1594 4352 1690 4327 1754 4282 
C 1702 4269 1568 4225 1568 4067 
C 1568 3901 1696 3850 1786 3850 
C 1875 3850 2003 3901 2003 4067 
C 2003 4308 1773 4454 1517 4454 
C 1152 4454 653 4156 653 3481 
L 653 2725 
L 141 2725 
L 141 2560 
L 653 2560 
L 653 427 
C 653 184 627 153 218 153 
L 218 -13 
C 371 0 666 0 832 0 
C 1018 0 1344 0 1517 -13 
L 1517 153 
C 1056 153 979 153 979 439 
L 979 2560 
z
" id="CMR17-66" transform="scale(0.015625)"/>
      <path d="M 3981 4326 
L 288 4326 
L 179 2918 
L 294 2918 
C 378 3976 467 4160 1453 4160 
C 1568 4160 1754 4160 1805 4154 
C 1926 4135 1926 4058 1926 3912 
L 1926 459 
C 1926 230 1907 160 1376 160 
L 1197 160 
L 1197 0 
C 1504 0 1824 0 2138 0 
C 2451 0 2771 0 3078 0 
L 3078 160 
L 2899 160 
C 2368 160 2349 230 2349 459 
L 2349 3912 
C 2349 4052 2349 4129 2464 4154 
C 2515 4160 2701 4160 2816 4160 
C 3795 4160 3891 3976 3974 2918 
L 4090 2918 
L 3981 4326 
z
" id="CMR17-54" transform="scale(0.015625)"/>
      <path d="M 333 4352 
L 333 4186 
C 774 4186 845 4186 845 3900 
L 845 452 
C 845 166 774 166 333 166 
L 333 0 
L 2534 0 
C 3354 0 3885 583 3885 1164 
C 3885 1741 3360 2233 2675 2233 
C 3290 2356 3718 2771 3718 3264 
C 3718 3802 3194 4352 2368 4352 
L 333 4352 
z
M 1248 2304 
L 1248 3937 
C 1248 4155 1261 4186 1517 4186 
L 2336 4186 
C 2970 4186 3251 3674 3251 3277 
C 3251 2791 2861 2304 2170 2304 
L 1248 2304 
z
M 1517 166 
C 1261 166 1248 197 1248 413 
L 1248 2202 
L 2432 2202 
C 3091 2202 3411 1625 3411 1162 
C 3411 699 3046 166 2349 166 
L 1517 166 
z
" id="CMR17-42" transform="scale(0.015625)"/>
      <path d="M 3725 2183 
C 3853 2560 4109 2560 4205 2560 
L 4205 2732 
C 4077 2732 3949 2732 3821 2732 
C 3699 2732 3424 2732 3315 2738 
L 3315 2560 
C 3514 2560 3622 2445 3622 2286 
C 3622 2241 3610 2184 3597 2140 
L 2995 407 
L 2342 2275 
C 2330 2319 2310 2370 2310 2395 
C 2310 2560 2528 2560 2630 2560 
L 2630 2738 
C 2483 2732 2214 2732 2061 2732 
C 1901 2732 1734 2732 1587 2738 
L 1587 2560 
C 1939 2560 1939 2547 2074 2149 
L 1485 451 
L 851 2281 
C 819 2363 819 2376 819 2395 
C 819 2560 1037 2560 1139 2560 
L 1139 2738 
C 986 2732 717 2732 557 2732 
C 416 2732 198 2732 64 2738 
L 64 2560 
C 346 2560 416 2541 486 2331 
L 1274 49 
C 1299 -33 1318 -52 1370 -52 
C 1414 -52 1440 -39 1472 56 
L 2131 1980 
L 2797 56 
C 2829 -39 2854 -52 2899 -52 
C 2950 -52 2970 -33 2995 50 
L 3725 2183 
z
" id="CMR17-77" transform="scale(0.015625)"/>
      <path d="M 1267 2042 
L 2291 2042 
C 3117 2042 3718 2578 3718 3184 
C 3718 3791 3130 4352 2291 4352 
L 333 4352 
L 333 4186 
C 774 4186 845 4186 845 3899 
L 845 446 
C 845 160 774 160 333 160 
L 333 0 
C 518 0 858 0 1056 0 
C 1254 0 1594 0 1779 0 
L 1779 160 
C 1338 160 1267 160 1267 446 
L 1267 2042 
z
M 1254 2176 
L 1254 3938 
C 1254 4155 1267 4186 1523 4186 
L 2170 4186 
C 2995 4186 3232 3714 3232 3184 
C 3232 2604 2950 2176 2170 2176 
L 1254 2176 
z
" id="CMR17-50" transform="scale(0.015625)"/>
      <path d="M 3456 1433 
C 3456 579 2899 38 2291 38 
C 1965 38 1670 210 1491 477 
C 1286 783 1261 1178 1261 1401 
L 1261 3874 
C 1261 4160 1331 4160 1773 4160 
L 1773 4320 
C 1587 4320 1248 4320 1050 4320 
C 851 4320 512 4320 326 4320 
L 326 4160 
C 768 4160 838 4160 838 3874 
L 838 1433 
C 838 516 1536 -128 2278 -128 
C 3110 -128 3590 719 3590 1344 
L 3590 3766 
C 3590 4122 3917 4160 4102 4160 
L 4102 4326 
C 3955 4320 3686 4320 3526 4320 
C 3366 4320 3091 4320 2944 4326 
L 2944 4160 
C 3456 4160 3456 3861 3456 3702 
L 3456 1433 
z
" id="CMR17-55" transform="scale(0.015625)"/>
      <path d="M 2502 2163 
C 2560 2304 2662 2560 3034 2560 
L 3034 2726 
C 2912 2726 2752 2726 2630 2726 
C 2496 2726 2285 2726 2157 2732 
L 2157 2566 
C 2317 2553 2406 2477 2406 2311 
C 2406 2253 2406 2240 2368 2151 
L 1664 377 
L 902 2286 
C 864 2369 864 2381 864 2407 
C 864 2560 1075 2560 1171 2560 
L 1171 2732 
C 1018 2726 736 2726 576 2726 
C 403 2726 205 2726 64 2732 
L 64 2560 
C 307 2560 442 2560 518 2362 
L 1446 44 
C 1485 -51 1491 -64 1549 -64 
C 1606 -64 1613 -51 1651 44 
L 2502 2163 
z
" id="CMR17-76" transform="scale(0.015625)"/>
      <path d="M 1062 261 
C 1062 420 934 522 800 522 
C 672 522 538 420 538 261 
C 538 102 666 0 800 0 
C 928 0 1062 102 1062 261 
z
" id="CMR17-2e" transform="scale(0.015625)"/>
      <path d="M 3974 1233 
C 3974 1473 3994 1505 4390 1505 
L 4390 1670 
C 4237 1664 3891 1664 3718 1664 
C 3539 1664 3040 1664 2797 1664 
L 2797 1505 
L 2989 1505 
C 3539 1505 3552 1434 3552 1201 
L 3552 774 
C 3552 63 2720 63 2522 63 
C 1862 63 781 511 781 2160 
C 781 3808 1843 4250 2464 4250 
C 3187 4250 3712 3626 3834 2741 
C 3846 2664 3846 2651 3904 2651 
C 3974 2651 3974 2664 3974 2779 
L 3974 4288 
C 3974 4402 3968 4409 3930 4409 
C 3904 4409 3898 4402 3853 4326 
L 3571 3791 
C 3258 4187 2874 4416 2381 4416 
C 1286 4416 294 3456 294 2148 
C 294 845 1267 -128 2394 -128 
C 2912 -128 3418 56 3616 417 
C 3725 158 3904 -20 3936 -20 
C 3968 -20 3974 -13 3974 100 
L 3974 1233 
z
" id="CMR17-47" transform="scale(0.015625)"/>
     </defs>
     <use transform="scale(0.996264)" xlink:href="#CMR17-43"/>
     <use transform="translate(66.509881 0)scale(0.996264)" xlink:href="#CMR17-6f"/>
     <use transform="translate(112.200358 0)scale(0.996264)" xlink:href="#CMR17-6d"/>
     <use transform="translate(189.119948 0)scale(0.996264)" xlink:href="#CMR17-70"/>
     <use transform="translate(240.015317 0)scale(0.996264)" xlink:href="#CMR17-61"/>
     <use transform="translate(285.705794 0)scale(0.996264)" xlink:href="#CMR17-72"/>
     <use transform="translate(320.986562 0)scale(0.996264)" xlink:href="#CMR17-73"/>
     <use transform="translate(356.7879 0)scale(0.996264)" xlink:href="#CMR17-69"/>
     <use transform="translate(381.658958 0)scale(0.996264)" xlink:href="#CMR17-73"/>
     <use transform="translate(417.460296 0)scale(0.996264)" xlink:href="#CMR17-6f"/>
     <use transform="translate(463.150773 0)scale(0.996264)" xlink:href="#CMR17-6e"/>
     <use transform="translate(544.122109 0)scale(0.996264)" xlink:href="#CMR17-6f"/>
     <use transform="translate(589.812586 0)scale(0.996264)" xlink:href="#CMR17-66"/>
     <use transform="translate(647.362065 0)scale(0.996264)" xlink:href="#CMR17-45"/>
     <use transform="translate(709.948366 0)scale(0.996264)" xlink:href="#CMR17-6c"/>
     <use transform="translate(734.819424 0)scale(0.996264)" xlink:href="#CMR17-61"/>
     <use transform="translate(780.509901 0)scale(0.996264)" xlink:href="#CMR17-70"/>
     <use transform="translate(831.405271 0)scale(0.996264)" xlink:href="#CMR17-73"/>
     <use transform="translate(867.206609 0)scale(0.996264)" xlink:href="#CMR17-65"/>
     <use transform="translate(907.692269 0)scale(0.996264)" xlink:href="#CMR17-64"/>
     <use transform="translate(988.663605 0)scale(0.996264)" xlink:href="#CMR17-54"/>
     <use transform="translate(1055.173486 0)scale(0.996264)" xlink:href="#CMR17-69"/>
     <use transform="translate(1080.044544 0)scale(0.996264)" xlink:href="#CMR17-6d"/>
     <use transform="translate(1156.964134 0)scale(0.996264)" xlink:href="#CMR17-65"/>
     <use transform="translate(1227.525761 0)scale(0.996264)" xlink:href="#CMR17-42"/>
     <use transform="translate(1292.714515 0)scale(0.996264)" xlink:href="#CMR17-65"/>
     <use transform="translate(1333.200176 0)scale(0.996264)" xlink:href="#CMR17-74"/>
     <use transform="translate(1365.87849 0)scale(0.996264)" xlink:href="#CMR17-77"/>
     <use transform="translate(1429.785916 0)scale(0.996264)" xlink:href="#CMR17-65"/>
     <use transform="translate(1470.271577 0)scale(0.996264)" xlink:href="#CMR17-65"/>
     <use transform="translate(1510.757237 0)scale(0.996264)" xlink:href="#CMR17-6e"/>
     <use transform="translate(1591.728573 0)scale(0.996264)" xlink:href="#CMR17-43"/>
     <use transform="translate(1658.238454 0)scale(0.996264)" xlink:href="#CMR17-50"/>
     <use transform="translate(1720.824754 0)scale(0.996264)" xlink:href="#CMR17-55"/>
     <use transform="translate(1819.973151 0)scale(0.996264)" xlink:href="#CMR17-76"/>
     <use transform="translate(1868.266066 0)scale(0.996264)" xlink:href="#CMR17-2e"/>
     <use transform="translate(1893.137125 0)scale(0.996264)" xlink:href="#CMR17-73"/>
     <use transform="translate(1928.938463 0)scale(0.996264)" xlink:href="#CMR17-2e"/>
     <use transform="translate(1994.295182 0)scale(0.996264)" xlink:href="#CMR17-47"/>
     <use transform="translate(2066.650527 0)scale(0.996264)" xlink:href="#CMR17-50"/>
     <use transform="translate(2129.236828 0)scale(0.996264)" xlink:href="#CMR17-55"/>
    </g>
   </g>
   <g id="legend_1">
    <g id="patch_7">
     <path d="M 68.408495 99.630479 
L 209.902484 99.630479 
Q 212.301524 99.630479 212.301524 97.231439 
L 212.301524 31.559265 
Q 212.301524 29.160225 209.902484 29.160225 
L 68.408495 29.160225 
Q 66.009455 29.160225 66.009455 31.559265 
L 66.009455 97.231439 
Q 66.009455 99.630479 68.408495 99.630479 
z
" style="fill:#ffffff;opacity:0.8;stroke:#cccccc;stroke-linejoin:miter;"/>
    </g>
    <g id="patch_8">
     <path d="M 70.807535 42.354945 
L 94.797935 42.354945 
L 94.797935 33.958305 
L 70.807535 33.958305 
z
" style="fill:none;"/>
    </g>
    <g id="patch_9">
     <path d="M 70.807535 59.072869 
L 94.797935 59.072869 
L 94.797935 50.676229 
L 70.807535 50.676229 
z
" style="fill:none;"/>
    </g>
    <g id="text_14">
     <!-- 32 bit -->
     <g style="fill:#262626;" transform="translate(70.807535 59.072869)scale(0.119952 -0.119952)">
      <defs>
       <path d="M 960 4396 
L 198 4326 
L 198 4160 
C 576 4160 634 4122 634 3817 
L 634 -13 
L 749 -13 
L 934 441 
C 1120 141 1395 -64 1766 -64 
C 2406 -64 3053 500 3053 1370 
C 3053 2188 2477 2790 1830 2790 
C 1434 2790 1152 2579 960 2330 
L 960 4396 
z
M 973 2004 
C 973 2118 973 2138 1062 2272 
C 1312 2657 1670 2688 1792 2688 
C 1984 2688 2643 2585 2643 1376 
C 2643 108 1888 38 1734 38 
C 1536 38 1248 114 1043 486 
C 973 608 973 621 973 735 
L 973 2004 
z
" id="CMR17-62" transform="scale(0.015625)"/>
      </defs>
      <use transform="scale(0.996264)" xlink:href="#CMR17-33"/>
      <use transform="translate(45.690477 0)scale(0.996264)" xlink:href="#CMR17-32"/>
      <use transform="translate(121.456921 0)scale(0.996264)" xlink:href="#CMR17-62"/>
      <use transform="translate(172.35229 0)scale(0.996264)" xlink:href="#CMR17-69"/>
      <use transform="translate(197.223349 0)scale(0.996264)" xlink:href="#CMR17-74"/>
     </g>
    </g>
    <g id="patch_10">
     <path d="M 70.807535 75.790792 
L 94.797935 75.790792 
L 94.797935 67.394152 
L 70.807535 67.394152 
z
" style="fill:none;"/>
    </g>
    <g id="text_15">
     <!-- 64 bit -->
     <g style="fill:#262626;" transform="translate(70.807535 75.790792)scale(0.119952 -0.119952)">
      <use transform="scale(0.996264)" xlink:href="#CMR17-36"/>
      <use transform="translate(45.690477 0)scale(0.996264)" xlink:href="#CMR17-34"/>
      <use transform="translate(121.456921 0)scale(0.996264)" xlink:href="#CMR17-62"/>
      <use transform="translate(172.35229 0)scale(0.996264)" xlink:href="#CMR17-69"/>
      <use transform="translate(197.223349 0)scale(0.996264)" xlink:href="#CMR17-74"/>
     </g>
    </g>
    <g id="patch_11">
     <path d="M 70.807535 92.508716 
L 94.797935 92.508716 
L 94.797935 84.112076 
L 70.807535 84.112076 
z
" style="fill:none;"/>
    </g>
    <g id="text_16">
     <!-- 128 bit -->
     <g style="fill:#262626;" transform="translate(70.807535 92.508716)scale(0.119952 -0.119952)">
      <use transform="scale(0.996264)" xlink:href="#CMR17-31"/>
      <use transform="translate(45.690477 0)scale(0.996264)" xlink:href="#CMR17-32"/>
      <use transform="translate(91.380954 0)scale(0.996264)" xlink:href="#CMR17-38"/>
      <use transform="translate(167.147398 0)scale(0.996264)" xlink:href="#CMR17-62"/>
      <use transform="translate(218.042767 0)scale(0.996264)" xlink:href="#CMR17-69"/>
      <use transform="translate(242.913826 0)scale(0.996264)" xlink:href="#CMR17-74"/>
     </g>
    </g>
    <g id="patch_12">
     <path d="M 131.313027 42.354945 
L 155.303427 42.354945 
L 155.303427 33.958305 
L 131.313027 33.958305 
z
" style="fill:none;"/>
    </g>
    <g id="text_17">
     <!-- CPU -->
     <g style="fill:#262626;" transform="translate(131.313027 42.354945)scale(0.119952 -0.119952)">
      <use transform="scale(0.996264)" xlink:href="#CMR17-43"/>
      <use transform="translate(66.509881 0)scale(0.996264)" xlink:href="#CMR17-50"/>
      <use transform="translate(129.096181 0)scale(0.996264)" xlink:href="#CMR17-55"/>
     </g>
    </g>
    <g id="line2d_104">
     <path d="M 131.313027 54.874549 
L 155.303427 54.874549 
" style="fill:none;stroke:#0093ff;stroke-linecap:round;stroke-width:1.5;"/>
    </g>
    <g id="line2d_105">
     <g>
      <use style="fill:#0093ff;stroke:#0093ff;" x="143.308227" xlink:href="#m87e0b8f240" y="54.874549"/>
     </g>
    </g>
    <g id="line2d_106">
     <path d="M 131.313027 71.592472 
L 155.303427 71.592472 
" style="fill:none;stroke:#0072c6;stroke-linecap:round;stroke-width:1.5;"/>
    </g>
    <g id="line2d_107">
     <g>
      <use style="fill:#0072c6;stroke:#0072c6;stroke-linejoin:miter;" x="143.308227" xlink:href="#m6c9333ef87" y="71.592472"/>
     </g>
    </g>
    <g id="line2d_108">
     <path d="M 131.313027 88.310396 
L 155.303427 88.310396 
" style="fill:none;stroke:#005ea3;stroke-linecap:round;stroke-width:1.5;"/>
    </g>
    <g id="line2d_109">
     <g>
      <use style="fill:#005ea3;stroke:#005ea3;stroke-linejoin:miter;" x="143.308227" xlink:href="#mc44caf64da" y="88.310396"/>
     </g>
    </g>
    <g id="patch_13">
     <path d="M 181.029981 42.354945 
L 205.020381 42.354945 
L 205.020381 33.958305 
L 181.029981 33.958305 
z
" style="fill:none;"/>
    </g>
    <g id="text_18">
     <!-- GPU -->
     <g style="fill:#262626;" transform="translate(181.029981 42.354945)scale(0.119952 -0.119952)">
      <use transform="scale(0.996264)" xlink:href="#CMR17-47"/>
      <use transform="translate(72.355346 0)scale(0.996264)" xlink:href="#CMR17-50"/>
      <use transform="translate(134.941646 0)scale(0.996264)" xlink:href="#CMR17-55"/>
     </g>
    </g>
    <g id="line2d_110">
     <path d="M 181.029981 54.874549 
L 205.020381 54.874549 
" style="fill:none;stroke:#77b900;stroke-linecap:round;stroke-width:1.5;"/>
    </g>
    <g id="line2d_111">
     <g>
      <use style="fill:#77b900;stroke:#77b900;" x="193.025181" xlink:href="#m64ad87e152" y="54.874549"/>
     </g>
    </g>
    <g id="line2d_112">
     <path d="M 181.029981 71.592472 
L 205.020381 71.592472 
" style="fill:none;stroke:#598a00;stroke-linecap:round;stroke-width:1.5;"/>
    </g>
    <g id="line2d_113">
     <g>
      <use style="fill:#598a00;stroke:#598a00;stroke-linejoin:miter;" x="193.025181" xlink:href="#m7951b90ad0" y="71.592472"/>
     </g>
    </g>
    <g id="patch_14">
     <path d="M 181.029981 92.508716 
L 205.020381 92.508716 
L 205.020381 84.112076 
L 181.029981 84.112076 
z
" style="fill:none;"/>
    </g>
   </g>
  </g>
  <g id="axes_2">
   <g id="matplotlib.axis_3">
    <g id="ytick_46">
     <g id="line2d_114">
      <defs>
       <path d="M 0 0 
L 6 0 
" id="md8fb2128a6" style="stroke:#262626;stroke-width:1.25;"/>
      </defs>
      <g>
       <use style="fill:#262626;stroke:#262626;stroke-width:1.25;" x="450.611855" xlink:href="#md8fb2128a6" y="294.962625"/>
      </g>
     </g>
     <g id="text_19">
      <!-- $\mathdefault{10^{2}}$ -->
      <g style="fill:#262626;" transform="translate(460.111855 299.528822)scale(0.132 -0.132)">
       <use transform="scale(0.996264)" xlink:href="#CMR17-31"/>
       <use transform="translate(45.690477 0)scale(0.996264)" xlink:href="#CMR17-30"/>
       <use transform="translate(91.380954 36.153639)scale(0.697382)" xlink:href="#CMR17-32"/>
      </g>
     </g>
    </g>
    <g id="ytick_47">
     <g id="line2d_115">
      <g>
       <use style="fill:#262626;stroke:#262626;stroke-width:1.25;" x="450.611855" xlink:href="#md8fb2128a6" y="240.602625"/>
      </g>
     </g>
     <g id="text_20">
      <!-- $\mathdefault{10^{3}}$ -->
      <g style="fill:#262626;" transform="translate(460.111855 245.168822)scale(0.132 -0.132)">
       <use transform="scale(0.996264)" xlink:href="#CMR17-31"/>
       <use transform="translate(45.690477 0)scale(0.996264)" xlink:href="#CMR17-30"/>
       <use transform="translate(91.380954 36.153639)scale(0.697382)" xlink:href="#CMR17-33"/>
      </g>
     </g>
    </g>
    <g id="ytick_48">
     <g id="line2d_116">
      <g>
       <use style="fill:#262626;stroke:#262626;stroke-width:1.25;" x="450.611855" xlink:href="#md8fb2128a6" y="186.242625"/>
      </g>
     </g>
     <g id="text_21">
      <!-- $\mathdefault{10^{4}}$ -->
      <g style="fill:#262626;" transform="translate(460.111855 190.808822)scale(0.132 -0.132)">
       <use transform="scale(0.996264)" xlink:href="#CMR17-31"/>
       <use transform="translate(45.690477 0)scale(0.996264)" xlink:href="#CMR17-30"/>
       <use transform="translate(91.380954 36.153639)scale(0.697382)" xlink:href="#CMR17-34"/>
      </g>
     </g>
    </g>
    <g id="ytick_49">
     <g id="line2d_117">
      <g>
       <use style="fill:#262626;stroke:#262626;stroke-width:1.25;" x="450.611855" xlink:href="#md8fb2128a6" y="131.882625"/>
      </g>
     </g>
     <g id="text_22">
      <!-- $\mathdefault{10^{5}}$ -->
      <g style="fill:#262626;" transform="translate(460.111855 136.448822)scale(0.132 -0.132)">
       <use transform="scale(0.996264)" xlink:href="#CMR17-31"/>
       <use transform="translate(45.690477 0)scale(0.996264)" xlink:href="#CMR17-30"/>
       <use transform="translate(91.380954 36.153639)scale(0.697382)" xlink:href="#CMR17-35"/>
      </g>
     </g>
    </g>
    <g id="ytick_50">
     <g id="line2d_118">
      <g>
       <use style="fill:#262626;stroke:#262626;stroke-width:1.25;" x="450.611855" xlink:href="#md8fb2128a6" y="77.522625"/>
      </g>
     </g>
     <g id="text_23">
      <!-- $\mathdefault{10^{6}}$ -->
      <g style="fill:#262626;" transform="translate(460.111855 82.088822)scale(0.132 -0.132)">
       <use transform="scale(0.996264)" xlink:href="#CMR17-31"/>
       <use transform="translate(45.690477 0)scale(0.996264)" xlink:href="#CMR17-30"/>
       <use transform="translate(91.380954 36.153639)scale(0.697382)" xlink:href="#CMR17-36"/>
      </g>
     </g>
    </g>
    <g id="ytick_51">
     <g id="line2d_119">
      <g>
       <use style="fill:#262626;stroke:#262626;stroke-width:1.25;" x="450.611855" xlink:href="#md8fb2128a6" y="23.162625"/>
      </g>
     </g>
     <g id="text_24">
      <!-- $\mathdefault{10^{7}}$ -->
      <g style="fill:#262626;" transform="translate(460.111855 27.728822)scale(0.132 -0.132)">
       <use transform="scale(0.996264)" xlink:href="#CMR17-31"/>
       <use transform="translate(45.690477 0)scale(0.996264)" xlink:href="#CMR17-30"/>
       <use transform="translate(91.380954 36.153639)scale(0.697382)" xlink:href="#CMR17-37"/>
      </g>
     </g>
    </g>
    <g id="ytick_52">
     <g id="line2d_120">
      <defs>
       <path d="M 0 0 
L 4 0 
" id="me43c26f0d7" style="stroke:#262626;"/>
      </defs>
      <g>
       <use style="fill:#262626;stroke:#262626;" x="450.611855" xlink:href="#me43c26f0d7" y="278.598634"/>
      </g>
     </g>
    </g>
    <g id="ytick_53">
     <g id="line2d_121">
      <g>
       <use style="fill:#262626;stroke:#262626;" x="450.611855" xlink:href="#me43c26f0d7" y="269.026313"/>
      </g>
     </g>
    </g>
    <g id="ytick_54">
     <g id="line2d_122">
      <g>
       <use style="fill:#262626;stroke:#262626;" x="450.611855" xlink:href="#me43c26f0d7" y="262.234644"/>
      </g>
     </g>
    </g>
    <g id="ytick_55">
     <g id="line2d_123">
      <g>
       <use style="fill:#262626;stroke:#262626;" x="450.611855" xlink:href="#me43c26f0d7" y="256.966615"/>
      </g>
     </g>
    </g>
    <g id="ytick_56">
     <g id="line2d_124">
      <g>
       <use style="fill:#262626;stroke:#262626;" x="450.611855" xlink:href="#me43c26f0d7" y="252.662323"/>
      </g>
     </g>
    </g>
    <g id="ytick_57">
     <g id="line2d_125">
      <g>
       <use style="fill:#262626;stroke:#262626;" x="450.611855" xlink:href="#me43c26f0d7" y="249.023095"/>
      </g>
     </g>
    </g>
    <g id="ytick_58">
     <g id="line2d_126">
      <g>
       <use style="fill:#262626;stroke:#262626;" x="450.611855" xlink:href="#me43c26f0d7" y="245.870653"/>
      </g>
     </g>
    </g>
    <g id="ytick_59">
     <g id="line2d_127">
      <g>
       <use style="fill:#262626;stroke:#262626;" x="450.611855" xlink:href="#me43c26f0d7" y="243.090002"/>
      </g>
     </g>
    </g>
    <g id="ytick_60">
     <g id="line2d_128">
      <g>
       <use style="fill:#262626;stroke:#262626;" x="450.611855" xlink:href="#me43c26f0d7" y="224.238634"/>
      </g>
     </g>
    </g>
    <g id="ytick_61">
     <g id="line2d_129">
      <g>
       <use style="fill:#262626;stroke:#262626;" x="450.611855" xlink:href="#me43c26f0d7" y="214.666313"/>
      </g>
     </g>
    </g>
    <g id="ytick_62">
     <g id="line2d_130">
      <g>
       <use style="fill:#262626;stroke:#262626;" x="450.611855" xlink:href="#me43c26f0d7" y="207.874644"/>
      </g>
     </g>
    </g>
    <g id="ytick_63">
     <g id="line2d_131">
      <g>
       <use style="fill:#262626;stroke:#262626;" x="450.611855" xlink:href="#me43c26f0d7" y="202.606615"/>
      </g>
     </g>
    </g>
    <g id="ytick_64">
     <g id="line2d_132">
      <g>
       <use style="fill:#262626;stroke:#262626;" x="450.611855" xlink:href="#me43c26f0d7" y="198.302323"/>
      </g>
     </g>
    </g>
    <g id="ytick_65">
     <g id="line2d_133">
      <g>
       <use style="fill:#262626;stroke:#262626;" x="450.611855" xlink:href="#me43c26f0d7" y="194.663095"/>
      </g>
     </g>
    </g>
    <g id="ytick_66">
     <g id="line2d_134">
      <g>
       <use style="fill:#262626;stroke:#262626;" x="450.611855" xlink:href="#me43c26f0d7" y="191.510653"/>
      </g>
     </g>
    </g>
    <g id="ytick_67">
     <g id="line2d_135">
      <g>
       <use style="fill:#262626;stroke:#262626;" x="450.611855" xlink:href="#me43c26f0d7" y="188.730002"/>
      </g>
     </g>
    </g>
    <g id="ytick_68">
     <g id="line2d_136">
      <g>
       <use style="fill:#262626;stroke:#262626;" x="450.611855" xlink:href="#me43c26f0d7" y="169.878634"/>
      </g>
     </g>
    </g>
    <g id="ytick_69">
     <g id="line2d_137">
      <g>
       <use style="fill:#262626;stroke:#262626;" x="450.611855" xlink:href="#me43c26f0d7" y="160.306313"/>
      </g>
     </g>
    </g>
    <g id="ytick_70">
     <g id="line2d_138">
      <g>
       <use style="fill:#262626;stroke:#262626;" x="450.611855" xlink:href="#me43c26f0d7" y="153.514644"/>
      </g>
     </g>
    </g>
    <g id="ytick_71">
     <g id="line2d_139">
      <g>
       <use style="fill:#262626;stroke:#262626;" x="450.611855" xlink:href="#me43c26f0d7" y="148.246615"/>
      </g>
     </g>
    </g>
    <g id="ytick_72">
     <g id="line2d_140">
      <g>
       <use style="fill:#262626;stroke:#262626;" x="450.611855" xlink:href="#me43c26f0d7" y="143.942323"/>
      </g>
     </g>
    </g>
    <g id="ytick_73">
     <g id="line2d_141">
      <g>
       <use style="fill:#262626;stroke:#262626;" x="450.611855" xlink:href="#me43c26f0d7" y="140.303095"/>
      </g>
     </g>
    </g>
    <g id="ytick_74">
     <g id="line2d_142">
      <g>
       <use style="fill:#262626;stroke:#262626;" x="450.611855" xlink:href="#me43c26f0d7" y="137.150653"/>
      </g>
     </g>
    </g>
    <g id="ytick_75">
     <g id="line2d_143">
      <g>
       <use style="fill:#262626;stroke:#262626;" x="450.611855" xlink:href="#me43c26f0d7" y="134.370002"/>
      </g>
     </g>
    </g>
    <g id="ytick_76">
     <g id="line2d_144">
      <g>
       <use style="fill:#262626;stroke:#262626;" x="450.611855" xlink:href="#me43c26f0d7" y="115.518634"/>
      </g>
     </g>
    </g>
    <g id="ytick_77">
     <g id="line2d_145">
      <g>
       <use style="fill:#262626;stroke:#262626;" x="450.611855" xlink:href="#me43c26f0d7" y="105.946313"/>
      </g>
     </g>
    </g>
    <g id="ytick_78">
     <g id="line2d_146">
      <g>
       <use style="fill:#262626;stroke:#262626;" x="450.611855" xlink:href="#me43c26f0d7" y="99.154644"/>
      </g>
     </g>
    </g>
    <g id="ytick_79">
     <g id="line2d_147">
      <g>
       <use style="fill:#262626;stroke:#262626;" x="450.611855" xlink:href="#me43c26f0d7" y="93.886615"/>
      </g>
     </g>
    </g>
    <g id="ytick_80">
     <g id="line2d_148">
      <g>
       <use style="fill:#262626;stroke:#262626;" x="450.611855" xlink:href="#me43c26f0d7" y="89.582323"/>
      </g>
     </g>
    </g>
    <g id="ytick_81">
     <g id="line2d_149">
      <g>
       <use style="fill:#262626;stroke:#262626;" x="450.611855" xlink:href="#me43c26f0d7" y="85.943095"/>
      </g>
     </g>
    </g>
    <g id="ytick_82">
     <g id="line2d_150">
      <g>
       <use style="fill:#262626;stroke:#262626;" x="450.611855" xlink:href="#me43c26f0d7" y="82.790653"/>
      </g>
     </g>
    </g>
    <g id="ytick_83">
     <g id="line2d_151">
      <g>
       <use style="fill:#262626;stroke:#262626;" x="450.611855" xlink:href="#me43c26f0d7" y="80.010002"/>
      </g>
     </g>
    </g>
    <g id="ytick_84">
     <g id="line2d_152">
      <g>
       <use style="fill:#262626;stroke:#262626;" x="450.611855" xlink:href="#me43c26f0d7" y="61.158634"/>
      </g>
     </g>
    </g>
    <g id="ytick_85">
     <g id="line2d_153">
      <g>
       <use style="fill:#262626;stroke:#262626;" x="450.611855" xlink:href="#me43c26f0d7" y="51.586313"/>
      </g>
     </g>
    </g>
    <g id="ytick_86">
     <g id="line2d_154">
      <g>
       <use style="fill:#262626;stroke:#262626;" x="450.611855" xlink:href="#me43c26f0d7" y="44.794644"/>
      </g>
     </g>
    </g>
    <g id="ytick_87">
     <g id="line2d_155">
      <g>
       <use style="fill:#262626;stroke:#262626;" x="450.611855" xlink:href="#me43c26f0d7" y="39.526615"/>
      </g>
     </g>
    </g>
    <g id="ytick_88">
     <g id="line2d_156">
      <g>
       <use style="fill:#262626;stroke:#262626;" x="450.611855" xlink:href="#me43c26f0d7" y="35.222323"/>
      </g>
     </g>
    </g>
    <g id="ytick_89">
     <g id="line2d_157">
      <g>
       <use style="fill:#262626;stroke:#262626;" x="450.611855" xlink:href="#me43c26f0d7" y="31.583095"/>
      </g>
     </g>
    </g>
    <g id="ytick_90">
     <g id="line2d_158">
      <g>
       <use style="fill:#262626;stroke:#262626;" x="450.611855" xlink:href="#me43c26f0d7" y="28.430653"/>
      </g>
     </g>
    </g>
    <g id="ytick_91">
     <g id="line2d_159">
      <g>
       <use style="fill:#262626;stroke:#262626;" x="450.611855" xlink:href="#me43c26f0d7" y="25.650002"/>
      </g>
     </g>
    </g>
    <g id="text_25">
     <!-- Matrix size -->
     <g style="fill:#262626;" transform="translate(491.681549 193.436622)rotate(-90)scale(0.144 -0.144)">
      <use transform="scale(0.996264)" xlink:href="#CMR17-4d"/>
      <use transform="translate(84.686941 0)scale(0.996264)" xlink:href="#CMR17-61"/>
      <use transform="translate(130.377418 0)scale(0.996264)" xlink:href="#CMR17-74"/>
      <use transform="translate(165.658185 0)scale(0.996264)" xlink:href="#CMR17-72"/>
      <use transform="translate(200.938953 0)scale(0.996264)" xlink:href="#CMR17-69"/>
      <use transform="translate(225.810012 0)scale(0.996264)" xlink:href="#CMR17-78"/>
      <use transform="translate(304.178894 0)scale(0.996264)" xlink:href="#CMR17-73"/>
      <use transform="translate(339.980232 0)scale(0.996264)" xlink:href="#CMR17-69"/>
      <use transform="translate(364.85129 0)scale(0.996264)" xlink:href="#CMR17-7a"/>
      <use transform="translate(405.336951 0)scale(0.996264)" xlink:href="#CMR17-65"/>
     </g>
    </g>
   </g>
   <g id="line2d_160">
    <defs>
     <path d="M 0 3 
C 0.795609 3 1.55874 2.683901 2.12132 2.12132 
C 2.683901 1.55874 3 0.795609 3 0 
C 3 -0.795609 2.683901 -1.55874 2.12132 -2.12132 
C 1.55874 -2.683901 0.795609 -3 0 -3 
C -0.795609 -3 -1.55874 -2.683901 -2.12132 -2.12132 
C -2.683901 -1.55874 -3 -0.795609 -3 0 
C -3 0.795609 -2.683901 1.55874 -2.12132 2.12132 
C -1.55874 2.683901 -0.795609 3 0 3 
z
" id="ma236b22a7f" style="stroke:#808080;"/>
    </defs>
    <g clip-path="url(#p63fdda68f4)">
     <use style="fill:#ffffff;stroke:#808080;" x="77.7664" xlink:href="#ma236b22a7f" y="258.52806"/>
     <use style="fill:#ffffff;stroke:#808080;" x="131.621453" xlink:href="#ma236b22a7f" y="203.570351"/>
     <use style="fill:#ffffff;stroke:#808080;" x="182.667997" xlink:href="#ma236b22a7f" y="170.639134"/>
     <use style="fill:#ffffff;stroke:#808080;" x="237.084701" xlink:href="#ma236b22a7f" y="122.294256"/>
     <use style="fill:#ffffff;stroke:#808080;" x="289.299117" xlink:href="#ma236b22a7f" y="92.697696"/>
     <use style="fill:#ffffff;stroke:#808080;" x="345.463278" xlink:href="#ma236b22a7f" y="68.505484"/>
     <use style="fill:#ffffff;stroke:#808080;" x="403.618778" xlink:href="#ma236b22a7f" y="52.293893"/>
     <use style="fill:#ffffff;stroke:#808080;" x="432.857309" xlink:href="#ma236b22a7f" y="43.941977"/>
    </g>
   </g>
   <g id="patch_15">
    <path d="M 60.011855 294.962625 
L 60.011855 23.162625 
" style="fill:none;stroke:#262626;stroke-linecap:square;stroke-linejoin:miter;stroke-width:1.25;"/>
   </g>
   <g id="patch_16">
    <path d="M 450.611855 294.962625 
L 450.611855 23.162625 
" style="fill:none;stroke:#262626;stroke-linecap:square;stroke-linejoin:miter;stroke-width:1.25;"/>
   </g>
   <g id="patch_17">
    <path d="M 60.011855 294.962625 
L 450.611855 294.962625 
" style="fill:none;stroke:#262626;stroke-linecap:square;stroke-linejoin:miter;stroke-width:1.25;"/>
   </g>
   <g id="patch_18">
    <path d="M 60.011855 23.162625 
L 450.611855 23.162625 
" style="fill:none;stroke:#262626;stroke-linecap:square;stroke-linejoin:miter;stroke-width:1.25;"/>
   </g>
   <g id="legend_2">
    <g id="patch_19">
     <path d="M 68.408495 128.298709 
L 164.321057 128.298709 
Q 166.720097 128.298709 166.720097 125.899669 
L 166.720097 110.381265 
Q 166.720097 107.982225 164.321057 107.982225 
L 68.408495 107.982225 
Q 66.009455 107.982225 66.009455 110.381265 
L 66.009455 125.899669 
Q 66.009455 128.298709 68.408495 128.298709 
z
" style="fill:#ffffff;opacity:0.8;stroke:#cccccc;stroke-linejoin:miter;"/>
    </g>
    <g id="line2d_161"/>
    <g id="line2d_162">
     <g>
      <use style="fill:#ffffff;stroke:#808080;" x="82.802735" xlink:href="#ma236b22a7f" y="116.978625"/>
     </g>
    </g>
    <g id="text_26">
     <!-- matrix size -->
     <g style="fill:#262626;" transform="translate(104.394095 121.176945)scale(0.119952 -0.119952)">
      <use transform="scale(0.996264)" xlink:href="#CMR17-6d"/>
      <use transform="translate(76.91959 0)scale(0.996264)" xlink:href="#CMR17-61"/>
      <use transform="translate(122.610067 0)scale(0.996264)" xlink:href="#CMR17-74"/>
      <use transform="translate(157.890835 0)scale(0.996264)" xlink:href="#CMR17-72"/>
      <use transform="translate(193.171603 0)scale(0.996264)" xlink:href="#CMR17-69"/>
      <use transform="translate(218.042661 0)scale(0.996264)" xlink:href="#CMR17-78"/>
      <use transform="translate(296.411543 0)scale(0.996264)" xlink:href="#CMR17-73"/>
      <use transform="translate(332.212881 0)scale(0.996264)" xlink:href="#CMR17-69"/>
      <use transform="translate(357.083939 0)scale(0.996264)" xlink:href="#CMR17-7a"/>
      <use transform="translate(397.5696 0)scale(0.996264)" xlink:href="#CMR17-65"/>
     </g>
    </g>
   </g>
  </g>
 </g>
 <defs>
  <clipPath id="p63fdda68f4">
   <rect height="271.8" width="390.6" x="60.011855" y="23.162625"/>
  </clipPath>
 </defs>
</svg>
