<?xml version="1.0" encoding="utf-8" standalone="no"?>
<!DOCTYPE svg PUBLIC "-//W3C//DTD SVG 1.1//EN"
  "http://www.w3.org/Graphics/SVG/1.1/DTD/svg11.dtd">
<svg height="340.104233pt" version="1.1" viewBox="0 0 482.514178 340.104233" width="482.514178pt" xmlns="http://www.w3.org/2000/svg" xmlns:xlink="http://www.w3.org/1999/xlink">
 <metadata>
  <rdf:RDF xmlns:cc="http://creativecommons.org/ns#" xmlns:dc="http://purl.org/dc/elements/1.1/" xmlns:rdf="http://www.w3.org/1999/02/22-rdf-syntax-ns#">
   <cc:Work>
    <dc:type rdf:resource="http://purl.org/dc/dcmitype/StillImage"/>
    <dc:date>2021-08-19T14:49:47.564131</dc:date>
    <dc:format>image/svg+xml</dc:format>
    <dc:creator>
     <cc:Agent>
      <dc:title>Matplotlib v3.4.2, https://matplotlib.org/</dc:title>
     </cc:Agent>
    </dc:creator>
   </cc:Work>
  </rdf:RDF>
 </metadata>
 <defs>
  <style type="text/css">*{stroke-linecap:butt;stroke-linejoin:round;}</style>
 </defs>
 <g id="figure_1">
  <g id="patch_1">
   <path d="M 0 340.104233 
L 482.514178 340.104233 
L 482.514178 0 
L 0 0 
z
" style="fill:none;"/>
  </g>
  <g id="axes_1">
   <g id="patch_2">
    <path d="M 77.609974 294.962625 
L 468.209974 294.962625 
L 468.209974 23.162625 
L 77.609974 23.162625 
z
" style="fill:none;"/>
   </g>
   <g id="matplotlib.axis_1">
    <g id="xtick_1">
     <g id="line2d_1">
      <defs>
       <path d="M 0 0 
L 0 6 
" id="m6c0652a983" style="stroke:#262626;stroke-width:1.25;"/>
      </defs>
      <g>
       <use style="fill:#262626;stroke:#262626;stroke-width:1.25;" x="112.273611" xlink:href="#m6c0652a983" y="294.962625"/>
      </g>
     </g>
     <g id="text_1">
      <!-- $\mathdefault{2^{5}}$ -->
      <g style="fill:#262626;" transform="translate(106.689213 313.59502)scale(0.132 -0.132)">
       <defs>
        <path d="M 2669 989 
L 2554 989 
C 2490 536 2438 459 2413 420 
C 2381 369 1920 369 1830 369 
L 602 369 
C 832 619 1280 1072 1824 1597 
C 2214 1967 2669 2402 2669 3035 
C 2669 3790 2067 4224 1395 4224 
C 691 4224 262 3604 262 3030 
C 262 2780 448 2748 525 2748 
C 589 2748 781 2787 781 3010 
C 781 3207 614 3264 525 3264 
C 486 3264 448 3258 422 3245 
C 544 3790 915 4058 1306 4058 
C 1862 4058 2227 3617 2227 3035 
C 2227 2479 1901 2000 1536 1584 
L 262 146 
L 262 0 
L 2515 0 
L 2669 989 
z
" id="CMR17-32" transform="scale(0.015625)"/>
        <path d="M 730 3692 
C 794 3666 1056 3584 1325 3584 
C 1920 3584 2246 3911 2432 4100 
C 2432 4157 2432 4192 2394 4192 
C 2387 4192 2374 4192 2323 4163 
C 2099 4058 1837 3973 1517 3973 
C 1325 3973 1037 3999 723 4139 
C 653 4171 640 4171 634 4171 
C 602 4171 595 4164 595 4037 
L 595 2203 
C 595 2089 595 2057 659 2057 
C 691 2057 704 2070 736 2114 
C 941 2401 1222 2522 1542 2522 
C 1766 2522 2246 2382 2246 1289 
C 2246 1085 2246 715 2054 421 
C 1894 159 1645 25 1370 25 
C 947 25 518 320 403 814 
C 429 807 480 795 506 795 
C 589 795 749 840 749 1038 
C 749 1210 627 1280 506 1280 
C 358 1280 262 1190 262 1011 
C 262 454 704 -128 1382 -128 
C 2042 -128 2669 440 2669 1264 
C 2669 2030 2170 2624 1549 2624 
C 1222 2624 947 2503 730 2274 
L 730 3692 
z
" id="CMR17-35" transform="scale(0.015625)"/>
       </defs>
       <use transform="scale(0.996264)" xlink:href="#CMR17-32"/>
       <use transform="translate(45.690477 36.153639)scale(0.697382)" xlink:href="#CMR17-35"/>
      </g>
     </g>
    </g>
    <g id="xtick_2">
     <g id="line2d_2">
      <g>
       <use style="fill:#262626;stroke:#262626;stroke-width:1.25;" x="163.000883" xlink:href="#m6c0652a983" y="294.962625"/>
      </g>
     </g>
     <g id="text_2">
      <!-- $\mathdefault{2^{8}}$ -->
      <g style="fill:#262626;" transform="translate(157.416486 313.59502)scale(0.132 -0.132)">
       <defs>
        <path d="M 1741 2264 
C 2144 2467 2554 2773 2554 3263 
C 2554 3841 1990 4179 1472 4179 
C 890 4179 378 3759 378 3180 
C 378 3021 416 2747 666 2505 
C 730 2442 998 2251 1171 2130 
C 883 1983 211 1634 211 934 
C 211 279 838 -128 1459 -128 
C 2144 -128 2720 362 2720 1010 
C 2720 1590 2330 1857 2074 2029 
L 1741 2264 
z
M 902 2822 
C 851 2854 595 3051 595 3351 
C 595 3739 998 4032 1459 4032 
C 1965 4032 2336 3676 2336 3262 
C 2336 2669 1670 2331 1638 2331 
C 1632 2331 1626 2331 1574 2370 
L 902 2822 
z
M 2080 1519 
C 2176 1449 2483 1240 2483 851 
C 2483 381 2010 25 1472 25 
C 890 25 448 438 448 940 
C 448 1443 838 1862 1280 2060 
L 2080 1519 
z
" id="CMR17-38" transform="scale(0.015625)"/>
       </defs>
       <use transform="scale(0.996264)" xlink:href="#CMR17-32"/>
       <use transform="translate(45.690477 36.153639)scale(0.697382)" xlink:href="#CMR17-38"/>
      </g>
     </g>
    </g>
    <g id="xtick_3">
     <g id="line2d_3">
      <g>
       <use style="fill:#262626;stroke:#262626;stroke-width:1.25;" x="213.728156" xlink:href="#m6c0652a983" y="294.962625"/>
      </g>
     </g>
     <g id="text_3">
      <!-- $\mathdefault{2^{11}}$ -->
      <g style="fill:#262626;" transform="translate(205.778498 313.59502)scale(0.132 -0.132)">
       <defs>
        <path d="M 1702 4058 
C 1702 4192 1696 4192 1606 4192 
C 1357 3916 979 3827 621 3827 
C 602 3827 570 3827 563 3808 
C 557 3795 557 3782 557 3648 
C 755 3648 1088 3686 1344 3839 
L 1344 461 
C 1344 236 1331 160 781 160 
L 589 160 
L 589 0 
C 896 0 1216 0 1523 0 
C 1830 0 2150 0 2458 0 
L 2458 160 
L 2266 160 
C 1715 160 1702 230 1702 458 
L 1702 4058 
z
" id="CMR17-31" transform="scale(0.015625)"/>
       </defs>
       <use transform="scale(0.996264)" xlink:href="#CMR17-32"/>
       <use transform="translate(45.690477 36.153639)scale(0.697382)" xlink:href="#CMR17-31"/>
       <use transform="translate(77.673659 36.153639)scale(0.697382)" xlink:href="#CMR17-31"/>
      </g>
     </g>
    </g>
    <g id="xtick_4">
     <g id="line2d_4">
      <g>
       <use style="fill:#262626;stroke:#262626;stroke-width:1.25;" x="264.455429" xlink:href="#m6c0652a983" y="294.962625"/>
      </g>
     </g>
     <g id="text_4">
      <!-- $\mathdefault{2^{14}}$ -->
      <g style="fill:#262626;" transform="translate(256.505771 313.59502)scale(0.132 -0.132)">
       <defs>
        <path d="M 2150 4122 
C 2150 4256 2144 4256 2029 4256 
L 128 1254 
L 128 1088 
L 1779 1088 
L 1779 457 
C 1779 224 1766 160 1318 160 
L 1197 160 
L 1197 0 
C 1402 0 1747 0 1965 0 
C 2182 0 2528 0 2733 0 
L 2733 160 
L 2611 160 
C 2163 160 2150 224 2150 457 
L 2150 1088 
L 2803 1088 
L 2803 1254 
L 2150 1254 
L 2150 4122 
z
M 1798 3703 
L 1798 1254 
L 256 1254 
L 1798 3703 
z
" id="CMR17-34" transform="scale(0.015625)"/>
       </defs>
       <use transform="scale(0.996264)" xlink:href="#CMR17-32"/>
       <use transform="translate(45.690477 36.153639)scale(0.697382)" xlink:href="#CMR17-31"/>
       <use transform="translate(77.673659 36.153639)scale(0.697382)" xlink:href="#CMR17-34"/>
      </g>
     </g>
    </g>
    <g id="xtick_5">
     <g id="line2d_5">
      <g>
       <use style="fill:#262626;stroke:#262626;stroke-width:1.25;" x="315.182701" xlink:href="#m6c0652a983" y="294.962625"/>
      </g>
     </g>
     <g id="text_5">
      <!-- $\mathdefault{2^{17}}$ -->
      <g style="fill:#262626;" transform="translate(307.233043 313.59502)scale(0.132 -0.132)">
       <defs>
        <path d="M 2886 3941 
L 2886 4081 
L 1382 4081 
C 634 4081 621 4165 595 4288 
L 480 4288 
L 294 3094 
L 410 3094 
C 429 3215 474 3540 550 3661 
C 589 3712 1062 3712 1171 3712 
L 2579 3712 
L 1869 2661 
C 1395 1954 1069 999 1069 165 
C 1069 89 1069 -128 1299 -128 
C 1530 -128 1530 89 1530 171 
L 1530 465 
C 1530 1508 1709 2196 2003 2636 
L 2886 3941 
z
" id="CMR17-37" transform="scale(0.015625)"/>
       </defs>
       <use transform="scale(0.996264)" xlink:href="#CMR17-32"/>
       <use transform="translate(45.690477 36.153639)scale(0.697382)" xlink:href="#CMR17-31"/>
       <use transform="translate(77.673659 36.153639)scale(0.697382)" xlink:href="#CMR17-37"/>
      </g>
     </g>
    </g>
    <g id="xtick_6">
     <g id="line2d_6">
      <g>
       <use style="fill:#262626;stroke:#262626;stroke-width:1.25;" x="365.909974" xlink:href="#m6c0652a983" y="294.962625"/>
      </g>
     </g>
     <g id="text_6">
      <!-- $\mathdefault{2^{20}}$ -->
      <g style="fill:#262626;" transform="translate(357.960316 313.59502)scale(0.132 -0.132)">
       <defs>
        <path d="M 2688 2025 
C 2688 2416 2682 3080 2413 3591 
C 2176 4039 1798 4198 1466 4198 
C 1158 4198 768 4058 525 3597 
C 269 3118 243 2524 243 2025 
C 243 1661 250 1106 448 619 
C 723 -39 1216 -128 1466 -128 
C 1760 -128 2208 -7 2470 600 
C 2662 1042 2688 1559 2688 2025 
z
M 1466 -26 
C 1056 -26 813 325 723 812 
C 653 1188 653 1738 653 2096 
C 653 2588 653 2997 736 3387 
C 858 3929 1216 4096 1466 4096 
C 1728 4096 2067 3923 2189 3400 
C 2272 3036 2278 2607 2278 2096 
C 2278 1680 2278 1169 2202 792 
C 2067 95 1690 -26 1466 -26 
z
" id="CMR17-30" transform="scale(0.015625)"/>
       </defs>
       <use transform="scale(0.996264)" xlink:href="#CMR17-32"/>
       <use transform="translate(45.690477 36.153639)scale(0.697382)" xlink:href="#CMR17-32"/>
       <use transform="translate(77.673659 36.153639)scale(0.697382)" xlink:href="#CMR17-30"/>
      </g>
     </g>
    </g>
    <g id="xtick_7">
     <g id="line2d_7">
      <g>
       <use style="fill:#262626;stroke:#262626;stroke-width:1.25;" x="416.637247" xlink:href="#m6c0652a983" y="294.962625"/>
      </g>
     </g>
     <g id="text_7">
      <!-- $\mathdefault{2^{23}}$ -->
      <g style="fill:#262626;" transform="translate(408.687589 313.59502)scale(0.132 -0.132)">
       <defs>
        <path d="M 1414 2157 
C 1984 2157 2234 1662 2234 1090 
C 2234 320 1824 25 1453 25 
C 1114 25 563 194 390 693 
C 422 680 454 680 486 680 
C 640 680 755 782 755 948 
C 755 1133 614 1216 486 1216 
C 378 1216 211 1165 211 926 
C 211 335 787 -128 1466 -128 
C 2176 -128 2720 430 2720 1085 
C 2720 1707 2208 2157 1600 2227 
C 2086 2328 2554 2756 2554 3329 
C 2554 3820 2048 4179 1472 4179 
C 890 4179 378 3829 378 3329 
C 378 3110 544 3072 627 3072 
C 762 3072 877 3155 877 3321 
C 877 3486 762 3569 627 3569 
C 602 3569 570 3569 544 3557 
C 730 3959 1235 4032 1459 4032 
C 1683 4032 2106 3925 2106 3320 
C 2106 3143 2080 2828 1862 2550 
C 1670 2304 1453 2304 1242 2284 
C 1210 2284 1062 2269 1037 2269 
C 992 2263 966 2257 966 2208 
C 966 2163 973 2157 1101 2157 
L 1414 2157 
z
" id="CMR17-33" transform="scale(0.015625)"/>
       </defs>
       <use transform="scale(0.996264)" xlink:href="#CMR17-32"/>
       <use transform="translate(45.690477 36.153639)scale(0.697382)" xlink:href="#CMR17-32"/>
       <use transform="translate(77.673659 36.153639)scale(0.697382)" xlink:href="#CMR17-33"/>
      </g>
     </g>
    </g>
    <g id="xtick_8">
     <g id="line2d_8">
      <g>
       <use style="fill:#262626;stroke:#262626;stroke-width:1.25;" x="467.36452" xlink:href="#m6c0652a983" y="294.962625"/>
      </g>
     </g>
     <g id="text_8">
      <!-- $\mathdefault{2^{26}}$ -->
      <g style="fill:#262626;" transform="translate(459.414862 313.59502)scale(0.132 -0.132)">
       <defs>
        <path d="M 678 2176 
C 678 3690 1395 4032 1811 4032 
C 1946 4032 2272 4009 2400 3776 
C 2298 3776 2106 3776 2106 3553 
C 2106 3381 2246 3323 2336 3323 
C 2394 3323 2566 3348 2566 3560 
C 2566 3954 2246 4179 1805 4179 
C 1043 4179 243 3390 243 1984 
C 243 253 966 -128 1478 -128 
C 2099 -128 2688 427 2688 1283 
C 2688 2081 2170 2662 1517 2662 
C 1126 2662 838 2407 678 1960 
L 678 2176 
z
M 1478 25 
C 691 25 691 1200 691 1436 
C 691 1896 909 2560 1504 2560 
C 1613 2560 1926 2560 2138 2120 
C 2253 1870 2253 1609 2253 1289 
C 2253 944 2253 690 2118 434 
C 1978 171 1773 25 1478 25 
z
" id="CMR17-36" transform="scale(0.015625)"/>
       </defs>
       <use transform="scale(0.996264)" xlink:href="#CMR17-32"/>
       <use transform="translate(45.690477 36.153639)scale(0.697382)" xlink:href="#CMR17-32"/>
       <use transform="translate(77.673659 36.153639)scale(0.697382)" xlink:href="#CMR17-36"/>
      </g>
     </g>
    </g>
    <g id="text_9">
     <!-- Matrix size -->
     <g style="fill:#262626;" transform="translate(238.535978 330.114706)scale(0.144 -0.144)">
      <defs>
       <path d="M 1338 4224 
C 1299 4320 1293 4320 1158 4320 
L 339 4320 
L 339 4160 
C 781 4160 851 4160 851 3875 
L 851 610 
C 851 451 851 153 339 153 
L 339 -13 
C 486 0 755 0 915 0 
C 1075 0 1344 0 1491 -13 
L 1491 153 
C 979 153 979 451 979 610 
L 979 4135 
L 986 4135 
L 2490 89 
C 2515 25 2528 -13 2579 -13 
C 2630 -13 2643 25 2669 89 
L 4186 4166 
L 4192 4166 
L 4192 438 
C 4192 153 4122 153 3680 153 
L 3680 -13 
C 3853 0 4198 0 4384 0 
C 4570 0 4922 0 5094 -13 
L 5094 153 
C 4653 153 4582 153 4582 438 
L 4582 3875 
C 4582 4160 4653 4160 5094 4160 
L 5094 4320 
L 4282 4320 
C 4147 4320 4141 4314 4102 4218 
L 2720 502 
L 1338 4224 
z
" id="CMR17-4d" transform="scale(0.015625)"/>
       <path d="M 2304 1653 
C 2304 2072 2304 2294 2035 2543 
C 1798 2752 1523 2816 1306 2816 
C 800 2816 435 2407 435 1971 
C 435 1728 627 1728 666 1728 
C 749 1728 896 1778 896 1954 
C 896 2112 774 2181 666 2181 
C 640 2181 608 2174 589 2168 
C 723 2592 1069 2714 1293 2714 
C 1613 2714 1965 2429 1965 1885 
L 1965 1600 
C 1587 1600 1133 1549 774 1357 
C 371 1133 256 813 256 570 
C 256 77 832 -64 1171 -64 
C 1523 -64 1850 139 1990 511 
C 2003 233 2182 -18 2464 -18 
C 2598 -18 2938 70 2938 567 
L 2938 920 
L 2822 920 
L 2822 562 
C 2822 178 2650 128 2566 128 
C 2304 128 2304 458 2304 738 
L 2304 1653 
z
M 1965 870 
C 1965 317 1568 38 1216 38 
C 896 38 646 275 646 570 
C 646 761 730 1100 1101 1305 
C 1408 1478 1760 1504 1965 1504 
L 1965 870 
z
" id="CMR17-61" transform="scale(0.015625)"/>
       <path d="M 966 2560 
L 1862 2560 
L 1862 2725 
L 966 2725 
L 966 3904 
L 851 3904 
C 838 3245 614 2668 70 2668 
L 70 2560 
L 627 2560 
L 627 771 
C 627 650 627 -64 1370 -64 
C 1747 -64 1965 306 1965 777 
L 1965 1140 
L 1850 1140 
L 1850 783 
C 1850 344 1677 51 1408 51 
C 1222 51 966 178 966 758 
L 966 2560 
z
" id="CMR17-74" transform="scale(0.015625)"/>
       <path d="M 960 1497 
C 960 2112 1222 2688 1702 2688 
C 1747 2688 1792 2682 1837 2662 
C 1837 2662 1696 2617 1696 2452 
C 1696 2298 1818 2234 1914 2234 
C 1990 2234 2131 2279 2131 2458 
C 2131 2663 1926 2790 1709 2790 
C 1222 2790 1011 2317 947 2093 
L 941 2093 
L 941 2790 
L 198 2720 
L 198 2554 
C 576 2554 634 2515 634 2208 
L 634 428 
C 634 184 608 153 198 153 
L 198 -13 
C 352 0 646 0 813 0 
C 998 0 1325 0 1498 -13 
L 1498 153 
C 1037 153 960 153 960 440 
L 960 1497 
z
" id="CMR17-72" transform="scale(0.015625)"/>
       <path d="M 992 3909 
C 992 4049 877 4170 730 4170 
C 589 4170 467 4056 467 3909 
C 467 3769 582 3648 730 3648 
C 870 3648 992 3763 992 3909 
z
M 243 2706 
L 243 2541 
C 602 2541 653 2502 653 2197 
L 653 427 
C 653 184 627 153 218 153 
L 218 -13 
C 371 0 646 0 806 0 
C 960 0 1222 0 1370 -13 
L 1370 153 
C 992 153 979 191 979 420 
L 979 2776 
L 243 2706 
z
" id="CMR17-69" transform="scale(0.015625)"/>
       <path d="M 1664 1477 
C 1856 1726 2074 2006 2253 2216 
C 2464 2458 2707 2560 2989 2560 
L 2989 2726 
C 2880 2726 2656 2726 2541 2726 
C 2368 2726 2170 2726 2022 2732 
L 2022 2566 
C 2112 2553 2163 2489 2163 2400 
C 2163 2285 2099 2215 2067 2171 
L 1594 1573 
L 1030 2306 
C 973 2376 973 2388 973 2420 
C 973 2497 1037 2560 1146 2560 
L 1146 2732 
C 992 2726 717 2726 557 2726 
C 384 2726 179 2726 38 2732 
L 38 2560 
C 384 2560 461 2534 614 2343 
L 1350 1395 
C 1363 1382 1395 1344 1395 1325 
C 1395 1299 838 619 768 530 
C 480 185 179 160 6 160 
L 6 0 
C 115 0 339 0 454 0 
C 582 0 864 0 979 -6 
L 979 160 
C 941 166 838 179 838 325 
C 838 440 890 510 947 586 
L 1478 1236 
L 2035 512 
C 2086 442 2163 346 2163 301 
C 2163 211 2086 160 1984 160 
L 1984 -6 
C 2138 0 2413 0 2573 0 
C 2746 0 2950 0 3091 -6 
L 3091 160 
C 2771 160 2675 172 2522 370 
L 1664 1477 
z
" id="CMR17-78" transform="scale(0.015625)"/>
       <path d="M 1978 2697 
C 1978 2813 1971 2819 1933 2819 
C 1907 2819 1901 2813 1824 2717 
C 1805 2691 1747 2626 1728 2601 
C 1523 2819 1235 2819 1126 2819 
C 416 2819 160 2447 160 2076 
C 160 1498 813 1365 998 1325 
C 1402 1243 1542 1217 1677 1101 
C 1760 1025 1901 884 1901 654 
C 1901 384 1747 38 1158 38 
C 602 38 403 460 288 1021 
C 269 1110 269 1117 218 1117 
C 166 1117 160 1110 160 983 
L 160 63 
C 160 -51 166 -58 205 -58 
C 237 -58 243 -51 275 0 
C 314 57 410 211 448 276 
C 576 103 800 -64 1158 -64 
C 1792 -64 2131 283 2131 784 
C 2131 1112 1958 1285 1875 1362 
C 1683 1561 1459 1606 1190 1657 
C 838 1735 390 1825 390 2217 
C 390 2383 480 2737 1126 2737 
C 1811 2737 1850 2094 1862 1888 
C 1869 1856 1901 1849 1920 1849 
C 1978 1849 1978 1869 1978 1978 
L 1978 2697 
z
" id="CMR17-73" transform="scale(0.015625)"/>
       <path d="M 2310 2605 
C 2362 2670 2362 2682 2362 2695 
C 2362 2752 2336 2752 2221 2752 
L 275 2752 
L 211 1760 
L 326 1760 
C 371 2381 442 2650 1178 2650 
L 1958 2650 
L 128 96 
C 128 0 134 0 269 0 
L 2291 0 
L 2381 1152 
L 2266 1152 
C 2214 442 2131 115 1350 115 
L 531 115 
L 2310 2605 
z
" id="CMR17-7a" transform="scale(0.015625)"/>
       <path d="M 2438 1472 
C 2464 1498 2464 1511 2464 1576 
C 2464 2238 2118 2816 1389 2816 
C 710 2816 173 2169 173 1383 
C 173 551 781 -64 1459 -64 
C 2176 -64 2458 607 2458 740 
C 2458 784 2419 784 2406 784 
C 2362 784 2355 771 2330 696 
C 2189 265 1837 51 1504 51 
C 1229 51 954 203 781 480 
C 582 803 582 1176 582 1472 
L 2438 1472 
z
M 589 1568 
C 634 2505 1126 2714 1382 2714 
C 1818 2714 2112 2297 2118 1568 
L 589 1568 
z
" id="CMR17-65" transform="scale(0.015625)"/>
      </defs>
      <use transform="scale(0.996264)" xlink:href="#CMR17-4d"/>
      <use transform="translate(84.686941 0)scale(0.996264)" xlink:href="#CMR17-61"/>
      <use transform="translate(130.377418 0)scale(0.996264)" xlink:href="#CMR17-74"/>
      <use transform="translate(165.658185 0)scale(0.996264)" xlink:href="#CMR17-72"/>
      <use transform="translate(200.938953 0)scale(0.996264)" xlink:href="#CMR17-69"/>
      <use transform="translate(225.810012 0)scale(0.996264)" xlink:href="#CMR17-78"/>
      <use transform="translate(304.178894 0)scale(0.996264)" xlink:href="#CMR17-73"/>
      <use transform="translate(339.980232 0)scale(0.996264)" xlink:href="#CMR17-69"/>
      <use transform="translate(364.85129 0)scale(0.996264)" xlink:href="#CMR17-7a"/>
      <use transform="translate(405.336951 0)scale(0.996264)" xlink:href="#CMR17-65"/>
     </g>
    </g>
   </g>
   <g id="matplotlib.axis_2">
    <g id="ytick_1">
     <g id="line2d_9">
      <defs>
       <path d="M 0 0 
L -4 0 
" id="mb014204fa6" style="stroke:#262626;"/>
      </defs>
      <g>
       <use style="fill:#262626;stroke:#262626;" x="77.609974" xlink:href="#mb014204fa6" y="274.074981"/>
      </g>
     </g>
     <g id="text_10">
      <!-- $\mathdefault{3.15\times10^{2}}$ -->
      <g style="fill:#262626;" transform="translate(13.638274 278.696718)scale(0.132 -0.132)">
       <defs>
        <path d="M 1178 307 
C 1178 492 1024 619 870 619 
C 685 619 557 466 557 313 
C 557 128 710 0 864 0 
C 1050 0 1178 153 1178 307 
z
" id="CMMI12-3a" transform="scale(0.015625)"/>
        <path d="M 2490 1785 
L 1210 3059 
C 1133 3136 1120 3148 1069 3148 
C 1005 3148 941 3091 941 3020 
C 941 2976 954 2963 1024 2892 
L 2304 1606 
L 1024 320 
C 954 249 941 236 941 192 
C 941 121 1005 64 1069 64 
C 1120 64 1133 76 1210 153 
L 2483 1427 
L 3808 102 
C 3821 96 3866 64 3904 64 
C 3981 64 4032 121 4032 192 
C 4032 204 4032 230 4013 262 
C 4006 275 2989 1280 2669 1606 
L 3840 2777 
C 3872 2816 3968 2899 4000 2937 
C 4006 2950 4032 2976 4032 3020 
C 4032 3091 3981 3148 3904 3148 
C 3853 3148 3827 3123 3757 3052 
L 2490 1785 
z
" id="CMSY10-2" transform="scale(0.015625)"/>
       </defs>
       <use transform="scale(0.996264)" xlink:href="#CMR17-33"/>
       <use transform="translate(45.690477 0)scale(0.996264)" xlink:href="#CMMI12-3a"/>
       <use transform="translate(72.787654 0)scale(0.996264)" xlink:href="#CMR17-31"/>
       <use transform="translate(118.478131 0)scale(0.996264)" xlink:href="#CMR17-35"/>
       <use transform="translate(186.307815 0)scale(0.996264)" xlink:href="#CMSY10-2"/>
       <use transform="translate(285.93449 0)scale(0.996264)" xlink:href="#CMR17-31"/>
       <use transform="translate(331.624967 0)scale(0.996264)" xlink:href="#CMR17-30"/>
       <use transform="translate(377.315444 36.153639)scale(0.697382)" xlink:href="#CMR17-32"/>
      </g>
     </g>
    </g>
    <g id="ytick_2">
     <g id="line2d_10">
      <g>
       <use style="fill:#262626;stroke:#262626;" x="77.609974" xlink:href="#mb014204fa6" y="239.713186"/>
      </g>
     </g>
     <g id="text_11">
      <!-- $\mathdefault{3.175\times10^{2}}$ -->
      <g style="fill:#262626;" transform="translate(7.2 244.334923)scale(0.132 -0.132)">
       <use transform="scale(0.996264)" xlink:href="#CMR17-33"/>
       <use transform="translate(45.690477 0)scale(0.996264)" xlink:href="#CMMI12-3a"/>
       <use transform="translate(72.787654 0)scale(0.996264)" xlink:href="#CMR17-31"/>
       <use transform="translate(118.478131 0)scale(0.996264)" xlink:href="#CMR17-37"/>
       <use transform="translate(164.168608 0)scale(0.996264)" xlink:href="#CMR17-35"/>
       <use transform="translate(231.998293 0)scale(0.996264)" xlink:href="#CMSY10-2"/>
       <use transform="translate(331.624967 0)scale(0.996264)" xlink:href="#CMR17-31"/>
       <use transform="translate(377.315444 0)scale(0.996264)" xlink:href="#CMR17-30"/>
       <use transform="translate(423.005921 36.153639)scale(0.697382)" xlink:href="#CMR17-32"/>
      </g>
     </g>
    </g>
    <g id="ytick_3">
     <g id="line2d_11">
      <g>
       <use style="fill:#262626;stroke:#262626;" x="77.609974" xlink:href="#mb014204fa6" y="205.620899"/>
      </g>
     </g>
     <g id="text_12">
      <!-- $\mathdefault{3.2\times10^{2}}$ -->
      <g style="fill:#262626;" transform="translate(20.076548 210.242636)scale(0.132 -0.132)">
       <use transform="scale(0.996264)" xlink:href="#CMR17-33"/>
       <use transform="translate(45.690477 0)scale(0.996264)" xlink:href="#CMMI12-3a"/>
       <use transform="translate(72.787654 0)scale(0.996264)" xlink:href="#CMR17-32"/>
       <use transform="translate(140.617338 0)scale(0.996264)" xlink:href="#CMSY10-2"/>
       <use transform="translate(240.244013 0)scale(0.996264)" xlink:href="#CMR17-31"/>
       <use transform="translate(285.93449 0)scale(0.996264)" xlink:href="#CMR17-30"/>
       <use transform="translate(331.624967 36.153639)scale(0.697382)" xlink:href="#CMR17-32"/>
      </g>
     </g>
    </g>
    <g id="ytick_4">
     <g id="line2d_12">
      <g>
       <use style="fill:#262626;stroke:#262626;" x="77.609974" xlink:href="#mb014204fa6" y="171.793925"/>
      </g>
     </g>
     <g id="text_13">
      <!-- $\mathdefault{3.225\times10^{2}}$ -->
      <g style="fill:#262626;" transform="translate(7.2 176.415662)scale(0.132 -0.132)">
       <use transform="scale(0.996264)" xlink:href="#CMR17-33"/>
       <use transform="translate(45.690477 0)scale(0.996264)" xlink:href="#CMMI12-3a"/>
       <use transform="translate(72.787654 0)scale(0.996264)" xlink:href="#CMR17-32"/>
       <use transform="translate(118.478131 0)scale(0.996264)" xlink:href="#CMR17-32"/>
       <use transform="translate(164.168608 0)scale(0.996264)" xlink:href="#CMR17-35"/>
       <use transform="translate(231.998293 0)scale(0.996264)" xlink:href="#CMSY10-2"/>
       <use transform="translate(331.624967 0)scale(0.996264)" xlink:href="#CMR17-31"/>
       <use transform="translate(377.315444 0)scale(0.996264)" xlink:href="#CMR17-30"/>
       <use transform="translate(423.005921 36.153639)scale(0.697382)" xlink:href="#CMR17-32"/>
      </g>
     </g>
    </g>
    <g id="ytick_5">
     <g id="line2d_13">
      <g>
       <use style="fill:#262626;stroke:#262626;" x="77.609974" xlink:href="#mb014204fa6" y="138.228165"/>
      </g>
     </g>
     <g id="text_14">
      <!-- $\mathdefault{3.25\times10^{2}}$ -->
      <g style="fill:#262626;" transform="translate(13.638274 142.849902)scale(0.132 -0.132)">
       <use transform="scale(0.996264)" xlink:href="#CMR17-33"/>
       <use transform="translate(45.690477 0)scale(0.996264)" xlink:href="#CMMI12-3a"/>
       <use transform="translate(72.787654 0)scale(0.996264)" xlink:href="#CMR17-32"/>
       <use transform="translate(118.478131 0)scale(0.996264)" xlink:href="#CMR17-35"/>
       <use transform="translate(186.307815 0)scale(0.996264)" xlink:href="#CMSY10-2"/>
       <use transform="translate(285.93449 0)scale(0.996264)" xlink:href="#CMR17-31"/>
       <use transform="translate(331.624967 0)scale(0.996264)" xlink:href="#CMR17-30"/>
       <use transform="translate(377.315444 36.153639)scale(0.697382)" xlink:href="#CMR17-32"/>
      </g>
     </g>
    </g>
    <g id="ytick_6">
     <g id="line2d_14">
      <g>
       <use style="fill:#262626;stroke:#262626;" x="77.609974" xlink:href="#mb014204fa6" y="104.919616"/>
      </g>
     </g>
     <g id="text_15">
      <!-- $\mathdefault{3.275\times10^{2}}$ -->
      <g style="fill:#262626;" transform="translate(7.2 109.541353)scale(0.132 -0.132)">
       <use transform="scale(0.996264)" xlink:href="#CMR17-33"/>
       <use transform="translate(45.690477 0)scale(0.996264)" xlink:href="#CMMI12-3a"/>
       <use transform="translate(72.787654 0)scale(0.996264)" xlink:href="#CMR17-32"/>
       <use transform="translate(118.478131 0)scale(0.996264)" xlink:href="#CMR17-37"/>
       <use transform="translate(164.168608 0)scale(0.996264)" xlink:href="#CMR17-35"/>
       <use transform="translate(231.998293 0)scale(0.996264)" xlink:href="#CMSY10-2"/>
       <use transform="translate(331.624967 0)scale(0.996264)" xlink:href="#CMR17-31"/>
       <use transform="translate(377.315444 0)scale(0.996264)" xlink:href="#CMR17-30"/>
       <use transform="translate(423.005921 36.153639)scale(0.697382)" xlink:href="#CMR17-32"/>
      </g>
     </g>
    </g>
    <g id="ytick_7">
     <g id="line2d_15">
      <g>
       <use style="fill:#262626;stroke:#262626;" x="77.609974" xlink:href="#mb014204fa6" y="71.864367"/>
      </g>
     </g>
     <g id="text_16">
      <!-- $\mathdefault{3.3\times10^{2}}$ -->
      <g style="fill:#262626;" transform="translate(20.076548 76.486104)scale(0.132 -0.132)">
       <use transform="scale(0.996264)" xlink:href="#CMR17-33"/>
       <use transform="translate(45.690477 0)scale(0.996264)" xlink:href="#CMMI12-3a"/>
       <use transform="translate(72.787654 0)scale(0.996264)" xlink:href="#CMR17-33"/>
       <use transform="translate(140.617338 0)scale(0.996264)" xlink:href="#CMSY10-2"/>
       <use transform="translate(240.244013 0)scale(0.996264)" xlink:href="#CMR17-31"/>
       <use transform="translate(285.93449 0)scale(0.996264)" xlink:href="#CMR17-30"/>
       <use transform="translate(331.624967 36.153639)scale(0.697382)" xlink:href="#CMR17-32"/>
      </g>
     </g>
    </g>
    <g id="ytick_8">
     <g id="line2d_16">
      <g>
       <use style="fill:#262626;stroke:#262626;" x="77.609974" xlink:href="#mb014204fa6" y="39.058594"/>
      </g>
     </g>
     <g id="text_17">
      <!-- $\mathdefault{3.325\times10^{2}}$ -->
      <g style="fill:#262626;" transform="translate(7.2 43.680331)scale(0.132 -0.132)">
       <use transform="scale(0.996264)" xlink:href="#CMR17-33"/>
       <use transform="translate(45.690477 0)scale(0.996264)" xlink:href="#CMMI12-3a"/>
       <use transform="translate(72.787654 0)scale(0.996264)" xlink:href="#CMR17-33"/>
       <use transform="translate(118.478131 0)scale(0.996264)" xlink:href="#CMR17-32"/>
       <use transform="translate(164.168608 0)scale(0.996264)" xlink:href="#CMR17-35"/>
       <use transform="translate(231.998293 0)scale(0.996264)" xlink:href="#CMSY10-2"/>
       <use transform="translate(331.624967 0)scale(0.996264)" xlink:href="#CMR17-31"/>
       <use transform="translate(377.315444 0)scale(0.996264)" xlink:href="#CMR17-30"/>
       <use transform="translate(423.005921 36.153639)scale(0.697382)" xlink:href="#CMR17-32"/>
      </g>
     </g>
    </g>
   </g>
   <g id="line2d_17">
    <path clip-path="url(#p311a53644f)" d="M 95.36452 147.680399 
L 112.273611 204.179528 
L 129.182701 211.674674 
L 146.091792 264.39523 
L 163.000883 252.091183 
L 179.909974 263.373392 
L 196.819065 240.569859 
L 213.728156 267.49236 
L 230.637247 261.63921 
L 247.546338 263.628865 
L 264.455429 258.117615 
L 281.36452 265.182789 
L 298.273611 262.359817 
L 315.182701 262.160281 
L 332.091792 261.708409 
L 349.000883 262.089993 
L 365.909974 261.594288 
L 382.819065 261.614881 
L 399.728156 261.854988 
L 416.637247 261.869487 
L 433.546338 261.848932 
L 450.455429 261.846528 
" style="fill:none;stroke:#800000;stroke-linecap:round;stroke-width:1.5;"/>
    <defs>
     <path d="M 0 3 
C 0.795609 3 1.55874 2.683901 2.12132 2.12132 
C 2.683901 1.55874 3 0.795609 3 0 
C 3 -0.795609 2.683901 -1.55874 2.12132 -2.12132 
C 1.55874 -2.683901 0.795609 -3 0 -3 
C -0.795609 -3 -1.55874 -2.683901 -2.12132 -2.12132 
C -2.683901 -1.55874 -3 -0.795609 -3 0 
C -3 0.795609 -2.683901 1.55874 -2.12132 2.12132 
C -1.55874 2.683901 -0.795609 3 0 3 
z
" id="m5b4e80bf13" style="stroke:#800000;"/>
    </defs>
    <g clip-path="url(#p311a53644f)">
     <use style="fill:#800000;stroke:#800000;" x="95.36452" xlink:href="#m5b4e80bf13" y="147.680399"/>
     <use style="fill:#800000;stroke:#800000;" x="112.273611" xlink:href="#m5b4e80bf13" y="204.179528"/>
     <use style="fill:#800000;stroke:#800000;" x="129.182701" xlink:href="#m5b4e80bf13" y="211.674674"/>
     <use style="fill:#800000;stroke:#800000;" x="146.091792" xlink:href="#m5b4e80bf13" y="264.39523"/>
     <use style="fill:#800000;stroke:#800000;" x="163.000883" xlink:href="#m5b4e80bf13" y="252.091183"/>
     <use style="fill:#800000;stroke:#800000;" x="179.909974" xlink:href="#m5b4e80bf13" y="263.373392"/>
     <use style="fill:#800000;stroke:#800000;" x="196.819065" xlink:href="#m5b4e80bf13" y="240.569859"/>
     <use style="fill:#800000;stroke:#800000;" x="213.728156" xlink:href="#m5b4e80bf13" y="267.49236"/>
     <use style="fill:#800000;stroke:#800000;" x="230.637247" xlink:href="#m5b4e80bf13" y="261.63921"/>
     <use style="fill:#800000;stroke:#800000;" x="247.546338" xlink:href="#m5b4e80bf13" y="263.628865"/>
     <use style="fill:#800000;stroke:#800000;" x="264.455429" xlink:href="#m5b4e80bf13" y="258.117615"/>
     <use style="fill:#800000;stroke:#800000;" x="281.36452" xlink:href="#m5b4e80bf13" y="265.182789"/>
     <use style="fill:#800000;stroke:#800000;" x="298.273611" xlink:href="#m5b4e80bf13" y="262.359817"/>
     <use style="fill:#800000;stroke:#800000;" x="315.182701" xlink:href="#m5b4e80bf13" y="262.160281"/>
     <use style="fill:#800000;stroke:#800000;" x="332.091792" xlink:href="#m5b4e80bf13" y="261.708409"/>
     <use style="fill:#800000;stroke:#800000;" x="349.000883" xlink:href="#m5b4e80bf13" y="262.089993"/>
     <use style="fill:#800000;stroke:#800000;" x="365.909974" xlink:href="#m5b4e80bf13" y="261.594288"/>
     <use style="fill:#800000;stroke:#800000;" x="382.819065" xlink:href="#m5b4e80bf13" y="261.614881"/>
     <use style="fill:#800000;stroke:#800000;" x="399.728156" xlink:href="#m5b4e80bf13" y="261.854988"/>
     <use style="fill:#800000;stroke:#800000;" x="416.637247" xlink:href="#m5b4e80bf13" y="261.869487"/>
     <use style="fill:#800000;stroke:#800000;" x="433.546338" xlink:href="#m5b4e80bf13" y="261.848932"/>
     <use style="fill:#800000;stroke:#800000;" x="450.455429" xlink:href="#m5b4e80bf13" y="261.846528"/>
    </g>
   </g>
   <g id="line2d_18">
    <path clip-path="url(#p311a53644f)" d="M 95.36452 126.378413 
L 112.273611 115.764752 
L 129.182701 260.25678 
L 146.091792 282.608079 
L 163.000883 213.102615 
L 179.909974 274.098124 
L 196.819065 247.579135 
L 213.728156 266.991021 
L 230.637247 266.518824 
L 247.546338 259.153335 
L 264.455429 265.887503 
L 281.36452 262.485571 
L 298.273611 262.211758 
L 315.182701 262.870534 
L 332.091792 262.27515 
L 349.000883 261.939387 
L 365.909974 261.781256 
L 382.819065 262.065734 
L 399.728156 261.686424 
L 416.637247 261.889164 
L 433.546338 261.668599 
L 450.455429 261.855031 
" style="fill:none;stroke:#800000;stroke-linecap:round;stroke-width:1.5;"/>
    <defs>
     <path d="M -3 3 
L 3 3 
L 3 -3 
L -3 -3 
z
" id="m9c45244fd4" style="stroke:#800000;stroke-linejoin:miter;"/>
    </defs>
    <g clip-path="url(#p311a53644f)">
     <use style="fill:#800000;stroke:#800000;stroke-linejoin:miter;" x="95.36452" xlink:href="#m9c45244fd4" y="126.378413"/>
     <use style="fill:#800000;stroke:#800000;stroke-linejoin:miter;" x="112.273611" xlink:href="#m9c45244fd4" y="115.764752"/>
     <use style="fill:#800000;stroke:#800000;stroke-linejoin:miter;" x="129.182701" xlink:href="#m9c45244fd4" y="260.25678"/>
     <use style="fill:#800000;stroke:#800000;stroke-linejoin:miter;" x="146.091792" xlink:href="#m9c45244fd4" y="282.608079"/>
     <use style="fill:#800000;stroke:#800000;stroke-linejoin:miter;" x="163.000883" xlink:href="#m9c45244fd4" y="213.102615"/>
     <use style="fill:#800000;stroke:#800000;stroke-linejoin:miter;" x="179.909974" xlink:href="#m9c45244fd4" y="274.098124"/>
     <use style="fill:#800000;stroke:#800000;stroke-linejoin:miter;" x="196.819065" xlink:href="#m9c45244fd4" y="247.579135"/>
     <use style="fill:#800000;stroke:#800000;stroke-linejoin:miter;" x="213.728156" xlink:href="#m9c45244fd4" y="266.991021"/>
     <use style="fill:#800000;stroke:#800000;stroke-linejoin:miter;" x="230.637247" xlink:href="#m9c45244fd4" y="266.518824"/>
     <use style="fill:#800000;stroke:#800000;stroke-linejoin:miter;" x="247.546338" xlink:href="#m9c45244fd4" y="259.153335"/>
     <use style="fill:#800000;stroke:#800000;stroke-linejoin:miter;" x="264.455429" xlink:href="#m9c45244fd4" y="265.887503"/>
     <use style="fill:#800000;stroke:#800000;stroke-linejoin:miter;" x="281.36452" xlink:href="#m9c45244fd4" y="262.485571"/>
     <use style="fill:#800000;stroke:#800000;stroke-linejoin:miter;" x="298.273611" xlink:href="#m9c45244fd4" y="262.211758"/>
     <use style="fill:#800000;stroke:#800000;stroke-linejoin:miter;" x="315.182701" xlink:href="#m9c45244fd4" y="262.870534"/>
     <use style="fill:#800000;stroke:#800000;stroke-linejoin:miter;" x="332.091792" xlink:href="#m9c45244fd4" y="262.27515"/>
     <use style="fill:#800000;stroke:#800000;stroke-linejoin:miter;" x="349.000883" xlink:href="#m9c45244fd4" y="261.939387"/>
     <use style="fill:#800000;stroke:#800000;stroke-linejoin:miter;" x="365.909974" xlink:href="#m9c45244fd4" y="261.781256"/>
     <use style="fill:#800000;stroke:#800000;stroke-linejoin:miter;" x="382.819065" xlink:href="#m9c45244fd4" y="262.065734"/>
     <use style="fill:#800000;stroke:#800000;stroke-linejoin:miter;" x="399.728156" xlink:href="#m9c45244fd4" y="261.686424"/>
     <use style="fill:#800000;stroke:#800000;stroke-linejoin:miter;" x="416.637247" xlink:href="#m9c45244fd4" y="261.889164"/>
     <use style="fill:#800000;stroke:#800000;stroke-linejoin:miter;" x="433.546338" xlink:href="#m9c45244fd4" y="261.668599"/>
     <use style="fill:#800000;stroke:#800000;stroke-linejoin:miter;" x="450.455429" xlink:href="#m9c45244fd4" y="261.855031"/>
    </g>
   </g>
   <g id="line2d_19">
    <path clip-path="url(#p311a53644f)" d="M 95.36452 141.747165 
L 112.273611 202.008083 
L 129.182701 231.974878 
L 146.091792 246.91793 
L 163.000883 254.379439 
L 179.909974 258.107699 
L 196.819065 259.971206 
L 213.728156 260.902804 
L 230.637247 261.368564 
" style="fill:none;stroke:#daa520;stroke-linecap:round;stroke-width:1.5;"/>
    <defs>
     <path d="M -3 3 
L 3 3 
L 3 -3 
L -3 -3 
z
" id="m26eb38f17e" style="stroke:#daa520;stroke-linejoin:miter;"/>
    </defs>
    <g clip-path="url(#p311a53644f)">
     <use style="fill:#daa520;stroke:#daa520;stroke-linejoin:miter;" x="95.36452" xlink:href="#m26eb38f17e" y="141.747165"/>
     <use style="fill:#daa520;stroke:#daa520;stroke-linejoin:miter;" x="112.273611" xlink:href="#m26eb38f17e" y="202.008083"/>
     <use style="fill:#daa520;stroke:#daa520;stroke-linejoin:miter;" x="129.182701" xlink:href="#m26eb38f17e" y="231.974878"/>
     <use style="fill:#daa520;stroke:#daa520;stroke-linejoin:miter;" x="146.091792" xlink:href="#m26eb38f17e" y="246.91793"/>
     <use style="fill:#daa520;stroke:#daa520;stroke-linejoin:miter;" x="163.000883" xlink:href="#m26eb38f17e" y="254.379439"/>
     <use style="fill:#daa520;stroke:#daa520;stroke-linejoin:miter;" x="179.909974" xlink:href="#m26eb38f17e" y="258.107699"/>
     <use style="fill:#daa520;stroke:#daa520;stroke-linejoin:miter;" x="196.819065" xlink:href="#m26eb38f17e" y="259.971206"/>
     <use style="fill:#daa520;stroke:#daa520;stroke-linejoin:miter;" x="213.728156" xlink:href="#m26eb38f17e" y="260.902804"/>
     <use style="fill:#daa520;stroke:#daa520;stroke-linejoin:miter;" x="230.637247" xlink:href="#m26eb38f17e" y="261.368564"/>
    </g>
   </g>
   <g id="line2d_20">
    <path clip-path="url(#p311a53644f)" d="M 95.36452 35.51717 
L 112.273611 193.358849 
L 129.182701 168.030089 
L 146.091792 168.444533 
L 163.000883 228.023228 
L 179.909974 242.410214 
L 196.819065 255.699421 
L 213.728156 263.614463 
L 230.637247 264.678478 
L 247.546338 258.851053 
L 264.455429 260.991141 
L 281.36452 265.806527 
L 298.273611 262.924758 
L 315.182701 263.00078 
L 332.091792 261.188855 
L 349.000883 262.733473 
L 365.909974 261.803059 
L 382.819065 261.904142 
L 399.728156 261.735077 
L 416.637247 261.933672 
L 433.546338 261.784273 
L 450.455429 261.886086 
" style="fill:none;stroke:#800000;stroke-linecap:round;stroke-width:1.5;"/>
    <defs>
     <path d="M -0 4.242641 
L 2.545584 0 
L 0 -4.242641 
L -2.545584 -0 
z
" id="mb76d89dfdb" style="stroke:#800000;stroke-linejoin:miter;"/>
    </defs>
    <g clip-path="url(#p311a53644f)">
     <use style="fill:#800000;stroke:#800000;stroke-linejoin:miter;" x="95.36452" xlink:href="#mb76d89dfdb" y="35.51717"/>
     <use style="fill:#800000;stroke:#800000;stroke-linejoin:miter;" x="112.273611" xlink:href="#mb76d89dfdb" y="193.358849"/>
     <use style="fill:#800000;stroke:#800000;stroke-linejoin:miter;" x="129.182701" xlink:href="#mb76d89dfdb" y="168.030089"/>
     <use style="fill:#800000;stroke:#800000;stroke-linejoin:miter;" x="146.091792" xlink:href="#mb76d89dfdb" y="168.444533"/>
     <use style="fill:#800000;stroke:#800000;stroke-linejoin:miter;" x="163.000883" xlink:href="#mb76d89dfdb" y="228.023228"/>
     <use style="fill:#800000;stroke:#800000;stroke-linejoin:miter;" x="179.909974" xlink:href="#mb76d89dfdb" y="242.410214"/>
     <use style="fill:#800000;stroke:#800000;stroke-linejoin:miter;" x="196.819065" xlink:href="#mb76d89dfdb" y="255.699421"/>
     <use style="fill:#800000;stroke:#800000;stroke-linejoin:miter;" x="213.728156" xlink:href="#mb76d89dfdb" y="263.614463"/>
     <use style="fill:#800000;stroke:#800000;stroke-linejoin:miter;" x="230.637247" xlink:href="#mb76d89dfdb" y="264.678478"/>
     <use style="fill:#800000;stroke:#800000;stroke-linejoin:miter;" x="247.546338" xlink:href="#mb76d89dfdb" y="258.851053"/>
     <use style="fill:#800000;stroke:#800000;stroke-linejoin:miter;" x="264.455429" xlink:href="#mb76d89dfdb" y="260.991141"/>
     <use style="fill:#800000;stroke:#800000;stroke-linejoin:miter;" x="281.36452" xlink:href="#mb76d89dfdb" y="265.806527"/>
     <use style="fill:#800000;stroke:#800000;stroke-linejoin:miter;" x="298.273611" xlink:href="#mb76d89dfdb" y="262.924758"/>
     <use style="fill:#800000;stroke:#800000;stroke-linejoin:miter;" x="315.182701" xlink:href="#mb76d89dfdb" y="263.00078"/>
     <use style="fill:#800000;stroke:#800000;stroke-linejoin:miter;" x="332.091792" xlink:href="#mb76d89dfdb" y="261.188855"/>
     <use style="fill:#800000;stroke:#800000;stroke-linejoin:miter;" x="349.000883" xlink:href="#mb76d89dfdb" y="262.733473"/>
     <use style="fill:#800000;stroke:#800000;stroke-linejoin:miter;" x="365.909974" xlink:href="#mb76d89dfdb" y="261.803059"/>
     <use style="fill:#800000;stroke:#800000;stroke-linejoin:miter;" x="382.819065" xlink:href="#mb76d89dfdb" y="261.904142"/>
     <use style="fill:#800000;stroke:#800000;stroke-linejoin:miter;" x="399.728156" xlink:href="#mb76d89dfdb" y="261.735077"/>
     <use style="fill:#800000;stroke:#800000;stroke-linejoin:miter;" x="416.637247" xlink:href="#mb76d89dfdb" y="261.933672"/>
     <use style="fill:#800000;stroke:#800000;stroke-linejoin:miter;" x="433.546338" xlink:href="#mb76d89dfdb" y="261.784273"/>
     <use style="fill:#800000;stroke:#800000;stroke-linejoin:miter;" x="450.455429" xlink:href="#mb76d89dfdb" y="261.886086"/>
    </g>
   </g>
   <g id="patch_3">
    <path d="M 77.609974 294.962625 
L 77.609974 23.162625 
" style="fill:none;stroke:#262626;stroke-linecap:square;stroke-linejoin:miter;stroke-width:1.25;"/>
   </g>
   <g id="patch_4">
    <path d="M 468.209974 294.962625 
L 468.209974 23.162625 
" style="fill:none;stroke:#262626;stroke-linecap:square;stroke-linejoin:miter;stroke-width:1.25;"/>
   </g>
   <g id="patch_5">
    <path d="M 77.609974 294.962625 
L 468.209974 294.962625 
" style="fill:none;stroke:#262626;stroke-linecap:square;stroke-linejoin:miter;stroke-width:1.25;"/>
   </g>
   <g id="patch_6">
    <path d="M 77.609974 23.162625 
L 468.209974 23.162625 
" style="fill:none;stroke:#262626;stroke-linecap:square;stroke-linejoin:miter;stroke-width:1.25;"/>
   </g>
   <g id="text_18">
    <!-- Accuracy of Methods Compared to Analytic Solution -->
    <g style="fill:#262626;" transform="translate(108.799946 17.162625)scale(0.144 -0.144)">
     <defs>
      <path d="M 2323 4378 
C 2291 4461 2278 4480 2214 4480 
C 2150 4480 2138 4461 2106 4378 
L 749 566 
C 627 223 371 153 147 153 
L 147 -13 
C 262 0 518 0 640 0 
C 800 0 1056 0 1210 -13 
L 1210 153 
C 909 153 864 361 864 439 
C 864 497 877 530 890 569 
L 1229 1536 
L 2906 1536 
L 3290 442 
C 3322 365 3322 352 3322 327 
C 3322 153 3046 153 2925 153 
L 2925 0 
C 3110 0 3443 0 3642 0 
C 3808 0 4128 0 4282 -13 
L 4282 153 
C 3942 153 3827 153 3744 387 
L 2323 4378 
z
M 2067 3893 
L 2848 1702 
L 1286 1702 
L 2067 3893 
z
" id="CMR17-41" transform="scale(0.015625)"/>
      <path d="M 2234 2240 
C 2112 2240 1933 2240 1933 2017 
C 1933 1838 2080 1787 2163 1787 
C 2208 1787 2394 1807 2394 2024 
C 2394 2467 1958 2803 1466 2803 
C 787 2803 211 2178 211 1363 
C 211 516 813 -64 1466 -64 
C 2259 -64 2458 677 2458 748 
C 2458 774 2451 793 2406 793 
C 2362 793 2355 787 2330 703 
C 2163 180 1798 51 1523 51 
C 1114 51 621 427 621 1369 
C 621 2338 1094 2688 1472 2688 
C 1722 2688 2093 2573 2234 2240 
z
" id="CMR17-63" transform="scale(0.015625)"/>
      <path d="M 1882 2693 
L 1882 2528 
C 2259 2528 2317 2489 2317 2186 
L 2317 1032 
C 2317 500 2029 38 1555 38 
C 1030 38 986 348 986 678 
L 986 2763 
L 211 2693 
L 211 2528 
C 467 2528 640 2528 646 2274 
L 646 1058 
C 646 633 646 361 813 183 
C 896 101 1056 -64 1517 -64 
C 2061 -64 2272 377 2323 506 
L 2330 506 
L 2330 -63 
L 3091 -63 
L 3091 128 
C 2714 128 2656 166 2656 473 
L 2656 2763 
L 1882 2693 
z
" id="CMR17-75" transform="scale(0.015625)"/>
      <path d="M 2496 2197 
C 2656 2586 2944 2586 3034 2586 
L 3034 2752 
C 2912 2752 2752 2752 2630 2752 
C 2496 2752 2285 2752 2157 2758 
L 2157 2592 
C 2400 2573 2406 2394 2406 2343 
C 2406 2280 2394 2248 2362 2171 
L 1664 449 
L 902 2306 
C 870 2382 870 2426 870 2433 
C 870 2573 1018 2586 1171 2586 
L 1171 2758 
C 1018 2752 742 2752 582 2752 
C 410 2752 205 2752 64 2758 
L 64 2586 
C 410 2586 448 2554 531 2350 
L 1485 15 
C 1197 -738 1030 -1178 627 -1178 
C 557 -1178 397 -1159 282 -1044 
C 429 -1031 493 -942 493 -833 
C 493 -725 416 -629 288 -629 
C 147 -629 77 -725 77 -840 
C 77 -1095 339 -1280 627 -1280 
C 998 -1280 1229 -922 1357 -604 
L 2496 2197 
z
" id="CMR17-79" transform="scale(0.015625)"/>
      <path d="M 2758 1356 
C 2758 2176 2163 2816 1466 2816 
C 768 2816 173 2176 173 1356 
C 173 551 768 -64 1466 -64 
C 2163 -64 2758 551 2758 1356 
z
M 1466 51 
C 1165 51 909 230 762 480 
C 602 767 582 1126 582 1408 
C 582 1677 595 2010 762 2298 
C 890 2509 1139 2714 1466 2714 
C 1754 2714 1997 2554 2150 2330 
C 2349 2029 2349 1607 2349 1408 
C 2349 1158 2336 775 2163 467 
C 1984 173 1709 51 1466 51 
z
" id="CMR17-6f" transform="scale(0.015625)"/>
      <path d="M 979 2560 
L 1709 2560 
L 1709 2725 
L 966 2725 
L 966 3494 
C 966 4022 1235 4352 1510 4352 
C 1594 4352 1690 4327 1754 4282 
C 1702 4269 1568 4225 1568 4067 
C 1568 3901 1696 3850 1786 3850 
C 1875 3850 2003 3901 2003 4067 
C 2003 4308 1773 4454 1517 4454 
C 1152 4454 653 4156 653 3481 
L 653 2725 
L 141 2725 
L 141 2560 
L 653 2560 
L 653 427 
C 653 184 627 153 218 153 
L 218 -13 
C 371 0 666 0 832 0 
C 1018 0 1344 0 1517 -13 
L 1517 153 
C 1056 153 979 153 979 439 
L 979 2560 
z
" id="CMR17-66" transform="scale(0.015625)"/>
      <path d="M 2656 1933 
C 2656 2259 2592 2790 1837 2790 
C 1312 2790 1056 2368 979 2157 
L 973 2157 
L 973 4396 
L 211 4326 
L 211 4160 
C 589 4160 646 4122 646 3817 
L 646 426 
C 646 184 621 153 211 153 
L 211 -13 
C 365 0 646 0 813 0 
C 979 0 1267 0 1421 -13 
L 1421 153 
C 1011 153 986 178 986 428 
L 986 1658 
C 986 2247 1344 2688 1792 2688 
C 2266 2688 2317 2266 2317 1958 
L 2317 428 
C 2317 184 2291 153 1882 153 
L 1882 -13 
C 2035 0 2317 0 2483 0 
C 2650 0 2938 0 3091 -13 
L 3091 153 
C 2682 153 2656 178 2656 428 
L 2656 1933 
z
" id="CMR17-68" transform="scale(0.015625)"/>
      <path d="M 1869 4326 
L 1869 4160 
C 2246 4160 2304 4122 2304 3820 
L 2304 2345 
C 2278 2377 2016 2790 1498 2790 
C 845 2790 211 2208 211 1364 
C 211 525 806 -64 1434 -64 
C 1978 -64 2259 337 2291 380 
L 2291 -63 
L 3066 -63 
L 3066 128 
C 2688 128 2630 166 2630 473 
L 2630 4396 
L 1869 4326 
z
M 2291 755 
C 2291 563 2176 390 2029 262 
C 1811 70 1594 38 1472 38 
C 1286 38 621 134 621 1356 
C 621 2612 1363 2688 1530 2688 
C 1824 2688 2061 2522 2208 2291 
C 2291 2157 2291 2138 2291 2023 
L 2291 755 
z
" id="CMR17-64" transform="scale(0.015625)"/>
      <path d="M 3974 4289 
C 3974 4403 3968 4410 3930 4410 
C 3904 4410 3898 4403 3853 4327 
L 3571 3792 
C 3258 4187 2874 4416 2381 4416 
C 1286 4416 294 3456 294 2148 
C 294 826 1286 -128 2387 -128 
C 3366 -128 3974 730 3974 1461 
C 3974 1524 3974 1550 3917 1550 
C 3866 1550 3866 1531 3859 1474 
C 3808 585 3168 38 2477 38 
C 1824 38 781 495 781 2147 
C 781 3805 1843 4250 2464 4250 
C 3187 4250 3712 3628 3834 2745 
C 3846 2668 3846 2655 3904 2655 
C 3974 2655 3974 2668 3974 2783 
L 3974 4289 
z
" id="CMR17-43" transform="scale(0.015625)"/>
      <path d="M 4326 1933 
C 4326 2252 4269 2790 3507 2790 
C 3072 2790 2771 2496 2656 2151 
L 2650 2151 
C 2573 2676 2195 2790 1837 2790 
C 1331 2790 1069 2400 973 2144 
L 966 2144 
L 966 2790 
L 211 2720 
L 211 2554 
C 589 2554 646 2515 646 2208 
L 646 428 
C 646 184 621 153 211 153 
L 211 -13 
C 365 0 646 0 813 0 
C 979 0 1267 0 1421 -13 
L 1421 153 
C 1011 153 986 178 986 428 
L 986 1658 
C 986 2247 1344 2688 1792 2688 
C 2266 2688 2317 2266 2317 1958 
L 2317 428 
C 2317 184 2291 153 1882 153 
L 1882 -13 
C 2035 0 2317 0 2483 0 
C 2650 0 2938 0 3091 -13 
L 3091 153 
C 2682 153 2656 178 2656 428 
L 2656 1658 
C 2656 2247 3014 2688 3462 2688 
C 3936 2688 3987 2266 3987 1958 
L 3987 428 
C 3987 184 3962 153 3552 153 
L 3552 -13 
C 3706 0 3987 0 4154 0 
C 4320 0 4608 0 4762 -13 
L 4762 153 
C 4352 153 4326 178 4326 428 
L 4326 1933 
z
" id="CMR17-6d" transform="scale(0.015625)"/>
      <path d="M 1408 -1063 
C 998 -1063 973 -1037 973 -789 
L 973 402 
C 1158 134 1427 -38 1766 -38 
C 2406 -38 3053 523 3053 1388 
C 3053 2191 2496 2802 1837 2802 
C 1453 2802 1139 2592 960 2338 
L 960 2802 
L 198 2732 
L 198 2567 
C 576 2567 634 2528 634 2223 
L 634 -789 
C 634 -1031 608 -1063 198 -1063 
L 198 -1228 
C 352 -1216 634 -1216 800 -1216 
C 966 -1216 1254 -1216 1408 -1228 
L 1408 -1063 
z
M 973 2012 
C 973 2102 973 2235 1222 2471 
C 1254 2497 1472 2688 1792 2688 
C 2259 2688 2643 2108 2643 1382 
C 2643 656 2234 64 1728 64 
C 1498 64 1248 172 1056 472 
C 973 612 973 650 973 752 
L 973 2012 
z
" id="CMR17-70" transform="scale(0.015625)"/>
      <path d="M 2656 1933 
C 2656 2259 2592 2790 1837 2790 
C 1331 2790 1069 2400 973 2144 
L 966 2144 
L 966 2790 
L 211 2720 
L 211 2554 
C 589 2554 646 2515 646 2208 
L 646 428 
C 646 184 621 153 211 153 
L 211 -13 
C 365 0 646 0 813 0 
C 979 0 1267 0 1421 -13 
L 1421 153 
C 1011 153 986 178 986 428 
L 986 1658 
C 986 2247 1344 2688 1792 2688 
C 2266 2688 2317 2266 2317 1958 
L 2317 428 
C 2317 184 2291 153 1882 153 
L 1882 -13 
C 2035 0 2317 0 2483 0 
C 2650 0 2938 0 3091 -13 
L 3091 153 
C 2682 153 2656 178 2656 428 
L 2656 1933 
z
" id="CMR17-6e" transform="scale(0.015625)"/>
      <path d="M 979 4396 
L 218 4326 
L 218 4160 
C 595 4160 653 4122 653 3817 
L 653 426 
C 653 184 627 153 218 153 
L 218 -13 
C 371 0 653 0 813 0 
C 979 0 1261 0 1414 -13 
L 1414 153 
C 1005 153 979 178 979 426 
L 979 4396 
z
" id="CMR17-6c" transform="scale(0.015625)"/>
      <path d="M 2803 4290 
C 2803 4404 2797 4411 2758 4411 
C 2720 4411 2707 4385 2682 4328 
L 2490 3907 
C 2246 4257 1875 4416 1472 4416 
C 819 4416 294 3901 294 3253 
C 294 3056 339 2776 557 2510 
C 794 2218 1018 2167 1530 2033 
C 1722 1982 2042 1899 2106 1874 
C 2470 1722 2662 1341 2662 985 
C 2662 527 2336 38 1779 38 
C 1094 38 454 419 410 1311 
C 403 1413 397 1419 352 1419 
C 301 1419 294 1413 294 1285 
L 294 -1 
C 294 -115 301 -122 339 -122 
C 384 -122 397 -90 486 108 
C 493 127 493 140 614 381 
C 934 -39 1472 -128 1779 -128 
C 2477 -128 2970 451 2970 1124 
C 2970 1454 2848 1708 2778 1823 
C 2509 2230 2221 2306 1914 2382 
C 1869 2402 1856 2402 1498 2490 
C 1152 2579 1005 2624 845 2796 
C 666 2992 602 3196 602 3399 
C 602 3812 934 4263 1478 4263 
C 2157 4263 2579 3786 2675 2993 
C 2694 2878 2701 2872 2746 2872 
C 2803 2872 2803 2891 2803 2999 
L 2803 4290 
z
" id="CMR17-53" transform="scale(0.015625)"/>
     </defs>
     <use transform="scale(0.996264)" xlink:href="#CMR17-41"/>
     <use transform="translate(69.07243 0)scale(0.996264)" xlink:href="#CMR17-63"/>
     <use transform="translate(109.55809 0)scale(0.996264)" xlink:href="#CMR17-63"/>
     <use transform="translate(150.043751 0)scale(0.996264)" xlink:href="#CMR17-75"/>
     <use transform="translate(200.939121 0)scale(0.996264)" xlink:href="#CMR17-72"/>
     <use transform="translate(236.219888 0)scale(0.996264)" xlink:href="#CMR17-61"/>
     <use transform="translate(281.910365 0)scale(0.996264)" xlink:href="#CMR17-63"/>
     <use transform="translate(322.396026 0)scale(0.996264)" xlink:href="#CMR17-79"/>
     <use transform="translate(400.764908 0)scale(0.996264)" xlink:href="#CMR17-6f"/>
     <use transform="translate(446.455385 0)scale(0.996264)" xlink:href="#CMR17-66"/>
     <use transform="translate(504.004864 0)scale(0.996264)" xlink:href="#CMR17-4d"/>
     <use transform="translate(588.691805 0)scale(0.996264)" xlink:href="#CMR17-65"/>
     <use transform="translate(629.177465 0)scale(0.996264)" xlink:href="#CMR17-74"/>
     <use transform="translate(664.458233 0)scale(0.996264)" xlink:href="#CMR17-68"/>
     <use transform="translate(715.353603 0)scale(0.996264)" xlink:href="#CMR17-6f"/>
     <use transform="translate(763.646518 0)scale(0.996264)" xlink:href="#CMR17-64"/>
     <use transform="translate(814.541888 0)scale(0.996264)" xlink:href="#CMR17-73"/>
     <use transform="translate(880.419192 0)scale(0.996264)" xlink:href="#CMR17-43"/>
     <use transform="translate(946.929073 0)scale(0.996264)" xlink:href="#CMR17-6f"/>
     <use transform="translate(992.61955 0)scale(0.996264)" xlink:href="#CMR17-6d"/>
     <use transform="translate(1069.53914 0)scale(0.996264)" xlink:href="#CMR17-70"/>
     <use transform="translate(1120.43451 0)scale(0.996264)" xlink:href="#CMR17-61"/>
     <use transform="translate(1166.124987 0)scale(0.996264)" xlink:href="#CMR17-72"/>
     <use transform="translate(1201.405754 0)scale(0.996264)" xlink:href="#CMR17-65"/>
     <use transform="translate(1241.891415 0)scale(0.996264)" xlink:href="#CMR17-64"/>
     <use transform="translate(1322.862751 0)scale(0.996264)" xlink:href="#CMR17-74"/>
     <use transform="translate(1358.143519 0)scale(0.996264)" xlink:href="#CMR17-6f"/>
     <use transform="translate(1433.909962 0)scale(0.996264)" xlink:href="#CMR17-41"/>
     <use transform="translate(1502.982392 0)scale(0.996264)" xlink:href="#CMR17-6e"/>
     <use transform="translate(1553.877762 0)scale(0.996264)" xlink:href="#CMR17-61"/>
     <use transform="translate(1599.568239 0)scale(0.996264)" xlink:href="#CMR17-6c"/>
     <use transform="translate(1624.439297 0)scale(0.996264)" xlink:href="#CMR17-79"/>
     <use transform="translate(1672.732213 0)scale(0.996264)" xlink:href="#CMR17-74"/>
     <use transform="translate(1708.012981 0)scale(0.996264)" xlink:href="#CMR17-69"/>
     <use transform="translate(1732.88404 0)scale(0.996264)" xlink:href="#CMR17-63"/>
     <use transform="translate(1803.445666 0)scale(0.996264)" xlink:href="#CMR17-53"/>
     <use transform="translate(1854.341036 0)scale(0.996264)" xlink:href="#CMR17-6f"/>
     <use transform="translate(1900.031513 0)scale(0.996264)" xlink:href="#CMR17-6c"/>
     <use transform="translate(1924.902572 0)scale(0.996264)" xlink:href="#CMR17-75"/>
     <use transform="translate(1975.797942 0)scale(0.996264)" xlink:href="#CMR17-74"/>
     <use transform="translate(2011.078709 0)scale(0.996264)" xlink:href="#CMR17-69"/>
     <use transform="translate(2035.949768 0)scale(0.996264)" xlink:href="#CMR17-6f"/>
     <use transform="translate(2081.640245 0)scale(0.996264)" xlink:href="#CMR17-6e"/>
    </g>
   </g>
   <g id="legend_1">
    <g id="patch_7">
     <path d="M 279.575273 289.965825 
L 461.214454 289.965825 
Q 463.213174 289.965825 463.213174 287.967105 
L 463.213174 219.325206 
Q 463.213174 217.326486 461.214454 217.326486 
L 279.575273 217.326486 
Q 277.576553 217.326486 277.576553 219.325206 
L 277.576553 287.967105 
Q 277.576553 289.965825 279.575273 289.965825 
z
" style="fill:#ffffff;opacity:0.8;stroke:#cccccc;stroke-linejoin:miter;"/>
    </g>
    <g id="patch_8">
     <path d="M 281.573993 228.319446 
L 301.561193 228.319446 
L 301.561193 221.323926 
L 281.573993 221.323926 
z
" style="fill:none;"/>
    </g>
    <g id="text_19">
     <!-- Method -->
     <g style="fill:#262626;" transform="translate(281.573993 228.319446)scale(0.099936 -0.099936)">
      <use transform="scale(0.996264)" xlink:href="#CMR17-4d"/>
      <use transform="translate(84.686941 0)scale(0.996264)" xlink:href="#CMR17-65"/>
      <use transform="translate(125.172601 0)scale(0.996264)" xlink:href="#CMR17-74"/>
      <use transform="translate(160.453369 0)scale(0.996264)" xlink:href="#CMR17-68"/>
      <use transform="translate(211.348739 0)scale(0.996264)" xlink:href="#CMR17-6f"/>
      <use transform="translate(259.641654 0)scale(0.996264)" xlink:href="#CMR17-64"/>
     </g>
    </g>
    <g id="patch_9">
     <path d="M 281.573993 242.247698 
L 301.561193 242.247698 
L 301.561193 235.252178 
L 281.573993 235.252178 
z
" style="fill:none;"/>
    </g>
    <g id="text_20">
     <!-- SLQ -->
     <g style="fill:#262626;" transform="translate(281.573993 242.247698)scale(0.099936 -0.099936)">
      <defs>
       <path d="M 3469 1615 
L 3354 1615 
C 3302 983 3219 166 2125 166 
L 1530 166 
C 1274 166 1261 197 1261 414 
L 1261 3898 
C 1261 4129 1274 4192 1760 4192 
L 1901 4192 
L 1901 4352 
C 1638 4352 1331 4352 1069 4352 
C 870 4352 512 4352 326 4352 
L 326 4192 
C 768 4192 838 4192 838 3905 
L 838 452 
C 838 166 768 166 326 166 
L 326 0 
L 3315 0 
L 3469 1615 
z
" id="CMR17-4c" transform="scale(0.015625)"/>
       <path d="M 3027 83 
C 3789 408 4307 1236 4307 2193 
C 4307 3499 3366 4480 2304 4480 
C 1216 4480 294 3488 294 2199 
C 294 928 1216 -64 2304 -64 
C 2451 -64 2656 -45 2899 38 
C 3008 -747 3078 -1216 3629 -1216 
C 4307 -1216 4339 -213 4339 -33 
C 4339 32 4339 76 4294 76 
C 4262 76 4256 31 4256 18 
C 4211 -603 3866 -732 3661 -732 
C 3283 -732 3149 -394 3027 83 
z
M 1958 100 
C 1293 310 768 1017 768 2199 
C 768 3711 1606 4365 2298 4365 
C 3014 4365 3834 3686 3834 2198 
C 3834 1124 3405 527 2976 254 
C 2880 579 2726 960 2310 960 
C 2003 960 1830 692 1830 450 
C 1830 304 1888 183 1958 100 
z
M 2874 192 
C 2618 57 2413 57 2304 57 
C 2016 57 1933 315 1933 454 
C 1933 650 2067 858 2310 858 
C 2720 858 2822 493 2874 192 
z
" id="CMR17-51" transform="scale(0.015625)"/>
      </defs>
      <use transform="scale(0.996264)" xlink:href="#CMR17-53"/>
      <use transform="translate(50.89537 0)scale(0.996264)" xlink:href="#CMR17-4c"/>
      <use transform="translate(108.276778 0)scale(0.996264)" xlink:href="#CMR17-51"/>
     </g>
    </g>
    <g id="patch_10">
     <path d="M 281.573993 256.17595 
L 301.561193 256.17595 
L 301.561193 249.18043 
L 281.573993 249.18043 
z
" style="fill:none;"/>
    </g>
    <g id="patch_11">
     <path d="M 281.573993 270.104201 
L 301.561193 270.104201 
L 301.561193 263.108681 
L 281.573993 263.108681 
z
" style="fill:none;"/>
    </g>
    <g id="patch_12">
     <path d="M 281.573993 284.032453 
L 301.561193 284.032453 
L 301.561193 277.036933 
L 281.573993 277.036933 
z
" style="fill:none;"/>
    </g>
    <g id="text_21">
     <!-- Cholesky -->
     <g style="fill:#262626;" transform="translate(281.573993 284.032453)scale(0.099936 -0.099936)">
      <defs>
       <path d="M 1670 1673 
C 1664 1686 1632 1724 1632 1743 
C 1632 1756 2086 2171 2144 2222 
C 2509 2528 2739 2560 2906 2560 
L 2906 2733 
C 2867 2733 2854 2733 2848 2720 
L 2534 2720 
C 2355 2720 2080 2720 1907 2733 
L 1907 2566 
C 1997 2559 2061 2508 2061 2419 
C 2061 2291 1933 2170 1926 2170 
L 960 1289 
L 960 4396 
L 198 4326 
L 198 4160 
C 576 4160 634 4122 634 3817 
L 634 426 
C 634 184 608 153 198 153 
L 198 -13 
C 352 0 634 0 794 0 
C 954 0 1235 0 1389 -13 
L 1389 153 
C 979 153 954 178 954 428 
L 954 1130 
L 1395 1532 
L 2042 574 
C 2118 459 2182 369 2182 286 
C 2182 172 2067 153 1990 153 
L 1990 -13 
C 2144 0 2419 0 2579 0 
C 2694 0 2931 0 3040 0 
L 3040 153 
C 2739 153 2669 210 2477 491 
L 1670 1673 
z
" id="CMR17-6b" transform="scale(0.015625)"/>
      </defs>
      <use transform="scale(0.996264)" xlink:href="#CMR17-43"/>
      <use transform="translate(66.509881 0)scale(0.996264)" xlink:href="#CMR17-68"/>
      <use transform="translate(117.40525 0)scale(0.996264)" xlink:href="#CMR17-6f"/>
      <use transform="translate(163.095727 0)scale(0.996264)" xlink:href="#CMR17-6c"/>
      <use transform="translate(187.966786 0)scale(0.996264)" xlink:href="#CMR17-65"/>
      <use transform="translate(228.452446 0)scale(0.996264)" xlink:href="#CMR17-73"/>
      <use transform="translate(264.253784 0)scale(0.996264)" xlink:href="#CMR17-6b"/>
      <use transform="translate(312.5467 0)scale(0.996264)" xlink:href="#CMR17-79"/>
     </g>
    </g>
    <g id="patch_13">
     <path d="M 341.984389 228.319446 
L 361.971589 228.319446 
L 361.971589 221.323926 
L 341.984389 221.323926 
z
" style="fill:none;"/>
    </g>
    <g id="text_22">
     <!-- Data type -->
     <g style="fill:#262626;" transform="translate(341.984389 228.319446)scale(0.099936 -0.099936)">
      <defs>
       <path d="M 333 4352 
L 333 4186 
C 774 4186 845 4186 845 3900 
L 845 452 
C 845 166 774 166 333 166 
L 333 0 
L 2368 0 
C 3398 0 4224 943 4224 2141 
C 4224 3346 3411 4352 2368 4352 
L 333 4352 
z
M 1523 166 
C 1267 166 1254 197 1254 414 
L 1254 3938 
C 1254 4155 1267 4186 1523 4186 
L 2240 4186 
C 2771 4186 3750 3874 3750 2141 
C 3750 1242 3488 879 3366 707 
C 3213 510 2848 166 2240 166 
L 1523 166 
z
" id="CMR17-44" transform="scale(0.015625)"/>
      </defs>
      <use transform="scale(0.996264)" xlink:href="#CMR17-44"/>
      <use transform="translate(70.393556 0)scale(0.996264)" xlink:href="#CMR17-61"/>
      <use transform="translate(116.084033 0)scale(0.996264)" xlink:href="#CMR17-74"/>
      <use transform="translate(151.364801 0)scale(0.996264)" xlink:href="#CMR17-61"/>
      <use transform="translate(227.131244 0)scale(0.996264)" xlink:href="#CMR17-74"/>
      <use transform="translate(259.809558 0)scale(0.996264)" xlink:href="#CMR17-79"/>
      <use transform="translate(308.102474 0)scale(0.996264)" xlink:href="#CMR17-70"/>
      <use transform="translate(361.600283 0)scale(0.996264)" xlink:href="#CMR17-65"/>
     </g>
    </g>
    <g id="patch_14">
     <path d="M 341.984389 242.247698 
L 361.971589 242.247698 
L 361.971589 235.252178 
L 341.984389 235.252178 
z
" style="fill:none;"/>
    </g>
    <g id="text_23">
     <!-- 32-bit -->
     <g style="fill:#262626;" transform="translate(341.984389 242.247698)scale(0.099936 -0.099936)">
      <defs>
       <path d="M 1632 1216 
L 1632 1496 
L 26 1496 
L 26 1216 
L 1632 1216 
z
" id="CMR17-2d" transform="scale(0.015625)"/>
       <path d="M 960 4396 
L 198 4326 
L 198 4160 
C 576 4160 634 4122 634 3817 
L 634 -13 
L 749 -13 
L 934 441 
C 1120 141 1395 -64 1766 -64 
C 2406 -64 3053 500 3053 1370 
C 3053 2188 2477 2790 1830 2790 
C 1434 2790 1152 2579 960 2330 
L 960 4396 
z
M 973 2004 
C 973 2118 973 2138 1062 2272 
C 1312 2657 1670 2688 1792 2688 
C 1984 2688 2643 2585 2643 1376 
C 2643 108 1888 38 1734 38 
C 1536 38 1248 114 1043 486 
C 973 608 973 621 973 735 
L 973 2004 
z
" id="CMR17-62" transform="scale(0.015625)"/>
      </defs>
      <use transform="scale(0.996264)" xlink:href="#CMR17-33"/>
      <use transform="translate(45.690477 0)scale(0.996264)" xlink:href="#CMR17-32"/>
      <use transform="translate(91.380954 0)scale(0.996264)" xlink:href="#CMR17-2d"/>
      <use transform="translate(121.456921 0)scale(0.996264)" xlink:href="#CMR17-62"/>
      <use transform="translate(172.35229 0)scale(0.996264)" xlink:href="#CMR17-69"/>
      <use transform="translate(197.223349 0)scale(0.996264)" xlink:href="#CMR17-74"/>
     </g>
    </g>
    <g id="patch_15">
     <path d="M 341.984389 256.17595 
L 361.971589 256.17595 
L 361.971589 249.18043 
L 341.984389 249.18043 
z
" style="fill:none;"/>
    </g>
    <g id="text_24">
     <!-- 64-bit -->
     <g style="fill:#262626;" transform="translate(341.984389 256.17595)scale(0.099936 -0.099936)">
      <use transform="scale(0.996264)" xlink:href="#CMR17-36"/>
      <use transform="translate(45.690477 0)scale(0.996264)" xlink:href="#CMR17-34"/>
      <use transform="translate(91.380954 0)scale(0.996264)" xlink:href="#CMR17-2d"/>
      <use transform="translate(121.456921 0)scale(0.996264)" xlink:href="#CMR17-62"/>
      <use transform="translate(172.35229 0)scale(0.996264)" xlink:href="#CMR17-69"/>
      <use transform="translate(197.223349 0)scale(0.996264)" xlink:href="#CMR17-74"/>
     </g>
    </g>
    <g id="patch_16">
     <path d="M 341.984389 270.104201 
L 361.971589 270.104201 
L 361.971589 263.108681 
L 341.984389 263.108681 
z
" style="fill:none;"/>
    </g>
    <g id="text_25">
     <!-- 128-bit -->
     <g style="fill:#262626;" transform="translate(341.984389 270.104201)scale(0.099936 -0.099936)">
      <use transform="scale(0.996264)" xlink:href="#CMR17-31"/>
      <use transform="translate(45.690477 0)scale(0.996264)" xlink:href="#CMR17-32"/>
      <use transform="translate(91.380954 0)scale(0.996264)" xlink:href="#CMR17-38"/>
      <use transform="translate(137.071431 0)scale(0.996264)" xlink:href="#CMR17-2d"/>
      <use transform="translate(167.147398 0)scale(0.996264)" xlink:href="#CMR17-62"/>
      <use transform="translate(218.042767 0)scale(0.996264)" xlink:href="#CMR17-69"/>
      <use transform="translate(242.913826 0)scale(0.996264)" xlink:href="#CMR17-74"/>
     </g>
    </g>
    <g id="patch_17">
     <path d="M 341.984389 284.032453 
L 361.971589 284.032453 
L 361.971589 277.036933 
L 341.984389 277.036933 
z
" style="fill:none;"/>
    </g>
    <g id="text_26">
     <!-- 64-bit -->
     <g style="fill:#262626;" transform="translate(341.984389 284.032453)scale(0.099936 -0.099936)">
      <use transform="scale(0.996264)" xlink:href="#CMR17-36"/>
      <use transform="translate(45.690477 0)scale(0.996264)" xlink:href="#CMR17-34"/>
      <use transform="translate(91.380954 0)scale(0.996264)" xlink:href="#CMR17-2d"/>
      <use transform="translate(121.456921 0)scale(0.996264)" xlink:href="#CMR17-62"/>
      <use transform="translate(172.35229 0)scale(0.996264)" xlink:href="#CMR17-69"/>
      <use transform="translate(197.223349 0)scale(0.996264)" xlink:href="#CMR17-74"/>
     </g>
    </g>
    <g id="patch_18">
     <path d="M 407.027164 228.319446 
L 427.014364 228.319446 
L 427.014364 221.323926 
L 407.027164 221.323926 
z
" style="fill:none;"/>
    </g>
    <g id="text_27">
     <!-- Experiment -->
     <g style="fill:#262626;" transform="translate(407.027164 228.319446)scale(0.099936 -0.099936)">
      <defs>
       <path d="M 3885 1615 
L 3770 1615 
C 3629 676 3546 166 2419 166 
L 1530 166 
C 1274 166 1261 197 1261 414 
L 1261 2176 
L 1862 2176 
C 2464 2176 2522 1960 2522 1430 
L 2637 1430 
L 2637 3081 
L 2522 3081 
C 2522 2557 2464 2342 1862 2342 
L 1261 2342 
L 1261 3913 
C 1261 4128 1274 4160 1530 4160 
L 2406 4160 
C 3398 4160 3514 3769 3603 2929 
L 3718 2929 
L 3565 4325 
L 326 4325 
L 326 4160 
C 768 4160 838 4160 838 3874 
L 838 451 
C 838 166 768 166 326 166 
L 326 0 
L 3654 0 
L 3885 1615 
z
" id="CMR17-45" transform="scale(0.015625)"/>
      </defs>
      <use transform="scale(0.996264)" xlink:href="#CMR17-45"/>
      <use transform="translate(62.586301 0)scale(0.996264)" xlink:href="#CMR17-78"/>
      <use transform="translate(110.879216 0)scale(0.996264)" xlink:href="#CMR17-70"/>
      <use transform="translate(164.377025 0)scale(0.996264)" xlink:href="#CMR17-65"/>
      <use transform="translate(204.862685 0)scale(0.996264)" xlink:href="#CMR17-72"/>
      <use transform="translate(240.143453 0)scale(0.996264)" xlink:href="#CMR17-69"/>
      <use transform="translate(265.014512 0)scale(0.996264)" xlink:href="#CMR17-6d"/>
      <use transform="translate(341.934101 0)scale(0.996264)" xlink:href="#CMR17-65"/>
      <use transform="translate(382.419762 0)scale(0.996264)" xlink:href="#CMR17-6e"/>
      <use transform="translate(430.712678 0)scale(0.996264)" xlink:href="#CMR17-74"/>
     </g>
    </g>
    <g id="line2d_21">
     <path d="M 407.027164 238.749938 
L 427.014364 238.749938 
" style="fill:none;stroke:#800000;stroke-linecap:round;stroke-width:1.5;"/>
    </g>
    <g id="line2d_22">
     <g>
      <use style="fill:#800000;stroke:#800000;" x="417.020764" xlink:href="#m5b4e80bf13" y="238.749938"/>
     </g>
    </g>
    <g id="line2d_23">
     <path d="M 407.027164 252.67819 
L 427.014364 252.67819 
" style="fill:none;stroke:#800000;stroke-linecap:round;stroke-width:1.5;"/>
    </g>
    <g id="line2d_24">
     <g>
      <use style="fill:#800000;stroke:#800000;stroke-linejoin:miter;" x="417.020764" xlink:href="#m9c45244fd4" y="252.67819"/>
     </g>
    </g>
    <g id="line2d_25">
     <path d="M 407.027164 266.606441 
L 427.014364 266.606441 
" style="fill:none;stroke:#800000;stroke-linecap:round;stroke-width:1.5;"/>
    </g>
    <g id="line2d_26">
     <g>
      <use style="fill:#800000;stroke:#800000;stroke-linejoin:miter;" x="417.020764" xlink:href="#mb76d89dfdb" y="266.606441"/>
     </g>
    </g>
    <g id="line2d_27">
     <path d="M 407.027164 280.534693 
L 427.014364 280.534693 
" style="fill:none;stroke:#daa520;stroke-linecap:round;stroke-width:1.5;"/>
    </g>
    <g id="line2d_28">
     <g>
      <use style="fill:#daa520;stroke:#daa520;stroke-linejoin:miter;" x="417.020764" xlink:href="#m26eb38f17e" y="280.534693"/>
     </g>
    </g>
   </g>
  </g>
 </g>
 <defs>
  <clipPath id="p311a53644f">
   <rect height="271.8" width="390.6" x="77.609974" y="23.162625"/>
  </clipPath>
 </defs>
</svg>
