<?xml version="1.0" encoding="utf-8" standalone="no"?>
<!DOCTYPE svg PUBLIC "-//W3C//DTD SVG 1.1//EN"
  "http://www.w3.org/Graphics/SVG/1.1/DTD/svg11.dtd">
<svg height="340.901247pt" version="1.1" viewBox="0 0 465.90579 340.901247" width="465.90579pt" xmlns="http://www.w3.org/2000/svg" xmlns:xlink="http://www.w3.org/1999/xlink">
 <metadata>
  <rdf:RDF xmlns:cc="http://creativecommons.org/ns#" xmlns:dc="http://purl.org/dc/elements/1.1/" xmlns:rdf="http://www.w3.org/1999/02/22-rdf-syntax-ns#">
   <cc:Work>
    <dc:type rdf:resource="http://purl.org/dc/dcmitype/StillImage"/>
    <dc:date>2021-08-25T14:23:51.753829</dc:date>
    <dc:format>image/svg+xml</dc:format>
    <dc:creator>
     <cc:Agent>
      <dc:title>Matplotlib v3.4.2, https://matplotlib.org/</dc:title>
     </cc:Agent>
    </dc:creator>
   </cc:Work>
  </rdf:RDF>
 </metadata>
 <defs>
  <style type="text/css">*{stroke-linecap:butt;stroke-linejoin:round;}</style>
 </defs>
 <g id="figure_1">
  <g id="patch_1">
   <path d="M 0 340.901247 
L 465.90579 340.901247 
L 465.90579 0 
L 0 0 
z
" style="fill:none;"/>
  </g>
  <g id="axes_1">
   <g id="patch_2">
    <path d="M 60.011855 295.759639 
L 450.611855 295.759639 
L 450.611855 23.959639 
L 60.011855 23.959639 
z
" style="fill:none;"/>
   </g>
   <g id="matplotlib.axis_1">
    <g id="xtick_1">
     <g id="line2d_1">
      <defs>
       <path d="M 0 0 
L 0 6 
" id="mfad96d0393" style="stroke:#262626;stroke-width:1.25;"/>
      </defs>
      <g>
       <use style="fill:#262626;stroke:#262626;stroke-width:1.25;" x="60.011855" xlink:href="#mfad96d0393" y="295.759639"/>
      </g>
     </g>
     <g id="text_1">
      <!-- $\mathdefault{2^{7}}$ -->
      <g style="fill:#262626;" transform="translate(54.427457 314.392034)scale(0.132 -0.132)">
       <defs>
        <path d="M 2669 989 
L 2554 989 
C 2490 536 2438 459 2413 420 
C 2381 369 1920 369 1830 369 
L 602 369 
C 832 619 1280 1072 1824 1597 
C 2214 1967 2669 2402 2669 3035 
C 2669 3790 2067 4224 1395 4224 
C 691 4224 262 3604 262 3030 
C 262 2780 448 2748 525 2748 
C 589 2748 781 2787 781 3010 
C 781 3207 614 3264 525 3264 
C 486 3264 448 3258 422 3245 
C 544 3790 915 4058 1306 4058 
C 1862 4058 2227 3617 2227 3035 
C 2227 2479 1901 2000 1536 1584 
L 262 146 
L 262 0 
L 2515 0 
L 2669 989 
z
" id="CMR17-32" transform="scale(0.015625)"/>
        <path d="M 2886 3941 
L 2886 4081 
L 1382 4081 
C 634 4081 621 4165 595 4288 
L 480 4288 
L 294 3094 
L 410 3094 
C 429 3215 474 3540 550 3661 
C 589 3712 1062 3712 1171 3712 
L 2579 3712 
L 1869 2661 
C 1395 1954 1069 999 1069 165 
C 1069 89 1069 -128 1299 -128 
C 1530 -128 1530 89 1530 171 
L 1530 465 
C 1530 1508 1709 2196 2003 2636 
L 2886 3941 
z
" id="CMR17-37" transform="scale(0.015625)"/>
       </defs>
       <use transform="scale(0.996264)" xlink:href="#CMR17-32"/>
       <use transform="translate(45.690477 36.153639)scale(0.697382)" xlink:href="#CMR17-37"/>
      </g>
     </g>
    </g>
    <g id="xtick_2">
     <g id="line2d_2">
      <g>
       <use style="fill:#262626;stroke:#262626;stroke-width:1.25;" x="125.111855" xlink:href="#mfad96d0393" y="295.759639"/>
      </g>
     </g>
     <g id="text_2">
      <!-- $\mathdefault{2^{10}}$ -->
      <g style="fill:#262626;" transform="translate(117.162197 314.392034)scale(0.132 -0.132)">
       <defs>
        <path d="M 1702 4058 
C 1702 4192 1696 4192 1606 4192 
C 1357 3916 979 3827 621 3827 
C 602 3827 570 3827 563 3808 
C 557 3795 557 3782 557 3648 
C 755 3648 1088 3686 1344 3839 
L 1344 461 
C 1344 236 1331 160 781 160 
L 589 160 
L 589 0 
C 896 0 1216 0 1523 0 
C 1830 0 2150 0 2458 0 
L 2458 160 
L 2266 160 
C 1715 160 1702 230 1702 458 
L 1702 4058 
z
" id="CMR17-31" transform="scale(0.015625)"/>
        <path d="M 2688 2025 
C 2688 2416 2682 3080 2413 3591 
C 2176 4039 1798 4198 1466 4198 
C 1158 4198 768 4058 525 3597 
C 269 3118 243 2524 243 2025 
C 243 1661 250 1106 448 619 
C 723 -39 1216 -128 1466 -128 
C 1760 -128 2208 -7 2470 600 
C 2662 1042 2688 1559 2688 2025 
z
M 1466 -26 
C 1056 -26 813 325 723 812 
C 653 1188 653 1738 653 2096 
C 653 2588 653 2997 736 3387 
C 858 3929 1216 4096 1466 4096 
C 1728 4096 2067 3923 2189 3400 
C 2272 3036 2278 2607 2278 2096 
C 2278 1680 2278 1169 2202 792 
C 2067 95 1690 -26 1466 -26 
z
" id="CMR17-30" transform="scale(0.015625)"/>
       </defs>
       <use transform="scale(0.996264)" xlink:href="#CMR17-32"/>
       <use transform="translate(45.690477 36.153639)scale(0.697382)" xlink:href="#CMR17-31"/>
       <use transform="translate(77.673659 36.153639)scale(0.697382)" xlink:href="#CMR17-30"/>
      </g>
     </g>
    </g>
    <g id="xtick_3">
     <g id="line2d_3">
      <g>
       <use style="fill:#262626;stroke:#262626;stroke-width:1.25;" x="190.211855" xlink:href="#mfad96d0393" y="295.759639"/>
      </g>
     </g>
     <g id="text_3">
      <!-- $\mathdefault{2^{13}}$ -->
      <g style="fill:#262626;" transform="translate(182.262197 314.392034)scale(0.132 -0.132)">
       <defs>
        <path d="M 1414 2157 
C 1984 2157 2234 1662 2234 1090 
C 2234 320 1824 25 1453 25 
C 1114 25 563 194 390 693 
C 422 680 454 680 486 680 
C 640 680 755 782 755 948 
C 755 1133 614 1216 486 1216 
C 378 1216 211 1165 211 926 
C 211 335 787 -128 1466 -128 
C 2176 -128 2720 430 2720 1085 
C 2720 1707 2208 2157 1600 2227 
C 2086 2328 2554 2756 2554 3329 
C 2554 3820 2048 4179 1472 4179 
C 890 4179 378 3829 378 3329 
C 378 3110 544 3072 627 3072 
C 762 3072 877 3155 877 3321 
C 877 3486 762 3569 627 3569 
C 602 3569 570 3569 544 3557 
C 730 3959 1235 4032 1459 4032 
C 1683 4032 2106 3925 2106 3320 
C 2106 3143 2080 2828 1862 2550 
C 1670 2304 1453 2304 1242 2284 
C 1210 2284 1062 2269 1037 2269 
C 992 2263 966 2257 966 2208 
C 966 2163 973 2157 1101 2157 
L 1414 2157 
z
" id="CMR17-33" transform="scale(0.015625)"/>
       </defs>
       <use transform="scale(0.996264)" xlink:href="#CMR17-32"/>
       <use transform="translate(45.690477 36.153639)scale(0.697382)" xlink:href="#CMR17-31"/>
       <use transform="translate(77.673659 36.153639)scale(0.697382)" xlink:href="#CMR17-33"/>
      </g>
     </g>
    </g>
    <g id="xtick_4">
     <g id="line2d_4">
      <g>
       <use style="fill:#262626;stroke:#262626;stroke-width:1.25;" x="255.311855" xlink:href="#mfad96d0393" y="295.759639"/>
      </g>
     </g>
     <g id="text_4">
      <!-- $\mathdefault{2^{16}}$ -->
      <g style="fill:#262626;" transform="translate(247.362197 314.392034)scale(0.132 -0.132)">
       <defs>
        <path d="M 678 2176 
C 678 3690 1395 4032 1811 4032 
C 1946 4032 2272 4009 2400 3776 
C 2298 3776 2106 3776 2106 3553 
C 2106 3381 2246 3323 2336 3323 
C 2394 3323 2566 3348 2566 3560 
C 2566 3954 2246 4179 1805 4179 
C 1043 4179 243 3390 243 1984 
C 243 253 966 -128 1478 -128 
C 2099 -128 2688 427 2688 1283 
C 2688 2081 2170 2662 1517 2662 
C 1126 2662 838 2407 678 1960 
L 678 2176 
z
M 1478 25 
C 691 25 691 1200 691 1436 
C 691 1896 909 2560 1504 2560 
C 1613 2560 1926 2560 2138 2120 
C 2253 1870 2253 1609 2253 1289 
C 2253 944 2253 690 2118 434 
C 1978 171 1773 25 1478 25 
z
" id="CMR17-36" transform="scale(0.015625)"/>
       </defs>
       <use transform="scale(0.996264)" xlink:href="#CMR17-32"/>
       <use transform="translate(45.690477 36.153639)scale(0.697382)" xlink:href="#CMR17-31"/>
       <use transform="translate(77.673659 36.153639)scale(0.697382)" xlink:href="#CMR17-36"/>
      </g>
     </g>
    </g>
    <g id="xtick_5">
     <g id="line2d_5">
      <g>
       <use style="fill:#262626;stroke:#262626;stroke-width:1.25;" x="320.411855" xlink:href="#mfad96d0393" y="295.759639"/>
      </g>
     </g>
     <g id="text_5">
      <!-- $\mathdefault{2^{19}}$ -->
      <g style="fill:#262626;" transform="translate(312.462197 314.392034)scale(0.132 -0.132)">
       <defs>
        <path d="M 2253 1864 
C 2253 464 1670 31 1190 31 
C 1043 31 685 31 538 294 
C 704 268 826 357 826 518 
C 826 692 685 749 595 749 
C 538 749 365 723 365 506 
C 365 71 742 -128 1203 -128 
C 1939 -128 2688 674 2688 2073 
C 2688 3817 1971 4179 1485 4179 
C 851 4179 243 3628 243 2778 
C 243 1991 762 1408 1414 1408 
C 1952 1408 2189 1903 2253 2112 
L 2253 1864 
z
M 1427 1510 
C 1254 1510 1011 1542 813 1922 
C 678 2169 678 2461 678 2771 
C 678 3146 678 3405 858 3684 
C 947 3817 1114 4032 1485 4032 
C 2240 4032 2240 2885 2240 2632 
C 2240 2182 2035 1510 1427 1510 
z
" id="CMR17-39" transform="scale(0.015625)"/>
       </defs>
       <use transform="scale(0.996264)" xlink:href="#CMR17-32"/>
       <use transform="translate(45.690477 36.153639)scale(0.697382)" xlink:href="#CMR17-31"/>
       <use transform="translate(77.673659 36.153639)scale(0.697382)" xlink:href="#CMR17-39"/>
      </g>
     </g>
    </g>
    <g id="xtick_6">
     <g id="line2d_6">
      <g>
       <use style="fill:#262626;stroke:#262626;stroke-width:1.25;" x="385.511855" xlink:href="#mfad96d0393" y="295.759639"/>
      </g>
     </g>
     <g id="text_6">
      <!-- $\mathdefault{2^{22}}$ -->
      <g style="fill:#262626;" transform="translate(377.562197 314.392034)scale(0.132 -0.132)">
       <use transform="scale(0.996264)" xlink:href="#CMR17-32"/>
       <use transform="translate(45.690477 36.153639)scale(0.697382)" xlink:href="#CMR17-32"/>
       <use transform="translate(77.673659 36.153639)scale(0.697382)" xlink:href="#CMR17-32"/>
      </g>
     </g>
    </g>
    <g id="xtick_7">
     <g id="line2d_7">
      <g>
       <use style="fill:#262626;stroke:#262626;stroke-width:1.25;" x="450.611855" xlink:href="#mfad96d0393" y="295.759639"/>
      </g>
     </g>
     <g id="text_7">
      <!-- $\mathdefault{2^{25}}$ -->
      <g style="fill:#262626;" transform="translate(442.662197 314.392034)scale(0.132 -0.132)">
       <defs>
        <path d="M 730 3692 
C 794 3666 1056 3584 1325 3584 
C 1920 3584 2246 3911 2432 4100 
C 2432 4157 2432 4192 2394 4192 
C 2387 4192 2374 4192 2323 4163 
C 2099 4058 1837 3973 1517 3973 
C 1325 3973 1037 3999 723 4139 
C 653 4171 640 4171 634 4171 
C 602 4171 595 4164 595 4037 
L 595 2203 
C 595 2089 595 2057 659 2057 
C 691 2057 704 2070 736 2114 
C 941 2401 1222 2522 1542 2522 
C 1766 2522 2246 2382 2246 1289 
C 2246 1085 2246 715 2054 421 
C 1894 159 1645 25 1370 25 
C 947 25 518 320 403 814 
C 429 807 480 795 506 795 
C 589 795 749 840 749 1038 
C 749 1210 627 1280 506 1280 
C 358 1280 262 1190 262 1011 
C 262 454 704 -128 1382 -128 
C 2042 -128 2669 440 2669 1264 
C 2669 2030 2170 2624 1549 2624 
C 1222 2624 947 2503 730 2274 
L 730 3692 
z
" id="CMR17-35" transform="scale(0.015625)"/>
       </defs>
       <use transform="scale(0.996264)" xlink:href="#CMR17-32"/>
       <use transform="translate(45.690477 36.153639)scale(0.697382)" xlink:href="#CMR17-32"/>
       <use transform="translate(77.673659 36.153639)scale(0.697382)" xlink:href="#CMR17-35"/>
      </g>
     </g>
    </g>
    <g id="text_8">
     <!-- Matrix size -->
     <g style="fill:#262626;" transform="translate(220.937858 330.91172)scale(0.144 -0.144)">
      <defs>
       <path d="M 1338 4224 
C 1299 4320 1293 4320 1158 4320 
L 339 4320 
L 339 4160 
C 781 4160 851 4160 851 3875 
L 851 610 
C 851 451 851 153 339 153 
L 339 -13 
C 486 0 755 0 915 0 
C 1075 0 1344 0 1491 -13 
L 1491 153 
C 979 153 979 451 979 610 
L 979 4135 
L 986 4135 
L 2490 89 
C 2515 25 2528 -13 2579 -13 
C 2630 -13 2643 25 2669 89 
L 4186 4166 
L 4192 4166 
L 4192 438 
C 4192 153 4122 153 3680 153 
L 3680 -13 
C 3853 0 4198 0 4384 0 
C 4570 0 4922 0 5094 -13 
L 5094 153 
C 4653 153 4582 153 4582 438 
L 4582 3875 
C 4582 4160 4653 4160 5094 4160 
L 5094 4320 
L 4282 4320 
C 4147 4320 4141 4314 4102 4218 
L 2720 502 
L 1338 4224 
z
" id="CMR17-4d" transform="scale(0.015625)"/>
       <path d="M 2304 1653 
C 2304 2072 2304 2294 2035 2543 
C 1798 2752 1523 2816 1306 2816 
C 800 2816 435 2407 435 1971 
C 435 1728 627 1728 666 1728 
C 749 1728 896 1778 896 1954 
C 896 2112 774 2181 666 2181 
C 640 2181 608 2174 589 2168 
C 723 2592 1069 2714 1293 2714 
C 1613 2714 1965 2429 1965 1885 
L 1965 1600 
C 1587 1600 1133 1549 774 1357 
C 371 1133 256 813 256 570 
C 256 77 832 -64 1171 -64 
C 1523 -64 1850 139 1990 511 
C 2003 233 2182 -18 2464 -18 
C 2598 -18 2938 70 2938 567 
L 2938 920 
L 2822 920 
L 2822 562 
C 2822 178 2650 128 2566 128 
C 2304 128 2304 458 2304 738 
L 2304 1653 
z
M 1965 870 
C 1965 317 1568 38 1216 38 
C 896 38 646 275 646 570 
C 646 761 730 1100 1101 1305 
C 1408 1478 1760 1504 1965 1504 
L 1965 870 
z
" id="CMR17-61" transform="scale(0.015625)"/>
       <path d="M 966 2560 
L 1862 2560 
L 1862 2725 
L 966 2725 
L 966 3904 
L 851 3904 
C 838 3245 614 2668 70 2668 
L 70 2560 
L 627 2560 
L 627 771 
C 627 650 627 -64 1370 -64 
C 1747 -64 1965 306 1965 777 
L 1965 1140 
L 1850 1140 
L 1850 783 
C 1850 344 1677 51 1408 51 
C 1222 51 966 178 966 758 
L 966 2560 
z
" id="CMR17-74" transform="scale(0.015625)"/>
       <path d="M 960 1497 
C 960 2112 1222 2688 1702 2688 
C 1747 2688 1792 2682 1837 2662 
C 1837 2662 1696 2617 1696 2452 
C 1696 2298 1818 2234 1914 2234 
C 1990 2234 2131 2279 2131 2458 
C 2131 2663 1926 2790 1709 2790 
C 1222 2790 1011 2317 947 2093 
L 941 2093 
L 941 2790 
L 198 2720 
L 198 2554 
C 576 2554 634 2515 634 2208 
L 634 428 
C 634 184 608 153 198 153 
L 198 -13 
C 352 0 646 0 813 0 
C 998 0 1325 0 1498 -13 
L 1498 153 
C 1037 153 960 153 960 440 
L 960 1497 
z
" id="CMR17-72" transform="scale(0.015625)"/>
       <path d="M 992 3909 
C 992 4049 877 4170 730 4170 
C 589 4170 467 4056 467 3909 
C 467 3769 582 3648 730 3648 
C 870 3648 992 3763 992 3909 
z
M 243 2706 
L 243 2541 
C 602 2541 653 2502 653 2197 
L 653 427 
C 653 184 627 153 218 153 
L 218 -13 
C 371 0 646 0 806 0 
C 960 0 1222 0 1370 -13 
L 1370 153 
C 992 153 979 191 979 420 
L 979 2776 
L 243 2706 
z
" id="CMR17-69" transform="scale(0.015625)"/>
       <path d="M 1664 1477 
C 1856 1726 2074 2006 2253 2216 
C 2464 2458 2707 2560 2989 2560 
L 2989 2726 
C 2880 2726 2656 2726 2541 2726 
C 2368 2726 2170 2726 2022 2732 
L 2022 2566 
C 2112 2553 2163 2489 2163 2400 
C 2163 2285 2099 2215 2067 2171 
L 1594 1573 
L 1030 2306 
C 973 2376 973 2388 973 2420 
C 973 2497 1037 2560 1146 2560 
L 1146 2732 
C 992 2726 717 2726 557 2726 
C 384 2726 179 2726 38 2732 
L 38 2560 
C 384 2560 461 2534 614 2343 
L 1350 1395 
C 1363 1382 1395 1344 1395 1325 
C 1395 1299 838 619 768 530 
C 480 185 179 160 6 160 
L 6 0 
C 115 0 339 0 454 0 
C 582 0 864 0 979 -6 
L 979 160 
C 941 166 838 179 838 325 
C 838 440 890 510 947 586 
L 1478 1236 
L 2035 512 
C 2086 442 2163 346 2163 301 
C 2163 211 2086 160 1984 160 
L 1984 -6 
C 2138 0 2413 0 2573 0 
C 2746 0 2950 0 3091 -6 
L 3091 160 
C 2771 160 2675 172 2522 370 
L 1664 1477 
z
" id="CMR17-78" transform="scale(0.015625)"/>
       <path d="M 1978 2697 
C 1978 2813 1971 2819 1933 2819 
C 1907 2819 1901 2813 1824 2717 
C 1805 2691 1747 2626 1728 2601 
C 1523 2819 1235 2819 1126 2819 
C 416 2819 160 2447 160 2076 
C 160 1498 813 1365 998 1325 
C 1402 1243 1542 1217 1677 1101 
C 1760 1025 1901 884 1901 654 
C 1901 384 1747 38 1158 38 
C 602 38 403 460 288 1021 
C 269 1110 269 1117 218 1117 
C 166 1117 160 1110 160 983 
L 160 63 
C 160 -51 166 -58 205 -58 
C 237 -58 243 -51 275 0 
C 314 57 410 211 448 276 
C 576 103 800 -64 1158 -64 
C 1792 -64 2131 283 2131 784 
C 2131 1112 1958 1285 1875 1362 
C 1683 1561 1459 1606 1190 1657 
C 838 1735 390 1825 390 2217 
C 390 2383 480 2737 1126 2737 
C 1811 2737 1850 2094 1862 1888 
C 1869 1856 1901 1849 1920 1849 
C 1978 1849 1978 1869 1978 1978 
L 1978 2697 
z
" id="CMR17-73" transform="scale(0.015625)"/>
       <path d="M 2310 2605 
C 2362 2670 2362 2682 2362 2695 
C 2362 2752 2336 2752 2221 2752 
L 275 2752 
L 211 1760 
L 326 1760 
C 371 2381 442 2650 1178 2650 
L 1958 2650 
L 128 96 
C 128 0 134 0 269 0 
L 2291 0 
L 2381 1152 
L 2266 1152 
C 2214 442 2131 115 1350 115 
L 531 115 
L 2310 2605 
z
" id="CMR17-7a" transform="scale(0.015625)"/>
       <path d="M 2438 1472 
C 2464 1498 2464 1511 2464 1576 
C 2464 2238 2118 2816 1389 2816 
C 710 2816 173 2169 173 1383 
C 173 551 781 -64 1459 -64 
C 2176 -64 2458 607 2458 740 
C 2458 784 2419 784 2406 784 
C 2362 784 2355 771 2330 696 
C 2189 265 1837 51 1504 51 
C 1229 51 954 203 781 480 
C 582 803 582 1176 582 1472 
L 2438 1472 
z
M 589 1568 
C 634 2505 1126 2714 1382 2714 
C 1818 2714 2112 2297 2118 1568 
L 589 1568 
z
" id="CMR17-65" transform="scale(0.015625)"/>
      </defs>
      <use transform="scale(0.996264)" xlink:href="#CMR17-4d"/>
      <use transform="translate(84.686941 0)scale(0.996264)" xlink:href="#CMR17-61"/>
      <use transform="translate(130.377418 0)scale(0.996264)" xlink:href="#CMR17-74"/>
      <use transform="translate(165.658185 0)scale(0.996264)" xlink:href="#CMR17-72"/>
      <use transform="translate(200.938953 0)scale(0.996264)" xlink:href="#CMR17-69"/>
      <use transform="translate(225.810012 0)scale(0.996264)" xlink:href="#CMR17-78"/>
      <use transform="translate(304.178894 0)scale(0.996264)" xlink:href="#CMR17-73"/>
      <use transform="translate(339.980232 0)scale(0.996264)" xlink:href="#CMR17-69"/>
      <use transform="translate(364.85129 0)scale(0.996264)" xlink:href="#CMR17-7a"/>
      <use transform="translate(405.336951 0)scale(0.996264)" xlink:href="#CMR17-65"/>
     </g>
    </g>
   </g>
   <g id="matplotlib.axis_2">
    <g id="ytick_1">
     <g id="line2d_8">
      <path clip-path="url(#p145dd52115)" d="M 60.011855 280.573513 
L 450.611855 280.573513 
" style="fill:none;stroke:#cccccc;stroke-linecap:round;"/>
     </g>
     <g id="line2d_9">
      <defs>
       <path d="M 0 0 
L -6 0 
" id="mbb52afa91a" style="stroke:#262626;stroke-width:1.25;"/>
      </defs>
      <g>
       <use style="fill:#262626;stroke:#262626;stroke-width:1.25;" x="60.011855" xlink:href="#mbb52afa91a" y="280.573513"/>
      </g>
     </g>
     <g id="text_9">
      <!-- $\mathdefault{10^{-2}}$ -->
      <g style="fill:#262626;" transform="translate(25.54618 285.13971)scale(0.132 -0.132)">
       <defs>
        <path d="M 4218 1472 
C 4326 1472 4442 1472 4442 1600 
C 4442 1728 4326 1728 4218 1728 
L 755 1728 
C 646 1728 531 1728 531 1600 
C 531 1472 646 1472 755 1472 
L 4218 1472 
z
" id="CMSY10-0" transform="scale(0.015625)"/>
       </defs>
       <use transform="scale(0.996264)" xlink:href="#CMR17-31"/>
       <use transform="translate(45.690477 0)scale(0.996264)" xlink:href="#CMR17-30"/>
       <use transform="translate(91.380954 36.153639)scale(0.697382)" xlink:href="#CMSY10-0"/>
       <use transform="translate(145.621947 36.153639)scale(0.697382)" xlink:href="#CMR17-32"/>
      </g>
     </g>
    </g>
    <g id="ytick_2">
     <g id="line2d_10">
      <path clip-path="url(#p145dd52115)" d="M 60.011855 241.802128 
L 450.611855 241.802128 
" style="fill:none;stroke:#cccccc;stroke-linecap:round;"/>
     </g>
     <g id="line2d_11">
      <g>
       <use style="fill:#262626;stroke:#262626;stroke-width:1.25;" x="60.011855" xlink:href="#mbb52afa91a" y="241.802128"/>
      </g>
     </g>
     <g id="text_10">
      <!-- $\mathdefault{10^{-1}}$ -->
      <g style="fill:#262626;" transform="translate(25.54618 246.368326)scale(0.132 -0.132)">
       <use transform="scale(0.996264)" xlink:href="#CMR17-31"/>
       <use transform="translate(45.690477 0)scale(0.996264)" xlink:href="#CMR17-30"/>
       <use transform="translate(91.380954 36.153639)scale(0.697382)" xlink:href="#CMSY10-0"/>
       <use transform="translate(145.621947 36.153639)scale(0.697382)" xlink:href="#CMR17-31"/>
      </g>
     </g>
    </g>
    <g id="ytick_3">
     <g id="line2d_12">
      <path clip-path="url(#p145dd52115)" d="M 60.011855 203.030744 
L 450.611855 203.030744 
" style="fill:none;stroke:#cccccc;stroke-linecap:round;"/>
     </g>
     <g id="line2d_13">
      <g>
       <use style="fill:#262626;stroke:#262626;stroke-width:1.25;" x="60.011855" xlink:href="#mbb52afa91a" y="203.030744"/>
      </g>
     </g>
     <g id="text_11">
      <!-- $\mathdefault{10^{0}}$ -->
      <g style="fill:#262626;" transform="translate(32.904786 207.596941)scale(0.132 -0.132)">
       <use transform="scale(0.996264)" xlink:href="#CMR17-31"/>
       <use transform="translate(45.690477 0)scale(0.996264)" xlink:href="#CMR17-30"/>
       <use transform="translate(91.380954 36.153639)scale(0.697382)" xlink:href="#CMR17-30"/>
      </g>
     </g>
    </g>
    <g id="ytick_4">
     <g id="line2d_14">
      <path clip-path="url(#p145dd52115)" d="M 60.011855 164.25936 
L 450.611855 164.25936 
" style="fill:none;stroke:#cccccc;stroke-linecap:round;"/>
     </g>
     <g id="line2d_15">
      <g>
       <use style="fill:#262626;stroke:#262626;stroke-width:1.25;" x="60.011855" xlink:href="#mbb52afa91a" y="164.25936"/>
      </g>
     </g>
     <g id="text_12">
      <!-- $\mathdefault{10^{1}}$ -->
      <g style="fill:#262626;" transform="translate(32.904786 168.825557)scale(0.132 -0.132)">
       <use transform="scale(0.996264)" xlink:href="#CMR17-31"/>
       <use transform="translate(45.690477 0)scale(0.996264)" xlink:href="#CMR17-30"/>
       <use transform="translate(91.380954 36.153639)scale(0.697382)" xlink:href="#CMR17-31"/>
      </g>
     </g>
    </g>
    <g id="ytick_5">
     <g id="line2d_16">
      <path clip-path="url(#p145dd52115)" d="M 60.011855 125.487975 
L 450.611855 125.487975 
" style="fill:none;stroke:#cccccc;stroke-linecap:round;"/>
     </g>
     <g id="line2d_17">
      <g>
       <use style="fill:#262626;stroke:#262626;stroke-width:1.25;" x="60.011855" xlink:href="#mbb52afa91a" y="125.487975"/>
      </g>
     </g>
     <g id="text_13">
      <!-- $\mathdefault{10^{2}}$ -->
      <g style="fill:#262626;" transform="translate(32.904786 130.054173)scale(0.132 -0.132)">
       <use transform="scale(0.996264)" xlink:href="#CMR17-31"/>
       <use transform="translate(45.690477 0)scale(0.996264)" xlink:href="#CMR17-30"/>
       <use transform="translate(91.380954 36.153639)scale(0.697382)" xlink:href="#CMR17-32"/>
      </g>
     </g>
    </g>
    <g id="ytick_6">
     <g id="line2d_18">
      <path clip-path="url(#p145dd52115)" d="M 60.011855 86.716591 
L 450.611855 86.716591 
" style="fill:none;stroke:#cccccc;stroke-linecap:round;"/>
     </g>
     <g id="line2d_19">
      <g>
       <use style="fill:#262626;stroke:#262626;stroke-width:1.25;" x="60.011855" xlink:href="#mbb52afa91a" y="86.716591"/>
      </g>
     </g>
     <g id="text_14">
      <!-- $\mathdefault{10^{3}}$ -->
      <g style="fill:#262626;" transform="translate(32.904786 91.282788)scale(0.132 -0.132)">
       <use transform="scale(0.996264)" xlink:href="#CMR17-31"/>
       <use transform="translate(45.690477 0)scale(0.996264)" xlink:href="#CMR17-30"/>
       <use transform="translate(91.380954 36.153639)scale(0.697382)" xlink:href="#CMR17-33"/>
      </g>
     </g>
    </g>
    <g id="ytick_7">
     <g id="line2d_20">
      <path clip-path="url(#p145dd52115)" d="M 60.011855 47.945207 
L 450.611855 47.945207 
" style="fill:none;stroke:#cccccc;stroke-linecap:round;"/>
     </g>
     <g id="line2d_21">
      <g>
       <use style="fill:#262626;stroke:#262626;stroke-width:1.25;" x="60.011855" xlink:href="#mbb52afa91a" y="47.945207"/>
      </g>
     </g>
     <g id="text_15">
      <!-- $\mathdefault{10^{4}}$ -->
      <g style="fill:#262626;" transform="translate(32.904786 52.511404)scale(0.132 -0.132)">
       <defs>
        <path d="M 2150 4122 
C 2150 4256 2144 4256 2029 4256 
L 128 1254 
L 128 1088 
L 1779 1088 
L 1779 457 
C 1779 224 1766 160 1318 160 
L 1197 160 
L 1197 0 
C 1402 0 1747 0 1965 0 
C 2182 0 2528 0 2733 0 
L 2733 160 
L 2611 160 
C 2163 160 2150 224 2150 457 
L 2150 1088 
L 2803 1088 
L 2803 1254 
L 2150 1254 
L 2150 4122 
z
M 1798 3703 
L 1798 1254 
L 256 1254 
L 1798 3703 
z
" id="CMR17-34" transform="scale(0.015625)"/>
       </defs>
       <use transform="scale(0.996264)" xlink:href="#CMR17-31"/>
       <use transform="translate(45.690477 0)scale(0.996264)" xlink:href="#CMR17-30"/>
       <use transform="translate(91.380954 36.153639)scale(0.697382)" xlink:href="#CMR17-34"/>
      </g>
     </g>
    </g>
    <g id="ytick_8">
     <g id="line2d_22">
      <defs>
       <path d="M 0 0 
L -4 0 
" id="m70d61bcfc8" style="stroke:#262626;"/>
      </defs>
      <g>
       <use style="fill:#262626;stroke:#262626;" x="60.011855" xlink:href="#m70d61bcfc8" y="292.244862"/>
      </g>
     </g>
    </g>
    <g id="ytick_9">
     <g id="line2d_23">
      <g>
       <use style="fill:#262626;stroke:#262626;" x="60.011855" xlink:href="#m70d61bcfc8" y="289.174896"/>
      </g>
     </g>
    </g>
    <g id="ytick_10">
     <g id="line2d_24">
      <g>
       <use style="fill:#262626;stroke:#262626;" x="60.011855" xlink:href="#m70d61bcfc8" y="286.579276"/>
      </g>
     </g>
    </g>
    <g id="ytick_11">
     <g id="line2d_25">
      <g>
       <use style="fill:#262626;stroke:#262626;" x="60.011855" xlink:href="#m70d61bcfc8" y="284.330848"/>
      </g>
     </g>
    </g>
    <g id="ytick_12">
     <g id="line2d_26">
      <g>
       <use style="fill:#262626;stroke:#262626;" x="60.011855" xlink:href="#m70d61bcfc8" y="282.347594"/>
      </g>
     </g>
    </g>
    <g id="ytick_13">
     <g id="line2d_27">
      <g>
       <use style="fill:#262626;stroke:#262626;" x="60.011855" xlink:href="#m70d61bcfc8" y="268.902163"/>
      </g>
     </g>
    </g>
    <g id="ytick_14">
     <g id="line2d_28">
      <g>
       <use style="fill:#262626;stroke:#262626;" x="60.011855" xlink:href="#m70d61bcfc8" y="262.074861"/>
      </g>
     </g>
    </g>
    <g id="ytick_15">
     <g id="line2d_29">
      <g>
       <use style="fill:#262626;stroke:#262626;" x="60.011855" xlink:href="#m70d61bcfc8" y="257.230813"/>
      </g>
     </g>
    </g>
    <g id="ytick_16">
     <g id="line2d_30">
      <g>
       <use style="fill:#262626;stroke:#262626;" x="60.011855" xlink:href="#m70d61bcfc8" y="253.473478"/>
      </g>
     </g>
    </g>
    <g id="ytick_17">
     <g id="line2d_31">
      <g>
       <use style="fill:#262626;stroke:#262626;" x="60.011855" xlink:href="#m70d61bcfc8" y="250.403512"/>
      </g>
     </g>
    </g>
    <g id="ytick_18">
     <g id="line2d_32">
      <g>
       <use style="fill:#262626;stroke:#262626;" x="60.011855" xlink:href="#m70d61bcfc8" y="247.807892"/>
      </g>
     </g>
    </g>
    <g id="ytick_19">
     <g id="line2d_33">
      <g>
       <use style="fill:#262626;stroke:#262626;" x="60.011855" xlink:href="#m70d61bcfc8" y="245.559464"/>
      </g>
     </g>
    </g>
    <g id="ytick_20">
     <g id="line2d_34">
      <g>
       <use style="fill:#262626;stroke:#262626;" x="60.011855" xlink:href="#m70d61bcfc8" y="243.57621"/>
      </g>
     </g>
    </g>
    <g id="ytick_21">
     <g id="line2d_35">
      <g>
       <use style="fill:#262626;stroke:#262626;" x="60.011855" xlink:href="#m70d61bcfc8" y="230.130779"/>
      </g>
     </g>
    </g>
    <g id="ytick_22">
     <g id="line2d_36">
      <g>
       <use style="fill:#262626;stroke:#262626;" x="60.011855" xlink:href="#m70d61bcfc8" y="223.303477"/>
      </g>
     </g>
    </g>
    <g id="ytick_23">
     <g id="line2d_37">
      <g>
       <use style="fill:#262626;stroke:#262626;" x="60.011855" xlink:href="#m70d61bcfc8" y="218.459429"/>
      </g>
     </g>
    </g>
    <g id="ytick_24">
     <g id="line2d_38">
      <g>
       <use style="fill:#262626;stroke:#262626;" x="60.011855" xlink:href="#m70d61bcfc8" y="214.702094"/>
      </g>
     </g>
    </g>
    <g id="ytick_25">
     <g id="line2d_39">
      <g>
       <use style="fill:#262626;stroke:#262626;" x="60.011855" xlink:href="#m70d61bcfc8" y="211.632127"/>
      </g>
     </g>
    </g>
    <g id="ytick_26">
     <g id="line2d_40">
      <g>
       <use style="fill:#262626;stroke:#262626;" x="60.011855" xlink:href="#m70d61bcfc8" y="209.036507"/>
      </g>
     </g>
    </g>
    <g id="ytick_27">
     <g id="line2d_41">
      <g>
       <use style="fill:#262626;stroke:#262626;" x="60.011855" xlink:href="#m70d61bcfc8" y="206.788079"/>
      </g>
     </g>
    </g>
    <g id="ytick_28">
     <g id="line2d_42">
      <g>
       <use style="fill:#262626;stroke:#262626;" x="60.011855" xlink:href="#m70d61bcfc8" y="204.804825"/>
      </g>
     </g>
    </g>
    <g id="ytick_29">
     <g id="line2d_43">
      <g>
       <use style="fill:#262626;stroke:#262626;" x="60.011855" xlink:href="#m70d61bcfc8" y="191.359394"/>
      </g>
     </g>
    </g>
    <g id="ytick_30">
     <g id="line2d_44">
      <g>
       <use style="fill:#262626;stroke:#262626;" x="60.011855" xlink:href="#m70d61bcfc8" y="184.532092"/>
      </g>
     </g>
    </g>
    <g id="ytick_31">
     <g id="line2d_45">
      <g>
       <use style="fill:#262626;stroke:#262626;" x="60.011855" xlink:href="#m70d61bcfc8" y="179.688045"/>
      </g>
     </g>
    </g>
    <g id="ytick_32">
     <g id="line2d_46">
      <g>
       <use style="fill:#262626;stroke:#262626;" x="60.011855" xlink:href="#m70d61bcfc8" y="175.930709"/>
      </g>
     </g>
    </g>
    <g id="ytick_33">
     <g id="line2d_47">
      <g>
       <use style="fill:#262626;stroke:#262626;" x="60.011855" xlink:href="#m70d61bcfc8" y="172.860743"/>
      </g>
     </g>
    </g>
    <g id="ytick_34">
     <g id="line2d_48">
      <g>
       <use style="fill:#262626;stroke:#262626;" x="60.011855" xlink:href="#m70d61bcfc8" y="170.265123"/>
      </g>
     </g>
    </g>
    <g id="ytick_35">
     <g id="line2d_49">
      <g>
       <use style="fill:#262626;stroke:#262626;" x="60.011855" xlink:href="#m70d61bcfc8" y="168.016695"/>
      </g>
     </g>
    </g>
    <g id="ytick_36">
     <g id="line2d_50">
      <g>
       <use style="fill:#262626;stroke:#262626;" x="60.011855" xlink:href="#m70d61bcfc8" y="166.033441"/>
      </g>
     </g>
    </g>
    <g id="ytick_37">
     <g id="line2d_51">
      <g>
       <use style="fill:#262626;stroke:#262626;" x="60.011855" xlink:href="#m70d61bcfc8" y="152.58801"/>
      </g>
     </g>
    </g>
    <g id="ytick_38">
     <g id="line2d_52">
      <g>
       <use style="fill:#262626;stroke:#262626;" x="60.011855" xlink:href="#m70d61bcfc8" y="145.760708"/>
      </g>
     </g>
    </g>
    <g id="ytick_39">
     <g id="line2d_53">
      <g>
       <use style="fill:#262626;stroke:#262626;" x="60.011855" xlink:href="#m70d61bcfc8" y="140.91666"/>
      </g>
     </g>
    </g>
    <g id="ytick_40">
     <g id="line2d_54">
      <g>
       <use style="fill:#262626;stroke:#262626;" x="60.011855" xlink:href="#m70d61bcfc8" y="137.159325"/>
      </g>
     </g>
    </g>
    <g id="ytick_41">
     <g id="line2d_55">
      <g>
       <use style="fill:#262626;stroke:#262626;" x="60.011855" xlink:href="#m70d61bcfc8" y="134.089358"/>
      </g>
     </g>
    </g>
    <g id="ytick_42">
     <g id="line2d_56">
      <g>
       <use style="fill:#262626;stroke:#262626;" x="60.011855" xlink:href="#m70d61bcfc8" y="131.493739"/>
      </g>
     </g>
    </g>
    <g id="ytick_43">
     <g id="line2d_57">
      <g>
       <use style="fill:#262626;stroke:#262626;" x="60.011855" xlink:href="#m70d61bcfc8" y="129.245311"/>
      </g>
     </g>
    </g>
    <g id="ytick_44">
     <g id="line2d_58">
      <g>
       <use style="fill:#262626;stroke:#262626;" x="60.011855" xlink:href="#m70d61bcfc8" y="127.262057"/>
      </g>
     </g>
    </g>
    <g id="ytick_45">
     <g id="line2d_59">
      <g>
       <use style="fill:#262626;stroke:#262626;" x="60.011855" xlink:href="#m70d61bcfc8" y="113.816626"/>
      </g>
     </g>
    </g>
    <g id="ytick_46">
     <g id="line2d_60">
      <g>
       <use style="fill:#262626;stroke:#262626;" x="60.011855" xlink:href="#m70d61bcfc8" y="106.989324"/>
      </g>
     </g>
    </g>
    <g id="ytick_47">
     <g id="line2d_61">
      <g>
       <use style="fill:#262626;stroke:#262626;" x="60.011855" xlink:href="#m70d61bcfc8" y="102.145276"/>
      </g>
     </g>
    </g>
    <g id="ytick_48">
     <g id="line2d_62">
      <g>
       <use style="fill:#262626;stroke:#262626;" x="60.011855" xlink:href="#m70d61bcfc8" y="98.387941"/>
      </g>
     </g>
    </g>
    <g id="ytick_49">
     <g id="line2d_63">
      <g>
       <use style="fill:#262626;stroke:#262626;" x="60.011855" xlink:href="#m70d61bcfc8" y="95.317974"/>
      </g>
     </g>
    </g>
    <g id="ytick_50">
     <g id="line2d_64">
      <g>
       <use style="fill:#262626;stroke:#262626;" x="60.011855" xlink:href="#m70d61bcfc8" y="92.722354"/>
      </g>
     </g>
    </g>
    <g id="ytick_51">
     <g id="line2d_65">
      <g>
       <use style="fill:#262626;stroke:#262626;" x="60.011855" xlink:href="#m70d61bcfc8" y="90.473926"/>
      </g>
     </g>
    </g>
    <g id="ytick_52">
     <g id="line2d_66">
      <g>
       <use style="fill:#262626;stroke:#262626;" x="60.011855" xlink:href="#m70d61bcfc8" y="88.490672"/>
      </g>
     </g>
    </g>
    <g id="ytick_53">
     <g id="line2d_67">
      <g>
       <use style="fill:#262626;stroke:#262626;" x="60.011855" xlink:href="#m70d61bcfc8" y="75.045241"/>
      </g>
     </g>
    </g>
    <g id="ytick_54">
     <g id="line2d_68">
      <g>
       <use style="fill:#262626;stroke:#262626;" x="60.011855" xlink:href="#m70d61bcfc8" y="68.217939"/>
      </g>
     </g>
    </g>
    <g id="ytick_55">
     <g id="line2d_69">
      <g>
       <use style="fill:#262626;stroke:#262626;" x="60.011855" xlink:href="#m70d61bcfc8" y="63.373892"/>
      </g>
     </g>
    </g>
    <g id="ytick_56">
     <g id="line2d_70">
      <g>
       <use style="fill:#262626;stroke:#262626;" x="60.011855" xlink:href="#m70d61bcfc8" y="59.616556"/>
      </g>
     </g>
    </g>
    <g id="ytick_57">
     <g id="line2d_71">
      <g>
       <use style="fill:#262626;stroke:#262626;" x="60.011855" xlink:href="#m70d61bcfc8" y="56.54659"/>
      </g>
     </g>
    </g>
    <g id="ytick_58">
     <g id="line2d_72">
      <g>
       <use style="fill:#262626;stroke:#262626;" x="60.011855" xlink:href="#m70d61bcfc8" y="53.95097"/>
      </g>
     </g>
    </g>
    <g id="ytick_59">
     <g id="line2d_73">
      <g>
       <use style="fill:#262626;stroke:#262626;" x="60.011855" xlink:href="#m70d61bcfc8" y="51.702542"/>
      </g>
     </g>
    </g>
    <g id="ytick_60">
     <g id="line2d_74">
      <g>
       <use style="fill:#262626;stroke:#262626;" x="60.011855" xlink:href="#m70d61bcfc8" y="49.719288"/>
      </g>
     </g>
    </g>
    <g id="ytick_61">
     <g id="line2d_75">
      <g>
       <use style="fill:#262626;stroke:#262626;" x="60.011855" xlink:href="#m70d61bcfc8" y="36.273857"/>
      </g>
     </g>
    </g>
    <g id="ytick_62">
     <g id="line2d_76">
      <g>
       <use style="fill:#262626;stroke:#262626;" x="60.011855" xlink:href="#m70d61bcfc8" y="29.446555"/>
      </g>
     </g>
    </g>
    <g id="ytick_63">
     <g id="line2d_77">
      <g>
       <use style="fill:#262626;stroke:#262626;" x="60.011855" xlink:href="#m70d61bcfc8" y="24.602507"/>
      </g>
     </g>
    </g>
    <g id="text_16">
     <!-- Process time (sec) -->
     <g style="fill:#262626;" transform="translate(17.959639 215.676282)rotate(-90)scale(0.144 -0.144)">
      <defs>
       <path d="M 1267 2042 
L 2291 2042 
C 3117 2042 3718 2578 3718 3184 
C 3718 3791 3130 4352 2291 4352 
L 333 4352 
L 333 4186 
C 774 4186 845 4186 845 3899 
L 845 446 
C 845 160 774 160 333 160 
L 333 0 
C 518 0 858 0 1056 0 
C 1254 0 1594 0 1779 0 
L 1779 160 
C 1338 160 1267 160 1267 446 
L 1267 2042 
z
M 1254 2176 
L 1254 3938 
C 1254 4155 1267 4186 1523 4186 
L 2170 4186 
C 2995 4186 3232 3714 3232 3184 
C 3232 2604 2950 2176 2170 2176 
L 1254 2176 
z
" id="CMR17-50" transform="scale(0.015625)"/>
       <path d="M 2758 1356 
C 2758 2176 2163 2816 1466 2816 
C 768 2816 173 2176 173 1356 
C 173 551 768 -64 1466 -64 
C 2163 -64 2758 551 2758 1356 
z
M 1466 51 
C 1165 51 909 230 762 480 
C 602 767 582 1126 582 1408 
C 582 1677 595 2010 762 2298 
C 890 2509 1139 2714 1466 2714 
C 1754 2714 1997 2554 2150 2330 
C 2349 2029 2349 1607 2349 1408 
C 2349 1158 2336 775 2163 467 
C 1984 173 1709 51 1466 51 
z
" id="CMR17-6f" transform="scale(0.015625)"/>
       <path d="M 2234 2240 
C 2112 2240 1933 2240 1933 2017 
C 1933 1838 2080 1787 2163 1787 
C 2208 1787 2394 1807 2394 2024 
C 2394 2467 1958 2803 1466 2803 
C 787 2803 211 2178 211 1363 
C 211 516 813 -64 1466 -64 
C 2259 -64 2458 677 2458 748 
C 2458 774 2451 793 2406 793 
C 2362 793 2355 787 2330 703 
C 2163 180 1798 51 1523 51 
C 1114 51 621 427 621 1369 
C 621 2338 1094 2688 1472 2688 
C 1722 2688 2093 2573 2234 2240 
z
" id="CMR17-63" transform="scale(0.015625)"/>
       <path d="M 4326 1933 
C 4326 2252 4269 2790 3507 2790 
C 3072 2790 2771 2496 2656 2151 
L 2650 2151 
C 2573 2676 2195 2790 1837 2790 
C 1331 2790 1069 2400 973 2144 
L 966 2144 
L 966 2790 
L 211 2720 
L 211 2554 
C 589 2554 646 2515 646 2208 
L 646 428 
C 646 184 621 153 211 153 
L 211 -13 
C 365 0 646 0 813 0 
C 979 0 1267 0 1421 -13 
L 1421 153 
C 1011 153 986 178 986 428 
L 986 1658 
C 986 2247 1344 2688 1792 2688 
C 2266 2688 2317 2266 2317 1958 
L 2317 428 
C 2317 184 2291 153 1882 153 
L 1882 -13 
C 2035 0 2317 0 2483 0 
C 2650 0 2938 0 3091 -13 
L 3091 153 
C 2682 153 2656 178 2656 428 
L 2656 1658 
C 2656 2247 3014 2688 3462 2688 
C 3936 2688 3987 2266 3987 1958 
L 3987 428 
C 3987 184 3962 153 3552 153 
L 3552 -13 
C 3706 0 3987 0 4154 0 
C 4320 0 4608 0 4762 -13 
L 4762 153 
C 4352 153 4326 178 4326 428 
L 4326 1933 
z
" id="CMR17-6d" transform="scale(0.015625)"/>
       <path d="M 1958 -1561 
C 1958 -1555 1958 -1542 1939 -1523 
C 1645 -1224 858 -407 858 1581 
C 858 3569 1632 4379 1946 4697 
C 1946 4704 1958 4717 1958 4736 
C 1958 4755 1939 4768 1914 4768 
C 1843 4768 1299 4296 986 3594 
C 666 2887 576 2199 576 1588 
C 576 1128 621 351 1005 -471 
C 1312 -1135 1837 -1600 1914 -1600 
C 1946 -1600 1958 -1587 1958 -1561 
z
" id="CMR17-28" transform="scale(0.015625)"/>
       <path d="M 1683 1581 
C 1683 2040 1638 2817 1254 3639 
C 947 4303 422 4768 346 4768 
C 326 4768 301 4761 301 4729 
C 301 4717 307 4710 314 4697 
C 621 4378 1402 3568 1402 1584 
C 1402 -407 627 -1217 314 -1537 
C 307 -1549 301 -1556 301 -1568 
C 301 -1600 326 -1600 346 -1600 
C 416 -1600 960 -1128 1274 -426 
C 1594 281 1683 969 1683 1581 
z
" id="CMR17-29" transform="scale(0.015625)"/>
      </defs>
      <use transform="scale(0.996264)" xlink:href="#CMR17-50"/>
      <use transform="translate(62.586301 0)scale(0.996264)" xlink:href="#CMR17-72"/>
      <use transform="translate(97.867068 0)scale(0.996264)" xlink:href="#CMR17-6f"/>
      <use transform="translate(146.159984 0)scale(0.996264)" xlink:href="#CMR17-63"/>
      <use transform="translate(186.645645 0)scale(0.996264)" xlink:href="#CMR17-65"/>
      <use transform="translate(227.131305 0)scale(0.996264)" xlink:href="#CMR17-73"/>
      <use transform="translate(262.932643 0)scale(0.996264)" xlink:href="#CMR17-73"/>
      <use transform="translate(328.809947 0)scale(0.996264)" xlink:href="#CMR17-74"/>
      <use transform="translate(364.090715 0)scale(0.996264)" xlink:href="#CMR17-69"/>
      <use transform="translate(388.961773 0)scale(0.996264)" xlink:href="#CMR17-6d"/>
      <use transform="translate(465.881363 0)scale(0.996264)" xlink:href="#CMR17-65"/>
      <use transform="translate(536.44299 0)scale(0.996264)" xlink:href="#CMR17-28"/>
      <use transform="translate(571.723757 0)scale(0.996264)" xlink:href="#CMR17-73"/>
      <use transform="translate(607.525095 0)scale(0.996264)" xlink:href="#CMR17-65"/>
      <use transform="translate(648.010756 0)scale(0.996264)" xlink:href="#CMR17-63"/>
      <use transform="translate(688.496416 0)scale(0.996264)" xlink:href="#CMR17-29"/>
     </g>
    </g>
   </g>
   <g id="line2d_78">
    <path clip-path="url(#p145dd52115)" d="M 60.011855 255.571008 
L 81.711855 256.61237 
L 103.411855 250.339095 
L 125.111855 244.617467 
L 146.811855 233.615717 
L 168.511855 227.952874 
L 190.211855 217.551338 
L 211.911855 207.322249 
L 233.611855 196.902598 
L 255.311855 185.09403 
L 277.011855 173.618605 
L 298.711855 158.592212 
L 320.411855 136.76061 
L 342.111855 124.711052 
L 363.811855 112.642088 
L 385.511855 101.324296 
L 407.211855 87.298933 
L 428.911855 74.399267 
L 450.611855 62.077373 
" style="fill:none;stroke:#800000;stroke-dasharray:5.55,2.4;stroke-dashoffset:0;stroke-width:1.5;"/>
    <defs>
     <path d="M 0 2.5 
C 0.663008 2.5 1.29895 2.236584 1.767767 1.767767 
C 2.236584 1.29895 2.5 0.663008 2.5 0 
C 2.5 -0.663008 2.236584 -1.29895 1.767767 -1.767767 
C 1.29895 -2.236584 0.663008 -2.5 0 -2.5 
C -0.663008 -2.5 -1.29895 -2.236584 -1.767767 -1.767767 
C -2.236584 -1.29895 -2.5 -0.663008 -2.5 0 
C -2.5 0.663008 -2.236584 1.29895 -1.767767 1.767767 
C -1.29895 2.236584 -0.663008 2.5 0 2.5 
z
" id="m3597e808a5" style="stroke:#800000;"/>
    </defs>
    <g clip-path="url(#p145dd52115)">
     <use style="fill:#800000;stroke:#800000;" x="60.011855" xlink:href="#m3597e808a5" y="255.571008"/>
     <use style="fill:#800000;stroke:#800000;" x="81.711855" xlink:href="#m3597e808a5" y="256.61237"/>
     <use style="fill:#800000;stroke:#800000;" x="103.411855" xlink:href="#m3597e808a5" y="250.339095"/>
     <use style="fill:#800000;stroke:#800000;" x="125.111855" xlink:href="#m3597e808a5" y="244.617467"/>
     <use style="fill:#800000;stroke:#800000;" x="146.811855" xlink:href="#m3597e808a5" y="233.615717"/>
     <use style="fill:#800000;stroke:#800000;" x="168.511855" xlink:href="#m3597e808a5" y="227.952874"/>
     <use style="fill:#800000;stroke:#800000;" x="190.211855" xlink:href="#m3597e808a5" y="217.551338"/>
     <use style="fill:#800000;stroke:#800000;" x="211.911855" xlink:href="#m3597e808a5" y="207.322249"/>
     <use style="fill:#800000;stroke:#800000;" x="233.611855" xlink:href="#m3597e808a5" y="196.902598"/>
     <use style="fill:#800000;stroke:#800000;" x="255.311855" xlink:href="#m3597e808a5" y="185.09403"/>
     <use style="fill:#800000;stroke:#800000;" x="277.011855" xlink:href="#m3597e808a5" y="173.618605"/>
     <use style="fill:#800000;stroke:#800000;" x="298.711855" xlink:href="#m3597e808a5" y="158.592212"/>
     <use style="fill:#800000;stroke:#800000;" x="320.411855" xlink:href="#m3597e808a5" y="136.76061"/>
     <use style="fill:#800000;stroke:#800000;" x="342.111855" xlink:href="#m3597e808a5" y="124.711052"/>
     <use style="fill:#800000;stroke:#800000;" x="363.811855" xlink:href="#m3597e808a5" y="112.642088"/>
     <use style="fill:#800000;stroke:#800000;" x="385.511855" xlink:href="#m3597e808a5" y="101.324296"/>
     <use style="fill:#800000;stroke:#800000;" x="407.211855" xlink:href="#m3597e808a5" y="87.298933"/>
     <use style="fill:#800000;stroke:#800000;" x="428.911855" xlink:href="#m3597e808a5" y="74.399267"/>
     <use style="fill:#800000;stroke:#800000;" x="450.611855" xlink:href="#m3597e808a5" y="62.077373"/>
    </g>
   </g>
   <g id="line2d_79">
    <path clip-path="url(#p145dd52115)" d="M 320.411855 137.389421 
L 321.727006 136.631809 
L 323.042158 135.874198 
L 324.357309 135.116587 
L 325.672461 134.358975 
L 326.987612 133.601364 
L 328.302764 132.843753 
L 329.617915 132.086141 
L 330.933067 131.32853 
L 332.248218 130.570919 
L 333.56337 129.813307 
L 334.878522 129.055696 
L 336.193673 128.298085 
L 337.508825 127.540473 
L 338.823976 126.782862 
L 340.139128 126.025251 
L 341.454279 125.267639 
L 342.769431 124.510028 
L 344.084582 123.752417 
L 345.399734 122.994805 
L 346.714885 122.237194 
L 348.030037 121.479583 
L 349.345188 120.721972 
L 350.66034 119.96436 
L 351.975491 119.206749 
L 353.290643 118.449138 
L 354.605794 117.691526 
L 355.920946 116.933915 
L 357.236097 116.176304 
L 358.551249 115.418692 
L 359.8664 114.661081 
L 361.181552 113.90347 
L 362.496703 113.145858 
L 363.811855 112.388247 
L 365.127006 111.630636 
L 366.442158 110.873024 
L 367.757309 110.115413 
L 369.072461 109.357802 
L 370.387612 108.60019 
L 371.702764 107.842579 
L 373.017915 107.084968 
L 374.333067 106.327356 
L 375.648218 105.569745 
L 376.96337 104.812134 
L 378.278522 104.054522 
L 379.593673 103.296911 
L 380.908825 102.5393 
L 382.223976 101.781688 
L 383.539128 101.024077 
L 384.854279 100.266466 
L 386.169431 99.508854 
L 387.484582 98.751243 
L 388.799734 97.993632 
L 390.114885 97.23602 
L 391.430037 96.478409 
L 392.745188 95.720798 
L 394.06034 94.963186 
L 395.375491 94.205575 
L 396.690643 93.447964 
L 398.005794 92.690352 
L 399.320946 91.932741 
L 400.636097 91.17513 
L 401.951249 90.417518 
L 403.2664 89.659907 
L 404.581552 88.902296 
L 405.896703 88.144684 
L 407.211855 87.387073 
L 408.527006 86.629462 
L 409.842158 85.87185 
L 411.157309 85.114239 
L 412.472461 84.356628 
L 413.787612 83.599016 
L 415.102764 82.841405 
L 416.417915 82.083794 
L 417.733067 81.326182 
L 419.048218 80.568571 
L 420.36337 79.81096 
L 421.678522 79.053348 
L 422.993673 78.295737 
L 424.308825 77.538126 
L 425.623976 76.780514 
L 426.939128 76.022903 
L 428.254279 75.265292 
L 429.569431 74.50768 
L 430.884582 73.750069 
L 432.199734 72.992458 
L 433.514885 72.234846 
L 434.830037 71.477235 
L 436.145188 70.719624 
L 437.46034 69.962012 
L 438.775491 69.204401 
L 440.090643 68.44679 
L 441.405794 67.689178 
L 442.720946 66.931567 
L 444.036097 66.173956 
L 445.351249 65.416345 
L 446.6664 64.658733 
L 447.981552 63.901122 
L 449.296703 63.143511 
L 450.611855 62.385899 
" style="fill:none;stroke:#800000;stroke-linecap:round;stroke-width:1.5;"/>
   </g>
   <g id="line2d_80">
    <path clip-path="url(#p145dd52115)" d="M 60.011855 248.484079 
L 81.711855 247.922383 
L 103.411855 241.806608 
L 125.111855 239.037943 
L 146.811855 232.64812 
L 168.511855 224.694158 
L 190.211855 215.050861 
L 211.911855 204.346061 
L 233.611855 192.789204 
L 255.311855 180.577223 
L 277.011855 163.027791 
L 298.711855 139.284339 
L 320.411855 125.789174 
L 342.111855 113.248382 
L 363.811855 101.715636 
L 385.511855 89.136961 
L 407.211855 76.634713 
L 428.911855 64.571821 
L 450.611855 52.055675 
" style="fill:none;stroke:#800000;stroke-dasharray:5.55,2.4;stroke-dashoffset:0;stroke-width:1.5;"/>
    <defs>
     <path d="M -2.5 2.5 
L 2.5 2.5 
L 2.5 -2.5 
L -2.5 -2.5 
z
" id="mc912f22ef3" style="stroke:#800000;stroke-linejoin:miter;"/>
    </defs>
    <g clip-path="url(#p145dd52115)">
     <use style="fill:#800000;stroke:#800000;stroke-linejoin:miter;" x="60.011855" xlink:href="#mc912f22ef3" y="248.484079"/>
     <use style="fill:#800000;stroke:#800000;stroke-linejoin:miter;" x="81.711855" xlink:href="#mc912f22ef3" y="247.922383"/>
     <use style="fill:#800000;stroke:#800000;stroke-linejoin:miter;" x="103.411855" xlink:href="#mc912f22ef3" y="241.806608"/>
     <use style="fill:#800000;stroke:#800000;stroke-linejoin:miter;" x="125.111855" xlink:href="#mc912f22ef3" y="239.037943"/>
     <use style="fill:#800000;stroke:#800000;stroke-linejoin:miter;" x="146.811855" xlink:href="#mc912f22ef3" y="232.64812"/>
     <use style="fill:#800000;stroke:#800000;stroke-linejoin:miter;" x="168.511855" xlink:href="#mc912f22ef3" y="224.694158"/>
     <use style="fill:#800000;stroke:#800000;stroke-linejoin:miter;" x="190.211855" xlink:href="#mc912f22ef3" y="215.050861"/>
     <use style="fill:#800000;stroke:#800000;stroke-linejoin:miter;" x="211.911855" xlink:href="#mc912f22ef3" y="204.346061"/>
     <use style="fill:#800000;stroke:#800000;stroke-linejoin:miter;" x="233.611855" xlink:href="#mc912f22ef3" y="192.789204"/>
     <use style="fill:#800000;stroke:#800000;stroke-linejoin:miter;" x="255.311855" xlink:href="#mc912f22ef3" y="180.577223"/>
     <use style="fill:#800000;stroke:#800000;stroke-linejoin:miter;" x="277.011855" xlink:href="#mc912f22ef3" y="163.027791"/>
     <use style="fill:#800000;stroke:#800000;stroke-linejoin:miter;" x="298.711855" xlink:href="#mc912f22ef3" y="139.284339"/>
     <use style="fill:#800000;stroke:#800000;stroke-linejoin:miter;" x="320.411855" xlink:href="#mc912f22ef3" y="125.789174"/>
     <use style="fill:#800000;stroke:#800000;stroke-linejoin:miter;" x="342.111855" xlink:href="#mc912f22ef3" y="113.248382"/>
     <use style="fill:#800000;stroke:#800000;stroke-linejoin:miter;" x="363.811855" xlink:href="#mc912f22ef3" y="101.715636"/>
     <use style="fill:#800000;stroke:#800000;stroke-linejoin:miter;" x="385.511855" xlink:href="#mc912f22ef3" y="89.136961"/>
     <use style="fill:#800000;stroke:#800000;stroke-linejoin:miter;" x="407.211855" xlink:href="#mc912f22ef3" y="76.634713"/>
     <use style="fill:#800000;stroke:#800000;stroke-linejoin:miter;" x="428.911855" xlink:href="#mc912f22ef3" y="64.571821"/>
     <use style="fill:#800000;stroke:#800000;stroke-linejoin:miter;" x="450.611855" xlink:href="#mc912f22ef3" y="52.055675"/>
    </g>
   </g>
   <g id="line2d_81">
    <path clip-path="url(#p145dd52115)" d="M 320.411855 125.839752 
L 321.727006 125.095955 
L 323.042158 124.352157 
L 324.357309 123.608359 
L 325.672461 122.864562 
L 326.987612 122.120764 
L 328.302764 121.376966 
L 329.617915 120.633168 
L 330.933067 119.889371 
L 332.248218 119.145573 
L 333.56337 118.401775 
L 334.878522 117.657978 
L 336.193673 116.91418 
L 337.508825 116.170382 
L 338.823976 115.426585 
L 340.139128 114.682787 
L 341.454279 113.938989 
L 342.769431 113.195191 
L 344.084582 112.451394 
L 345.399734 111.707596 
L 346.714885 110.963798 
L 348.030037 110.220001 
L 349.345188 109.476203 
L 350.66034 108.732405 
L 351.975491 107.988607 
L 353.290643 107.24481 
L 354.605794 106.501012 
L 355.920946 105.757214 
L 357.236097 105.013417 
L 358.551249 104.269619 
L 359.8664 103.525821 
L 361.181552 102.782024 
L 362.496703 102.038226 
L 363.811855 101.294428 
L 365.127006 100.55063 
L 366.442158 99.806833 
L 367.757309 99.063035 
L 369.072461 98.319237 
L 370.387612 97.57544 
L 371.702764 96.831642 
L 373.017915 96.087844 
L 374.333067 95.344046 
L 375.648218 94.600249 
L 376.96337 93.856451 
L 378.278522 93.112653 
L 379.593673 92.368856 
L 380.908825 91.625058 
L 382.223976 90.88126 
L 383.539128 90.137463 
L 384.854279 89.393665 
L 386.169431 88.649867 
L 387.484582 87.906069 
L 388.799734 87.162272 
L 390.114885 86.418474 
L 391.430037 85.674676 
L 392.745188 84.930879 
L 394.06034 84.187081 
L 395.375491 83.443283 
L 396.690643 82.699485 
L 398.005794 81.955688 
L 399.320946 81.21189 
L 400.636097 80.468092 
L 401.951249 79.724295 
L 403.2664 78.980497 
L 404.581552 78.236699 
L 405.896703 77.492902 
L 407.211855 76.749104 
L 408.527006 76.005306 
L 409.842158 75.261508 
L 411.157309 74.517711 
L 412.472461 73.773913 
L 413.787612 73.030115 
L 415.102764 72.286318 
L 416.417915 71.54252 
L 417.733067 70.798722 
L 419.048218 70.054924 
L 420.36337 69.311127 
L 421.678522 68.567329 
L 422.993673 67.823531 
L 424.308825 67.079734 
L 425.623976 66.335936 
L 426.939128 65.592138 
L 428.254279 64.848341 
L 429.569431 64.104543 
L 430.884582 63.360745 
L 432.199734 62.616947 
L 433.514885 61.87315 
L 434.830037 61.129352 
L 436.145188 60.385554 
L 437.46034 59.641757 
L 438.775491 58.897959 
L 440.090643 58.154161 
L 441.405794 57.410363 
L 442.720946 56.666566 
L 444.036097 55.922768 
L 445.351249 55.17897 
L 446.6664 54.435173 
L 447.981552 53.691375 
L 449.296703 52.947577 
L 450.611855 52.20378 
" style="fill:none;stroke:#800000;stroke-linecap:round;stroke-width:1.5;"/>
   </g>
   <g id="line2d_82">
    <path clip-path="url(#p145dd52115)" d="M 60.011855 281.587333 
L 81.711855 283.405094 
L 103.411855 272.11383 
L 125.111855 269.158654 
L 146.811855 275.741593 
L 168.511855 258.686784 
L 190.211855 258.241114 
L 211.911855 257.790819 
L 233.611855 256.456078 
L 255.311855 252.063842 
L 277.011855 242.147135 
L 298.711855 236.59129 
L 320.411855 231.656504 
L 342.111855 219.033878 
L 363.811855 208.852717 
L 385.511855 195.874582 
L 407.211855 178.421387 
L 428.911855 167.641223 
L 450.611855 155.839526 
" style="fill:none;stroke:#daa520;stroke-dasharray:5.55,2.4;stroke-dashoffset:0;stroke-width:1.5;"/>
    <defs>
     <path d="M -2.5 2.5 
L 2.5 2.5 
L 2.5 -2.5 
L -2.5 -2.5 
z
" id="m3d86c4b091" style="stroke:#daa520;stroke-linejoin:miter;"/>
    </defs>
    <g clip-path="url(#p145dd52115)">
     <use style="fill:#daa520;stroke:#daa520;stroke-linejoin:miter;" x="60.011855" xlink:href="#m3d86c4b091" y="281.587333"/>
     <use style="fill:#daa520;stroke:#daa520;stroke-linejoin:miter;" x="81.711855" xlink:href="#m3d86c4b091" y="283.405094"/>
     <use style="fill:#daa520;stroke:#daa520;stroke-linejoin:miter;" x="103.411855" xlink:href="#m3d86c4b091" y="272.11383"/>
     <use style="fill:#daa520;stroke:#daa520;stroke-linejoin:miter;" x="125.111855" xlink:href="#m3d86c4b091" y="269.158654"/>
     <use style="fill:#daa520;stroke:#daa520;stroke-linejoin:miter;" x="146.811855" xlink:href="#m3d86c4b091" y="275.741593"/>
     <use style="fill:#daa520;stroke:#daa520;stroke-linejoin:miter;" x="168.511855" xlink:href="#m3d86c4b091" y="258.686784"/>
     <use style="fill:#daa520;stroke:#daa520;stroke-linejoin:miter;" x="190.211855" xlink:href="#m3d86c4b091" y="258.241114"/>
     <use style="fill:#daa520;stroke:#daa520;stroke-linejoin:miter;" x="211.911855" xlink:href="#m3d86c4b091" y="257.790819"/>
     <use style="fill:#daa520;stroke:#daa520;stroke-linejoin:miter;" x="233.611855" xlink:href="#m3d86c4b091" y="256.456078"/>
     <use style="fill:#daa520;stroke:#daa520;stroke-linejoin:miter;" x="255.311855" xlink:href="#m3d86c4b091" y="252.063842"/>
     <use style="fill:#daa520;stroke:#daa520;stroke-linejoin:miter;" x="277.011855" xlink:href="#m3d86c4b091" y="242.147135"/>
     <use style="fill:#daa520;stroke:#daa520;stroke-linejoin:miter;" x="298.711855" xlink:href="#m3d86c4b091" y="236.59129"/>
     <use style="fill:#daa520;stroke:#daa520;stroke-linejoin:miter;" x="320.411855" xlink:href="#m3d86c4b091" y="231.656504"/>
     <use style="fill:#daa520;stroke:#daa520;stroke-linejoin:miter;" x="342.111855" xlink:href="#m3d86c4b091" y="219.033878"/>
     <use style="fill:#daa520;stroke:#daa520;stroke-linejoin:miter;" x="363.811855" xlink:href="#m3d86c4b091" y="208.852717"/>
     <use style="fill:#daa520;stroke:#daa520;stroke-linejoin:miter;" x="385.511855" xlink:href="#m3d86c4b091" y="195.874582"/>
     <use style="fill:#daa520;stroke:#daa520;stroke-linejoin:miter;" x="407.211855" xlink:href="#m3d86c4b091" y="178.421387"/>
     <use style="fill:#daa520;stroke:#daa520;stroke-linejoin:miter;" x="428.911855" xlink:href="#m3d86c4b091" y="167.641223"/>
     <use style="fill:#daa520;stroke:#daa520;stroke-linejoin:miter;" x="450.611855" xlink:href="#m3d86c4b091" y="155.839526"/>
    </g>
   </g>
   <g id="line2d_83">
    <path clip-path="url(#p145dd52115)" d="M 320.411855 232.545785 
L 321.727006 231.76512 
L 323.042158 230.984454 
L 324.357309 230.203788 
L 325.672461 229.423122 
L 326.987612 228.642457 
L 328.302764 227.861791 
L 329.617915 227.081125 
L 330.933067 226.300459 
L 332.248218 225.519794 
L 333.56337 224.739128 
L 334.878522 223.958462 
L 336.193673 223.177797 
L 337.508825 222.397131 
L 338.823976 221.616465 
L 340.139128 220.835799 
L 341.454279 220.055134 
L 342.769431 219.274468 
L 344.084582 218.493802 
L 345.399734 217.713136 
L 346.714885 216.932471 
L 348.030037 216.151805 
L 349.345188 215.371139 
L 350.66034 214.590473 
L 351.975491 213.809808 
L 353.290643 213.029142 
L 354.605794 212.248476 
L 355.920946 211.46781 
L 357.236097 210.687145 
L 358.551249 209.906479 
L 359.8664 209.125813 
L 361.181552 208.345147 
L 362.496703 207.564482 
L 363.811855 206.783816 
L 365.127006 206.00315 
L 366.442158 205.222484 
L 367.757309 204.441819 
L 369.072461 203.661153 
L 370.387612 202.880487 
L 371.702764 202.099821 
L 373.017915 201.319156 
L 374.333067 200.53849 
L 375.648218 199.757824 
L 376.96337 198.977158 
L 378.278522 198.196493 
L 379.593673 197.415827 
L 380.908825 196.635161 
L 382.223976 195.854495 
L 383.539128 195.07383 
L 384.854279 194.293164 
L 386.169431 193.512498 
L 387.484582 192.731832 
L 388.799734 191.951167 
L 390.114885 191.170501 
L 391.430037 190.389835 
L 392.745188 189.609169 
L 394.06034 188.828504 
L 395.375491 188.047838 
L 396.690643 187.267172 
L 398.005794 186.486506 
L 399.320946 185.705841 
L 400.636097 184.925175 
L 401.951249 184.144509 
L 403.2664 183.363843 
L 404.581552 182.583178 
L 405.896703 181.802512 
L 407.211855 181.021846 
L 408.527006 180.24118 
L 409.842158 179.460515 
L 411.157309 178.679849 
L 412.472461 177.899183 
L 413.787612 177.118517 
L 415.102764 176.337852 
L 416.417915 175.557186 
L 417.733067 174.77652 
L 419.048218 173.995855 
L 420.36337 173.215189 
L 421.678522 172.434523 
L 422.993673 171.653857 
L 424.308825 170.873192 
L 425.623976 170.092526 
L 426.939128 169.31186 
L 428.254279 168.531194 
L 429.569431 167.750529 
L 430.884582 166.969863 
L 432.199734 166.189197 
L 433.514885 165.408531 
L 434.830037 164.627866 
L 436.145188 163.8472 
L 437.46034 163.066534 
L 438.775491 162.285868 
L 440.090643 161.505203 
L 441.405794 160.724537 
L 442.720946 159.943871 
L 444.036097 159.163205 
L 445.351249 158.38254 
L 446.6664 157.601874 
L 447.981552 156.821208 
L 449.296703 156.040542 
L 450.611855 155.259877 
" style="fill:none;stroke:#daa520;stroke-linecap:round;stroke-width:1.5;"/>
   </g>
   <g id="line2d_84">
    <path clip-path="url(#p145dd52115)" d="M 60.011855 243.271701 
L 81.711855 242.543937 
L 103.411855 237.540381 
L 125.111855 230.70052 
L 146.811855 222.487264 
L 168.511855 212.474636 
L 190.211855 201.323059 
L 211.911855 190.620593 
L 233.611855 179.135226 
L 255.311855 163.970744 
L 277.011855 139.700922 
L 298.711855 127.135508 
L 320.411855 113.570941 
L 342.111855 101.943807 
L 363.811855 89.685433 
L 385.511855 76.978984 
L 407.211855 65.583527 
L 428.911855 52.747459 
L 450.611855 36.314185 
" style="fill:none;stroke:#800000;stroke-dasharray:5.55,2.4;stroke-dashoffset:0;stroke-width:1.5;"/>
    <defs>
     <path d="M -0 3.535534 
L 2.12132 0 
L -0 -3.535534 
L -2.12132 -0 
z
" id="md1befaa02d" style="stroke:#800000;stroke-linejoin:miter;"/>
    </defs>
    <g clip-path="url(#p145dd52115)">
     <use style="fill:#800000;stroke:#800000;stroke-linejoin:miter;" x="60.011855" xlink:href="#md1befaa02d" y="243.271701"/>
     <use style="fill:#800000;stroke:#800000;stroke-linejoin:miter;" x="81.711855" xlink:href="#md1befaa02d" y="242.543937"/>
     <use style="fill:#800000;stroke:#800000;stroke-linejoin:miter;" x="103.411855" xlink:href="#md1befaa02d" y="237.540381"/>
     <use style="fill:#800000;stroke:#800000;stroke-linejoin:miter;" x="125.111855" xlink:href="#md1befaa02d" y="230.70052"/>
     <use style="fill:#800000;stroke:#800000;stroke-linejoin:miter;" x="146.811855" xlink:href="#md1befaa02d" y="222.487264"/>
     <use style="fill:#800000;stroke:#800000;stroke-linejoin:miter;" x="168.511855" xlink:href="#md1befaa02d" y="212.474636"/>
     <use style="fill:#800000;stroke:#800000;stroke-linejoin:miter;" x="190.211855" xlink:href="#md1befaa02d" y="201.323059"/>
     <use style="fill:#800000;stroke:#800000;stroke-linejoin:miter;" x="211.911855" xlink:href="#md1befaa02d" y="190.620593"/>
     <use style="fill:#800000;stroke:#800000;stroke-linejoin:miter;" x="233.611855" xlink:href="#md1befaa02d" y="179.135226"/>
     <use style="fill:#800000;stroke:#800000;stroke-linejoin:miter;" x="255.311855" xlink:href="#md1befaa02d" y="163.970744"/>
     <use style="fill:#800000;stroke:#800000;stroke-linejoin:miter;" x="277.011855" xlink:href="#md1befaa02d" y="139.700922"/>
     <use style="fill:#800000;stroke:#800000;stroke-linejoin:miter;" x="298.711855" xlink:href="#md1befaa02d" y="127.135508"/>
     <use style="fill:#800000;stroke:#800000;stroke-linejoin:miter;" x="320.411855" xlink:href="#md1befaa02d" y="113.570941"/>
     <use style="fill:#800000;stroke:#800000;stroke-linejoin:miter;" x="342.111855" xlink:href="#md1befaa02d" y="101.943807"/>
     <use style="fill:#800000;stroke:#800000;stroke-linejoin:miter;" x="363.811855" xlink:href="#md1befaa02d" y="89.685433"/>
     <use style="fill:#800000;stroke:#800000;stroke-linejoin:miter;" x="385.511855" xlink:href="#md1befaa02d" y="76.978984"/>
     <use style="fill:#800000;stroke:#800000;stroke-linejoin:miter;" x="407.211855" xlink:href="#md1befaa02d" y="65.583527"/>
     <use style="fill:#800000;stroke:#800000;stroke-linejoin:miter;" x="428.911855" xlink:href="#md1befaa02d" y="52.747459"/>
     <use style="fill:#800000;stroke:#800000;stroke-linejoin:miter;" x="450.611855" xlink:href="#md1befaa02d" y="36.314185"/>
    </g>
   </g>
   <g id="line2d_85">
    <path clip-path="url(#p145dd52115)" d="M 320.411855 114.646141 
L 321.727006 113.879334 
L 323.042158 113.112527 
L 324.357309 112.34572 
L 325.672461 111.578913 
L 326.987612 110.812106 
L 328.302764 110.045299 
L 329.617915 109.278492 
L 330.933067 108.511684 
L 332.248218 107.744877 
L 333.56337 106.97807 
L 334.878522 106.211263 
L 336.193673 105.444456 
L 337.508825 104.677649 
L 338.823976 103.910842 
L 340.139128 103.144035 
L 341.454279 102.377228 
L 342.769431 101.610421 
L 344.084582 100.843614 
L 345.399734 100.076807 
L 346.714885 99.31 
L 348.030037 98.543192 
L 349.345188 97.776385 
L 350.66034 97.009578 
L 351.975491 96.242771 
L 353.290643 95.475964 
L 354.605794 94.709157 
L 355.920946 93.94235 
L 357.236097 93.175543 
L 358.551249 92.408736 
L 359.8664 91.641929 
L 361.181552 90.875122 
L 362.496703 90.108315 
L 363.811855 89.341507 
L 365.127006 88.5747 
L 366.442158 87.807893 
L 367.757309 87.041086 
L 369.072461 86.274279 
L 370.387612 85.507472 
L 371.702764 84.740665 
L 373.017915 83.973858 
L 374.333067 83.207051 
L 375.648218 82.440244 
L 376.96337 81.673437 
L 378.278522 80.90663 
L 379.593673 80.139822 
L 380.908825 79.373015 
L 382.223976 78.606208 
L 383.539128 77.839401 
L 384.854279 77.072594 
L 386.169431 76.305787 
L 387.484582 75.53898 
L 388.799734 74.772173 
L 390.114885 74.005366 
L 391.430037 73.238559 
L 392.745188 72.471752 
L 394.06034 71.704945 
L 395.375491 70.938138 
L 396.690643 70.17133 
L 398.005794 69.404523 
L 399.320946 68.637716 
L 400.636097 67.870909 
L 401.951249 67.104102 
L 403.2664 66.337295 
L 404.581552 65.570488 
L 405.896703 64.803681 
L 407.211855 64.036874 
L 408.527006 63.270067 
L 409.842158 62.50326 
L 411.157309 61.736453 
L 412.472461 60.969645 
L 413.787612 60.202838 
L 415.102764 59.436031 
L 416.417915 58.669224 
L 417.733067 57.902417 
L 419.048218 57.13561 
L 420.36337 56.368803 
L 421.678522 55.601996 
L 422.993673 54.835189 
L 424.308825 54.068382 
L 425.623976 53.301575 
L 426.939128 52.534768 
L 428.254279 51.767961 
L 429.569431 51.001153 
L 430.884582 50.234346 
L 432.199734 49.467539 
L 433.514885 48.700732 
L 434.830037 47.933925 
L 436.145188 47.167118 
L 437.46034 46.400311 
L 438.775491 45.633504 
L 440.090643 44.866697 
L 441.405794 44.09989 
L 442.720946 43.333083 
L 444.036097 42.566276 
L 445.351249 41.799468 
L 446.6664 41.032661 
L 447.981552 40.265854 
L 449.296703 39.499047 
L 450.611855 38.73224 
" style="fill:none;stroke:#800000;stroke-linecap:round;stroke-width:1.5;"/>
   </g>
   <g id="patch_3">
    <path d="M 60.011855 295.759639 
L 60.011855 23.959639 
" style="fill:none;stroke:#262626;stroke-linecap:square;stroke-linejoin:miter;stroke-width:1.25;"/>
   </g>
   <g id="patch_4">
    <path d="M 450.611855 295.759639 
L 450.611855 23.959639 
" style="fill:none;stroke:#262626;stroke-linecap:square;stroke-linejoin:miter;stroke-width:1.25;"/>
   </g>
   <g id="patch_5">
    <path d="M 60.011855 295.759639 
L 450.611855 295.759639 
" style="fill:none;stroke:#262626;stroke-linecap:square;stroke-linejoin:miter;stroke-width:1.25;"/>
   </g>
   <g id="patch_6">
    <path d="M 60.011855 23.959639 
L 450.611855 23.959639 
" style="fill:none;stroke:#262626;stroke-linecap:square;stroke-linejoin:miter;stroke-width:1.25;"/>
   </g>
   <g id="text_17">
    <!-- Comparison of Process Time of Methods for computing $\mathrm{logdet}(\mathbf{A})$ -->
    <g style="fill:#262626;" transform="translate(51.91792 17.959639)scale(0.144 -0.144)">
     <defs>
      <path d="M 3974 4289 
C 3974 4403 3968 4410 3930 4410 
C 3904 4410 3898 4403 3853 4327 
L 3571 3792 
C 3258 4187 2874 4416 2381 4416 
C 1286 4416 294 3456 294 2148 
C 294 826 1286 -128 2387 -128 
C 3366 -128 3974 730 3974 1461 
C 3974 1524 3974 1550 3917 1550 
C 3866 1550 3866 1531 3859 1474 
C 3808 585 3168 38 2477 38 
C 1824 38 781 495 781 2147 
C 781 3805 1843 4250 2464 4250 
C 3187 4250 3712 3628 3834 2745 
C 3846 2668 3846 2655 3904 2655 
C 3974 2655 3974 2668 3974 2783 
L 3974 4289 
z
" id="CMR17-43" transform="scale(0.015625)"/>
      <path d="M 1408 -1063 
C 998 -1063 973 -1037 973 -789 
L 973 402 
C 1158 134 1427 -38 1766 -38 
C 2406 -38 3053 523 3053 1388 
C 3053 2191 2496 2802 1837 2802 
C 1453 2802 1139 2592 960 2338 
L 960 2802 
L 198 2732 
L 198 2567 
C 576 2567 634 2528 634 2223 
L 634 -789 
C 634 -1031 608 -1063 198 -1063 
L 198 -1228 
C 352 -1216 634 -1216 800 -1216 
C 966 -1216 1254 -1216 1408 -1228 
L 1408 -1063 
z
M 973 2012 
C 973 2102 973 2235 1222 2471 
C 1254 2497 1472 2688 1792 2688 
C 2259 2688 2643 2108 2643 1382 
C 2643 656 2234 64 1728 64 
C 1498 64 1248 172 1056 472 
C 973 612 973 650 973 752 
L 973 2012 
z
" id="CMR17-70" transform="scale(0.015625)"/>
      <path d="M 2656 1933 
C 2656 2259 2592 2790 1837 2790 
C 1331 2790 1069 2400 973 2144 
L 966 2144 
L 966 2790 
L 211 2720 
L 211 2554 
C 589 2554 646 2515 646 2208 
L 646 428 
C 646 184 621 153 211 153 
L 211 -13 
C 365 0 646 0 813 0 
C 979 0 1267 0 1421 -13 
L 1421 153 
C 1011 153 986 178 986 428 
L 986 1658 
C 986 2247 1344 2688 1792 2688 
C 2266 2688 2317 2266 2317 1958 
L 2317 428 
C 2317 184 2291 153 1882 153 
L 1882 -13 
C 2035 0 2317 0 2483 0 
C 2650 0 2938 0 3091 -13 
L 3091 153 
C 2682 153 2656 178 2656 428 
L 2656 1933 
z
" id="CMR17-6e" transform="scale(0.015625)"/>
      <path d="M 979 2560 
L 1709 2560 
L 1709 2725 
L 966 2725 
L 966 3494 
C 966 4022 1235 4352 1510 4352 
C 1594 4352 1690 4327 1754 4282 
C 1702 4269 1568 4225 1568 4067 
C 1568 3901 1696 3850 1786 3850 
C 1875 3850 2003 3901 2003 4067 
C 2003 4308 1773 4454 1517 4454 
C 1152 4454 653 4156 653 3481 
L 653 2725 
L 141 2725 
L 141 2560 
L 653 2560 
L 653 427 
C 653 184 627 153 218 153 
L 218 -13 
C 371 0 666 0 832 0 
C 1018 0 1344 0 1517 -13 
L 1517 153 
C 1056 153 979 153 979 439 
L 979 2560 
z
" id="CMR17-66" transform="scale(0.015625)"/>
      <path d="M 3981 4326 
L 288 4326 
L 179 2918 
L 294 2918 
C 378 3976 467 4160 1453 4160 
C 1568 4160 1754 4160 1805 4154 
C 1926 4135 1926 4058 1926 3912 
L 1926 459 
C 1926 230 1907 160 1376 160 
L 1197 160 
L 1197 0 
C 1504 0 1824 0 2138 0 
C 2451 0 2771 0 3078 0 
L 3078 160 
L 2899 160 
C 2368 160 2349 230 2349 459 
L 2349 3912 
C 2349 4052 2349 4129 2464 4154 
C 2515 4160 2701 4160 2816 4160 
C 3795 4160 3891 3976 3974 2918 
L 4090 2918 
L 3981 4326 
z
" id="CMR17-54" transform="scale(0.015625)"/>
      <path d="M 2656 1933 
C 2656 2259 2592 2790 1837 2790 
C 1312 2790 1056 2368 979 2157 
L 973 2157 
L 973 4396 
L 211 4326 
L 211 4160 
C 589 4160 646 4122 646 3817 
L 646 426 
C 646 184 621 153 211 153 
L 211 -13 
C 365 0 646 0 813 0 
C 979 0 1267 0 1421 -13 
L 1421 153 
C 1011 153 986 178 986 428 
L 986 1658 
C 986 2247 1344 2688 1792 2688 
C 2266 2688 2317 2266 2317 1958 
L 2317 428 
C 2317 184 2291 153 1882 153 
L 1882 -13 
C 2035 0 2317 0 2483 0 
C 2650 0 2938 0 3091 -13 
L 3091 153 
C 2682 153 2656 178 2656 428 
L 2656 1933 
z
" id="CMR17-68" transform="scale(0.015625)"/>
      <path d="M 1869 4326 
L 1869 4160 
C 2246 4160 2304 4122 2304 3820 
L 2304 2345 
C 2278 2377 2016 2790 1498 2790 
C 845 2790 211 2208 211 1364 
C 211 525 806 -64 1434 -64 
C 1978 -64 2259 337 2291 380 
L 2291 -63 
L 3066 -63 
L 3066 128 
C 2688 128 2630 166 2630 473 
L 2630 4396 
L 1869 4326 
z
M 2291 755 
C 2291 563 2176 390 2029 262 
C 1811 70 1594 38 1472 38 
C 1286 38 621 134 621 1356 
C 621 2612 1363 2688 1530 2688 
C 1824 2688 2061 2522 2208 2291 
C 2291 2157 2291 2138 2291 2023 
L 2291 755 
z
" id="CMR17-64" transform="scale(0.015625)"/>
      <path d="M 1882 2693 
L 1882 2528 
C 2259 2528 2317 2489 2317 2186 
L 2317 1032 
C 2317 500 2029 38 1555 38 
C 1030 38 986 348 986 678 
L 986 2763 
L 211 2693 
L 211 2528 
C 467 2528 640 2528 646 2274 
L 646 1058 
C 646 633 646 361 813 183 
C 896 101 1056 -64 1517 -64 
C 2061 -64 2272 377 2323 506 
L 2330 506 
L 2330 -63 
L 3091 -63 
L 3091 128 
C 2714 128 2656 166 2656 473 
L 2656 2763 
L 1882 2693 
z
" id="CMR17-75" transform="scale(0.015625)"/>
      <path d="M 710 1164 
C 832 1068 1043 960 1299 960 
C 1805 960 2240 1357 2240 1888 
C 2240 2054 2189 2310 1997 2509 
C 2176 2692 2438 2752 2586 2752 
C 2611 2752 2650 2752 2682 2734 
C 2656 2728 2598 2703 2598 2605 
C 2598 2527 2656 2471 2739 2471 
C 2835 2471 2886 2533 2886 2614 
C 2886 2731 2790 2854 2586 2854 
C 2330 2854 2106 2738 1926 2580 
C 1734 2753 1504 2816 1299 2816 
C 794 2816 358 2419 358 1888 
C 358 1522 570 1292 634 1228 
C 442 1004 442 743 442 711 
C 442 545 506 302 723 168 
C 390 85 128 -169 128 -486 
C 128 -943 736 -1280 1466 -1280 
C 2170 -1280 2803 -956 2803 -479 
C 2803 384 1856 384 1363 384 
C 1216 384 954 384 922 391 
C 723 423 589 602 589 826 
C 589 883 589 1024 710 1164 
z
M 1299 1068 
C 736 1068 736 1760 736 1889 
C 736 2016 736 2708 1299 2708 
C 1862 2708 1862 2016 1862 1889 
C 1862 1760 1862 1068 1299 1068 
z
M 1466 -1171 
C 826 -1171 384 -835 384 -486 
C 384 -289 493 -105 634 -4 
C 794 104 858 104 1293 104 
C 1818 104 2547 104 2547 -486 
C 2547 -835 2106 -1171 1466 -1171 
z
" id="CMR17-67" transform="scale(0.015625)"/>
      <path d="M 979 4396 
L 218 4326 
L 218 4160 
C 595 4160 653 4122 653 3817 
L 653 426 
C 653 184 627 153 218 153 
L 218 -13 
C 371 0 653 0 813 0 
C 979 0 1261 0 1414 -13 
L 1414 153 
C 1005 153 979 178 979 426 
L 979 4396 
z
" id="CMR17-6c" transform="scale(0.015625)"/>
      <path d="M 2931 4301 
C 2886 4416 2874 4448 2720 4448 
C 2560 4448 2547 4416 2502 4301 
L 915 413 
C 870 311 870 299 691 279 
C 531 260 506 260 365 260 
L 250 260 
L 250 -13 
C 416 0 800 0 986 0 
C 1158 0 1626 0 1773 -13 
L 1773 260 
C 1632 260 1389 260 1210 331 
C 1229 390 1229 402 1242 428 
L 1581 1262 
L 3296 1262 
L 3699 260 
L 3098 260 
L 3098 0 
C 3302 0 3923 0 4166 0 
C 4371 0 5024 0 5184 -13 
L 5184 260 
L 4576 260 
L 2931 4301 
z
M 2438 3367 
L 3181 1536 
L 1690 1536 
L 2438 3367 
z
" id="CMBX12-41" transform="scale(0.015625)"/>
     </defs>
     <use transform="scale(0.996264)" xlink:href="#CMR17-43"/>
     <use transform="translate(66.509881 0)scale(0.996264)" xlink:href="#CMR17-6f"/>
     <use transform="translate(112.200358 0)scale(0.996264)" xlink:href="#CMR17-6d"/>
     <use transform="translate(189.119948 0)scale(0.996264)" xlink:href="#CMR17-70"/>
     <use transform="translate(240.015317 0)scale(0.996264)" xlink:href="#CMR17-61"/>
     <use transform="translate(285.705794 0)scale(0.996264)" xlink:href="#CMR17-72"/>
     <use transform="translate(320.986562 0)scale(0.996264)" xlink:href="#CMR17-69"/>
     <use transform="translate(345.857621 0)scale(0.996264)" xlink:href="#CMR17-73"/>
     <use transform="translate(381.658958 0)scale(0.996264)" xlink:href="#CMR17-6f"/>
     <use transform="translate(427.349435 0)scale(0.996264)" xlink:href="#CMR17-6e"/>
     <use transform="translate(508.320772 0)scale(0.996264)" xlink:href="#CMR17-6f"/>
     <use transform="translate(554.011249 0)scale(0.996264)" xlink:href="#CMR17-66"/>
     <use transform="translate(611.560727 0)scale(0.996264)" xlink:href="#CMR17-50"/>
     <use transform="translate(674.147028 0)scale(0.996264)" xlink:href="#CMR17-72"/>
     <use transform="translate(709.427796 0)scale(0.996264)" xlink:href="#CMR17-6f"/>
     <use transform="translate(757.720712 0)scale(0.996264)" xlink:href="#CMR17-63"/>
     <use transform="translate(798.206372 0)scale(0.996264)" xlink:href="#CMR17-65"/>
     <use transform="translate(838.692033 0)scale(0.996264)" xlink:href="#CMR17-73"/>
     <use transform="translate(874.49337 0)scale(0.996264)" xlink:href="#CMR17-73"/>
     <use transform="translate(940.370674 0)scale(0.996264)" xlink:href="#CMR17-54"/>
     <use transform="translate(1006.880555 0)scale(0.996264)" xlink:href="#CMR17-69"/>
     <use transform="translate(1031.751613 0)scale(0.996264)" xlink:href="#CMR17-6d"/>
     <use transform="translate(1108.671203 0)scale(0.996264)" xlink:href="#CMR17-65"/>
     <use transform="translate(1179.23283 0)scale(0.996264)" xlink:href="#CMR17-6f"/>
     <use transform="translate(1224.923307 0)scale(0.996264)" xlink:href="#CMR17-66"/>
     <use transform="translate(1282.472786 0)scale(0.996264)" xlink:href="#CMR17-4d"/>
     <use transform="translate(1367.159726 0)scale(0.996264)" xlink:href="#CMR17-65"/>
     <use transform="translate(1407.645387 0)scale(0.996264)" xlink:href="#CMR17-74"/>
     <use transform="translate(1442.926155 0)scale(0.996264)" xlink:href="#CMR17-68"/>
     <use transform="translate(1493.821524 0)scale(0.996264)" xlink:href="#CMR17-6f"/>
     <use transform="translate(1542.11444 0)scale(0.996264)" xlink:href="#CMR17-64"/>
     <use transform="translate(1593.00981 0)scale(0.996264)" xlink:href="#CMR17-73"/>
     <use transform="translate(1658.887114 0)scale(0.996264)" xlink:href="#CMR17-66"/>
     <use transform="translate(1686.360626 0)scale(0.996264)" xlink:href="#CMR17-6f"/>
     <use transform="translate(1732.051104 0)scale(0.996264)" xlink:href="#CMR17-72"/>
     <use transform="translate(1797.407838 0)scale(0.996264)" xlink:href="#CMR17-63"/>
     <use transform="translate(1837.893498 0)scale(0.996264)" xlink:href="#CMR17-6f"/>
     <use transform="translate(1883.583975 0)scale(0.996264)" xlink:href="#CMR17-6d"/>
     <use transform="translate(1960.503565 0)scale(0.996264)" xlink:href="#CMR17-70"/>
     <use transform="translate(2011.398935 0)scale(0.996264)" xlink:href="#CMR17-75"/>
     <use transform="translate(2062.294305 0)scale(0.996264)" xlink:href="#CMR17-74"/>
     <use transform="translate(2097.575072 0)scale(0.996264)" xlink:href="#CMR17-69"/>
     <use transform="translate(2122.446131 0)scale(0.996264)" xlink:href="#CMR17-6e"/>
     <use transform="translate(2173.341501 0)scale(0.996264)" xlink:href="#CMR17-67"/>
     <use transform="translate(2249.107944 0)scale(0.996264)" xlink:href="#CMR17-6c"/>
     <use transform="translate(2273.979003 0)scale(0.996264)" xlink:href="#CMR17-6f"/>
     <use transform="translate(2319.66948 0)scale(0.996264)" xlink:href="#CMR17-67"/>
     <use transform="translate(2365.359957 0)scale(0.996264)" xlink:href="#CMR17-64"/>
     <use transform="translate(2416.255327 0)scale(0.996264)" xlink:href="#CMR17-65"/>
     <use transform="translate(2456.740987 0)scale(0.996264)" xlink:href="#CMR17-74"/>
     <use transform="translate(2492.021755 0)scale(0.996264)" xlink:href="#CMR17-28"/>
     <use transform="translate(2527.302523 0)scale(0.996264)" xlink:href="#CMBX12-41"/>
     <use transform="translate(2611.938917 0)scale(0.996264)" xlink:href="#CMR17-29"/>
    </g>
   </g>
   <g id="legend_1">
    <g id="patch_7">
     <path d="M 67.007375 101.595778 
L 345.334352 101.595778 
Q 347.333072 101.595778 347.333072 99.597058 
L 347.333072 30.955159 
Q 347.333072 28.956439 345.334352 28.956439 
L 67.007375 28.956439 
Q 65.008655 28.956439 65.008655 30.955159 
L 65.008655 99.597058 
Q 65.008655 101.595778 67.007375 101.595778 
z
" style="fill:#ffffff;opacity:0.8;stroke:#cccccc;stroke-linejoin:miter;"/>
    </g>
    <g id="patch_8">
     <path d="M 69.006095 39.949399 
L 88.993295 39.949399 
L 88.993295 32.953879 
L 69.006095 32.953879 
z
" style="fill:none;"/>
    </g>
    <g id="text_18">
     <!-- Method -->
     <g style="fill:#262626;" transform="translate(69.006095 39.949399)scale(0.099936 -0.099936)">
      <use transform="scale(0.996264)" xlink:href="#CMR17-4d"/>
      <use transform="translate(84.686941 0)scale(0.996264)" xlink:href="#CMR17-65"/>
      <use transform="translate(125.172601 0)scale(0.996264)" xlink:href="#CMR17-74"/>
      <use transform="translate(160.453369 0)scale(0.996264)" xlink:href="#CMR17-68"/>
      <use transform="translate(211.348739 0)scale(0.996264)" xlink:href="#CMR17-6f"/>
      <use transform="translate(259.641654 0)scale(0.996264)" xlink:href="#CMR17-64"/>
     </g>
    </g>
    <g id="patch_9">
     <path d="M 69.006095 53.877651 
L 88.993295 53.877651 
L 88.993295 46.882131 
L 69.006095 46.882131 
z
" style="fill:none;"/>
    </g>
    <g id="text_19">
     <!-- SLQ -->
     <g style="fill:#262626;" transform="translate(69.006095 53.877651)scale(0.099936 -0.099936)">
      <defs>
       <path d="M 2803 4290 
C 2803 4404 2797 4411 2758 4411 
C 2720 4411 2707 4385 2682 4328 
L 2490 3907 
C 2246 4257 1875 4416 1472 4416 
C 819 4416 294 3901 294 3253 
C 294 3056 339 2776 557 2510 
C 794 2218 1018 2167 1530 2033 
C 1722 1982 2042 1899 2106 1874 
C 2470 1722 2662 1341 2662 985 
C 2662 527 2336 38 1779 38 
C 1094 38 454 419 410 1311 
C 403 1413 397 1419 352 1419 
C 301 1419 294 1413 294 1285 
L 294 -1 
C 294 -115 301 -122 339 -122 
C 384 -122 397 -90 486 108 
C 493 127 493 140 614 381 
C 934 -39 1472 -128 1779 -128 
C 2477 -128 2970 451 2970 1124 
C 2970 1454 2848 1708 2778 1823 
C 2509 2230 2221 2306 1914 2382 
C 1869 2402 1856 2402 1498 2490 
C 1152 2579 1005 2624 845 2796 
C 666 2992 602 3196 602 3399 
C 602 3812 934 4263 1478 4263 
C 2157 4263 2579 3786 2675 2993 
C 2694 2878 2701 2872 2746 2872 
C 2803 2872 2803 2891 2803 2999 
L 2803 4290 
z
" id="CMR17-53" transform="scale(0.015625)"/>
       <path d="M 3469 1615 
L 3354 1615 
C 3302 983 3219 166 2125 166 
L 1530 166 
C 1274 166 1261 197 1261 414 
L 1261 3898 
C 1261 4129 1274 4192 1760 4192 
L 1901 4192 
L 1901 4352 
C 1638 4352 1331 4352 1069 4352 
C 870 4352 512 4352 326 4352 
L 326 4192 
C 768 4192 838 4192 838 3905 
L 838 452 
C 838 166 768 166 326 166 
L 326 0 
L 3315 0 
L 3469 1615 
z
" id="CMR17-4c" transform="scale(0.015625)"/>
       <path d="M 3027 83 
C 3789 408 4307 1236 4307 2193 
C 4307 3499 3366 4480 2304 4480 
C 1216 4480 294 3488 294 2199 
C 294 928 1216 -64 2304 -64 
C 2451 -64 2656 -45 2899 38 
C 3008 -747 3078 -1216 3629 -1216 
C 4307 -1216 4339 -213 4339 -33 
C 4339 32 4339 76 4294 76 
C 4262 76 4256 31 4256 18 
C 4211 -603 3866 -732 3661 -732 
C 3283 -732 3149 -394 3027 83 
z
M 1958 100 
C 1293 310 768 1017 768 2199 
C 768 3711 1606 4365 2298 4365 
C 3014 4365 3834 3686 3834 2198 
C 3834 1124 3405 527 2976 254 
C 2880 579 2726 960 2310 960 
C 2003 960 1830 692 1830 450 
C 1830 304 1888 183 1958 100 
z
M 2874 192 
C 2618 57 2413 57 2304 57 
C 2016 57 1933 315 1933 454 
C 1933 650 2067 858 2310 858 
C 2720 858 2822 493 2874 192 
z
" id="CMR17-51" transform="scale(0.015625)"/>
      </defs>
      <use transform="scale(0.996264)" xlink:href="#CMR17-53"/>
      <use transform="translate(50.89537 0)scale(0.996264)" xlink:href="#CMR17-4c"/>
      <use transform="translate(108.276778 0)scale(0.996264)" xlink:href="#CMR17-51"/>
     </g>
    </g>
    <g id="patch_10">
     <path d="M 69.006095 67.805903 
L 88.993295 67.805903 
L 88.993295 60.810383 
L 69.006095 60.810383 
z
" style="fill:none;"/>
    </g>
    <g id="patch_11">
     <path d="M 69.006095 81.734154 
L 88.993295 81.734154 
L 88.993295 74.738634 
L 69.006095 74.738634 
z
" style="fill:none;"/>
    </g>
    <g id="patch_12">
     <path d="M 69.006095 95.662406 
L 88.993295 95.662406 
L 88.993295 88.666886 
L 69.006095 88.666886 
z
" style="fill:none;"/>
    </g>
    <g id="text_20">
     <!-- Cholesky -->
     <g style="fill:#262626;" transform="translate(69.006095 95.662406)scale(0.099936 -0.099936)">
      <defs>
       <path d="M 1670 1673 
C 1664 1686 1632 1724 1632 1743 
C 1632 1756 2086 2171 2144 2222 
C 2509 2528 2739 2560 2906 2560 
L 2906 2733 
C 2867 2733 2854 2733 2848 2720 
L 2534 2720 
C 2355 2720 2080 2720 1907 2733 
L 1907 2566 
C 1997 2559 2061 2508 2061 2419 
C 2061 2291 1933 2170 1926 2170 
L 960 1289 
L 960 4396 
L 198 4326 
L 198 4160 
C 576 4160 634 4122 634 3817 
L 634 426 
C 634 184 608 153 198 153 
L 198 -13 
C 352 0 634 0 794 0 
C 954 0 1235 0 1389 -13 
L 1389 153 
C 979 153 954 178 954 428 
L 954 1130 
L 1395 1532 
L 2042 574 
C 2118 459 2182 369 2182 286 
C 2182 172 2067 153 1990 153 
L 1990 -13 
C 2144 0 2419 0 2579 0 
C 2694 0 2931 0 3040 0 
L 3040 153 
C 2739 153 2669 210 2477 491 
L 1670 1673 
z
" id="CMR17-6b" transform="scale(0.015625)"/>
       <path d="M 2496 2197 
C 2656 2586 2944 2586 3034 2586 
L 3034 2752 
C 2912 2752 2752 2752 2630 2752 
C 2496 2752 2285 2752 2157 2758 
L 2157 2592 
C 2400 2573 2406 2394 2406 2343 
C 2406 2280 2394 2248 2362 2171 
L 1664 449 
L 902 2306 
C 870 2382 870 2426 870 2433 
C 870 2573 1018 2586 1171 2586 
L 1171 2758 
C 1018 2752 742 2752 582 2752 
C 410 2752 205 2752 64 2758 
L 64 2586 
C 410 2586 448 2554 531 2350 
L 1485 15 
C 1197 -738 1030 -1178 627 -1178 
C 557 -1178 397 -1159 282 -1044 
C 429 -1031 493 -942 493 -833 
C 493 -725 416 -629 288 -629 
C 147 -629 77 -725 77 -840 
C 77 -1095 339 -1280 627 -1280 
C 998 -1280 1229 -922 1357 -604 
L 2496 2197 
z
" id="CMR17-79" transform="scale(0.015625)"/>
      </defs>
      <use transform="scale(0.996264)" xlink:href="#CMR17-43"/>
      <use transform="translate(66.509881 0)scale(0.996264)" xlink:href="#CMR17-68"/>
      <use transform="translate(117.40525 0)scale(0.996264)" xlink:href="#CMR17-6f"/>
      <use transform="translate(163.095727 0)scale(0.996264)" xlink:href="#CMR17-6c"/>
      <use transform="translate(187.966786 0)scale(0.996264)" xlink:href="#CMR17-65"/>
      <use transform="translate(228.452446 0)scale(0.996264)" xlink:href="#CMR17-73"/>
      <use transform="translate(264.253784 0)scale(0.996264)" xlink:href="#CMR17-6b"/>
      <use transform="translate(312.5467 0)scale(0.996264)" xlink:href="#CMR17-79"/>
     </g>
    </g>
    <g id="patch_13">
     <path d="M 129.416491 39.949399 
L 149.403691 39.949399 
L 149.403691 32.953879 
L 129.416491 32.953879 
z
" style="fill:none;"/>
    </g>
    <g id="text_21">
     <!-- Data type -->
     <g style="fill:#262626;" transform="translate(129.416491 39.949399)scale(0.099936 -0.099936)">
      <defs>
       <path d="M 333 4352 
L 333 4186 
C 774 4186 845 4186 845 3900 
L 845 452 
C 845 166 774 166 333 166 
L 333 0 
L 2368 0 
C 3398 0 4224 943 4224 2141 
C 4224 3346 3411 4352 2368 4352 
L 333 4352 
z
M 1523 166 
C 1267 166 1254 197 1254 414 
L 1254 3938 
C 1254 4155 1267 4186 1523 4186 
L 2240 4186 
C 2771 4186 3750 3874 3750 2141 
C 3750 1242 3488 879 3366 707 
C 3213 510 2848 166 2240 166 
L 1523 166 
z
" id="CMR17-44" transform="scale(0.015625)"/>
      </defs>
      <use transform="scale(0.996264)" xlink:href="#CMR17-44"/>
      <use transform="translate(70.393556 0)scale(0.996264)" xlink:href="#CMR17-61"/>
      <use transform="translate(116.084033 0)scale(0.996264)" xlink:href="#CMR17-74"/>
      <use transform="translate(151.364801 0)scale(0.996264)" xlink:href="#CMR17-61"/>
      <use transform="translate(227.131244 0)scale(0.996264)" xlink:href="#CMR17-74"/>
      <use transform="translate(259.809558 0)scale(0.996264)" xlink:href="#CMR17-79"/>
      <use transform="translate(308.102474 0)scale(0.996264)" xlink:href="#CMR17-70"/>
      <use transform="translate(361.600283 0)scale(0.996264)" xlink:href="#CMR17-65"/>
     </g>
    </g>
    <g id="patch_14">
     <path d="M 129.416491 53.877651 
L 149.403691 53.877651 
L 149.403691 46.882131 
L 129.416491 46.882131 
z
" style="fill:none;"/>
    </g>
    <g id="text_22">
     <!-- 32-bit -->
     <g style="fill:#262626;" transform="translate(129.416491 53.877651)scale(0.099936 -0.099936)">
      <defs>
       <path d="M 1632 1216 
L 1632 1496 
L 26 1496 
L 26 1216 
L 1632 1216 
z
" id="CMR17-2d" transform="scale(0.015625)"/>
       <path d="M 960 4396 
L 198 4326 
L 198 4160 
C 576 4160 634 4122 634 3817 
L 634 -13 
L 749 -13 
L 934 441 
C 1120 141 1395 -64 1766 -64 
C 2406 -64 3053 500 3053 1370 
C 3053 2188 2477 2790 1830 2790 
C 1434 2790 1152 2579 960 2330 
L 960 4396 
z
M 973 2004 
C 973 2118 973 2138 1062 2272 
C 1312 2657 1670 2688 1792 2688 
C 1984 2688 2643 2585 2643 1376 
C 2643 108 1888 38 1734 38 
C 1536 38 1248 114 1043 486 
C 973 608 973 621 973 735 
L 973 2004 
z
" id="CMR17-62" transform="scale(0.015625)"/>
      </defs>
      <use transform="scale(0.996264)" xlink:href="#CMR17-33"/>
      <use transform="translate(45.690477 0)scale(0.996264)" xlink:href="#CMR17-32"/>
      <use transform="translate(91.380954 0)scale(0.996264)" xlink:href="#CMR17-2d"/>
      <use transform="translate(121.456921 0)scale(0.996264)" xlink:href="#CMR17-62"/>
      <use transform="translate(172.35229 0)scale(0.996264)" xlink:href="#CMR17-69"/>
      <use transform="translate(197.223349 0)scale(0.996264)" xlink:href="#CMR17-74"/>
     </g>
    </g>
    <g id="patch_15">
     <path d="M 129.416491 67.805903 
L 149.403691 67.805903 
L 149.403691 60.810383 
L 129.416491 60.810383 
z
" style="fill:none;"/>
    </g>
    <g id="text_23">
     <!-- 64-bit -->
     <g style="fill:#262626;" transform="translate(129.416491 67.805903)scale(0.099936 -0.099936)">
      <use transform="scale(0.996264)" xlink:href="#CMR17-36"/>
      <use transform="translate(45.690477 0)scale(0.996264)" xlink:href="#CMR17-34"/>
      <use transform="translate(91.380954 0)scale(0.996264)" xlink:href="#CMR17-2d"/>
      <use transform="translate(121.456921 0)scale(0.996264)" xlink:href="#CMR17-62"/>
      <use transform="translate(172.35229 0)scale(0.996264)" xlink:href="#CMR17-69"/>
      <use transform="translate(197.223349 0)scale(0.996264)" xlink:href="#CMR17-74"/>
     </g>
    </g>
    <g id="patch_16">
     <path d="M 129.416491 81.734154 
L 149.403691 81.734154 
L 149.403691 74.738634 
L 129.416491 74.738634 
z
" style="fill:none;"/>
    </g>
    <g id="text_24">
     <!-- 128-bit -->
     <g style="fill:#262626;" transform="translate(129.416491 81.734154)scale(0.099936 -0.099936)">
      <defs>
       <path d="M 1741 2264 
C 2144 2467 2554 2773 2554 3263 
C 2554 3841 1990 4179 1472 4179 
C 890 4179 378 3759 378 3180 
C 378 3021 416 2747 666 2505 
C 730 2442 998 2251 1171 2130 
C 883 1983 211 1634 211 934 
C 211 279 838 -128 1459 -128 
C 2144 -128 2720 362 2720 1010 
C 2720 1590 2330 1857 2074 2029 
L 1741 2264 
z
M 902 2822 
C 851 2854 595 3051 595 3351 
C 595 3739 998 4032 1459 4032 
C 1965 4032 2336 3676 2336 3262 
C 2336 2669 1670 2331 1638 2331 
C 1632 2331 1626 2331 1574 2370 
L 902 2822 
z
M 2080 1519 
C 2176 1449 2483 1240 2483 851 
C 2483 381 2010 25 1472 25 
C 890 25 448 438 448 940 
C 448 1443 838 1862 1280 2060 
L 2080 1519 
z
" id="CMR17-38" transform="scale(0.015625)"/>
      </defs>
      <use transform="scale(0.996264)" xlink:href="#CMR17-31"/>
      <use transform="translate(45.690477 0)scale(0.996264)" xlink:href="#CMR17-32"/>
      <use transform="translate(91.380954 0)scale(0.996264)" xlink:href="#CMR17-38"/>
      <use transform="translate(137.071431 0)scale(0.996264)" xlink:href="#CMR17-2d"/>
      <use transform="translate(167.147398 0)scale(0.996264)" xlink:href="#CMR17-62"/>
      <use transform="translate(218.042767 0)scale(0.996264)" xlink:href="#CMR17-69"/>
      <use transform="translate(242.913826 0)scale(0.996264)" xlink:href="#CMR17-74"/>
     </g>
    </g>
    <g id="patch_17">
     <path d="M 129.416491 95.662406 
L 149.403691 95.662406 
L 149.403691 88.666886 
L 129.416491 88.666886 
z
" style="fill:none;"/>
    </g>
    <g id="text_25">
     <!-- 64-bit -->
     <g style="fill:#262626;" transform="translate(129.416491 95.662406)scale(0.099936 -0.099936)">
      <use transform="scale(0.996264)" xlink:href="#CMR17-36"/>
      <use transform="translate(45.690477 0)scale(0.996264)" xlink:href="#CMR17-34"/>
      <use transform="translate(91.380954 0)scale(0.996264)" xlink:href="#CMR17-2d"/>
      <use transform="translate(121.456921 0)scale(0.996264)" xlink:href="#CMR17-62"/>
      <use transform="translate(172.35229 0)scale(0.996264)" xlink:href="#CMR17-69"/>
      <use transform="translate(197.223349 0)scale(0.996264)" xlink:href="#CMR17-74"/>
     </g>
    </g>
    <g id="patch_18">
     <path d="M 194.459266 39.949399 
L 214.446466 39.949399 
L 214.446466 32.953879 
L 194.459266 32.953879 
z
" style="fill:none;"/>
    </g>
    <g id="text_26">
     <!-- Experiment -->
     <g style="fill:#262626;" transform="translate(194.459266 39.949399)scale(0.099936 -0.099936)">
      <defs>
       <path d="M 3885 1615 
L 3770 1615 
C 3629 676 3546 166 2419 166 
L 1530 166 
C 1274 166 1261 197 1261 414 
L 1261 2176 
L 1862 2176 
C 2464 2176 2522 1960 2522 1430 
L 2637 1430 
L 2637 3081 
L 2522 3081 
C 2522 2557 2464 2342 1862 2342 
L 1261 2342 
L 1261 3913 
C 1261 4128 1274 4160 1530 4160 
L 2406 4160 
C 3398 4160 3514 3769 3603 2929 
L 3718 2929 
L 3565 4325 
L 326 4325 
L 326 4160 
C 768 4160 838 4160 838 3874 
L 838 451 
C 838 166 768 166 326 166 
L 326 0 
L 3654 0 
L 3885 1615 
z
" id="CMR17-45" transform="scale(0.015625)"/>
      </defs>
      <use transform="scale(0.996264)" xlink:href="#CMR17-45"/>
      <use transform="translate(62.586301 0)scale(0.996264)" xlink:href="#CMR17-78"/>
      <use transform="translate(110.879216 0)scale(0.996264)" xlink:href="#CMR17-70"/>
      <use transform="translate(164.377025 0)scale(0.996264)" xlink:href="#CMR17-65"/>
      <use transform="translate(204.862685 0)scale(0.996264)" xlink:href="#CMR17-72"/>
      <use transform="translate(240.143453 0)scale(0.996264)" xlink:href="#CMR17-69"/>
      <use transform="translate(265.014512 0)scale(0.996264)" xlink:href="#CMR17-6d"/>
      <use transform="translate(341.934101 0)scale(0.996264)" xlink:href="#CMR17-65"/>
      <use transform="translate(382.419762 0)scale(0.996264)" xlink:href="#CMR17-6e"/>
      <use transform="translate(430.712678 0)scale(0.996264)" xlink:href="#CMR17-74"/>
     </g>
    </g>
    <g id="line2d_86">
     <path d="M 194.459266 50.379891 
L 214.446466 50.379891 
" style="fill:none;stroke:#800000;stroke-dasharray:5.55,2.4;stroke-dashoffset:0;stroke-width:1.5;"/>
    </g>
    <g id="line2d_87">
     <g>
      <use style="fill:#800000;stroke:#800000;" x="204.452866" xlink:href="#m3597e808a5" y="50.379891"/>
     </g>
    </g>
    <g id="line2d_88">
     <path d="M 194.459266 64.308143 
L 214.446466 64.308143 
" style="fill:none;stroke:#800000;stroke-dasharray:5.55,2.4;stroke-dashoffset:0;stroke-width:1.5;"/>
    </g>
    <g id="line2d_89">
     <g>
      <use style="fill:#800000;stroke:#800000;stroke-linejoin:miter;" x="204.452866" xlink:href="#mc912f22ef3" y="64.308143"/>
     </g>
    </g>
    <g id="line2d_90">
     <path d="M 194.459266 78.236394 
L 214.446466 78.236394 
" style="fill:none;stroke:#800000;stroke-dasharray:5.55,2.4;stroke-dashoffset:0;stroke-width:1.5;"/>
    </g>
    <g id="line2d_91">
     <g>
      <use style="fill:#800000;stroke:#800000;stroke-linejoin:miter;" x="204.452866" xlink:href="#md1befaa02d" y="78.236394"/>
     </g>
    </g>
    <g id="line2d_92">
     <path d="M 194.459266 92.164646 
L 214.446466 92.164646 
" style="fill:none;stroke:#daa520;stroke-dasharray:5.55,2.4;stroke-dashoffset:0;stroke-width:1.5;"/>
    </g>
    <g id="line2d_93">
     <g>
      <use style="fill:#daa520;stroke:#daa520;stroke-linejoin:miter;" x="204.452866" xlink:href="#m3d86c4b091" y="92.164646"/>
     </g>
    </g>
    <g id="patch_19">
     <path d="M 266.635036 39.949399 
L 286.622236 39.949399 
L 286.622236 32.953879 
L 266.635036 32.953879 
z
" style="fill:none;"/>
    </g>
    <g id="text_27">
     <!-- Line fit -->
     <g style="fill:#262626;" transform="translate(266.635036 39.949399)scale(0.099936 -0.099936)">
      <defs>
       <path d="M 2554 2764 
C 2400 2764 1926 2764 1805 2739 
C 1766 2725 1754 2725 1677 2725 
L 947 2725 
L 947 3469 
C 947 4073 1434 4352 1818 4352 
C 1939 4352 2214 4320 2355 4101 
C 2291 4101 2086 4101 2086 3878 
C 2086 3725 2189 3648 2317 3648 
C 2432 3648 2547 3712 2547 3885 
C 2547 4205 2240 4454 1843 4454 
C 1338 4454 634 4168 634 3469 
L 634 2725 
L 122 2725 
L 122 2560 
L 634 2560 
L 634 427 
C 634 184 608 153 198 153 
L 198 -13 
C 352 0 634 0 794 0 
C 960 0 1242 0 1395 -13 
L 1395 153 
C 986 153 960 178 960 427 
L 960 2560 
L 1901 2560 
C 2176 2560 2227 2502 2227 2222 
L 2227 427 
C 2227 184 2202 153 1792 153 
L 1792 -13 
C 1946 0 2227 0 2387 0 
C 2554 0 2835 0 2989 -13 
L 2989 153 
C 2579 153 2554 178 2554 427 
L 2554 2764 
z
" id="CMR17-c" transform="scale(0.015625)"/>
      </defs>
      <use transform="scale(0.996264)" xlink:href="#CMR17-4c"/>
      <use transform="translate(57.381408 0)scale(0.996264)" xlink:href="#CMR17-69"/>
      <use transform="translate(82.252466 0)scale(0.996264)" xlink:href="#CMR17-6e"/>
      <use transform="translate(133.147836 0)scale(0.996264)" xlink:href="#CMR17-65"/>
      <use transform="translate(203.709463 0)scale(0.996264)" xlink:href="#CMR17-c"/>
      <use transform="translate(253.451686 0)scale(0.996264)" xlink:href="#CMR17-74"/>
     </g>
    </g>
    <g id="line2d_94">
     <path d="M 266.635036 50.379891 
L 286.622236 50.379891 
" style="fill:none;stroke:#800000;stroke-linecap:round;stroke-width:1.5;"/>
    </g>
    <g id="line2d_95"/>
    <g id="line2d_96">
     <path d="M 266.635036 64.308143 
L 286.622236 64.308143 
" style="fill:none;stroke:#800000;stroke-linecap:round;stroke-width:1.5;"/>
    </g>
    <g id="line2d_97"/>
    <g id="line2d_98">
     <path d="M 266.635036 78.236394 
L 286.622236 78.236394 
" style="fill:none;stroke:#800000;stroke-linecap:round;stroke-width:1.5;"/>
    </g>
    <g id="line2d_99"/>
    <g id="line2d_100">
     <path d="M 266.635036 92.164646 
L 286.622236 92.164646 
" style="fill:none;stroke:#daa520;stroke-linecap:round;stroke-width:1.5;"/>
    </g>
    <g id="line2d_101"/>
    <g id="patch_20">
     <path d="M 319.171137 39.949399 
L 339.158337 39.949399 
L 339.158337 32.953879 
L 319.171137 32.953879 
z
" style="fill:none;"/>
    </g>
    <g id="text_28">
     <!-- Slope -->
     <g style="fill:#262626;" transform="translate(319.171137 39.949399)scale(0.099936 -0.099936)">
      <use transform="scale(0.996264)" xlink:href="#CMR17-53"/>
      <use transform="translate(50.89537 0)scale(0.996264)" xlink:href="#CMR17-6c"/>
      <use transform="translate(75.766428 0)scale(0.996264)" xlink:href="#CMR17-6f"/>
      <use transform="translate(121.456905 0)scale(0.996264)" xlink:href="#CMR17-70"/>
      <use transform="translate(174.954714 0)scale(0.996264)" xlink:href="#CMR17-65"/>
     </g>
    </g>
    <g id="patch_21">
     <path d="M 319.171137 53.877651 
L 339.158337 53.877651 
L 339.158337 46.882131 
L 319.171137 46.882131 
z
" style="fill:none;"/>
    </g>
    <g id="text_29">
     <!-- 1.07 -->
     <g style="fill:#262626;" transform="translate(319.171137 53.877651)scale(0.099936 -0.099936)">
      <defs>
       <path d="M 1062 261 
C 1062 420 934 522 800 522 
C 672 522 538 420 538 261 
C 538 102 666 0 800 0 
C 928 0 1062 102 1062 261 
z
" id="CMR17-2e" transform="scale(0.015625)"/>
      </defs>
      <use transform="scale(0.996264)" xlink:href="#CMR17-31"/>
      <use transform="translate(45.690477 0)scale(0.996264)" xlink:href="#CMR17-2e"/>
      <use transform="translate(70.561536 0)scale(0.996264)" xlink:href="#CMR17-30"/>
      <use transform="translate(116.252013 0)scale(0.996264)" xlink:href="#CMR17-37"/>
     </g>
    </g>
    <g id="patch_22">
     <path d="M 319.171137 67.805903 
L 339.158337 67.805903 
L 339.158337 60.810383 
L 319.171137 60.810383 
z
" style="fill:none;"/>
    </g>
    <g id="text_30">
     <!-- 1.04 -->
     <g style="fill:#262626;" transform="translate(319.171137 67.805903)scale(0.099936 -0.099936)">
      <use transform="scale(0.996264)" xlink:href="#CMR17-31"/>
      <use transform="translate(45.690477 0)scale(0.996264)" xlink:href="#CMR17-2e"/>
      <use transform="translate(70.561536 0)scale(0.996264)" xlink:href="#CMR17-30"/>
      <use transform="translate(116.252013 0)scale(0.996264)" xlink:href="#CMR17-34"/>
     </g>
    </g>
    <g id="patch_23">
     <path d="M 319.171137 81.734154 
L 339.158337 81.734154 
L 339.158337 74.738634 
L 319.171137 74.738634 
z
" style="fill:none;"/>
    </g>
    <g id="text_31">
     <!-- 1.08 -->
     <g style="fill:#262626;" transform="translate(319.171137 81.734154)scale(0.099936 -0.099936)">
      <use transform="scale(0.996264)" xlink:href="#CMR17-31"/>
      <use transform="translate(45.690477 0)scale(0.996264)" xlink:href="#CMR17-2e"/>
      <use transform="translate(70.561536 0)scale(0.996264)" xlink:href="#CMR17-30"/>
      <use transform="translate(116.252013 0)scale(0.996264)" xlink:href="#CMR17-38"/>
     </g>
    </g>
    <g id="patch_24">
     <path d="M 319.171137 95.662406 
L 339.158337 95.662406 
L 339.158337 88.666886 
L 319.171137 88.666886 
z
" style="fill:none;"/>
    </g>
    <g id="text_32">
     <!-- 1.14 -->
     <g style="fill:#262626;" transform="translate(319.171137 95.662406)scale(0.099936 -0.099936)">
      <use transform="scale(0.996264)" xlink:href="#CMR17-31"/>
      <use transform="translate(45.690477 0)scale(0.996264)" xlink:href="#CMR17-2e"/>
      <use transform="translate(70.561536 0)scale(0.996264)" xlink:href="#CMR17-31"/>
      <use transform="translate(116.252013 0)scale(0.996264)" xlink:href="#CMR17-34"/>
     </g>
    </g>
   </g>
  </g>
 </g>
 <defs>
  <clipPath id="p145dd52115">
   <rect height="271.8" width="390.6" x="60.011855" y="23.959639"/>
  </clipPath>
 </defs>
</svg>
