<?xml version="1.0" encoding="utf-8" standalone="no"?>
<!DOCTYPE svg PUBLIC "-//W3C//DTD SVG 1.1//EN"
  "http://www.w3.org/Graphics/SVG/1.1/DTD/svg11.dtd">
<svg height="340.104233pt" version="1.1" viewBox="0 0 745.133072 340.104233" width="745.133072pt" xmlns="http://www.w3.org/2000/svg" xmlns:xlink="http://www.w3.org/1999/xlink">
 <metadata>
  <rdf:RDF xmlns:cc="http://creativecommons.org/ns#" xmlns:dc="http://purl.org/dc/elements/1.1/" xmlns:rdf="http://www.w3.org/1999/02/22-rdf-syntax-ns#">
   <cc:Work>
    <dc:type rdf:resource="http://purl.org/dc/dcmitype/StillImage"/>
    <dc:date>2021-08-24T14:34:31.015538</dc:date>
    <dc:format>image/svg+xml</dc:format>
    <dc:creator>
     <cc:Agent>
      <dc:title>Matplotlib v3.4.2, https://matplotlib.org/</dc:title>
     </cc:Agent>
    </dc:creator>
   </cc:Work>
  </rdf:RDF>
 </metadata>
 <defs>
  <style type="text/css">*{stroke-linecap:butt;stroke-linejoin:round;}</style>
 </defs>
 <g id="figure_1">
  <g id="patch_1">
   <path d="M 0 340.104233 
L 745.133072 340.104233 
L 745.133072 0 
L 0 0 
z
" style="fill:none;"/>
  </g>
  <g id="axes_1">
   <g id="patch_2">
    <path d="M 60.011855 294.962625 
L 450.611855 294.962625 
L 450.611855 23.162625 
L 60.011855 23.162625 
z
" style="fill:none;"/>
   </g>
   <g id="matplotlib.axis_1">
    <g id="xtick_1">
     <g id="line2d_1">
      <defs>
       <path d="M 0 0 
L 0 6 
" id="m53e1ca74d4" style="stroke:#262626;stroke-width:1.25;"/>
      </defs>
      <g>
       <use style="fill:#262626;stroke:#262626;stroke-width:1.25;" x="60.011855" xlink:href="#m53e1ca74d4" y="294.962625"/>
      </g>
     </g>
     <g id="text_1">
      <!-- $\mathdefault{2^{4}}$ -->
      <g style="fill:#262626;" transform="translate(54.427457 313.59502)scale(0.132 -0.132)">
       <defs>
        <path d="M 2669 989 
L 2554 989 
C 2490 536 2438 459 2413 420 
C 2381 369 1920 369 1830 369 
L 602 369 
C 832 619 1280 1072 1824 1597 
C 2214 1967 2669 2402 2669 3035 
C 2669 3790 2067 4224 1395 4224 
C 691 4224 262 3604 262 3030 
C 262 2780 448 2748 525 2748 
C 589 2748 781 2787 781 3010 
C 781 3207 614 3264 525 3264 
C 486 3264 448 3258 422 3245 
C 544 3790 915 4058 1306 4058 
C 1862 4058 2227 3617 2227 3035 
C 2227 2479 1901 2000 1536 1584 
L 262 146 
L 262 0 
L 2515 0 
L 2669 989 
z
" id="CMR17-32" transform="scale(0.015625)"/>
        <path d="M 2150 4122 
C 2150 4256 2144 4256 2029 4256 
L 128 1254 
L 128 1088 
L 1779 1088 
L 1779 457 
C 1779 224 1766 160 1318 160 
L 1197 160 
L 1197 0 
C 1402 0 1747 0 1965 0 
C 2182 0 2528 0 2733 0 
L 2733 160 
L 2611 160 
C 2163 160 2150 224 2150 457 
L 2150 1088 
L 2803 1088 
L 2803 1254 
L 2150 1254 
L 2150 4122 
z
M 1798 3703 
L 1798 1254 
L 256 1254 
L 1798 3703 
z
" id="CMR17-34" transform="scale(0.015625)"/>
       </defs>
       <use transform="scale(0.996264)" xlink:href="#CMR17-32"/>
       <use transform="translate(45.690477 36.153639)scale(0.697382)" xlink:href="#CMR17-34"/>
      </g>
     </g>
    </g>
    <g id="xtick_2">
     <g id="line2d_2">
      <g>
       <use style="fill:#262626;stroke:#262626;stroke-width:1.25;" x="113.275491" xlink:href="#m53e1ca74d4" y="294.962625"/>
      </g>
     </g>
     <g id="text_2">
      <!-- $\mathdefault{2^{7}}$ -->
      <g style="fill:#262626;" transform="translate(107.691094 313.59502)scale(0.132 -0.132)">
       <defs>
        <path d="M 2886 3941 
L 2886 4081 
L 1382 4081 
C 634 4081 621 4165 595 4288 
L 480 4288 
L 294 3094 
L 410 3094 
C 429 3215 474 3540 550 3661 
C 589 3712 1062 3712 1171 3712 
L 2579 3712 
L 1869 2661 
C 1395 1954 1069 999 1069 165 
C 1069 89 1069 -128 1299 -128 
C 1530 -128 1530 89 1530 171 
L 1530 465 
C 1530 1508 1709 2196 2003 2636 
L 2886 3941 
z
" id="CMR17-37" transform="scale(0.015625)"/>
       </defs>
       <use transform="scale(0.996264)" xlink:href="#CMR17-32"/>
       <use transform="translate(45.690477 36.153639)scale(0.697382)" xlink:href="#CMR17-37"/>
      </g>
     </g>
    </g>
    <g id="xtick_3">
     <g id="line2d_3">
      <g>
       <use style="fill:#262626;stroke:#262626;stroke-width:1.25;" x="166.539128" xlink:href="#m53e1ca74d4" y="294.962625"/>
      </g>
     </g>
     <g id="text_3">
      <!-- $\mathdefault{2^{10}}$ -->
      <g style="fill:#262626;" transform="translate(158.589469 313.59502)scale(0.132 -0.132)">
       <defs>
        <path d="M 1702 4058 
C 1702 4192 1696 4192 1606 4192 
C 1357 3916 979 3827 621 3827 
C 602 3827 570 3827 563 3808 
C 557 3795 557 3782 557 3648 
C 755 3648 1088 3686 1344 3839 
L 1344 461 
C 1344 236 1331 160 781 160 
L 589 160 
L 589 0 
C 896 0 1216 0 1523 0 
C 1830 0 2150 0 2458 0 
L 2458 160 
L 2266 160 
C 1715 160 1702 230 1702 458 
L 1702 4058 
z
" id="CMR17-31" transform="scale(0.015625)"/>
        <path d="M 2688 2025 
C 2688 2416 2682 3080 2413 3591 
C 2176 4039 1798 4198 1466 4198 
C 1158 4198 768 4058 525 3597 
C 269 3118 243 2524 243 2025 
C 243 1661 250 1106 448 619 
C 723 -39 1216 -128 1466 -128 
C 1760 -128 2208 -7 2470 600 
C 2662 1042 2688 1559 2688 2025 
z
M 1466 -26 
C 1056 -26 813 325 723 812 
C 653 1188 653 1738 653 2096 
C 653 2588 653 2997 736 3387 
C 858 3929 1216 4096 1466 4096 
C 1728 4096 2067 3923 2189 3400 
C 2272 3036 2278 2607 2278 2096 
C 2278 1680 2278 1169 2202 792 
C 2067 95 1690 -26 1466 -26 
z
" id="CMR17-30" transform="scale(0.015625)"/>
       </defs>
       <use transform="scale(0.996264)" xlink:href="#CMR17-32"/>
       <use transform="translate(45.690477 36.153639)scale(0.697382)" xlink:href="#CMR17-31"/>
       <use transform="translate(77.673659 36.153639)scale(0.697382)" xlink:href="#CMR17-30"/>
      </g>
     </g>
    </g>
    <g id="xtick_4">
     <g id="line2d_4">
      <g>
       <use style="fill:#262626;stroke:#262626;stroke-width:1.25;" x="219.802764" xlink:href="#m53e1ca74d4" y="294.962625"/>
      </g>
     </g>
     <g id="text_4">
      <!-- $\mathdefault{2^{13}}$ -->
      <g style="fill:#262626;" transform="translate(211.853106 313.59502)scale(0.132 -0.132)">
       <defs>
        <path d="M 1414 2157 
C 1984 2157 2234 1662 2234 1090 
C 2234 320 1824 25 1453 25 
C 1114 25 563 194 390 693 
C 422 680 454 680 486 680 
C 640 680 755 782 755 948 
C 755 1133 614 1216 486 1216 
C 378 1216 211 1165 211 926 
C 211 335 787 -128 1466 -128 
C 2176 -128 2720 430 2720 1085 
C 2720 1707 2208 2157 1600 2227 
C 2086 2328 2554 2756 2554 3329 
C 2554 3820 2048 4179 1472 4179 
C 890 4179 378 3829 378 3329 
C 378 3110 544 3072 627 3072 
C 762 3072 877 3155 877 3321 
C 877 3486 762 3569 627 3569 
C 602 3569 570 3569 544 3557 
C 730 3959 1235 4032 1459 4032 
C 1683 4032 2106 3925 2106 3320 
C 2106 3143 2080 2828 1862 2550 
C 1670 2304 1453 2304 1242 2284 
C 1210 2284 1062 2269 1037 2269 
C 992 2263 966 2257 966 2208 
C 966 2163 973 2157 1101 2157 
L 1414 2157 
z
" id="CMR17-33" transform="scale(0.015625)"/>
       </defs>
       <use transform="scale(0.996264)" xlink:href="#CMR17-32"/>
       <use transform="translate(45.690477 36.153639)scale(0.697382)" xlink:href="#CMR17-31"/>
       <use transform="translate(77.673659 36.153639)scale(0.697382)" xlink:href="#CMR17-33"/>
      </g>
     </g>
    </g>
    <g id="xtick_5">
     <g id="line2d_5">
      <g>
       <use style="fill:#262626;stroke:#262626;stroke-width:1.25;" x="273.0664" xlink:href="#m53e1ca74d4" y="294.962625"/>
      </g>
     </g>
     <g id="text_5">
      <!-- $\mathdefault{2^{16}}$ -->
      <g style="fill:#262626;" transform="translate(265.116742 313.59502)scale(0.132 -0.132)">
       <defs>
        <path d="M 678 2176 
C 678 3690 1395 4032 1811 4032 
C 1946 4032 2272 4009 2400 3776 
C 2298 3776 2106 3776 2106 3553 
C 2106 3381 2246 3323 2336 3323 
C 2394 3323 2566 3348 2566 3560 
C 2566 3954 2246 4179 1805 4179 
C 1043 4179 243 3390 243 1984 
C 243 253 966 -128 1478 -128 
C 2099 -128 2688 427 2688 1283 
C 2688 2081 2170 2662 1517 2662 
C 1126 2662 838 2407 678 1960 
L 678 2176 
z
M 1478 25 
C 691 25 691 1200 691 1436 
C 691 1896 909 2560 1504 2560 
C 1613 2560 1926 2560 2138 2120 
C 2253 1870 2253 1609 2253 1289 
C 2253 944 2253 690 2118 434 
C 1978 171 1773 25 1478 25 
z
" id="CMR17-36" transform="scale(0.015625)"/>
       </defs>
       <use transform="scale(0.996264)" xlink:href="#CMR17-32"/>
       <use transform="translate(45.690477 36.153639)scale(0.697382)" xlink:href="#CMR17-31"/>
       <use transform="translate(77.673659 36.153639)scale(0.697382)" xlink:href="#CMR17-36"/>
      </g>
     </g>
    </g>
    <g id="xtick_6">
     <g id="line2d_6">
      <g>
       <use style="fill:#262626;stroke:#262626;stroke-width:1.25;" x="326.330037" xlink:href="#m53e1ca74d4" y="294.962625"/>
      </g>
     </g>
     <g id="text_6">
      <!-- $\mathdefault{2^{19}}$ -->
      <g style="fill:#262626;" transform="translate(318.380379 313.59502)scale(0.132 -0.132)">
       <defs>
        <path d="M 2253 1864 
C 2253 464 1670 31 1190 31 
C 1043 31 685 31 538 294 
C 704 268 826 357 826 518 
C 826 692 685 749 595 749 
C 538 749 365 723 365 506 
C 365 71 742 -128 1203 -128 
C 1939 -128 2688 674 2688 2073 
C 2688 3817 1971 4179 1485 4179 
C 851 4179 243 3628 243 2778 
C 243 1991 762 1408 1414 1408 
C 1952 1408 2189 1903 2253 2112 
L 2253 1864 
z
M 1427 1510 
C 1254 1510 1011 1542 813 1922 
C 678 2169 678 2461 678 2771 
C 678 3146 678 3405 858 3684 
C 947 3817 1114 4032 1485 4032 
C 2240 4032 2240 2885 2240 2632 
C 2240 2182 2035 1510 1427 1510 
z
" id="CMR17-39" transform="scale(0.015625)"/>
       </defs>
       <use transform="scale(0.996264)" xlink:href="#CMR17-32"/>
       <use transform="translate(45.690477 36.153639)scale(0.697382)" xlink:href="#CMR17-31"/>
       <use transform="translate(77.673659 36.153639)scale(0.697382)" xlink:href="#CMR17-39"/>
      </g>
     </g>
    </g>
    <g id="xtick_7">
     <g id="line2d_7">
      <g>
       <use style="fill:#262626;stroke:#262626;stroke-width:1.25;" x="379.593673" xlink:href="#m53e1ca74d4" y="294.962625"/>
      </g>
     </g>
     <g id="text_7">
      <!-- $\mathdefault{2^{22}}$ -->
      <g style="fill:#262626;" transform="translate(371.644015 313.59502)scale(0.132 -0.132)">
       <use transform="scale(0.996264)" xlink:href="#CMR17-32"/>
       <use transform="translate(45.690477 36.153639)scale(0.697382)" xlink:href="#CMR17-32"/>
       <use transform="translate(77.673659 36.153639)scale(0.697382)" xlink:href="#CMR17-32"/>
      </g>
     </g>
    </g>
    <g id="xtick_8">
     <g id="line2d_8">
      <g>
       <use style="fill:#262626;stroke:#262626;stroke-width:1.25;" x="432.857309" xlink:href="#m53e1ca74d4" y="294.962625"/>
      </g>
     </g>
     <g id="text_8">
      <!-- $\mathdefault{2^{25}}$ -->
      <g style="fill:#262626;" transform="translate(424.907651 313.59502)scale(0.132 -0.132)">
       <defs>
        <path d="M 730 3692 
C 794 3666 1056 3584 1325 3584 
C 1920 3584 2246 3911 2432 4100 
C 2432 4157 2432 4192 2394 4192 
C 2387 4192 2374 4192 2323 4163 
C 2099 4058 1837 3973 1517 3973 
C 1325 3973 1037 3999 723 4139 
C 653 4171 640 4171 634 4171 
C 602 4171 595 4164 595 4037 
L 595 2203 
C 595 2089 595 2057 659 2057 
C 691 2057 704 2070 736 2114 
C 941 2401 1222 2522 1542 2522 
C 1766 2522 2246 2382 2246 1289 
C 2246 1085 2246 715 2054 421 
C 1894 159 1645 25 1370 25 
C 947 25 518 320 403 814 
C 429 807 480 795 506 795 
C 589 795 749 840 749 1038 
C 749 1210 627 1280 506 1280 
C 358 1280 262 1190 262 1011 
C 262 454 704 -128 1382 -128 
C 2042 -128 2669 440 2669 1264 
C 2669 2030 2170 2624 1549 2624 
C 1222 2624 947 2503 730 2274 
L 730 3692 
z
" id="CMR17-35" transform="scale(0.015625)"/>
       </defs>
       <use transform="scale(0.996264)" xlink:href="#CMR17-32"/>
       <use transform="translate(45.690477 36.153639)scale(0.697382)" xlink:href="#CMR17-32"/>
       <use transform="translate(77.673659 36.153639)scale(0.697382)" xlink:href="#CMR17-35"/>
      </g>
     </g>
    </g>
    <g id="text_9">
     <!-- Matrix size -->
     <g style="fill:#262626;" transform="translate(220.937858 330.114706)scale(0.144 -0.144)">
      <defs>
       <path d="M 1338 4224 
C 1299 4320 1293 4320 1158 4320 
L 339 4320 
L 339 4160 
C 781 4160 851 4160 851 3875 
L 851 610 
C 851 451 851 153 339 153 
L 339 -13 
C 486 0 755 0 915 0 
C 1075 0 1344 0 1491 -13 
L 1491 153 
C 979 153 979 451 979 610 
L 979 4135 
L 986 4135 
L 2490 89 
C 2515 25 2528 -13 2579 -13 
C 2630 -13 2643 25 2669 89 
L 4186 4166 
L 4192 4166 
L 4192 438 
C 4192 153 4122 153 3680 153 
L 3680 -13 
C 3853 0 4198 0 4384 0 
C 4570 0 4922 0 5094 -13 
L 5094 153 
C 4653 153 4582 153 4582 438 
L 4582 3875 
C 4582 4160 4653 4160 5094 4160 
L 5094 4320 
L 4282 4320 
C 4147 4320 4141 4314 4102 4218 
L 2720 502 
L 1338 4224 
z
" id="CMR17-4d" transform="scale(0.015625)"/>
       <path d="M 2304 1653 
C 2304 2072 2304 2294 2035 2543 
C 1798 2752 1523 2816 1306 2816 
C 800 2816 435 2407 435 1971 
C 435 1728 627 1728 666 1728 
C 749 1728 896 1778 896 1954 
C 896 2112 774 2181 666 2181 
C 640 2181 608 2174 589 2168 
C 723 2592 1069 2714 1293 2714 
C 1613 2714 1965 2429 1965 1885 
L 1965 1600 
C 1587 1600 1133 1549 774 1357 
C 371 1133 256 813 256 570 
C 256 77 832 -64 1171 -64 
C 1523 -64 1850 139 1990 511 
C 2003 233 2182 -18 2464 -18 
C 2598 -18 2938 70 2938 567 
L 2938 920 
L 2822 920 
L 2822 562 
C 2822 178 2650 128 2566 128 
C 2304 128 2304 458 2304 738 
L 2304 1653 
z
M 1965 870 
C 1965 317 1568 38 1216 38 
C 896 38 646 275 646 570 
C 646 761 730 1100 1101 1305 
C 1408 1478 1760 1504 1965 1504 
L 1965 870 
z
" id="CMR17-61" transform="scale(0.015625)"/>
       <path d="M 966 2560 
L 1862 2560 
L 1862 2725 
L 966 2725 
L 966 3904 
L 851 3904 
C 838 3245 614 2668 70 2668 
L 70 2560 
L 627 2560 
L 627 771 
C 627 650 627 -64 1370 -64 
C 1747 -64 1965 306 1965 777 
L 1965 1140 
L 1850 1140 
L 1850 783 
C 1850 344 1677 51 1408 51 
C 1222 51 966 178 966 758 
L 966 2560 
z
" id="CMR17-74" transform="scale(0.015625)"/>
       <path d="M 960 1497 
C 960 2112 1222 2688 1702 2688 
C 1747 2688 1792 2682 1837 2662 
C 1837 2662 1696 2617 1696 2452 
C 1696 2298 1818 2234 1914 2234 
C 1990 2234 2131 2279 2131 2458 
C 2131 2663 1926 2790 1709 2790 
C 1222 2790 1011 2317 947 2093 
L 941 2093 
L 941 2790 
L 198 2720 
L 198 2554 
C 576 2554 634 2515 634 2208 
L 634 428 
C 634 184 608 153 198 153 
L 198 -13 
C 352 0 646 0 813 0 
C 998 0 1325 0 1498 -13 
L 1498 153 
C 1037 153 960 153 960 440 
L 960 1497 
z
" id="CMR17-72" transform="scale(0.015625)"/>
       <path d="M 992 3909 
C 992 4049 877 4170 730 4170 
C 589 4170 467 4056 467 3909 
C 467 3769 582 3648 730 3648 
C 870 3648 992 3763 992 3909 
z
M 243 2706 
L 243 2541 
C 602 2541 653 2502 653 2197 
L 653 427 
C 653 184 627 153 218 153 
L 218 -13 
C 371 0 646 0 806 0 
C 960 0 1222 0 1370 -13 
L 1370 153 
C 992 153 979 191 979 420 
L 979 2776 
L 243 2706 
z
" id="CMR17-69" transform="scale(0.015625)"/>
       <path d="M 1664 1477 
C 1856 1726 2074 2006 2253 2216 
C 2464 2458 2707 2560 2989 2560 
L 2989 2726 
C 2880 2726 2656 2726 2541 2726 
C 2368 2726 2170 2726 2022 2732 
L 2022 2566 
C 2112 2553 2163 2489 2163 2400 
C 2163 2285 2099 2215 2067 2171 
L 1594 1573 
L 1030 2306 
C 973 2376 973 2388 973 2420 
C 973 2497 1037 2560 1146 2560 
L 1146 2732 
C 992 2726 717 2726 557 2726 
C 384 2726 179 2726 38 2732 
L 38 2560 
C 384 2560 461 2534 614 2343 
L 1350 1395 
C 1363 1382 1395 1344 1395 1325 
C 1395 1299 838 619 768 530 
C 480 185 179 160 6 160 
L 6 0 
C 115 0 339 0 454 0 
C 582 0 864 0 979 -6 
L 979 160 
C 941 166 838 179 838 325 
C 838 440 890 510 947 586 
L 1478 1236 
L 2035 512 
C 2086 442 2163 346 2163 301 
C 2163 211 2086 160 1984 160 
L 1984 -6 
C 2138 0 2413 0 2573 0 
C 2746 0 2950 0 3091 -6 
L 3091 160 
C 2771 160 2675 172 2522 370 
L 1664 1477 
z
" id="CMR17-78" transform="scale(0.015625)"/>
       <path d="M 1978 2697 
C 1978 2813 1971 2819 1933 2819 
C 1907 2819 1901 2813 1824 2717 
C 1805 2691 1747 2626 1728 2601 
C 1523 2819 1235 2819 1126 2819 
C 416 2819 160 2447 160 2076 
C 160 1498 813 1365 998 1325 
C 1402 1243 1542 1217 1677 1101 
C 1760 1025 1901 884 1901 654 
C 1901 384 1747 38 1158 38 
C 602 38 403 460 288 1021 
C 269 1110 269 1117 218 1117 
C 166 1117 160 1110 160 983 
L 160 63 
C 160 -51 166 -58 205 -58 
C 237 -58 243 -51 275 0 
C 314 57 410 211 448 276 
C 576 103 800 -64 1158 -64 
C 1792 -64 2131 283 2131 784 
C 2131 1112 1958 1285 1875 1362 
C 1683 1561 1459 1606 1190 1657 
C 838 1735 390 1825 390 2217 
C 390 2383 480 2737 1126 2737 
C 1811 2737 1850 2094 1862 1888 
C 1869 1856 1901 1849 1920 1849 
C 1978 1849 1978 1869 1978 1978 
L 1978 2697 
z
" id="CMR17-73" transform="scale(0.015625)"/>
       <path d="M 2310 2605 
C 2362 2670 2362 2682 2362 2695 
C 2362 2752 2336 2752 2221 2752 
L 275 2752 
L 211 1760 
L 326 1760 
C 371 2381 442 2650 1178 2650 
L 1958 2650 
L 128 96 
C 128 0 134 0 269 0 
L 2291 0 
L 2381 1152 
L 2266 1152 
C 2214 442 2131 115 1350 115 
L 531 115 
L 2310 2605 
z
" id="CMR17-7a" transform="scale(0.015625)"/>
       <path d="M 2438 1472 
C 2464 1498 2464 1511 2464 1576 
C 2464 2238 2118 2816 1389 2816 
C 710 2816 173 2169 173 1383 
C 173 551 781 -64 1459 -64 
C 2176 -64 2458 607 2458 740 
C 2458 784 2419 784 2406 784 
C 2362 784 2355 771 2330 696 
C 2189 265 1837 51 1504 51 
C 1229 51 954 203 781 480 
C 582 803 582 1176 582 1472 
L 2438 1472 
z
M 589 1568 
C 634 2505 1126 2714 1382 2714 
C 1818 2714 2112 2297 2118 1568 
L 589 1568 
z
" id="CMR17-65" transform="scale(0.015625)"/>
      </defs>
      <use transform="scale(0.996264)" xlink:href="#CMR17-4d"/>
      <use transform="translate(84.686941 0)scale(0.996264)" xlink:href="#CMR17-61"/>
      <use transform="translate(130.377418 0)scale(0.996264)" xlink:href="#CMR17-74"/>
      <use transform="translate(165.658185 0)scale(0.996264)" xlink:href="#CMR17-72"/>
      <use transform="translate(200.938953 0)scale(0.996264)" xlink:href="#CMR17-69"/>
      <use transform="translate(225.810012 0)scale(0.996264)" xlink:href="#CMR17-78"/>
      <use transform="translate(304.178894 0)scale(0.996264)" xlink:href="#CMR17-73"/>
      <use transform="translate(339.980232 0)scale(0.996264)" xlink:href="#CMR17-69"/>
      <use transform="translate(364.85129 0)scale(0.996264)" xlink:href="#CMR17-7a"/>
      <use transform="translate(405.336951 0)scale(0.996264)" xlink:href="#CMR17-65"/>
     </g>
    </g>
   </g>
   <g id="matplotlib.axis_2">
    <g id="ytick_1">
     <g id="line2d_9">
      <path clip-path="url(#p4edb9562b8)" d="M 60.011855 270.991312 
L 450.611855 270.991312 
" style="fill:none;stroke:#cccccc;stroke-linecap:round;"/>
     </g>
     <g id="line2d_10">
      <defs>
       <path d="M 0 0 
L -6 0 
" id="mbf843a5728" style="stroke:#262626;stroke-width:1.25;"/>
      </defs>
      <g>
       <use style="fill:#262626;stroke:#262626;stroke-width:1.25;" x="60.011855" xlink:href="#mbf843a5728" y="270.991312"/>
      </g>
     </g>
     <g id="text_10">
      <!-- $\mathdefault{10^{-3}}$ -->
      <g style="fill:#262626;" transform="translate(25.54618 275.55751)scale(0.132 -0.132)">
       <defs>
        <path d="M 4218 1472 
C 4326 1472 4442 1472 4442 1600 
C 4442 1728 4326 1728 4218 1728 
L 755 1728 
C 646 1728 531 1728 531 1600 
C 531 1472 646 1472 755 1472 
L 4218 1472 
z
" id="CMSY10-0" transform="scale(0.015625)"/>
       </defs>
       <use transform="scale(0.996264)" xlink:href="#CMR17-31"/>
       <use transform="translate(45.690477 0)scale(0.996264)" xlink:href="#CMR17-30"/>
       <use transform="translate(91.380954 36.153639)scale(0.697382)" xlink:href="#CMSY10-0"/>
       <use transform="translate(145.621947 36.153639)scale(0.697382)" xlink:href="#CMR17-33"/>
      </g>
     </g>
    </g>
    <g id="ytick_2">
     <g id="line2d_11">
      <path clip-path="url(#p4edb9562b8)" d="M 60.011855 230.994515 
L 450.611855 230.994515 
" style="fill:none;stroke:#cccccc;stroke-linecap:round;"/>
     </g>
     <g id="line2d_12">
      <g>
       <use style="fill:#262626;stroke:#262626;stroke-width:1.25;" x="60.011855" xlink:href="#mbf843a5728" y="230.994515"/>
      </g>
     </g>
     <g id="text_11">
      <!-- $\mathdefault{10^{-2}}$ -->
      <g style="fill:#262626;" transform="translate(25.54618 235.560712)scale(0.132 -0.132)">
       <use transform="scale(0.996264)" xlink:href="#CMR17-31"/>
       <use transform="translate(45.690477 0)scale(0.996264)" xlink:href="#CMR17-30"/>
       <use transform="translate(91.380954 36.153639)scale(0.697382)" xlink:href="#CMSY10-0"/>
       <use transform="translate(145.621947 36.153639)scale(0.697382)" xlink:href="#CMR17-32"/>
      </g>
     </g>
    </g>
    <g id="ytick_3">
     <g id="line2d_13">
      <path clip-path="url(#p4edb9562b8)" d="M 60.011855 190.997718 
L 450.611855 190.997718 
" style="fill:none;stroke:#cccccc;stroke-linecap:round;"/>
     </g>
     <g id="line2d_14">
      <g>
       <use style="fill:#262626;stroke:#262626;stroke-width:1.25;" x="60.011855" xlink:href="#mbf843a5728" y="190.997718"/>
      </g>
     </g>
     <g id="text_12">
      <!-- $\mathdefault{10^{-1}}$ -->
      <g style="fill:#262626;" transform="translate(25.54618 195.563915)scale(0.132 -0.132)">
       <use transform="scale(0.996264)" xlink:href="#CMR17-31"/>
       <use transform="translate(45.690477 0)scale(0.996264)" xlink:href="#CMR17-30"/>
       <use transform="translate(91.380954 36.153639)scale(0.697382)" xlink:href="#CMSY10-0"/>
       <use transform="translate(145.621947 36.153639)scale(0.697382)" xlink:href="#CMR17-31"/>
      </g>
     </g>
    </g>
    <g id="ytick_4">
     <g id="line2d_15">
      <path clip-path="url(#p4edb9562b8)" d="M 60.011855 151.00092 
L 450.611855 151.00092 
" style="fill:none;stroke:#cccccc;stroke-linecap:round;"/>
     </g>
     <g id="line2d_16">
      <g>
       <use style="fill:#262626;stroke:#262626;stroke-width:1.25;" x="60.011855" xlink:href="#mbf843a5728" y="151.00092"/>
      </g>
     </g>
     <g id="text_13">
      <!-- $\mathdefault{10^{0}}$ -->
      <g style="fill:#262626;" transform="translate(32.904786 155.567118)scale(0.132 -0.132)">
       <use transform="scale(0.996264)" xlink:href="#CMR17-31"/>
       <use transform="translate(45.690477 0)scale(0.996264)" xlink:href="#CMR17-30"/>
       <use transform="translate(91.380954 36.153639)scale(0.697382)" xlink:href="#CMR17-30"/>
      </g>
     </g>
    </g>
    <g id="ytick_5">
     <g id="line2d_17">
      <path clip-path="url(#p4edb9562b8)" d="M 60.011855 111.004123 
L 450.611855 111.004123 
" style="fill:none;stroke:#cccccc;stroke-linecap:round;"/>
     </g>
     <g id="line2d_18">
      <g>
       <use style="fill:#262626;stroke:#262626;stroke-width:1.25;" x="60.011855" xlink:href="#mbf843a5728" y="111.004123"/>
      </g>
     </g>
     <g id="text_14">
      <!-- $\mathdefault{10^{1}}$ -->
      <g style="fill:#262626;" transform="translate(32.904786 115.57032)scale(0.132 -0.132)">
       <use transform="scale(0.996264)" xlink:href="#CMR17-31"/>
       <use transform="translate(45.690477 0)scale(0.996264)" xlink:href="#CMR17-30"/>
       <use transform="translate(91.380954 36.153639)scale(0.697382)" xlink:href="#CMR17-31"/>
      </g>
     </g>
    </g>
    <g id="ytick_6">
     <g id="line2d_19">
      <path clip-path="url(#p4edb9562b8)" d="M 60.011855 71.007326 
L 450.611855 71.007326 
" style="fill:none;stroke:#cccccc;stroke-linecap:round;"/>
     </g>
     <g id="line2d_20">
      <g>
       <use style="fill:#262626;stroke:#262626;stroke-width:1.25;" x="60.011855" xlink:href="#mbf843a5728" y="71.007326"/>
      </g>
     </g>
     <g id="text_15">
      <!-- $\mathdefault{10^{2}}$ -->
      <g style="fill:#262626;" transform="translate(32.904786 75.573523)scale(0.132 -0.132)">
       <use transform="scale(0.996264)" xlink:href="#CMR17-31"/>
       <use transform="translate(45.690477 0)scale(0.996264)" xlink:href="#CMR17-30"/>
       <use transform="translate(91.380954 36.153639)scale(0.697382)" xlink:href="#CMR17-32"/>
      </g>
     </g>
    </g>
    <g id="ytick_7">
     <g id="line2d_21">
      <path clip-path="url(#p4edb9562b8)" d="M 60.011855 31.010529 
L 450.611855 31.010529 
" style="fill:none;stroke:#cccccc;stroke-linecap:round;"/>
     </g>
     <g id="line2d_22">
      <g>
       <use style="fill:#262626;stroke:#262626;stroke-width:1.25;" x="60.011855" xlink:href="#mbf843a5728" y="31.010529"/>
      </g>
     </g>
     <g id="text_16">
      <!-- $\mathdefault{10^{3}}$ -->
      <g style="fill:#262626;" transform="translate(32.904786 35.576726)scale(0.132 -0.132)">
       <use transform="scale(0.996264)" xlink:href="#CMR17-31"/>
       <use transform="translate(45.690477 0)scale(0.996264)" xlink:href="#CMR17-30"/>
       <use transform="translate(91.380954 36.153639)scale(0.697382)" xlink:href="#CMR17-33"/>
      </g>
     </g>
    </g>
    <g id="ytick_8">
     <g id="line2d_23">
      <defs>
       <path d="M 0 0 
L -4 0 
" id="mf706b8318e" style="stroke:#262626;"/>
      </defs>
      <g>
       <use style="fill:#262626;stroke:#262626;" x="60.011855" xlink:href="#mf706b8318e" y="291.904787"/>
      </g>
     </g>
    </g>
    <g id="ytick_9">
     <g id="line2d_24">
      <g>
       <use style="fill:#262626;stroke:#262626;" x="60.011855" xlink:href="#mf706b8318e" y="286.907638"/>
      </g>
     </g>
    </g>
    <g id="ytick_10">
     <g id="line2d_25">
      <g>
       <use style="fill:#262626;stroke:#262626;" x="60.011855" xlink:href="#mf706b8318e" y="283.031548"/>
      </g>
     </g>
    </g>
    <g id="ytick_11">
     <g id="line2d_26">
      <g>
       <use style="fill:#262626;stroke:#262626;" x="60.011855" xlink:href="#mf706b8318e" y="279.864552"/>
      </g>
     </g>
    </g>
    <g id="ytick_12">
     <g id="line2d_27">
      <g>
       <use style="fill:#262626;stroke:#262626;" x="60.011855" xlink:href="#mf706b8318e" y="277.186895"/>
      </g>
     </g>
    </g>
    <g id="ytick_13">
     <g id="line2d_28">
      <g>
       <use style="fill:#262626;stroke:#262626;" x="60.011855" xlink:href="#mf706b8318e" y="274.867402"/>
      </g>
     </g>
    </g>
    <g id="ytick_14">
     <g id="line2d_29">
      <g>
       <use style="fill:#262626;stroke:#262626;" x="60.011855" xlink:href="#mf706b8318e" y="272.821465"/>
      </g>
     </g>
    </g>
    <g id="ytick_15">
     <g id="line2d_30">
      <g>
       <use style="fill:#262626;stroke:#262626;" x="60.011855" xlink:href="#mf706b8318e" y="258.951077"/>
      </g>
     </g>
    </g>
    <g id="ytick_16">
     <g id="line2d_31">
      <g>
       <use style="fill:#262626;stroke:#262626;" x="60.011855" xlink:href="#mf706b8318e" y="251.90799"/>
      </g>
     </g>
    </g>
    <g id="ytick_17">
     <g id="line2d_32">
      <g>
       <use style="fill:#262626;stroke:#262626;" x="60.011855" xlink:href="#mf706b8318e" y="246.910841"/>
      </g>
     </g>
    </g>
    <g id="ytick_18">
     <g id="line2d_33">
      <g>
       <use style="fill:#262626;stroke:#262626;" x="60.011855" xlink:href="#mf706b8318e" y="243.034751"/>
      </g>
     </g>
    </g>
    <g id="ytick_19">
     <g id="line2d_34">
      <g>
       <use style="fill:#262626;stroke:#262626;" x="60.011855" xlink:href="#mf706b8318e" y="239.867754"/>
      </g>
     </g>
    </g>
    <g id="ytick_20">
     <g id="line2d_35">
      <g>
       <use style="fill:#262626;stroke:#262626;" x="60.011855" xlink:href="#mf706b8318e" y="237.190097"/>
      </g>
     </g>
    </g>
    <g id="ytick_21">
     <g id="line2d_36">
      <g>
       <use style="fill:#262626;stroke:#262626;" x="60.011855" xlink:href="#mf706b8318e" y="234.870605"/>
      </g>
     </g>
    </g>
    <g id="ytick_22">
     <g id="line2d_37">
      <g>
       <use style="fill:#262626;stroke:#262626;" x="60.011855" xlink:href="#mf706b8318e" y="232.824668"/>
      </g>
     </g>
    </g>
    <g id="ytick_23">
     <g id="line2d_38">
      <g>
       <use style="fill:#262626;stroke:#262626;" x="60.011855" xlink:href="#mf706b8318e" y="218.954279"/>
      </g>
     </g>
    </g>
    <g id="ytick_24">
     <g id="line2d_39">
      <g>
       <use style="fill:#262626;stroke:#262626;" x="60.011855" xlink:href="#mf706b8318e" y="211.911193"/>
      </g>
     </g>
    </g>
    <g id="ytick_25">
     <g id="line2d_40">
      <g>
       <use style="fill:#262626;stroke:#262626;" x="60.011855" xlink:href="#mf706b8318e" y="206.914044"/>
      </g>
     </g>
    </g>
    <g id="ytick_26">
     <g id="line2d_41">
      <g>
       <use style="fill:#262626;stroke:#262626;" x="60.011855" xlink:href="#mf706b8318e" y="203.037953"/>
      </g>
     </g>
    </g>
    <g id="ytick_27">
     <g id="line2d_42">
      <g>
       <use style="fill:#262626;stroke:#262626;" x="60.011855" xlink:href="#mf706b8318e" y="199.870957"/>
      </g>
     </g>
    </g>
    <g id="ytick_28">
     <g id="line2d_43">
      <g>
       <use style="fill:#262626;stroke:#262626;" x="60.011855" xlink:href="#mf706b8318e" y="197.1933"/>
      </g>
     </g>
    </g>
    <g id="ytick_29">
     <g id="line2d_44">
      <g>
       <use style="fill:#262626;stroke:#262626;" x="60.011855" xlink:href="#mf706b8318e" y="194.873808"/>
      </g>
     </g>
    </g>
    <g id="ytick_30">
     <g id="line2d_45">
      <g>
       <use style="fill:#262626;stroke:#262626;" x="60.011855" xlink:href="#mf706b8318e" y="192.827871"/>
      </g>
     </g>
    </g>
    <g id="ytick_31">
     <g id="line2d_46">
      <g>
       <use style="fill:#262626;stroke:#262626;" x="60.011855" xlink:href="#mf706b8318e" y="178.957482"/>
      </g>
     </g>
    </g>
    <g id="ytick_32">
     <g id="line2d_47">
      <g>
       <use style="fill:#262626;stroke:#262626;" x="60.011855" xlink:href="#mf706b8318e" y="171.914396"/>
      </g>
     </g>
    </g>
    <g id="ytick_33">
     <g id="line2d_48">
      <g>
       <use style="fill:#262626;stroke:#262626;" x="60.011855" xlink:href="#mf706b8318e" y="166.917246"/>
      </g>
     </g>
    </g>
    <g id="ytick_34">
     <g id="line2d_49">
      <g>
       <use style="fill:#262626;stroke:#262626;" x="60.011855" xlink:href="#mf706b8318e" y="163.041156"/>
      </g>
     </g>
    </g>
    <g id="ytick_35">
     <g id="line2d_50">
      <g>
       <use style="fill:#262626;stroke:#262626;" x="60.011855" xlink:href="#mf706b8318e" y="159.87416"/>
      </g>
     </g>
    </g>
    <g id="ytick_36">
     <g id="line2d_51">
      <g>
       <use style="fill:#262626;stroke:#262626;" x="60.011855" xlink:href="#mf706b8318e" y="157.196503"/>
      </g>
     </g>
    </g>
    <g id="ytick_37">
     <g id="line2d_52">
      <g>
       <use style="fill:#262626;stroke:#262626;" x="60.011855" xlink:href="#mf706b8318e" y="154.877011"/>
      </g>
     </g>
    </g>
    <g id="ytick_38">
     <g id="line2d_53">
      <g>
       <use style="fill:#262626;stroke:#262626;" x="60.011855" xlink:href="#mf706b8318e" y="152.831073"/>
      </g>
     </g>
    </g>
    <g id="ytick_39">
     <g id="line2d_54">
      <g>
       <use style="fill:#262626;stroke:#262626;" x="60.011855" xlink:href="#mf706b8318e" y="138.960685"/>
      </g>
     </g>
    </g>
    <g id="ytick_40">
     <g id="line2d_55">
      <g>
       <use style="fill:#262626;stroke:#262626;" x="60.011855" xlink:href="#mf706b8318e" y="131.917598"/>
      </g>
     </g>
    </g>
    <g id="ytick_41">
     <g id="line2d_56">
      <g>
       <use style="fill:#262626;stroke:#262626;" x="60.011855" xlink:href="#mf706b8318e" y="126.920449"/>
      </g>
     </g>
    </g>
    <g id="ytick_42">
     <g id="line2d_57">
      <g>
       <use style="fill:#262626;stroke:#262626;" x="60.011855" xlink:href="#mf706b8318e" y="123.044359"/>
      </g>
     </g>
    </g>
    <g id="ytick_43">
     <g id="line2d_58">
      <g>
       <use style="fill:#262626;stroke:#262626;" x="60.011855" xlink:href="#mf706b8318e" y="119.877363"/>
      </g>
     </g>
    </g>
    <g id="ytick_44">
     <g id="line2d_59">
      <g>
       <use style="fill:#262626;stroke:#262626;" x="60.011855" xlink:href="#mf706b8318e" y="117.199705"/>
      </g>
     </g>
    </g>
    <g id="ytick_45">
     <g id="line2d_60">
      <g>
       <use style="fill:#262626;stroke:#262626;" x="60.011855" xlink:href="#mf706b8318e" y="114.880213"/>
      </g>
     </g>
    </g>
    <g id="ytick_46">
     <g id="line2d_61">
      <g>
       <use style="fill:#262626;stroke:#262626;" x="60.011855" xlink:href="#mf706b8318e" y="112.834276"/>
      </g>
     </g>
    </g>
    <g id="ytick_47">
     <g id="line2d_62">
      <g>
       <use style="fill:#262626;stroke:#262626;" x="60.011855" xlink:href="#mf706b8318e" y="98.963887"/>
      </g>
     </g>
    </g>
    <g id="ytick_48">
     <g id="line2d_63">
      <g>
       <use style="fill:#262626;stroke:#262626;" x="60.011855" xlink:href="#mf706b8318e" y="91.920801"/>
      </g>
     </g>
    </g>
    <g id="ytick_49">
     <g id="line2d_64">
      <g>
       <use style="fill:#262626;stroke:#262626;" x="60.011855" xlink:href="#mf706b8318e" y="86.923652"/>
      </g>
     </g>
    </g>
    <g id="ytick_50">
     <g id="line2d_65">
      <g>
       <use style="fill:#262626;stroke:#262626;" x="60.011855" xlink:href="#mf706b8318e" y="83.047562"/>
      </g>
     </g>
    </g>
    <g id="ytick_51">
     <g id="line2d_66">
      <g>
       <use style="fill:#262626;stroke:#262626;" x="60.011855" xlink:href="#mf706b8318e" y="79.880565"/>
      </g>
     </g>
    </g>
    <g id="ytick_52">
     <g id="line2d_67">
      <g>
       <use style="fill:#262626;stroke:#262626;" x="60.011855" xlink:href="#mf706b8318e" y="77.202908"/>
      </g>
     </g>
    </g>
    <g id="ytick_53">
     <g id="line2d_68">
      <g>
       <use style="fill:#262626;stroke:#262626;" x="60.011855" xlink:href="#mf706b8318e" y="74.883416"/>
      </g>
     </g>
    </g>
    <g id="ytick_54">
     <g id="line2d_69">
      <g>
       <use style="fill:#262626;stroke:#262626;" x="60.011855" xlink:href="#mf706b8318e" y="72.837479"/>
      </g>
     </g>
    </g>
    <g id="ytick_55">
     <g id="line2d_70">
      <g>
       <use style="fill:#262626;stroke:#262626;" x="60.011855" xlink:href="#mf706b8318e" y="58.96709"/>
      </g>
     </g>
    </g>
    <g id="ytick_56">
     <g id="line2d_71">
      <g>
       <use style="fill:#262626;stroke:#262626;" x="60.011855" xlink:href="#mf706b8318e" y="51.924004"/>
      </g>
     </g>
    </g>
    <g id="ytick_57">
     <g id="line2d_72">
      <g>
       <use style="fill:#262626;stroke:#262626;" x="60.011855" xlink:href="#mf706b8318e" y="46.926854"/>
      </g>
     </g>
    </g>
    <g id="ytick_58">
     <g id="line2d_73">
      <g>
       <use style="fill:#262626;stroke:#262626;" x="60.011855" xlink:href="#mf706b8318e" y="43.050764"/>
      </g>
     </g>
    </g>
    <g id="ytick_59">
     <g id="line2d_74">
      <g>
       <use style="fill:#262626;stroke:#262626;" x="60.011855" xlink:href="#mf706b8318e" y="39.883768"/>
      </g>
     </g>
    </g>
    <g id="ytick_60">
     <g id="line2d_75">
      <g>
       <use style="fill:#262626;stroke:#262626;" x="60.011855" xlink:href="#mf706b8318e" y="37.206111"/>
      </g>
     </g>
    </g>
    <g id="ytick_61">
     <g id="line2d_76">
      <g>
       <use style="fill:#262626;stroke:#262626;" x="60.011855" xlink:href="#mf706b8318e" y="34.886619"/>
      </g>
     </g>
    </g>
    <g id="ytick_62">
     <g id="line2d_77">
      <g>
       <use style="fill:#262626;stroke:#262626;" x="60.011855" xlink:href="#mf706b8318e" y="32.840682"/>
      </g>
     </g>
    </g>
    <g id="text_17">
     <!-- Elapsed time (sec) -->
     <g style="fill:#262626;" transform="translate(17.959639 215.815751)rotate(-90)scale(0.144 -0.144)">
      <defs>
       <path d="M 3885 1615 
L 3770 1615 
C 3629 676 3546 166 2419 166 
L 1530 166 
C 1274 166 1261 197 1261 414 
L 1261 2176 
L 1862 2176 
C 2464 2176 2522 1960 2522 1430 
L 2637 1430 
L 2637 3081 
L 2522 3081 
C 2522 2557 2464 2342 1862 2342 
L 1261 2342 
L 1261 3913 
C 1261 4128 1274 4160 1530 4160 
L 2406 4160 
C 3398 4160 3514 3769 3603 2929 
L 3718 2929 
L 3565 4325 
L 326 4325 
L 326 4160 
C 768 4160 838 4160 838 3874 
L 838 451 
C 838 166 768 166 326 166 
L 326 0 
L 3654 0 
L 3885 1615 
z
" id="CMR17-45" transform="scale(0.015625)"/>
       <path d="M 979 4396 
L 218 4326 
L 218 4160 
C 595 4160 653 4122 653 3817 
L 653 426 
C 653 184 627 153 218 153 
L 218 -13 
C 371 0 653 0 813 0 
C 979 0 1261 0 1414 -13 
L 1414 153 
C 1005 153 979 178 979 426 
L 979 4396 
z
" id="CMR17-6c" transform="scale(0.015625)"/>
       <path d="M 1408 -1063 
C 998 -1063 973 -1037 973 -789 
L 973 402 
C 1158 134 1427 -38 1766 -38 
C 2406 -38 3053 523 3053 1388 
C 3053 2191 2496 2802 1837 2802 
C 1453 2802 1139 2592 960 2338 
L 960 2802 
L 198 2732 
L 198 2567 
C 576 2567 634 2528 634 2223 
L 634 -789 
C 634 -1031 608 -1063 198 -1063 
L 198 -1228 
C 352 -1216 634 -1216 800 -1216 
C 966 -1216 1254 -1216 1408 -1228 
L 1408 -1063 
z
M 973 2012 
C 973 2102 973 2235 1222 2471 
C 1254 2497 1472 2688 1792 2688 
C 2259 2688 2643 2108 2643 1382 
C 2643 656 2234 64 1728 64 
C 1498 64 1248 172 1056 472 
C 973 612 973 650 973 752 
L 973 2012 
z
" id="CMR17-70" transform="scale(0.015625)"/>
       <path d="M 1869 4326 
L 1869 4160 
C 2246 4160 2304 4122 2304 3820 
L 2304 2345 
C 2278 2377 2016 2790 1498 2790 
C 845 2790 211 2208 211 1364 
C 211 525 806 -64 1434 -64 
C 1978 -64 2259 337 2291 380 
L 2291 -63 
L 3066 -63 
L 3066 128 
C 2688 128 2630 166 2630 473 
L 2630 4396 
L 1869 4326 
z
M 2291 755 
C 2291 563 2176 390 2029 262 
C 1811 70 1594 38 1472 38 
C 1286 38 621 134 621 1356 
C 621 2612 1363 2688 1530 2688 
C 1824 2688 2061 2522 2208 2291 
C 2291 2157 2291 2138 2291 2023 
L 2291 755 
z
" id="CMR17-64" transform="scale(0.015625)"/>
       <path d="M 4326 1933 
C 4326 2252 4269 2790 3507 2790 
C 3072 2790 2771 2496 2656 2151 
L 2650 2151 
C 2573 2676 2195 2790 1837 2790 
C 1331 2790 1069 2400 973 2144 
L 966 2144 
L 966 2790 
L 211 2720 
L 211 2554 
C 589 2554 646 2515 646 2208 
L 646 428 
C 646 184 621 153 211 153 
L 211 -13 
C 365 0 646 0 813 0 
C 979 0 1267 0 1421 -13 
L 1421 153 
C 1011 153 986 178 986 428 
L 986 1658 
C 986 2247 1344 2688 1792 2688 
C 2266 2688 2317 2266 2317 1958 
L 2317 428 
C 2317 184 2291 153 1882 153 
L 1882 -13 
C 2035 0 2317 0 2483 0 
C 2650 0 2938 0 3091 -13 
L 3091 153 
C 2682 153 2656 178 2656 428 
L 2656 1658 
C 2656 2247 3014 2688 3462 2688 
C 3936 2688 3987 2266 3987 1958 
L 3987 428 
C 3987 184 3962 153 3552 153 
L 3552 -13 
C 3706 0 3987 0 4154 0 
C 4320 0 4608 0 4762 -13 
L 4762 153 
C 4352 153 4326 178 4326 428 
L 4326 1933 
z
" id="CMR17-6d" transform="scale(0.015625)"/>
       <path d="M 1958 -1561 
C 1958 -1555 1958 -1542 1939 -1523 
C 1645 -1224 858 -407 858 1581 
C 858 3569 1632 4379 1946 4697 
C 1946 4704 1958 4717 1958 4736 
C 1958 4755 1939 4768 1914 4768 
C 1843 4768 1299 4296 986 3594 
C 666 2887 576 2199 576 1588 
C 576 1128 621 351 1005 -471 
C 1312 -1135 1837 -1600 1914 -1600 
C 1946 -1600 1958 -1587 1958 -1561 
z
" id="CMR17-28" transform="scale(0.015625)"/>
       <path d="M 2234 2240 
C 2112 2240 1933 2240 1933 2017 
C 1933 1838 2080 1787 2163 1787 
C 2208 1787 2394 1807 2394 2024 
C 2394 2467 1958 2803 1466 2803 
C 787 2803 211 2178 211 1363 
C 211 516 813 -64 1466 -64 
C 2259 -64 2458 677 2458 748 
C 2458 774 2451 793 2406 793 
C 2362 793 2355 787 2330 703 
C 2163 180 1798 51 1523 51 
C 1114 51 621 427 621 1369 
C 621 2338 1094 2688 1472 2688 
C 1722 2688 2093 2573 2234 2240 
z
" id="CMR17-63" transform="scale(0.015625)"/>
       <path d="M 1683 1581 
C 1683 2040 1638 2817 1254 3639 
C 947 4303 422 4768 346 4768 
C 326 4768 301 4761 301 4729 
C 301 4717 307 4710 314 4697 
C 621 4378 1402 3568 1402 1584 
C 1402 -407 627 -1217 314 -1537 
C 307 -1549 301 -1556 301 -1568 
C 301 -1600 326 -1600 346 -1600 
C 416 -1600 960 -1128 1274 -426 
C 1594 281 1683 969 1683 1581 
z
" id="CMR17-29" transform="scale(0.015625)"/>
      </defs>
      <use transform="scale(0.996264)" xlink:href="#CMR17-45"/>
      <use transform="translate(62.586301 0)scale(0.996264)" xlink:href="#CMR17-6c"/>
      <use transform="translate(87.457359 0)scale(0.996264)" xlink:href="#CMR17-61"/>
      <use transform="translate(133.147836 0)scale(0.996264)" xlink:href="#CMR17-70"/>
      <use transform="translate(184.043206 0)scale(0.996264)" xlink:href="#CMR17-73"/>
      <use transform="translate(219.844544 0)scale(0.996264)" xlink:href="#CMR17-65"/>
      <use transform="translate(260.330204 0)scale(0.996264)" xlink:href="#CMR17-64"/>
      <use transform="translate(341.30154 0)scale(0.996264)" xlink:href="#CMR17-74"/>
      <use transform="translate(376.582308 0)scale(0.996264)" xlink:href="#CMR17-69"/>
      <use transform="translate(401.453366 0)scale(0.996264)" xlink:href="#CMR17-6d"/>
      <use transform="translate(478.372956 0)scale(0.996264)" xlink:href="#CMR17-65"/>
      <use transform="translate(548.934583 0)scale(0.996264)" xlink:href="#CMR17-28"/>
      <use transform="translate(584.215351 0)scale(0.996264)" xlink:href="#CMR17-73"/>
      <use transform="translate(620.016689 0)scale(0.996264)" xlink:href="#CMR17-65"/>
      <use transform="translate(660.502349 0)scale(0.996264)" xlink:href="#CMR17-63"/>
      <use transform="translate(700.988009 0)scale(0.996264)" xlink:href="#CMR17-29"/>
     </g>
    </g>
   </g>
   <g id="line2d_78">
    <path clip-path="url(#p4edb9562b8)" d="M 77.7664 251.087798 
L 95.520946 257.21506 
L 113.275491 257.839432 
L 131.030037 255.104598 
L 148.784582 251.394005 
L 166.539128 246.369604 
L 184.293673 238.082652 
L 202.048218 228.242029 
L 219.802764 217.453317 
L 237.557309 205.682775 
L 255.311855 193.79631 
L 273.0664 181.656263 
L 290.820946 169.534595 
L 308.575491 154.646507 
L 326.330037 133.981823 
L 344.084582 120.020283 
L 361.839128 107.678835 
L 379.593673 96.088593 
L 397.348218 82.013867 
L 415.102764 68.959717 
L 432.857309 56.250844 
" style="fill:none;stroke:#800000;stroke-dasharray:5.55,2.4;stroke-dashoffset:0;stroke-width:1.5;"/>
    <defs>
     <path d="M 0 2.5 
C 0.663008 2.5 1.29895 2.236584 1.767767 1.767767 
C 2.236584 1.29895 2.5 0.663008 2.5 0 
C 2.5 -0.663008 2.236584 -1.29895 1.767767 -1.767767 
C 1.29895 -2.236584 0.663008 -2.5 0 -2.5 
C -0.663008 -2.5 -1.29895 -2.236584 -1.767767 -1.767767 
C -2.236584 -1.29895 -2.5 -0.663008 -2.5 0 
C -2.5 0.663008 -2.236584 1.29895 -1.767767 1.767767 
C -1.29895 2.236584 -0.663008 2.5 0 2.5 
z
" id="m0c957c0f60" style="stroke:#800000;"/>
    </defs>
    <g clip-path="url(#p4edb9562b8)">
     <use style="fill:#800000;stroke:#800000;" x="77.7664" xlink:href="#m0c957c0f60" y="251.087798"/>
     <use style="fill:#800000;stroke:#800000;" x="95.520946" xlink:href="#m0c957c0f60" y="257.21506"/>
     <use style="fill:#800000;stroke:#800000;" x="113.275491" xlink:href="#m0c957c0f60" y="257.839432"/>
     <use style="fill:#800000;stroke:#800000;" x="131.030037" xlink:href="#m0c957c0f60" y="255.104598"/>
     <use style="fill:#800000;stroke:#800000;" x="148.784582" xlink:href="#m0c957c0f60" y="251.394005"/>
     <use style="fill:#800000;stroke:#800000;" x="166.539128" xlink:href="#m0c957c0f60" y="246.369604"/>
     <use style="fill:#800000;stroke:#800000;" x="184.293673" xlink:href="#m0c957c0f60" y="238.082652"/>
     <use style="fill:#800000;stroke:#800000;" x="202.048218" xlink:href="#m0c957c0f60" y="228.242029"/>
     <use style="fill:#800000;stroke:#800000;" x="219.802764" xlink:href="#m0c957c0f60" y="217.453317"/>
     <use style="fill:#800000;stroke:#800000;" x="237.557309" xlink:href="#m0c957c0f60" y="205.682775"/>
     <use style="fill:#800000;stroke:#800000;" x="255.311855" xlink:href="#m0c957c0f60" y="193.79631"/>
     <use style="fill:#800000;stroke:#800000;" x="273.0664" xlink:href="#m0c957c0f60" y="181.656263"/>
     <use style="fill:#800000;stroke:#800000;" x="290.820946" xlink:href="#m0c957c0f60" y="169.534595"/>
     <use style="fill:#800000;stroke:#800000;" x="308.575491" xlink:href="#m0c957c0f60" y="154.646507"/>
     <use style="fill:#800000;stroke:#800000;" x="326.330037" xlink:href="#m0c957c0f60" y="133.981823"/>
     <use style="fill:#800000;stroke:#800000;" x="344.084582" xlink:href="#m0c957c0f60" y="120.020283"/>
     <use style="fill:#800000;stroke:#800000;" x="361.839128" xlink:href="#m0c957c0f60" y="107.678835"/>
     <use style="fill:#800000;stroke:#800000;" x="379.593673" xlink:href="#m0c957c0f60" y="96.088593"/>
     <use style="fill:#800000;stroke:#800000;" x="397.348218" xlink:href="#m0c957c0f60" y="82.013867"/>
     <use style="fill:#800000;stroke:#800000;" x="415.102764" xlink:href="#m0c957c0f60" y="68.959717"/>
     <use style="fill:#800000;stroke:#800000;" x="432.857309" xlink:href="#m0c957c0f60" y="56.250844"/>
    </g>
   </g>
   <g id="line2d_79">
    <path clip-path="url(#p4edb9562b8)" d="M 326.330037 133.675463 
L 327.40607 132.894123 
L 328.482103 132.112783 
L 329.558136 131.331443 
L 330.634169 130.550103 
L 331.710202 129.768763 
L 332.786235 128.987423 
L 333.862268 128.206083 
L 334.938301 127.424743 
L 336.014334 126.643404 
L 337.090367 125.862064 
L 338.1664 125.080724 
L 339.242433 124.299384 
L 340.318466 123.518044 
L 341.394499 122.736704 
L 342.470533 121.955364 
L 343.546566 121.174024 
L 344.622599 120.392684 
L 345.698632 119.611344 
L 346.774665 118.830004 
L 347.850698 118.048665 
L 348.926731 117.267325 
L 350.002764 116.485985 
L 351.078797 115.704645 
L 352.15483 114.923305 
L 353.230863 114.141965 
L 354.306896 113.360625 
L 355.382929 112.579285 
L 356.458962 111.797945 
L 357.534995 111.016605 
L 358.611028 110.235266 
L 359.687061 109.453926 
L 360.763095 108.672586 
L 361.839128 107.891246 
L 362.915161 107.109906 
L 363.991194 106.328566 
L 365.067227 105.547226 
L 366.14326 104.765886 
L 367.219293 103.984546 
L 368.295326 103.203206 
L 369.371359 102.421866 
L 370.447392 101.640527 
L 371.523425 100.859187 
L 372.599458 100.077847 
L 373.675491 99.296507 
L 374.751524 98.515167 
L 375.827557 97.733827 
L 376.90359 96.952487 
L 377.979623 96.171147 
L 379.055656 95.389807 
L 380.13169 94.608467 
L 381.207723 93.827128 
L 382.283756 93.045788 
L 383.359789 92.264448 
L 384.435822 91.483108 
L 385.511855 90.701768 
L 386.587888 89.920428 
L 387.663921 89.139088 
L 388.739954 88.357748 
L 389.815987 87.576408 
L 390.89202 86.795068 
L 391.968053 86.013728 
L 393.044086 85.232389 
L 394.120119 84.451049 
L 395.196152 83.669709 
L 396.272185 82.888369 
L 397.348218 82.107029 
L 398.424252 81.325689 
L 399.500285 80.544349 
L 400.576318 79.763009 
L 401.652351 78.981669 
L 402.728384 78.200329 
L 403.804417 77.418989 
L 404.88045 76.63765 
L 405.956483 75.85631 
L 407.032516 75.07497 
L 408.108549 74.29363 
L 409.184582 73.51229 
L 410.260615 72.73095 
L 411.336648 71.94961 
L 412.412681 71.16827 
L 413.488714 70.38693 
L 414.564747 69.60559 
L 415.64078 68.824251 
L 416.716814 68.042911 
L 417.792847 67.261571 
L 418.86888 66.480231 
L 419.944913 65.698891 
L 421.020946 64.917551 
L 422.096979 64.136211 
L 423.173012 63.354871 
L 424.249045 62.573531 
L 425.325078 61.792191 
L 426.401111 61.010851 
L 427.477144 60.229512 
L 428.553177 59.448172 
L 429.62921 58.666832 
L 430.705243 57.885492 
L 431.781276 57.104152 
L 432.857309 56.322812 
" style="fill:none;stroke:#800000;stroke-linecap:round;stroke-width:1.5;"/>
   </g>
   <g id="line2d_80">
    <path clip-path="url(#p4edb9562b8)" d="M 77.7664 247.80679 
L 95.520946 252.410947 
L 113.275491 250.093391 
L 131.030037 249.456338 
L 148.784582 245.813284 
L 166.539128 240.653945 
L 184.293673 233.255397 
L 202.048218 223.99814 
L 219.802764 213.086554 
L 237.557309 201.648495 
L 255.311855 189.435494 
L 273.0664 177.320904 
L 290.820946 160.018245 
L 308.575491 136.247915 
L 326.330037 121.754946 
L 344.084582 108.828071 
L 361.839128 96.836808 
L 379.593673 84.413894 
L 397.348218 70.995718 
L 415.102764 58.770197 
L 432.857309 46.454128 
" style="fill:none;stroke:#800000;stroke-dasharray:5.55,2.4;stroke-dashoffset:0;stroke-width:1.5;"/>
    <defs>
     <path d="M -2.5 2.5 
L 2.5 2.5 
L 2.5 -2.5 
L -2.5 -2.5 
z
" id="m729a969417" style="stroke:#800000;stroke-linejoin:miter;"/>
    </defs>
    <g clip-path="url(#p4edb9562b8)">
     <use style="fill:#800000;stroke:#800000;stroke-linejoin:miter;" x="77.7664" xlink:href="#m729a969417" y="247.80679"/>
     <use style="fill:#800000;stroke:#800000;stroke-linejoin:miter;" x="95.520946" xlink:href="#m729a969417" y="252.410947"/>
     <use style="fill:#800000;stroke:#800000;stroke-linejoin:miter;" x="113.275491" xlink:href="#m729a969417" y="250.093391"/>
     <use style="fill:#800000;stroke:#800000;stroke-linejoin:miter;" x="131.030037" xlink:href="#m729a969417" y="249.456338"/>
     <use style="fill:#800000;stroke:#800000;stroke-linejoin:miter;" x="148.784582" xlink:href="#m729a969417" y="245.813284"/>
     <use style="fill:#800000;stroke:#800000;stroke-linejoin:miter;" x="166.539128" xlink:href="#m729a969417" y="240.653945"/>
     <use style="fill:#800000;stroke:#800000;stroke-linejoin:miter;" x="184.293673" xlink:href="#m729a969417" y="233.255397"/>
     <use style="fill:#800000;stroke:#800000;stroke-linejoin:miter;" x="202.048218" xlink:href="#m729a969417" y="223.99814"/>
     <use style="fill:#800000;stroke:#800000;stroke-linejoin:miter;" x="219.802764" xlink:href="#m729a969417" y="213.086554"/>
     <use style="fill:#800000;stroke:#800000;stroke-linejoin:miter;" x="237.557309" xlink:href="#m729a969417" y="201.648495"/>
     <use style="fill:#800000;stroke:#800000;stroke-linejoin:miter;" x="255.311855" xlink:href="#m729a969417" y="189.435494"/>
     <use style="fill:#800000;stroke:#800000;stroke-linejoin:miter;" x="273.0664" xlink:href="#m729a969417" y="177.320904"/>
     <use style="fill:#800000;stroke:#800000;stroke-linejoin:miter;" x="290.820946" xlink:href="#m729a969417" y="160.018245"/>
     <use style="fill:#800000;stroke:#800000;stroke-linejoin:miter;" x="308.575491" xlink:href="#m729a969417" y="136.247915"/>
     <use style="fill:#800000;stroke:#800000;stroke-linejoin:miter;" x="326.330037" xlink:href="#m729a969417" y="121.754946"/>
     <use style="fill:#800000;stroke:#800000;stroke-linejoin:miter;" x="344.084582" xlink:href="#m729a969417" y="108.828071"/>
     <use style="fill:#800000;stroke:#800000;stroke-linejoin:miter;" x="361.839128" xlink:href="#m729a969417" y="96.836808"/>
     <use style="fill:#800000;stroke:#800000;stroke-linejoin:miter;" x="379.593673" xlink:href="#m729a969417" y="84.413894"/>
     <use style="fill:#800000;stroke:#800000;stroke-linejoin:miter;" x="397.348218" xlink:href="#m729a969417" y="70.995718"/>
     <use style="fill:#800000;stroke:#800000;stroke-linejoin:miter;" x="415.102764" xlink:href="#m729a969417" y="58.770197"/>
     <use style="fill:#800000;stroke:#800000;stroke-linejoin:miter;" x="432.857309" xlink:href="#m729a969417" y="46.454128"/>
    </g>
   </g>
   <g id="line2d_81">
    <path clip-path="url(#p4edb9562b8)" d="M 326.330037 121.70689 
L 327.40607 120.94529 
L 328.482103 120.18369 
L 329.558136 119.422089 
L 330.634169 118.660489 
L 331.710202 117.898889 
L 332.786235 117.137289 
L 333.862268 116.375689 
L 334.938301 115.614088 
L 336.014334 114.852488 
L 337.090367 114.090888 
L 338.1664 113.329288 
L 339.242433 112.567688 
L 340.318466 111.806087 
L 341.394499 111.044487 
L 342.470533 110.282887 
L 343.546566 109.521287 
L 344.622599 108.759687 
L 345.698632 107.998086 
L 346.774665 107.236486 
L 347.850698 106.474886 
L 348.926731 105.713286 
L 350.002764 104.951686 
L 351.078797 104.190086 
L 352.15483 103.428485 
L 353.230863 102.666885 
L 354.306896 101.905285 
L 355.382929 101.143685 
L 356.458962 100.382085 
L 357.534995 99.620484 
L 358.611028 98.858884 
L 359.687061 98.097284 
L 360.763095 97.335684 
L 361.839128 96.574084 
L 362.915161 95.812483 
L 363.991194 95.050883 
L 365.067227 94.289283 
L 366.14326 93.527683 
L 367.219293 92.766083 
L 368.295326 92.004482 
L 369.371359 91.242882 
L 370.447392 90.481282 
L 371.523425 89.719682 
L 372.599458 88.958082 
L 373.675491 88.196481 
L 374.751524 87.434881 
L 375.827557 86.673281 
L 376.90359 85.911681 
L 377.979623 85.150081 
L 379.055656 84.38848 
L 380.13169 83.62688 
L 381.207723 82.86528 
L 382.283756 82.10368 
L 383.359789 81.34208 
L 384.435822 80.58048 
L 385.511855 79.818879 
L 386.587888 79.057279 
L 387.663921 78.295679 
L 388.739954 77.534079 
L 389.815987 76.772479 
L 390.89202 76.010878 
L 391.968053 75.249278 
L 393.044086 74.487678 
L 394.120119 73.726078 
L 395.196152 72.964478 
L 396.272185 72.202877 
L 397.348218 71.441277 
L 398.424252 70.679677 
L 399.500285 69.918077 
L 400.576318 69.156477 
L 401.652351 68.394876 
L 402.728384 67.633276 
L 403.804417 66.871676 
L 404.88045 66.110076 
L 405.956483 65.348476 
L 407.032516 64.586875 
L 408.108549 63.825275 
L 409.184582 63.063675 
L 410.260615 62.302075 
L 411.336648 61.540475 
L 412.412681 60.778874 
L 413.488714 60.017274 
L 414.564747 59.255674 
L 415.64078 58.494074 
L 416.716814 57.732474 
L 417.792847 56.970874 
L 418.86888 56.209273 
L 419.944913 55.447673 
L 421.020946 54.686073 
L 422.096979 53.924473 
L 423.173012 53.162873 
L 424.249045 52.401272 
L 425.325078 51.639672 
L 426.401111 50.878072 
L 427.477144 50.116472 
L 428.553177 49.354872 
L 429.62921 48.593271 
L 430.705243 47.831671 
L 431.781276 47.070071 
L 432.857309 46.308471 
" style="fill:none;stroke:#800000;stroke-linecap:round;stroke-width:1.5;"/>
   </g>
   <g id="line2d_82">
    <path clip-path="url(#p4edb9562b8)" d="M 77.7664 271.172369 
L 95.520946 282.608079 
L 113.275491 282.005212 
L 131.030037 279.330919 
L 148.784582 276.234155 
L 166.539128 270.491976 
L 184.293673 263.148358 
L 202.048218 252.880177 
L 219.802764 243.509873 
L 237.557309 233.205701 
L 255.311855 219.226346 
L 273.0664 195.008331 
L 290.820946 193.24743 
L 308.575491 180.56973 
L 326.330037 169.015353 
L 344.084582 156.848177 
L 361.839128 145.249117 
L 379.593673 133.56908 
L 397.348218 114.469745 
" style="fill:none;stroke:#daa520;stroke-dasharray:5.55,2.4;stroke-dashoffset:0;stroke-width:1.5;"/>
    <defs>
     <path d="M -2.5 2.5 
L 2.5 2.5 
L 2.5 -2.5 
L -2.5 -2.5 
z
" id="m6840760249" style="stroke:#daa520;stroke-linejoin:miter;"/>
    </defs>
    <g clip-path="url(#p4edb9562b8)">
     <use style="fill:#daa520;stroke:#daa520;stroke-linejoin:miter;" x="77.7664" xlink:href="#m6840760249" y="271.172369"/>
     <use style="fill:#daa520;stroke:#daa520;stroke-linejoin:miter;" x="95.520946" xlink:href="#m6840760249" y="282.608079"/>
     <use style="fill:#daa520;stroke:#daa520;stroke-linejoin:miter;" x="113.275491" xlink:href="#m6840760249" y="282.005212"/>
     <use style="fill:#daa520;stroke:#daa520;stroke-linejoin:miter;" x="131.030037" xlink:href="#m6840760249" y="279.330919"/>
     <use style="fill:#daa520;stroke:#daa520;stroke-linejoin:miter;" x="148.784582" xlink:href="#m6840760249" y="276.234155"/>
     <use style="fill:#daa520;stroke:#daa520;stroke-linejoin:miter;" x="166.539128" xlink:href="#m6840760249" y="270.491976"/>
     <use style="fill:#daa520;stroke:#daa520;stroke-linejoin:miter;" x="184.293673" xlink:href="#m6840760249" y="263.148358"/>
     <use style="fill:#daa520;stroke:#daa520;stroke-linejoin:miter;" x="202.048218" xlink:href="#m6840760249" y="252.880177"/>
     <use style="fill:#daa520;stroke:#daa520;stroke-linejoin:miter;" x="219.802764" xlink:href="#m6840760249" y="243.509873"/>
     <use style="fill:#daa520;stroke:#daa520;stroke-linejoin:miter;" x="237.557309" xlink:href="#m6840760249" y="233.205701"/>
     <use style="fill:#daa520;stroke:#daa520;stroke-linejoin:miter;" x="255.311855" xlink:href="#m6840760249" y="219.226346"/>
     <use style="fill:#daa520;stroke:#daa520;stroke-linejoin:miter;" x="273.0664" xlink:href="#m6840760249" y="195.008331"/>
     <use style="fill:#daa520;stroke:#daa520;stroke-linejoin:miter;" x="290.820946" xlink:href="#m6840760249" y="193.24743"/>
     <use style="fill:#daa520;stroke:#daa520;stroke-linejoin:miter;" x="308.575491" xlink:href="#m6840760249" y="180.56973"/>
     <use style="fill:#daa520;stroke:#daa520;stroke-linejoin:miter;" x="326.330037" xlink:href="#m6840760249" y="169.015353"/>
     <use style="fill:#daa520;stroke:#daa520;stroke-linejoin:miter;" x="344.084582" xlink:href="#m6840760249" y="156.848177"/>
     <use style="fill:#daa520;stroke:#daa520;stroke-linejoin:miter;" x="361.839128" xlink:href="#m6840760249" y="145.249117"/>
     <use style="fill:#daa520;stroke:#daa520;stroke-linejoin:miter;" x="379.593673" xlink:href="#m6840760249" y="133.56908"/>
     <use style="fill:#daa520;stroke:#daa520;stroke-linejoin:miter;" x="397.348218" xlink:href="#m6840760249" y="114.469745"/>
    </g>
   </g>
   <g id="line2d_83">
    <path clip-path="url(#p4edb9562b8)" style="fill:none;stroke:#daa520;stroke-linecap:round;stroke-width:1.5;"/>
   </g>
   <g id="line2d_84">
    <path clip-path="url(#p4edb9562b8)" d="M 77.7664 247.611662 
L 95.520946 250.067296 
L 113.275491 248.305769 
L 131.030037 244.653117 
L 148.784582 238.665317 
L 166.539128 230.87217 
L 184.293673 221.643429 
L 202.048218 210.410269 
L 219.802764 198.92132 
L 237.557309 187.217162 
L 255.311855 175.262516 
L 273.0664 159.989007 
L 290.820946 135.294637 
L 308.575491 121.383333 
L 326.330037 109.090437 
L 344.084582 97.836869 
L 361.839128 84.520392 
L 379.593673 72.469618 
L 397.348218 59.852251 
L 415.102764 47.720462 
L 432.857309 35.772111 
" style="fill:none;stroke:#800000;stroke-dasharray:5.55,2.4;stroke-dashoffset:0;stroke-width:1.5;"/>
    <defs>
     <path d="M -0 3.535534 
L 2.12132 0 
L -0 -3.535534 
L -2.12132 -0 
z
" id="m8d85d7496d" style="stroke:#800000;stroke-linejoin:miter;"/>
    </defs>
    <g clip-path="url(#p4edb9562b8)">
     <use style="fill:#800000;stroke:#800000;stroke-linejoin:miter;" x="77.7664" xlink:href="#m8d85d7496d" y="247.611662"/>
     <use style="fill:#800000;stroke:#800000;stroke-linejoin:miter;" x="95.520946" xlink:href="#m8d85d7496d" y="250.067296"/>
     <use style="fill:#800000;stroke:#800000;stroke-linejoin:miter;" x="113.275491" xlink:href="#m8d85d7496d" y="248.305769"/>
     <use style="fill:#800000;stroke:#800000;stroke-linejoin:miter;" x="131.030037" xlink:href="#m8d85d7496d" y="244.653117"/>
     <use style="fill:#800000;stroke:#800000;stroke-linejoin:miter;" x="148.784582" xlink:href="#m8d85d7496d" y="238.665317"/>
     <use style="fill:#800000;stroke:#800000;stroke-linejoin:miter;" x="166.539128" xlink:href="#m8d85d7496d" y="230.87217"/>
     <use style="fill:#800000;stroke:#800000;stroke-linejoin:miter;" x="184.293673" xlink:href="#m8d85d7496d" y="221.643429"/>
     <use style="fill:#800000;stroke:#800000;stroke-linejoin:miter;" x="202.048218" xlink:href="#m8d85d7496d" y="210.410269"/>
     <use style="fill:#800000;stroke:#800000;stroke-linejoin:miter;" x="219.802764" xlink:href="#m8d85d7496d" y="198.92132"/>
     <use style="fill:#800000;stroke:#800000;stroke-linejoin:miter;" x="237.557309" xlink:href="#m8d85d7496d" y="187.217162"/>
     <use style="fill:#800000;stroke:#800000;stroke-linejoin:miter;" x="255.311855" xlink:href="#m8d85d7496d" y="175.262516"/>
     <use style="fill:#800000;stroke:#800000;stroke-linejoin:miter;" x="273.0664" xlink:href="#m8d85d7496d" y="159.989007"/>
     <use style="fill:#800000;stroke:#800000;stroke-linejoin:miter;" x="290.820946" xlink:href="#m8d85d7496d" y="135.294637"/>
     <use style="fill:#800000;stroke:#800000;stroke-linejoin:miter;" x="308.575491" xlink:href="#m8d85d7496d" y="121.383333"/>
     <use style="fill:#800000;stroke:#800000;stroke-linejoin:miter;" x="326.330037" xlink:href="#m8d85d7496d" y="109.090437"/>
     <use style="fill:#800000;stroke:#800000;stroke-linejoin:miter;" x="344.084582" xlink:href="#m8d85d7496d" y="97.836869"/>
     <use style="fill:#800000;stroke:#800000;stroke-linejoin:miter;" x="361.839128" xlink:href="#m8d85d7496d" y="84.520392"/>
     <use style="fill:#800000;stroke:#800000;stroke-linejoin:miter;" x="379.593673" xlink:href="#m8d85d7496d" y="72.469618"/>
     <use style="fill:#800000;stroke:#800000;stroke-linejoin:miter;" x="397.348218" xlink:href="#m8d85d7496d" y="59.852251"/>
     <use style="fill:#800000;stroke:#800000;stroke-linejoin:miter;" x="415.102764" xlink:href="#m8d85d7496d" y="47.720462"/>
     <use style="fill:#800000;stroke:#800000;stroke-linejoin:miter;" x="432.857309" xlink:href="#m8d85d7496d" y="35.772111"/>
    </g>
   </g>
   <g id="line2d_85">
    <path clip-path="url(#p4edb9562b8)" d="M 326.330037 109.41487 
L 327.40607 108.668428 
L 328.482103 107.921987 
L 329.558136 107.175545 
L 330.634169 106.429104 
L 331.710202 105.682663 
L 332.786235 104.936221 
L 333.862268 104.18978 
L 334.938301 103.443338 
L 336.014334 102.696897 
L 337.090367 101.950456 
L 338.1664 101.204014 
L 339.242433 100.457573 
L 340.318466 99.711131 
L 341.394499 98.96469 
L 342.470533 98.218249 
L 343.546566 97.471807 
L 344.622599 96.725366 
L 345.698632 95.978924 
L 346.774665 95.232483 
L 347.850698 94.486041 
L 348.926731 93.7396 
L 350.002764 92.993159 
L 351.078797 92.246717 
L 352.15483 91.500276 
L 353.230863 90.753834 
L 354.306896 90.007393 
L 355.382929 89.260952 
L 356.458962 88.51451 
L 357.534995 87.768069 
L 358.611028 87.021627 
L 359.687061 86.275186 
L 360.763095 85.528745 
L 361.839128 84.782303 
L 362.915161 84.035862 
L 363.991194 83.28942 
L 365.067227 82.542979 
L 366.14326 81.796538 
L 367.219293 81.050096 
L 368.295326 80.303655 
L 369.371359 79.557213 
L 370.447392 78.810772 
L 371.523425 78.064331 
L 372.599458 77.317889 
L 373.675491 76.571448 
L 374.751524 75.825006 
L 375.827557 75.078565 
L 376.90359 74.332123 
L 377.979623 73.585682 
L 379.055656 72.839241 
L 380.13169 72.092799 
L 381.207723 71.346358 
L 382.283756 70.599916 
L 383.359789 69.853475 
L 384.435822 69.107034 
L 385.511855 68.360592 
L 386.587888 67.614151 
L 387.663921 66.867709 
L 388.739954 66.121268 
L 389.815987 65.374827 
L 390.89202 64.628385 
L 391.968053 63.881944 
L 393.044086 63.135502 
L 394.120119 62.389061 
L 395.196152 61.64262 
L 396.272185 60.896178 
L 397.348218 60.149737 
L 398.424252 59.403295 
L 399.500285 58.656854 
L 400.576318 57.910413 
L 401.652351 57.163971 
L 402.728384 56.41753 
L 403.804417 55.671088 
L 404.88045 54.924647 
L 405.956483 54.178206 
L 407.032516 53.431764 
L 408.108549 52.685323 
L 409.184582 51.938881 
L 410.260615 51.19244 
L 411.336648 50.445998 
L 412.412681 49.699557 
L 413.488714 48.953116 
L 414.564747 48.206674 
L 415.64078 47.460233 
L 416.716814 46.713791 
L 417.792847 45.96735 
L 418.86888 45.220909 
L 419.944913 44.474467 
L 421.020946 43.728026 
L 422.096979 42.981584 
L 423.173012 42.235143 
L 424.249045 41.488702 
L 425.325078 40.74226 
L 426.401111 39.995819 
L 427.477144 39.249377 
L 428.553177 38.502936 
L 429.62921 37.756495 
L 430.705243 37.010053 
L 431.781276 36.263612 
L 432.857309 35.51717 
" style="fill:none;stroke:#800000;stroke-linecap:round;stroke-width:1.5;"/>
   </g>
   <g id="patch_3">
    <path d="M 60.011855 294.962625 
L 60.011855 23.162625 
" style="fill:none;stroke:#262626;stroke-linecap:square;stroke-linejoin:miter;stroke-width:1.25;"/>
   </g>
   <g id="patch_4">
    <path d="M 450.611855 294.962625 
L 450.611855 23.162625 
" style="fill:none;stroke:#262626;stroke-linecap:square;stroke-linejoin:miter;stroke-width:1.25;"/>
   </g>
   <g id="patch_5">
    <path d="M 60.011855 294.962625 
L 450.611855 294.962625 
" style="fill:none;stroke:#262626;stroke-linecap:square;stroke-linejoin:miter;stroke-width:1.25;"/>
   </g>
   <g id="patch_6">
    <path d="M 60.011855 23.162625 
L 450.611855 23.162625 
" style="fill:none;stroke:#262626;stroke-linecap:square;stroke-linejoin:miter;stroke-width:1.25;"/>
   </g>
   <g id="text_18">
    <!-- Comparison of Elapsed Time of Methods -->
    <g style="fill:#262626;" transform="translate(129.066859 17.162625)scale(0.144 -0.144)">
     <defs>
      <path d="M 3974 4289 
C 3974 4403 3968 4410 3930 4410 
C 3904 4410 3898 4403 3853 4327 
L 3571 3792 
C 3258 4187 2874 4416 2381 4416 
C 1286 4416 294 3456 294 2148 
C 294 826 1286 -128 2387 -128 
C 3366 -128 3974 730 3974 1461 
C 3974 1524 3974 1550 3917 1550 
C 3866 1550 3866 1531 3859 1474 
C 3808 585 3168 38 2477 38 
C 1824 38 781 495 781 2147 
C 781 3805 1843 4250 2464 4250 
C 3187 4250 3712 3628 3834 2745 
C 3846 2668 3846 2655 3904 2655 
C 3974 2655 3974 2668 3974 2783 
L 3974 4289 
z
" id="CMR17-43" transform="scale(0.015625)"/>
      <path d="M 2758 1356 
C 2758 2176 2163 2816 1466 2816 
C 768 2816 173 2176 173 1356 
C 173 551 768 -64 1466 -64 
C 2163 -64 2758 551 2758 1356 
z
M 1466 51 
C 1165 51 909 230 762 480 
C 602 767 582 1126 582 1408 
C 582 1677 595 2010 762 2298 
C 890 2509 1139 2714 1466 2714 
C 1754 2714 1997 2554 2150 2330 
C 2349 2029 2349 1607 2349 1408 
C 2349 1158 2336 775 2163 467 
C 1984 173 1709 51 1466 51 
z
" id="CMR17-6f" transform="scale(0.015625)"/>
      <path d="M 2656 1933 
C 2656 2259 2592 2790 1837 2790 
C 1331 2790 1069 2400 973 2144 
L 966 2144 
L 966 2790 
L 211 2720 
L 211 2554 
C 589 2554 646 2515 646 2208 
L 646 428 
C 646 184 621 153 211 153 
L 211 -13 
C 365 0 646 0 813 0 
C 979 0 1267 0 1421 -13 
L 1421 153 
C 1011 153 986 178 986 428 
L 986 1658 
C 986 2247 1344 2688 1792 2688 
C 2266 2688 2317 2266 2317 1958 
L 2317 428 
C 2317 184 2291 153 1882 153 
L 1882 -13 
C 2035 0 2317 0 2483 0 
C 2650 0 2938 0 3091 -13 
L 3091 153 
C 2682 153 2656 178 2656 428 
L 2656 1933 
z
" id="CMR17-6e" transform="scale(0.015625)"/>
      <path d="M 979 2560 
L 1709 2560 
L 1709 2725 
L 966 2725 
L 966 3494 
C 966 4022 1235 4352 1510 4352 
C 1594 4352 1690 4327 1754 4282 
C 1702 4269 1568 4225 1568 4067 
C 1568 3901 1696 3850 1786 3850 
C 1875 3850 2003 3901 2003 4067 
C 2003 4308 1773 4454 1517 4454 
C 1152 4454 653 4156 653 3481 
L 653 2725 
L 141 2725 
L 141 2560 
L 653 2560 
L 653 427 
C 653 184 627 153 218 153 
L 218 -13 
C 371 0 666 0 832 0 
C 1018 0 1344 0 1517 -13 
L 1517 153 
C 1056 153 979 153 979 439 
L 979 2560 
z
" id="CMR17-66" transform="scale(0.015625)"/>
      <path d="M 3981 4326 
L 288 4326 
L 179 2918 
L 294 2918 
C 378 3976 467 4160 1453 4160 
C 1568 4160 1754 4160 1805 4154 
C 1926 4135 1926 4058 1926 3912 
L 1926 459 
C 1926 230 1907 160 1376 160 
L 1197 160 
L 1197 0 
C 1504 0 1824 0 2138 0 
C 2451 0 2771 0 3078 0 
L 3078 160 
L 2899 160 
C 2368 160 2349 230 2349 459 
L 2349 3912 
C 2349 4052 2349 4129 2464 4154 
C 2515 4160 2701 4160 2816 4160 
C 3795 4160 3891 3976 3974 2918 
L 4090 2918 
L 3981 4326 
z
" id="CMR17-54" transform="scale(0.015625)"/>
      <path d="M 2656 1933 
C 2656 2259 2592 2790 1837 2790 
C 1312 2790 1056 2368 979 2157 
L 973 2157 
L 973 4396 
L 211 4326 
L 211 4160 
C 589 4160 646 4122 646 3817 
L 646 426 
C 646 184 621 153 211 153 
L 211 -13 
C 365 0 646 0 813 0 
C 979 0 1267 0 1421 -13 
L 1421 153 
C 1011 153 986 178 986 428 
L 986 1658 
C 986 2247 1344 2688 1792 2688 
C 2266 2688 2317 2266 2317 1958 
L 2317 428 
C 2317 184 2291 153 1882 153 
L 1882 -13 
C 2035 0 2317 0 2483 0 
C 2650 0 2938 0 3091 -13 
L 3091 153 
C 2682 153 2656 178 2656 428 
L 2656 1933 
z
" id="CMR17-68" transform="scale(0.015625)"/>
     </defs>
     <use transform="scale(0.996264)" xlink:href="#CMR17-43"/>
     <use transform="translate(66.509881 0)scale(0.996264)" xlink:href="#CMR17-6f"/>
     <use transform="translate(112.200358 0)scale(0.996264)" xlink:href="#CMR17-6d"/>
     <use transform="translate(189.119948 0)scale(0.996264)" xlink:href="#CMR17-70"/>
     <use transform="translate(240.015317 0)scale(0.996264)" xlink:href="#CMR17-61"/>
     <use transform="translate(285.705794 0)scale(0.996264)" xlink:href="#CMR17-72"/>
     <use transform="translate(320.986562 0)scale(0.996264)" xlink:href="#CMR17-69"/>
     <use transform="translate(345.857621 0)scale(0.996264)" xlink:href="#CMR17-73"/>
     <use transform="translate(381.658958 0)scale(0.996264)" xlink:href="#CMR17-6f"/>
     <use transform="translate(427.349435 0)scale(0.996264)" xlink:href="#CMR17-6e"/>
     <use transform="translate(508.320772 0)scale(0.996264)" xlink:href="#CMR17-6f"/>
     <use transform="translate(554.011249 0)scale(0.996264)" xlink:href="#CMR17-66"/>
     <use transform="translate(611.560727 0)scale(0.996264)" xlink:href="#CMR17-45"/>
     <use transform="translate(674.147028 0)scale(0.996264)" xlink:href="#CMR17-6c"/>
     <use transform="translate(699.018086 0)scale(0.996264)" xlink:href="#CMR17-61"/>
     <use transform="translate(744.708564 0)scale(0.996264)" xlink:href="#CMR17-70"/>
     <use transform="translate(795.603933 0)scale(0.996264)" xlink:href="#CMR17-73"/>
     <use transform="translate(831.405271 0)scale(0.996264)" xlink:href="#CMR17-65"/>
     <use transform="translate(871.890931 0)scale(0.996264)" xlink:href="#CMR17-64"/>
     <use transform="translate(952.862268 0)scale(0.996264)" xlink:href="#CMR17-54"/>
     <use transform="translate(1019.372148 0)scale(0.996264)" xlink:href="#CMR17-69"/>
     <use transform="translate(1044.243207 0)scale(0.996264)" xlink:href="#CMR17-6d"/>
     <use transform="translate(1121.162796 0)scale(0.996264)" xlink:href="#CMR17-65"/>
     <use transform="translate(1191.724423 0)scale(0.996264)" xlink:href="#CMR17-6f"/>
     <use transform="translate(1237.4149 0)scale(0.996264)" xlink:href="#CMR17-66"/>
     <use transform="translate(1294.964379 0)scale(0.996264)" xlink:href="#CMR17-4d"/>
     <use transform="translate(1379.65132 0)scale(0.996264)" xlink:href="#CMR17-65"/>
     <use transform="translate(1420.13698 0)scale(0.996264)" xlink:href="#CMR17-74"/>
     <use transform="translate(1455.417748 0)scale(0.996264)" xlink:href="#CMR17-68"/>
     <use transform="translate(1506.313118 0)scale(0.996264)" xlink:href="#CMR17-6f"/>
     <use transform="translate(1554.606034 0)scale(0.996264)" xlink:href="#CMR17-64"/>
     <use transform="translate(1605.501403 0)scale(0.996264)" xlink:href="#CMR17-73"/>
    </g>
   </g>
   <g id="legend_1">
    <g id="patch_7">
     <path d="M 457.607375 100.798764 
L 735.934352 100.798764 
Q 737.933072 100.798764 737.933072 98.800044 
L 737.933072 30.158145 
Q 737.933072 28.159425 735.934352 28.159425 
L 457.607375 28.159425 
Q 455.608655 28.159425 455.608655 30.158145 
L 455.608655 98.800044 
Q 455.608655 100.798764 457.607375 100.798764 
z
" style="fill:#ffffff;opacity:0.8;stroke:#cccccc;stroke-linejoin:miter;"/>
    </g>
    <g id="patch_8">
     <path d="M 459.606095 39.152385 
L 479.593295 39.152385 
L 479.593295 32.156865 
L 459.606095 32.156865 
z
" style="fill:none;"/>
    </g>
    <g id="text_19">
     <!-- Method -->
     <g style="fill:#262626;" transform="translate(459.606095 39.152385)scale(0.099936 -0.099936)">
      <use transform="scale(0.996264)" xlink:href="#CMR17-4d"/>
      <use transform="translate(84.686941 0)scale(0.996264)" xlink:href="#CMR17-65"/>
      <use transform="translate(125.172601 0)scale(0.996264)" xlink:href="#CMR17-74"/>
      <use transform="translate(160.453369 0)scale(0.996264)" xlink:href="#CMR17-68"/>
      <use transform="translate(211.348739 0)scale(0.996264)" xlink:href="#CMR17-6f"/>
      <use transform="translate(259.641654 0)scale(0.996264)" xlink:href="#CMR17-64"/>
     </g>
    </g>
    <g id="patch_9">
     <path d="M 459.606095 53.080637 
L 479.593295 53.080637 
L 479.593295 46.085117 
L 459.606095 46.085117 
z
" style="fill:none;"/>
    </g>
    <g id="text_20">
     <!-- SLQ -->
     <g style="fill:#262626;" transform="translate(459.606095 53.080637)scale(0.099936 -0.099936)">
      <defs>
       <path d="M 2803 4290 
C 2803 4404 2797 4411 2758 4411 
C 2720 4411 2707 4385 2682 4328 
L 2490 3907 
C 2246 4257 1875 4416 1472 4416 
C 819 4416 294 3901 294 3253 
C 294 3056 339 2776 557 2510 
C 794 2218 1018 2167 1530 2033 
C 1722 1982 2042 1899 2106 1874 
C 2470 1722 2662 1341 2662 985 
C 2662 527 2336 38 1779 38 
C 1094 38 454 419 410 1311 
C 403 1413 397 1419 352 1419 
C 301 1419 294 1413 294 1285 
L 294 -1 
C 294 -115 301 -122 339 -122 
C 384 -122 397 -90 486 108 
C 493 127 493 140 614 381 
C 934 -39 1472 -128 1779 -128 
C 2477 -128 2970 451 2970 1124 
C 2970 1454 2848 1708 2778 1823 
C 2509 2230 2221 2306 1914 2382 
C 1869 2402 1856 2402 1498 2490 
C 1152 2579 1005 2624 845 2796 
C 666 2992 602 3196 602 3399 
C 602 3812 934 4263 1478 4263 
C 2157 4263 2579 3786 2675 2993 
C 2694 2878 2701 2872 2746 2872 
C 2803 2872 2803 2891 2803 2999 
L 2803 4290 
z
" id="CMR17-53" transform="scale(0.015625)"/>
       <path d="M 3469 1615 
L 3354 1615 
C 3302 983 3219 166 2125 166 
L 1530 166 
C 1274 166 1261 197 1261 414 
L 1261 3898 
C 1261 4129 1274 4192 1760 4192 
L 1901 4192 
L 1901 4352 
C 1638 4352 1331 4352 1069 4352 
C 870 4352 512 4352 326 4352 
L 326 4192 
C 768 4192 838 4192 838 3905 
L 838 452 
C 838 166 768 166 326 166 
L 326 0 
L 3315 0 
L 3469 1615 
z
" id="CMR17-4c" transform="scale(0.015625)"/>
       <path d="M 3027 83 
C 3789 408 4307 1236 4307 2193 
C 4307 3499 3366 4480 2304 4480 
C 1216 4480 294 3488 294 2199 
C 294 928 1216 -64 2304 -64 
C 2451 -64 2656 -45 2899 38 
C 3008 -747 3078 -1216 3629 -1216 
C 4307 -1216 4339 -213 4339 -33 
C 4339 32 4339 76 4294 76 
C 4262 76 4256 31 4256 18 
C 4211 -603 3866 -732 3661 -732 
C 3283 -732 3149 -394 3027 83 
z
M 1958 100 
C 1293 310 768 1017 768 2199 
C 768 3711 1606 4365 2298 4365 
C 3014 4365 3834 3686 3834 2198 
C 3834 1124 3405 527 2976 254 
C 2880 579 2726 960 2310 960 
C 2003 960 1830 692 1830 450 
C 1830 304 1888 183 1958 100 
z
M 2874 192 
C 2618 57 2413 57 2304 57 
C 2016 57 1933 315 1933 454 
C 1933 650 2067 858 2310 858 
C 2720 858 2822 493 2874 192 
z
" id="CMR17-51" transform="scale(0.015625)"/>
      </defs>
      <use transform="scale(0.996264)" xlink:href="#CMR17-53"/>
      <use transform="translate(50.89537 0)scale(0.996264)" xlink:href="#CMR17-4c"/>
      <use transform="translate(108.276778 0)scale(0.996264)" xlink:href="#CMR17-51"/>
     </g>
    </g>
    <g id="patch_10">
     <path d="M 459.606095 67.008888 
L 479.593295 67.008888 
L 479.593295 60.013368 
L 459.606095 60.013368 
z
" style="fill:none;"/>
    </g>
    <g id="patch_11">
     <path d="M 459.606095 80.93714 
L 479.593295 80.93714 
L 479.593295 73.94162 
L 459.606095 73.94162 
z
" style="fill:none;"/>
    </g>
    <g id="patch_12">
     <path d="M 459.606095 94.865392 
L 479.593295 94.865392 
L 479.593295 87.869872 
L 459.606095 87.869872 
z
" style="fill:none;"/>
    </g>
    <g id="text_21">
     <!-- Cholesky -->
     <g style="fill:#262626;" transform="translate(459.606095 94.865392)scale(0.099936 -0.099936)">
      <defs>
       <path d="M 1670 1673 
C 1664 1686 1632 1724 1632 1743 
C 1632 1756 2086 2171 2144 2222 
C 2509 2528 2739 2560 2906 2560 
L 2906 2733 
C 2867 2733 2854 2733 2848 2720 
L 2534 2720 
C 2355 2720 2080 2720 1907 2733 
L 1907 2566 
C 1997 2559 2061 2508 2061 2419 
C 2061 2291 1933 2170 1926 2170 
L 960 1289 
L 960 4396 
L 198 4326 
L 198 4160 
C 576 4160 634 4122 634 3817 
L 634 426 
C 634 184 608 153 198 153 
L 198 -13 
C 352 0 634 0 794 0 
C 954 0 1235 0 1389 -13 
L 1389 153 
C 979 153 954 178 954 428 
L 954 1130 
L 1395 1532 
L 2042 574 
C 2118 459 2182 369 2182 286 
C 2182 172 2067 153 1990 153 
L 1990 -13 
C 2144 0 2419 0 2579 0 
C 2694 0 2931 0 3040 0 
L 3040 153 
C 2739 153 2669 210 2477 491 
L 1670 1673 
z
" id="CMR17-6b" transform="scale(0.015625)"/>
       <path d="M 2496 2197 
C 2656 2586 2944 2586 3034 2586 
L 3034 2752 
C 2912 2752 2752 2752 2630 2752 
C 2496 2752 2285 2752 2157 2758 
L 2157 2592 
C 2400 2573 2406 2394 2406 2343 
C 2406 2280 2394 2248 2362 2171 
L 1664 449 
L 902 2306 
C 870 2382 870 2426 870 2433 
C 870 2573 1018 2586 1171 2586 
L 1171 2758 
C 1018 2752 742 2752 582 2752 
C 410 2752 205 2752 64 2758 
L 64 2586 
C 410 2586 448 2554 531 2350 
L 1485 15 
C 1197 -738 1030 -1178 627 -1178 
C 557 -1178 397 -1159 282 -1044 
C 429 -1031 493 -942 493 -833 
C 493 -725 416 -629 288 -629 
C 147 -629 77 -725 77 -840 
C 77 -1095 339 -1280 627 -1280 
C 998 -1280 1229 -922 1357 -604 
L 2496 2197 
z
" id="CMR17-79" transform="scale(0.015625)"/>
      </defs>
      <use transform="scale(0.996264)" xlink:href="#CMR17-43"/>
      <use transform="translate(66.509881 0)scale(0.996264)" xlink:href="#CMR17-68"/>
      <use transform="translate(117.40525 0)scale(0.996264)" xlink:href="#CMR17-6f"/>
      <use transform="translate(163.095727 0)scale(0.996264)" xlink:href="#CMR17-6c"/>
      <use transform="translate(187.966786 0)scale(0.996264)" xlink:href="#CMR17-65"/>
      <use transform="translate(228.452446 0)scale(0.996264)" xlink:href="#CMR17-73"/>
      <use transform="translate(264.253784 0)scale(0.996264)" xlink:href="#CMR17-6b"/>
      <use transform="translate(312.5467 0)scale(0.996264)" xlink:href="#CMR17-79"/>
     </g>
    </g>
    <g id="patch_13">
     <path d="M 520.016491 39.152385 
L 540.003691 39.152385 
L 540.003691 32.156865 
L 520.016491 32.156865 
z
" style="fill:none;"/>
    </g>
    <g id="text_22">
     <!-- Data type -->
     <g style="fill:#262626;" transform="translate(520.016491 39.152385)scale(0.099936 -0.099936)">
      <defs>
       <path d="M 333 4352 
L 333 4186 
C 774 4186 845 4186 845 3900 
L 845 452 
C 845 166 774 166 333 166 
L 333 0 
L 2368 0 
C 3398 0 4224 943 4224 2141 
C 4224 3346 3411 4352 2368 4352 
L 333 4352 
z
M 1523 166 
C 1267 166 1254 197 1254 414 
L 1254 3938 
C 1254 4155 1267 4186 1523 4186 
L 2240 4186 
C 2771 4186 3750 3874 3750 2141 
C 3750 1242 3488 879 3366 707 
C 3213 510 2848 166 2240 166 
L 1523 166 
z
" id="CMR17-44" transform="scale(0.015625)"/>
      </defs>
      <use transform="scale(0.996264)" xlink:href="#CMR17-44"/>
      <use transform="translate(70.393556 0)scale(0.996264)" xlink:href="#CMR17-61"/>
      <use transform="translate(116.084033 0)scale(0.996264)" xlink:href="#CMR17-74"/>
      <use transform="translate(151.364801 0)scale(0.996264)" xlink:href="#CMR17-61"/>
      <use transform="translate(227.131244 0)scale(0.996264)" xlink:href="#CMR17-74"/>
      <use transform="translate(259.809558 0)scale(0.996264)" xlink:href="#CMR17-79"/>
      <use transform="translate(308.102474 0)scale(0.996264)" xlink:href="#CMR17-70"/>
      <use transform="translate(361.600283 0)scale(0.996264)" xlink:href="#CMR17-65"/>
     </g>
    </g>
    <g id="patch_14">
     <path d="M 520.016491 53.080637 
L 540.003691 53.080637 
L 540.003691 46.085117 
L 520.016491 46.085117 
z
" style="fill:none;"/>
    </g>
    <g id="text_23">
     <!-- 32-bit -->
     <g style="fill:#262626;" transform="translate(520.016491 53.080637)scale(0.099936 -0.099936)">
      <defs>
       <path d="M 1632 1216 
L 1632 1496 
L 26 1496 
L 26 1216 
L 1632 1216 
z
" id="CMR17-2d" transform="scale(0.015625)"/>
       <path d="M 960 4396 
L 198 4326 
L 198 4160 
C 576 4160 634 4122 634 3817 
L 634 -13 
L 749 -13 
L 934 441 
C 1120 141 1395 -64 1766 -64 
C 2406 -64 3053 500 3053 1370 
C 3053 2188 2477 2790 1830 2790 
C 1434 2790 1152 2579 960 2330 
L 960 4396 
z
M 973 2004 
C 973 2118 973 2138 1062 2272 
C 1312 2657 1670 2688 1792 2688 
C 1984 2688 2643 2585 2643 1376 
C 2643 108 1888 38 1734 38 
C 1536 38 1248 114 1043 486 
C 973 608 973 621 973 735 
L 973 2004 
z
" id="CMR17-62" transform="scale(0.015625)"/>
      </defs>
      <use transform="scale(0.996264)" xlink:href="#CMR17-33"/>
      <use transform="translate(45.690477 0)scale(0.996264)" xlink:href="#CMR17-32"/>
      <use transform="translate(91.380954 0)scale(0.996264)" xlink:href="#CMR17-2d"/>
      <use transform="translate(121.456921 0)scale(0.996264)" xlink:href="#CMR17-62"/>
      <use transform="translate(172.35229 0)scale(0.996264)" xlink:href="#CMR17-69"/>
      <use transform="translate(197.223349 0)scale(0.996264)" xlink:href="#CMR17-74"/>
     </g>
    </g>
    <g id="patch_15">
     <path d="M 520.016491 67.008888 
L 540.003691 67.008888 
L 540.003691 60.013368 
L 520.016491 60.013368 
z
" style="fill:none;"/>
    </g>
    <g id="text_24">
     <!-- 64-bit -->
     <g style="fill:#262626;" transform="translate(520.016491 67.008888)scale(0.099936 -0.099936)">
      <use transform="scale(0.996264)" xlink:href="#CMR17-36"/>
      <use transform="translate(45.690477 0)scale(0.996264)" xlink:href="#CMR17-34"/>
      <use transform="translate(91.380954 0)scale(0.996264)" xlink:href="#CMR17-2d"/>
      <use transform="translate(121.456921 0)scale(0.996264)" xlink:href="#CMR17-62"/>
      <use transform="translate(172.35229 0)scale(0.996264)" xlink:href="#CMR17-69"/>
      <use transform="translate(197.223349 0)scale(0.996264)" xlink:href="#CMR17-74"/>
     </g>
    </g>
    <g id="patch_16">
     <path d="M 520.016491 80.93714 
L 540.003691 80.93714 
L 540.003691 73.94162 
L 520.016491 73.94162 
z
" style="fill:none;"/>
    </g>
    <g id="text_25">
     <!-- 128-bit -->
     <g style="fill:#262626;" transform="translate(520.016491 80.93714)scale(0.099936 -0.099936)">
      <defs>
       <path d="M 1741 2264 
C 2144 2467 2554 2773 2554 3263 
C 2554 3841 1990 4179 1472 4179 
C 890 4179 378 3759 378 3180 
C 378 3021 416 2747 666 2505 
C 730 2442 998 2251 1171 2130 
C 883 1983 211 1634 211 934 
C 211 279 838 -128 1459 -128 
C 2144 -128 2720 362 2720 1010 
C 2720 1590 2330 1857 2074 2029 
L 1741 2264 
z
M 902 2822 
C 851 2854 595 3051 595 3351 
C 595 3739 998 4032 1459 4032 
C 1965 4032 2336 3676 2336 3262 
C 2336 2669 1670 2331 1638 2331 
C 1632 2331 1626 2331 1574 2370 
L 902 2822 
z
M 2080 1519 
C 2176 1449 2483 1240 2483 851 
C 2483 381 2010 25 1472 25 
C 890 25 448 438 448 940 
C 448 1443 838 1862 1280 2060 
L 2080 1519 
z
" id="CMR17-38" transform="scale(0.015625)"/>
      </defs>
      <use transform="scale(0.996264)" xlink:href="#CMR17-31"/>
      <use transform="translate(45.690477 0)scale(0.996264)" xlink:href="#CMR17-32"/>
      <use transform="translate(91.380954 0)scale(0.996264)" xlink:href="#CMR17-38"/>
      <use transform="translate(137.071431 0)scale(0.996264)" xlink:href="#CMR17-2d"/>
      <use transform="translate(167.147398 0)scale(0.996264)" xlink:href="#CMR17-62"/>
      <use transform="translate(218.042767 0)scale(0.996264)" xlink:href="#CMR17-69"/>
      <use transform="translate(242.913826 0)scale(0.996264)" xlink:href="#CMR17-74"/>
     </g>
    </g>
    <g id="patch_17">
     <path d="M 520.016491 94.865392 
L 540.003691 94.865392 
L 540.003691 87.869872 
L 520.016491 87.869872 
z
" style="fill:none;"/>
    </g>
    <g id="text_26">
     <!-- 64-bit -->
     <g style="fill:#262626;" transform="translate(520.016491 94.865392)scale(0.099936 -0.099936)">
      <use transform="scale(0.996264)" xlink:href="#CMR17-36"/>
      <use transform="translate(45.690477 0)scale(0.996264)" xlink:href="#CMR17-34"/>
      <use transform="translate(91.380954 0)scale(0.996264)" xlink:href="#CMR17-2d"/>
      <use transform="translate(121.456921 0)scale(0.996264)" xlink:href="#CMR17-62"/>
      <use transform="translate(172.35229 0)scale(0.996264)" xlink:href="#CMR17-69"/>
      <use transform="translate(197.223349 0)scale(0.996264)" xlink:href="#CMR17-74"/>
     </g>
    </g>
    <g id="patch_18">
     <path d="M 585.059266 39.152385 
L 605.046466 39.152385 
L 605.046466 32.156865 
L 585.059266 32.156865 
z
" style="fill:none;"/>
    </g>
    <g id="text_27">
     <!-- Experiment -->
     <g style="fill:#262626;" transform="translate(585.059266 39.152385)scale(0.099936 -0.099936)">
      <use transform="scale(0.996264)" xlink:href="#CMR17-45"/>
      <use transform="translate(62.586301 0)scale(0.996264)" xlink:href="#CMR17-78"/>
      <use transform="translate(110.879216 0)scale(0.996264)" xlink:href="#CMR17-70"/>
      <use transform="translate(164.377025 0)scale(0.996264)" xlink:href="#CMR17-65"/>
      <use transform="translate(204.862685 0)scale(0.996264)" xlink:href="#CMR17-72"/>
      <use transform="translate(240.143453 0)scale(0.996264)" xlink:href="#CMR17-69"/>
      <use transform="translate(265.014512 0)scale(0.996264)" xlink:href="#CMR17-6d"/>
      <use transform="translate(341.934101 0)scale(0.996264)" xlink:href="#CMR17-65"/>
      <use transform="translate(382.419762 0)scale(0.996264)" xlink:href="#CMR17-6e"/>
      <use transform="translate(430.712678 0)scale(0.996264)" xlink:href="#CMR17-74"/>
     </g>
    </g>
    <g id="line2d_86">
     <path d="M 585.059266 49.582877 
L 605.046466 49.582877 
" style="fill:none;stroke:#800000;stroke-dasharray:5.55,2.4;stroke-dashoffset:0;stroke-width:1.5;"/>
    </g>
    <g id="line2d_87">
     <g>
      <use style="fill:#800000;stroke:#800000;" x="595.052866" xlink:href="#m0c957c0f60" y="49.582877"/>
     </g>
    </g>
    <g id="line2d_88">
     <path d="M 585.059266 63.511128 
L 605.046466 63.511128 
" style="fill:none;stroke:#800000;stroke-dasharray:5.55,2.4;stroke-dashoffset:0;stroke-width:1.5;"/>
    </g>
    <g id="line2d_89">
     <g>
      <use style="fill:#800000;stroke:#800000;stroke-linejoin:miter;" x="595.052866" xlink:href="#m729a969417" y="63.511128"/>
     </g>
    </g>
    <g id="line2d_90">
     <path d="M 585.059266 77.43938 
L 605.046466 77.43938 
" style="fill:none;stroke:#800000;stroke-dasharray:5.55,2.4;stroke-dashoffset:0;stroke-width:1.5;"/>
    </g>
    <g id="line2d_91">
     <g>
      <use style="fill:#800000;stroke:#800000;stroke-linejoin:miter;" x="595.052866" xlink:href="#m8d85d7496d" y="77.43938"/>
     </g>
    </g>
    <g id="line2d_92">
     <path d="M 585.059266 91.367632 
L 605.046466 91.367632 
" style="fill:none;stroke:#daa520;stroke-dasharray:5.55,2.4;stroke-dashoffset:0;stroke-width:1.5;"/>
    </g>
    <g id="line2d_93">
     <g>
      <use style="fill:#daa520;stroke:#daa520;stroke-linejoin:miter;" x="595.052866" xlink:href="#m6840760249" y="91.367632"/>
     </g>
    </g>
    <g id="patch_19">
     <path d="M 657.235036 39.152385 
L 677.222236 39.152385 
L 677.222236 32.156865 
L 657.235036 32.156865 
z
" style="fill:none;"/>
    </g>
    <g id="text_28">
     <!-- Line fit -->
     <g style="fill:#262626;" transform="translate(657.235036 39.152385)scale(0.099936 -0.099936)">
      <defs>
       <path d="M 2554 2764 
C 2400 2764 1926 2764 1805 2739 
C 1766 2725 1754 2725 1677 2725 
L 947 2725 
L 947 3469 
C 947 4073 1434 4352 1818 4352 
C 1939 4352 2214 4320 2355 4101 
C 2291 4101 2086 4101 2086 3878 
C 2086 3725 2189 3648 2317 3648 
C 2432 3648 2547 3712 2547 3885 
C 2547 4205 2240 4454 1843 4454 
C 1338 4454 634 4168 634 3469 
L 634 2725 
L 122 2725 
L 122 2560 
L 634 2560 
L 634 427 
C 634 184 608 153 198 153 
L 198 -13 
C 352 0 634 0 794 0 
C 960 0 1242 0 1395 -13 
L 1395 153 
C 986 153 960 178 960 427 
L 960 2560 
L 1901 2560 
C 2176 2560 2227 2502 2227 2222 
L 2227 427 
C 2227 184 2202 153 1792 153 
L 1792 -13 
C 1946 0 2227 0 2387 0 
C 2554 0 2835 0 2989 -13 
L 2989 153 
C 2579 153 2554 178 2554 427 
L 2554 2764 
z
" id="CMR17-c" transform="scale(0.015625)"/>
      </defs>
      <use transform="scale(0.996264)" xlink:href="#CMR17-4c"/>
      <use transform="translate(57.381408 0)scale(0.996264)" xlink:href="#CMR17-69"/>
      <use transform="translate(82.252466 0)scale(0.996264)" xlink:href="#CMR17-6e"/>
      <use transform="translate(133.147836 0)scale(0.996264)" xlink:href="#CMR17-65"/>
      <use transform="translate(203.709463 0)scale(0.996264)" xlink:href="#CMR17-c"/>
      <use transform="translate(253.451686 0)scale(0.996264)" xlink:href="#CMR17-74"/>
     </g>
    </g>
    <g id="line2d_94">
     <path d="M 657.235036 49.582877 
L 677.222236 49.582877 
" style="fill:none;stroke:#800000;stroke-linecap:round;stroke-width:1.5;"/>
    </g>
    <g id="line2d_95"/>
    <g id="line2d_96">
     <path d="M 657.235036 63.511128 
L 677.222236 63.511128 
" style="fill:none;stroke:#800000;stroke-linecap:round;stroke-width:1.5;"/>
    </g>
    <g id="line2d_97"/>
    <g id="line2d_98">
     <path d="M 657.235036 77.43938 
L 677.222236 77.43938 
" style="fill:none;stroke:#800000;stroke-linecap:round;stroke-width:1.5;"/>
    </g>
    <g id="line2d_99"/>
    <g id="line2d_100">
     <path d="M 657.235036 91.367632 
L 677.222236 91.367632 
" style="fill:none;stroke:#daa520;stroke-linecap:round;stroke-width:1.5;"/>
    </g>
    <g id="line2d_101"/>
    <g id="patch_20">
     <path d="M 709.771137 39.152385 
L 729.758337 39.152385 
L 729.758337 32.156865 
L 709.771137 32.156865 
z
" style="fill:none;"/>
    </g>
    <g id="text_29">
     <!-- Slope -->
     <g style="fill:#262626;" transform="translate(709.771137 39.152385)scale(0.099936 -0.099936)">
      <use transform="scale(0.996264)" xlink:href="#CMR17-53"/>
      <use transform="translate(50.89537 0)scale(0.996264)" xlink:href="#CMR17-6c"/>
      <use transform="translate(75.766428 0)scale(0.996264)" xlink:href="#CMR17-6f"/>
      <use transform="translate(121.456905 0)scale(0.996264)" xlink:href="#CMR17-70"/>
      <use transform="translate(174.954714 0)scale(0.996264)" xlink:href="#CMR17-65"/>
     </g>
    </g>
    <g id="patch_21">
     <path d="M 709.771137 53.080637 
L 729.758337 53.080637 
L 729.758337 46.085117 
L 709.771137 46.085117 
z
" style="fill:none;"/>
    </g>
    <g id="text_30">
     <!-- 1.10 -->
     <g style="fill:#262626;" transform="translate(709.771137 53.080637)scale(0.099936 -0.099936)">
      <defs>
       <path d="M 1062 261 
C 1062 420 934 522 800 522 
C 672 522 538 420 538 261 
C 538 102 666 0 800 0 
C 928 0 1062 102 1062 261 
z
" id="CMR17-2e" transform="scale(0.015625)"/>
      </defs>
      <use transform="scale(0.996264)" xlink:href="#CMR17-31"/>
      <use transform="translate(45.690477 0)scale(0.996264)" xlink:href="#CMR17-2e"/>
      <use transform="translate(70.561536 0)scale(0.996264)" xlink:href="#CMR17-31"/>
      <use transform="translate(116.252013 0)scale(0.996264)" xlink:href="#CMR17-30"/>
     </g>
    </g>
    <g id="patch_22">
     <path d="M 709.771137 67.008888 
L 729.758337 67.008888 
L 729.758337 60.013368 
L 709.771137 60.013368 
z
" style="fill:none;"/>
    </g>
    <g id="text_31">
     <!-- 1.05 -->
     <g style="fill:#262626;" transform="translate(709.771137 67.008888)scale(0.099936 -0.099936)">
      <use transform="scale(0.996264)" xlink:href="#CMR17-31"/>
      <use transform="translate(45.690477 0)scale(0.996264)" xlink:href="#CMR17-2e"/>
      <use transform="translate(70.561536 0)scale(0.996264)" xlink:href="#CMR17-30"/>
      <use transform="translate(116.252013 0)scale(0.996264)" xlink:href="#CMR17-35"/>
     </g>
    </g>
    <g id="patch_23">
     <path d="M 709.771137 80.93714 
L 729.758337 80.93714 
L 729.758337 73.94162 
L 709.771137 73.94162 
z
" style="fill:none;"/>
    </g>
    <g id="text_32">
     <!-- 1.02 -->
     <g style="fill:#262626;" transform="translate(709.771137 80.93714)scale(0.099936 -0.099936)">
      <use transform="scale(0.996264)" xlink:href="#CMR17-31"/>
      <use transform="translate(45.690477 0)scale(0.996264)" xlink:href="#CMR17-2e"/>
      <use transform="translate(70.561536 0)scale(0.996264)" xlink:href="#CMR17-30"/>
      <use transform="translate(116.252013 0)scale(0.996264)" xlink:href="#CMR17-32"/>
     </g>
    </g>
    <g id="patch_24">
     <path d="M 709.771137 94.865392 
L 729.758337 94.865392 
L 729.758337 87.869872 
L 709.771137 87.869872 
z
" style="fill:none;"/>
    </g>
    <g id="text_33">
     <!-- nan -->
     <g style="fill:#262626;" transform="translate(709.771137 94.865392)scale(0.099936 -0.099936)">
      <use transform="scale(0.996264)" xlink:href="#CMR17-6e"/>
      <use transform="translate(50.89537 0)scale(0.996264)" xlink:href="#CMR17-61"/>
      <use transform="translate(96.585847 0)scale(0.996264)" xlink:href="#CMR17-6e"/>
     </g>
    </g>
   </g>
  </g>
 </g>
 <defs>
  <clipPath id="p4edb9562b8">
   <rect height="271.8" width="390.6" x="60.011855" y="23.162625"/>
  </clipPath>
 </defs>
</svg>
