<?xml version="1.0" encoding="utf-8" standalone="no"?>
<!DOCTYPE svg PUBLIC "-//W3C//DTD SVG 1.1//EN"
  "http://www.w3.org/Graphics/SVG/1.1/DTD/svg11.dtd">
<svg height="340.901247pt" version="1.1" viewBox="0 0 473.770975 340.901247" width="473.770975pt" xmlns="http://www.w3.org/2000/svg" xmlns:xlink="http://www.w3.org/1999/xlink">
 <metadata>
  <rdf:RDF xmlns:cc="http://creativecommons.org/ns#" xmlns:dc="http://purl.org/dc/elements/1.1/" xmlns:rdf="http://www.w3.org/1999/02/22-rdf-syntax-ns#">
   <cc:Work>
    <dc:type rdf:resource="http://purl.org/dc/dcmitype/StillImage"/>
    <dc:date>2021-08-25T14:55:11.424088</dc:date>
    <dc:format>image/svg+xml</dc:format>
    <dc:creator>
     <cc:Agent>
      <dc:title>Matplotlib v3.4.2, https://matplotlib.org/</dc:title>
     </cc:Agent>
    </dc:creator>
   </cc:Work>
  </rdf:RDF>
 </metadata>
 <defs>
  <style type="text/css">*{stroke-linecap:butt;stroke-linejoin:round;}</style>
 </defs>
 <g id="figure_1">
  <g id="patch_1">
   <path d="M 0 340.901247 
L 473.770975 340.901247 
L 473.770975 0 
L 0 0 
z
" style="fill:none;"/>
  </g>
  <g id="axes_1">
   <g id="patch_2">
    <path d="M 75.970975 295.759639 
L 466.570975 295.759639 
L 466.570975 23.959639 
L 75.970975 23.959639 
z
" style="fill:none;"/>
   </g>
   <g id="matplotlib.axis_1">
    <g id="xtick_1">
     <g id="line2d_1">
      <defs>
       <path d="M 0 0 
L 0 6 
" id="m5eb5226f3c" style="stroke:#262626;stroke-width:1.25;"/>
      </defs>
      <g>
       <use style="fill:#262626;stroke:#262626;stroke-width:1.25;" x="133.180066" xlink:href="#m5eb5226f3c" y="295.759639"/>
      </g>
     </g>
     <g id="text_1">
      <!-- $\mathdefault{2^{9}}$ -->
      <g style="fill:#262626;" transform="translate(127.595668 314.392034)scale(0.132 -0.132)">
       <defs>
        <path d="M 2669 989 
L 2554 989 
C 2490 536 2438 459 2413 420 
C 2381 369 1920 369 1830 369 
L 602 369 
C 832 619 1280 1072 1824 1597 
C 2214 1967 2669 2402 2669 3035 
C 2669 3790 2067 4224 1395 4224 
C 691 4224 262 3604 262 3030 
C 262 2780 448 2748 525 2748 
C 589 2748 781 2787 781 3010 
C 781 3207 614 3264 525 3264 
C 486 3264 448 3258 422 3245 
C 544 3790 915 4058 1306 4058 
C 1862 4058 2227 3617 2227 3035 
C 2227 2479 1901 2000 1536 1584 
L 262 146 
L 262 0 
L 2515 0 
L 2669 989 
z
" id="CMR17-32" transform="scale(0.015625)"/>
        <path d="M 2253 1864 
C 2253 464 1670 31 1190 31 
C 1043 31 685 31 538 294 
C 704 268 826 357 826 518 
C 826 692 685 749 595 749 
C 538 749 365 723 365 506 
C 365 71 742 -128 1203 -128 
C 1939 -128 2688 674 2688 2073 
C 2688 3817 1971 4179 1485 4179 
C 851 4179 243 3628 243 2778 
C 243 1991 762 1408 1414 1408 
C 1952 1408 2189 1903 2253 2112 
L 2253 1864 
z
M 1427 1510 
C 1254 1510 1011 1542 813 1922 
C 678 2169 678 2461 678 2771 
C 678 3146 678 3405 858 3684 
C 947 3817 1114 4032 1485 4032 
C 2240 4032 2240 2885 2240 2632 
C 2240 2182 2035 1510 1427 1510 
z
" id="CMR17-39" transform="scale(0.015625)"/>
       </defs>
       <use transform="scale(0.996264)" xlink:href="#CMR17-32"/>
       <use transform="translate(45.690477 36.153639)scale(0.697382)" xlink:href="#CMR17-39"/>
      </g>
     </g>
    </g>
    <g id="xtick_2">
     <g id="line2d_2">
      <g>
       <use style="fill:#262626;stroke:#262626;stroke-width:1.25;" x="192.361884" xlink:href="#m5eb5226f3c" y="295.759639"/>
      </g>
     </g>
     <g id="text_2">
      <!-- $\mathdefault{2^{12}}$ -->
      <g style="fill:#262626;" transform="translate(184.412226 314.392034)scale(0.132 -0.132)">
       <defs>
        <path d="M 1702 4058 
C 1702 4192 1696 4192 1606 4192 
C 1357 3916 979 3827 621 3827 
C 602 3827 570 3827 563 3808 
C 557 3795 557 3782 557 3648 
C 755 3648 1088 3686 1344 3839 
L 1344 461 
C 1344 236 1331 160 781 160 
L 589 160 
L 589 0 
C 896 0 1216 0 1523 0 
C 1830 0 2150 0 2458 0 
L 2458 160 
L 2266 160 
C 1715 160 1702 230 1702 458 
L 1702 4058 
z
" id="CMR17-31" transform="scale(0.015625)"/>
       </defs>
       <use transform="scale(0.996264)" xlink:href="#CMR17-32"/>
       <use transform="translate(45.690477 36.153639)scale(0.697382)" xlink:href="#CMR17-31"/>
       <use transform="translate(77.673659 36.153639)scale(0.697382)" xlink:href="#CMR17-32"/>
      </g>
     </g>
    </g>
    <g id="xtick_3">
     <g id="line2d_3">
      <g>
       <use style="fill:#262626;stroke:#262626;stroke-width:1.25;" x="251.543702" xlink:href="#m5eb5226f3c" y="295.759639"/>
      </g>
     </g>
     <g id="text_3">
      <!-- $\mathdefault{2^{15}}$ -->
      <g style="fill:#262626;" transform="translate(243.594044 314.392034)scale(0.132 -0.132)">
       <defs>
        <path d="M 730 3692 
C 794 3666 1056 3584 1325 3584 
C 1920 3584 2246 3911 2432 4100 
C 2432 4157 2432 4192 2394 4192 
C 2387 4192 2374 4192 2323 4163 
C 2099 4058 1837 3973 1517 3973 
C 1325 3973 1037 3999 723 4139 
C 653 4171 640 4171 634 4171 
C 602 4171 595 4164 595 4037 
L 595 2203 
C 595 2089 595 2057 659 2057 
C 691 2057 704 2070 736 2114 
C 941 2401 1222 2522 1542 2522 
C 1766 2522 2246 2382 2246 1289 
C 2246 1085 2246 715 2054 421 
C 1894 159 1645 25 1370 25 
C 947 25 518 320 403 814 
C 429 807 480 795 506 795 
C 589 795 749 840 749 1038 
C 749 1210 627 1280 506 1280 
C 358 1280 262 1190 262 1011 
C 262 454 704 -128 1382 -128 
C 2042 -128 2669 440 2669 1264 
C 2669 2030 2170 2624 1549 2624 
C 1222 2624 947 2503 730 2274 
L 730 3692 
z
" id="CMR17-35" transform="scale(0.015625)"/>
       </defs>
       <use transform="scale(0.996264)" xlink:href="#CMR17-32"/>
       <use transform="translate(45.690477 36.153639)scale(0.697382)" xlink:href="#CMR17-31"/>
       <use transform="translate(77.673659 36.153639)scale(0.697382)" xlink:href="#CMR17-35"/>
      </g>
     </g>
    </g>
    <g id="xtick_4">
     <g id="line2d_4">
      <g>
       <use style="fill:#262626;stroke:#262626;stroke-width:1.25;" x="310.72552" xlink:href="#m5eb5226f3c" y="295.759639"/>
      </g>
     </g>
     <g id="text_4">
      <!-- $\mathdefault{2^{18}}$ -->
      <g style="fill:#262626;" transform="translate(302.775862 314.392034)scale(0.132 -0.132)">
       <defs>
        <path d="M 1741 2264 
C 2144 2467 2554 2773 2554 3263 
C 2554 3841 1990 4179 1472 4179 
C 890 4179 378 3759 378 3180 
C 378 3021 416 2747 666 2505 
C 730 2442 998 2251 1171 2130 
C 883 1983 211 1634 211 934 
C 211 279 838 -128 1459 -128 
C 2144 -128 2720 362 2720 1010 
C 2720 1590 2330 1857 2074 2029 
L 1741 2264 
z
M 902 2822 
C 851 2854 595 3051 595 3351 
C 595 3739 998 4032 1459 4032 
C 1965 4032 2336 3676 2336 3262 
C 2336 2669 1670 2331 1638 2331 
C 1632 2331 1626 2331 1574 2370 
L 902 2822 
z
M 2080 1519 
C 2176 1449 2483 1240 2483 851 
C 2483 381 2010 25 1472 25 
C 890 25 448 438 448 940 
C 448 1443 838 1862 1280 2060 
L 2080 1519 
z
" id="CMR17-38" transform="scale(0.015625)"/>
       </defs>
       <use transform="scale(0.996264)" xlink:href="#CMR17-32"/>
       <use transform="translate(45.690477 36.153639)scale(0.697382)" xlink:href="#CMR17-31"/>
       <use transform="translate(77.673659 36.153639)scale(0.697382)" xlink:href="#CMR17-38"/>
      </g>
     </g>
    </g>
    <g id="xtick_5">
     <g id="line2d_5">
      <g>
       <use style="fill:#262626;stroke:#262626;stroke-width:1.25;" x="369.907338" xlink:href="#m5eb5226f3c" y="295.759639"/>
      </g>
     </g>
     <g id="text_5">
      <!-- $\mathdefault{2^{21}}$ -->
      <g style="fill:#262626;" transform="translate(361.95768 314.392034)scale(0.132 -0.132)">
       <use transform="scale(0.996264)" xlink:href="#CMR17-32"/>
       <use transform="translate(45.690477 36.153639)scale(0.697382)" xlink:href="#CMR17-32"/>
       <use transform="translate(77.673659 36.153639)scale(0.697382)" xlink:href="#CMR17-31"/>
      </g>
     </g>
    </g>
    <g id="xtick_6">
     <g id="line2d_6">
      <g>
       <use style="fill:#262626;stroke:#262626;stroke-width:1.25;" x="429.089157" xlink:href="#m5eb5226f3c" y="295.759639"/>
      </g>
     </g>
     <g id="text_6">
      <!-- $\mathdefault{2^{24}}$ -->
      <g style="fill:#262626;" transform="translate(421.139499 314.392034)scale(0.132 -0.132)">
       <defs>
        <path d="M 2150 4122 
C 2150 4256 2144 4256 2029 4256 
L 128 1254 
L 128 1088 
L 1779 1088 
L 1779 457 
C 1779 224 1766 160 1318 160 
L 1197 160 
L 1197 0 
C 1402 0 1747 0 1965 0 
C 2182 0 2528 0 2733 0 
L 2733 160 
L 2611 160 
C 2163 160 2150 224 2150 457 
L 2150 1088 
L 2803 1088 
L 2803 1254 
L 2150 1254 
L 2150 4122 
z
M 1798 3703 
L 1798 1254 
L 256 1254 
L 1798 3703 
z
" id="CMR17-34" transform="scale(0.015625)"/>
       </defs>
       <use transform="scale(0.996264)" xlink:href="#CMR17-32"/>
       <use transform="translate(45.690477 36.153639)scale(0.697382)" xlink:href="#CMR17-32"/>
       <use transform="translate(77.673659 36.153639)scale(0.697382)" xlink:href="#CMR17-34"/>
      </g>
     </g>
    </g>
    <g id="text_7">
     <!-- Matrix size -->
     <g style="fill:#262626;" transform="translate(236.896978 330.91172)scale(0.144 -0.144)">
      <defs>
       <path d="M 1338 4224 
C 1299 4320 1293 4320 1158 4320 
L 339 4320 
L 339 4160 
C 781 4160 851 4160 851 3875 
L 851 610 
C 851 451 851 153 339 153 
L 339 -13 
C 486 0 755 0 915 0 
C 1075 0 1344 0 1491 -13 
L 1491 153 
C 979 153 979 451 979 610 
L 979 4135 
L 986 4135 
L 2490 89 
C 2515 25 2528 -13 2579 -13 
C 2630 -13 2643 25 2669 89 
L 4186 4166 
L 4192 4166 
L 4192 438 
C 4192 153 4122 153 3680 153 
L 3680 -13 
C 3853 0 4198 0 4384 0 
C 4570 0 4922 0 5094 -13 
L 5094 153 
C 4653 153 4582 153 4582 438 
L 4582 3875 
C 4582 4160 4653 4160 5094 4160 
L 5094 4320 
L 4282 4320 
C 4147 4320 4141 4314 4102 4218 
L 2720 502 
L 1338 4224 
z
" id="CMR17-4d" transform="scale(0.015625)"/>
       <path d="M 2304 1653 
C 2304 2072 2304 2294 2035 2543 
C 1798 2752 1523 2816 1306 2816 
C 800 2816 435 2407 435 1971 
C 435 1728 627 1728 666 1728 
C 749 1728 896 1778 896 1954 
C 896 2112 774 2181 666 2181 
C 640 2181 608 2174 589 2168 
C 723 2592 1069 2714 1293 2714 
C 1613 2714 1965 2429 1965 1885 
L 1965 1600 
C 1587 1600 1133 1549 774 1357 
C 371 1133 256 813 256 570 
C 256 77 832 -64 1171 -64 
C 1523 -64 1850 139 1990 511 
C 2003 233 2182 -18 2464 -18 
C 2598 -18 2938 70 2938 567 
L 2938 920 
L 2822 920 
L 2822 562 
C 2822 178 2650 128 2566 128 
C 2304 128 2304 458 2304 738 
L 2304 1653 
z
M 1965 870 
C 1965 317 1568 38 1216 38 
C 896 38 646 275 646 570 
C 646 761 730 1100 1101 1305 
C 1408 1478 1760 1504 1965 1504 
L 1965 870 
z
" id="CMR17-61" transform="scale(0.015625)"/>
       <path d="M 966 2560 
L 1862 2560 
L 1862 2725 
L 966 2725 
L 966 3904 
L 851 3904 
C 838 3245 614 2668 70 2668 
L 70 2560 
L 627 2560 
L 627 771 
C 627 650 627 -64 1370 -64 
C 1747 -64 1965 306 1965 777 
L 1965 1140 
L 1850 1140 
L 1850 783 
C 1850 344 1677 51 1408 51 
C 1222 51 966 178 966 758 
L 966 2560 
z
" id="CMR17-74" transform="scale(0.015625)"/>
       <path d="M 960 1497 
C 960 2112 1222 2688 1702 2688 
C 1747 2688 1792 2682 1837 2662 
C 1837 2662 1696 2617 1696 2452 
C 1696 2298 1818 2234 1914 2234 
C 1990 2234 2131 2279 2131 2458 
C 2131 2663 1926 2790 1709 2790 
C 1222 2790 1011 2317 947 2093 
L 941 2093 
L 941 2790 
L 198 2720 
L 198 2554 
C 576 2554 634 2515 634 2208 
L 634 428 
C 634 184 608 153 198 153 
L 198 -13 
C 352 0 646 0 813 0 
C 998 0 1325 0 1498 -13 
L 1498 153 
C 1037 153 960 153 960 440 
L 960 1497 
z
" id="CMR17-72" transform="scale(0.015625)"/>
       <path d="M 992 3909 
C 992 4049 877 4170 730 4170 
C 589 4170 467 4056 467 3909 
C 467 3769 582 3648 730 3648 
C 870 3648 992 3763 992 3909 
z
M 243 2706 
L 243 2541 
C 602 2541 653 2502 653 2197 
L 653 427 
C 653 184 627 153 218 153 
L 218 -13 
C 371 0 646 0 806 0 
C 960 0 1222 0 1370 -13 
L 1370 153 
C 992 153 979 191 979 420 
L 979 2776 
L 243 2706 
z
" id="CMR17-69" transform="scale(0.015625)"/>
       <path d="M 1664 1477 
C 1856 1726 2074 2006 2253 2216 
C 2464 2458 2707 2560 2989 2560 
L 2989 2726 
C 2880 2726 2656 2726 2541 2726 
C 2368 2726 2170 2726 2022 2732 
L 2022 2566 
C 2112 2553 2163 2489 2163 2400 
C 2163 2285 2099 2215 2067 2171 
L 1594 1573 
L 1030 2306 
C 973 2376 973 2388 973 2420 
C 973 2497 1037 2560 1146 2560 
L 1146 2732 
C 992 2726 717 2726 557 2726 
C 384 2726 179 2726 38 2732 
L 38 2560 
C 384 2560 461 2534 614 2343 
L 1350 1395 
C 1363 1382 1395 1344 1395 1325 
C 1395 1299 838 619 768 530 
C 480 185 179 160 6 160 
L 6 0 
C 115 0 339 0 454 0 
C 582 0 864 0 979 -6 
L 979 160 
C 941 166 838 179 838 325 
C 838 440 890 510 947 586 
L 1478 1236 
L 2035 512 
C 2086 442 2163 346 2163 301 
C 2163 211 2086 160 1984 160 
L 1984 -6 
C 2138 0 2413 0 2573 0 
C 2746 0 2950 0 3091 -6 
L 3091 160 
C 2771 160 2675 172 2522 370 
L 1664 1477 
z
" id="CMR17-78" transform="scale(0.015625)"/>
       <path d="M 1978 2697 
C 1978 2813 1971 2819 1933 2819 
C 1907 2819 1901 2813 1824 2717 
C 1805 2691 1747 2626 1728 2601 
C 1523 2819 1235 2819 1126 2819 
C 416 2819 160 2447 160 2076 
C 160 1498 813 1365 998 1325 
C 1402 1243 1542 1217 1677 1101 
C 1760 1025 1901 884 1901 654 
C 1901 384 1747 38 1158 38 
C 602 38 403 460 288 1021 
C 269 1110 269 1117 218 1117 
C 166 1117 160 1110 160 983 
L 160 63 
C 160 -51 166 -58 205 -58 
C 237 -58 243 -51 275 0 
C 314 57 410 211 448 276 
C 576 103 800 -64 1158 -64 
C 1792 -64 2131 283 2131 784 
C 2131 1112 1958 1285 1875 1362 
C 1683 1561 1459 1606 1190 1657 
C 838 1735 390 1825 390 2217 
C 390 2383 480 2737 1126 2737 
C 1811 2737 1850 2094 1862 1888 
C 1869 1856 1901 1849 1920 1849 
C 1978 1849 1978 1869 1978 1978 
L 1978 2697 
z
" id="CMR17-73" transform="scale(0.015625)"/>
       <path d="M 2310 2605 
C 2362 2670 2362 2682 2362 2695 
C 2362 2752 2336 2752 2221 2752 
L 275 2752 
L 211 1760 
L 326 1760 
C 371 2381 442 2650 1178 2650 
L 1958 2650 
L 128 96 
C 128 0 134 0 269 0 
L 2291 0 
L 2381 1152 
L 2266 1152 
C 2214 442 2131 115 1350 115 
L 531 115 
L 2310 2605 
z
" id="CMR17-7a" transform="scale(0.015625)"/>
       <path d="M 2438 1472 
C 2464 1498 2464 1511 2464 1576 
C 2464 2238 2118 2816 1389 2816 
C 710 2816 173 2169 173 1383 
C 173 551 781 -64 1459 -64 
C 2176 -64 2458 607 2458 740 
C 2458 784 2419 784 2406 784 
C 2362 784 2355 771 2330 696 
C 2189 265 1837 51 1504 51 
C 1229 51 954 203 781 480 
C 582 803 582 1176 582 1472 
L 2438 1472 
z
M 589 1568 
C 634 2505 1126 2714 1382 2714 
C 1818 2714 2112 2297 2118 1568 
L 589 1568 
z
" id="CMR17-65" transform="scale(0.015625)"/>
      </defs>
      <use transform="scale(0.996264)" xlink:href="#CMR17-4d"/>
      <use transform="translate(84.686941 0)scale(0.996264)" xlink:href="#CMR17-61"/>
      <use transform="translate(130.377418 0)scale(0.996264)" xlink:href="#CMR17-74"/>
      <use transform="translate(165.658185 0)scale(0.996264)" xlink:href="#CMR17-72"/>
      <use transform="translate(200.938953 0)scale(0.996264)" xlink:href="#CMR17-69"/>
      <use transform="translate(225.810012 0)scale(0.996264)" xlink:href="#CMR17-78"/>
      <use transform="translate(304.178894 0)scale(0.996264)" xlink:href="#CMR17-73"/>
      <use transform="translate(339.980232 0)scale(0.996264)" xlink:href="#CMR17-69"/>
      <use transform="translate(364.85129 0)scale(0.996264)" xlink:href="#CMR17-7a"/>
      <use transform="translate(405.336951 0)scale(0.996264)" xlink:href="#CMR17-65"/>
     </g>
    </g>
   </g>
   <g id="matplotlib.axis_2">
    <g id="ytick_1">
     <g id="line2d_7">
      <path clip-path="url(#ped24817039)" d="M 75.970975 268.988721 
L 466.570975 268.988721 
" style="fill:none;stroke:#cccccc;stroke-linecap:round;"/>
     </g>
     <g id="line2d_8">
      <defs>
       <path d="M 0 0 
L -6 0 
" id="m80a6b7e7c1" style="stroke:#262626;stroke-width:1.25;"/>
      </defs>
      <g>
       <use style="fill:#262626;stroke:#262626;stroke-width:1.25;" x="75.970975" xlink:href="#m80a6b7e7c1" y="268.988721"/>
      </g>
     </g>
     <g id="text_8">
      <!-- $10^{-13}\%$ -->
      <g style="fill:#262626;" transform="translate(25.54618 273.554918)scale(0.132 -0.132)">
       <defs>
        <path d="M 2688 2025 
C 2688 2416 2682 3080 2413 3591 
C 2176 4039 1798 4198 1466 4198 
C 1158 4198 768 4058 525 3597 
C 269 3118 243 2524 243 2025 
C 243 1661 250 1106 448 619 
C 723 -39 1216 -128 1466 -128 
C 1760 -128 2208 -7 2470 600 
C 2662 1042 2688 1559 2688 2025 
z
M 1466 -26 
C 1056 -26 813 325 723 812 
C 653 1188 653 1738 653 2096 
C 653 2588 653 2997 736 3387 
C 858 3929 1216 4096 1466 4096 
C 1728 4096 2067 3923 2189 3400 
C 2272 3036 2278 2607 2278 2096 
C 2278 1680 2278 1169 2202 792 
C 2067 95 1690 -26 1466 -26 
z
" id="CMR17-30" transform="scale(0.015625)"/>
        <path d="M 4218 1472 
C 4326 1472 4442 1472 4442 1600 
C 4442 1728 4326 1728 4218 1728 
L 755 1728 
C 646 1728 531 1728 531 1600 
C 531 1472 646 1472 755 1472 
L 4218 1472 
z
" id="CMSY10-0" transform="scale(0.015625)"/>
        <path d="M 1414 2157 
C 1984 2157 2234 1662 2234 1090 
C 2234 320 1824 25 1453 25 
C 1114 25 563 194 390 693 
C 422 680 454 680 486 680 
C 640 680 755 782 755 948 
C 755 1133 614 1216 486 1216 
C 378 1216 211 1165 211 926 
C 211 335 787 -128 1466 -128 
C 2176 -128 2720 430 2720 1085 
C 2720 1707 2208 2157 1600 2227 
C 2086 2328 2554 2756 2554 3329 
C 2554 3820 2048 4179 1472 4179 
C 890 4179 378 3829 378 3329 
C 378 3110 544 3072 627 3072 
C 762 3072 877 3155 877 3321 
C 877 3486 762 3569 627 3569 
C 602 3569 570 3569 544 3557 
C 730 3959 1235 4032 1459 4032 
C 1683 4032 2106 3925 2106 3320 
C 2106 3143 2080 2828 1862 2550 
C 1670 2304 1453 2304 1242 2284 
C 1210 2284 1062 2269 1037 2269 
C 992 2263 966 2257 966 2208 
C 966 2163 973 2157 1101 2157 
L 1414 2157 
z
" id="CMR17-33" transform="scale(0.015625)"/>
        <path d="M 4640 959 
C 4640 1698 4275 2240 3846 2240 
C 3411 2240 2970 1736 2970 959 
C 2970 183 3405 -320 3846 -320 
C 4275 -320 4640 215 4640 959 
z
M 3853 -218 
C 3686 -218 3270 -66 3270 959 
C 3270 1991 3686 2138 3853 2138 
C 4205 2138 4525 1634 4525 959 
C 4525 285 4205 -218 3853 -218 
z
M 4083 4577 
C 4128 4647 4134 4653 4134 4685 
C 4134 4761 4077 4800 4026 4800 
C 3962 4800 3936 4756 3891 4706 
C 3520 4190 3008 4134 2746 4134 
C 2106 4134 1715 4494 1594 4607 
C 1510 4682 1389 4800 1171 4800 
C 736 4800 294 4296 294 3519 
C 294 2743 730 2240 1171 2240 
C 1600 2240 1965 2778 1965 3527 
C 1965 3969 1830 4270 1811 4308 
C 2202 4064 2586 4032 2752 4032 
C 3162 4032 3456 4183 3616 4289 
L 3622 4283 
L 858 -84 
C 800 -174 800 -187 800 -206 
C 800 -276 858 -320 915 -320 
C 973 -320 992 -289 1037 -218 
L 4083 4577 
z
M 1178 2342 
C 1011 2342 595 2494 595 3519 
C 595 4551 1011 4698 1178 4698 
C 1530 4698 1850 4194 1850 3519 
C 1850 2845 1530 2342 1178 2342 
z
" id="CMR17-25" transform="scale(0.015625)"/>
       </defs>
       <use transform="scale(0.996264)" xlink:href="#CMR17-31"/>
       <use transform="translate(45.690477 0)scale(0.996264)" xlink:href="#CMR17-30"/>
       <use transform="translate(91.380954 36.153639)scale(0.697382)" xlink:href="#CMSY10-0"/>
       <use transform="translate(145.621947 36.153639)scale(0.697382)" xlink:href="#CMR17-31"/>
       <use transform="translate(177.605129 36.153639)scale(0.697382)" xlink:href="#CMR17-33"/>
       <use transform="translate(210.086443 0)scale(0.996264)" xlink:href="#CMR17-25"/>
      </g>
     </g>
    </g>
    <g id="ytick_2">
     <g id="line2d_9">
      <path clip-path="url(#ped24817039)" d="M 75.970975 232.740048 
L 466.570975 232.740048 
" style="fill:none;stroke:#cccccc;stroke-linecap:round;"/>
     </g>
     <g id="line2d_10">
      <g>
       <use style="fill:#262626;stroke:#262626;stroke-width:1.25;" x="75.970975" xlink:href="#m80a6b7e7c1" y="232.740048"/>
      </g>
     </g>
     <g id="text_9">
      <!-- $10^{-11}\%$ -->
      <g style="fill:#262626;" transform="translate(25.54618 237.306246)scale(0.132 -0.132)">
       <use transform="scale(0.996264)" xlink:href="#CMR17-31"/>
       <use transform="translate(45.690477 0)scale(0.996264)" xlink:href="#CMR17-30"/>
       <use transform="translate(91.380954 36.153639)scale(0.697382)" xlink:href="#CMSY10-0"/>
       <use transform="translate(145.621947 36.153639)scale(0.697382)" xlink:href="#CMR17-31"/>
       <use transform="translate(177.605129 36.153639)scale(0.697382)" xlink:href="#CMR17-31"/>
       <use transform="translate(210.086443 0)scale(0.996264)" xlink:href="#CMR17-25"/>
      </g>
     </g>
    </g>
    <g id="ytick_3">
     <g id="line2d_11">
      <path clip-path="url(#ped24817039)" d="M 75.970975 196.491376 
L 466.570975 196.491376 
" style="fill:none;stroke:#cccccc;stroke-linecap:round;"/>
     </g>
     <g id="line2d_12">
      <g>
       <use style="fill:#262626;stroke:#262626;stroke-width:1.25;" x="75.970975" xlink:href="#m80a6b7e7c1" y="196.491376"/>
      </g>
     </g>
     <g id="text_10">
      <!-- $10^{-9}\%$ -->
      <g style="fill:#262626;" transform="translate(30.276702 201.057573)scale(0.132 -0.132)">
       <use transform="scale(0.996264)" xlink:href="#CMR17-31"/>
       <use transform="translate(45.690477 0)scale(0.996264)" xlink:href="#CMR17-30"/>
       <use transform="translate(91.380954 36.153639)scale(0.697382)" xlink:href="#CMSY10-0"/>
       <use transform="translate(145.621947 36.153639)scale(0.697382)" xlink:href="#CMR17-39"/>
       <use transform="translate(178.103261 0)scale(0.996264)" xlink:href="#CMR17-25"/>
      </g>
     </g>
    </g>
    <g id="ytick_4">
     <g id="line2d_13">
      <path clip-path="url(#ped24817039)" d="M 75.970975 160.242703 
L 466.570975 160.242703 
" style="fill:none;stroke:#cccccc;stroke-linecap:round;"/>
     </g>
     <g id="line2d_14">
      <g>
       <use style="fill:#262626;stroke:#262626;stroke-width:1.25;" x="75.970975" xlink:href="#m80a6b7e7c1" y="160.242703"/>
      </g>
     </g>
     <g id="text_11">
      <!-- $10^{-7}\%$ -->
      <g style="fill:#262626;" transform="translate(30.276702 164.808901)scale(0.132 -0.132)">
       <defs>
        <path d="M 2886 3941 
L 2886 4081 
L 1382 4081 
C 634 4081 621 4165 595 4288 
L 480 4288 
L 294 3094 
L 410 3094 
C 429 3215 474 3540 550 3661 
C 589 3712 1062 3712 1171 3712 
L 2579 3712 
L 1869 2661 
C 1395 1954 1069 999 1069 165 
C 1069 89 1069 -128 1299 -128 
C 1530 -128 1530 89 1530 171 
L 1530 465 
C 1530 1508 1709 2196 2003 2636 
L 2886 3941 
z
" id="CMR17-37" transform="scale(0.015625)"/>
       </defs>
       <use transform="scale(0.996264)" xlink:href="#CMR17-31"/>
       <use transform="translate(45.690477 0)scale(0.996264)" xlink:href="#CMR17-30"/>
       <use transform="translate(91.380954 36.153639)scale(0.697382)" xlink:href="#CMSY10-0"/>
       <use transform="translate(145.621947 36.153639)scale(0.697382)" xlink:href="#CMR17-37"/>
       <use transform="translate(178.103261 0)scale(0.996264)" xlink:href="#CMR17-25"/>
      </g>
     </g>
    </g>
    <g id="ytick_5">
     <g id="line2d_15">
      <path clip-path="url(#ped24817039)" d="M 75.970975 123.994031 
L 466.570975 123.994031 
" style="fill:none;stroke:#cccccc;stroke-linecap:round;"/>
     </g>
     <g id="line2d_16">
      <g>
       <use style="fill:#262626;stroke:#262626;stroke-width:1.25;" x="75.970975" xlink:href="#m80a6b7e7c1" y="123.994031"/>
      </g>
     </g>
     <g id="text_12">
      <!-- $10^{-5}\%$ -->
      <g style="fill:#262626;" transform="translate(30.276702 128.560228)scale(0.132 -0.132)">
       <use transform="scale(0.996264)" xlink:href="#CMR17-31"/>
       <use transform="translate(45.690477 0)scale(0.996264)" xlink:href="#CMR17-30"/>
       <use transform="translate(91.380954 36.153639)scale(0.697382)" xlink:href="#CMSY10-0"/>
       <use transform="translate(145.621947 36.153639)scale(0.697382)" xlink:href="#CMR17-35"/>
       <use transform="translate(178.103261 0)scale(0.996264)" xlink:href="#CMR17-25"/>
      </g>
     </g>
    </g>
    <g id="ytick_6">
     <g id="line2d_17">
      <path clip-path="url(#ped24817039)" d="M 75.970975 87.745358 
L 466.570975 87.745358 
" style="fill:none;stroke:#cccccc;stroke-linecap:round;"/>
     </g>
     <g id="line2d_18">
      <g>
       <use style="fill:#262626;stroke:#262626;stroke-width:1.25;" x="75.970975" xlink:href="#m80a6b7e7c1" y="87.745358"/>
      </g>
     </g>
     <g id="text_13">
      <!-- $10^{-3}\%$ -->
      <g style="fill:#262626;" transform="translate(30.276702 92.311556)scale(0.132 -0.132)">
       <use transform="scale(0.996264)" xlink:href="#CMR17-31"/>
       <use transform="translate(45.690477 0)scale(0.996264)" xlink:href="#CMR17-30"/>
       <use transform="translate(91.380954 36.153639)scale(0.697382)" xlink:href="#CMSY10-0"/>
       <use transform="translate(145.621947 36.153639)scale(0.697382)" xlink:href="#CMR17-33"/>
       <use transform="translate(178.103261 0)scale(0.996264)" xlink:href="#CMR17-25"/>
      </g>
     </g>
    </g>
    <g id="ytick_7">
     <g id="line2d_19">
      <path clip-path="url(#ped24817039)" d="M 75.970975 51.496686 
L 466.570975 51.496686 
" style="fill:none;stroke:#cccccc;stroke-linecap:round;"/>
     </g>
     <g id="line2d_20">
      <g>
       <use style="fill:#262626;stroke:#262626;stroke-width:1.25;" x="75.970975" xlink:href="#m80a6b7e7c1" y="51.496686"/>
      </g>
     </g>
     <g id="text_14">
      <!-- $10^{-1}\%$ -->
      <g style="fill:#262626;" transform="translate(30.276702 56.062883)scale(0.132 -0.132)">
       <use transform="scale(0.996264)" xlink:href="#CMR17-31"/>
       <use transform="translate(45.690477 0)scale(0.996264)" xlink:href="#CMR17-30"/>
       <use transform="translate(91.380954 36.153639)scale(0.697382)" xlink:href="#CMSY10-0"/>
       <use transform="translate(145.621947 36.153639)scale(0.697382)" xlink:href="#CMR17-31"/>
       <use transform="translate(178.103261 0)scale(0.996264)" xlink:href="#CMR17-25"/>
      </g>
     </g>
    </g>
    <g id="text_15">
     <!-- Relative error (w.r.t analytic solution) -->
     <g style="fill:#262626;" transform="translate(17.959639 277.639773)rotate(-90)scale(0.144 -0.144)">
      <defs>
       <path d="M 2509 2146 
C 3117 2268 3629 2676 3629 3186 
C 3629 3785 2950 4326 2054 4326 
L 333 4326 
L 333 4160 
C 774 4160 845 4160 845 3873 
L 845 415 
C 845 128 774 128 333 128 
L 333 -26 
C 518 -26 851 -26 1050 -26 
C 1248 -26 1581 -26 1766 -26 
L 1766 128 
C 1325 128 1254 128 1254 417 
L 1254 2112 
L 2003 2112 
C 2368 2112 2573 1964 2662 1881 
C 2918 1632 2918 1459 2918 1024 
C 2918 595 2918 377 3110 160 
C 3354 -102 3680 -128 3821 -128 
C 4294 -128 4365 396 4365 503 
C 4365 540 4365 585 4307 585 
C 4256 585 4250 547 4250 522 
C 4218 112 4032 -26 3834 -26 
C 3482 -26 3443 375 3405 764 
C 3386 898 3373 993 3360 1133 
C 3322 1452 3270 1917 2509 2146 
z
M 1984 2214 
L 1254 2214 
L 1254 3913 
C 1254 4129 1267 4160 1523 4160 
L 1990 4160 
C 2522 4160 3142 3977 3142 3190 
C 3142 2372 2464 2214 1984 2214 
z
" id="CMR17-52" transform="scale(0.015625)"/>
       <path d="M 979 4396 
L 218 4326 
L 218 4160 
C 595 4160 653 4122 653 3817 
L 653 426 
C 653 184 627 153 218 153 
L 218 -13 
C 371 0 653 0 813 0 
C 979 0 1261 0 1414 -13 
L 1414 153 
C 1005 153 979 178 979 426 
L 979 4396 
z
" id="CMR17-6c" transform="scale(0.015625)"/>
       <path d="M 2502 2163 
C 2560 2304 2662 2560 3034 2560 
L 3034 2726 
C 2912 2726 2752 2726 2630 2726 
C 2496 2726 2285 2726 2157 2732 
L 2157 2566 
C 2317 2553 2406 2477 2406 2311 
C 2406 2253 2406 2240 2368 2151 
L 1664 377 
L 902 2286 
C 864 2369 864 2381 864 2407 
C 864 2560 1075 2560 1171 2560 
L 1171 2732 
C 1018 2726 736 2726 576 2726 
C 403 2726 205 2726 64 2732 
L 64 2560 
C 307 2560 442 2560 518 2362 
L 1446 44 
C 1485 -51 1491 -64 1549 -64 
C 1606 -64 1613 -51 1651 44 
L 2502 2163 
z
" id="CMR17-76" transform="scale(0.015625)"/>
       <path d="M 2758 1356 
C 2758 2176 2163 2816 1466 2816 
C 768 2816 173 2176 173 1356 
C 173 551 768 -64 1466 -64 
C 2163 -64 2758 551 2758 1356 
z
M 1466 51 
C 1165 51 909 230 762 480 
C 602 767 582 1126 582 1408 
C 582 1677 595 2010 762 2298 
C 890 2509 1139 2714 1466 2714 
C 1754 2714 1997 2554 2150 2330 
C 2349 2029 2349 1607 2349 1408 
C 2349 1158 2336 775 2163 467 
C 1984 173 1709 51 1466 51 
z
" id="CMR17-6f" transform="scale(0.015625)"/>
       <path d="M 1958 -1561 
C 1958 -1555 1958 -1542 1939 -1523 
C 1645 -1224 858 -407 858 1581 
C 858 3569 1632 4379 1946 4697 
C 1946 4704 1958 4717 1958 4736 
C 1958 4755 1939 4768 1914 4768 
C 1843 4768 1299 4296 986 3594 
C 666 2887 576 2199 576 1588 
C 576 1128 621 351 1005 -471 
C 1312 -1135 1837 -1600 1914 -1600 
C 1946 -1600 1958 -1587 1958 -1561 
z
" id="CMR17-28" transform="scale(0.015625)"/>
       <path d="M 3725 2183 
C 3853 2560 4109 2560 4205 2560 
L 4205 2732 
C 4077 2732 3949 2732 3821 2732 
C 3699 2732 3424 2732 3315 2738 
L 3315 2560 
C 3514 2560 3622 2445 3622 2286 
C 3622 2241 3610 2184 3597 2140 
L 2995 407 
L 2342 2275 
C 2330 2319 2310 2370 2310 2395 
C 2310 2560 2528 2560 2630 2560 
L 2630 2738 
C 2483 2732 2214 2732 2061 2732 
C 1901 2732 1734 2732 1587 2738 
L 1587 2560 
C 1939 2560 1939 2547 2074 2149 
L 1485 451 
L 851 2281 
C 819 2363 819 2376 819 2395 
C 819 2560 1037 2560 1139 2560 
L 1139 2738 
C 986 2732 717 2732 557 2732 
C 416 2732 198 2732 64 2738 
L 64 2560 
C 346 2560 416 2541 486 2331 
L 1274 49 
C 1299 -33 1318 -52 1370 -52 
C 1414 -52 1440 -39 1472 56 
L 2131 1980 
L 2797 56 
C 2829 -39 2854 -52 2899 -52 
C 2950 -52 2970 -33 2995 50 
L 3725 2183 
z
" id="CMR17-77" transform="scale(0.015625)"/>
       <path d="M 1062 261 
C 1062 420 934 522 800 522 
C 672 522 538 420 538 261 
C 538 102 666 0 800 0 
C 928 0 1062 102 1062 261 
z
" id="CMR17-2e" transform="scale(0.015625)"/>
       <path d="M 2656 1933 
C 2656 2259 2592 2790 1837 2790 
C 1331 2790 1069 2400 973 2144 
L 966 2144 
L 966 2790 
L 211 2720 
L 211 2554 
C 589 2554 646 2515 646 2208 
L 646 428 
C 646 184 621 153 211 153 
L 211 -13 
C 365 0 646 0 813 0 
C 979 0 1267 0 1421 -13 
L 1421 153 
C 1011 153 986 178 986 428 
L 986 1658 
C 986 2247 1344 2688 1792 2688 
C 2266 2688 2317 2266 2317 1958 
L 2317 428 
C 2317 184 2291 153 1882 153 
L 1882 -13 
C 2035 0 2317 0 2483 0 
C 2650 0 2938 0 3091 -13 
L 3091 153 
C 2682 153 2656 178 2656 428 
L 2656 1933 
z
" id="CMR17-6e" transform="scale(0.015625)"/>
       <path d="M 2496 2197 
C 2656 2586 2944 2586 3034 2586 
L 3034 2752 
C 2912 2752 2752 2752 2630 2752 
C 2496 2752 2285 2752 2157 2758 
L 2157 2592 
C 2400 2573 2406 2394 2406 2343 
C 2406 2280 2394 2248 2362 2171 
L 1664 449 
L 902 2306 
C 870 2382 870 2426 870 2433 
C 870 2573 1018 2586 1171 2586 
L 1171 2758 
C 1018 2752 742 2752 582 2752 
C 410 2752 205 2752 64 2758 
L 64 2586 
C 410 2586 448 2554 531 2350 
L 1485 15 
C 1197 -738 1030 -1178 627 -1178 
C 557 -1178 397 -1159 282 -1044 
C 429 -1031 493 -942 493 -833 
C 493 -725 416 -629 288 -629 
C 147 -629 77 -725 77 -840 
C 77 -1095 339 -1280 627 -1280 
C 998 -1280 1229 -922 1357 -604 
L 2496 2197 
z
" id="CMR17-79" transform="scale(0.015625)"/>
       <path d="M 2234 2240 
C 2112 2240 1933 2240 1933 2017 
C 1933 1838 2080 1787 2163 1787 
C 2208 1787 2394 1807 2394 2024 
C 2394 2467 1958 2803 1466 2803 
C 787 2803 211 2178 211 1363 
C 211 516 813 -64 1466 -64 
C 2259 -64 2458 677 2458 748 
C 2458 774 2451 793 2406 793 
C 2362 793 2355 787 2330 703 
C 2163 180 1798 51 1523 51 
C 1114 51 621 427 621 1369 
C 621 2338 1094 2688 1472 2688 
C 1722 2688 2093 2573 2234 2240 
z
" id="CMR17-63" transform="scale(0.015625)"/>
       <path d="M 1882 2693 
L 1882 2528 
C 2259 2528 2317 2489 2317 2186 
L 2317 1032 
C 2317 500 2029 38 1555 38 
C 1030 38 986 348 986 678 
L 986 2763 
L 211 2693 
L 211 2528 
C 467 2528 640 2528 646 2274 
L 646 1058 
C 646 633 646 361 813 183 
C 896 101 1056 -64 1517 -64 
C 2061 -64 2272 377 2323 506 
L 2330 506 
L 2330 -63 
L 3091 -63 
L 3091 128 
C 2714 128 2656 166 2656 473 
L 2656 2763 
L 1882 2693 
z
" id="CMR17-75" transform="scale(0.015625)"/>
       <path d="M 1683 1581 
C 1683 2040 1638 2817 1254 3639 
C 947 4303 422 4768 346 4768 
C 326 4768 301 4761 301 4729 
C 301 4717 307 4710 314 4697 
C 621 4378 1402 3568 1402 1584 
C 1402 -407 627 -1217 314 -1537 
C 307 -1549 301 -1556 301 -1568 
C 301 -1600 326 -1600 346 -1600 
C 416 -1600 960 -1128 1274 -426 
C 1594 281 1683 969 1683 1581 
z
" id="CMR17-29" transform="scale(0.015625)"/>
      </defs>
      <use transform="scale(0.996264)" xlink:href="#CMR17-52"/>
      <use transform="translate(67.791102 0)scale(0.996264)" xlink:href="#CMR17-65"/>
      <use transform="translate(108.276762 0)scale(0.996264)" xlink:href="#CMR17-6c"/>
      <use transform="translate(133.147821 0)scale(0.996264)" xlink:href="#CMR17-61"/>
      <use transform="translate(178.838298 0)scale(0.996264)" xlink:href="#CMR17-74"/>
      <use transform="translate(214.119066 0)scale(0.996264)" xlink:href="#CMR17-69"/>
      <use transform="translate(238.990124 0)scale(0.996264)" xlink:href="#CMR17-76"/>
      <use transform="translate(284.680586 0)scale(0.996264)" xlink:href="#CMR17-65"/>
      <use transform="translate(355.242213 0)scale(0.996264)" xlink:href="#CMR17-65"/>
      <use transform="translate(395.727874 0)scale(0.996264)" xlink:href="#CMR17-72"/>
      <use transform="translate(431.008641 0)scale(0.996264)" xlink:href="#CMR17-72"/>
      <use transform="translate(466.289409 0)scale(0.996264)" xlink:href="#CMR17-6f"/>
      <use transform="translate(511.979886 0)scale(0.996264)" xlink:href="#CMR17-72"/>
      <use transform="translate(577.33662 0)scale(0.996264)" xlink:href="#CMR17-28"/>
      <use transform="translate(612.617388 0)scale(0.996264)" xlink:href="#CMR17-77"/>
      <use transform="translate(679.127269 0)scale(0.996264)" xlink:href="#CMR17-2e"/>
      <use transform="translate(703.998327 0)scale(0.996264)" xlink:href="#CMR17-72"/>
      <use transform="translate(739.279095 0)scale(0.996264)" xlink:href="#CMR17-2e"/>
      <use transform="translate(764.150153 0)scale(0.996264)" xlink:href="#CMR17-74"/>
      <use transform="translate(829.506888 0)scale(0.996264)" xlink:href="#CMR17-61"/>
      <use transform="translate(875.197365 0)scale(0.996264)" xlink:href="#CMR17-6e"/>
      <use transform="translate(926.092735 0)scale(0.996264)" xlink:href="#CMR17-61"/>
      <use transform="translate(971.783212 0)scale(0.996264)" xlink:href="#CMR17-6c"/>
      <use transform="translate(996.65427 0)scale(0.996264)" xlink:href="#CMR17-79"/>
      <use transform="translate(1044.947186 0)scale(0.996264)" xlink:href="#CMR17-74"/>
      <use transform="translate(1080.227954 0)scale(0.996264)" xlink:href="#CMR17-69"/>
      <use transform="translate(1105.099012 0)scale(0.996264)" xlink:href="#CMR17-63"/>
      <use transform="translate(1175.660639 0)scale(0.996264)" xlink:href="#CMR17-73"/>
      <use transform="translate(1211.461977 0)scale(0.996264)" xlink:href="#CMR17-6f"/>
      <use transform="translate(1257.152454 0)scale(0.996264)" xlink:href="#CMR17-6c"/>
      <use transform="translate(1282.023512 0)scale(0.996264)" xlink:href="#CMR17-75"/>
      <use transform="translate(1332.918882 0)scale(0.996264)" xlink:href="#CMR17-74"/>
      <use transform="translate(1368.19965 0)scale(0.996264)" xlink:href="#CMR17-69"/>
      <use transform="translate(1393.070708 0)scale(0.996264)" xlink:href="#CMR17-6f"/>
      <use transform="translate(1438.761185 0)scale(0.996264)" xlink:href="#CMR17-6e"/>
      <use transform="translate(1489.656555 0)scale(0.996264)" xlink:href="#CMR17-29"/>
     </g>
    </g>
   </g>
   <g id="line2d_21">
    <path clip-path="url(#ped24817039)" d="M 93.72552 39.375155 
L 113.452793 36.314185 
L 133.180066 57.13134 
L 152.907338 62.088441 
L 172.634611 53.342658 
L 192.361884 54.151278 
L 212.089157 49.58338 
L 231.816429 72.64421 
L 251.543702 66.363565 
L 271.270975 64.32522 
L 290.998248 68.540433 
L 310.72552 71.533779 
L 330.452793 84.945527 
L 350.180066 79.560257 
L 369.907338 87.496121 
L 389.634611 77.982754 
L 409.361884 75.543876 
L 429.089157 82.043296 
L 448.816429 89.175672 
" style="fill:none;stroke:#800000;stroke-linecap:round;stroke-width:1.5;"/>
    <defs>
     <path d="M 0 3 
C 0.795609 3 1.55874 2.683901 2.12132 2.12132 
C 2.683901 1.55874 3 0.795609 3 0 
C 3 -0.795609 2.683901 -1.55874 2.12132 -2.12132 
C 1.55874 -2.683901 0.795609 -3 0 -3 
C -0.795609 -3 -1.55874 -2.683901 -2.12132 -2.12132 
C -2.683901 -1.55874 -3 -0.795609 -3 0 
C -3 0.795609 -2.683901 1.55874 -2.12132 2.12132 
C -1.55874 2.683901 -0.795609 3 0 3 
z
" id="m24024f372b" style="stroke:#800000;"/>
    </defs>
    <g clip-path="url(#ped24817039)">
     <use style="fill:#800000;stroke:#800000;" x="93.72552" xlink:href="#m24024f372b" y="39.375155"/>
     <use style="fill:#800000;stroke:#800000;" x="113.452793" xlink:href="#m24024f372b" y="36.314185"/>
     <use style="fill:#800000;stroke:#800000;" x="133.180066" xlink:href="#m24024f372b" y="57.13134"/>
     <use style="fill:#800000;stroke:#800000;" x="152.907338" xlink:href="#m24024f372b" y="62.088441"/>
     <use style="fill:#800000;stroke:#800000;" x="172.634611" xlink:href="#m24024f372b" y="53.342658"/>
     <use style="fill:#800000;stroke:#800000;" x="192.361884" xlink:href="#m24024f372b" y="54.151278"/>
     <use style="fill:#800000;stroke:#800000;" x="212.089157" xlink:href="#m24024f372b" y="49.58338"/>
     <use style="fill:#800000;stroke:#800000;" x="231.816429" xlink:href="#m24024f372b" y="72.64421"/>
     <use style="fill:#800000;stroke:#800000;" x="251.543702" xlink:href="#m24024f372b" y="66.363565"/>
     <use style="fill:#800000;stroke:#800000;" x="271.270975" xlink:href="#m24024f372b" y="64.32522"/>
     <use style="fill:#800000;stroke:#800000;" x="290.998248" xlink:href="#m24024f372b" y="68.540433"/>
     <use style="fill:#800000;stroke:#800000;" x="310.72552" xlink:href="#m24024f372b" y="71.533779"/>
     <use style="fill:#800000;stroke:#800000;" x="330.452793" xlink:href="#m24024f372b" y="84.945527"/>
     <use style="fill:#800000;stroke:#800000;" x="350.180066" xlink:href="#m24024f372b" y="79.560257"/>
     <use style="fill:#800000;stroke:#800000;" x="369.907338" xlink:href="#m24024f372b" y="87.496121"/>
     <use style="fill:#800000;stroke:#800000;" x="389.634611" xlink:href="#m24024f372b" y="77.982754"/>
     <use style="fill:#800000;stroke:#800000;" x="409.361884" xlink:href="#m24024f372b" y="75.543876"/>
     <use style="fill:#800000;stroke:#800000;" x="429.089157" xlink:href="#m24024f372b" y="82.043296"/>
     <use style="fill:#800000;stroke:#800000;" x="448.816429" xlink:href="#m24024f372b" y="89.175672"/>
    </g>
   </g>
   <g id="line2d_22">
    <path clip-path="url(#ped24817039)" d="M 93.72552 37.043878 
L 113.452793 61.148982 
L 133.180066 44.226931 
L 152.907338 58.5489 
L 172.634611 56.155962 
L 192.361884 61.126335 
L 212.089157 53.613293 
L 231.816429 74.773737 
L 251.543702 82.197893 
L 271.270975 61.363943 
L 290.998248 72.286708 
L 310.72552 88.005594 
L 330.452793 67.820997 
L 350.180066 76.982724 
L 369.907338 77.751208 
L 389.634611 83.44613 
L 409.361884 98.103225 
L 429.089157 89.066308 
L 448.816429 93.026907 
" style="fill:none;stroke:#800000;stroke-linecap:round;stroke-width:1.5;"/>
    <defs>
     <path d="M -3 3 
L 3 3 
L 3 -3 
L -3 -3 
z
" id="mdd42af74d2" style="stroke:#800000;stroke-linejoin:miter;"/>
    </defs>
    <g clip-path="url(#ped24817039)">
     <use style="fill:#800000;stroke:#800000;stroke-linejoin:miter;" x="93.72552" xlink:href="#mdd42af74d2" y="37.043878"/>
     <use style="fill:#800000;stroke:#800000;stroke-linejoin:miter;" x="113.452793" xlink:href="#mdd42af74d2" y="61.148982"/>
     <use style="fill:#800000;stroke:#800000;stroke-linejoin:miter;" x="133.180066" xlink:href="#mdd42af74d2" y="44.226931"/>
     <use style="fill:#800000;stroke:#800000;stroke-linejoin:miter;" x="152.907338" xlink:href="#mdd42af74d2" y="58.5489"/>
     <use style="fill:#800000;stroke:#800000;stroke-linejoin:miter;" x="172.634611" xlink:href="#mdd42af74d2" y="56.155962"/>
     <use style="fill:#800000;stroke:#800000;stroke-linejoin:miter;" x="192.361884" xlink:href="#mdd42af74d2" y="61.126335"/>
     <use style="fill:#800000;stroke:#800000;stroke-linejoin:miter;" x="212.089157" xlink:href="#mdd42af74d2" y="53.613293"/>
     <use style="fill:#800000;stroke:#800000;stroke-linejoin:miter;" x="231.816429" xlink:href="#mdd42af74d2" y="74.773737"/>
     <use style="fill:#800000;stroke:#800000;stroke-linejoin:miter;" x="251.543702" xlink:href="#mdd42af74d2" y="82.197893"/>
     <use style="fill:#800000;stroke:#800000;stroke-linejoin:miter;" x="271.270975" xlink:href="#mdd42af74d2" y="61.363943"/>
     <use style="fill:#800000;stroke:#800000;stroke-linejoin:miter;" x="290.998248" xlink:href="#mdd42af74d2" y="72.286708"/>
     <use style="fill:#800000;stroke:#800000;stroke-linejoin:miter;" x="310.72552" xlink:href="#mdd42af74d2" y="88.005594"/>
     <use style="fill:#800000;stroke:#800000;stroke-linejoin:miter;" x="330.452793" xlink:href="#mdd42af74d2" y="67.820997"/>
     <use style="fill:#800000;stroke:#800000;stroke-linejoin:miter;" x="350.180066" xlink:href="#mdd42af74d2" y="76.982724"/>
     <use style="fill:#800000;stroke:#800000;stroke-linejoin:miter;" x="369.907338" xlink:href="#mdd42af74d2" y="77.751208"/>
     <use style="fill:#800000;stroke:#800000;stroke-linejoin:miter;" x="389.634611" xlink:href="#mdd42af74d2" y="83.44613"/>
     <use style="fill:#800000;stroke:#800000;stroke-linejoin:miter;" x="409.361884" xlink:href="#mdd42af74d2" y="98.103225"/>
     <use style="fill:#800000;stroke:#800000;stroke-linejoin:miter;" x="429.089157" xlink:href="#mdd42af74d2" y="89.066308"/>
     <use style="fill:#800000;stroke:#800000;stroke-linejoin:miter;" x="448.816429" xlink:href="#mdd42af74d2" y="93.026907"/>
    </g>
   </g>
   <g id="line2d_23">
    <path clip-path="url(#ped24817039)" d="M 93.72552 283.405094 
L 113.452793 283.405094 
L 113.517353 341.901247 
M 251.479142 341.901247 
L 251.543702 283.405094 
L 271.270975 283.405094 
L 271.335535 341.901247 
M 310.651452 341.901247 
L 310.72552 274.757588 
L 330.452793 283.405094 
L 350.180066 267.037187 
L 369.907338 263.21561 
L 389.634611 262.08922 
L 409.361884 245.337272 
L 429.089157 238.250817 
L 448.816429 243.119833 
" style="fill:none;stroke:#daa520;stroke-linecap:round;stroke-width:1.5;"/>
    <defs>
     <path d="M -3 3 
L 3 3 
L 3 -3 
L -3 -3 
z
" id="m68ebb6190c" style="stroke:#daa520;stroke-linejoin:miter;"/>
    </defs>
    <g clip-path="url(#ped24817039)">
     <use style="fill:#daa520;stroke:#daa520;stroke-linejoin:miter;" x="93.72552" xlink:href="#m68ebb6190c" y="283.405094"/>
     <use style="fill:#daa520;stroke:#daa520;stroke-linejoin:miter;" x="113.452793" xlink:href="#m68ebb6190c" y="283.405094"/>
     <use style="fill:#daa520;stroke:#daa520;stroke-linejoin:miter;" x="133.180066" xlink:href="#m68ebb6190c" y="18157.708569"/>
     <use style="fill:#daa520;stroke:#daa520;stroke-linejoin:miter;" x="152.907338" xlink:href="#m68ebb6190c" y="18157.708569"/>
     <use style="fill:#daa520;stroke:#daa520;stroke-linejoin:miter;" x="172.634611" xlink:href="#m68ebb6190c" y="18157.708569"/>
     <use style="fill:#daa520;stroke:#daa520;stroke-linejoin:miter;" x="192.361884" xlink:href="#m68ebb6190c" y="18157.708569"/>
     <use style="fill:#daa520;stroke:#daa520;stroke-linejoin:miter;" x="212.089157" xlink:href="#m68ebb6190c" y="18157.708569"/>
     <use style="fill:#daa520;stroke:#daa520;stroke-linejoin:miter;" x="231.816429" xlink:href="#m68ebb6190c" y="18157.708569"/>
     <use style="fill:#daa520;stroke:#daa520;stroke-linejoin:miter;" x="251.543702" xlink:href="#m68ebb6190c" y="283.405094"/>
     <use style="fill:#daa520;stroke:#daa520;stroke-linejoin:miter;" x="271.270975" xlink:href="#m68ebb6190c" y="283.405094"/>
     <use style="fill:#daa520;stroke:#daa520;stroke-linejoin:miter;" x="290.998248" xlink:href="#m68ebb6190c" y="18157.708569"/>
     <use style="fill:#daa520;stroke:#daa520;stroke-linejoin:miter;" x="310.72552" xlink:href="#m68ebb6190c" y="274.757588"/>
     <use style="fill:#daa520;stroke:#daa520;stroke-linejoin:miter;" x="330.452793" xlink:href="#m68ebb6190c" y="283.405094"/>
     <use style="fill:#daa520;stroke:#daa520;stroke-linejoin:miter;" x="350.180066" xlink:href="#m68ebb6190c" y="267.037187"/>
     <use style="fill:#daa520;stroke:#daa520;stroke-linejoin:miter;" x="369.907338" xlink:href="#m68ebb6190c" y="263.21561"/>
     <use style="fill:#daa520;stroke:#daa520;stroke-linejoin:miter;" x="389.634611" xlink:href="#m68ebb6190c" y="262.08922"/>
     <use style="fill:#daa520;stroke:#daa520;stroke-linejoin:miter;" x="409.361884" xlink:href="#m68ebb6190c" y="245.337272"/>
     <use style="fill:#daa520;stroke:#daa520;stroke-linejoin:miter;" x="429.089157" xlink:href="#m68ebb6190c" y="238.250817"/>
     <use style="fill:#daa520;stroke:#daa520;stroke-linejoin:miter;" x="448.816429" xlink:href="#m68ebb6190c" y="243.119833"/>
    </g>
   </g>
   <g id="line2d_24">
    <path clip-path="url(#ped24817039)" d="M 93.72552 55.107594 
L 113.452793 43.605878 
L 133.180066 51.89198 
L 152.907338 45.044518 
L 172.634611 48.373876 
L 192.361884 53.008016 
L 212.089157 86.108329 
L 231.816429 62.880634 
L 251.543702 77.906062 
L 271.270975 61.283702 
L 290.998248 74.707394 
L 310.72552 91.099359 
L 330.452793 70.091932 
L 350.180066 74.322979 
L 369.907338 85.752218 
L 389.634611 87.112071 
L 409.361884 89.991958 
L 429.089157 88.803502 
L 448.816429 87.622531 
" style="fill:none;stroke:#800000;stroke-linecap:round;stroke-width:1.5;"/>
    <defs>
     <path d="M -0 4.242641 
L 2.545584 0 
L 0 -4.242641 
L -2.545584 -0 
z
" id="mcf0174eb4e" style="stroke:#800000;stroke-linejoin:miter;"/>
    </defs>
    <g clip-path="url(#ped24817039)">
     <use style="fill:#800000;stroke:#800000;stroke-linejoin:miter;" x="93.72552" xlink:href="#mcf0174eb4e" y="55.107594"/>
     <use style="fill:#800000;stroke:#800000;stroke-linejoin:miter;" x="113.452793" xlink:href="#mcf0174eb4e" y="43.605878"/>
     <use style="fill:#800000;stroke:#800000;stroke-linejoin:miter;" x="133.180066" xlink:href="#mcf0174eb4e" y="51.89198"/>
     <use style="fill:#800000;stroke:#800000;stroke-linejoin:miter;" x="152.907338" xlink:href="#mcf0174eb4e" y="45.044518"/>
     <use style="fill:#800000;stroke:#800000;stroke-linejoin:miter;" x="172.634611" xlink:href="#mcf0174eb4e" y="48.373876"/>
     <use style="fill:#800000;stroke:#800000;stroke-linejoin:miter;" x="192.361884" xlink:href="#mcf0174eb4e" y="53.008016"/>
     <use style="fill:#800000;stroke:#800000;stroke-linejoin:miter;" x="212.089157" xlink:href="#mcf0174eb4e" y="86.108329"/>
     <use style="fill:#800000;stroke:#800000;stroke-linejoin:miter;" x="231.816429" xlink:href="#mcf0174eb4e" y="62.880634"/>
     <use style="fill:#800000;stroke:#800000;stroke-linejoin:miter;" x="251.543702" xlink:href="#mcf0174eb4e" y="77.906062"/>
     <use style="fill:#800000;stroke:#800000;stroke-linejoin:miter;" x="271.270975" xlink:href="#mcf0174eb4e" y="61.283702"/>
     <use style="fill:#800000;stroke:#800000;stroke-linejoin:miter;" x="290.998248" xlink:href="#mcf0174eb4e" y="74.707394"/>
     <use style="fill:#800000;stroke:#800000;stroke-linejoin:miter;" x="310.72552" xlink:href="#mcf0174eb4e" y="91.099359"/>
     <use style="fill:#800000;stroke:#800000;stroke-linejoin:miter;" x="330.452793" xlink:href="#mcf0174eb4e" y="70.091932"/>
     <use style="fill:#800000;stroke:#800000;stroke-linejoin:miter;" x="350.180066" xlink:href="#mcf0174eb4e" y="74.322979"/>
     <use style="fill:#800000;stroke:#800000;stroke-linejoin:miter;" x="369.907338" xlink:href="#mcf0174eb4e" y="85.752218"/>
     <use style="fill:#800000;stroke:#800000;stroke-linejoin:miter;" x="389.634611" xlink:href="#mcf0174eb4e" y="87.112071"/>
     <use style="fill:#800000;stroke:#800000;stroke-linejoin:miter;" x="409.361884" xlink:href="#mcf0174eb4e" y="89.991958"/>
     <use style="fill:#800000;stroke:#800000;stroke-linejoin:miter;" x="429.089157" xlink:href="#mcf0174eb4e" y="88.803502"/>
     <use style="fill:#800000;stroke:#800000;stroke-linejoin:miter;" x="448.816429" xlink:href="#mcf0174eb4e" y="87.622531"/>
    </g>
   </g>
   <g id="patch_3">
    <path d="M 75.970975 295.759639 
L 75.970975 23.959639 
" style="fill:none;stroke:#262626;stroke-linecap:square;stroke-linejoin:miter;stroke-width:1.25;"/>
   </g>
   <g id="patch_4">
    <path d="M 466.570975 295.759639 
L 466.570975 23.959639 
" style="fill:none;stroke:#262626;stroke-linecap:square;stroke-linejoin:miter;stroke-width:1.25;"/>
   </g>
   <g id="patch_5">
    <path d="M 75.970975 295.759639 
L 466.570975 295.759639 
" style="fill:none;stroke:#262626;stroke-linecap:square;stroke-linejoin:miter;stroke-width:1.25;"/>
   </g>
   <g id="patch_6">
    <path d="M 75.970975 23.959639 
L 466.570975 23.959639 
" style="fill:none;stroke:#262626;stroke-linecap:square;stroke-linejoin:miter;stroke-width:1.25;"/>
   </g>
   <g id="text_16">
    <!-- Accuracy of Computing $\mathrm{logdet}(\mathbf{A})$ -->
    <g style="fill:#262626;" transform="translate(165.48393 17.959639)scale(0.144 -0.144)">
     <defs>
      <path d="M 2323 4378 
C 2291 4461 2278 4480 2214 4480 
C 2150 4480 2138 4461 2106 4378 
L 749 566 
C 627 223 371 153 147 153 
L 147 -13 
C 262 0 518 0 640 0 
C 800 0 1056 0 1210 -13 
L 1210 153 
C 909 153 864 361 864 439 
C 864 497 877 530 890 569 
L 1229 1536 
L 2906 1536 
L 3290 442 
C 3322 365 3322 352 3322 327 
C 3322 153 3046 153 2925 153 
L 2925 0 
C 3110 0 3443 0 3642 0 
C 3808 0 4128 0 4282 -13 
L 4282 153 
C 3942 153 3827 153 3744 387 
L 2323 4378 
z
M 2067 3893 
L 2848 1702 
L 1286 1702 
L 2067 3893 
z
" id="CMR17-41" transform="scale(0.015625)"/>
      <path d="M 979 2560 
L 1709 2560 
L 1709 2725 
L 966 2725 
L 966 3494 
C 966 4022 1235 4352 1510 4352 
C 1594 4352 1690 4327 1754 4282 
C 1702 4269 1568 4225 1568 4067 
C 1568 3901 1696 3850 1786 3850 
C 1875 3850 2003 3901 2003 4067 
C 2003 4308 1773 4454 1517 4454 
C 1152 4454 653 4156 653 3481 
L 653 2725 
L 141 2725 
L 141 2560 
L 653 2560 
L 653 427 
C 653 184 627 153 218 153 
L 218 -13 
C 371 0 666 0 832 0 
C 1018 0 1344 0 1517 -13 
L 1517 153 
C 1056 153 979 153 979 439 
L 979 2560 
z
" id="CMR17-66" transform="scale(0.015625)"/>
      <path d="M 3974 4289 
C 3974 4403 3968 4410 3930 4410 
C 3904 4410 3898 4403 3853 4327 
L 3571 3792 
C 3258 4187 2874 4416 2381 4416 
C 1286 4416 294 3456 294 2148 
C 294 826 1286 -128 2387 -128 
C 3366 -128 3974 730 3974 1461 
C 3974 1524 3974 1550 3917 1550 
C 3866 1550 3866 1531 3859 1474 
C 3808 585 3168 38 2477 38 
C 1824 38 781 495 781 2147 
C 781 3805 1843 4250 2464 4250 
C 3187 4250 3712 3628 3834 2745 
C 3846 2668 3846 2655 3904 2655 
C 3974 2655 3974 2668 3974 2783 
L 3974 4289 
z
" id="CMR17-43" transform="scale(0.015625)"/>
      <path d="M 4326 1933 
C 4326 2252 4269 2790 3507 2790 
C 3072 2790 2771 2496 2656 2151 
L 2650 2151 
C 2573 2676 2195 2790 1837 2790 
C 1331 2790 1069 2400 973 2144 
L 966 2144 
L 966 2790 
L 211 2720 
L 211 2554 
C 589 2554 646 2515 646 2208 
L 646 428 
C 646 184 621 153 211 153 
L 211 -13 
C 365 0 646 0 813 0 
C 979 0 1267 0 1421 -13 
L 1421 153 
C 1011 153 986 178 986 428 
L 986 1658 
C 986 2247 1344 2688 1792 2688 
C 2266 2688 2317 2266 2317 1958 
L 2317 428 
C 2317 184 2291 153 1882 153 
L 1882 -13 
C 2035 0 2317 0 2483 0 
C 2650 0 2938 0 3091 -13 
L 3091 153 
C 2682 153 2656 178 2656 428 
L 2656 1658 
C 2656 2247 3014 2688 3462 2688 
C 3936 2688 3987 2266 3987 1958 
L 3987 428 
C 3987 184 3962 153 3552 153 
L 3552 -13 
C 3706 0 3987 0 4154 0 
C 4320 0 4608 0 4762 -13 
L 4762 153 
C 4352 153 4326 178 4326 428 
L 4326 1933 
z
" id="CMR17-6d" transform="scale(0.015625)"/>
      <path d="M 1408 -1063 
C 998 -1063 973 -1037 973 -789 
L 973 402 
C 1158 134 1427 -38 1766 -38 
C 2406 -38 3053 523 3053 1388 
C 3053 2191 2496 2802 1837 2802 
C 1453 2802 1139 2592 960 2338 
L 960 2802 
L 198 2732 
L 198 2567 
C 576 2567 634 2528 634 2223 
L 634 -789 
C 634 -1031 608 -1063 198 -1063 
L 198 -1228 
C 352 -1216 634 -1216 800 -1216 
C 966 -1216 1254 -1216 1408 -1228 
L 1408 -1063 
z
M 973 2012 
C 973 2102 973 2235 1222 2471 
C 1254 2497 1472 2688 1792 2688 
C 2259 2688 2643 2108 2643 1382 
C 2643 656 2234 64 1728 64 
C 1498 64 1248 172 1056 472 
C 973 612 973 650 973 752 
L 973 2012 
z
" id="CMR17-70" transform="scale(0.015625)"/>
      <path d="M 710 1164 
C 832 1068 1043 960 1299 960 
C 1805 960 2240 1357 2240 1888 
C 2240 2054 2189 2310 1997 2509 
C 2176 2692 2438 2752 2586 2752 
C 2611 2752 2650 2752 2682 2734 
C 2656 2728 2598 2703 2598 2605 
C 2598 2527 2656 2471 2739 2471 
C 2835 2471 2886 2533 2886 2614 
C 2886 2731 2790 2854 2586 2854 
C 2330 2854 2106 2738 1926 2580 
C 1734 2753 1504 2816 1299 2816 
C 794 2816 358 2419 358 1888 
C 358 1522 570 1292 634 1228 
C 442 1004 442 743 442 711 
C 442 545 506 302 723 168 
C 390 85 128 -169 128 -486 
C 128 -943 736 -1280 1466 -1280 
C 2170 -1280 2803 -956 2803 -479 
C 2803 384 1856 384 1363 384 
C 1216 384 954 384 922 391 
C 723 423 589 602 589 826 
C 589 883 589 1024 710 1164 
z
M 1299 1068 
C 736 1068 736 1760 736 1889 
C 736 2016 736 2708 1299 2708 
C 1862 2708 1862 2016 1862 1889 
C 1862 1760 1862 1068 1299 1068 
z
M 1466 -1171 
C 826 -1171 384 -835 384 -486 
C 384 -289 493 -105 634 -4 
C 794 104 858 104 1293 104 
C 1818 104 2547 104 2547 -486 
C 2547 -835 2106 -1171 1466 -1171 
z
" id="CMR17-67" transform="scale(0.015625)"/>
      <path d="M 1869 4326 
L 1869 4160 
C 2246 4160 2304 4122 2304 3820 
L 2304 2345 
C 2278 2377 2016 2790 1498 2790 
C 845 2790 211 2208 211 1364 
C 211 525 806 -64 1434 -64 
C 1978 -64 2259 337 2291 380 
L 2291 -63 
L 3066 -63 
L 3066 128 
C 2688 128 2630 166 2630 473 
L 2630 4396 
L 1869 4326 
z
M 2291 755 
C 2291 563 2176 390 2029 262 
C 1811 70 1594 38 1472 38 
C 1286 38 621 134 621 1356 
C 621 2612 1363 2688 1530 2688 
C 1824 2688 2061 2522 2208 2291 
C 2291 2157 2291 2138 2291 2023 
L 2291 755 
z
" id="CMR17-64" transform="scale(0.015625)"/>
      <path d="M 2931 4301 
C 2886 4416 2874 4448 2720 4448 
C 2560 4448 2547 4416 2502 4301 
L 915 413 
C 870 311 870 299 691 279 
C 531 260 506 260 365 260 
L 250 260 
L 250 -13 
C 416 0 800 0 986 0 
C 1158 0 1626 0 1773 -13 
L 1773 260 
C 1632 260 1389 260 1210 331 
C 1229 390 1229 402 1242 428 
L 1581 1262 
L 3296 1262 
L 3699 260 
L 3098 260 
L 3098 0 
C 3302 0 3923 0 4166 0 
C 4371 0 5024 0 5184 -13 
L 5184 260 
L 4576 260 
L 2931 4301 
z
M 2438 3367 
L 3181 1536 
L 1690 1536 
L 2438 3367 
z
" id="CMBX12-41" transform="scale(0.015625)"/>
     </defs>
     <use transform="scale(0.996264)" xlink:href="#CMR17-41"/>
     <use transform="translate(69.07243 0)scale(0.996264)" xlink:href="#CMR17-63"/>
     <use transform="translate(109.55809 0)scale(0.996264)" xlink:href="#CMR17-63"/>
     <use transform="translate(150.043751 0)scale(0.996264)" xlink:href="#CMR17-75"/>
     <use transform="translate(200.939121 0)scale(0.996264)" xlink:href="#CMR17-72"/>
     <use transform="translate(236.219888 0)scale(0.996264)" xlink:href="#CMR17-61"/>
     <use transform="translate(281.910365 0)scale(0.996264)" xlink:href="#CMR17-63"/>
     <use transform="translate(322.396026 0)scale(0.996264)" xlink:href="#CMR17-79"/>
     <use transform="translate(400.764908 0)scale(0.996264)" xlink:href="#CMR17-6f"/>
     <use transform="translate(446.455385 0)scale(0.996264)" xlink:href="#CMR17-66"/>
     <use transform="translate(504.004864 0)scale(0.996264)" xlink:href="#CMR17-43"/>
     <use transform="translate(570.514745 0)scale(0.996264)" xlink:href="#CMR17-6f"/>
     <use transform="translate(616.205222 0)scale(0.996264)" xlink:href="#CMR17-6d"/>
     <use transform="translate(693.124811 0)scale(0.996264)" xlink:href="#CMR17-70"/>
     <use transform="translate(744.020181 0)scale(0.996264)" xlink:href="#CMR17-75"/>
     <use transform="translate(794.915551 0)scale(0.996264)" xlink:href="#CMR17-74"/>
     <use transform="translate(830.196319 0)scale(0.996264)" xlink:href="#CMR17-69"/>
     <use transform="translate(855.067377 0)scale(0.996264)" xlink:href="#CMR17-6e"/>
     <use transform="translate(905.962747 0)scale(0.996264)" xlink:href="#CMR17-67"/>
     <use transform="translate(981.729191 0)scale(0.996264)" xlink:href="#CMR17-6c"/>
     <use transform="translate(1006.600249 0)scale(0.996264)" xlink:href="#CMR17-6f"/>
     <use transform="translate(1052.290726 0)scale(0.996264)" xlink:href="#CMR17-67"/>
     <use transform="translate(1097.981203 0)scale(0.996264)" xlink:href="#CMR17-64"/>
     <use transform="translate(1148.876573 0)scale(0.996264)" xlink:href="#CMR17-65"/>
     <use transform="translate(1189.362234 0)scale(0.996264)" xlink:href="#CMR17-74"/>
     <use transform="translate(1224.643001 0)scale(0.996264)" xlink:href="#CMR17-28"/>
     <use transform="translate(1259.923769 0)scale(0.996264)" xlink:href="#CMBX12-41"/>
     <use transform="translate(1344.560164 0)scale(0.996264)" xlink:href="#CMR17-29"/>
    </g>
   </g>
   <g id="legend_1">
    <g id="patch_7">
     <path d="M 82.966495 196.179309 
L 264.605676 196.179309 
Q 266.604396 196.179309 266.604396 194.180589 
L 266.604396 125.53869 
Q 266.604396 123.53997 264.605676 123.53997 
L 82.966495 123.53997 
Q 80.967775 123.53997 80.967775 125.53869 
L 80.967775 194.180589 
Q 80.967775 196.179309 82.966495 196.179309 
z
" style="fill:#ffffff;opacity:0.8;stroke:#cccccc;stroke-linejoin:miter;"/>
    </g>
    <g id="patch_8">
     <path d="M 84.965215 134.53293 
L 104.952415 134.53293 
L 104.952415 127.53741 
L 84.965215 127.53741 
z
" style="fill:none;"/>
    </g>
    <g id="text_17">
     <!-- Method -->
     <g style="fill:#262626;" transform="translate(84.965215 134.53293)scale(0.099936 -0.099936)">
      <defs>
       <path d="M 2656 1933 
C 2656 2259 2592 2790 1837 2790 
C 1312 2790 1056 2368 979 2157 
L 973 2157 
L 973 4396 
L 211 4326 
L 211 4160 
C 589 4160 646 4122 646 3817 
L 646 426 
C 646 184 621 153 211 153 
L 211 -13 
C 365 0 646 0 813 0 
C 979 0 1267 0 1421 -13 
L 1421 153 
C 1011 153 986 178 986 428 
L 986 1658 
C 986 2247 1344 2688 1792 2688 
C 2266 2688 2317 2266 2317 1958 
L 2317 428 
C 2317 184 2291 153 1882 153 
L 1882 -13 
C 2035 0 2317 0 2483 0 
C 2650 0 2938 0 3091 -13 
L 3091 153 
C 2682 153 2656 178 2656 428 
L 2656 1933 
z
" id="CMR17-68" transform="scale(0.015625)"/>
      </defs>
      <use transform="scale(0.996264)" xlink:href="#CMR17-4d"/>
      <use transform="translate(84.686941 0)scale(0.996264)" xlink:href="#CMR17-65"/>
      <use transform="translate(125.172601 0)scale(0.996264)" xlink:href="#CMR17-74"/>
      <use transform="translate(160.453369 0)scale(0.996264)" xlink:href="#CMR17-68"/>
      <use transform="translate(211.348739 0)scale(0.996264)" xlink:href="#CMR17-6f"/>
      <use transform="translate(259.641654 0)scale(0.996264)" xlink:href="#CMR17-64"/>
     </g>
    </g>
    <g id="patch_9">
     <path d="M 84.965215 148.461181 
L 104.952415 148.461181 
L 104.952415 141.465661 
L 84.965215 141.465661 
z
" style="fill:none;"/>
    </g>
    <g id="text_18">
     <!-- SLQ -->
     <g style="fill:#262626;" transform="translate(84.965215 148.461181)scale(0.099936 -0.099936)">
      <defs>
       <path d="M 2803 4290 
C 2803 4404 2797 4411 2758 4411 
C 2720 4411 2707 4385 2682 4328 
L 2490 3907 
C 2246 4257 1875 4416 1472 4416 
C 819 4416 294 3901 294 3253 
C 294 3056 339 2776 557 2510 
C 794 2218 1018 2167 1530 2033 
C 1722 1982 2042 1899 2106 1874 
C 2470 1722 2662 1341 2662 985 
C 2662 527 2336 38 1779 38 
C 1094 38 454 419 410 1311 
C 403 1413 397 1419 352 1419 
C 301 1419 294 1413 294 1285 
L 294 -1 
C 294 -115 301 -122 339 -122 
C 384 -122 397 -90 486 108 
C 493 127 493 140 614 381 
C 934 -39 1472 -128 1779 -128 
C 2477 -128 2970 451 2970 1124 
C 2970 1454 2848 1708 2778 1823 
C 2509 2230 2221 2306 1914 2382 
C 1869 2402 1856 2402 1498 2490 
C 1152 2579 1005 2624 845 2796 
C 666 2992 602 3196 602 3399 
C 602 3812 934 4263 1478 4263 
C 2157 4263 2579 3786 2675 2993 
C 2694 2878 2701 2872 2746 2872 
C 2803 2872 2803 2891 2803 2999 
L 2803 4290 
z
" id="CMR17-53" transform="scale(0.015625)"/>
       <path d="M 3469 1615 
L 3354 1615 
C 3302 983 3219 166 2125 166 
L 1530 166 
C 1274 166 1261 197 1261 414 
L 1261 3898 
C 1261 4129 1274 4192 1760 4192 
L 1901 4192 
L 1901 4352 
C 1638 4352 1331 4352 1069 4352 
C 870 4352 512 4352 326 4352 
L 326 4192 
C 768 4192 838 4192 838 3905 
L 838 452 
C 838 166 768 166 326 166 
L 326 0 
L 3315 0 
L 3469 1615 
z
" id="CMR17-4c" transform="scale(0.015625)"/>
       <path d="M 3027 83 
C 3789 408 4307 1236 4307 2193 
C 4307 3499 3366 4480 2304 4480 
C 1216 4480 294 3488 294 2199 
C 294 928 1216 -64 2304 -64 
C 2451 -64 2656 -45 2899 38 
C 3008 -747 3078 -1216 3629 -1216 
C 4307 -1216 4339 -213 4339 -33 
C 4339 32 4339 76 4294 76 
C 4262 76 4256 31 4256 18 
C 4211 -603 3866 -732 3661 -732 
C 3283 -732 3149 -394 3027 83 
z
M 1958 100 
C 1293 310 768 1017 768 2199 
C 768 3711 1606 4365 2298 4365 
C 3014 4365 3834 3686 3834 2198 
C 3834 1124 3405 527 2976 254 
C 2880 579 2726 960 2310 960 
C 2003 960 1830 692 1830 450 
C 1830 304 1888 183 1958 100 
z
M 2874 192 
C 2618 57 2413 57 2304 57 
C 2016 57 1933 315 1933 454 
C 1933 650 2067 858 2310 858 
C 2720 858 2822 493 2874 192 
z
" id="CMR17-51" transform="scale(0.015625)"/>
      </defs>
      <use transform="scale(0.996264)" xlink:href="#CMR17-53"/>
      <use transform="translate(50.89537 0)scale(0.996264)" xlink:href="#CMR17-4c"/>
      <use transform="translate(108.276778 0)scale(0.996264)" xlink:href="#CMR17-51"/>
     </g>
    </g>
    <g id="patch_10">
     <path d="M 84.965215 162.389433 
L 104.952415 162.389433 
L 104.952415 155.393913 
L 84.965215 155.393913 
z
" style="fill:none;"/>
    </g>
    <g id="patch_11">
     <path d="M 84.965215 176.317685 
L 104.952415 176.317685 
L 104.952415 169.322165 
L 84.965215 169.322165 
z
" style="fill:none;"/>
    </g>
    <g id="patch_12">
     <path d="M 84.965215 190.245937 
L 104.952415 190.245937 
L 104.952415 183.250417 
L 84.965215 183.250417 
z
" style="fill:none;"/>
    </g>
    <g id="text_19">
     <!-- Cholesky -->
     <g style="fill:#262626;" transform="translate(84.965215 190.245937)scale(0.099936 -0.099936)">
      <defs>
       <path d="M 1670 1673 
C 1664 1686 1632 1724 1632 1743 
C 1632 1756 2086 2171 2144 2222 
C 2509 2528 2739 2560 2906 2560 
L 2906 2733 
C 2867 2733 2854 2733 2848 2720 
L 2534 2720 
C 2355 2720 2080 2720 1907 2733 
L 1907 2566 
C 1997 2559 2061 2508 2061 2419 
C 2061 2291 1933 2170 1926 2170 
L 960 1289 
L 960 4396 
L 198 4326 
L 198 4160 
C 576 4160 634 4122 634 3817 
L 634 426 
C 634 184 608 153 198 153 
L 198 -13 
C 352 0 634 0 794 0 
C 954 0 1235 0 1389 -13 
L 1389 153 
C 979 153 954 178 954 428 
L 954 1130 
L 1395 1532 
L 2042 574 
C 2118 459 2182 369 2182 286 
C 2182 172 2067 153 1990 153 
L 1990 -13 
C 2144 0 2419 0 2579 0 
C 2694 0 2931 0 3040 0 
L 3040 153 
C 2739 153 2669 210 2477 491 
L 1670 1673 
z
" id="CMR17-6b" transform="scale(0.015625)"/>
      </defs>
      <use transform="scale(0.996264)" xlink:href="#CMR17-43"/>
      <use transform="translate(66.509881 0)scale(0.996264)" xlink:href="#CMR17-68"/>
      <use transform="translate(117.40525 0)scale(0.996264)" xlink:href="#CMR17-6f"/>
      <use transform="translate(163.095727 0)scale(0.996264)" xlink:href="#CMR17-6c"/>
      <use transform="translate(187.966786 0)scale(0.996264)" xlink:href="#CMR17-65"/>
      <use transform="translate(228.452446 0)scale(0.996264)" xlink:href="#CMR17-73"/>
      <use transform="translate(264.253784 0)scale(0.996264)" xlink:href="#CMR17-6b"/>
      <use transform="translate(312.5467 0)scale(0.996264)" xlink:href="#CMR17-79"/>
     </g>
    </g>
    <g id="patch_13">
     <path d="M 145.375611 134.53293 
L 165.362811 134.53293 
L 165.362811 127.53741 
L 145.375611 127.53741 
z
" style="fill:none;"/>
    </g>
    <g id="text_20">
     <!-- Data type -->
     <g style="fill:#262626;" transform="translate(145.375611 134.53293)scale(0.099936 -0.099936)">
      <defs>
       <path d="M 333 4352 
L 333 4186 
C 774 4186 845 4186 845 3900 
L 845 452 
C 845 166 774 166 333 166 
L 333 0 
L 2368 0 
C 3398 0 4224 943 4224 2141 
C 4224 3346 3411 4352 2368 4352 
L 333 4352 
z
M 1523 166 
C 1267 166 1254 197 1254 414 
L 1254 3938 
C 1254 4155 1267 4186 1523 4186 
L 2240 4186 
C 2771 4186 3750 3874 3750 2141 
C 3750 1242 3488 879 3366 707 
C 3213 510 2848 166 2240 166 
L 1523 166 
z
" id="CMR17-44" transform="scale(0.015625)"/>
      </defs>
      <use transform="scale(0.996264)" xlink:href="#CMR17-44"/>
      <use transform="translate(70.393556 0)scale(0.996264)" xlink:href="#CMR17-61"/>
      <use transform="translate(116.084033 0)scale(0.996264)" xlink:href="#CMR17-74"/>
      <use transform="translate(151.364801 0)scale(0.996264)" xlink:href="#CMR17-61"/>
      <use transform="translate(227.131244 0)scale(0.996264)" xlink:href="#CMR17-74"/>
      <use transform="translate(259.809558 0)scale(0.996264)" xlink:href="#CMR17-79"/>
      <use transform="translate(308.102474 0)scale(0.996264)" xlink:href="#CMR17-70"/>
      <use transform="translate(361.600283 0)scale(0.996264)" xlink:href="#CMR17-65"/>
     </g>
    </g>
    <g id="patch_14">
     <path d="M 145.375611 148.461181 
L 165.362811 148.461181 
L 165.362811 141.465661 
L 145.375611 141.465661 
z
" style="fill:none;"/>
    </g>
    <g id="text_21">
     <!-- 32-bit -->
     <g style="fill:#262626;" transform="translate(145.375611 148.461181)scale(0.099936 -0.099936)">
      <defs>
       <path d="M 1632 1216 
L 1632 1496 
L 26 1496 
L 26 1216 
L 1632 1216 
z
" id="CMR17-2d" transform="scale(0.015625)"/>
       <path d="M 960 4396 
L 198 4326 
L 198 4160 
C 576 4160 634 4122 634 3817 
L 634 -13 
L 749 -13 
L 934 441 
C 1120 141 1395 -64 1766 -64 
C 2406 -64 3053 500 3053 1370 
C 3053 2188 2477 2790 1830 2790 
C 1434 2790 1152 2579 960 2330 
L 960 4396 
z
M 973 2004 
C 973 2118 973 2138 1062 2272 
C 1312 2657 1670 2688 1792 2688 
C 1984 2688 2643 2585 2643 1376 
C 2643 108 1888 38 1734 38 
C 1536 38 1248 114 1043 486 
C 973 608 973 621 973 735 
L 973 2004 
z
" id="CMR17-62" transform="scale(0.015625)"/>
      </defs>
      <use transform="scale(0.996264)" xlink:href="#CMR17-33"/>
      <use transform="translate(45.690477 0)scale(0.996264)" xlink:href="#CMR17-32"/>
      <use transform="translate(91.380954 0)scale(0.996264)" xlink:href="#CMR17-2d"/>
      <use transform="translate(121.456921 0)scale(0.996264)" xlink:href="#CMR17-62"/>
      <use transform="translate(172.35229 0)scale(0.996264)" xlink:href="#CMR17-69"/>
      <use transform="translate(197.223349 0)scale(0.996264)" xlink:href="#CMR17-74"/>
     </g>
    </g>
    <g id="patch_15">
     <path d="M 145.375611 162.389433 
L 165.362811 162.389433 
L 165.362811 155.393913 
L 145.375611 155.393913 
z
" style="fill:none;"/>
    </g>
    <g id="text_22">
     <!-- 64-bit -->
     <g style="fill:#262626;" transform="translate(145.375611 162.389433)scale(0.099936 -0.099936)">
      <defs>
       <path d="M 678 2176 
C 678 3690 1395 4032 1811 4032 
C 1946 4032 2272 4009 2400 3776 
C 2298 3776 2106 3776 2106 3553 
C 2106 3381 2246 3323 2336 3323 
C 2394 3323 2566 3348 2566 3560 
C 2566 3954 2246 4179 1805 4179 
C 1043 4179 243 3390 243 1984 
C 243 253 966 -128 1478 -128 
C 2099 -128 2688 427 2688 1283 
C 2688 2081 2170 2662 1517 2662 
C 1126 2662 838 2407 678 1960 
L 678 2176 
z
M 1478 25 
C 691 25 691 1200 691 1436 
C 691 1896 909 2560 1504 2560 
C 1613 2560 1926 2560 2138 2120 
C 2253 1870 2253 1609 2253 1289 
C 2253 944 2253 690 2118 434 
C 1978 171 1773 25 1478 25 
z
" id="CMR17-36" transform="scale(0.015625)"/>
      </defs>
      <use transform="scale(0.996264)" xlink:href="#CMR17-36"/>
      <use transform="translate(45.690477 0)scale(0.996264)" xlink:href="#CMR17-34"/>
      <use transform="translate(91.380954 0)scale(0.996264)" xlink:href="#CMR17-2d"/>
      <use transform="translate(121.456921 0)scale(0.996264)" xlink:href="#CMR17-62"/>
      <use transform="translate(172.35229 0)scale(0.996264)" xlink:href="#CMR17-69"/>
      <use transform="translate(197.223349 0)scale(0.996264)" xlink:href="#CMR17-74"/>
     </g>
    </g>
    <g id="patch_16">
     <path d="M 145.375611 176.317685 
L 165.362811 176.317685 
L 165.362811 169.322165 
L 145.375611 169.322165 
z
" style="fill:none;"/>
    </g>
    <g id="text_23">
     <!-- 128-bit -->
     <g style="fill:#262626;" transform="translate(145.375611 176.317685)scale(0.099936 -0.099936)">
      <use transform="scale(0.996264)" xlink:href="#CMR17-31"/>
      <use transform="translate(45.690477 0)scale(0.996264)" xlink:href="#CMR17-32"/>
      <use transform="translate(91.380954 0)scale(0.996264)" xlink:href="#CMR17-38"/>
      <use transform="translate(137.071431 0)scale(0.996264)" xlink:href="#CMR17-2d"/>
      <use transform="translate(167.147398 0)scale(0.996264)" xlink:href="#CMR17-62"/>
      <use transform="translate(218.042767 0)scale(0.996264)" xlink:href="#CMR17-69"/>
      <use transform="translate(242.913826 0)scale(0.996264)" xlink:href="#CMR17-74"/>
     </g>
    </g>
    <g id="patch_17">
     <path d="M 145.375611 190.245937 
L 165.362811 190.245937 
L 165.362811 183.250417 
L 145.375611 183.250417 
z
" style="fill:none;"/>
    </g>
    <g id="text_24">
     <!-- 64-bit -->
     <g style="fill:#262626;" transform="translate(145.375611 190.245937)scale(0.099936 -0.099936)">
      <use transform="scale(0.996264)" xlink:href="#CMR17-36"/>
      <use transform="translate(45.690477 0)scale(0.996264)" xlink:href="#CMR17-34"/>
      <use transform="translate(91.380954 0)scale(0.996264)" xlink:href="#CMR17-2d"/>
      <use transform="translate(121.456921 0)scale(0.996264)" xlink:href="#CMR17-62"/>
      <use transform="translate(172.35229 0)scale(0.996264)" xlink:href="#CMR17-69"/>
      <use transform="translate(197.223349 0)scale(0.996264)" xlink:href="#CMR17-74"/>
     </g>
    </g>
    <g id="patch_18">
     <path d="M 210.418386 134.53293 
L 230.405586 134.53293 
L 230.405586 127.53741 
L 210.418386 127.53741 
z
" style="fill:none;"/>
    </g>
    <g id="text_25">
     <!-- Experiment -->
     <g style="fill:#262626;" transform="translate(210.418386 134.53293)scale(0.099936 -0.099936)">
      <defs>
       <path d="M 3885 1615 
L 3770 1615 
C 3629 676 3546 166 2419 166 
L 1530 166 
C 1274 166 1261 197 1261 414 
L 1261 2176 
L 1862 2176 
C 2464 2176 2522 1960 2522 1430 
L 2637 1430 
L 2637 3081 
L 2522 3081 
C 2522 2557 2464 2342 1862 2342 
L 1261 2342 
L 1261 3913 
C 1261 4128 1274 4160 1530 4160 
L 2406 4160 
C 3398 4160 3514 3769 3603 2929 
L 3718 2929 
L 3565 4325 
L 326 4325 
L 326 4160 
C 768 4160 838 4160 838 3874 
L 838 451 
C 838 166 768 166 326 166 
L 326 0 
L 3654 0 
L 3885 1615 
z
" id="CMR17-45" transform="scale(0.015625)"/>
      </defs>
      <use transform="scale(0.996264)" xlink:href="#CMR17-45"/>
      <use transform="translate(62.586301 0)scale(0.996264)" xlink:href="#CMR17-78"/>
      <use transform="translate(110.879216 0)scale(0.996264)" xlink:href="#CMR17-70"/>
      <use transform="translate(164.377025 0)scale(0.996264)" xlink:href="#CMR17-65"/>
      <use transform="translate(204.862685 0)scale(0.996264)" xlink:href="#CMR17-72"/>
      <use transform="translate(240.143453 0)scale(0.996264)" xlink:href="#CMR17-69"/>
      <use transform="translate(265.014512 0)scale(0.996264)" xlink:href="#CMR17-6d"/>
      <use transform="translate(341.934101 0)scale(0.996264)" xlink:href="#CMR17-65"/>
      <use transform="translate(382.419762 0)scale(0.996264)" xlink:href="#CMR17-6e"/>
      <use transform="translate(430.712678 0)scale(0.996264)" xlink:href="#CMR17-74"/>
     </g>
    </g>
    <g id="line2d_25">
     <path d="M 210.418386 144.963421 
L 230.405586 144.963421 
" style="fill:none;stroke:#800000;stroke-linecap:round;stroke-width:1.5;"/>
    </g>
    <g id="line2d_26">
     <g>
      <use style="fill:#800000;stroke:#800000;" x="220.411986" xlink:href="#m24024f372b" y="144.963421"/>
     </g>
    </g>
    <g id="line2d_27">
     <path d="M 210.418386 158.891673 
L 230.405586 158.891673 
" style="fill:none;stroke:#800000;stroke-linecap:round;stroke-width:1.5;"/>
    </g>
    <g id="line2d_28">
     <g>
      <use style="fill:#800000;stroke:#800000;stroke-linejoin:miter;" x="220.411986" xlink:href="#mdd42af74d2" y="158.891673"/>
     </g>
    </g>
    <g id="line2d_29">
     <path d="M 210.418386 172.819925 
L 230.405586 172.819925 
" style="fill:none;stroke:#800000;stroke-linecap:round;stroke-width:1.5;"/>
    </g>
    <g id="line2d_30">
     <g>
      <use style="fill:#800000;stroke:#800000;stroke-linejoin:miter;" x="220.411986" xlink:href="#mcf0174eb4e" y="172.819925"/>
     </g>
    </g>
    <g id="line2d_31">
     <path d="M 210.418386 186.748177 
L 230.405586 186.748177 
" style="fill:none;stroke:#daa520;stroke-linecap:round;stroke-width:1.5;"/>
    </g>
    <g id="line2d_32">
     <g>
      <use style="fill:#daa520;stroke:#daa520;stroke-linejoin:miter;" x="220.411986" xlink:href="#m68ebb6190c" y="186.748177"/>
     </g>
    </g>
   </g>
  </g>
 </g>
 <defs>
  <clipPath id="ped24817039">
   <rect height="271.8" width="390.6" x="75.970975" y="23.959639"/>
  </clipPath>
 </defs>
</svg>
