<?xml version="1.0" encoding="utf-8" standalone="no"?>
<!DOCTYPE svg PUBLIC "-//W3C//DTD SVG 1.1//EN"
  "http://www.w3.org/Graphics/SVG/1.1/DTD/svg11.dtd">
<svg height="340.104233pt" version="1.1" viewBox="0 0 682.456784 340.104233" width="682.456784pt" xmlns="http://www.w3.org/2000/svg" xmlns:xlink="http://www.w3.org/1999/xlink">
 <metadata>
  <rdf:RDF xmlns:cc="http://creativecommons.org/ns#" xmlns:dc="http://purl.org/dc/elements/1.1/" xmlns:rdf="http://www.w3.org/1999/02/22-rdf-syntax-ns#">
   <cc:Work>
    <dc:type rdf:resource="http://purl.org/dc/dcmitype/StillImage"/>
    <dc:date>2021-08-16T19:18:05.011681</dc:date>
    <dc:format>image/svg+xml</dc:format>
    <dc:creator>
     <cc:Agent>
      <dc:title>Matplotlib v3.4.2, https://matplotlib.org/</dc:title>
     </cc:Agent>
    </dc:creator>
   </cc:Work>
  </rdf:RDF>
 </metadata>
 <defs>
  <style type="text/css">*{stroke-linecap:butt;stroke-linejoin:round;}</style>
 </defs>
 <g id="figure_1">
  <g id="patch_1">
   <path d="M 0 340.104233 
L 682.456784 340.104233 
L 682.456784 0 
L 0 0 
z
" style="fill:none;"/>
  </g>
  <g id="axes_1">
   <g id="patch_2">
    <path d="M 52.65325 294.962625 
L 331.65325 294.962625 
L 331.65325 23.162625 
L 52.65325 23.162625 
z
" style="fill:none;"/>
   </g>
   <g id="matplotlib.axis_1">
    <g id="xtick_1">
     <g id="line2d_1">
      <defs>
       <path d="M 0 0 
L 0 6 
" id="m3d672ded5a" style="stroke:#262626;stroke-width:1.25;"/>
      </defs>
      <g>
       <use style="fill:#262626;stroke:#262626;stroke-width:1.25;" x="52.65325" xlink:href="#m3d672ded5a" y="294.962625"/>
      </g>
     </g>
     <g id="text_1">
      <!-- $\mathdefault{10^{1}}$ -->
      <g style="fill:#262626;" transform="translate(43.849715 313.59502)scale(0.132 -0.132)">
       <defs>
        <path d="M 1702 4058 
C 1702 4192 1696 4192 1606 4192 
C 1357 3916 979 3827 621 3827 
C 602 3827 570 3827 563 3808 
C 557 3795 557 3782 557 3648 
C 755 3648 1088 3686 1344 3839 
L 1344 461 
C 1344 236 1331 160 781 160 
L 589 160 
L 589 0 
C 896 0 1216 0 1523 0 
C 1830 0 2150 0 2458 0 
L 2458 160 
L 2266 160 
C 1715 160 1702 230 1702 458 
L 1702 4058 
z
" id="CMR17-31" transform="scale(0.015625)"/>
        <path d="M 2688 2025 
C 2688 2416 2682 3080 2413 3591 
C 2176 4039 1798 4198 1466 4198 
C 1158 4198 768 4058 525 3597 
C 269 3118 243 2524 243 2025 
C 243 1661 250 1106 448 619 
C 723 -39 1216 -128 1466 -128 
C 1760 -128 2208 -7 2470 600 
C 2662 1042 2688 1559 2688 2025 
z
M 1466 -26 
C 1056 -26 813 325 723 812 
C 653 1188 653 1738 653 2096 
C 653 2588 653 2997 736 3387 
C 858 3929 1216 4096 1466 4096 
C 1728 4096 2067 3923 2189 3400 
C 2272 3036 2278 2607 2278 2096 
C 2278 1680 2278 1169 2202 792 
C 2067 95 1690 -26 1466 -26 
z
" id="CMR17-30" transform="scale(0.015625)"/>
       </defs>
       <use transform="scale(0.996264)" xlink:href="#CMR17-31"/>
       <use transform="translate(45.690477 0)scale(0.996264)" xlink:href="#CMR17-30"/>
       <use transform="translate(91.380954 36.153639)scale(0.697382)" xlink:href="#CMR17-31"/>
      </g>
     </g>
    </g>
    <g id="xtick_2">
     <g id="line2d_2">
      <g>
       <use style="fill:#262626;stroke:#262626;stroke-width:1.25;" x="192.15325" xlink:href="#m3d672ded5a" y="294.962625"/>
      </g>
     </g>
     <g id="text_2">
      <!-- $\mathdefault{10^{2}}$ -->
      <g style="fill:#262626;" transform="translate(183.349715 313.59502)scale(0.132 -0.132)">
       <defs>
        <path d="M 2669 989 
L 2554 989 
C 2490 536 2438 459 2413 420 
C 2381 369 1920 369 1830 369 
L 602 369 
C 832 619 1280 1072 1824 1597 
C 2214 1967 2669 2402 2669 3035 
C 2669 3790 2067 4224 1395 4224 
C 691 4224 262 3604 262 3030 
C 262 2780 448 2748 525 2748 
C 589 2748 781 2787 781 3010 
C 781 3207 614 3264 525 3264 
C 486 3264 448 3258 422 3245 
C 544 3790 915 4058 1306 4058 
C 1862 4058 2227 3617 2227 3035 
C 2227 2479 1901 2000 1536 1584 
L 262 146 
L 262 0 
L 2515 0 
L 2669 989 
z
" id="CMR17-32" transform="scale(0.015625)"/>
       </defs>
       <use transform="scale(0.996264)" xlink:href="#CMR17-31"/>
       <use transform="translate(45.690477 0)scale(0.996264)" xlink:href="#CMR17-30"/>
       <use transform="translate(91.380954 36.153639)scale(0.697382)" xlink:href="#CMR17-32"/>
      </g>
     </g>
    </g>
    <g id="xtick_3">
     <g id="line2d_3">
      <g>
       <use style="fill:#262626;stroke:#262626;stroke-width:1.25;" x="331.65325" xlink:href="#m3d672ded5a" y="294.962625"/>
      </g>
     </g>
     <g id="text_3">
      <!-- $\mathdefault{10^{3}}$ -->
      <g style="fill:#262626;" transform="translate(322.849715 313.59502)scale(0.132 -0.132)">
       <defs>
        <path d="M 1414 2157 
C 1984 2157 2234 1662 2234 1090 
C 2234 320 1824 25 1453 25 
C 1114 25 563 194 390 693 
C 422 680 454 680 486 680 
C 640 680 755 782 755 948 
C 755 1133 614 1216 486 1216 
C 378 1216 211 1165 211 926 
C 211 335 787 -128 1466 -128 
C 2176 -128 2720 430 2720 1085 
C 2720 1707 2208 2157 1600 2227 
C 2086 2328 2554 2756 2554 3329 
C 2554 3820 2048 4179 1472 4179 
C 890 4179 378 3829 378 3329 
C 378 3110 544 3072 627 3072 
C 762 3072 877 3155 877 3321 
C 877 3486 762 3569 627 3569 
C 602 3569 570 3569 544 3557 
C 730 3959 1235 4032 1459 4032 
C 1683 4032 2106 3925 2106 3320 
C 2106 3143 2080 2828 1862 2550 
C 1670 2304 1453 2304 1242 2284 
C 1210 2284 1062 2269 1037 2269 
C 992 2263 966 2257 966 2208 
C 966 2163 973 2157 1101 2157 
L 1414 2157 
z
" id="CMR17-33" transform="scale(0.015625)"/>
       </defs>
       <use transform="scale(0.996264)" xlink:href="#CMR17-31"/>
       <use transform="translate(45.690477 0)scale(0.996264)" xlink:href="#CMR17-30"/>
       <use transform="translate(91.380954 36.153639)scale(0.697382)" xlink:href="#CMR17-33"/>
      </g>
     </g>
    </g>
    <g id="xtick_4">
     <g id="line2d_4">
      <defs>
       <path d="M 0 0 
L 0 4 
" id="m92897c6222" style="stroke:#262626;"/>
      </defs>
      <g>
       <use style="fill:#262626;stroke:#262626;" x="94.646934" xlink:href="#m92897c6222" y="294.962625"/>
      </g>
     </g>
    </g>
    <g id="xtick_5">
     <g id="line2d_5">
      <g>
       <use style="fill:#262626;stroke:#262626;" x="119.211665" xlink:href="#m92897c6222" y="294.962625"/>
      </g>
     </g>
    </g>
    <g id="xtick_6">
     <g id="line2d_6">
      <g>
       <use style="fill:#262626;stroke:#262626;" x="136.640618" xlink:href="#m92897c6222" y="294.962625"/>
      </g>
     </g>
    </g>
    <g id="xtick_7">
     <g id="line2d_7">
      <g>
       <use style="fill:#262626;stroke:#262626;" x="150.159565" xlink:href="#m92897c6222" y="294.962625"/>
      </g>
     </g>
    </g>
    <g id="xtick_8">
     <g id="line2d_8">
      <g>
       <use style="fill:#262626;stroke:#262626;" x="161.205349" xlink:href="#m92897c6222" y="294.962625"/>
      </g>
     </g>
    </g>
    <g id="xtick_9">
     <g id="line2d_9">
      <g>
       <use style="fill:#262626;stroke:#262626;" x="170.544426" xlink:href="#m92897c6222" y="294.962625"/>
      </g>
     </g>
    </g>
    <g id="xtick_10">
     <g id="line2d_10">
      <g>
       <use style="fill:#262626;stroke:#262626;" x="178.634303" xlink:href="#m92897c6222" y="294.962625"/>
      </g>
     </g>
    </g>
    <g id="xtick_11">
     <g id="line2d_11">
      <g>
       <use style="fill:#262626;stroke:#262626;" x="185.77008" xlink:href="#m92897c6222" y="294.962625"/>
      </g>
     </g>
    </g>
    <g id="xtick_12">
     <g id="line2d_12">
      <g>
       <use style="fill:#262626;stroke:#262626;" x="234.146934" xlink:href="#m92897c6222" y="294.962625"/>
      </g>
     </g>
    </g>
    <g id="xtick_13">
     <g id="line2d_13">
      <g>
       <use style="fill:#262626;stroke:#262626;" x="258.711665" xlink:href="#m92897c6222" y="294.962625"/>
      </g>
     </g>
    </g>
    <g id="xtick_14">
     <g id="line2d_14">
      <g>
       <use style="fill:#262626;stroke:#262626;" x="276.140618" xlink:href="#m92897c6222" y="294.962625"/>
      </g>
     </g>
    </g>
    <g id="xtick_15">
     <g id="line2d_15">
      <g>
       <use style="fill:#262626;stroke:#262626;" x="289.659565" xlink:href="#m92897c6222" y="294.962625"/>
      </g>
     </g>
    </g>
    <g id="xtick_16">
     <g id="line2d_16">
      <g>
       <use style="fill:#262626;stroke:#262626;" x="300.705349" xlink:href="#m92897c6222" y="294.962625"/>
      </g>
     </g>
    </g>
    <g id="xtick_17">
     <g id="line2d_17">
      <g>
       <use style="fill:#262626;stroke:#262626;" x="310.044426" xlink:href="#m92897c6222" y="294.962625"/>
      </g>
     </g>
    </g>
    <g id="xtick_18">
     <g id="line2d_18">
      <g>
       <use style="fill:#262626;stroke:#262626;" x="318.134303" xlink:href="#m92897c6222" y="294.962625"/>
      </g>
     </g>
    </g>
    <g id="xtick_19">
     <g id="line2d_19">
      <g>
       <use style="fill:#262626;stroke:#262626;" x="325.27008" xlink:href="#m92897c6222" y="294.962625"/>
      </g>
     </g>
    </g>
    <g id="text_4">
     <!-- Lanczos degree -->
     <g style="fill:#262626;" transform="translate(145.974499 330.114706)scale(0.144 -0.144)">
      <defs>
       <path d="M 3469 1615 
L 3354 1615 
C 3302 983 3219 166 2125 166 
L 1530 166 
C 1274 166 1261 197 1261 414 
L 1261 3898 
C 1261 4129 1274 4192 1760 4192 
L 1901 4192 
L 1901 4352 
C 1638 4352 1331 4352 1069 4352 
C 870 4352 512 4352 326 4352 
L 326 4192 
C 768 4192 838 4192 838 3905 
L 838 452 
C 838 166 768 166 326 166 
L 326 0 
L 3315 0 
L 3469 1615 
z
" id="CMR17-4c" transform="scale(0.015625)"/>
       <path d="M 2304 1653 
C 2304 2072 2304 2294 2035 2543 
C 1798 2752 1523 2816 1306 2816 
C 800 2816 435 2407 435 1971 
C 435 1728 627 1728 666 1728 
C 749 1728 896 1778 896 1954 
C 896 2112 774 2181 666 2181 
C 640 2181 608 2174 589 2168 
C 723 2592 1069 2714 1293 2714 
C 1613 2714 1965 2429 1965 1885 
L 1965 1600 
C 1587 1600 1133 1549 774 1357 
C 371 1133 256 813 256 570 
C 256 77 832 -64 1171 -64 
C 1523 -64 1850 139 1990 511 
C 2003 233 2182 -18 2464 -18 
C 2598 -18 2938 70 2938 567 
L 2938 920 
L 2822 920 
L 2822 562 
C 2822 178 2650 128 2566 128 
C 2304 128 2304 458 2304 738 
L 2304 1653 
z
M 1965 870 
C 1965 317 1568 38 1216 38 
C 896 38 646 275 646 570 
C 646 761 730 1100 1101 1305 
C 1408 1478 1760 1504 1965 1504 
L 1965 870 
z
" id="CMR17-61" transform="scale(0.015625)"/>
       <path d="M 2656 1933 
C 2656 2259 2592 2790 1837 2790 
C 1331 2790 1069 2400 973 2144 
L 966 2144 
L 966 2790 
L 211 2720 
L 211 2554 
C 589 2554 646 2515 646 2208 
L 646 428 
C 646 184 621 153 211 153 
L 211 -13 
C 365 0 646 0 813 0 
C 979 0 1267 0 1421 -13 
L 1421 153 
C 1011 153 986 178 986 428 
L 986 1658 
C 986 2247 1344 2688 1792 2688 
C 2266 2688 2317 2266 2317 1958 
L 2317 428 
C 2317 184 2291 153 1882 153 
L 1882 -13 
C 2035 0 2317 0 2483 0 
C 2650 0 2938 0 3091 -13 
L 3091 153 
C 2682 153 2656 178 2656 428 
L 2656 1933 
z
" id="CMR17-6e" transform="scale(0.015625)"/>
       <path d="M 2234 2240 
C 2112 2240 1933 2240 1933 2017 
C 1933 1838 2080 1787 2163 1787 
C 2208 1787 2394 1807 2394 2024 
C 2394 2467 1958 2803 1466 2803 
C 787 2803 211 2178 211 1363 
C 211 516 813 -64 1466 -64 
C 2259 -64 2458 677 2458 748 
C 2458 774 2451 793 2406 793 
C 2362 793 2355 787 2330 703 
C 2163 180 1798 51 1523 51 
C 1114 51 621 427 621 1369 
C 621 2338 1094 2688 1472 2688 
C 1722 2688 2093 2573 2234 2240 
z
" id="CMR17-63" transform="scale(0.015625)"/>
       <path d="M 2310 2605 
C 2362 2670 2362 2682 2362 2695 
C 2362 2752 2336 2752 2221 2752 
L 275 2752 
L 211 1760 
L 326 1760 
C 371 2381 442 2650 1178 2650 
L 1958 2650 
L 128 96 
C 128 0 134 0 269 0 
L 2291 0 
L 2381 1152 
L 2266 1152 
C 2214 442 2131 115 1350 115 
L 531 115 
L 2310 2605 
z
" id="CMR17-7a" transform="scale(0.015625)"/>
       <path d="M 2758 1356 
C 2758 2176 2163 2816 1466 2816 
C 768 2816 173 2176 173 1356 
C 173 551 768 -64 1466 -64 
C 2163 -64 2758 551 2758 1356 
z
M 1466 51 
C 1165 51 909 230 762 480 
C 602 767 582 1126 582 1408 
C 582 1677 595 2010 762 2298 
C 890 2509 1139 2714 1466 2714 
C 1754 2714 1997 2554 2150 2330 
C 2349 2029 2349 1607 2349 1408 
C 2349 1158 2336 775 2163 467 
C 1984 173 1709 51 1466 51 
z
" id="CMR17-6f" transform="scale(0.015625)"/>
       <path d="M 1978 2697 
C 1978 2813 1971 2819 1933 2819 
C 1907 2819 1901 2813 1824 2717 
C 1805 2691 1747 2626 1728 2601 
C 1523 2819 1235 2819 1126 2819 
C 416 2819 160 2447 160 2076 
C 160 1498 813 1365 998 1325 
C 1402 1243 1542 1217 1677 1101 
C 1760 1025 1901 884 1901 654 
C 1901 384 1747 38 1158 38 
C 602 38 403 460 288 1021 
C 269 1110 269 1117 218 1117 
C 166 1117 160 1110 160 983 
L 160 63 
C 160 -51 166 -58 205 -58 
C 237 -58 243 -51 275 0 
C 314 57 410 211 448 276 
C 576 103 800 -64 1158 -64 
C 1792 -64 2131 283 2131 784 
C 2131 1112 1958 1285 1875 1362 
C 1683 1561 1459 1606 1190 1657 
C 838 1735 390 1825 390 2217 
C 390 2383 480 2737 1126 2737 
C 1811 2737 1850 2094 1862 1888 
C 1869 1856 1901 1849 1920 1849 
C 1978 1849 1978 1869 1978 1978 
L 1978 2697 
z
" id="CMR17-73" transform="scale(0.015625)"/>
       <path d="M 1869 4326 
L 1869 4160 
C 2246 4160 2304 4122 2304 3820 
L 2304 2345 
C 2278 2377 2016 2790 1498 2790 
C 845 2790 211 2208 211 1364 
C 211 525 806 -64 1434 -64 
C 1978 -64 2259 337 2291 380 
L 2291 -63 
L 3066 -63 
L 3066 128 
C 2688 128 2630 166 2630 473 
L 2630 4396 
L 1869 4326 
z
M 2291 755 
C 2291 563 2176 390 2029 262 
C 1811 70 1594 38 1472 38 
C 1286 38 621 134 621 1356 
C 621 2612 1363 2688 1530 2688 
C 1824 2688 2061 2522 2208 2291 
C 2291 2157 2291 2138 2291 2023 
L 2291 755 
z
" id="CMR17-64" transform="scale(0.015625)"/>
       <path d="M 2438 1472 
C 2464 1498 2464 1511 2464 1576 
C 2464 2238 2118 2816 1389 2816 
C 710 2816 173 2169 173 1383 
C 173 551 781 -64 1459 -64 
C 2176 -64 2458 607 2458 740 
C 2458 784 2419 784 2406 784 
C 2362 784 2355 771 2330 696 
C 2189 265 1837 51 1504 51 
C 1229 51 954 203 781 480 
C 582 803 582 1176 582 1472 
L 2438 1472 
z
M 589 1568 
C 634 2505 1126 2714 1382 2714 
C 1818 2714 2112 2297 2118 1568 
L 589 1568 
z
" id="CMR17-65" transform="scale(0.015625)"/>
       <path d="M 710 1164 
C 832 1068 1043 960 1299 960 
C 1805 960 2240 1357 2240 1888 
C 2240 2054 2189 2310 1997 2509 
C 2176 2692 2438 2752 2586 2752 
C 2611 2752 2650 2752 2682 2734 
C 2656 2728 2598 2703 2598 2605 
C 2598 2527 2656 2471 2739 2471 
C 2835 2471 2886 2533 2886 2614 
C 2886 2731 2790 2854 2586 2854 
C 2330 2854 2106 2738 1926 2580 
C 1734 2753 1504 2816 1299 2816 
C 794 2816 358 2419 358 1888 
C 358 1522 570 1292 634 1228 
C 442 1004 442 743 442 711 
C 442 545 506 302 723 168 
C 390 85 128 -169 128 -486 
C 128 -943 736 -1280 1466 -1280 
C 2170 -1280 2803 -956 2803 -479 
C 2803 384 1856 384 1363 384 
C 1216 384 954 384 922 391 
C 723 423 589 602 589 826 
C 589 883 589 1024 710 1164 
z
M 1299 1068 
C 736 1068 736 1760 736 1889 
C 736 2016 736 2708 1299 2708 
C 1862 2708 1862 2016 1862 1889 
C 1862 1760 1862 1068 1299 1068 
z
M 1466 -1171 
C 826 -1171 384 -835 384 -486 
C 384 -289 493 -105 634 -4 
C 794 104 858 104 1293 104 
C 1818 104 2547 104 2547 -486 
C 2547 -835 2106 -1171 1466 -1171 
z
" id="CMR17-67" transform="scale(0.015625)"/>
       <path d="M 960 1497 
C 960 2112 1222 2688 1702 2688 
C 1747 2688 1792 2682 1837 2662 
C 1837 2662 1696 2617 1696 2452 
C 1696 2298 1818 2234 1914 2234 
C 1990 2234 2131 2279 2131 2458 
C 2131 2663 1926 2790 1709 2790 
C 1222 2790 1011 2317 947 2093 
L 941 2093 
L 941 2790 
L 198 2720 
L 198 2554 
C 576 2554 634 2515 634 2208 
L 634 428 
C 634 184 608 153 198 153 
L 198 -13 
C 352 0 646 0 813 0 
C 998 0 1325 0 1498 -13 
L 1498 153 
C 1037 153 960 153 960 440 
L 960 1497 
z
" id="CMR17-72" transform="scale(0.015625)"/>
      </defs>
      <use transform="scale(0.996264)" xlink:href="#CMR17-4c"/>
      <use transform="translate(57.381408 0)scale(0.996264)" xlink:href="#CMR17-61"/>
      <use transform="translate(103.071885 0)scale(0.996264)" xlink:href="#CMR17-6e"/>
      <use transform="translate(153.967255 0)scale(0.996264)" xlink:href="#CMR17-63"/>
      <use transform="translate(194.452915 0)scale(0.996264)" xlink:href="#CMR17-7a"/>
      <use transform="translate(234.938576 0)scale(0.996264)" xlink:href="#CMR17-6f"/>
      <use transform="translate(280.629053 0)scale(0.996264)" xlink:href="#CMR17-73"/>
      <use transform="translate(346.506357 0)scale(0.996264)" xlink:href="#CMR17-64"/>
      <use transform="translate(397.401727 0)scale(0.996264)" xlink:href="#CMR17-65"/>
      <use transform="translate(437.887387 0)scale(0.996264)" xlink:href="#CMR17-67"/>
      <use transform="translate(483.577864 0)scale(0.996264)" xlink:href="#CMR17-72"/>
      <use transform="translate(518.858632 0)scale(0.996264)" xlink:href="#CMR17-65"/>
      <use transform="translate(559.344292 0)scale(0.996264)" xlink:href="#CMR17-65"/>
     </g>
    </g>
   </g>
   <g id="matplotlib.axis_2">
    <g id="ytick_1">
     <g id="line2d_20">
      <path clip-path="url(#pa8c4d3a306)" d="M 52.65325 191.869798 
L 331.65325 191.869798 
" style="fill:none;stroke:#cccccc;stroke-linecap:round;"/>
     </g>
     <g id="line2d_21">
      <defs>
       <path d="M 0 0 
L -6 0 
" id="m400523ffa6" style="stroke:#262626;stroke-width:1.25;"/>
      </defs>
      <g>
       <use style="fill:#262626;stroke:#262626;stroke-width:1.25;" x="52.65325" xlink:href="#m400523ffa6" y="191.869798"/>
      </g>
     </g>
     <g id="text_5">
      <!-- $\mathdefault{10^{1}}$ -->
      <g style="fill:#262626;" transform="translate(25.54618 196.435995)scale(0.132 -0.132)">
       <use transform="scale(0.996264)" xlink:href="#CMR17-31"/>
       <use transform="translate(45.690477 0)scale(0.996264)" xlink:href="#CMR17-30"/>
       <use transform="translate(91.380954 36.153639)scale(0.697382)" xlink:href="#CMR17-31"/>
      </g>
     </g>
    </g>
    <g id="ytick_2">
     <g id="line2d_22">
      <path clip-path="url(#pa8c4d3a306)" d="M 52.65325 86.194152 
L 331.65325 86.194152 
" style="fill:none;stroke:#cccccc;stroke-linecap:round;"/>
     </g>
     <g id="line2d_23">
      <g>
       <use style="fill:#262626;stroke:#262626;stroke-width:1.25;" x="52.65325" xlink:href="#m400523ffa6" y="86.194152"/>
      </g>
     </g>
     <g id="text_6">
      <!-- $\mathdefault{10^{2}}$ -->
      <g style="fill:#262626;" transform="translate(25.54618 90.76035)scale(0.132 -0.132)">
       <use transform="scale(0.996264)" xlink:href="#CMR17-31"/>
       <use transform="translate(45.690477 0)scale(0.996264)" xlink:href="#CMR17-30"/>
       <use transform="translate(91.380954 36.153639)scale(0.697382)" xlink:href="#CMR17-32"/>
      </g>
     </g>
    </g>
    <g id="ytick_3">
     <g id="line2d_24">
      <defs>
       <path d="M 0 0 
L -4 0 
" id="md99aa57e46" style="stroke:#262626;"/>
      </defs>
      <g>
       <use style="fill:#262626;stroke:#262626;" x="52.65325" xlink:href="#md99aa57e46" y="265.733905"/>
      </g>
     </g>
    </g>
    <g id="ytick_4">
     <g id="line2d_25">
      <g>
       <use style="fill:#262626;stroke:#262626;" x="52.65325" xlink:href="#md99aa57e46" y="247.125347"/>
      </g>
     </g>
    </g>
    <g id="ytick_5">
     <g id="line2d_26">
      <g>
       <use style="fill:#262626;stroke:#262626;" x="52.65325" xlink:href="#md99aa57e46" y="233.922366"/>
      </g>
     </g>
    </g>
    <g id="ytick_6">
     <g id="line2d_27">
      <g>
       <use style="fill:#262626;stroke:#262626;" x="52.65325" xlink:href="#md99aa57e46" y="223.681337"/>
      </g>
     </g>
    </g>
    <g id="ytick_7">
     <g id="line2d_28">
      <g>
       <use style="fill:#262626;stroke:#262626;" x="52.65325" xlink:href="#md99aa57e46" y="215.313808"/>
      </g>
     </g>
    </g>
    <g id="ytick_8">
     <g id="line2d_29">
      <g>
       <use style="fill:#262626;stroke:#262626;" x="52.65325" xlink:href="#md99aa57e46" y="208.239163"/>
      </g>
     </g>
    </g>
    <g id="ytick_9">
     <g id="line2d_30">
      <g>
       <use style="fill:#262626;stroke:#262626;" x="52.65325" xlink:href="#md99aa57e46" y="202.110826"/>
      </g>
     </g>
    </g>
    <g id="ytick_10">
     <g id="line2d_31">
      <g>
       <use style="fill:#262626;stroke:#262626;" x="52.65325" xlink:href="#md99aa57e46" y="196.70525"/>
      </g>
     </g>
    </g>
    <g id="ytick_11">
     <g id="line2d_32">
      <g>
       <use style="fill:#262626;stroke:#262626;" x="52.65325" xlink:href="#md99aa57e46" y="160.058259"/>
      </g>
     </g>
    </g>
    <g id="ytick_12">
     <g id="line2d_33">
      <g>
       <use style="fill:#262626;stroke:#262626;" x="52.65325" xlink:href="#md99aa57e46" y="141.449701"/>
      </g>
     </g>
    </g>
    <g id="ytick_13">
     <g id="line2d_34">
      <g>
       <use style="fill:#262626;stroke:#262626;" x="52.65325" xlink:href="#md99aa57e46" y="128.24672"/>
      </g>
     </g>
    </g>
    <g id="ytick_14">
     <g id="line2d_35">
      <g>
       <use style="fill:#262626;stroke:#262626;" x="52.65325" xlink:href="#md99aa57e46" y="118.005691"/>
      </g>
     </g>
    </g>
    <g id="ytick_15">
     <g id="line2d_36">
      <g>
       <use style="fill:#262626;stroke:#262626;" x="52.65325" xlink:href="#md99aa57e46" y="109.638162"/>
      </g>
     </g>
    </g>
    <g id="ytick_16">
     <g id="line2d_37">
      <g>
       <use style="fill:#262626;stroke:#262626;" x="52.65325" xlink:href="#md99aa57e46" y="102.563517"/>
      </g>
     </g>
    </g>
    <g id="ytick_17">
     <g id="line2d_38">
      <g>
       <use style="fill:#262626;stroke:#262626;" x="52.65325" xlink:href="#md99aa57e46" y="96.43518"/>
      </g>
     </g>
    </g>
    <g id="ytick_18">
     <g id="line2d_39">
      <g>
       <use style="fill:#262626;stroke:#262626;" x="52.65325" xlink:href="#md99aa57e46" y="91.029605"/>
      </g>
     </g>
    </g>
    <g id="ytick_19">
     <g id="line2d_40">
      <g>
       <use style="fill:#262626;stroke:#262626;" x="52.65325" xlink:href="#md99aa57e46" y="54.382613"/>
      </g>
     </g>
    </g>
    <g id="ytick_20">
     <g id="line2d_41">
      <g>
       <use style="fill:#262626;stroke:#262626;" x="52.65325" xlink:href="#md99aa57e46" y="35.774055"/>
      </g>
     </g>
    </g>
    <g id="text_7">
     <!-- Elapsed time (sec) -->
     <g style="fill:#262626;" transform="translate(17.959639 215.815751)rotate(-90)scale(0.144 -0.144)">
      <defs>
       <path d="M 3885 1615 
L 3770 1615 
C 3629 676 3546 166 2419 166 
L 1530 166 
C 1274 166 1261 197 1261 414 
L 1261 2176 
L 1862 2176 
C 2464 2176 2522 1960 2522 1430 
L 2637 1430 
L 2637 3081 
L 2522 3081 
C 2522 2557 2464 2342 1862 2342 
L 1261 2342 
L 1261 3913 
C 1261 4128 1274 4160 1530 4160 
L 2406 4160 
C 3398 4160 3514 3769 3603 2929 
L 3718 2929 
L 3565 4325 
L 326 4325 
L 326 4160 
C 768 4160 838 4160 838 3874 
L 838 451 
C 838 166 768 166 326 166 
L 326 0 
L 3654 0 
L 3885 1615 
z
" id="CMR17-45" transform="scale(0.015625)"/>
       <path d="M 979 4396 
L 218 4326 
L 218 4160 
C 595 4160 653 4122 653 3817 
L 653 426 
C 653 184 627 153 218 153 
L 218 -13 
C 371 0 653 0 813 0 
C 979 0 1261 0 1414 -13 
L 1414 153 
C 1005 153 979 178 979 426 
L 979 4396 
z
" id="CMR17-6c" transform="scale(0.015625)"/>
       <path d="M 1408 -1063 
C 998 -1063 973 -1037 973 -789 
L 973 402 
C 1158 134 1427 -38 1766 -38 
C 2406 -38 3053 523 3053 1388 
C 3053 2191 2496 2802 1837 2802 
C 1453 2802 1139 2592 960 2338 
L 960 2802 
L 198 2732 
L 198 2567 
C 576 2567 634 2528 634 2223 
L 634 -789 
C 634 -1031 608 -1063 198 -1063 
L 198 -1228 
C 352 -1216 634 -1216 800 -1216 
C 966 -1216 1254 -1216 1408 -1228 
L 1408 -1063 
z
M 973 2012 
C 973 2102 973 2235 1222 2471 
C 1254 2497 1472 2688 1792 2688 
C 2259 2688 2643 2108 2643 1382 
C 2643 656 2234 64 1728 64 
C 1498 64 1248 172 1056 472 
C 973 612 973 650 973 752 
L 973 2012 
z
" id="CMR17-70" transform="scale(0.015625)"/>
       <path d="M 966 2560 
L 1862 2560 
L 1862 2725 
L 966 2725 
L 966 3904 
L 851 3904 
C 838 3245 614 2668 70 2668 
L 70 2560 
L 627 2560 
L 627 771 
C 627 650 627 -64 1370 -64 
C 1747 -64 1965 306 1965 777 
L 1965 1140 
L 1850 1140 
L 1850 783 
C 1850 344 1677 51 1408 51 
C 1222 51 966 178 966 758 
L 966 2560 
z
" id="CMR17-74" transform="scale(0.015625)"/>
       <path d="M 992 3909 
C 992 4049 877 4170 730 4170 
C 589 4170 467 4056 467 3909 
C 467 3769 582 3648 730 3648 
C 870 3648 992 3763 992 3909 
z
M 243 2706 
L 243 2541 
C 602 2541 653 2502 653 2197 
L 653 427 
C 653 184 627 153 218 153 
L 218 -13 
C 371 0 646 0 806 0 
C 960 0 1222 0 1370 -13 
L 1370 153 
C 992 153 979 191 979 420 
L 979 2776 
L 243 2706 
z
" id="CMR17-69" transform="scale(0.015625)"/>
       <path d="M 4326 1933 
C 4326 2252 4269 2790 3507 2790 
C 3072 2790 2771 2496 2656 2151 
L 2650 2151 
C 2573 2676 2195 2790 1837 2790 
C 1331 2790 1069 2400 973 2144 
L 966 2144 
L 966 2790 
L 211 2720 
L 211 2554 
C 589 2554 646 2515 646 2208 
L 646 428 
C 646 184 621 153 211 153 
L 211 -13 
C 365 0 646 0 813 0 
C 979 0 1267 0 1421 -13 
L 1421 153 
C 1011 153 986 178 986 428 
L 986 1658 
C 986 2247 1344 2688 1792 2688 
C 2266 2688 2317 2266 2317 1958 
L 2317 428 
C 2317 184 2291 153 1882 153 
L 1882 -13 
C 2035 0 2317 0 2483 0 
C 2650 0 2938 0 3091 -13 
L 3091 153 
C 2682 153 2656 178 2656 428 
L 2656 1658 
C 2656 2247 3014 2688 3462 2688 
C 3936 2688 3987 2266 3987 1958 
L 3987 428 
C 3987 184 3962 153 3552 153 
L 3552 -13 
C 3706 0 3987 0 4154 0 
C 4320 0 4608 0 4762 -13 
L 4762 153 
C 4352 153 4326 178 4326 428 
L 4326 1933 
z
" id="CMR17-6d" transform="scale(0.015625)"/>
       <path d="M 1958 -1561 
C 1958 -1555 1958 -1542 1939 -1523 
C 1645 -1224 858 -407 858 1581 
C 858 3569 1632 4379 1946 4697 
C 1946 4704 1958 4717 1958 4736 
C 1958 4755 1939 4768 1914 4768 
C 1843 4768 1299 4296 986 3594 
C 666 2887 576 2199 576 1588 
C 576 1128 621 351 1005 -471 
C 1312 -1135 1837 -1600 1914 -1600 
C 1946 -1600 1958 -1587 1958 -1561 
z
" id="CMR17-28" transform="scale(0.015625)"/>
       <path d="M 1683 1581 
C 1683 2040 1638 2817 1254 3639 
C 947 4303 422 4768 346 4768 
C 326 4768 301 4761 301 4729 
C 301 4717 307 4710 314 4697 
C 621 4378 1402 3568 1402 1584 
C 1402 -407 627 -1217 314 -1537 
C 307 -1549 301 -1556 301 -1568 
C 301 -1600 326 -1600 346 -1600 
C 416 -1600 960 -1128 1274 -426 
C 1594 281 1683 969 1683 1581 
z
" id="CMR17-29" transform="scale(0.015625)"/>
      </defs>
      <use transform="scale(0.996264)" xlink:href="#CMR17-45"/>
      <use transform="translate(62.586301 0)scale(0.996264)" xlink:href="#CMR17-6c"/>
      <use transform="translate(87.457359 0)scale(0.996264)" xlink:href="#CMR17-61"/>
      <use transform="translate(133.147836 0)scale(0.996264)" xlink:href="#CMR17-70"/>
      <use transform="translate(184.043206 0)scale(0.996264)" xlink:href="#CMR17-73"/>
      <use transform="translate(219.844544 0)scale(0.996264)" xlink:href="#CMR17-65"/>
      <use transform="translate(260.330204 0)scale(0.996264)" xlink:href="#CMR17-64"/>
      <use transform="translate(341.30154 0)scale(0.996264)" xlink:href="#CMR17-74"/>
      <use transform="translate(376.582308 0)scale(0.996264)" xlink:href="#CMR17-69"/>
      <use transform="translate(401.453366 0)scale(0.996264)" xlink:href="#CMR17-6d"/>
      <use transform="translate(478.372956 0)scale(0.996264)" xlink:href="#CMR17-65"/>
      <use transform="translate(548.934583 0)scale(0.996264)" xlink:href="#CMR17-28"/>
      <use transform="translate(584.215351 0)scale(0.996264)" xlink:href="#CMR17-73"/>
      <use transform="translate(620.016689 0)scale(0.996264)" xlink:href="#CMR17-65"/>
      <use transform="translate(660.502349 0)scale(0.996264)" xlink:href="#CMR17-63"/>
      <use transform="translate(700.988009 0)scale(0.996264)" xlink:href="#CMR17-29"/>
     </g>
    </g>
   </g>
   <g id="line2d_42">
    <defs>
     <path d="M 0 3 
C 0.795609 3 1.55874 2.683901 2.12132 2.12132 
C 2.683901 1.55874 3 0.795609 3 0 
C 3 -0.795609 2.683901 -1.55874 2.12132 -2.12132 
C 1.55874 -2.683901 0.795609 -3 0 -3 
C -0.795609 -3 -1.55874 -2.683901 -2.12132 -2.12132 
C -2.683901 -1.55874 -3 -0.795609 -3 0 
C -3 0.795609 -2.683901 1.55874 -2.12132 2.12132 
C -1.55874 2.683901 -0.795609 3 0 3 
z
" id="mc172bc92ed" style="stroke:#cd853f;"/>
    </defs>
    <g clip-path="url(#pa8c4d3a306)">
     <use style="fill:#cd853f;stroke:#cd853f;" x="52.65325" xlink:href="#mc172bc92ed" y="266.217651"/>
     <use style="fill:#cd853f;stroke:#cd853f;" x="58.427529" xlink:href="#mc172bc92ed" y="261.671985"/>
     <use style="fill:#cd853f;stroke:#cd853f;" x="68.548347" xlink:href="#mc172bc92ed" y="254.28172"/>
     <use style="fill:#cd853f;stroke:#cd853f;" x="81.127987" xlink:href="#mc172bc92ed" y="244.272411"/>
     <use style="fill:#cd853f;stroke:#cd853f;" x="88.263764" xlink:href="#mc172bc92ed" y="238.691079"/>
     <use style="fill:#cd853f;stroke:#cd853f;" x="100.421214" xlink:href="#mc172bc92ed" y="229.73791"/>
     <use style="fill:#cd853f;stroke:#cd853f;" x="108.165881" xlink:href="#mc172bc92ed" y="223.71848"/>
     <use style="fill:#cd853f;stroke:#cd853f;" x="119.211665" xlink:href="#mc172bc92ed" y="215.553179"/>
     <use style="fill:#cd853f;stroke:#cd853f;" x="128.550742" xlink:href="#mc172bc92ed" y="207.794371"/>
     <use style="fill:#cd853f;stroke:#cd853f;" x="138.136598" xlink:href="#mc172bc92ed" y="200.9123"/>
     <use style="fill:#cd853f;stroke:#cd853f;" x="147.686402" xlink:href="#mc172bc92ed" y="193.067735"/>
     <use style="fill:#cd853f;stroke:#cd853f;" x="158.097792" xlink:href="#mc172bc92ed" y="184.662538"/>
     <use style="fill:#cd853f;stroke:#cd853f;" x="167.890685" xlink:href="#mc172bc92ed" y="176.613321"/>
     <use style="fill:#cd853f;stroke:#cd853f;" x="177.100447" xlink:href="#mc172bc92ed" y="170.177408"/>
     <use style="fill:#cd853f;stroke:#cd853f;" x="187.101652" xlink:href="#mc172bc92ed" y="161.917617"/>
     <use style="fill:#cd853f;stroke:#cd853f;" x="196.815864" xlink:href="#mc172bc92ed" y="154.605394"/>
     <use style="fill:#cd853f;stroke:#cd853f;" x="206.154941" xlink:href="#mc172bc92ed" y="148.01205"/>
     <use style="fill:#cd853f;stroke:#cd853f;" x="215.904759" xlink:href="#mc172bc92ed" y="140.250132"/>
     <use style="fill:#cd853f;stroke:#cd853f;" x="225.70987" xlink:href="#mc172bc92ed" y="132.358521"/>
     <use style="fill:#cd853f;stroke:#cd853f;" x="235.346658" xlink:href="#mc172bc92ed" y="124.959903"/>
     <use style="fill:#cd853f;stroke:#cd853f;" x="244.939757" xlink:href="#mc172bc92ed" y="116.807846"/>
     <use style="fill:#cd853f;stroke:#cd853f;" x="254.531795" xlink:href="#mc172bc92ed" y="109.195166"/>
     <use style="fill:#cd853f;stroke:#cd853f;" x="264.302077" xlink:href="#mc172bc92ed" y="100.854979"/>
     <use style="fill:#cd853f;stroke:#cd853f;" x="273.825021" xlink:href="#mc172bc92ed" y="92.498208"/>
     <use style="fill:#cd853f;stroke:#cd853f;" x="283.545061" xlink:href="#mc172bc92ed" y="85.186691"/>
     <use style="fill:#cd853f;stroke:#cd853f;" x="293.075316" xlink:href="#mc172bc92ed" y="75.954801"/>
     <use style="fill:#cd853f;stroke:#cd853f;" x="302.789528" xlink:href="#mc172bc92ed" y="66.658448"/>
     <use style="fill:#cd853f;stroke:#cd853f;" x="312.3373" xlink:href="#mc172bc92ed" y="57.228102"/>
     <use style="fill:#cd853f;stroke:#cd853f;" x="322.02064" xlink:href="#mc172bc92ed" y="47.347411"/>
     <use style="fill:#cd853f;stroke:#cd853f;" x="331.65325" xlink:href="#mc172bc92ed" y="35.51717"/>
    </g>
   </g>
   <g id="line2d_43">
    <defs>
     <path d="M -3 3 
L 3 3 
L 3 -3 
L -3 -3 
z
" id="mb6af0ea269" style="stroke:#8b0000;stroke-linejoin:miter;"/>
    </defs>
    <g clip-path="url(#pa8c4d3a306)">
     <use style="fill:#8b0000;stroke:#8b0000;stroke-linejoin:miter;" x="52.65325" xlink:href="#mb6af0ea269" y="280.047044"/>
     <use style="fill:#8b0000;stroke:#8b0000;stroke-linejoin:miter;" x="58.427529" xlink:href="#mb6af0ea269" y="275.894905"/>
     <use style="fill:#8b0000;stroke:#8b0000;stroke-linejoin:miter;" x="68.548347" xlink:href="#mb6af0ea269" y="268.890095"/>
     <use style="fill:#8b0000;stroke:#8b0000;stroke-linejoin:miter;" x="81.127987" xlink:href="#mb6af0ea269" y="258.783788"/>
     <use style="fill:#8b0000;stroke:#8b0000;stroke-linejoin:miter;" x="88.263764" xlink:href="#mb6af0ea269" y="253.425877"/>
     <use style="fill:#8b0000;stroke:#8b0000;stroke-linejoin:miter;" x="100.421214" xlink:href="#mb6af0ea269" y="243.509581"/>
     <use style="fill:#8b0000;stroke:#8b0000;stroke-linejoin:miter;" x="108.165881" xlink:href="#mb6af0ea269" y="236.131175"/>
     <use style="fill:#8b0000;stroke:#8b0000;stroke-linejoin:miter;" x="119.211665" xlink:href="#mb6af0ea269" y="229.522772"/>
     <use style="fill:#8b0000;stroke:#8b0000;stroke-linejoin:miter;" x="128.550742" xlink:href="#mb6af0ea269" y="221.858756"/>
     <use style="fill:#8b0000;stroke:#8b0000;stroke-linejoin:miter;" x="138.136598" xlink:href="#mb6af0ea269" y="216.839706"/>
     <use style="fill:#8b0000;stroke:#8b0000;stroke-linejoin:miter;" x="147.686402" xlink:href="#mb6af0ea269" y="207.084339"/>
     <use style="fill:#8b0000;stroke:#8b0000;stroke-linejoin:miter;" x="158.097792" xlink:href="#mb6af0ea269" y="199.132385"/>
     <use style="fill:#8b0000;stroke:#8b0000;stroke-linejoin:miter;" x="167.890685" xlink:href="#mb6af0ea269" y="191.200847"/>
     <use style="fill:#8b0000;stroke:#8b0000;stroke-linejoin:miter;" x="177.100447" xlink:href="#mb6af0ea269" y="184.135207"/>
     <use style="fill:#8b0000;stroke:#8b0000;stroke-linejoin:miter;" x="187.101652" xlink:href="#mb6af0ea269" y="177.029858"/>
     <use style="fill:#8b0000;stroke:#8b0000;stroke-linejoin:miter;" x="196.815864" xlink:href="#mb6af0ea269" y="169.869059"/>
     <use style="fill:#8b0000;stroke:#8b0000;stroke-linejoin:miter;" x="206.154941" xlink:href="#mb6af0ea269" y="161.199521"/>
     <use style="fill:#8b0000;stroke:#8b0000;stroke-linejoin:miter;" x="215.904759" xlink:href="#mb6af0ea269" y="156.496174"/>
     <use style="fill:#8b0000;stroke:#8b0000;stroke-linejoin:miter;" x="225.70987" xlink:href="#mb6af0ea269" y="149.044448"/>
     <use style="fill:#8b0000;stroke:#8b0000;stroke-linejoin:miter;" x="235.346658" xlink:href="#mb6af0ea269" y="140.331967"/>
     <use style="fill:#8b0000;stroke:#8b0000;stroke-linejoin:miter;" x="244.939757" xlink:href="#mb6af0ea269" y="134.093783"/>
     <use style="fill:#8b0000;stroke:#8b0000;stroke-linejoin:miter;" x="254.531795" xlink:href="#mb6af0ea269" y="126.721923"/>
     <use style="fill:#8b0000;stroke:#8b0000;stroke-linejoin:miter;" x="264.302077" xlink:href="#mb6af0ea269" y="119.333905"/>
     <use style="fill:#8b0000;stroke:#8b0000;stroke-linejoin:miter;" x="273.825021" xlink:href="#mb6af0ea269" y="111.72616"/>
     <use style="fill:#8b0000;stroke:#8b0000;stroke-linejoin:miter;" x="283.545061" xlink:href="#mb6af0ea269" y="104.075237"/>
     <use style="fill:#8b0000;stroke:#8b0000;stroke-linejoin:miter;" x="293.075316" xlink:href="#mb6af0ea269" y="96.73707"/>
     <use style="fill:#8b0000;stroke:#8b0000;stroke-linejoin:miter;" x="302.789528" xlink:href="#mb6af0ea269" y="86.178133"/>
     <use style="fill:#8b0000;stroke:#8b0000;stroke-linejoin:miter;" x="312.3373" xlink:href="#mb6af0ea269" y="72.907719"/>
     <use style="fill:#8b0000;stroke:#8b0000;stroke-linejoin:miter;" x="322.02064" xlink:href="#mb6af0ea269" y="60.115294"/>
     <use style="fill:#8b0000;stroke:#8b0000;stroke-linejoin:miter;" x="331.65325" xlink:href="#mb6af0ea269" y="45.987111"/>
    </g>
   </g>
   <g id="line2d_44">
    <path clip-path="url(#pa8c4d3a306)" d="M 52.65325 268.836915 
L 55.471431 266.571142 
L 58.289613 264.305369 
L 61.107795 262.039596 
L 63.925977 259.773823 
L 66.744159 257.50805 
L 69.562341 255.242277 
L 72.380522 252.976503 
L 75.198704 250.71073 
L 78.016886 248.444957 
L 80.835068 246.179184 
L 83.65325 243.913411 
L 86.471431 241.647638 
L 89.289613 239.381865 
L 92.107795 237.116092 
L 94.925977 234.850319 
L 97.744159 232.584546 
L 100.562341 230.318773 
L 103.380522 228.053 
L 106.198704 225.787227 
L 109.016886 223.521454 
L 111.835068 221.255681 
L 114.65325 218.989908 
L 117.471431 216.724134 
L 120.289613 214.458361 
L 123.107795 212.192588 
L 125.925977 209.926815 
L 128.744159 207.661042 
L 131.562341 205.395269 
L 134.380522 203.129496 
L 137.198704 200.863723 
L 140.016886 198.59795 
L 142.835068 196.332177 
L 145.65325 194.066404 
L 148.471431 191.800631 
L 151.289613 189.534858 
L 154.107795 187.269085 
L 156.925977 185.003312 
L 159.744159 182.737538 
L 162.562341 180.471765 
L 165.380522 178.205992 
L 168.198704 175.940219 
L 171.016886 173.674446 
L 173.835068 171.408673 
L 176.65325 169.1429 
L 179.471431 166.877127 
L 182.289613 164.611354 
L 185.107795 162.345581 
L 187.925977 160.079808 
L 190.744159 157.814035 
L 193.562341 155.548262 
L 196.380522 153.282489 
L 199.198704 151.016716 
L 202.016886 148.750942 
L 204.835068 146.485169 
L 207.65325 144.219396 
L 210.471431 141.953623 
L 213.289613 139.68785 
L 216.107795 137.422077 
L 218.925977 135.156304 
L 221.744159 132.890531 
L 224.562341 130.624758 
L 227.380522 128.358985 
L 230.198704 126.093212 
L 233.016886 123.827439 
L 235.835068 121.561666 
L 238.65325 119.295893 
L 241.471431 117.03012 
L 244.289613 114.764346 
L 247.107795 112.498573 
L 249.925977 110.2328 
L 252.744159 107.967027 
L 255.562341 105.701254 
L 258.380522 103.435481 
L 261.198704 101.169708 
L 264.016886 98.903935 
L 266.835068 96.638162 
L 269.65325 94.372389 
L 272.471431 92.106616 
L 275.289613 89.840843 
L 278.107795 87.57507 
L 280.925977 85.309297 
L 283.744159 83.043524 
L 286.562341 80.77775 
L 289.380522 78.511977 
L 292.198704 76.246204 
L 295.016886 73.980431 
L 297.835068 71.714658 
L 300.65325 69.448885 
L 303.471431 67.183112 
L 306.289613 64.917339 
L 309.107795 62.651566 
L 311.925977 60.385793 
L 314.744159 58.12002 
L 317.562341 55.854247 
L 320.380522 53.588474 
L 323.198704 51.322701 
L 326.016886 49.056928 
L 328.835068 46.791154 
L 331.65325 44.525381 
" style="fill:none;stroke:#cd853f;stroke-linecap:round;stroke-width:1.5;"/>
   </g>
   <g id="line2d_45">
    <path clip-path="url(#pa8c4d3a306)" d="M 52.65325 282.608079 
L 55.471431 280.375088 
L 58.289613 278.142096 
L 61.107795 275.909104 
L 63.925977 273.676112 
L 66.744159 271.44312 
L 69.562341 269.210128 
L 72.380522 266.977136 
L 75.198704 264.744144 
L 78.016886 262.511153 
L 80.835068 260.278161 
L 83.65325 258.045169 
L 86.471431 255.812177 
L 89.289613 253.579185 
L 92.107795 251.346193 
L 94.925977 249.113201 
L 97.744159 246.880209 
L 100.562341 244.647217 
L 103.380522 242.414226 
L 106.198704 240.181234 
L 109.016886 237.948242 
L 111.835068 235.71525 
L 114.65325 233.482258 
L 117.471431 231.249266 
L 120.289613 229.016274 
L 123.107795 226.783282 
L 125.925977 224.550291 
L 128.744159 222.317299 
L 131.562341 220.084307 
L 134.380522 217.851315 
L 137.198704 215.618323 
L 140.016886 213.385331 
L 142.835068 211.152339 
L 145.65325 208.919347 
L 148.471431 206.686356 
L 151.289613 204.453364 
L 154.107795 202.220372 
L 156.925977 199.98738 
L 159.744159 197.754388 
L 162.562341 195.521396 
L 165.380522 193.288404 
L 168.198704 191.055412 
L 171.016886 188.822421 
L 173.835068 186.589429 
L 176.65325 184.356437 
L 179.471431 182.123445 
L 182.289613 179.890453 
L 185.107795 177.657461 
L 187.925977 175.424469 
L 190.744159 173.191477 
L 193.562341 170.958485 
L 196.380522 168.725494 
L 199.198704 166.492502 
L 202.016886 164.25951 
L 204.835068 162.026518 
L 207.65325 159.793526 
L 210.471431 157.560534 
L 213.289613 155.327542 
L 216.107795 153.09455 
L 218.925977 150.861559 
L 221.744159 148.628567 
L 224.562341 146.395575 
L 227.380522 144.162583 
L 230.198704 141.929591 
L 233.016886 139.696599 
L 235.835068 137.463607 
L 238.65325 135.230615 
L 241.471431 132.997624 
L 244.289613 130.764632 
L 247.107795 128.53164 
L 249.925977 126.298648 
L 252.744159 124.065656 
L 255.562341 121.832664 
L 258.380522 119.599672 
L 261.198704 117.36668 
L 264.016886 115.133689 
L 266.835068 112.900697 
L 269.65325 110.667705 
L 272.471431 108.434713 
L 275.289613 106.201721 
L 278.107795 103.968729 
L 280.925977 101.735737 
L 283.744159 99.502745 
L 286.562341 97.269753 
L 289.380522 95.036762 
L 292.198704 92.80377 
L 295.016886 90.570778 
L 297.835068 88.337786 
L 300.65325 86.104794 
L 303.471431 83.871802 
L 306.289613 81.63881 
L 309.107795 79.405818 
L 311.925977 77.172827 
L 314.744159 74.939835 
L 317.562341 72.706843 
L 320.380522 70.473851 
L 323.198704 68.240859 
L 326.016886 66.007867 
L 328.835068 63.774875 
L 331.65325 61.541883 
" style="fill:none;stroke:#8b0000;stroke-linecap:round;stroke-width:1.5;"/>
   </g>
   <g id="patch_3">
    <path d="M 52.65325 294.962625 
L 52.65325 23.162625 
" style="fill:none;stroke:#262626;stroke-linecap:square;stroke-linejoin:miter;stroke-width:1.25;"/>
   </g>
   <g id="patch_4">
    <path d="M 331.65325 294.962625 
L 331.65325 23.162625 
" style="fill:none;stroke:#262626;stroke-linecap:square;stroke-linejoin:miter;stroke-width:1.25;"/>
   </g>
   <g id="patch_5">
    <path d="M 52.65325 294.962625 
L 331.65325 294.962625 
" style="fill:none;stroke:#262626;stroke-linecap:square;stroke-linejoin:miter;stroke-width:1.25;"/>
   </g>
   <g id="patch_6">
    <path d="M 52.65325 23.162625 
L 331.65325 23.162625 
" style="fill:none;stroke:#262626;stroke-linecap:square;stroke-linejoin:miter;stroke-width:1.25;"/>
   </g>
   <g id="text_8">
    <!-- Effect of Lanczos Degree on Elapsed Time -->
    <g style="fill:#262626;" transform="translate(61.948973 17.162625)scale(0.144 -0.144)">
     <defs>
      <path d="M 2554 2560 
L 3283 2560 
L 3283 2725 
L 2541 2725 
L 2541 3494 
C 2541 4022 2810 4352 3085 4352 
C 3168 4352 3264 4327 3328 4282 
C 3277 4269 3142 4225 3142 4067 
C 3142 3901 3270 3850 3360 3850 
C 3450 3850 3578 3901 3578 4067 
C 3578 4308 3347 4454 3091 4454 
C 2842 4454 2637 4333 2477 4181 
C 2330 4390 2086 4454 1837 4454 
C 1338 4454 634 4168 634 3469 
L 634 2725 
L 122 2725 
L 122 2560 
L 634 2560 
L 634 427 
C 634 184 608 153 198 153 
L 198 -13 
C 352 0 634 0 794 0 
C 960 0 1242 0 1395 -13 
L 1395 153 
C 986 153 960 178 960 427 
L 960 2560 
L 2227 2560 
L 2227 427 
C 2227 184 2202 153 1792 153 
L 1792 -13 
C 1946 0 2240 0 2406 0 
C 2592 0 2918 0 3091 -13 
L 3091 153 
C 2630 153 2554 153 2554 439 
L 2554 2560 
z
M 947 2725 
L 947 3469 
C 947 4047 1395 4352 1824 4352 
C 1920 4352 2170 4332 2323 4187 
C 2208 4187 2099 4136 2099 3977 
C 2099 3812 2246 3767 2259 3767 
C 2227 3652 2227 3526 2227 3481 
L 2227 2725 
L 947 2725 
z
" id="CMR17-b" transform="scale(0.015625)"/>
      <path d="M 979 2560 
L 1709 2560 
L 1709 2725 
L 966 2725 
L 966 3494 
C 966 4022 1235 4352 1510 4352 
C 1594 4352 1690 4327 1754 4282 
C 1702 4269 1568 4225 1568 4067 
C 1568 3901 1696 3850 1786 3850 
C 1875 3850 2003 3901 2003 4067 
C 2003 4308 1773 4454 1517 4454 
C 1152 4454 653 4156 653 3481 
L 653 2725 
L 141 2725 
L 141 2560 
L 653 2560 
L 653 427 
C 653 184 627 153 218 153 
L 218 -13 
C 371 0 666 0 832 0 
C 1018 0 1344 0 1517 -13 
L 1517 153 
C 1056 153 979 153 979 439 
L 979 2560 
z
" id="CMR17-66" transform="scale(0.015625)"/>
      <path d="M 333 4352 
L 333 4186 
C 774 4186 845 4186 845 3900 
L 845 452 
C 845 166 774 166 333 166 
L 333 0 
L 2368 0 
C 3398 0 4224 943 4224 2141 
C 4224 3346 3411 4352 2368 4352 
L 333 4352 
z
M 1523 166 
C 1267 166 1254 197 1254 414 
L 1254 3938 
C 1254 4155 1267 4186 1523 4186 
L 2240 4186 
C 2771 4186 3750 3874 3750 2141 
C 3750 1242 3488 879 3366 707 
C 3213 510 2848 166 2240 166 
L 1523 166 
z
" id="CMR17-44" transform="scale(0.015625)"/>
      <path d="M 3981 4326 
L 288 4326 
L 179 2918 
L 294 2918 
C 378 3976 467 4160 1453 4160 
C 1568 4160 1754 4160 1805 4154 
C 1926 4135 1926 4058 1926 3912 
L 1926 459 
C 1926 230 1907 160 1376 160 
L 1197 160 
L 1197 0 
C 1504 0 1824 0 2138 0 
C 2451 0 2771 0 3078 0 
L 3078 160 
L 2899 160 
C 2368 160 2349 230 2349 459 
L 2349 3912 
C 2349 4052 2349 4129 2464 4154 
C 2515 4160 2701 4160 2816 4160 
C 3795 4160 3891 3976 3974 2918 
L 4090 2918 
L 3981 4326 
z
" id="CMR17-54" transform="scale(0.015625)"/>
     </defs>
     <use transform="scale(0.996264)" xlink:href="#CMR17-45"/>
     <use transform="translate(62.586301 0)scale(0.996264)" xlink:href="#CMR17-b"/>
     <use transform="translate(114.930978 0)scale(0.996264)" xlink:href="#CMR17-65"/>
     <use transform="translate(155.416638 0)scale(0.996264)" xlink:href="#CMR17-63"/>
     <use transform="translate(195.902299 0)scale(0.996264)" xlink:href="#CMR17-74"/>
     <use transform="translate(261.259033 0)scale(0.996264)" xlink:href="#CMR17-6f"/>
     <use transform="translate(306.94951 0)scale(0.996264)" xlink:href="#CMR17-66"/>
     <use transform="translate(364.498989 0)scale(0.996264)" xlink:href="#CMR17-4c"/>
     <use transform="translate(421.880397 0)scale(0.996264)" xlink:href="#CMR17-61"/>
     <use transform="translate(467.570874 0)scale(0.996264)" xlink:href="#CMR17-6e"/>
     <use transform="translate(518.466244 0)scale(0.996264)" xlink:href="#CMR17-63"/>
     <use transform="translate(558.951904 0)scale(0.996264)" xlink:href="#CMR17-7a"/>
     <use transform="translate(599.437564 0)scale(0.996264)" xlink:href="#CMR17-6f"/>
     <use transform="translate(645.128042 0)scale(0.996264)" xlink:href="#CMR17-73"/>
     <use transform="translate(711.005346 0)scale(0.996264)" xlink:href="#CMR17-44"/>
     <use transform="translate(781.398901 0)scale(0.996264)" xlink:href="#CMR17-65"/>
     <use transform="translate(821.884562 0)scale(0.996264)" xlink:href="#CMR17-67"/>
     <use transform="translate(867.575039 0)scale(0.996264)" xlink:href="#CMR17-72"/>
     <use transform="translate(902.855807 0)scale(0.996264)" xlink:href="#CMR17-65"/>
     <use transform="translate(943.341467 0)scale(0.996264)" xlink:href="#CMR17-65"/>
     <use transform="translate(1013.903094 0)scale(0.996264)" xlink:href="#CMR17-6f"/>
     <use transform="translate(1059.593571 0)scale(0.996264)" xlink:href="#CMR17-6e"/>
     <use transform="translate(1140.564907 0)scale(0.996264)" xlink:href="#CMR17-45"/>
     <use transform="translate(1203.151208 0)scale(0.996264)" xlink:href="#CMR17-6c"/>
     <use transform="translate(1228.022266 0)scale(0.996264)" xlink:href="#CMR17-61"/>
     <use transform="translate(1273.712743 0)scale(0.996264)" xlink:href="#CMR17-70"/>
     <use transform="translate(1324.608113 0)scale(0.996264)" xlink:href="#CMR17-73"/>
     <use transform="translate(1360.409451 0)scale(0.996264)" xlink:href="#CMR17-65"/>
     <use transform="translate(1400.895111 0)scale(0.996264)" xlink:href="#CMR17-64"/>
     <use transform="translate(1481.866447 0)scale(0.996264)" xlink:href="#CMR17-54"/>
     <use transform="translate(1548.376328 0)scale(0.996264)" xlink:href="#CMR17-69"/>
     <use transform="translate(1573.247387 0)scale(0.996264)" xlink:href="#CMR17-6d"/>
     <use transform="translate(1650.166976 0)scale(0.996264)" xlink:href="#CMR17-65"/>
    </g>
   </g>
   <g id="legend_1">
    <g id="patch_7">
     <path d="M 61.04989 99.630479 
L 199.386325 99.630479 
Q 201.785365 99.630479 201.785365 97.231439 
L 201.785365 31.559265 
Q 201.785365 29.160225 199.386325 29.160225 
L 61.04989 29.160225 
Q 58.65085 29.160225 58.65085 31.559265 
L 58.65085 97.231439 
Q 58.65085 99.630479 61.04989 99.630479 
z
" style="fill:#ffffff;opacity:0.8;stroke:#cccccc;stroke-linejoin:miter;"/>
    </g>
    <g id="line2d_46"/>
    <g id="line2d_47">
     <g>
      <use style="fill:#cd853f;stroke:#cd853f;" x="75.44413" xlink:href="#mc172bc92ed" y="38.156625"/>
     </g>
    </g>
    <g id="text_9">
     <!-- Orthogonalized -->
     <g style="fill:#262626;" transform="translate(97.03549 42.354945)scale(0.119952 -0.119952)">
      <defs>
       <path d="M 4307 2135 
C 4307 3437 3366 4416 2304 4416 
C 1216 4416 294 3424 294 2135 
C 294 845 1229 -128 2298 -128 
C 3392 -128 4307 864 4307 2135 
z
M 2304 -13 
C 1574 -13 781 711 781 2217 
C 781 3716 1651 4301 2298 4301 
C 2976 4301 3821 3698 3821 2217 
C 3821 686 3008 -13 2304 -13 
z
" id="CMR17-4f" transform="scale(0.015625)"/>
       <path d="M 2656 1933 
C 2656 2259 2592 2790 1837 2790 
C 1312 2790 1056 2368 979 2157 
L 973 2157 
L 973 4396 
L 211 4326 
L 211 4160 
C 589 4160 646 4122 646 3817 
L 646 426 
C 646 184 621 153 211 153 
L 211 -13 
C 365 0 646 0 813 0 
C 979 0 1267 0 1421 -13 
L 1421 153 
C 1011 153 986 178 986 428 
L 986 1658 
C 986 2247 1344 2688 1792 2688 
C 2266 2688 2317 2266 2317 1958 
L 2317 428 
C 2317 184 2291 153 1882 153 
L 1882 -13 
C 2035 0 2317 0 2483 0 
C 2650 0 2938 0 3091 -13 
L 3091 153 
C 2682 153 2656 178 2656 428 
L 2656 1933 
z
" id="CMR17-68" transform="scale(0.015625)"/>
      </defs>
      <use transform="scale(0.996264)" xlink:href="#CMR17-4f"/>
      <use transform="translate(71.714788 0)scale(0.996264)" xlink:href="#CMR17-72"/>
      <use transform="translate(106.995556 0)scale(0.996264)" xlink:href="#CMR17-74"/>
      <use transform="translate(142.276324 0)scale(0.996264)" xlink:href="#CMR17-68"/>
      <use transform="translate(193.171694 0)scale(0.996264)" xlink:href="#CMR17-6f"/>
      <use transform="translate(238.862171 0)scale(0.996264)" xlink:href="#CMR17-67"/>
      <use transform="translate(284.552648 0)scale(0.996264)" xlink:href="#CMR17-6f"/>
      <use transform="translate(330.243125 0)scale(0.996264)" xlink:href="#CMR17-6e"/>
      <use transform="translate(381.138495 0)scale(0.996264)" xlink:href="#CMR17-61"/>
      <use transform="translate(426.828972 0)scale(0.996264)" xlink:href="#CMR17-6c"/>
      <use transform="translate(451.700031 0)scale(0.996264)" xlink:href="#CMR17-69"/>
      <use transform="translate(476.571089 0)scale(0.996264)" xlink:href="#CMR17-7a"/>
      <use transform="translate(517.056749 0)scale(0.996264)" xlink:href="#CMR17-65"/>
      <use transform="translate(557.54241 0)scale(0.996264)" xlink:href="#CMR17-64"/>
     </g>
    </g>
    <g id="line2d_48"/>
    <g id="line2d_49">
     <g>
      <use style="fill:#8b0000;stroke:#8b0000;stroke-linejoin:miter;" x="75.44413" xlink:href="#mb6af0ea269" y="54.874549"/>
     </g>
    </g>
    <g id="text_10">
     <!-- Not orthogonalized -->
     <g style="fill:#262626;" transform="translate(97.03549 59.072869)scale(0.119952 -0.119952)">
      <defs>
       <path d="M 1312 4250 
C 1267 4320 1261 4320 1139 4320 
L 326 4320 
L 326 4160 
L 448 4160 
C 704 4160 819 4129 838 4122 
L 838 610 
C 838 451 838 153 326 153 
L 326 -13 
C 474 0 742 0 902 0 
C 1062 0 1331 0 1478 -13 
L 1478 153 
C 966 153 966 451 966 610 
L 966 4033 
C 1011 3995 1011 3982 1056 3919 
L 3430 76 
C 3475 0 3494 0 3526 0 
C 3590 0 3590 19 3590 139 
L 3590 3705 
C 3590 3863 3590 4160 4102 4160 
L 4102 4326 
C 3955 4320 3686 4320 3526 4320 
C 3366 4320 3098 4320 2950 4326 
L 2950 4160 
C 3462 4160 3462 3862 3462 3703 
L 3462 763 
L 1312 4250 
z
" id="CMR17-4e" transform="scale(0.015625)"/>
      </defs>
      <use transform="scale(0.996264)" xlink:href="#CMR17-4e"/>
      <use transform="translate(69.07243 0)scale(0.996264)" xlink:href="#CMR17-6f"/>
      <use transform="translate(114.762907 0)scale(0.996264)" xlink:href="#CMR17-74"/>
      <use transform="translate(180.119641 0)scale(0.996264)" xlink:href="#CMR17-6f"/>
      <use transform="translate(225.810118 0)scale(0.996264)" xlink:href="#CMR17-72"/>
      <use transform="translate(261.090886 0)scale(0.996264)" xlink:href="#CMR17-74"/>
      <use transform="translate(296.371654 0)scale(0.996264)" xlink:href="#CMR17-68"/>
      <use transform="translate(347.267024 0)scale(0.996264)" xlink:href="#CMR17-6f"/>
      <use transform="translate(392.957501 0)scale(0.996264)" xlink:href="#CMR17-67"/>
      <use transform="translate(438.647978 0)scale(0.996264)" xlink:href="#CMR17-6f"/>
      <use transform="translate(484.338455 0)scale(0.996264)" xlink:href="#CMR17-6e"/>
      <use transform="translate(535.233825 0)scale(0.996264)" xlink:href="#CMR17-61"/>
      <use transform="translate(580.924302 0)scale(0.996264)" xlink:href="#CMR17-6c"/>
      <use transform="translate(605.79536 0)scale(0.996264)" xlink:href="#CMR17-69"/>
      <use transform="translate(630.666419 0)scale(0.996264)" xlink:href="#CMR17-7a"/>
      <use transform="translate(671.152079 0)scale(0.996264)" xlink:href="#CMR17-65"/>
      <use transform="translate(711.63774 0)scale(0.996264)" xlink:href="#CMR17-64"/>
     </g>
    </g>
    <g id="line2d_50">
     <path d="M 63.44893 71.592472 
L 87.43933 71.592472 
" style="fill:none;stroke:#cd853f;stroke-linecap:round;stroke-width:1.5;"/>
    </g>
    <g id="line2d_51"/>
    <g id="text_11">
     <!-- Orthogonalized -->
     <g style="fill:#262626;" transform="translate(97.03549 75.790792)scale(0.119952 -0.119952)">
      <use transform="scale(0.996264)" xlink:href="#CMR17-4f"/>
      <use transform="translate(71.714788 0)scale(0.996264)" xlink:href="#CMR17-72"/>
      <use transform="translate(106.995556 0)scale(0.996264)" xlink:href="#CMR17-74"/>
      <use transform="translate(142.276324 0)scale(0.996264)" xlink:href="#CMR17-68"/>
      <use transform="translate(193.171694 0)scale(0.996264)" xlink:href="#CMR17-6f"/>
      <use transform="translate(238.862171 0)scale(0.996264)" xlink:href="#CMR17-67"/>
      <use transform="translate(284.552648 0)scale(0.996264)" xlink:href="#CMR17-6f"/>
      <use transform="translate(330.243125 0)scale(0.996264)" xlink:href="#CMR17-6e"/>
      <use transform="translate(381.138495 0)scale(0.996264)" xlink:href="#CMR17-61"/>
      <use transform="translate(426.828972 0)scale(0.996264)" xlink:href="#CMR17-6c"/>
      <use transform="translate(451.700031 0)scale(0.996264)" xlink:href="#CMR17-69"/>
      <use transform="translate(476.571089 0)scale(0.996264)" xlink:href="#CMR17-7a"/>
      <use transform="translate(517.056749 0)scale(0.996264)" xlink:href="#CMR17-65"/>
      <use transform="translate(557.54241 0)scale(0.996264)" xlink:href="#CMR17-64"/>
     </g>
    </g>
    <g id="line2d_52">
     <path d="M 63.44893 88.310396 
L 87.43933 88.310396 
" style="fill:none;stroke:#8b0000;stroke-linecap:round;stroke-width:1.5;"/>
    </g>
    <g id="line2d_53"/>
    <g id="text_12">
     <!-- Not orthogonalized -->
     <g style="fill:#262626;" transform="translate(97.03549 92.508716)scale(0.119952 -0.119952)">
      <use transform="scale(0.996264)" xlink:href="#CMR17-4e"/>
      <use transform="translate(69.07243 0)scale(0.996264)" xlink:href="#CMR17-6f"/>
      <use transform="translate(114.762907 0)scale(0.996264)" xlink:href="#CMR17-74"/>
      <use transform="translate(180.119641 0)scale(0.996264)" xlink:href="#CMR17-6f"/>
      <use transform="translate(225.810118 0)scale(0.996264)" xlink:href="#CMR17-72"/>
      <use transform="translate(261.090886 0)scale(0.996264)" xlink:href="#CMR17-74"/>
      <use transform="translate(296.371654 0)scale(0.996264)" xlink:href="#CMR17-68"/>
      <use transform="translate(347.267024 0)scale(0.996264)" xlink:href="#CMR17-6f"/>
      <use transform="translate(392.957501 0)scale(0.996264)" xlink:href="#CMR17-67"/>
      <use transform="translate(438.647978 0)scale(0.996264)" xlink:href="#CMR17-6f"/>
      <use transform="translate(484.338455 0)scale(0.996264)" xlink:href="#CMR17-6e"/>
      <use transform="translate(535.233825 0)scale(0.996264)" xlink:href="#CMR17-61"/>
      <use transform="translate(580.924302 0)scale(0.996264)" xlink:href="#CMR17-6c"/>
      <use transform="translate(605.79536 0)scale(0.996264)" xlink:href="#CMR17-69"/>
      <use transform="translate(630.666419 0)scale(0.996264)" xlink:href="#CMR17-7a"/>
      <use transform="translate(671.152079 0)scale(0.996264)" xlink:href="#CMR17-65"/>
      <use transform="translate(711.63774 0)scale(0.996264)" xlink:href="#CMR17-64"/>
     </g>
    </g>
   </g>
  </g>
  <g id="axes_2">
   <g id="patch_8">
    <path d="M 387.45325 294.962625 
L 666.45325 294.962625 
L 666.45325 23.162625 
L 387.45325 23.162625 
z
" style="fill:none;"/>
   </g>
   <g id="matplotlib.axis_3">
    <g id="xtick_20">
     <g id="line2d_54">
      <g>
       <use style="fill:#262626;stroke:#262626;stroke-width:1.25;" x="387.45325" xlink:href="#m3d672ded5a" y="294.962625"/>
      </g>
     </g>
     <g id="text_13">
      <!-- $\mathdefault{10^{1}}$ -->
      <g style="fill:#262626;" transform="translate(378.649715 313.59502)scale(0.132 -0.132)">
       <use transform="scale(0.996264)" xlink:href="#CMR17-31"/>
       <use transform="translate(45.690477 0)scale(0.996264)" xlink:href="#CMR17-30"/>
       <use transform="translate(91.380954 36.153639)scale(0.697382)" xlink:href="#CMR17-31"/>
      </g>
     </g>
    </g>
    <g id="xtick_21">
     <g id="line2d_55">
      <g>
       <use style="fill:#262626;stroke:#262626;stroke-width:1.25;" x="526.95325" xlink:href="#m3d672ded5a" y="294.962625"/>
      </g>
     </g>
     <g id="text_14">
      <!-- $\mathdefault{10^{2}}$ -->
      <g style="fill:#262626;" transform="translate(518.149715 313.59502)scale(0.132 -0.132)">
       <use transform="scale(0.996264)" xlink:href="#CMR17-31"/>
       <use transform="translate(45.690477 0)scale(0.996264)" xlink:href="#CMR17-30"/>
       <use transform="translate(91.380954 36.153639)scale(0.697382)" xlink:href="#CMR17-32"/>
      </g>
     </g>
    </g>
    <g id="xtick_22">
     <g id="line2d_56">
      <g>
       <use style="fill:#262626;stroke:#262626;stroke-width:1.25;" x="666.45325" xlink:href="#m3d672ded5a" y="294.962625"/>
      </g>
     </g>
     <g id="text_15">
      <!-- $\mathdefault{10^{3}}$ -->
      <g style="fill:#262626;" transform="translate(657.649715 313.59502)scale(0.132 -0.132)">
       <use transform="scale(0.996264)" xlink:href="#CMR17-31"/>
       <use transform="translate(45.690477 0)scale(0.996264)" xlink:href="#CMR17-30"/>
       <use transform="translate(91.380954 36.153639)scale(0.697382)" xlink:href="#CMR17-33"/>
      </g>
     </g>
    </g>
    <g id="xtick_23">
     <g id="line2d_57">
      <g>
       <use style="fill:#262626;stroke:#262626;" x="429.446934" xlink:href="#m92897c6222" y="294.962625"/>
      </g>
     </g>
    </g>
    <g id="xtick_24">
     <g id="line2d_58">
      <g>
       <use style="fill:#262626;stroke:#262626;" x="454.011665" xlink:href="#m92897c6222" y="294.962625"/>
      </g>
     </g>
    </g>
    <g id="xtick_25">
     <g id="line2d_59">
      <g>
       <use style="fill:#262626;stroke:#262626;" x="471.440618" xlink:href="#m92897c6222" y="294.962625"/>
      </g>
     </g>
    </g>
    <g id="xtick_26">
     <g id="line2d_60">
      <g>
       <use style="fill:#262626;stroke:#262626;" x="484.959565" xlink:href="#m92897c6222" y="294.962625"/>
      </g>
     </g>
    </g>
    <g id="xtick_27">
     <g id="line2d_61">
      <g>
       <use style="fill:#262626;stroke:#262626;" x="496.005349" xlink:href="#m92897c6222" y="294.962625"/>
      </g>
     </g>
    </g>
    <g id="xtick_28">
     <g id="line2d_62">
      <g>
       <use style="fill:#262626;stroke:#262626;" x="505.344426" xlink:href="#m92897c6222" y="294.962625"/>
      </g>
     </g>
    </g>
    <g id="xtick_29">
     <g id="line2d_63">
      <g>
       <use style="fill:#262626;stroke:#262626;" x="513.434303" xlink:href="#m92897c6222" y="294.962625"/>
      </g>
     </g>
    </g>
    <g id="xtick_30">
     <g id="line2d_64">
      <g>
       <use style="fill:#262626;stroke:#262626;" x="520.57008" xlink:href="#m92897c6222" y="294.962625"/>
      </g>
     </g>
    </g>
    <g id="xtick_31">
     <g id="line2d_65">
      <g>
       <use style="fill:#262626;stroke:#262626;" x="568.946934" xlink:href="#m92897c6222" y="294.962625"/>
      </g>
     </g>
    </g>
    <g id="xtick_32">
     <g id="line2d_66">
      <g>
       <use style="fill:#262626;stroke:#262626;" x="593.511665" xlink:href="#m92897c6222" y="294.962625"/>
      </g>
     </g>
    </g>
    <g id="xtick_33">
     <g id="line2d_67">
      <g>
       <use style="fill:#262626;stroke:#262626;" x="610.940618" xlink:href="#m92897c6222" y="294.962625"/>
      </g>
     </g>
    </g>
    <g id="xtick_34">
     <g id="line2d_68">
      <g>
       <use style="fill:#262626;stroke:#262626;" x="624.459565" xlink:href="#m92897c6222" y="294.962625"/>
      </g>
     </g>
    </g>
    <g id="xtick_35">
     <g id="line2d_69">
      <g>
       <use style="fill:#262626;stroke:#262626;" x="635.505349" xlink:href="#m92897c6222" y="294.962625"/>
      </g>
     </g>
    </g>
    <g id="xtick_36">
     <g id="line2d_70">
      <g>
       <use style="fill:#262626;stroke:#262626;" x="644.844426" xlink:href="#m92897c6222" y="294.962625"/>
      </g>
     </g>
    </g>
    <g id="xtick_37">
     <g id="line2d_71">
      <g>
       <use style="fill:#262626;stroke:#262626;" x="652.934303" xlink:href="#m92897c6222" y="294.962625"/>
      </g>
     </g>
    </g>
    <g id="xtick_38">
     <g id="line2d_72">
      <g>
       <use style="fill:#262626;stroke:#262626;" x="660.07008" xlink:href="#m92897c6222" y="294.962625"/>
      </g>
     </g>
    </g>
    <g id="text_16">
     <!-- Lanczos degree -->
     <g style="fill:#262626;" transform="translate(480.774499 330.114706)scale(0.144 -0.144)">
      <use transform="scale(0.996264)" xlink:href="#CMR17-4c"/>
      <use transform="translate(57.381408 0)scale(0.996264)" xlink:href="#CMR17-61"/>
      <use transform="translate(103.071885 0)scale(0.996264)" xlink:href="#CMR17-6e"/>
      <use transform="translate(153.967255 0)scale(0.996264)" xlink:href="#CMR17-63"/>
      <use transform="translate(194.452915 0)scale(0.996264)" xlink:href="#CMR17-7a"/>
      <use transform="translate(234.938576 0)scale(0.996264)" xlink:href="#CMR17-6f"/>
      <use transform="translate(280.629053 0)scale(0.996264)" xlink:href="#CMR17-73"/>
      <use transform="translate(346.506357 0)scale(0.996264)" xlink:href="#CMR17-64"/>
      <use transform="translate(397.401727 0)scale(0.996264)" xlink:href="#CMR17-65"/>
      <use transform="translate(437.887387 0)scale(0.996264)" xlink:href="#CMR17-67"/>
      <use transform="translate(483.577864 0)scale(0.996264)" xlink:href="#CMR17-72"/>
      <use transform="translate(518.858632 0)scale(0.996264)" xlink:href="#CMR17-65"/>
      <use transform="translate(559.344292 0)scale(0.996264)" xlink:href="#CMR17-65"/>
     </g>
    </g>
   </g>
   <g id="matplotlib.axis_4">
    <g id="ytick_21">
     <g id="line2d_73">
      <path clip-path="url(#p63fa0898b2)" d="M 387.45325 235.254744 
L 666.45325 235.254744 
" style="fill:none;stroke:#cccccc;stroke-linecap:round;"/>
     </g>
     <g id="line2d_74">
      <g>
       <use style="fill:#262626;stroke:#262626;stroke-width:1.25;" x="387.45325" xlink:href="#m400523ffa6" y="235.254744"/>
      </g>
     </g>
     <g id="text_17">
      <!-- $\mathdefault{10^{2}}$ -->
      <g style="fill:#262626;" transform="translate(360.34618 239.820941)scale(0.132 -0.132)">
       <use transform="scale(0.996264)" xlink:href="#CMR17-31"/>
       <use transform="translate(45.690477 0)scale(0.996264)" xlink:href="#CMR17-30"/>
       <use transform="translate(91.380954 36.153639)scale(0.697382)" xlink:href="#CMR17-32"/>
      </g>
     </g>
    </g>
    <g id="ytick_22">
     <g id="line2d_75">
      <path clip-path="url(#p63fa0898b2)" d="M 387.45325 131.015004 
L 666.45325 131.015004 
" style="fill:none;stroke:#cccccc;stroke-linecap:round;"/>
     </g>
     <g id="line2d_76">
      <g>
       <use style="fill:#262626;stroke:#262626;stroke-width:1.25;" x="387.45325" xlink:href="#m400523ffa6" y="131.015004"/>
      </g>
     </g>
     <g id="text_18">
      <!-- $\mathdefault{10^{3}}$ -->
      <g style="fill:#262626;" transform="translate(360.34618 135.581202)scale(0.132 -0.132)">
       <use transform="scale(0.996264)" xlink:href="#CMR17-31"/>
       <use transform="translate(45.690477 0)scale(0.996264)" xlink:href="#CMR17-30"/>
       <use transform="translate(91.380954 36.153639)scale(0.697382)" xlink:href="#CMR17-33"/>
      </g>
     </g>
    </g>
    <g id="ytick_23">
     <g id="line2d_77">
      <path clip-path="url(#p63fa0898b2)" d="M 387.45325 26.775265 
L 666.45325 26.775265 
" style="fill:none;stroke:#cccccc;stroke-linecap:round;"/>
     </g>
     <g id="line2d_78">
      <g>
       <use style="fill:#262626;stroke:#262626;stroke-width:1.25;" x="387.45325" xlink:href="#m400523ffa6" y="26.775265"/>
      </g>
     </g>
     <g id="text_19">
      <!-- $\mathdefault{10^{4}}$ -->
      <g style="fill:#262626;" transform="translate(360.34618 31.341462)scale(0.132 -0.132)">
       <defs>
        <path d="M 2150 4122 
C 2150 4256 2144 4256 2029 4256 
L 128 1254 
L 128 1088 
L 1779 1088 
L 1779 457 
C 1779 224 1766 160 1318 160 
L 1197 160 
L 1197 0 
C 1402 0 1747 0 1965 0 
C 2182 0 2528 0 2733 0 
L 2733 160 
L 2611 160 
C 2163 160 2150 224 2150 457 
L 2150 1088 
L 2803 1088 
L 2803 1254 
L 2150 1254 
L 2150 4122 
z
M 1798 3703 
L 1798 1254 
L 256 1254 
L 1798 3703 
z
" id="CMR17-34" transform="scale(0.015625)"/>
       </defs>
       <use transform="scale(0.996264)" xlink:href="#CMR17-31"/>
       <use transform="translate(45.690477 0)scale(0.996264)" xlink:href="#CMR17-30"/>
       <use transform="translate(91.380954 36.153639)scale(0.697382)" xlink:href="#CMR17-34"/>
      </g>
     </g>
    </g>
    <g id="ytick_24">
     <g id="line2d_79">
      <g>
       <use style="fill:#262626;stroke:#262626;" x="387.45325" xlink:href="#md99aa57e46" y="289.759488"/>
      </g>
     </g>
    </g>
    <g id="ytick_25">
     <g id="line2d_80">
      <g>
       <use style="fill:#262626;stroke:#262626;" x="387.45325" xlink:href="#md99aa57e46" y="276.735907"/>
      </g>
     </g>
    </g>
    <g id="ytick_26">
     <g id="line2d_81">
      <g>
       <use style="fill:#262626;stroke:#262626;" x="387.45325" xlink:href="#md99aa57e46" y="266.634032"/>
      </g>
     </g>
    </g>
    <g id="ytick_27">
     <g id="line2d_82">
      <g>
       <use style="fill:#262626;stroke:#262626;" x="387.45325" xlink:href="#md99aa57e46" y="258.3802"/>
      </g>
     </g>
    </g>
    <g id="ytick_28">
     <g id="line2d_83">
      <g>
       <use style="fill:#262626;stroke:#262626;" x="387.45325" xlink:href="#md99aa57e46" y="251.401684"/>
      </g>
     </g>
    </g>
    <g id="ytick_29">
     <g id="line2d_84">
      <g>
       <use style="fill:#262626;stroke:#262626;" x="387.45325" xlink:href="#md99aa57e46" y="245.356618"/>
      </g>
     </g>
    </g>
    <g id="ytick_30">
     <g id="line2d_85">
      <g>
       <use style="fill:#262626;stroke:#262626;" x="387.45325" xlink:href="#md99aa57e46" y="240.024493"/>
      </g>
     </g>
    </g>
    <g id="ytick_31">
     <g id="line2d_86">
      <g>
       <use style="fill:#262626;stroke:#262626;" x="387.45325" xlink:href="#md99aa57e46" y="203.875456"/>
      </g>
     </g>
    </g>
    <g id="ytick_32">
     <g id="line2d_87">
      <g>
       <use style="fill:#262626;stroke:#262626;" x="387.45325" xlink:href="#md99aa57e46" y="185.519749"/>
      </g>
     </g>
    </g>
    <g id="ytick_33">
     <g id="line2d_88">
      <g>
       <use style="fill:#262626;stroke:#262626;" x="387.45325" xlink:href="#md99aa57e46" y="172.496167"/>
      </g>
     </g>
    </g>
    <g id="ytick_34">
     <g id="line2d_89">
      <g>
       <use style="fill:#262626;stroke:#262626;" x="387.45325" xlink:href="#md99aa57e46" y="162.394293"/>
      </g>
     </g>
    </g>
    <g id="ytick_35">
     <g id="line2d_90">
      <g>
       <use style="fill:#262626;stroke:#262626;" x="387.45325" xlink:href="#md99aa57e46" y="154.14046"/>
      </g>
     </g>
    </g>
    <g id="ytick_36">
     <g id="line2d_91">
      <g>
       <use style="fill:#262626;stroke:#262626;" x="387.45325" xlink:href="#md99aa57e46" y="147.161944"/>
      </g>
     </g>
    </g>
    <g id="ytick_37">
     <g id="line2d_92">
      <g>
       <use style="fill:#262626;stroke:#262626;" x="387.45325" xlink:href="#md99aa57e46" y="141.116879"/>
      </g>
     </g>
    </g>
    <g id="ytick_38">
     <g id="line2d_93">
      <g>
       <use style="fill:#262626;stroke:#262626;" x="387.45325" xlink:href="#md99aa57e46" y="135.784753"/>
      </g>
     </g>
    </g>
    <g id="ytick_39">
     <g id="line2d_94">
      <g>
       <use style="fill:#262626;stroke:#262626;" x="387.45325" xlink:href="#md99aa57e46" y="99.635716"/>
      </g>
     </g>
    </g>
    <g id="ytick_40">
     <g id="line2d_95">
      <g>
       <use style="fill:#262626;stroke:#262626;" x="387.45325" xlink:href="#md99aa57e46" y="81.280009"/>
      </g>
     </g>
    </g>
    <g id="ytick_41">
     <g id="line2d_96">
      <g>
       <use style="fill:#262626;stroke:#262626;" x="387.45325" xlink:href="#md99aa57e46" y="68.256428"/>
      </g>
     </g>
    </g>
    <g id="ytick_42">
     <g id="line2d_97">
      <g>
       <use style="fill:#262626;stroke:#262626;" x="387.45325" xlink:href="#md99aa57e46" y="58.154553"/>
      </g>
     </g>
    </g>
    <g id="ytick_43">
     <g id="line2d_98">
      <g>
       <use style="fill:#262626;stroke:#262626;" x="387.45325" xlink:href="#md99aa57e46" y="49.900721"/>
      </g>
     </g>
    </g>
    <g id="ytick_44">
     <g id="line2d_99">
      <g>
       <use style="fill:#262626;stroke:#262626;" x="387.45325" xlink:href="#md99aa57e46" y="42.922205"/>
      </g>
     </g>
    </g>
    <g id="ytick_45">
     <g id="line2d_100">
      <g>
       <use style="fill:#262626;stroke:#262626;" x="387.45325" xlink:href="#md99aa57e46" y="36.877139"/>
      </g>
     </g>
    </g>
    <g id="ytick_46">
     <g id="line2d_101">
      <g>
       <use style="fill:#262626;stroke:#262626;" x="387.45325" xlink:href="#md99aa57e46" y="31.545014"/>
      </g>
     </g>
    </g>
    <g id="text_20">
     <!-- Process time (sec) -->
     <g style="fill:#262626;" transform="translate(352.759639 214.879268)rotate(-90)scale(0.144 -0.144)">
      <defs>
       <path d="M 1267 2042 
L 2291 2042 
C 3117 2042 3718 2578 3718 3184 
C 3718 3791 3130 4352 2291 4352 
L 333 4352 
L 333 4186 
C 774 4186 845 4186 845 3899 
L 845 446 
C 845 160 774 160 333 160 
L 333 0 
C 518 0 858 0 1056 0 
C 1254 0 1594 0 1779 0 
L 1779 160 
C 1338 160 1267 160 1267 446 
L 1267 2042 
z
M 1254 2176 
L 1254 3938 
C 1254 4155 1267 4186 1523 4186 
L 2170 4186 
C 2995 4186 3232 3714 3232 3184 
C 3232 2604 2950 2176 2170 2176 
L 1254 2176 
z
" id="CMR17-50" transform="scale(0.015625)"/>
      </defs>
      <use transform="scale(0.996264)" xlink:href="#CMR17-50"/>
      <use transform="translate(62.586301 0)scale(0.996264)" xlink:href="#CMR17-72"/>
      <use transform="translate(97.867068 0)scale(0.996264)" xlink:href="#CMR17-6f"/>
      <use transform="translate(146.159984 0)scale(0.996264)" xlink:href="#CMR17-63"/>
      <use transform="translate(186.645645 0)scale(0.996264)" xlink:href="#CMR17-65"/>
      <use transform="translate(227.131305 0)scale(0.996264)" xlink:href="#CMR17-73"/>
      <use transform="translate(262.932643 0)scale(0.996264)" xlink:href="#CMR17-73"/>
      <use transform="translate(328.809947 0)scale(0.996264)" xlink:href="#CMR17-74"/>
      <use transform="translate(364.090715 0)scale(0.996264)" xlink:href="#CMR17-69"/>
      <use transform="translate(388.961773 0)scale(0.996264)" xlink:href="#CMR17-6d"/>
      <use transform="translate(465.881363 0)scale(0.996264)" xlink:href="#CMR17-65"/>
      <use transform="translate(536.44299 0)scale(0.996264)" xlink:href="#CMR17-28"/>
      <use transform="translate(571.723757 0)scale(0.996264)" xlink:href="#CMR17-73"/>
      <use transform="translate(607.525095 0)scale(0.996264)" xlink:href="#CMR17-65"/>
      <use transform="translate(648.010756 0)scale(0.996264)" xlink:href="#CMR17-63"/>
      <use transform="translate(688.496416 0)scale(0.996264)" xlink:href="#CMR17-29"/>
     </g>
    </g>
   </g>
   <g id="line2d_102">
    <g clip-path="url(#p63fa0898b2)">
     <use style="fill:#cd853f;stroke:#cd853f;" x="387.45325" xlink:href="#mc172bc92ed" y="279.577683"/>
     <use style="fill:#cd853f;stroke:#cd853f;" x="393.227529" xlink:href="#mc172bc92ed" y="275.324693"/>
     <use style="fill:#cd853f;stroke:#cd853f;" x="403.348347" xlink:href="#mc172bc92ed" y="267.688459"/>
     <use style="fill:#cd853f;stroke:#cd853f;" x="415.927987" xlink:href="#mc172bc92ed" y="258.686169"/>
     <use style="fill:#cd853f;stroke:#cd853f;" x="423.063764" xlink:href="#mc172bc92ed" y="253.441156"/>
     <use style="fill:#cd853f;stroke:#cd853f;" x="435.221214" xlink:href="#mc172bc92ed" y="244.308585"/>
     <use style="fill:#cd853f;stroke:#cd853f;" x="442.965881" xlink:href="#mc172bc92ed" y="238.241547"/>
     <use style="fill:#cd853f;stroke:#cd853f;" x="454.011665" xlink:href="#mc172bc92ed" y="229.903188"/>
     <use style="fill:#cd853f;stroke:#cd853f;" x="463.350742" xlink:href="#mc172bc92ed" y="223.049922"/>
     <use style="fill:#cd853f;stroke:#cd853f;" x="472.936598" xlink:href="#mc172bc92ed" y="215.625004"/>
     <use style="fill:#cd853f;stroke:#cd853f;" x="482.486402" xlink:href="#mc172bc92ed" y="208.573804"/>
     <use style="fill:#cd853f;stroke:#cd853f;" x="492.897792" xlink:href="#mc172bc92ed" y="200.727036"/>
     <use style="fill:#cd853f;stroke:#cd853f;" x="502.690685" xlink:href="#mc172bc92ed" y="192.799542"/>
     <use style="fill:#cd853f;stroke:#cd853f;" x="511.900447" xlink:href="#mc172bc92ed" y="185.948372"/>
     <use style="fill:#cd853f;stroke:#cd853f;" x="521.901652" xlink:href="#mc172bc92ed" y="178.203871"/>
     <use style="fill:#cd853f;stroke:#cd853f;" x="531.615864" xlink:href="#mc172bc92ed" y="171.401114"/>
     <use style="fill:#cd853f;stroke:#cd853f;" x="540.954941" xlink:href="#mc172bc92ed" y="164.05696"/>
     <use style="fill:#cd853f;stroke:#cd853f;" x="550.704759" xlink:href="#mc172bc92ed" y="156.410452"/>
     <use style="fill:#cd853f;stroke:#cd853f;" x="560.50987" xlink:href="#mc172bc92ed" y="148.292524"/>
     <use style="fill:#cd853f;stroke:#cd853f;" x="570.146658" xlink:href="#mc172bc92ed" y="141.39899"/>
     <use style="fill:#cd853f;stroke:#cd853f;" x="579.739757" xlink:href="#mc172bc92ed" y="133.784768"/>
     <use style="fill:#cd853f;stroke:#cd853f;" x="589.331795" xlink:href="#mc172bc92ed" y="126.91813"/>
     <use style="fill:#cd853f;stroke:#cd853f;" x="599.102077" xlink:href="#mc172bc92ed" y="118.519649"/>
     <use style="fill:#cd853f;stroke:#cd853f;" x="608.625021" xlink:href="#mc172bc92ed" y="109.794451"/>
     <use style="fill:#cd853f;stroke:#cd853f;" x="618.345061" xlink:href="#mc172bc92ed" y="101.970463"/>
     <use style="fill:#cd853f;stroke:#cd853f;" x="627.875316" xlink:href="#mc172bc92ed" y="93.502387"/>
     <use style="fill:#cd853f;stroke:#cd853f;" x="637.589528" xlink:href="#mc172bc92ed" y="84.321852"/>
     <use style="fill:#cd853f;stroke:#cd853f;" x="647.1373" xlink:href="#mc172bc92ed" y="74.439989"/>
     <use style="fill:#cd853f;stroke:#cd853f;" x="656.82064" xlink:href="#mc172bc92ed" y="65.26752"/>
     <use style="fill:#cd853f;stroke:#cd853f;" x="666.45325" xlink:href="#mc172bc92ed" y="53.822754"/>
    </g>
   </g>
   <g id="line2d_103">
    <g clip-path="url(#p63fa0898b2)">
     <use style="fill:#8b0000;stroke:#8b0000;stroke-linejoin:miter;" x="387.45325" xlink:href="#mb6af0ea269" y="269.108765"/>
     <use style="fill:#8b0000;stroke:#8b0000;stroke-linejoin:miter;" x="393.227529" xlink:href="#mb6af0ea269" y="264.559762"/>
     <use style="fill:#8b0000;stroke:#8b0000;stroke-linejoin:miter;" x="403.348347" xlink:href="#mb6af0ea269" y="257.722981"/>
     <use style="fill:#8b0000;stroke:#8b0000;stroke-linejoin:miter;" x="415.927987" xlink:href="#mb6af0ea269" y="247.692575"/>
     <use style="fill:#8b0000;stroke:#8b0000;stroke-linejoin:miter;" x="423.063764" xlink:href="#mb6af0ea269" y="242.349852"/>
     <use style="fill:#8b0000;stroke:#8b0000;stroke-linejoin:miter;" x="435.221214" xlink:href="#mb6af0ea269" y="232.45281"/>
     <use style="fill:#8b0000;stroke:#8b0000;stroke-linejoin:miter;" x="442.965881" xlink:href="#mb6af0ea269" y="225.81468"/>
     <use style="fill:#8b0000;stroke:#8b0000;stroke-linejoin:miter;" x="454.011665" xlink:href="#mb6af0ea269" y="218.719153"/>
     <use style="fill:#8b0000;stroke:#8b0000;stroke-linejoin:miter;" x="463.350742" xlink:href="#mb6af0ea269" y="211.34563"/>
     <use style="fill:#8b0000;stroke:#8b0000;stroke-linejoin:miter;" x="472.936598" xlink:href="#mb6af0ea269" y="206.405711"/>
     <use style="fill:#8b0000;stroke:#8b0000;stroke-linejoin:miter;" x="482.486402" xlink:href="#mb6af0ea269" y="196.503747"/>
     <use style="fill:#8b0000;stroke:#8b0000;stroke-linejoin:miter;" x="492.897792" xlink:href="#mb6af0ea269" y="188.190163"/>
     <use style="fill:#8b0000;stroke:#8b0000;stroke-linejoin:miter;" x="502.690685" xlink:href="#mb6af0ea269" y="180.406834"/>
     <use style="fill:#8b0000;stroke:#8b0000;stroke-linejoin:miter;" x="511.900447" xlink:href="#mb6af0ea269" y="173.615895"/>
     <use style="fill:#8b0000;stroke:#8b0000;stroke-linejoin:miter;" x="521.901652" xlink:href="#mb6af0ea269" y="167.028549"/>
     <use style="fill:#8b0000;stroke:#8b0000;stroke-linejoin:miter;" x="531.615864" xlink:href="#mb6af0ea269" y="159.465089"/>
     <use style="fill:#8b0000;stroke:#8b0000;stroke-linejoin:miter;" x="540.954941" xlink:href="#mb6af0ea269" y="151.433595"/>
     <use style="fill:#8b0000;stroke:#8b0000;stroke-linejoin:miter;" x="550.704759" xlink:href="#mb6af0ea269" y="146.128456"/>
     <use style="fill:#8b0000;stroke:#8b0000;stroke-linejoin:miter;" x="560.50987" xlink:href="#mb6af0ea269" y="138.618444"/>
     <use style="fill:#8b0000;stroke:#8b0000;stroke-linejoin:miter;" x="570.146658" xlink:href="#mb6af0ea269" y="129.818974"/>
     <use style="fill:#8b0000;stroke:#8b0000;stroke-linejoin:miter;" x="579.739757" xlink:href="#mb6af0ea269" y="123.596869"/>
     <use style="fill:#8b0000;stroke:#8b0000;stroke-linejoin:miter;" x="589.331795" xlink:href="#mb6af0ea269" y="116.558578"/>
     <use style="fill:#8b0000;stroke:#8b0000;stroke-linejoin:miter;" x="599.102077" xlink:href="#mb6af0ea269" y="108.976923"/>
     <use style="fill:#8b0000;stroke:#8b0000;stroke-linejoin:miter;" x="608.625021" xlink:href="#mb6af0ea269" y="101.394277"/>
     <use style="fill:#8b0000;stroke:#8b0000;stroke-linejoin:miter;" x="618.345061" xlink:href="#mb6af0ea269" y="93.697747"/>
     <use style="fill:#8b0000;stroke:#8b0000;stroke-linejoin:miter;" x="627.875316" xlink:href="#mb6af0ea269" y="86.552891"/>
     <use style="fill:#8b0000;stroke:#8b0000;stroke-linejoin:miter;" x="637.589528" xlink:href="#mb6af0ea269" y="76.499714"/>
     <use style="fill:#8b0000;stroke:#8b0000;stroke-linejoin:miter;" x="647.1373" xlink:href="#mb6af0ea269" y="62.315392"/>
     <use style="fill:#8b0000;stroke:#8b0000;stroke-linejoin:miter;" x="656.82064" xlink:href="#mb6af0ea269" y="49.390314"/>
     <use style="fill:#8b0000;stroke:#8b0000;stroke-linejoin:miter;" x="666.45325" xlink:href="#mb6af0ea269" y="35.51717"/>
    </g>
   </g>
   <g id="line2d_104">
    <path clip-path="url(#p63fa0898b2)" d="M 387.45325 282.608079 
L 390.271431 280.387063 
L 393.089613 278.166046 
L 395.907795 275.94503 
L 398.725977 273.724013 
L 401.544159 271.502996 
L 404.362341 269.28198 
L 407.180522 267.060963 
L 409.998704 264.839947 
L 412.816886 262.61893 
L 415.635068 260.397913 
L 418.45325 258.176897 
L 421.271431 255.95588 
L 424.089613 253.734864 
L 426.907795 251.513847 
L 429.725977 249.29283 
L 432.544159 247.071814 
L 435.362341 244.850797 
L 438.180522 242.629781 
L 440.998704 240.408764 
L 443.816886 238.187747 
L 446.635068 235.966731 
L 449.45325 233.745714 
L 452.271431 231.524698 
L 455.089613 229.303681 
L 457.907795 227.082664 
L 460.725977 224.861648 
L 463.544159 222.640631 
L 466.362341 220.419615 
L 469.180522 218.198598 
L 471.998704 215.977582 
L 474.816886 213.756565 
L 477.635068 211.535548 
L 480.45325 209.314532 
L 483.271431 207.093515 
L 486.089613 204.872499 
L 488.907795 202.651482 
L 491.725977 200.430465 
L 494.544159 198.209449 
L 497.362341 195.988432 
L 500.180522 193.767416 
L 502.998704 191.546399 
L 505.816886 189.325382 
L 508.635068 187.104366 
L 511.45325 184.883349 
L 514.271431 182.662333 
L 517.089613 180.441316 
L 519.907795 178.220299 
L 522.725977 175.999283 
L 525.544159 173.778266 
L 528.362341 171.55725 
L 531.180522 169.336233 
L 533.998704 167.115216 
L 536.816886 164.8942 
L 539.635068 162.673183 
L 542.45325 160.452167 
L 545.271431 158.23115 
L 548.089613 156.010133 
L 550.907795 153.789117 
L 553.725977 151.5681 
L 556.544159 149.347084 
L 559.362341 147.126067 
L 562.180522 144.90505 
L 564.998704 142.684034 
L 567.816886 140.463017 
L 570.635068 138.242001 
L 573.45325 136.020984 
L 576.271431 133.799967 
L 579.089613 131.578951 
L 581.907795 129.357934 
L 584.725977 127.136918 
L 587.544159 124.915901 
L 590.362341 122.694884 
L 593.180522 120.473868 
L 595.998704 118.252851 
L 598.816886 116.031835 
L 601.635068 113.810818 
L 604.45325 111.589801 
L 607.271431 109.368785 
L 610.089613 107.147768 
L 612.907795 104.926752 
L 615.725977 102.705735 
L 618.544159 100.484718 
L 621.362341 98.263702 
L 624.180522 96.042685 
L 626.998704 93.821669 
L 629.816886 91.600652 
L 632.635068 89.379635 
L 635.45325 87.158619 
L 638.271431 84.937602 
L 641.089613 82.716586 
L 643.907795 80.495569 
L 646.725977 78.274552 
L 649.544159 76.053536 
L 652.362341 73.832519 
L 655.180522 71.611503 
L 657.998704 69.390486 
L 660.816886 67.169469 
L 663.635068 64.948453 
L 666.45325 62.727436 
" style="fill:none;stroke:#cd853f;stroke-linecap:round;stroke-width:1.5;"/>
   </g>
   <g id="line2d_105">
    <path clip-path="url(#p63fa0898b2)" d="M 387.45325 271.65518 
L 390.271431 269.430419 
L 393.089613 267.205659 
L 395.907795 264.980899 
L 398.725977 262.756138 
L 401.544159 260.531378 
L 404.362341 258.306618 
L 407.180522 256.081858 
L 409.998704 253.857097 
L 412.816886 251.632337 
L 415.635068 249.407577 
L 418.45325 247.182816 
L 421.271431 244.958056 
L 424.089613 242.733296 
L 426.907795 240.508535 
L 429.725977 238.283775 
L 432.544159 236.059015 
L 435.362341 233.834254 
L 438.180522 231.609494 
L 440.998704 229.384734 
L 443.816886 227.159973 
L 446.635068 224.935213 
L 449.45325 222.710453 
L 452.271431 220.485692 
L 455.089613 218.260932 
L 457.907795 216.036172 
L 460.725977 213.811411 
L 463.544159 211.586651 
L 466.362341 209.361891 
L 469.180522 207.137131 
L 471.998704 204.91237 
L 474.816886 202.68761 
L 477.635068 200.46285 
L 480.45325 198.238089 
L 483.271431 196.013329 
L 486.089613 193.788569 
L 488.907795 191.563808 
L 491.725977 189.339048 
L 494.544159 187.114288 
L 497.362341 184.889527 
L 500.180522 182.664767 
L 502.998704 180.440007 
L 505.816886 178.215246 
L 508.635068 175.990486 
L 511.45325 173.765726 
L 514.271431 171.540965 
L 517.089613 169.316205 
L 519.907795 167.091445 
L 522.725977 164.866684 
L 525.544159 162.641924 
L 528.362341 160.417164 
L 531.180522 158.192404 
L 533.998704 155.967643 
L 536.816886 153.742883 
L 539.635068 151.518123 
L 542.45325 149.293362 
L 545.271431 147.068602 
L 548.089613 144.843842 
L 550.907795 142.619081 
L 553.725977 140.394321 
L 556.544159 138.169561 
L 559.362341 135.9448 
L 562.180522 133.72004 
L 564.998704 131.49528 
L 567.816886 129.270519 
L 570.635068 127.045759 
L 573.45325 124.820999 
L 576.271431 122.596238 
L 579.089613 120.371478 
L 581.907795 118.146718 
L 584.725977 115.921957 
L 587.544159 113.697197 
L 590.362341 111.472437 
L 593.180522 109.247677 
L 595.998704 107.022916 
L 598.816886 104.798156 
L 601.635068 102.573396 
L 604.45325 100.348635 
L 607.271431 98.123875 
L 610.089613 95.899115 
L 612.907795 93.674354 
L 615.725977 91.449594 
L 618.544159 89.224834 
L 621.362341 87.000073 
L 624.180522 84.775313 
L 626.998704 82.550553 
L 629.816886 80.325792 
L 632.635068 78.101032 
L 635.45325 75.876272 
L 638.271431 73.651511 
L 641.089613 71.426751 
L 643.907795 69.201991 
L 646.725977 66.977231 
L 649.544159 64.75247 
L 652.362341 62.52771 
L 655.180522 60.30295 
L 657.998704 58.078189 
L 660.816886 55.853429 
L 663.635068 53.628669 
L 666.45325 51.403908 
" style="fill:none;stroke:#8b0000;stroke-linecap:round;stroke-width:1.5;"/>
   </g>
   <g id="patch_9">
    <path d="M 387.45325 294.962625 
L 387.45325 23.162625 
" style="fill:none;stroke:#262626;stroke-linecap:square;stroke-linejoin:miter;stroke-width:1.25;"/>
   </g>
   <g id="patch_10">
    <path d="M 666.45325 294.962625 
L 666.45325 23.162625 
" style="fill:none;stroke:#262626;stroke-linecap:square;stroke-linejoin:miter;stroke-width:1.25;"/>
   </g>
   <g id="patch_11">
    <path d="M 387.45325 294.962625 
L 666.45325 294.962625 
" style="fill:none;stroke:#262626;stroke-linecap:square;stroke-linejoin:miter;stroke-width:1.25;"/>
   </g>
   <g id="patch_12">
    <path d="M 387.45325 23.162625 
L 666.45325 23.162625 
" style="fill:none;stroke:#262626;stroke-linecap:square;stroke-linejoin:miter;stroke-width:1.25;"/>
   </g>
   <g id="text_21">
    <!-- Effect of Lanczos Degree on Process Time -->
    <g style="fill:#262626;" transform="translate(397.685456 17.162625)scale(0.144 -0.144)">
     <use transform="scale(0.996264)" xlink:href="#CMR17-45"/>
     <use transform="translate(62.586301 0)scale(0.996264)" xlink:href="#CMR17-b"/>
     <use transform="translate(114.930978 0)scale(0.996264)" xlink:href="#CMR17-65"/>
     <use transform="translate(155.416638 0)scale(0.996264)" xlink:href="#CMR17-63"/>
     <use transform="translate(195.902299 0)scale(0.996264)" xlink:href="#CMR17-74"/>
     <use transform="translate(261.259033 0)scale(0.996264)" xlink:href="#CMR17-6f"/>
     <use transform="translate(306.94951 0)scale(0.996264)" xlink:href="#CMR17-66"/>
     <use transform="translate(364.498989 0)scale(0.996264)" xlink:href="#CMR17-4c"/>
     <use transform="translate(421.880397 0)scale(0.996264)" xlink:href="#CMR17-61"/>
     <use transform="translate(467.570874 0)scale(0.996264)" xlink:href="#CMR17-6e"/>
     <use transform="translate(518.466244 0)scale(0.996264)" xlink:href="#CMR17-63"/>
     <use transform="translate(558.951904 0)scale(0.996264)" xlink:href="#CMR17-7a"/>
     <use transform="translate(599.437564 0)scale(0.996264)" xlink:href="#CMR17-6f"/>
     <use transform="translate(645.128042 0)scale(0.996264)" xlink:href="#CMR17-73"/>
     <use transform="translate(711.005346 0)scale(0.996264)" xlink:href="#CMR17-44"/>
     <use transform="translate(781.398901 0)scale(0.996264)" xlink:href="#CMR17-65"/>
     <use transform="translate(821.884562 0)scale(0.996264)" xlink:href="#CMR17-67"/>
     <use transform="translate(867.575039 0)scale(0.996264)" xlink:href="#CMR17-72"/>
     <use transform="translate(902.855807 0)scale(0.996264)" xlink:href="#CMR17-65"/>
     <use transform="translate(943.341467 0)scale(0.996264)" xlink:href="#CMR17-65"/>
     <use transform="translate(1013.903094 0)scale(0.996264)" xlink:href="#CMR17-6f"/>
     <use transform="translate(1059.593571 0)scale(0.996264)" xlink:href="#CMR17-6e"/>
     <use transform="translate(1140.564907 0)scale(0.996264)" xlink:href="#CMR17-50"/>
     <use transform="translate(1203.151208 0)scale(0.996264)" xlink:href="#CMR17-72"/>
     <use transform="translate(1238.431976 0)scale(0.996264)" xlink:href="#CMR17-6f"/>
     <use transform="translate(1286.724892 0)scale(0.996264)" xlink:href="#CMR17-63"/>
     <use transform="translate(1327.210552 0)scale(0.996264)" xlink:href="#CMR17-65"/>
     <use transform="translate(1367.696212 0)scale(0.996264)" xlink:href="#CMR17-73"/>
     <use transform="translate(1403.49755 0)scale(0.996264)" xlink:href="#CMR17-73"/>
     <use transform="translate(1469.374854 0)scale(0.996264)" xlink:href="#CMR17-54"/>
     <use transform="translate(1535.884735 0)scale(0.996264)" xlink:href="#CMR17-69"/>
     <use transform="translate(1560.755793 0)scale(0.996264)" xlink:href="#CMR17-6d"/>
     <use transform="translate(1637.675383 0)scale(0.996264)" xlink:href="#CMR17-65"/>
    </g>
   </g>
   <g id="legend_2">
    <g id="patch_13">
     <path d="M 395.84989 99.630479 
L 534.186325 99.630479 
Q 536.585365 99.630479 536.585365 97.231439 
L 536.585365 31.559265 
Q 536.585365 29.160225 534.186325 29.160225 
L 395.84989 29.160225 
Q 393.45085 29.160225 393.45085 31.559265 
L 393.45085 97.231439 
Q 393.45085 99.630479 395.84989 99.630479 
z
" style="fill:#ffffff;opacity:0.8;stroke:#cccccc;stroke-linejoin:miter;"/>
    </g>
    <g id="line2d_106"/>
    <g id="line2d_107">
     <g>
      <use style="fill:#cd853f;stroke:#cd853f;" x="410.24413" xlink:href="#mc172bc92ed" y="38.156625"/>
     </g>
    </g>
    <g id="text_22">
     <!-- Orthogonalized -->
     <g style="fill:#262626;" transform="translate(431.83549 42.354945)scale(0.119952 -0.119952)">
      <use transform="scale(0.996264)" xlink:href="#CMR17-4f"/>
      <use transform="translate(71.714788 0)scale(0.996264)" xlink:href="#CMR17-72"/>
      <use transform="translate(106.995556 0)scale(0.996264)" xlink:href="#CMR17-74"/>
      <use transform="translate(142.276324 0)scale(0.996264)" xlink:href="#CMR17-68"/>
      <use transform="translate(193.171694 0)scale(0.996264)" xlink:href="#CMR17-6f"/>
      <use transform="translate(238.862171 0)scale(0.996264)" xlink:href="#CMR17-67"/>
      <use transform="translate(284.552648 0)scale(0.996264)" xlink:href="#CMR17-6f"/>
      <use transform="translate(330.243125 0)scale(0.996264)" xlink:href="#CMR17-6e"/>
      <use transform="translate(381.138495 0)scale(0.996264)" xlink:href="#CMR17-61"/>
      <use transform="translate(426.828972 0)scale(0.996264)" xlink:href="#CMR17-6c"/>
      <use transform="translate(451.700031 0)scale(0.996264)" xlink:href="#CMR17-69"/>
      <use transform="translate(476.571089 0)scale(0.996264)" xlink:href="#CMR17-7a"/>
      <use transform="translate(517.056749 0)scale(0.996264)" xlink:href="#CMR17-65"/>
      <use transform="translate(557.54241 0)scale(0.996264)" xlink:href="#CMR17-64"/>
     </g>
    </g>
    <g id="line2d_108"/>
    <g id="line2d_109">
     <g>
      <use style="fill:#8b0000;stroke:#8b0000;stroke-linejoin:miter;" x="410.24413" xlink:href="#mb6af0ea269" y="54.874549"/>
     </g>
    </g>
    <g id="text_23">
     <!-- Not orthogonalized -->
     <g style="fill:#262626;" transform="translate(431.83549 59.072869)scale(0.119952 -0.119952)">
      <use transform="scale(0.996264)" xlink:href="#CMR17-4e"/>
      <use transform="translate(69.07243 0)scale(0.996264)" xlink:href="#CMR17-6f"/>
      <use transform="translate(114.762907 0)scale(0.996264)" xlink:href="#CMR17-74"/>
      <use transform="translate(180.119641 0)scale(0.996264)" xlink:href="#CMR17-6f"/>
      <use transform="translate(225.810118 0)scale(0.996264)" xlink:href="#CMR17-72"/>
      <use transform="translate(261.090886 0)scale(0.996264)" xlink:href="#CMR17-74"/>
      <use transform="translate(296.371654 0)scale(0.996264)" xlink:href="#CMR17-68"/>
      <use transform="translate(347.267024 0)scale(0.996264)" xlink:href="#CMR17-6f"/>
      <use transform="translate(392.957501 0)scale(0.996264)" xlink:href="#CMR17-67"/>
      <use transform="translate(438.647978 0)scale(0.996264)" xlink:href="#CMR17-6f"/>
      <use transform="translate(484.338455 0)scale(0.996264)" xlink:href="#CMR17-6e"/>
      <use transform="translate(535.233825 0)scale(0.996264)" xlink:href="#CMR17-61"/>
      <use transform="translate(580.924302 0)scale(0.996264)" xlink:href="#CMR17-6c"/>
      <use transform="translate(605.79536 0)scale(0.996264)" xlink:href="#CMR17-69"/>
      <use transform="translate(630.666419 0)scale(0.996264)" xlink:href="#CMR17-7a"/>
      <use transform="translate(671.152079 0)scale(0.996264)" xlink:href="#CMR17-65"/>
      <use transform="translate(711.63774 0)scale(0.996264)" xlink:href="#CMR17-64"/>
     </g>
    </g>
    <g id="line2d_110">
     <path d="M 398.24893 71.592472 
L 422.23933 71.592472 
" style="fill:none;stroke:#cd853f;stroke-linecap:round;stroke-width:1.5;"/>
    </g>
    <g id="line2d_111"/>
    <g id="text_24">
     <!-- Orthogonalized -->
     <g style="fill:#262626;" transform="translate(431.83549 75.790792)scale(0.119952 -0.119952)">
      <use transform="scale(0.996264)" xlink:href="#CMR17-4f"/>
      <use transform="translate(71.714788 0)scale(0.996264)" xlink:href="#CMR17-72"/>
      <use transform="translate(106.995556 0)scale(0.996264)" xlink:href="#CMR17-74"/>
      <use transform="translate(142.276324 0)scale(0.996264)" xlink:href="#CMR17-68"/>
      <use transform="translate(193.171694 0)scale(0.996264)" xlink:href="#CMR17-6f"/>
      <use transform="translate(238.862171 0)scale(0.996264)" xlink:href="#CMR17-67"/>
      <use transform="translate(284.552648 0)scale(0.996264)" xlink:href="#CMR17-6f"/>
      <use transform="translate(330.243125 0)scale(0.996264)" xlink:href="#CMR17-6e"/>
      <use transform="translate(381.138495 0)scale(0.996264)" xlink:href="#CMR17-61"/>
      <use transform="translate(426.828972 0)scale(0.996264)" xlink:href="#CMR17-6c"/>
      <use transform="translate(451.700031 0)scale(0.996264)" xlink:href="#CMR17-69"/>
      <use transform="translate(476.571089 0)scale(0.996264)" xlink:href="#CMR17-7a"/>
      <use transform="translate(517.056749 0)scale(0.996264)" xlink:href="#CMR17-65"/>
      <use transform="translate(557.54241 0)scale(0.996264)" xlink:href="#CMR17-64"/>
     </g>
    </g>
    <g id="line2d_112">
     <path d="M 398.24893 88.310396 
L 422.23933 88.310396 
" style="fill:none;stroke:#8b0000;stroke-linecap:round;stroke-width:1.5;"/>
    </g>
    <g id="line2d_113"/>
    <g id="text_25">
     <!-- Not orthogonalized -->
     <g style="fill:#262626;" transform="translate(431.83549 92.508716)scale(0.119952 -0.119952)">
      <use transform="scale(0.996264)" xlink:href="#CMR17-4e"/>
      <use transform="translate(69.07243 0)scale(0.996264)" xlink:href="#CMR17-6f"/>
      <use transform="translate(114.762907 0)scale(0.996264)" xlink:href="#CMR17-74"/>
      <use transform="translate(180.119641 0)scale(0.996264)" xlink:href="#CMR17-6f"/>
      <use transform="translate(225.810118 0)scale(0.996264)" xlink:href="#CMR17-72"/>
      <use transform="translate(261.090886 0)scale(0.996264)" xlink:href="#CMR17-74"/>
      <use transform="translate(296.371654 0)scale(0.996264)" xlink:href="#CMR17-68"/>
      <use transform="translate(347.267024 0)scale(0.996264)" xlink:href="#CMR17-6f"/>
      <use transform="translate(392.957501 0)scale(0.996264)" xlink:href="#CMR17-67"/>
      <use transform="translate(438.647978 0)scale(0.996264)" xlink:href="#CMR17-6f"/>
      <use transform="translate(484.338455 0)scale(0.996264)" xlink:href="#CMR17-6e"/>
      <use transform="translate(535.233825 0)scale(0.996264)" xlink:href="#CMR17-61"/>
      <use transform="translate(580.924302 0)scale(0.996264)" xlink:href="#CMR17-6c"/>
      <use transform="translate(605.79536 0)scale(0.996264)" xlink:href="#CMR17-69"/>
      <use transform="translate(630.666419 0)scale(0.996264)" xlink:href="#CMR17-7a"/>
      <use transform="translate(671.152079 0)scale(0.996264)" xlink:href="#CMR17-65"/>
      <use transform="translate(711.63774 0)scale(0.996264)" xlink:href="#CMR17-64"/>
     </g>
    </g>
   </g>
  </g>
 </g>
 <defs>
  <clipPath id="pa8c4d3a306">
   <rect height="271.8" width="279" x="52.65325" y="23.162625"/>
  </clipPath>
  <clipPath id="p63fa0898b2">
   <rect height="271.8" width="279" x="387.45325" y="23.162625"/>
  </clipPath>
 </defs>
</svg>
