<?xml version="1.0" encoding="utf-8" standalone="no"?>
<!DOCTYPE svg PUBLIC "-//W3C//DTD SVG 1.1//EN"
  "http://www.w3.org/Graphics/SVG/1.1/DTD/svg11.dtd">
<svg height="343.296pt" version="1.1" viewBox="0 0 775.296 343.296" width="775.296pt" xmlns="http://www.w3.org/2000/svg" xmlns:xlink="http://www.w3.org/1999/xlink">
 <metadata>
  <rdf:RDF xmlns:cc="http://creativecommons.org/ns#" xmlns:dc="http://purl.org/dc/elements/1.1/" xmlns:rdf="http://www.w3.org/1999/02/22-rdf-syntax-ns#">
   <cc:Work>
    <dc:type rdf:resource="http://purl.org/dc/dcmitype/StillImage"/>
    <dc:date>2021-08-18T16:55:16.786259</dc:date>
    <dc:format>image/svg+xml</dc:format>
    <dc:creator>
     <cc:Agent>
      <dc:title>Matplotlib v3.4.2, https://matplotlib.org/</dc:title>
     </cc:Agent>
    </dc:creator>
   </cc:Work>
  </rdf:RDF>
 </metadata>
 <defs>
  <style type="text/css">*{stroke-linecap:butt;stroke-linejoin:round;}</style>
 </defs>
 <g id="figure_1">
  <g id="patch_1">
   <path d="M 0 343.296 
L 775.296 343.296 
L 775.296 0 
L 0 0 
z
" style="fill:none;"/>
  </g>
  <g id="axes_1">
   <g id="patch_2">
    <path d="M 60.011855 298.154392 
L 383.551303 298.154392 
L 383.551303 23.162625 
L 60.011855 23.162625 
z
" style="fill:none;"/>
   </g>
   <g id="matplotlib.axis_1">
    <g id="xtick_1">
     <g id="line2d_1">
      <defs>
       <path d="M 0 0 
L 0 6 
" id="meae94b9d34" style="stroke:#262626;stroke-width:1.25;"/>
      </defs>
      <g>
       <use style="fill:#262626;stroke:#262626;stroke-width:1.25;" x="60.011855" xlink:href="#meae94b9d34" y="298.154392"/>
      </g>
     </g>
     <g id="text_1">
      <!-- $\mathdefault{10^{1}}$ -->
      <g style="fill:#262626;" transform="translate(51.20832 316.786787)scale(0.132 -0.132)">
       <defs>
        <path d="M 1702 4058 
C 1702 4192 1696 4192 1606 4192 
C 1357 3916 979 3827 621 3827 
C 602 3827 570 3827 563 3808 
C 557 3795 557 3782 557 3648 
C 755 3648 1088 3686 1344 3839 
L 1344 461 
C 1344 236 1331 160 781 160 
L 589 160 
L 589 0 
C 896 0 1216 0 1523 0 
C 1830 0 2150 0 2458 0 
L 2458 160 
L 2266 160 
C 1715 160 1702 230 1702 458 
L 1702 4058 
z
" id="CMR17-31" transform="scale(0.015625)"/>
        <path d="M 2688 2025 
C 2688 2416 2682 3080 2413 3591 
C 2176 4039 1798 4198 1466 4198 
C 1158 4198 768 4058 525 3597 
C 269 3118 243 2524 243 2025 
C 243 1661 250 1106 448 619 
C 723 -39 1216 -128 1466 -128 
C 1760 -128 2208 -7 2470 600 
C 2662 1042 2688 1559 2688 2025 
z
M 1466 -26 
C 1056 -26 813 325 723 812 
C 653 1188 653 1738 653 2096 
C 653 2588 653 2997 736 3387 
C 858 3929 1216 4096 1466 4096 
C 1728 4096 2067 3923 2189 3400 
C 2272 3036 2278 2607 2278 2096 
C 2278 1680 2278 1169 2202 792 
C 2067 95 1690 -26 1466 -26 
z
" id="CMR17-30" transform="scale(0.015625)"/>
       </defs>
       <use transform="scale(0.996264)" xlink:href="#CMR17-31"/>
       <use transform="translate(45.690477 0)scale(0.996264)" xlink:href="#CMR17-30"/>
       <use transform="translate(91.380954 36.153639)scale(0.697382)" xlink:href="#CMR17-31"/>
      </g>
     </g>
    </g>
    <g id="xtick_2">
     <g id="line2d_2">
      <g>
       <use style="fill:#262626;stroke:#262626;stroke-width:1.25;" x="261.963997" xlink:href="#meae94b9d34" y="298.154392"/>
      </g>
     </g>
     <g id="text_2">
      <!-- $\mathdefault{10^{2}}$ -->
      <g style="fill:#262626;" transform="translate(253.160463 316.786787)scale(0.132 -0.132)">
       <defs>
        <path d="M 2669 989 
L 2554 989 
C 2490 536 2438 459 2413 420 
C 2381 369 1920 369 1830 369 
L 602 369 
C 832 619 1280 1072 1824 1597 
C 2214 1967 2669 2402 2669 3035 
C 2669 3790 2067 4224 1395 4224 
C 691 4224 262 3604 262 3030 
C 262 2780 448 2748 525 2748 
C 589 2748 781 2787 781 3010 
C 781 3207 614 3264 525 3264 
C 486 3264 448 3258 422 3245 
C 544 3790 915 4058 1306 4058 
C 1862 4058 2227 3617 2227 3035 
C 2227 2479 1901 2000 1536 1584 
L 262 146 
L 262 0 
L 2515 0 
L 2669 989 
z
" id="CMR17-32" transform="scale(0.015625)"/>
       </defs>
       <use transform="scale(0.996264)" xlink:href="#CMR17-31"/>
       <use transform="translate(45.690477 0)scale(0.996264)" xlink:href="#CMR17-30"/>
       <use transform="translate(91.380954 36.153639)scale(0.697382)" xlink:href="#CMR17-32"/>
      </g>
     </g>
    </g>
    <g id="xtick_3">
     <g id="line2d_3">
      <defs>
       <path d="M 0 0 
L 0 4 
" id="m53ba18be64" style="stroke:#262626;"/>
      </defs>
      <g>
       <use style="fill:#262626;stroke:#262626;" x="120.805507" xlink:href="#m53ba18be64" y="298.154392"/>
      </g>
     </g>
    </g>
    <g id="xtick_4">
     <g id="line2d_4">
      <g>
       <use style="fill:#262626;stroke:#262626;" x="156.367514" xlink:href="#m53ba18be64" y="298.154392"/>
      </g>
     </g>
    </g>
    <g id="xtick_5">
     <g id="line2d_5">
      <g>
       <use style="fill:#262626;stroke:#262626;" x="181.59916" xlink:href="#m53ba18be64" y="298.154392"/>
      </g>
     </g>
    </g>
    <g id="xtick_6">
     <g id="line2d_6">
      <g>
       <use style="fill:#262626;stroke:#262626;" x="201.170345" xlink:href="#m53ba18be64" y="298.154392"/>
      </g>
     </g>
    </g>
    <g id="xtick_7">
     <g id="line2d_7">
      <g>
       <use style="fill:#262626;stroke:#262626;" x="217.161167" xlink:href="#m53ba18be64" y="298.154392"/>
      </g>
     </g>
    </g>
    <g id="xtick_8">
     <g id="line2d_8">
      <g>
       <use style="fill:#262626;stroke:#262626;" x="230.681215" xlink:href="#m53ba18be64" y="298.154392"/>
      </g>
     </g>
    </g>
    <g id="xtick_9">
     <g id="line2d_9">
      <g>
       <use style="fill:#262626;stroke:#262626;" x="242.392813" xlink:href="#m53ba18be64" y="298.154392"/>
      </g>
     </g>
    </g>
    <g id="xtick_10">
     <g id="line2d_10">
      <g>
       <use style="fill:#262626;stroke:#262626;" x="252.723174" xlink:href="#m53ba18be64" y="298.154392"/>
      </g>
     </g>
    </g>
    <g id="xtick_11">
     <g id="line2d_11">
      <g>
       <use style="fill:#262626;stroke:#262626;" x="322.75765" xlink:href="#m53ba18be64" y="298.154392"/>
      </g>
     </g>
    </g>
    <g id="xtick_12">
     <g id="line2d_12">
      <g>
       <use style="fill:#262626;stroke:#262626;" x="358.319657" xlink:href="#m53ba18be64" y="298.154392"/>
      </g>
     </g>
    </g>
    <g id="xtick_13">
     <g id="line2d_13">
      <g>
       <use style="fill:#262626;stroke:#262626;" x="383.551303" xlink:href="#m53ba18be64" y="298.154392"/>
      </g>
     </g>
    </g>
    <g id="text_3">
     <!-- Lanczos degree -->
     <g style="fill:#262626;" transform="translate(175.602828 333.306473)scale(0.144 -0.144)">
      <defs>
       <path d="M 3469 1615 
L 3354 1615 
C 3302 983 3219 166 2125 166 
L 1530 166 
C 1274 166 1261 197 1261 414 
L 1261 3898 
C 1261 4129 1274 4192 1760 4192 
L 1901 4192 
L 1901 4352 
C 1638 4352 1331 4352 1069 4352 
C 870 4352 512 4352 326 4352 
L 326 4192 
C 768 4192 838 4192 838 3905 
L 838 452 
C 838 166 768 166 326 166 
L 326 0 
L 3315 0 
L 3469 1615 
z
" id="CMR17-4c" transform="scale(0.015625)"/>
       <path d="M 2304 1653 
C 2304 2072 2304 2294 2035 2543 
C 1798 2752 1523 2816 1306 2816 
C 800 2816 435 2407 435 1971 
C 435 1728 627 1728 666 1728 
C 749 1728 896 1778 896 1954 
C 896 2112 774 2181 666 2181 
C 640 2181 608 2174 589 2168 
C 723 2592 1069 2714 1293 2714 
C 1613 2714 1965 2429 1965 1885 
L 1965 1600 
C 1587 1600 1133 1549 774 1357 
C 371 1133 256 813 256 570 
C 256 77 832 -64 1171 -64 
C 1523 -64 1850 139 1990 511 
C 2003 233 2182 -18 2464 -18 
C 2598 -18 2938 70 2938 567 
L 2938 920 
L 2822 920 
L 2822 562 
C 2822 178 2650 128 2566 128 
C 2304 128 2304 458 2304 738 
L 2304 1653 
z
M 1965 870 
C 1965 317 1568 38 1216 38 
C 896 38 646 275 646 570 
C 646 761 730 1100 1101 1305 
C 1408 1478 1760 1504 1965 1504 
L 1965 870 
z
" id="CMR17-61" transform="scale(0.015625)"/>
       <path d="M 2656 1933 
C 2656 2259 2592 2790 1837 2790 
C 1331 2790 1069 2400 973 2144 
L 966 2144 
L 966 2790 
L 211 2720 
L 211 2554 
C 589 2554 646 2515 646 2208 
L 646 428 
C 646 184 621 153 211 153 
L 211 -13 
C 365 0 646 0 813 0 
C 979 0 1267 0 1421 -13 
L 1421 153 
C 1011 153 986 178 986 428 
L 986 1658 
C 986 2247 1344 2688 1792 2688 
C 2266 2688 2317 2266 2317 1958 
L 2317 428 
C 2317 184 2291 153 1882 153 
L 1882 -13 
C 2035 0 2317 0 2483 0 
C 2650 0 2938 0 3091 -13 
L 3091 153 
C 2682 153 2656 178 2656 428 
L 2656 1933 
z
" id="CMR17-6e" transform="scale(0.015625)"/>
       <path d="M 2234 2240 
C 2112 2240 1933 2240 1933 2017 
C 1933 1838 2080 1787 2163 1787 
C 2208 1787 2394 1807 2394 2024 
C 2394 2467 1958 2803 1466 2803 
C 787 2803 211 2178 211 1363 
C 211 516 813 -64 1466 -64 
C 2259 -64 2458 677 2458 748 
C 2458 774 2451 793 2406 793 
C 2362 793 2355 787 2330 703 
C 2163 180 1798 51 1523 51 
C 1114 51 621 427 621 1369 
C 621 2338 1094 2688 1472 2688 
C 1722 2688 2093 2573 2234 2240 
z
" id="CMR17-63" transform="scale(0.015625)"/>
       <path d="M 2310 2605 
C 2362 2670 2362 2682 2362 2695 
C 2362 2752 2336 2752 2221 2752 
L 275 2752 
L 211 1760 
L 326 1760 
C 371 2381 442 2650 1178 2650 
L 1958 2650 
L 128 96 
C 128 0 134 0 269 0 
L 2291 0 
L 2381 1152 
L 2266 1152 
C 2214 442 2131 115 1350 115 
L 531 115 
L 2310 2605 
z
" id="CMR17-7a" transform="scale(0.015625)"/>
       <path d="M 2758 1356 
C 2758 2176 2163 2816 1466 2816 
C 768 2816 173 2176 173 1356 
C 173 551 768 -64 1466 -64 
C 2163 -64 2758 551 2758 1356 
z
M 1466 51 
C 1165 51 909 230 762 480 
C 602 767 582 1126 582 1408 
C 582 1677 595 2010 762 2298 
C 890 2509 1139 2714 1466 2714 
C 1754 2714 1997 2554 2150 2330 
C 2349 2029 2349 1607 2349 1408 
C 2349 1158 2336 775 2163 467 
C 1984 173 1709 51 1466 51 
z
" id="CMR17-6f" transform="scale(0.015625)"/>
       <path d="M 1978 2697 
C 1978 2813 1971 2819 1933 2819 
C 1907 2819 1901 2813 1824 2717 
C 1805 2691 1747 2626 1728 2601 
C 1523 2819 1235 2819 1126 2819 
C 416 2819 160 2447 160 2076 
C 160 1498 813 1365 998 1325 
C 1402 1243 1542 1217 1677 1101 
C 1760 1025 1901 884 1901 654 
C 1901 384 1747 38 1158 38 
C 602 38 403 460 288 1021 
C 269 1110 269 1117 218 1117 
C 166 1117 160 1110 160 983 
L 160 63 
C 160 -51 166 -58 205 -58 
C 237 -58 243 -51 275 0 
C 314 57 410 211 448 276 
C 576 103 800 -64 1158 -64 
C 1792 -64 2131 283 2131 784 
C 2131 1112 1958 1285 1875 1362 
C 1683 1561 1459 1606 1190 1657 
C 838 1735 390 1825 390 2217 
C 390 2383 480 2737 1126 2737 
C 1811 2737 1850 2094 1862 1888 
C 1869 1856 1901 1849 1920 1849 
C 1978 1849 1978 1869 1978 1978 
L 1978 2697 
z
" id="CMR17-73" transform="scale(0.015625)"/>
       <path d="M 1869 4326 
L 1869 4160 
C 2246 4160 2304 4122 2304 3820 
L 2304 2345 
C 2278 2377 2016 2790 1498 2790 
C 845 2790 211 2208 211 1364 
C 211 525 806 -64 1434 -64 
C 1978 -64 2259 337 2291 380 
L 2291 -63 
L 3066 -63 
L 3066 128 
C 2688 128 2630 166 2630 473 
L 2630 4396 
L 1869 4326 
z
M 2291 755 
C 2291 563 2176 390 2029 262 
C 1811 70 1594 38 1472 38 
C 1286 38 621 134 621 1356 
C 621 2612 1363 2688 1530 2688 
C 1824 2688 2061 2522 2208 2291 
C 2291 2157 2291 2138 2291 2023 
L 2291 755 
z
" id="CMR17-64" transform="scale(0.015625)"/>
       <path d="M 2438 1472 
C 2464 1498 2464 1511 2464 1576 
C 2464 2238 2118 2816 1389 2816 
C 710 2816 173 2169 173 1383 
C 173 551 781 -64 1459 -64 
C 2176 -64 2458 607 2458 740 
C 2458 784 2419 784 2406 784 
C 2362 784 2355 771 2330 696 
C 2189 265 1837 51 1504 51 
C 1229 51 954 203 781 480 
C 582 803 582 1176 582 1472 
L 2438 1472 
z
M 589 1568 
C 634 2505 1126 2714 1382 2714 
C 1818 2714 2112 2297 2118 1568 
L 589 1568 
z
" id="CMR17-65" transform="scale(0.015625)"/>
       <path d="M 710 1164 
C 832 1068 1043 960 1299 960 
C 1805 960 2240 1357 2240 1888 
C 2240 2054 2189 2310 1997 2509 
C 2176 2692 2438 2752 2586 2752 
C 2611 2752 2650 2752 2682 2734 
C 2656 2728 2598 2703 2598 2605 
C 2598 2527 2656 2471 2739 2471 
C 2835 2471 2886 2533 2886 2614 
C 2886 2731 2790 2854 2586 2854 
C 2330 2854 2106 2738 1926 2580 
C 1734 2753 1504 2816 1299 2816 
C 794 2816 358 2419 358 1888 
C 358 1522 570 1292 634 1228 
C 442 1004 442 743 442 711 
C 442 545 506 302 723 168 
C 390 85 128 -169 128 -486 
C 128 -943 736 -1280 1466 -1280 
C 2170 -1280 2803 -956 2803 -479 
C 2803 384 1856 384 1363 384 
C 1216 384 954 384 922 391 
C 723 423 589 602 589 826 
C 589 883 589 1024 710 1164 
z
M 1299 1068 
C 736 1068 736 1760 736 1889 
C 736 2016 736 2708 1299 2708 
C 1862 2708 1862 2016 1862 1889 
C 1862 1760 1862 1068 1299 1068 
z
M 1466 -1171 
C 826 -1171 384 -835 384 -486 
C 384 -289 493 -105 634 -4 
C 794 104 858 104 1293 104 
C 1818 104 2547 104 2547 -486 
C 2547 -835 2106 -1171 1466 -1171 
z
" id="CMR17-67" transform="scale(0.015625)"/>
       <path d="M 960 1497 
C 960 2112 1222 2688 1702 2688 
C 1747 2688 1792 2682 1837 2662 
C 1837 2662 1696 2617 1696 2452 
C 1696 2298 1818 2234 1914 2234 
C 1990 2234 2131 2279 2131 2458 
C 2131 2663 1926 2790 1709 2790 
C 1222 2790 1011 2317 947 2093 
L 941 2093 
L 941 2790 
L 198 2720 
L 198 2554 
C 576 2554 634 2515 634 2208 
L 634 428 
C 634 184 608 153 198 153 
L 198 -13 
C 352 0 646 0 813 0 
C 998 0 1325 0 1498 -13 
L 1498 153 
C 1037 153 960 153 960 440 
L 960 1497 
z
" id="CMR17-72" transform="scale(0.015625)"/>
      </defs>
      <use transform="scale(0.996264)" xlink:href="#CMR17-4c"/>
      <use transform="translate(57.381408 0)scale(0.996264)" xlink:href="#CMR17-61"/>
      <use transform="translate(103.071885 0)scale(0.996264)" xlink:href="#CMR17-6e"/>
      <use transform="translate(153.967255 0)scale(0.996264)" xlink:href="#CMR17-63"/>
      <use transform="translate(194.452915 0)scale(0.996264)" xlink:href="#CMR17-7a"/>
      <use transform="translate(234.938576 0)scale(0.996264)" xlink:href="#CMR17-6f"/>
      <use transform="translate(280.629053 0)scale(0.996264)" xlink:href="#CMR17-73"/>
      <use transform="translate(346.506357 0)scale(0.996264)" xlink:href="#CMR17-64"/>
      <use transform="translate(397.401727 0)scale(0.996264)" xlink:href="#CMR17-65"/>
      <use transform="translate(437.887387 0)scale(0.996264)" xlink:href="#CMR17-67"/>
      <use transform="translate(483.577864 0)scale(0.996264)" xlink:href="#CMR17-72"/>
      <use transform="translate(518.858632 0)scale(0.996264)" xlink:href="#CMR17-65"/>
      <use transform="translate(559.344292 0)scale(0.996264)" xlink:href="#CMR17-65"/>
     </g>
    </g>
   </g>
   <g id="matplotlib.axis_2">
    <g id="ytick_1">
     <g id="line2d_14">
      <path clip-path="url(#p753223fea2)" d="M 60.011855 244.116452 
L 383.551303 244.116452 
" style="fill:none;stroke:#cccccc;stroke-linecap:round;"/>
     </g>
     <g id="line2d_15">
      <defs>
       <path d="M 0 0 
L -6 0 
" id="m2c06c711ee" style="stroke:#262626;stroke-width:1.25;"/>
      </defs>
      <g>
       <use style="fill:#262626;stroke:#262626;stroke-width:1.25;" x="60.011855" xlink:href="#m2c06c711ee" y="244.116452"/>
      </g>
     </g>
     <g id="text_4">
      <!-- $\mathdefault{10^{-1}}$ -->
      <g style="fill:#262626;" transform="translate(25.54618 248.68265)scale(0.132 -0.132)">
       <defs>
        <path d="M 4218 1472 
C 4326 1472 4442 1472 4442 1600 
C 4442 1728 4326 1728 4218 1728 
L 755 1728 
C 646 1728 531 1728 531 1600 
C 531 1472 646 1472 755 1472 
L 4218 1472 
z
" id="CMSY10-0" transform="scale(0.015625)"/>
       </defs>
       <use transform="scale(0.996264)" xlink:href="#CMR17-31"/>
       <use transform="translate(45.690477 0)scale(0.996264)" xlink:href="#CMR17-30"/>
       <use transform="translate(91.380954 36.153639)scale(0.697382)" xlink:href="#CMSY10-0"/>
       <use transform="translate(145.621947 36.153639)scale(0.697382)" xlink:href="#CMR17-31"/>
      </g>
     </g>
    </g>
    <g id="ytick_2">
     <g id="line2d_16">
      <path clip-path="url(#p753223fea2)" d="M 60.011855 168.190759 
L 383.551303 168.190759 
" style="fill:none;stroke:#cccccc;stroke-linecap:round;"/>
     </g>
     <g id="line2d_17">
      <g>
       <use style="fill:#262626;stroke:#262626;stroke-width:1.25;" x="60.011855" xlink:href="#m2c06c711ee" y="168.190759"/>
      </g>
     </g>
     <g id="text_5">
      <!-- $\mathdefault{10^{0}}$ -->
      <g style="fill:#262626;" transform="translate(32.904786 172.756956)scale(0.132 -0.132)">
       <use transform="scale(0.996264)" xlink:href="#CMR17-31"/>
       <use transform="translate(45.690477 0)scale(0.996264)" xlink:href="#CMR17-30"/>
       <use transform="translate(91.380954 36.153639)scale(0.697382)" xlink:href="#CMR17-30"/>
      </g>
     </g>
    </g>
    <g id="ytick_3">
     <g id="line2d_18">
      <path clip-path="url(#p753223fea2)" d="M 60.011855 92.265065 
L 383.551303 92.265065 
" style="fill:none;stroke:#cccccc;stroke-linecap:round;"/>
     </g>
     <g id="line2d_19">
      <g>
       <use style="fill:#262626;stroke:#262626;stroke-width:1.25;" x="60.011855" xlink:href="#m2c06c711ee" y="92.265065"/>
      </g>
     </g>
     <g id="text_6">
      <!-- $\mathdefault{10^{1}}$ -->
      <g style="fill:#262626;" transform="translate(32.904786 96.831262)scale(0.132 -0.132)">
       <use transform="scale(0.996264)" xlink:href="#CMR17-31"/>
       <use transform="translate(45.690477 0)scale(0.996264)" xlink:href="#CMR17-30"/>
       <use transform="translate(91.380954 36.153639)scale(0.697382)" xlink:href="#CMR17-31"/>
      </g>
     </g>
    </g>
    <g id="ytick_4">
     <g id="line2d_20">
      <defs>
       <path d="M 0 0 
L -4 0 
" id="m4890449642" style="stroke:#262626;"/>
      </defs>
      <g>
       <use style="fill:#262626;stroke:#262626;" x="60.011855" xlink:href="#m4890449642" y="297.186235"/>
      </g>
     </g>
    </g>
    <g id="ytick_5">
     <g id="line2d_21">
      <g>
       <use style="fill:#262626;stroke:#262626;" x="60.011855" xlink:href="#m4890449642" y="283.816384"/>
      </g>
     </g>
    </g>
    <g id="ytick_6">
     <g id="line2d_22">
      <g>
       <use style="fill:#262626;stroke:#262626;" x="60.011855" xlink:href="#m4890449642" y="274.330323"/>
      </g>
     </g>
    </g>
    <g id="ytick_7">
     <g id="line2d_23">
      <g>
       <use style="fill:#262626;stroke:#262626;" x="60.011855" xlink:href="#m4890449642" y="266.972364"/>
      </g>
     </g>
    </g>
    <g id="ytick_8">
     <g id="line2d_24">
      <g>
       <use style="fill:#262626;stroke:#262626;" x="60.011855" xlink:href="#m4890449642" y="260.960472"/>
      </g>
     </g>
    </g>
    <g id="ytick_9">
     <g id="line2d_25">
      <g>
       <use style="fill:#262626;stroke:#262626;" x="60.011855" xlink:href="#m4890449642" y="255.877491"/>
      </g>
     </g>
    </g>
    <g id="ytick_10">
     <g id="line2d_26">
      <g>
       <use style="fill:#262626;stroke:#262626;" x="60.011855" xlink:href="#m4890449642" y="251.474412"/>
      </g>
     </g>
    </g>
    <g id="ytick_11">
     <g id="line2d_27">
      <g>
       <use style="fill:#262626;stroke:#262626;" x="60.011855" xlink:href="#m4890449642" y="247.590621"/>
      </g>
     </g>
    </g>
    <g id="ytick_12">
     <g id="line2d_28">
      <g>
       <use style="fill:#262626;stroke:#262626;" x="60.011855" xlink:href="#m4890449642" y="221.260541"/>
      </g>
     </g>
    </g>
    <g id="ytick_13">
     <g id="line2d_29">
      <g>
       <use style="fill:#262626;stroke:#262626;" x="60.011855" xlink:href="#m4890449642" y="207.89069"/>
      </g>
     </g>
    </g>
    <g id="ytick_14">
     <g id="line2d_30">
      <g>
       <use style="fill:#262626;stroke:#262626;" x="60.011855" xlink:href="#m4890449642" y="198.40463"/>
      </g>
     </g>
    </g>
    <g id="ytick_15">
     <g id="line2d_31">
      <g>
       <use style="fill:#262626;stroke:#262626;" x="60.011855" xlink:href="#m4890449642" y="191.04667"/>
      </g>
     </g>
    </g>
    <g id="ytick_16">
     <g id="line2d_32">
      <g>
       <use style="fill:#262626;stroke:#262626;" x="60.011855" xlink:href="#m4890449642" y="185.034779"/>
      </g>
     </g>
    </g>
    <g id="ytick_17">
     <g id="line2d_33">
      <g>
       <use style="fill:#262626;stroke:#262626;" x="60.011855" xlink:href="#m4890449642" y="179.951797"/>
      </g>
     </g>
    </g>
    <g id="ytick_18">
     <g id="line2d_34">
      <g>
       <use style="fill:#262626;stroke:#262626;" x="60.011855" xlink:href="#m4890449642" y="175.548718"/>
      </g>
     </g>
    </g>
    <g id="ytick_19">
     <g id="line2d_35">
      <g>
       <use style="fill:#262626;stroke:#262626;" x="60.011855" xlink:href="#m4890449642" y="171.664928"/>
      </g>
     </g>
    </g>
    <g id="ytick_20">
     <g id="line2d_36">
      <g>
       <use style="fill:#262626;stroke:#262626;" x="60.011855" xlink:href="#m4890449642" y="145.334847"/>
      </g>
     </g>
    </g>
    <g id="ytick_21">
     <g id="line2d_37">
      <g>
       <use style="fill:#262626;stroke:#262626;" x="60.011855" xlink:href="#m4890449642" y="131.964996"/>
      </g>
     </g>
    </g>
    <g id="ytick_22">
     <g id="line2d_38">
      <g>
       <use style="fill:#262626;stroke:#262626;" x="60.011855" xlink:href="#m4890449642" y="122.478936"/>
      </g>
     </g>
    </g>
    <g id="ytick_23">
     <g id="line2d_39">
      <g>
       <use style="fill:#262626;stroke:#262626;" x="60.011855" xlink:href="#m4890449642" y="115.120976"/>
      </g>
     </g>
    </g>
    <g id="ytick_24">
     <g id="line2d_40">
      <g>
       <use style="fill:#262626;stroke:#262626;" x="60.011855" xlink:href="#m4890449642" y="109.109085"/>
      </g>
     </g>
    </g>
    <g id="ytick_25">
     <g id="line2d_41">
      <g>
       <use style="fill:#262626;stroke:#262626;" x="60.011855" xlink:href="#m4890449642" y="104.026104"/>
      </g>
     </g>
    </g>
    <g id="ytick_26">
     <g id="line2d_42">
      <g>
       <use style="fill:#262626;stroke:#262626;" x="60.011855" xlink:href="#m4890449642" y="99.623025"/>
      </g>
     </g>
    </g>
    <g id="ytick_27">
     <g id="line2d_43">
      <g>
       <use style="fill:#262626;stroke:#262626;" x="60.011855" xlink:href="#m4890449642" y="95.739234"/>
      </g>
     </g>
    </g>
    <g id="ytick_28">
     <g id="line2d_44">
      <g>
       <use style="fill:#262626;stroke:#262626;" x="60.011855" xlink:href="#m4890449642" y="69.409153"/>
      </g>
     </g>
    </g>
    <g id="ytick_29">
     <g id="line2d_45">
      <g>
       <use style="fill:#262626;stroke:#262626;" x="60.011855" xlink:href="#m4890449642" y="56.039302"/>
      </g>
     </g>
    </g>
    <g id="ytick_30">
     <g id="line2d_46">
      <g>
       <use style="fill:#262626;stroke:#262626;" x="60.011855" xlink:href="#m4890449642" y="46.553242"/>
      </g>
     </g>
    </g>
    <g id="ytick_31">
     <g id="line2d_47">
      <g>
       <use style="fill:#262626;stroke:#262626;" x="60.011855" xlink:href="#m4890449642" y="39.195282"/>
      </g>
     </g>
    </g>
    <g id="ytick_32">
     <g id="line2d_48">
      <g>
       <use style="fill:#262626;stroke:#262626;" x="60.011855" xlink:href="#m4890449642" y="33.183391"/>
      </g>
     </g>
    </g>
    <g id="ytick_33">
     <g id="line2d_49">
      <g>
       <use style="fill:#262626;stroke:#262626;" x="60.011855" xlink:href="#m4890449642" y="28.10041"/>
      </g>
     </g>
    </g>
    <g id="ytick_34">
     <g id="line2d_50">
      <g>
       <use style="fill:#262626;stroke:#262626;" x="60.011855" xlink:href="#m4890449642" y="23.697331"/>
      </g>
     </g>
    </g>
    <g id="text_7">
     <!-- Elapsed time (sec) -->
     <g style="fill:#262626;" transform="translate(17.959639 217.411634)rotate(-90)scale(0.144 -0.144)">
      <defs>
       <path d="M 3885 1615 
L 3770 1615 
C 3629 676 3546 166 2419 166 
L 1530 166 
C 1274 166 1261 197 1261 414 
L 1261 2176 
L 1862 2176 
C 2464 2176 2522 1960 2522 1430 
L 2637 1430 
L 2637 3081 
L 2522 3081 
C 2522 2557 2464 2342 1862 2342 
L 1261 2342 
L 1261 3913 
C 1261 4128 1274 4160 1530 4160 
L 2406 4160 
C 3398 4160 3514 3769 3603 2929 
L 3718 2929 
L 3565 4325 
L 326 4325 
L 326 4160 
C 768 4160 838 4160 838 3874 
L 838 451 
C 838 166 768 166 326 166 
L 326 0 
L 3654 0 
L 3885 1615 
z
" id="CMR17-45" transform="scale(0.015625)"/>
       <path d="M 979 4396 
L 218 4326 
L 218 4160 
C 595 4160 653 4122 653 3817 
L 653 426 
C 653 184 627 153 218 153 
L 218 -13 
C 371 0 653 0 813 0 
C 979 0 1261 0 1414 -13 
L 1414 153 
C 1005 153 979 178 979 426 
L 979 4396 
z
" id="CMR17-6c" transform="scale(0.015625)"/>
       <path d="M 1408 -1063 
C 998 -1063 973 -1037 973 -789 
L 973 402 
C 1158 134 1427 -38 1766 -38 
C 2406 -38 3053 523 3053 1388 
C 3053 2191 2496 2802 1837 2802 
C 1453 2802 1139 2592 960 2338 
L 960 2802 
L 198 2732 
L 198 2567 
C 576 2567 634 2528 634 2223 
L 634 -789 
C 634 -1031 608 -1063 198 -1063 
L 198 -1228 
C 352 -1216 634 -1216 800 -1216 
C 966 -1216 1254 -1216 1408 -1228 
L 1408 -1063 
z
M 973 2012 
C 973 2102 973 2235 1222 2471 
C 1254 2497 1472 2688 1792 2688 
C 2259 2688 2643 2108 2643 1382 
C 2643 656 2234 64 1728 64 
C 1498 64 1248 172 1056 472 
C 973 612 973 650 973 752 
L 973 2012 
z
" id="CMR17-70" transform="scale(0.015625)"/>
       <path d="M 966 2560 
L 1862 2560 
L 1862 2725 
L 966 2725 
L 966 3904 
L 851 3904 
C 838 3245 614 2668 70 2668 
L 70 2560 
L 627 2560 
L 627 771 
C 627 650 627 -64 1370 -64 
C 1747 -64 1965 306 1965 777 
L 1965 1140 
L 1850 1140 
L 1850 783 
C 1850 344 1677 51 1408 51 
C 1222 51 966 178 966 758 
L 966 2560 
z
" id="CMR17-74" transform="scale(0.015625)"/>
       <path d="M 992 3909 
C 992 4049 877 4170 730 4170 
C 589 4170 467 4056 467 3909 
C 467 3769 582 3648 730 3648 
C 870 3648 992 3763 992 3909 
z
M 243 2706 
L 243 2541 
C 602 2541 653 2502 653 2197 
L 653 427 
C 653 184 627 153 218 153 
L 218 -13 
C 371 0 646 0 806 0 
C 960 0 1222 0 1370 -13 
L 1370 153 
C 992 153 979 191 979 420 
L 979 2776 
L 243 2706 
z
" id="CMR17-69" transform="scale(0.015625)"/>
       <path d="M 4326 1933 
C 4326 2252 4269 2790 3507 2790 
C 3072 2790 2771 2496 2656 2151 
L 2650 2151 
C 2573 2676 2195 2790 1837 2790 
C 1331 2790 1069 2400 973 2144 
L 966 2144 
L 966 2790 
L 211 2720 
L 211 2554 
C 589 2554 646 2515 646 2208 
L 646 428 
C 646 184 621 153 211 153 
L 211 -13 
C 365 0 646 0 813 0 
C 979 0 1267 0 1421 -13 
L 1421 153 
C 1011 153 986 178 986 428 
L 986 1658 
C 986 2247 1344 2688 1792 2688 
C 2266 2688 2317 2266 2317 1958 
L 2317 428 
C 2317 184 2291 153 1882 153 
L 1882 -13 
C 2035 0 2317 0 2483 0 
C 2650 0 2938 0 3091 -13 
L 3091 153 
C 2682 153 2656 178 2656 428 
L 2656 1658 
C 2656 2247 3014 2688 3462 2688 
C 3936 2688 3987 2266 3987 1958 
L 3987 428 
C 3987 184 3962 153 3552 153 
L 3552 -13 
C 3706 0 3987 0 4154 0 
C 4320 0 4608 0 4762 -13 
L 4762 153 
C 4352 153 4326 178 4326 428 
L 4326 1933 
z
" id="CMR17-6d" transform="scale(0.015625)"/>
       <path d="M 1958 -1561 
C 1958 -1555 1958 -1542 1939 -1523 
C 1645 -1224 858 -407 858 1581 
C 858 3569 1632 4379 1946 4697 
C 1946 4704 1958 4717 1958 4736 
C 1958 4755 1939 4768 1914 4768 
C 1843 4768 1299 4296 986 3594 
C 666 2887 576 2199 576 1588 
C 576 1128 621 351 1005 -471 
C 1312 -1135 1837 -1600 1914 -1600 
C 1946 -1600 1958 -1587 1958 -1561 
z
" id="CMR17-28" transform="scale(0.015625)"/>
       <path d="M 1683 1581 
C 1683 2040 1638 2817 1254 3639 
C 947 4303 422 4768 346 4768 
C 326 4768 301 4761 301 4729 
C 301 4717 307 4710 314 4697 
C 621 4378 1402 3568 1402 1584 
C 1402 -407 627 -1217 314 -1537 
C 307 -1549 301 -1556 301 -1568 
C 301 -1600 326 -1600 346 -1600 
C 416 -1600 960 -1128 1274 -426 
C 1594 281 1683 969 1683 1581 
z
" id="CMR17-29" transform="scale(0.015625)"/>
      </defs>
      <use transform="scale(0.996264)" xlink:href="#CMR17-45"/>
      <use transform="translate(62.586301 0)scale(0.996264)" xlink:href="#CMR17-6c"/>
      <use transform="translate(87.457359 0)scale(0.996264)" xlink:href="#CMR17-61"/>
      <use transform="translate(133.147836 0)scale(0.996264)" xlink:href="#CMR17-70"/>
      <use transform="translate(184.043206 0)scale(0.996264)" xlink:href="#CMR17-73"/>
      <use transform="translate(219.844544 0)scale(0.996264)" xlink:href="#CMR17-65"/>
      <use transform="translate(260.330204 0)scale(0.996264)" xlink:href="#CMR17-64"/>
      <use transform="translate(341.30154 0)scale(0.996264)" xlink:href="#CMR17-74"/>
      <use transform="translate(376.582308 0)scale(0.996264)" xlink:href="#CMR17-69"/>
      <use transform="translate(401.453366 0)scale(0.996264)" xlink:href="#CMR17-6d"/>
      <use transform="translate(478.372956 0)scale(0.996264)" xlink:href="#CMR17-65"/>
      <use transform="translate(548.934583 0)scale(0.996264)" xlink:href="#CMR17-28"/>
      <use transform="translate(584.215351 0)scale(0.996264)" xlink:href="#CMR17-73"/>
      <use transform="translate(620.016689 0)scale(0.996264)" xlink:href="#CMR17-65"/>
      <use transform="translate(660.502349 0)scale(0.996264)" xlink:href="#CMR17-63"/>
      <use transform="translate(700.988009 0)scale(0.996264)" xlink:href="#CMR17-29"/>
     </g>
    </g>
   </g>
   <g id="line2d_51">
    <defs>
     <path d="M 0 3 
C 0.795609 3 1.55874 2.683901 2.12132 2.12132 
C 2.683901 1.55874 3 0.795609 3 0 
C 3 -0.795609 2.683901 -1.55874 2.12132 -2.12132 
C 1.55874 -2.683901 0.795609 -3 0 -3 
C -0.795609 -3 -1.55874 -2.683901 -2.12132 -2.12132 
C -2.683901 -1.55874 -3 -0.795609 -3 0 
C -3 0.795609 -2.683901 1.55874 -2.12132 2.12132 
C -1.55874 2.683901 -0.795609 3 0 3 
z
" id="m77e1534932" style="stroke:#cd853f;"/>
    </defs>
    <g clip-path="url(#p753223fea2)">
     <use style="fill:#cd853f;stroke:#cd853f;" x="60.011855" xlink:href="#m77e1534932" y="257.417185"/>
     <use style="fill:#cd853f;stroke:#cd853f;" x="76.002677" xlink:href="#m77e1534932" y="249.970311"/>
     <use style="fill:#cd853f;stroke:#cd853f;" x="89.522725" xlink:href="#m77e1534932" y="243.169893"/>
     <use style="fill:#cd853f;stroke:#cd853f;" x="106.551508" xlink:href="#m77e1534932" y="233.04053"/>
     <use style="fill:#cd853f;stroke:#cd853f;" x="125.084732" xlink:href="#m77e1534932" y="221.946206"/>
     <use style="fill:#cd853f;stroke:#cd853f;" x="143.816612" xlink:href="#m77e1534932" y="210.410622"/>
     <use style="fill:#cd853f;stroke:#cd853f;" x="162.027975" xlink:href="#m77e1534932" y="198.571666"/>
     <use style="fill:#cd853f;stroke:#cd853f;" x="177.100394" xlink:href="#m77e1534932" y="188.758567"/>
     <use style="fill:#cd853f;stroke:#cd853f;" x="195.743457" xlink:href="#m77e1534932" y="176.257944"/>
     <use style="fill:#cd853f;stroke:#cd853f;" x="212.662401" xlink:href="#m77e1534932" y="165.150793"/>
     <use style="fill:#cd853f;stroke:#cd853f;" x="229.419226" xlink:href="#m77e1534932" y="153.636135"/>
     <use style="fill:#cd853f;stroke:#cd853f;" x="246.672037" xlink:href="#m77e1534932" y="141.602661"/>
     <use style="fill:#cd853f;stroke:#cd853f;" x="263.700821" xlink:href="#m77e1534932" y="130.256881"/>
     <use style="fill:#cd853f;stroke:#cd853f;" x="280.830707" xlink:href="#m77e1534932" y="117.610995"/>
     <use style="fill:#cd853f;stroke:#cd853f;" x="298.108775" xlink:href="#m77e1534932" y="105.128396"/>
     <use style="fill:#cd853f;stroke:#cd853f;" x="314.966557" xlink:href="#m77e1534932" y="92.404363"/>
     <use style="fill:#cd853f;stroke:#cd853f;" x="332.304911" xlink:href="#m77e1534932" y="73.521893"/>
     <use style="fill:#cd853f;stroke:#cd853f;" x="349.403073" xlink:href="#m77e1534932" y="60.438283"/>
     <use style="fill:#cd853f;stroke:#cd853f;" x="366.412817" xlink:href="#m77e1534932" y="47.983896"/>
     <use style="fill:#cd853f;stroke:#cd853f;" x="383.551303" xlink:href="#m77e1534932" y="35.662251"/>
    </g>
   </g>
   <g id="line2d_52">
    <defs>
     <path d="M -3 3 
L 3 3 
L 3 -3 
L -3 -3 
z
" id="m5767ffe2cf" style="stroke:#8b0000;stroke-linejoin:miter;"/>
    </defs>
    <g clip-path="url(#p753223fea2)">
     <use style="fill:#8b0000;stroke:#8b0000;stroke-linejoin:miter;" x="60.011855" xlink:href="#m5767ffe2cf" y="279.394074"/>
     <use style="fill:#8b0000;stroke:#8b0000;stroke-linejoin:miter;" x="76.002677" xlink:href="#m5767ffe2cf" y="275.160692"/>
     <use style="fill:#8b0000;stroke:#8b0000;stroke-linejoin:miter;" x="89.522725" xlink:href="#m5767ffe2cf" y="270.401033"/>
     <use style="fill:#8b0000;stroke:#8b0000;stroke-linejoin:miter;" x="106.551508" xlink:href="#m5767ffe2cf" y="264.250947"/>
     <use style="fill:#8b0000;stroke:#8b0000;stroke-linejoin:miter;" x="125.084732" xlink:href="#m5767ffe2cf" y="257.525781"/>
     <use style="fill:#8b0000;stroke:#8b0000;stroke-linejoin:miter;" x="143.816612" xlink:href="#m5767ffe2cf" y="250.649337"/>
     <use style="fill:#8b0000;stroke:#8b0000;stroke-linejoin:miter;" x="162.027975" xlink:href="#m5767ffe2cf" y="243.950964"/>
     <use style="fill:#8b0000;stroke:#8b0000;stroke-linejoin:miter;" x="177.100394" xlink:href="#m5767ffe2cf" y="238.164349"/>
     <use style="fill:#8b0000;stroke:#8b0000;stroke-linejoin:miter;" x="195.743457" xlink:href="#m5767ffe2cf" y="230.992273"/>
     <use style="fill:#8b0000;stroke:#8b0000;stroke-linejoin:miter;" x="212.662401" xlink:href="#m5767ffe2cf" y="224.367381"/>
     <use style="fill:#8b0000;stroke:#8b0000;stroke-linejoin:miter;" x="229.419226" xlink:href="#m5767ffe2cf" y="217.552332"/>
     <use style="fill:#8b0000;stroke:#8b0000;stroke-linejoin:miter;" x="246.672037" xlink:href="#m5767ffe2cf" y="210.745553"/>
     <use style="fill:#8b0000;stroke:#8b0000;stroke-linejoin:miter;" x="263.700821" xlink:href="#m5767ffe2cf" y="203.222294"/>
     <use style="fill:#8b0000;stroke:#8b0000;stroke-linejoin:miter;" x="280.830707" xlink:href="#m5767ffe2cf" y="195.680755"/>
     <use style="fill:#8b0000;stroke:#8b0000;stroke-linejoin:miter;" x="298.108775" xlink:href="#m5767ffe2cf" y="187.803952"/>
     <use style="fill:#8b0000;stroke:#8b0000;stroke-linejoin:miter;" x="314.966557" xlink:href="#m5767ffe2cf" y="179.330829"/>
     <use style="fill:#8b0000;stroke:#8b0000;stroke-linejoin:miter;" x="332.304911" xlink:href="#m5767ffe2cf" y="170.074554"/>
     <use style="fill:#8b0000;stroke:#8b0000;stroke-linejoin:miter;" x="349.403073" xlink:href="#m5767ffe2cf" y="160.285922"/>
     <use style="fill:#8b0000;stroke:#8b0000;stroke-linejoin:miter;" x="366.412817" xlink:href="#m5767ffe2cf" y="149.846391"/>
     <use style="fill:#8b0000;stroke:#8b0000;stroke-linejoin:miter;" x="383.551303" xlink:href="#m5767ffe2cf" y="137.74488"/>
    </g>
   </g>
   <g id="line2d_53">
    <path clip-path="url(#p753223fea2)" d="M 60.011855 266.425756 
L 63.27993 264.162494 
L 66.548005 261.899232 
L 69.816081 259.63597 
L 73.084156 257.372708 
L 76.352231 255.109446 
L 79.620306 252.846185 
L 82.888381 250.582923 
L 86.156457 248.319661 
L 89.424532 246.056399 
L 92.692607 243.793137 
L 95.960682 241.529875 
L 99.228758 239.266613 
L 102.496833 237.003351 
L 105.764908 234.740089 
L 109.032983 232.476827 
L 112.301059 230.213565 
L 115.569134 227.950303 
L 118.837209 225.687041 
L 122.105284 223.423779 
L 125.373359 221.160517 
L 128.641435 218.897255 
L 131.90951 216.633993 
L 135.177585 214.370731 
L 138.44566 212.107469 
L 141.713736 209.844207 
L 144.981811 207.580946 
L 148.249886 205.317684 
L 151.517961 203.054422 
L 154.786037 200.79116 
L 158.054112 198.527898 
L 161.322187 196.264636 
L 164.590262 194.001374 
L 167.858337 191.738112 
L 171.126413 189.47485 
L 174.394488 187.211588 
L 177.662563 184.948326 
L 180.930638 182.685064 
L 184.198714 180.421802 
L 187.466789 178.15854 
L 190.734864 175.895278 
L 194.002939 173.632016 
L 197.271014 171.368754 
L 200.53909 169.105492 
L 203.807165 166.84223 
L 207.07524 164.578968 
L 210.343315 162.315706 
L 213.611391 160.052445 
L 216.879466 157.789183 
L 220.147541 155.525921 
L 223.415616 153.262659 
L 226.683692 150.999397 
L 229.951767 148.736135 
L 233.219842 146.472873 
L 236.487917 144.209611 
L 239.755992 141.946349 
L 243.024068 139.683087 
L 246.292143 137.419825 
L 249.560218 135.156563 
L 252.828293 132.893301 
L 256.096369 130.630039 
L 259.364444 128.366777 
L 262.632519 126.103515 
L 265.900594 123.840253 
L 269.16867 121.576991 
L 272.436745 119.313729 
L 275.70482 117.050467 
L 278.972895 114.787206 
L 282.24097 112.523944 
L 285.509046 110.260682 
L 288.777121 107.99742 
L 292.045196 105.734158 
L 295.313271 103.470896 
L 298.581347 101.207634 
L 301.849422 98.944372 
L 305.117497 96.68111 
L 308.385572 94.417848 
L 311.653648 92.154586 
L 314.921723 89.891324 
L 318.189798 87.628062 
L 321.457873 85.3648 
L 324.725948 83.101538 
L 327.994024 80.838276 
L 331.262099 78.575014 
L 334.530174 76.311752 
L 337.798249 74.04849 
L 341.066325 71.785228 
L 344.3344 69.521966 
L 347.602475 67.258705 
L 350.87055 64.995443 
L 354.138626 62.732181 
L 357.406701 60.468919 
L 360.674776 58.205657 
L 363.942851 55.942395 
L 367.210926 53.679133 
L 370.479002 51.415871 
L 373.747077 49.152609 
L 377.015152 46.889347 
L 380.283227 44.626085 
L 383.551303 42.362823 
" style="fill:none;stroke:#cd853f;stroke-linecap:round;stroke-width:1.5;"/>
   </g>
   <g id="line2d_54">
    <path clip-path="url(#p753223fea2)" d="M 60.011855 285.654766 
L 63.27993 284.265685 
L 66.548005 282.876604 
L 69.816081 281.487523 
L 73.084156 280.098442 
L 76.352231 278.709361 
L 79.620306 277.32028 
L 82.888381 275.931199 
L 86.156457 274.542118 
L 89.424532 273.153037 
L 92.692607 271.763956 
L 95.960682 270.374874 
L 99.228758 268.985793 
L 102.496833 267.596712 
L 105.764908 266.207631 
L 109.032983 264.81855 
L 112.301059 263.429469 
L 115.569134 262.040388 
L 118.837209 260.651307 
L 122.105284 259.262226 
L 125.373359 257.873145 
L 128.641435 256.484064 
L 131.90951 255.094983 
L 135.177585 253.705902 
L 138.44566 252.316821 
L 141.713736 250.92774 
L 144.981811 249.538659 
L 148.249886 248.149578 
L 151.517961 246.760496 
L 154.786037 245.371415 
L 158.054112 243.982334 
L 161.322187 242.593253 
L 164.590262 241.204172 
L 167.858337 239.815091 
L 171.126413 238.42601 
L 174.394488 237.036929 
L 177.662563 235.647848 
L 180.930638 234.258767 
L 184.198714 232.869686 
L 187.466789 231.480605 
L 190.734864 230.091524 
L 194.002939 228.702443 
L 197.271014 227.313362 
L 200.53909 225.924281 
L 203.807165 224.5352 
L 207.07524 223.146118 
L 210.343315 221.757037 
L 213.611391 220.367956 
L 216.879466 218.978875 
L 220.147541 217.589794 
L 223.415616 216.200713 
L 226.683692 214.811632 
L 229.951767 213.422551 
L 233.219842 212.03347 
L 236.487917 210.644389 
L 239.755992 209.255308 
L 243.024068 207.866227 
L 246.292143 206.477146 
L 249.560218 205.088065 
L 252.828293 203.698984 
L 256.096369 202.309903 
L 259.364444 200.920822 
L 262.632519 199.53174 
L 265.900594 198.142659 
L 269.16867 196.753578 
L 272.436745 195.364497 
L 275.70482 193.975416 
L 278.972895 192.586335 
L 282.24097 191.197254 
L 285.509046 189.808173 
L 288.777121 188.419092 
L 292.045196 187.030011 
L 295.313271 185.64093 
L 298.581347 184.251849 
L 301.849422 182.862768 
L 305.117497 181.473687 
L 308.385572 180.084606 
L 311.653648 178.695525 
L 314.921723 177.306444 
L 318.189798 175.917362 
L 321.457873 174.528281 
L 324.725948 173.1392 
L 327.994024 171.750119 
L 331.262099 170.361038 
L 334.530174 168.971957 
L 337.798249 167.582876 
L 341.066325 166.193795 
L 344.3344 164.804714 
L 347.602475 163.415633 
L 350.87055 162.026552 
L 354.138626 160.637471 
L 357.406701 159.24839 
L 360.674776 157.859309 
L 363.942851 156.470228 
L 367.210926 155.081147 
L 370.479002 153.692066 
L 373.747077 152.302984 
L 377.015152 150.913903 
L 380.283227 149.524822 
L 383.551303 148.135741 
" style="fill:none;stroke:#8b0000;stroke-linecap:round;stroke-width:1.5;"/>
   </g>
   <g id="patch_3">
    <path d="M 60.011855 298.154392 
L 60.011855 23.162625 
" style="fill:none;stroke:#262626;stroke-linecap:square;stroke-linejoin:miter;stroke-width:1.25;"/>
   </g>
   <g id="patch_4">
    <path d="M 383.551303 298.154392 
L 383.551303 23.162625 
" style="fill:none;stroke:#262626;stroke-linecap:square;stroke-linejoin:miter;stroke-width:1.25;"/>
   </g>
   <g id="patch_5">
    <path d="M 60.011855 298.154392 
L 383.551303 298.154392 
" style="fill:none;stroke:#262626;stroke-linecap:square;stroke-linejoin:miter;stroke-width:1.25;"/>
   </g>
   <g id="patch_6">
    <path d="M 60.011855 23.162625 
L 383.551303 23.162625 
" style="fill:none;stroke:#262626;stroke-linecap:square;stroke-linejoin:miter;stroke-width:1.25;"/>
   </g>
   <g id="text_8">
    <!-- Effect of Lanczos Degree on Elapsed Time -->
    <g style="fill:#262626;" transform="translate(91.577302 17.162625)scale(0.144 -0.144)">
     <defs>
      <path d="M 2554 2560 
L 3283 2560 
L 3283 2725 
L 2541 2725 
L 2541 3494 
C 2541 4022 2810 4352 3085 4352 
C 3168 4352 3264 4327 3328 4282 
C 3277 4269 3142 4225 3142 4067 
C 3142 3901 3270 3850 3360 3850 
C 3450 3850 3578 3901 3578 4067 
C 3578 4308 3347 4454 3091 4454 
C 2842 4454 2637 4333 2477 4181 
C 2330 4390 2086 4454 1837 4454 
C 1338 4454 634 4168 634 3469 
L 634 2725 
L 122 2725 
L 122 2560 
L 634 2560 
L 634 427 
C 634 184 608 153 198 153 
L 198 -13 
C 352 0 634 0 794 0 
C 960 0 1242 0 1395 -13 
L 1395 153 
C 986 153 960 178 960 427 
L 960 2560 
L 2227 2560 
L 2227 427 
C 2227 184 2202 153 1792 153 
L 1792 -13 
C 1946 0 2240 0 2406 0 
C 2592 0 2918 0 3091 -13 
L 3091 153 
C 2630 153 2554 153 2554 439 
L 2554 2560 
z
M 947 2725 
L 947 3469 
C 947 4047 1395 4352 1824 4352 
C 1920 4352 2170 4332 2323 4187 
C 2208 4187 2099 4136 2099 3977 
C 2099 3812 2246 3767 2259 3767 
C 2227 3652 2227 3526 2227 3481 
L 2227 2725 
L 947 2725 
z
" id="CMR17-b" transform="scale(0.015625)"/>
      <path d="M 979 2560 
L 1709 2560 
L 1709 2725 
L 966 2725 
L 966 3494 
C 966 4022 1235 4352 1510 4352 
C 1594 4352 1690 4327 1754 4282 
C 1702 4269 1568 4225 1568 4067 
C 1568 3901 1696 3850 1786 3850 
C 1875 3850 2003 3901 2003 4067 
C 2003 4308 1773 4454 1517 4454 
C 1152 4454 653 4156 653 3481 
L 653 2725 
L 141 2725 
L 141 2560 
L 653 2560 
L 653 427 
C 653 184 627 153 218 153 
L 218 -13 
C 371 0 666 0 832 0 
C 1018 0 1344 0 1517 -13 
L 1517 153 
C 1056 153 979 153 979 439 
L 979 2560 
z
" id="CMR17-66" transform="scale(0.015625)"/>
      <path d="M 333 4352 
L 333 4186 
C 774 4186 845 4186 845 3900 
L 845 452 
C 845 166 774 166 333 166 
L 333 0 
L 2368 0 
C 3398 0 4224 943 4224 2141 
C 4224 3346 3411 4352 2368 4352 
L 333 4352 
z
M 1523 166 
C 1267 166 1254 197 1254 414 
L 1254 3938 
C 1254 4155 1267 4186 1523 4186 
L 2240 4186 
C 2771 4186 3750 3874 3750 2141 
C 3750 1242 3488 879 3366 707 
C 3213 510 2848 166 2240 166 
L 1523 166 
z
" id="CMR17-44" transform="scale(0.015625)"/>
      <path d="M 3981 4326 
L 288 4326 
L 179 2918 
L 294 2918 
C 378 3976 467 4160 1453 4160 
C 1568 4160 1754 4160 1805 4154 
C 1926 4135 1926 4058 1926 3912 
L 1926 459 
C 1926 230 1907 160 1376 160 
L 1197 160 
L 1197 0 
C 1504 0 1824 0 2138 0 
C 2451 0 2771 0 3078 0 
L 3078 160 
L 2899 160 
C 2368 160 2349 230 2349 459 
L 2349 3912 
C 2349 4052 2349 4129 2464 4154 
C 2515 4160 2701 4160 2816 4160 
C 3795 4160 3891 3976 3974 2918 
L 4090 2918 
L 3981 4326 
z
" id="CMR17-54" transform="scale(0.015625)"/>
     </defs>
     <use transform="scale(0.996264)" xlink:href="#CMR17-45"/>
     <use transform="translate(62.586301 0)scale(0.996264)" xlink:href="#CMR17-b"/>
     <use transform="translate(114.930978 0)scale(0.996264)" xlink:href="#CMR17-65"/>
     <use transform="translate(155.416638 0)scale(0.996264)" xlink:href="#CMR17-63"/>
     <use transform="translate(195.902299 0)scale(0.996264)" xlink:href="#CMR17-74"/>
     <use transform="translate(261.259033 0)scale(0.996264)" xlink:href="#CMR17-6f"/>
     <use transform="translate(306.94951 0)scale(0.996264)" xlink:href="#CMR17-66"/>
     <use transform="translate(364.498989 0)scale(0.996264)" xlink:href="#CMR17-4c"/>
     <use transform="translate(421.880397 0)scale(0.996264)" xlink:href="#CMR17-61"/>
     <use transform="translate(467.570874 0)scale(0.996264)" xlink:href="#CMR17-6e"/>
     <use transform="translate(518.466244 0)scale(0.996264)" xlink:href="#CMR17-63"/>
     <use transform="translate(558.951904 0)scale(0.996264)" xlink:href="#CMR17-7a"/>
     <use transform="translate(599.437564 0)scale(0.996264)" xlink:href="#CMR17-6f"/>
     <use transform="translate(645.128042 0)scale(0.996264)" xlink:href="#CMR17-73"/>
     <use transform="translate(711.005346 0)scale(0.996264)" xlink:href="#CMR17-44"/>
     <use transform="translate(781.398901 0)scale(0.996264)" xlink:href="#CMR17-65"/>
     <use transform="translate(821.884562 0)scale(0.996264)" xlink:href="#CMR17-67"/>
     <use transform="translate(867.575039 0)scale(0.996264)" xlink:href="#CMR17-72"/>
     <use transform="translate(902.855807 0)scale(0.996264)" xlink:href="#CMR17-65"/>
     <use transform="translate(943.341467 0)scale(0.996264)" xlink:href="#CMR17-65"/>
     <use transform="translate(1013.903094 0)scale(0.996264)" xlink:href="#CMR17-6f"/>
     <use transform="translate(1059.593571 0)scale(0.996264)" xlink:href="#CMR17-6e"/>
     <use transform="translate(1140.564907 0)scale(0.996264)" xlink:href="#CMR17-45"/>
     <use transform="translate(1203.151208 0)scale(0.996264)" xlink:href="#CMR17-6c"/>
     <use transform="translate(1228.022266 0)scale(0.996264)" xlink:href="#CMR17-61"/>
     <use transform="translate(1273.712743 0)scale(0.996264)" xlink:href="#CMR17-70"/>
     <use transform="translate(1324.608113 0)scale(0.996264)" xlink:href="#CMR17-73"/>
     <use transform="translate(1360.409451 0)scale(0.996264)" xlink:href="#CMR17-65"/>
     <use transform="translate(1400.895111 0)scale(0.996264)" xlink:href="#CMR17-64"/>
     <use transform="translate(1481.866447 0)scale(0.996264)" xlink:href="#CMR17-54"/>
     <use transform="translate(1548.376328 0)scale(0.996264)" xlink:href="#CMR17-69"/>
     <use transform="translate(1573.247387 0)scale(0.996264)" xlink:href="#CMR17-6d"/>
     <use transform="translate(1650.166976 0)scale(0.996264)" xlink:href="#CMR17-65"/>
    </g>
   </g>
   <g id="legend_1">
    <g id="patch_7">
     <path d="M 68.408495 99.630479 
L 206.74493 99.630479 
Q 209.14397 99.630479 209.14397 97.231439 
L 209.14397 31.559265 
Q 209.14397 29.160225 206.74493 29.160225 
L 68.408495 29.160225 
Q 66.009455 29.160225 66.009455 31.559265 
L 66.009455 97.231439 
Q 66.009455 99.630479 68.408495 99.630479 
z
" style="fill:#ffffff;opacity:0.8;stroke:#cccccc;stroke-linejoin:miter;"/>
    </g>
    <g id="line2d_55"/>
    <g id="line2d_56">
     <g>
      <use style="fill:#cd853f;stroke:#cd853f;" x="82.802735" xlink:href="#m77e1534932" y="38.156625"/>
     </g>
    </g>
    <g id="text_9">
     <!-- Orthogonalized -->
     <g style="fill:#262626;" transform="translate(104.394095 42.354945)scale(0.119952 -0.119952)">
      <defs>
       <path d="M 4307 2135 
C 4307 3437 3366 4416 2304 4416 
C 1216 4416 294 3424 294 2135 
C 294 845 1229 -128 2298 -128 
C 3392 -128 4307 864 4307 2135 
z
M 2304 -13 
C 1574 -13 781 711 781 2217 
C 781 3716 1651 4301 2298 4301 
C 2976 4301 3821 3698 3821 2217 
C 3821 686 3008 -13 2304 -13 
z
" id="CMR17-4f" transform="scale(0.015625)"/>
       <path d="M 2656 1933 
C 2656 2259 2592 2790 1837 2790 
C 1312 2790 1056 2368 979 2157 
L 973 2157 
L 973 4396 
L 211 4326 
L 211 4160 
C 589 4160 646 4122 646 3817 
L 646 426 
C 646 184 621 153 211 153 
L 211 -13 
C 365 0 646 0 813 0 
C 979 0 1267 0 1421 -13 
L 1421 153 
C 1011 153 986 178 986 428 
L 986 1658 
C 986 2247 1344 2688 1792 2688 
C 2266 2688 2317 2266 2317 1958 
L 2317 428 
C 2317 184 2291 153 1882 153 
L 1882 -13 
C 2035 0 2317 0 2483 0 
C 2650 0 2938 0 3091 -13 
L 3091 153 
C 2682 153 2656 178 2656 428 
L 2656 1933 
z
" id="CMR17-68" transform="scale(0.015625)"/>
      </defs>
      <use transform="scale(0.996264)" xlink:href="#CMR17-4f"/>
      <use transform="translate(71.714788 0)scale(0.996264)" xlink:href="#CMR17-72"/>
      <use transform="translate(106.995556 0)scale(0.996264)" xlink:href="#CMR17-74"/>
      <use transform="translate(142.276324 0)scale(0.996264)" xlink:href="#CMR17-68"/>
      <use transform="translate(193.171694 0)scale(0.996264)" xlink:href="#CMR17-6f"/>
      <use transform="translate(238.862171 0)scale(0.996264)" xlink:href="#CMR17-67"/>
      <use transform="translate(284.552648 0)scale(0.996264)" xlink:href="#CMR17-6f"/>
      <use transform="translate(330.243125 0)scale(0.996264)" xlink:href="#CMR17-6e"/>
      <use transform="translate(381.138495 0)scale(0.996264)" xlink:href="#CMR17-61"/>
      <use transform="translate(426.828972 0)scale(0.996264)" xlink:href="#CMR17-6c"/>
      <use transform="translate(451.700031 0)scale(0.996264)" xlink:href="#CMR17-69"/>
      <use transform="translate(476.571089 0)scale(0.996264)" xlink:href="#CMR17-7a"/>
      <use transform="translate(517.056749 0)scale(0.996264)" xlink:href="#CMR17-65"/>
      <use transform="translate(557.54241 0)scale(0.996264)" xlink:href="#CMR17-64"/>
     </g>
    </g>
    <g id="line2d_57"/>
    <g id="line2d_58">
     <g>
      <use style="fill:#8b0000;stroke:#8b0000;stroke-linejoin:miter;" x="82.802735" xlink:href="#m5767ffe2cf" y="54.874549"/>
     </g>
    </g>
    <g id="text_10">
     <!-- Not orthogonalized -->
     <g style="fill:#262626;" transform="translate(104.394095 59.072869)scale(0.119952 -0.119952)">
      <defs>
       <path d="M 1312 4250 
C 1267 4320 1261 4320 1139 4320 
L 326 4320 
L 326 4160 
L 448 4160 
C 704 4160 819 4129 838 4122 
L 838 610 
C 838 451 838 153 326 153 
L 326 -13 
C 474 0 742 0 902 0 
C 1062 0 1331 0 1478 -13 
L 1478 153 
C 966 153 966 451 966 610 
L 966 4033 
C 1011 3995 1011 3982 1056 3919 
L 3430 76 
C 3475 0 3494 0 3526 0 
C 3590 0 3590 19 3590 139 
L 3590 3705 
C 3590 3863 3590 4160 4102 4160 
L 4102 4326 
C 3955 4320 3686 4320 3526 4320 
C 3366 4320 3098 4320 2950 4326 
L 2950 4160 
C 3462 4160 3462 3862 3462 3703 
L 3462 763 
L 1312 4250 
z
" id="CMR17-4e" transform="scale(0.015625)"/>
      </defs>
      <use transform="scale(0.996264)" xlink:href="#CMR17-4e"/>
      <use transform="translate(69.07243 0)scale(0.996264)" xlink:href="#CMR17-6f"/>
      <use transform="translate(114.762907 0)scale(0.996264)" xlink:href="#CMR17-74"/>
      <use transform="translate(180.119641 0)scale(0.996264)" xlink:href="#CMR17-6f"/>
      <use transform="translate(225.810118 0)scale(0.996264)" xlink:href="#CMR17-72"/>
      <use transform="translate(261.090886 0)scale(0.996264)" xlink:href="#CMR17-74"/>
      <use transform="translate(296.371654 0)scale(0.996264)" xlink:href="#CMR17-68"/>
      <use transform="translate(347.267024 0)scale(0.996264)" xlink:href="#CMR17-6f"/>
      <use transform="translate(392.957501 0)scale(0.996264)" xlink:href="#CMR17-67"/>
      <use transform="translate(438.647978 0)scale(0.996264)" xlink:href="#CMR17-6f"/>
      <use transform="translate(484.338455 0)scale(0.996264)" xlink:href="#CMR17-6e"/>
      <use transform="translate(535.233825 0)scale(0.996264)" xlink:href="#CMR17-61"/>
      <use transform="translate(580.924302 0)scale(0.996264)" xlink:href="#CMR17-6c"/>
      <use transform="translate(605.79536 0)scale(0.996264)" xlink:href="#CMR17-69"/>
      <use transform="translate(630.666419 0)scale(0.996264)" xlink:href="#CMR17-7a"/>
      <use transform="translate(671.152079 0)scale(0.996264)" xlink:href="#CMR17-65"/>
      <use transform="translate(711.63774 0)scale(0.996264)" xlink:href="#CMR17-64"/>
     </g>
    </g>
    <g id="line2d_59">
     <path d="M 70.807535 71.592472 
L 94.797935 71.592472 
" style="fill:none;stroke:#cd853f;stroke-linecap:round;stroke-width:1.5;"/>
    </g>
    <g id="line2d_60"/>
    <g id="text_11">
     <!-- Orthogonalized -->
     <g style="fill:#262626;" transform="translate(104.394095 75.790792)scale(0.119952 -0.119952)">
      <use transform="scale(0.996264)" xlink:href="#CMR17-4f"/>
      <use transform="translate(71.714788 0)scale(0.996264)" xlink:href="#CMR17-72"/>
      <use transform="translate(106.995556 0)scale(0.996264)" xlink:href="#CMR17-74"/>
      <use transform="translate(142.276324 0)scale(0.996264)" xlink:href="#CMR17-68"/>
      <use transform="translate(193.171694 0)scale(0.996264)" xlink:href="#CMR17-6f"/>
      <use transform="translate(238.862171 0)scale(0.996264)" xlink:href="#CMR17-67"/>
      <use transform="translate(284.552648 0)scale(0.996264)" xlink:href="#CMR17-6f"/>
      <use transform="translate(330.243125 0)scale(0.996264)" xlink:href="#CMR17-6e"/>
      <use transform="translate(381.138495 0)scale(0.996264)" xlink:href="#CMR17-61"/>
      <use transform="translate(426.828972 0)scale(0.996264)" xlink:href="#CMR17-6c"/>
      <use transform="translate(451.700031 0)scale(0.996264)" xlink:href="#CMR17-69"/>
      <use transform="translate(476.571089 0)scale(0.996264)" xlink:href="#CMR17-7a"/>
      <use transform="translate(517.056749 0)scale(0.996264)" xlink:href="#CMR17-65"/>
      <use transform="translate(557.54241 0)scale(0.996264)" xlink:href="#CMR17-64"/>
     </g>
    </g>
    <g id="line2d_61">
     <path d="M 70.807535 88.310396 
L 94.797935 88.310396 
" style="fill:none;stroke:#8b0000;stroke-linecap:round;stroke-width:1.5;"/>
    </g>
    <g id="line2d_62"/>
    <g id="text_12">
     <!-- Not orthogonalized -->
     <g style="fill:#262626;" transform="translate(104.394095 92.508716)scale(0.119952 -0.119952)">
      <use transform="scale(0.996264)" xlink:href="#CMR17-4e"/>
      <use transform="translate(69.07243 0)scale(0.996264)" xlink:href="#CMR17-6f"/>
      <use transform="translate(114.762907 0)scale(0.996264)" xlink:href="#CMR17-74"/>
      <use transform="translate(180.119641 0)scale(0.996264)" xlink:href="#CMR17-6f"/>
      <use transform="translate(225.810118 0)scale(0.996264)" xlink:href="#CMR17-72"/>
      <use transform="translate(261.090886 0)scale(0.996264)" xlink:href="#CMR17-74"/>
      <use transform="translate(296.371654 0)scale(0.996264)" xlink:href="#CMR17-68"/>
      <use transform="translate(347.267024 0)scale(0.996264)" xlink:href="#CMR17-6f"/>
      <use transform="translate(392.957501 0)scale(0.996264)" xlink:href="#CMR17-67"/>
      <use transform="translate(438.647978 0)scale(0.996264)" xlink:href="#CMR17-6f"/>
      <use transform="translate(484.338455 0)scale(0.996264)" xlink:href="#CMR17-6e"/>
      <use transform="translate(535.233825 0)scale(0.996264)" xlink:href="#CMR17-61"/>
      <use transform="translate(580.924302 0)scale(0.996264)" xlink:href="#CMR17-6c"/>
      <use transform="translate(605.79536 0)scale(0.996264)" xlink:href="#CMR17-69"/>
      <use transform="translate(630.666419 0)scale(0.996264)" xlink:href="#CMR17-7a"/>
      <use transform="translate(671.152079 0)scale(0.996264)" xlink:href="#CMR17-65"/>
      <use transform="translate(711.63774 0)scale(0.996264)" xlink:href="#CMR17-64"/>
     </g>
    </g>
   </g>
  </g>
  <g id="axes_2">
   <g id="patch_8">
    <path d="M 444.556552 298.154392 
L 768.096 298.154392 
L 768.096 23.162625 
L 444.556552 23.162625 
z
" style="fill:none;"/>
   </g>
   <g id="matplotlib.axis_3">
    <g id="xtick_14">
     <g id="line2d_63">
      <g>
       <use style="fill:#262626;stroke:#262626;stroke-width:1.25;" x="444.556552" xlink:href="#meae94b9d34" y="298.154392"/>
      </g>
     </g>
     <g id="text_13">
      <!-- $\mathdefault{10^{1}}$ -->
      <g style="fill:#262626;" transform="translate(435.753018 316.786787)scale(0.132 -0.132)">
       <use transform="scale(0.996264)" xlink:href="#CMR17-31"/>
       <use transform="translate(45.690477 0)scale(0.996264)" xlink:href="#CMR17-30"/>
       <use transform="translate(91.380954 36.153639)scale(0.697382)" xlink:href="#CMR17-31"/>
      </g>
     </g>
    </g>
    <g id="xtick_15">
     <g id="line2d_64">
      <g>
       <use style="fill:#262626;stroke:#262626;stroke-width:1.25;" x="646.508695" xlink:href="#meae94b9d34" y="298.154392"/>
      </g>
     </g>
     <g id="text_14">
      <!-- $\mathdefault{10^{2}}$ -->
      <g style="fill:#262626;" transform="translate(637.70516 316.786787)scale(0.132 -0.132)">
       <use transform="scale(0.996264)" xlink:href="#CMR17-31"/>
       <use transform="translate(45.690477 0)scale(0.996264)" xlink:href="#CMR17-30"/>
       <use transform="translate(91.380954 36.153639)scale(0.697382)" xlink:href="#CMR17-32"/>
      </g>
     </g>
    </g>
    <g id="xtick_16">
     <g id="line2d_65">
      <g>
       <use style="fill:#262626;stroke:#262626;" x="505.350205" xlink:href="#m53ba18be64" y="298.154392"/>
      </g>
     </g>
    </g>
    <g id="xtick_17">
     <g id="line2d_66">
      <g>
       <use style="fill:#262626;stroke:#262626;" x="540.912212" xlink:href="#m53ba18be64" y="298.154392"/>
      </g>
     </g>
    </g>
    <g id="xtick_18">
     <g id="line2d_67">
      <g>
       <use style="fill:#262626;stroke:#262626;" x="566.143857" xlink:href="#m53ba18be64" y="298.154392"/>
      </g>
     </g>
    </g>
    <g id="xtick_19">
     <g id="line2d_68">
      <g>
       <use style="fill:#262626;stroke:#262626;" x="585.715042" xlink:href="#m53ba18be64" y="298.154392"/>
      </g>
     </g>
    </g>
    <g id="xtick_20">
     <g id="line2d_69">
      <g>
       <use style="fill:#262626;stroke:#262626;" x="601.705864" xlink:href="#m53ba18be64" y="298.154392"/>
      </g>
     </g>
    </g>
    <g id="xtick_21">
     <g id="line2d_70">
      <g>
       <use style="fill:#262626;stroke:#262626;" x="615.225912" xlink:href="#m53ba18be64" y="298.154392"/>
      </g>
     </g>
    </g>
    <g id="xtick_22">
     <g id="line2d_71">
      <g>
       <use style="fill:#262626;stroke:#262626;" x="626.93751" xlink:href="#m53ba18be64" y="298.154392"/>
      </g>
     </g>
    </g>
    <g id="xtick_23">
     <g id="line2d_72">
      <g>
       <use style="fill:#262626;stroke:#262626;" x="637.267872" xlink:href="#m53ba18be64" y="298.154392"/>
      </g>
     </g>
    </g>
    <g id="xtick_24">
     <g id="line2d_73">
      <g>
       <use style="fill:#262626;stroke:#262626;" x="707.302347" xlink:href="#m53ba18be64" y="298.154392"/>
      </g>
     </g>
    </g>
    <g id="xtick_25">
     <g id="line2d_74">
      <g>
       <use style="fill:#262626;stroke:#262626;" x="742.864354" xlink:href="#m53ba18be64" y="298.154392"/>
      </g>
     </g>
    </g>
    <g id="xtick_26">
     <g id="line2d_75">
      <g>
       <use style="fill:#262626;stroke:#262626;" x="768.096" xlink:href="#m53ba18be64" y="298.154392"/>
      </g>
     </g>
    </g>
    <g id="text_15">
     <!-- Lanczos degree -->
     <g style="fill:#262626;" transform="translate(560.147525 333.306473)scale(0.144 -0.144)">
      <use transform="scale(0.996264)" xlink:href="#CMR17-4c"/>
      <use transform="translate(57.381408 0)scale(0.996264)" xlink:href="#CMR17-61"/>
      <use transform="translate(103.071885 0)scale(0.996264)" xlink:href="#CMR17-6e"/>
      <use transform="translate(153.967255 0)scale(0.996264)" xlink:href="#CMR17-63"/>
      <use transform="translate(194.452915 0)scale(0.996264)" xlink:href="#CMR17-7a"/>
      <use transform="translate(234.938576 0)scale(0.996264)" xlink:href="#CMR17-6f"/>
      <use transform="translate(280.629053 0)scale(0.996264)" xlink:href="#CMR17-73"/>
      <use transform="translate(346.506357 0)scale(0.996264)" xlink:href="#CMR17-64"/>
      <use transform="translate(397.401727 0)scale(0.996264)" xlink:href="#CMR17-65"/>
      <use transform="translate(437.887387 0)scale(0.996264)" xlink:href="#CMR17-67"/>
      <use transform="translate(483.577864 0)scale(0.996264)" xlink:href="#CMR17-72"/>
      <use transform="translate(518.858632 0)scale(0.996264)" xlink:href="#CMR17-65"/>
      <use transform="translate(559.344292 0)scale(0.996264)" xlink:href="#CMR17-65"/>
     </g>
    </g>
   </g>
   <g id="matplotlib.axis_4">
    <g id="ytick_35">
     <g id="line2d_76">
      <path clip-path="url(#pe95c131da2)" d="M 444.556552 264.372045 
L 768.096 264.372045 
" style="fill:none;stroke:#cccccc;stroke-linecap:round;"/>
     </g>
     <g id="line2d_77">
      <g>
       <use style="fill:#262626;stroke:#262626;stroke-width:1.25;" x="444.556552" xlink:href="#m2c06c711ee" y="264.372045"/>
      </g>
     </g>
     <g id="text_16">
      <!-- $\mathdefault{10^{0}}$ -->
      <g style="fill:#262626;" transform="translate(417.449483 268.938242)scale(0.132 -0.132)">
       <use transform="scale(0.996264)" xlink:href="#CMR17-31"/>
       <use transform="translate(45.690477 0)scale(0.996264)" xlink:href="#CMR17-30"/>
       <use transform="translate(91.380954 36.153639)scale(0.697382)" xlink:href="#CMR17-30"/>
      </g>
     </g>
    </g>
    <g id="ytick_36">
     <g id="line2d_78">
      <path clip-path="url(#pe95c131da2)" d="M 444.556552 188.193659 
L 768.096 188.193659 
" style="fill:none;stroke:#cccccc;stroke-linecap:round;"/>
     </g>
     <g id="line2d_79">
      <g>
       <use style="fill:#262626;stroke:#262626;stroke-width:1.25;" x="444.556552" xlink:href="#m2c06c711ee" y="188.193659"/>
      </g>
     </g>
     <g id="text_17">
      <!-- $\mathdefault{10^{1}}$ -->
      <g style="fill:#262626;" transform="translate(417.449483 192.759857)scale(0.132 -0.132)">
       <use transform="scale(0.996264)" xlink:href="#CMR17-31"/>
       <use transform="translate(45.690477 0)scale(0.996264)" xlink:href="#CMR17-30"/>
       <use transform="translate(91.380954 36.153639)scale(0.697382)" xlink:href="#CMR17-31"/>
      </g>
     </g>
    </g>
    <g id="ytick_37">
     <g id="line2d_80">
      <path clip-path="url(#pe95c131da2)" d="M 444.556552 112.015274 
L 768.096 112.015274 
" style="fill:none;stroke:#cccccc;stroke-linecap:round;"/>
     </g>
     <g id="line2d_81">
      <g>
       <use style="fill:#262626;stroke:#262626;stroke-width:1.25;" x="444.556552" xlink:href="#m2c06c711ee" y="112.015274"/>
      </g>
     </g>
     <g id="text_18">
      <!-- $\mathdefault{10^{2}}$ -->
      <g style="fill:#262626;" transform="translate(417.449483 116.581471)scale(0.132 -0.132)">
       <use transform="scale(0.996264)" xlink:href="#CMR17-31"/>
       <use transform="translate(45.690477 0)scale(0.996264)" xlink:href="#CMR17-30"/>
       <use transform="translate(91.380954 36.153639)scale(0.697382)" xlink:href="#CMR17-32"/>
      </g>
     </g>
    </g>
    <g id="ytick_38">
     <g id="line2d_82">
      <path clip-path="url(#pe95c131da2)" d="M 444.556552 35.836888 
L 768.096 35.836888 
" style="fill:none;stroke:#cccccc;stroke-linecap:round;"/>
     </g>
     <g id="line2d_83">
      <g>
       <use style="fill:#262626;stroke:#262626;stroke-width:1.25;" x="444.556552" xlink:href="#m2c06c711ee" y="35.836888"/>
      </g>
     </g>
     <g id="text_19">
      <!-- $\mathdefault{10^{3}}$ -->
      <g style="fill:#262626;" transform="translate(417.449483 40.403086)scale(0.132 -0.132)">
       <defs>
        <path d="M 1414 2157 
C 1984 2157 2234 1662 2234 1090 
C 2234 320 1824 25 1453 25 
C 1114 25 563 194 390 693 
C 422 680 454 680 486 680 
C 640 680 755 782 755 948 
C 755 1133 614 1216 486 1216 
C 378 1216 211 1165 211 926 
C 211 335 787 -128 1466 -128 
C 2176 -128 2720 430 2720 1085 
C 2720 1707 2208 2157 1600 2227 
C 2086 2328 2554 2756 2554 3329 
C 2554 3820 2048 4179 1472 4179 
C 890 4179 378 3829 378 3329 
C 378 3110 544 3072 627 3072 
C 762 3072 877 3155 877 3321 
C 877 3486 762 3569 627 3569 
C 602 3569 570 3569 544 3557 
C 730 3959 1235 4032 1459 4032 
C 1683 4032 2106 3925 2106 3320 
C 2106 3143 2080 2828 1862 2550 
C 1670 2304 1453 2304 1242 2284 
C 1210 2284 1062 2269 1037 2269 
C 992 2263 966 2257 966 2208 
C 966 2163 973 2157 1101 2157 
L 1414 2157 
z
" id="CMR17-33" transform="scale(0.015625)"/>
       </defs>
       <use transform="scale(0.996264)" xlink:href="#CMR17-31"/>
       <use transform="translate(45.690477 0)scale(0.996264)" xlink:href="#CMR17-30"/>
       <use transform="translate(91.380954 36.153639)scale(0.697382)" xlink:href="#CMR17-33"/>
      </g>
     </g>
    </g>
    <g id="ytick_39">
     <g id="line2d_84">
      <g>
       <use style="fill:#262626;stroke:#262626;" x="444.556552" xlink:href="#m4890449642" y="294.686472"/>
      </g>
     </g>
    </g>
    <g id="ytick_40">
     <g id="line2d_85">
      <g>
       <use style="fill:#262626;stroke:#262626;" x="444.556552" xlink:href="#m4890449642" y="287.304024"/>
      </g>
     </g>
    </g>
    <g id="ytick_41">
     <g id="line2d_86">
      <g>
       <use style="fill:#262626;stroke:#262626;" x="444.556552" xlink:href="#m4890449642" y="281.272124"/>
      </g>
     </g>
    </g>
    <g id="ytick_42">
     <g id="line2d_87">
      <g>
       <use style="fill:#262626;stroke:#262626;" x="444.556552" xlink:href="#m4890449642" y="276.172226"/>
      </g>
     </g>
    </g>
    <g id="ytick_43">
     <g id="line2d_88">
      <g>
       <use style="fill:#262626;stroke:#262626;" x="444.556552" xlink:href="#m4890449642" y="271.754493"/>
      </g>
     </g>
    </g>
    <g id="ytick_44">
     <g id="line2d_89">
      <g>
       <use style="fill:#262626;stroke:#262626;" x="444.556552" xlink:href="#m4890449642" y="267.857777"/>
      </g>
     </g>
    </g>
    <g id="ytick_45">
     <g id="line2d_90">
      <g>
       <use style="fill:#262626;stroke:#262626;" x="444.556552" xlink:href="#m4890449642" y="241.440066"/>
      </g>
     </g>
    </g>
    <g id="ytick_46">
     <g id="line2d_91">
      <g>
       <use style="fill:#262626;stroke:#262626;" x="444.556552" xlink:href="#m4890449642" y="228.025718"/>
      </g>
     </g>
    </g>
    <g id="ytick_47">
     <g id="line2d_92">
      <g>
       <use style="fill:#262626;stroke:#262626;" x="444.556552" xlink:href="#m4890449642" y="218.508087"/>
      </g>
     </g>
    </g>
    <g id="ytick_48">
     <g id="line2d_93">
      <g>
       <use style="fill:#262626;stroke:#262626;" x="444.556552" xlink:href="#m4890449642" y="211.125638"/>
      </g>
     </g>
    </g>
    <g id="ytick_49">
     <g id="line2d_94">
      <g>
       <use style="fill:#262626;stroke:#262626;" x="444.556552" xlink:href="#m4890449642" y="205.093739"/>
      </g>
     </g>
    </g>
    <g id="ytick_50">
     <g id="line2d_95">
      <g>
       <use style="fill:#262626;stroke:#262626;" x="444.556552" xlink:href="#m4890449642" y="199.993841"/>
      </g>
     </g>
    </g>
    <g id="ytick_51">
     <g id="line2d_96">
      <g>
       <use style="fill:#262626;stroke:#262626;" x="444.556552" xlink:href="#m4890449642" y="195.576108"/>
      </g>
     </g>
    </g>
    <g id="ytick_52">
     <g id="line2d_97">
      <g>
       <use style="fill:#262626;stroke:#262626;" x="444.556552" xlink:href="#m4890449642" y="191.679391"/>
      </g>
     </g>
    </g>
    <g id="ytick_53">
     <g id="line2d_98">
      <g>
       <use style="fill:#262626;stroke:#262626;" x="444.556552" xlink:href="#m4890449642" y="165.26168"/>
      </g>
     </g>
    </g>
    <g id="ytick_54">
     <g id="line2d_99">
      <g>
       <use style="fill:#262626;stroke:#262626;" x="444.556552" xlink:href="#m4890449642" y="151.847332"/>
      </g>
     </g>
    </g>
    <g id="ytick_55">
     <g id="line2d_100">
      <g>
       <use style="fill:#262626;stroke:#262626;" x="444.556552" xlink:href="#m4890449642" y="142.329701"/>
      </g>
     </g>
    </g>
    <g id="ytick_56">
     <g id="line2d_101">
      <g>
       <use style="fill:#262626;stroke:#262626;" x="444.556552" xlink:href="#m4890449642" y="134.947253"/>
      </g>
     </g>
    </g>
    <g id="ytick_57">
     <g id="line2d_102">
      <g>
       <use style="fill:#262626;stroke:#262626;" x="444.556552" xlink:href="#m4890449642" y="128.915353"/>
      </g>
     </g>
    </g>
    <g id="ytick_58">
     <g id="line2d_103">
      <g>
       <use style="fill:#262626;stroke:#262626;" x="444.556552" xlink:href="#m4890449642" y="123.815455"/>
      </g>
     </g>
    </g>
    <g id="ytick_59">
     <g id="line2d_104">
      <g>
       <use style="fill:#262626;stroke:#262626;" x="444.556552" xlink:href="#m4890449642" y="119.397722"/>
      </g>
     </g>
    </g>
    <g id="ytick_60">
     <g id="line2d_105">
      <g>
       <use style="fill:#262626;stroke:#262626;" x="444.556552" xlink:href="#m4890449642" y="115.501006"/>
      </g>
     </g>
    </g>
    <g id="ytick_61">
     <g id="line2d_106">
      <g>
       <use style="fill:#262626;stroke:#262626;" x="444.556552" xlink:href="#m4890449642" y="89.083295"/>
      </g>
     </g>
    </g>
    <g id="ytick_62">
     <g id="line2d_107">
      <g>
       <use style="fill:#262626;stroke:#262626;" x="444.556552" xlink:href="#m4890449642" y="75.668947"/>
      </g>
     </g>
    </g>
    <g id="ytick_63">
     <g id="line2d_108">
      <g>
       <use style="fill:#262626;stroke:#262626;" x="444.556552" xlink:href="#m4890449642" y="66.151316"/>
      </g>
     </g>
    </g>
    <g id="ytick_64">
     <g id="line2d_109">
      <g>
       <use style="fill:#262626;stroke:#262626;" x="444.556552" xlink:href="#m4890449642" y="58.768867"/>
      </g>
     </g>
    </g>
    <g id="ytick_65">
     <g id="line2d_110">
      <g>
       <use style="fill:#262626;stroke:#262626;" x="444.556552" xlink:href="#m4890449642" y="52.736968"/>
      </g>
     </g>
    </g>
    <g id="ytick_66">
     <g id="line2d_111">
      <g>
       <use style="fill:#262626;stroke:#262626;" x="444.556552" xlink:href="#m4890449642" y="47.63707"/>
      </g>
     </g>
    </g>
    <g id="ytick_67">
     <g id="line2d_112">
      <g>
       <use style="fill:#262626;stroke:#262626;" x="444.556552" xlink:href="#m4890449642" y="43.219337"/>
      </g>
     </g>
    </g>
    <g id="ytick_68">
     <g id="line2d_113">
      <g>
       <use style="fill:#262626;stroke:#262626;" x="444.556552" xlink:href="#m4890449642" y="39.32262"/>
      </g>
     </g>
    </g>
    <g id="text_20">
     <!-- Process time (sec) -->
     <g style="fill:#262626;" transform="translate(409.862942 216.475151)rotate(-90)scale(0.144 -0.144)">
      <defs>
       <path d="M 1267 2042 
L 2291 2042 
C 3117 2042 3718 2578 3718 3184 
C 3718 3791 3130 4352 2291 4352 
L 333 4352 
L 333 4186 
C 774 4186 845 4186 845 3899 
L 845 446 
C 845 160 774 160 333 160 
L 333 0 
C 518 0 858 0 1056 0 
C 1254 0 1594 0 1779 0 
L 1779 160 
C 1338 160 1267 160 1267 446 
L 1267 2042 
z
M 1254 2176 
L 1254 3938 
C 1254 4155 1267 4186 1523 4186 
L 2170 4186 
C 2995 4186 3232 3714 3232 3184 
C 3232 2604 2950 2176 2170 2176 
L 1254 2176 
z
" id="CMR17-50" transform="scale(0.015625)"/>
      </defs>
      <use transform="scale(0.996264)" xlink:href="#CMR17-50"/>
      <use transform="translate(62.586301 0)scale(0.996264)" xlink:href="#CMR17-72"/>
      <use transform="translate(97.867068 0)scale(0.996264)" xlink:href="#CMR17-6f"/>
      <use transform="translate(146.159984 0)scale(0.996264)" xlink:href="#CMR17-63"/>
      <use transform="translate(186.645645 0)scale(0.996264)" xlink:href="#CMR17-65"/>
      <use transform="translate(227.131305 0)scale(0.996264)" xlink:href="#CMR17-73"/>
      <use transform="translate(262.932643 0)scale(0.996264)" xlink:href="#CMR17-73"/>
      <use transform="translate(328.809947 0)scale(0.996264)" xlink:href="#CMR17-74"/>
      <use transform="translate(364.090715 0)scale(0.996264)" xlink:href="#CMR17-69"/>
      <use transform="translate(388.961773 0)scale(0.996264)" xlink:href="#CMR17-6d"/>
      <use transform="translate(465.881363 0)scale(0.996264)" xlink:href="#CMR17-65"/>
      <use transform="translate(536.44299 0)scale(0.996264)" xlink:href="#CMR17-28"/>
      <use transform="translate(571.723757 0)scale(0.996264)" xlink:href="#CMR17-73"/>
      <use transform="translate(607.525095 0)scale(0.996264)" xlink:href="#CMR17-65"/>
      <use transform="translate(648.010756 0)scale(0.996264)" xlink:href="#CMR17-63"/>
      <use transform="translate(688.496416 0)scale(0.996264)" xlink:href="#CMR17-29"/>
     </g>
    </g>
   </g>
   <g id="line2d_114">
    <g clip-path="url(#pe95c131da2)">
     <use style="fill:#cd853f;stroke:#cd853f;" x="444.556552" xlink:href="#m77e1534932" y="258.49153"/>
     <use style="fill:#cd853f;stroke:#cd853f;" x="460.547375" xlink:href="#m77e1534932" y="251.885813"/>
     <use style="fill:#cd853f;stroke:#cd853f;" x="474.067422" xlink:href="#m77e1534932" y="245.361211"/>
     <use style="fill:#cd853f;stroke:#cd853f;" x="491.096206" xlink:href="#m77e1534932" y="235.328454"/>
     <use style="fill:#cd853f;stroke:#cd853f;" x="509.629429" xlink:href="#m77e1534932" y="224.206579"/>
     <use style="fill:#cd853f;stroke:#cd853f;" x="528.361309" xlink:href="#m77e1534932" y="212.782015"/>
     <use style="fill:#cd853f;stroke:#cd853f;" x="546.572673" xlink:href="#m77e1534932" y="200.858313"/>
     <use style="fill:#cd853f;stroke:#cd853f;" x="561.645092" xlink:href="#m77e1534932" y="191.123836"/>
     <use style="fill:#cd853f;stroke:#cd853f;" x="580.288155" xlink:href="#m77e1534932" y="178.633257"/>
     <use style="fill:#cd853f;stroke:#cd853f;" x="597.207099" xlink:href="#m77e1534932" y="167.669048"/>
     <use style="fill:#cd853f;stroke:#cd853f;" x="613.963923" xlink:href="#m77e1534932" y="156.173322"/>
     <use style="fill:#cd853f;stroke:#cd853f;" x="631.216734" xlink:href="#m77e1534932" y="144.076213"/>
     <use style="fill:#cd853f;stroke:#cd853f;" x="648.245518" xlink:href="#m77e1534932" y="132.641075"/>
     <use style="fill:#cd853f;stroke:#cd853f;" x="665.375404" xlink:href="#m77e1534932" y="120.042795"/>
     <use style="fill:#cd853f;stroke:#cd853f;" x="682.653473" xlink:href="#m77e1534932" y="107.476807"/>
     <use style="fill:#cd853f;stroke:#cd853f;" x="699.511255" xlink:href="#m77e1534932" y="94.510096"/>
     <use style="fill:#cd853f;stroke:#cd853f;" x="716.849608" xlink:href="#m77e1534932" y="73.346882"/>
     <use style="fill:#cd853f;stroke:#cd853f;" x="733.947771" xlink:href="#m77e1534932" y="59.957703"/>
     <use style="fill:#cd853f;stroke:#cd853f;" x="750.957515" xlink:href="#m77e1534932" y="47.588023"/>
     <use style="fill:#cd853f;stroke:#cd853f;" x="768.096" xlink:href="#m77e1534932" y="35.662251"/>
    </g>
   </g>
   <g id="line2d_115">
    <g clip-path="url(#pe95c131da2)">
     <use style="fill:#8b0000;stroke:#8b0000;stroke-linejoin:miter;" x="444.556552" xlink:href="#m5767ffe2cf" y="279.248863"/>
     <use style="fill:#8b0000;stroke:#8b0000;stroke-linejoin:miter;" x="460.547375" xlink:href="#m5767ffe2cf" y="274.575678"/>
     <use style="fill:#8b0000;stroke:#8b0000;stroke-linejoin:miter;" x="474.067422" xlink:href="#m5767ffe2cf" y="269.983999"/>
     <use style="fill:#8b0000;stroke:#8b0000;stroke-linejoin:miter;" x="491.096206" xlink:href="#m5767ffe2cf" y="263.88039"/>
     <use style="fill:#8b0000;stroke:#8b0000;stroke-linejoin:miter;" x="509.629429" xlink:href="#m5767ffe2cf" y="257.420936"/>
     <use style="fill:#8b0000;stroke:#8b0000;stroke-linejoin:miter;" x="528.361309" xlink:href="#m5767ffe2cf" y="251.257587"/>
     <use style="fill:#8b0000;stroke:#8b0000;stroke-linejoin:miter;" x="546.572673" xlink:href="#m5767ffe2cf" y="246.333564"/>
     <use style="fill:#8b0000;stroke:#8b0000;stroke-linejoin:miter;" x="561.645092" xlink:href="#m5767ffe2cf" y="240.790442"/>
     <use style="fill:#8b0000;stroke:#8b0000;stroke-linejoin:miter;" x="580.288155" xlink:href="#m5767ffe2cf" y="233.628722"/>
     <use style="fill:#8b0000;stroke:#8b0000;stroke-linejoin:miter;" x="597.207099" xlink:href="#m5767ffe2cf" y="227.022517"/>
     <use style="fill:#8b0000;stroke:#8b0000;stroke-linejoin:miter;" x="613.963923" xlink:href="#m5767ffe2cf" y="220.234568"/>
     <use style="fill:#8b0000;stroke:#8b0000;stroke-linejoin:miter;" x="631.216734" xlink:href="#m5767ffe2cf" y="213.416244"/>
     <use style="fill:#8b0000;stroke:#8b0000;stroke-linejoin:miter;" x="648.245518" xlink:href="#m5767ffe2cf" y="206.031864"/>
     <use style="fill:#8b0000;stroke:#8b0000;stroke-linejoin:miter;" x="665.375404" xlink:href="#m5767ffe2cf" y="198.527029"/>
     <use style="fill:#8b0000;stroke:#8b0000;stroke-linejoin:miter;" x="682.653473" xlink:href="#m5767ffe2cf" y="190.657258"/>
     <use style="fill:#8b0000;stroke:#8b0000;stroke-linejoin:miter;" x="699.511255" xlink:href="#m5767ffe2cf" y="182.228423"/>
     <use style="fill:#8b0000;stroke:#8b0000;stroke-linejoin:miter;" x="716.849608" xlink:href="#m5767ffe2cf" y="172.969447"/>
     <use style="fill:#8b0000;stroke:#8b0000;stroke-linejoin:miter;" x="733.947771" xlink:href="#m5767ffe2cf" y="163.175172"/>
     <use style="fill:#8b0000;stroke:#8b0000;stroke-linejoin:miter;" x="750.957515" xlink:href="#m5767ffe2cf" y="152.769901"/>
     <use style="fill:#8b0000;stroke:#8b0000;stroke-linejoin:miter;" x="768.096" xlink:href="#m5767ffe2cf" y="140.614185"/>
    </g>
   </g>
   <g id="line2d_116">
    <path clip-path="url(#pe95c131da2)" d="M 444.556552 269.102051 
L 447.824627 266.819823 
L 451.092703 264.537595 
L 454.360778 262.255368 
L 457.628853 259.97314 
L 460.896928 257.690912 
L 464.165004 255.408684 
L 467.433079 253.126456 
L 470.701154 250.844228 
L 473.969229 248.562 
L 477.237305 246.279772 
L 480.50538 243.997544 
L 483.773455 241.715316 
L 487.04153 239.433088 
L 490.309605 237.150861 
L 493.577681 234.868633 
L 496.845756 232.586405 
L 500.113831 230.304177 
L 503.381906 228.021949 
L 506.649982 225.739721 
L 509.918057 223.457493 
L 513.186132 221.175265 
L 516.454207 218.893037 
L 519.722283 216.610809 
L 522.990358 214.328581 
L 526.258433 212.046354 
L 529.526508 209.764126 
L 532.794583 207.481898 
L 536.062659 205.19967 
L 539.330734 202.917442 
L 542.598809 200.635214 
L 545.866884 198.352986 
L 549.13496 196.070758 
L 552.403035 193.78853 
L 555.67111 191.506302 
L 558.939185 189.224074 
L 562.207261 186.941847 
L 565.475336 184.659619 
L 568.743411 182.377391 
L 572.011486 180.095163 
L 575.279561 177.812935 
L 578.547637 175.530707 
L 581.815712 173.248479 
L 585.083787 170.966251 
L 588.351862 168.684023 
L 591.619938 166.401795 
L 594.888013 164.119567 
L 598.156088 161.83734 
L 601.424163 159.555112 
L 604.692239 157.272884 
L 607.960314 154.990656 
L 611.228389 152.708428 
L 614.496464 150.4262 
L 617.764539 148.143972 
L 621.032615 145.861744 
L 624.30069 143.579516 
L 627.568765 141.297288 
L 630.83684 139.01506 
L 634.104916 136.732833 
L 637.372991 134.450605 
L 640.641066 132.168377 
L 643.909141 129.886149 
L 647.177216 127.603921 
L 650.445292 125.321693 
L 653.713367 123.039465 
L 656.981442 120.757237 
L 660.249517 118.475009 
L 663.517593 116.192781 
L 666.785668 113.910553 
L 670.053743 111.628326 
L 673.321818 109.346098 
L 676.589894 107.06387 
L 679.857969 104.781642 
L 683.126044 102.499414 
L 686.394119 100.217186 
L 689.662194 97.934958 
L 692.93027 95.65273 
L 696.198345 93.370502 
L 699.46642 91.088274 
L 702.734495 88.806046 
L 706.002571 86.523819 
L 709.270646 84.241591 
L 712.538721 81.959363 
L 715.806796 79.677135 
L 719.074872 77.394907 
L 722.342947 75.112679 
L 725.611022 72.830451 
L 728.879097 70.548223 
L 732.147172 68.265995 
L 735.415248 65.983767 
L 738.683323 63.701539 
L 741.951398 61.419312 
L 745.219473 59.137084 
L 748.487549 56.854856 
L 751.755624 54.572628 
L 755.023699 52.2904 
L 758.291774 50.008172 
L 761.55985 47.725944 
L 764.827925 45.443716 
L 768.096 43.161488 
" style="fill:none;stroke:#cd853f;stroke-linecap:round;stroke-width:1.5;"/>
   </g>
   <g id="line2d_117">
    <path clip-path="url(#pe95c131da2)" d="M 444.556552 285.654766 
L 447.824627 284.303945 
L 451.092703 282.953123 
L 454.360778 281.602302 
L 457.628853 280.25148 
L 460.896928 278.900659 
L 464.165004 277.549837 
L 467.433079 276.199016 
L 470.701154 274.848194 
L 473.969229 273.497373 
L 477.237305 272.146551 
L 480.50538 270.79573 
L 483.773455 269.444908 
L 487.04153 268.094087 
L 490.309605 266.743265 
L 493.577681 265.392444 
L 496.845756 264.041622 
L 500.113831 262.690801 
L 503.381906 261.339979 
L 506.649982 259.989158 
L 509.918057 258.638336 
L 513.186132 257.287515 
L 516.454207 255.936693 
L 519.722283 254.585872 
L 522.990358 253.23505 
L 526.258433 251.884229 
L 529.526508 250.533407 
L 532.794583 249.182586 
L 536.062659 247.831764 
L 539.330734 246.480943 
L 542.598809 245.130121 
L 545.866884 243.7793 
L 549.13496 242.428478 
L 552.403035 241.077657 
L 555.67111 239.726835 
L 558.939185 238.376014 
L 562.207261 237.025192 
L 565.475336 235.674371 
L 568.743411 234.323549 
L 572.011486 232.972728 
L 575.279561 231.621906 
L 578.547637 230.271085 
L 581.815712 228.920263 
L 585.083787 227.569442 
L 588.351862 226.21862 
L 591.619938 224.867799 
L 594.888013 223.516977 
L 598.156088 222.166156 
L 601.424163 220.815334 
L 604.692239 219.464513 
L 607.960314 218.113691 
L 611.228389 216.76287 
L 614.496464 215.412048 
L 617.764539 214.061227 
L 621.032615 212.710405 
L 624.30069 211.359584 
L 627.568765 210.008763 
L 630.83684 208.657941 
L 634.104916 207.30712 
L 637.372991 205.956298 
L 640.641066 204.605477 
L 643.909141 203.254655 
L 647.177216 201.903834 
L 650.445292 200.553012 
L 653.713367 199.202191 
L 656.981442 197.851369 
L 660.249517 196.500548 
L 663.517593 195.149726 
L 666.785668 193.798905 
L 670.053743 192.448083 
L 673.321818 191.097262 
L 676.589894 189.74644 
L 679.857969 188.395619 
L 683.126044 187.044797 
L 686.394119 185.693976 
L 689.662194 184.343154 
L 692.93027 182.992333 
L 696.198345 181.641511 
L 699.46642 180.29069 
L 702.734495 178.939868 
L 706.002571 177.589047 
L 709.270646 176.238225 
L 712.538721 174.887404 
L 715.806796 173.536582 
L 719.074872 172.185761 
L 722.342947 170.834939 
L 725.611022 169.484118 
L 728.879097 168.133296 
L 732.147172 166.782475 
L 735.415248 165.431653 
L 738.683323 164.080832 
L 741.951398 162.73001 
L 745.219473 161.379189 
L 748.487549 160.028367 
L 751.755624 158.677546 
L 755.023699 157.326724 
L 758.291774 155.975903 
L 761.55985 154.625081 
L 764.827925 153.27426 
L 768.096 151.923438 
" style="fill:none;stroke:#8b0000;stroke-linecap:round;stroke-width:1.5;"/>
   </g>
   <g id="patch_9">
    <path d="M 444.556552 298.154392 
L 444.556552 23.162625 
" style="fill:none;stroke:#262626;stroke-linecap:square;stroke-linejoin:miter;stroke-width:1.25;"/>
   </g>
   <g id="patch_10">
    <path d="M 768.096 298.154392 
L 768.096 23.162625 
" style="fill:none;stroke:#262626;stroke-linecap:square;stroke-linejoin:miter;stroke-width:1.25;"/>
   </g>
   <g id="patch_11">
    <path d="M 444.556552 298.154392 
L 768.096 298.154392 
" style="fill:none;stroke:#262626;stroke-linecap:square;stroke-linejoin:miter;stroke-width:1.25;"/>
   </g>
   <g id="patch_12">
    <path d="M 444.556552 23.162625 
L 768.096 23.162625 
" style="fill:none;stroke:#262626;stroke-linecap:square;stroke-linejoin:miter;stroke-width:1.25;"/>
   </g>
   <g id="text_21">
    <!-- Effect of Lanczos Degree on Process Time -->
    <g style="fill:#262626;" transform="translate(477.058482 17.162625)scale(0.144 -0.144)">
     <use transform="scale(0.996264)" xlink:href="#CMR17-45"/>
     <use transform="translate(62.586301 0)scale(0.996264)" xlink:href="#CMR17-b"/>
     <use transform="translate(114.930978 0)scale(0.996264)" xlink:href="#CMR17-65"/>
     <use transform="translate(155.416638 0)scale(0.996264)" xlink:href="#CMR17-63"/>
     <use transform="translate(195.902299 0)scale(0.996264)" xlink:href="#CMR17-74"/>
     <use transform="translate(261.259033 0)scale(0.996264)" xlink:href="#CMR17-6f"/>
     <use transform="translate(306.94951 0)scale(0.996264)" xlink:href="#CMR17-66"/>
     <use transform="translate(364.498989 0)scale(0.996264)" xlink:href="#CMR17-4c"/>
     <use transform="translate(421.880397 0)scale(0.996264)" xlink:href="#CMR17-61"/>
     <use transform="translate(467.570874 0)scale(0.996264)" xlink:href="#CMR17-6e"/>
     <use transform="translate(518.466244 0)scale(0.996264)" xlink:href="#CMR17-63"/>
     <use transform="translate(558.951904 0)scale(0.996264)" xlink:href="#CMR17-7a"/>
     <use transform="translate(599.437564 0)scale(0.996264)" xlink:href="#CMR17-6f"/>
     <use transform="translate(645.128042 0)scale(0.996264)" xlink:href="#CMR17-73"/>
     <use transform="translate(711.005346 0)scale(0.996264)" xlink:href="#CMR17-44"/>
     <use transform="translate(781.398901 0)scale(0.996264)" xlink:href="#CMR17-65"/>
     <use transform="translate(821.884562 0)scale(0.996264)" xlink:href="#CMR17-67"/>
     <use transform="translate(867.575039 0)scale(0.996264)" xlink:href="#CMR17-72"/>
     <use transform="translate(902.855807 0)scale(0.996264)" xlink:href="#CMR17-65"/>
     <use transform="translate(943.341467 0)scale(0.996264)" xlink:href="#CMR17-65"/>
     <use transform="translate(1013.903094 0)scale(0.996264)" xlink:href="#CMR17-6f"/>
     <use transform="translate(1059.593571 0)scale(0.996264)" xlink:href="#CMR17-6e"/>
     <use transform="translate(1140.564907 0)scale(0.996264)" xlink:href="#CMR17-50"/>
     <use transform="translate(1203.151208 0)scale(0.996264)" xlink:href="#CMR17-72"/>
     <use transform="translate(1238.431976 0)scale(0.996264)" xlink:href="#CMR17-6f"/>
     <use transform="translate(1286.724892 0)scale(0.996264)" xlink:href="#CMR17-63"/>
     <use transform="translate(1327.210552 0)scale(0.996264)" xlink:href="#CMR17-65"/>
     <use transform="translate(1367.696212 0)scale(0.996264)" xlink:href="#CMR17-73"/>
     <use transform="translate(1403.49755 0)scale(0.996264)" xlink:href="#CMR17-73"/>
     <use transform="translate(1469.374854 0)scale(0.996264)" xlink:href="#CMR17-54"/>
     <use transform="translate(1535.884735 0)scale(0.996264)" xlink:href="#CMR17-69"/>
     <use transform="translate(1560.755793 0)scale(0.996264)" xlink:href="#CMR17-6d"/>
     <use transform="translate(1637.675383 0)scale(0.996264)" xlink:href="#CMR17-65"/>
    </g>
   </g>
   <g id="legend_2">
    <g id="patch_13">
     <path d="M 452.953192 99.630479 
L 591.289627 99.630479 
Q 593.688667 99.630479 593.688667 97.231439 
L 593.688667 31.559265 
Q 593.688667 29.160225 591.289627 29.160225 
L 452.953192 29.160225 
Q 450.554152 29.160225 450.554152 31.559265 
L 450.554152 97.231439 
Q 450.554152 99.630479 452.953192 99.630479 
z
" style="fill:#ffffff;opacity:0.8;stroke:#cccccc;stroke-linejoin:miter;"/>
    </g>
    <g id="line2d_118"/>
    <g id="line2d_119">
     <g>
      <use style="fill:#cd853f;stroke:#cd853f;" x="467.347432" xlink:href="#m77e1534932" y="38.156625"/>
     </g>
    </g>
    <g id="text_22">
     <!-- Orthogonalized -->
     <g style="fill:#262626;" transform="translate(488.938792 42.354945)scale(0.119952 -0.119952)">
      <use transform="scale(0.996264)" xlink:href="#CMR17-4f"/>
      <use transform="translate(71.714788 0)scale(0.996264)" xlink:href="#CMR17-72"/>
      <use transform="translate(106.995556 0)scale(0.996264)" xlink:href="#CMR17-74"/>
      <use transform="translate(142.276324 0)scale(0.996264)" xlink:href="#CMR17-68"/>
      <use transform="translate(193.171694 0)scale(0.996264)" xlink:href="#CMR17-6f"/>
      <use transform="translate(238.862171 0)scale(0.996264)" xlink:href="#CMR17-67"/>
      <use transform="translate(284.552648 0)scale(0.996264)" xlink:href="#CMR17-6f"/>
      <use transform="translate(330.243125 0)scale(0.996264)" xlink:href="#CMR17-6e"/>
      <use transform="translate(381.138495 0)scale(0.996264)" xlink:href="#CMR17-61"/>
      <use transform="translate(426.828972 0)scale(0.996264)" xlink:href="#CMR17-6c"/>
      <use transform="translate(451.700031 0)scale(0.996264)" xlink:href="#CMR17-69"/>
      <use transform="translate(476.571089 0)scale(0.996264)" xlink:href="#CMR17-7a"/>
      <use transform="translate(517.056749 0)scale(0.996264)" xlink:href="#CMR17-65"/>
      <use transform="translate(557.54241 0)scale(0.996264)" xlink:href="#CMR17-64"/>
     </g>
    </g>
    <g id="line2d_120"/>
    <g id="line2d_121">
     <g>
      <use style="fill:#8b0000;stroke:#8b0000;stroke-linejoin:miter;" x="467.347432" xlink:href="#m5767ffe2cf" y="54.874549"/>
     </g>
    </g>
    <g id="text_23">
     <!-- Not orthogonalized -->
     <g style="fill:#262626;" transform="translate(488.938792 59.072869)scale(0.119952 -0.119952)">
      <use transform="scale(0.996264)" xlink:href="#CMR17-4e"/>
      <use transform="translate(69.07243 0)scale(0.996264)" xlink:href="#CMR17-6f"/>
      <use transform="translate(114.762907 0)scale(0.996264)" xlink:href="#CMR17-74"/>
      <use transform="translate(180.119641 0)scale(0.996264)" xlink:href="#CMR17-6f"/>
      <use transform="translate(225.810118 0)scale(0.996264)" xlink:href="#CMR17-72"/>
      <use transform="translate(261.090886 0)scale(0.996264)" xlink:href="#CMR17-74"/>
      <use transform="translate(296.371654 0)scale(0.996264)" xlink:href="#CMR17-68"/>
      <use transform="translate(347.267024 0)scale(0.996264)" xlink:href="#CMR17-6f"/>
      <use transform="translate(392.957501 0)scale(0.996264)" xlink:href="#CMR17-67"/>
      <use transform="translate(438.647978 0)scale(0.996264)" xlink:href="#CMR17-6f"/>
      <use transform="translate(484.338455 0)scale(0.996264)" xlink:href="#CMR17-6e"/>
      <use transform="translate(535.233825 0)scale(0.996264)" xlink:href="#CMR17-61"/>
      <use transform="translate(580.924302 0)scale(0.996264)" xlink:href="#CMR17-6c"/>
      <use transform="translate(605.79536 0)scale(0.996264)" xlink:href="#CMR17-69"/>
      <use transform="translate(630.666419 0)scale(0.996264)" xlink:href="#CMR17-7a"/>
      <use transform="translate(671.152079 0)scale(0.996264)" xlink:href="#CMR17-65"/>
      <use transform="translate(711.63774 0)scale(0.996264)" xlink:href="#CMR17-64"/>
     </g>
    </g>
    <g id="line2d_122">
     <path d="M 455.352232 71.592472 
L 479.342632 71.592472 
" style="fill:none;stroke:#cd853f;stroke-linecap:round;stroke-width:1.5;"/>
    </g>
    <g id="line2d_123"/>
    <g id="text_24">
     <!-- Orthogonalized -->
     <g style="fill:#262626;" transform="translate(488.938792 75.790792)scale(0.119952 -0.119952)">
      <use transform="scale(0.996264)" xlink:href="#CMR17-4f"/>
      <use transform="translate(71.714788 0)scale(0.996264)" xlink:href="#CMR17-72"/>
      <use transform="translate(106.995556 0)scale(0.996264)" xlink:href="#CMR17-74"/>
      <use transform="translate(142.276324 0)scale(0.996264)" xlink:href="#CMR17-68"/>
      <use transform="translate(193.171694 0)scale(0.996264)" xlink:href="#CMR17-6f"/>
      <use transform="translate(238.862171 0)scale(0.996264)" xlink:href="#CMR17-67"/>
      <use transform="translate(284.552648 0)scale(0.996264)" xlink:href="#CMR17-6f"/>
      <use transform="translate(330.243125 0)scale(0.996264)" xlink:href="#CMR17-6e"/>
      <use transform="translate(381.138495 0)scale(0.996264)" xlink:href="#CMR17-61"/>
      <use transform="translate(426.828972 0)scale(0.996264)" xlink:href="#CMR17-6c"/>
      <use transform="translate(451.700031 0)scale(0.996264)" xlink:href="#CMR17-69"/>
      <use transform="translate(476.571089 0)scale(0.996264)" xlink:href="#CMR17-7a"/>
      <use transform="translate(517.056749 0)scale(0.996264)" xlink:href="#CMR17-65"/>
      <use transform="translate(557.54241 0)scale(0.996264)" xlink:href="#CMR17-64"/>
     </g>
    </g>
    <g id="line2d_124">
     <path d="M 455.352232 88.310396 
L 479.342632 88.310396 
" style="fill:none;stroke:#8b0000;stroke-linecap:round;stroke-width:1.5;"/>
    </g>
    <g id="line2d_125"/>
    <g id="text_25">
     <!-- Not orthogonalized -->
     <g style="fill:#262626;" transform="translate(488.938792 92.508716)scale(0.119952 -0.119952)">
      <use transform="scale(0.996264)" xlink:href="#CMR17-4e"/>
      <use transform="translate(69.07243 0)scale(0.996264)" xlink:href="#CMR17-6f"/>
      <use transform="translate(114.762907 0)scale(0.996264)" xlink:href="#CMR17-74"/>
      <use transform="translate(180.119641 0)scale(0.996264)" xlink:href="#CMR17-6f"/>
      <use transform="translate(225.810118 0)scale(0.996264)" xlink:href="#CMR17-72"/>
      <use transform="translate(261.090886 0)scale(0.996264)" xlink:href="#CMR17-74"/>
      <use transform="translate(296.371654 0)scale(0.996264)" xlink:href="#CMR17-68"/>
      <use transform="translate(347.267024 0)scale(0.996264)" xlink:href="#CMR17-6f"/>
      <use transform="translate(392.957501 0)scale(0.996264)" xlink:href="#CMR17-67"/>
      <use transform="translate(438.647978 0)scale(0.996264)" xlink:href="#CMR17-6f"/>
      <use transform="translate(484.338455 0)scale(0.996264)" xlink:href="#CMR17-6e"/>
      <use transform="translate(535.233825 0)scale(0.996264)" xlink:href="#CMR17-61"/>
      <use transform="translate(580.924302 0)scale(0.996264)" xlink:href="#CMR17-6c"/>
      <use transform="translate(605.79536 0)scale(0.996264)" xlink:href="#CMR17-69"/>
      <use transform="translate(630.666419 0)scale(0.996264)" xlink:href="#CMR17-7a"/>
      <use transform="translate(671.152079 0)scale(0.996264)" xlink:href="#CMR17-65"/>
      <use transform="translate(711.63774 0)scale(0.996264)" xlink:href="#CMR17-64"/>
     </g>
    </g>
   </g>
  </g>
 </g>
 <defs>
  <clipPath id="p753223fea2">
   <rect height="274.991767" width="323.539448" x="60.011855" y="23.162625"/>
  </clipPath>
  <clipPath id="pe95c131da2">
   <rect height="274.991767" width="323.539448" x="444.556552" y="23.162625"/>
  </clipPath>
 </defs>
</svg>
