<?xml version="1.0" encoding="utf-8" standalone="no"?>
<!DOCTYPE svg PUBLIC "-//W3C//DTD SVG 1.1//EN"
  "http://www.w3.org/Graphics/SVG/1.1/DTD/svg11.dtd">
<svg height="340.104233pt" version="1.1" viewBox="0 0 476.138652 340.104233" width="476.138652pt" xmlns="http://www.w3.org/2000/svg" xmlns:xlink="http://www.w3.org/1999/xlink">
 <metadata>
  <rdf:RDF xmlns:cc="http://creativecommons.org/ns#" xmlns:dc="http://purl.org/dc/elements/1.1/" xmlns:rdf="http://www.w3.org/1999/02/22-rdf-syntax-ns#">
   <cc:Work>
    <dc:type rdf:resource="http://purl.org/dc/dcmitype/StillImage"/>
    <dc:date>2021-08-16T19:18:06.990569</dc:date>
    <dc:format>image/svg+xml</dc:format>
    <dc:creator>
     <cc:Agent>
      <dc:title>Matplotlib v3.4.2, https://matplotlib.org/</dc:title>
     </cc:Agent>
    </dc:creator>
   </cc:Work>
  </rdf:RDF>
 </metadata>
 <defs>
  <style type="text/css">*{stroke-linecap:butt;stroke-linejoin:round;}</style>
 </defs>
 <g id="figure_1">
  <g id="patch_1">
   <path d="M 0 340.104233 
L 476.138652 340.104233 
L 476.138652 0 
L 0 0 
z
" style="fill:none;"/>
  </g>
  <g id="axes_1">
   <g id="patch_2">
    <path d="M 69.535118 294.962625 
L 460.135118 294.962625 
L 460.135118 23.162625 
L 69.535118 23.162625 
z
" style="fill:none;"/>
   </g>
   <g id="matplotlib.axis_1">
    <g id="xtick_1">
     <g id="line2d_1">
      <defs>
       <path d="M 0 0 
L 0 6 
" id="m70542a619a" style="stroke:#262626;stroke-width:1.25;"/>
      </defs>
      <g>
       <use style="fill:#262626;stroke:#262626;stroke-width:1.25;" x="69.535118" xlink:href="#m70542a619a" y="294.962625"/>
      </g>
     </g>
     <g id="text_1">
      <!-- $\mathdefault{10^{1}}$ -->
      <g style="fill:#262626;" transform="translate(60.731583 313.59502)scale(0.132 -0.132)">
       <defs>
        <path d="M 1702 4058 
C 1702 4192 1696 4192 1606 4192 
C 1357 3916 979 3827 621 3827 
C 602 3827 570 3827 563 3808 
C 557 3795 557 3782 557 3648 
C 755 3648 1088 3686 1344 3839 
L 1344 461 
C 1344 236 1331 160 781 160 
L 589 160 
L 589 0 
C 896 0 1216 0 1523 0 
C 1830 0 2150 0 2458 0 
L 2458 160 
L 2266 160 
C 1715 160 1702 230 1702 458 
L 1702 4058 
z
" id="CMR17-31" transform="scale(0.015625)"/>
        <path d="M 2688 2025 
C 2688 2416 2682 3080 2413 3591 
C 2176 4039 1798 4198 1466 4198 
C 1158 4198 768 4058 525 3597 
C 269 3118 243 2524 243 2025 
C 243 1661 250 1106 448 619 
C 723 -39 1216 -128 1466 -128 
C 1760 -128 2208 -7 2470 600 
C 2662 1042 2688 1559 2688 2025 
z
M 1466 -26 
C 1056 -26 813 325 723 812 
C 653 1188 653 1738 653 2096 
C 653 2588 653 2997 736 3387 
C 858 3929 1216 4096 1466 4096 
C 1728 4096 2067 3923 2189 3400 
C 2272 3036 2278 2607 2278 2096 
C 2278 1680 2278 1169 2202 792 
C 2067 95 1690 -26 1466 -26 
z
" id="CMR17-30" transform="scale(0.015625)"/>
       </defs>
       <use transform="scale(0.996264)" xlink:href="#CMR17-31"/>
       <use transform="translate(45.690477 0)scale(0.996264)" xlink:href="#CMR17-30"/>
       <use transform="translate(91.380954 36.153639)scale(0.697382)" xlink:href="#CMR17-31"/>
      </g>
     </g>
    </g>
    <g id="xtick_2">
     <g id="line2d_2">
      <g>
       <use style="fill:#262626;stroke:#262626;stroke-width:1.25;" x="264.835118" xlink:href="#m70542a619a" y="294.962625"/>
      </g>
     </g>
     <g id="text_2">
      <!-- $\mathdefault{10^{2}}$ -->
      <g style="fill:#262626;" transform="translate(256.031583 313.59502)scale(0.132 -0.132)">
       <defs>
        <path d="M 2669 989 
L 2554 989 
C 2490 536 2438 459 2413 420 
C 2381 369 1920 369 1830 369 
L 602 369 
C 832 619 1280 1072 1824 1597 
C 2214 1967 2669 2402 2669 3035 
C 2669 3790 2067 4224 1395 4224 
C 691 4224 262 3604 262 3030 
C 262 2780 448 2748 525 2748 
C 589 2748 781 2787 781 3010 
C 781 3207 614 3264 525 3264 
C 486 3264 448 3258 422 3245 
C 544 3790 915 4058 1306 4058 
C 1862 4058 2227 3617 2227 3035 
C 2227 2479 1901 2000 1536 1584 
L 262 146 
L 262 0 
L 2515 0 
L 2669 989 
z
" id="CMR17-32" transform="scale(0.015625)"/>
       </defs>
       <use transform="scale(0.996264)" xlink:href="#CMR17-31"/>
       <use transform="translate(45.690477 0)scale(0.996264)" xlink:href="#CMR17-30"/>
       <use transform="translate(91.380954 36.153639)scale(0.697382)" xlink:href="#CMR17-32"/>
      </g>
     </g>
    </g>
    <g id="xtick_3">
     <g id="line2d_3">
      <g>
       <use style="fill:#262626;stroke:#262626;stroke-width:1.25;" x="460.135118" xlink:href="#m70542a619a" y="294.962625"/>
      </g>
     </g>
     <g id="text_3">
      <!-- $\mathdefault{10^{3}}$ -->
      <g style="fill:#262626;" transform="translate(451.331583 313.59502)scale(0.132 -0.132)">
       <defs>
        <path d="M 1414 2157 
C 1984 2157 2234 1662 2234 1090 
C 2234 320 1824 25 1453 25 
C 1114 25 563 194 390 693 
C 422 680 454 680 486 680 
C 640 680 755 782 755 948 
C 755 1133 614 1216 486 1216 
C 378 1216 211 1165 211 926 
C 211 335 787 -128 1466 -128 
C 2176 -128 2720 430 2720 1085 
C 2720 1707 2208 2157 1600 2227 
C 2086 2328 2554 2756 2554 3329 
C 2554 3820 2048 4179 1472 4179 
C 890 4179 378 3829 378 3329 
C 378 3110 544 3072 627 3072 
C 762 3072 877 3155 877 3321 
C 877 3486 762 3569 627 3569 
C 602 3569 570 3569 544 3557 
C 730 3959 1235 4032 1459 4032 
C 1683 4032 2106 3925 2106 3320 
C 2106 3143 2080 2828 1862 2550 
C 1670 2304 1453 2304 1242 2284 
C 1210 2284 1062 2269 1037 2269 
C 992 2263 966 2257 966 2208 
C 966 2163 973 2157 1101 2157 
L 1414 2157 
z
" id="CMR17-33" transform="scale(0.015625)"/>
       </defs>
       <use transform="scale(0.996264)" xlink:href="#CMR17-31"/>
       <use transform="translate(45.690477 0)scale(0.996264)" xlink:href="#CMR17-30"/>
       <use transform="translate(91.380954 36.153639)scale(0.697382)" xlink:href="#CMR17-33"/>
      </g>
     </g>
    </g>
    <g id="xtick_4">
     <g id="line2d_4">
      <defs>
       <path d="M 0 0 
L 0 4 
" id="m3b6ec009d5" style="stroke:#262626;"/>
      </defs>
      <g>
       <use style="fill:#262626;stroke:#262626;" x="128.326276" xlink:href="#m3b6ec009d5" y="294.962625"/>
      </g>
     </g>
    </g>
    <g id="xtick_5">
     <g id="line2d_5">
      <g>
       <use style="fill:#262626;stroke:#262626;" x="162.716899" xlink:href="#m3b6ec009d5" y="294.962625"/>
      </g>
     </g>
    </g>
    <g id="xtick_6">
     <g id="line2d_6">
      <g>
       <use style="fill:#262626;stroke:#262626;" x="187.117434" xlink:href="#m3b6ec009d5" y="294.962625"/>
      </g>
     </g>
    </g>
    <g id="xtick_7">
     <g id="line2d_7">
      <g>
       <use style="fill:#262626;stroke:#262626;" x="206.04396" xlink:href="#m3b6ec009d5" y="294.962625"/>
      </g>
     </g>
    </g>
    <g id="xtick_8">
     <g id="line2d_8">
      <g>
       <use style="fill:#262626;stroke:#262626;" x="221.508057" xlink:href="#m3b6ec009d5" y="294.962625"/>
      </g>
     </g>
    </g>
    <g id="xtick_9">
     <g id="line2d_9">
      <g>
       <use style="fill:#262626;stroke:#262626;" x="234.582765" xlink:href="#m3b6ec009d5" y="294.962625"/>
      </g>
     </g>
    </g>
    <g id="xtick_10">
     <g id="line2d_10">
      <g>
       <use style="fill:#262626;stroke:#262626;" x="245.908592" xlink:href="#m3b6ec009d5" y="294.962625"/>
      </g>
     </g>
    </g>
    <g id="xtick_11">
     <g id="line2d_11">
      <g>
       <use style="fill:#262626;stroke:#262626;" x="255.89868" xlink:href="#m3b6ec009d5" y="294.962625"/>
      </g>
     </g>
    </g>
    <g id="xtick_12">
     <g id="line2d_12">
      <g>
       <use style="fill:#262626;stroke:#262626;" x="323.626276" xlink:href="#m3b6ec009d5" y="294.962625"/>
      </g>
     </g>
    </g>
    <g id="xtick_13">
     <g id="line2d_13">
      <g>
       <use style="fill:#262626;stroke:#262626;" x="358.016899" xlink:href="#m3b6ec009d5" y="294.962625"/>
      </g>
     </g>
    </g>
    <g id="xtick_14">
     <g id="line2d_14">
      <g>
       <use style="fill:#262626;stroke:#262626;" x="382.417434" xlink:href="#m3b6ec009d5" y="294.962625"/>
      </g>
     </g>
    </g>
    <g id="xtick_15">
     <g id="line2d_15">
      <g>
       <use style="fill:#262626;stroke:#262626;" x="401.34396" xlink:href="#m3b6ec009d5" y="294.962625"/>
      </g>
     </g>
    </g>
    <g id="xtick_16">
     <g id="line2d_16">
      <g>
       <use style="fill:#262626;stroke:#262626;" x="416.808057" xlink:href="#m3b6ec009d5" y="294.962625"/>
      </g>
     </g>
    </g>
    <g id="xtick_17">
     <g id="line2d_17">
      <g>
       <use style="fill:#262626;stroke:#262626;" x="429.882765" xlink:href="#m3b6ec009d5" y="294.962625"/>
      </g>
     </g>
    </g>
    <g id="xtick_18">
     <g id="line2d_18">
      <g>
       <use style="fill:#262626;stroke:#262626;" x="441.208592" xlink:href="#m3b6ec009d5" y="294.962625"/>
      </g>
     </g>
    </g>
    <g id="xtick_19">
     <g id="line2d_19">
      <g>
       <use style="fill:#262626;stroke:#262626;" x="451.19868" xlink:href="#m3b6ec009d5" y="294.962625"/>
      </g>
     </g>
    </g>
    <g id="text_4">
     <!-- Lanczos degree -->
     <g style="fill:#262626;" transform="translate(218.656367 330.114706)scale(0.144 -0.144)">
      <defs>
       <path d="M 3469 1615 
L 3354 1615 
C 3302 983 3219 166 2125 166 
L 1530 166 
C 1274 166 1261 197 1261 414 
L 1261 3898 
C 1261 4129 1274 4192 1760 4192 
L 1901 4192 
L 1901 4352 
C 1638 4352 1331 4352 1069 4352 
C 870 4352 512 4352 326 4352 
L 326 4192 
C 768 4192 838 4192 838 3905 
L 838 452 
C 838 166 768 166 326 166 
L 326 0 
L 3315 0 
L 3469 1615 
z
" id="CMR17-4c" transform="scale(0.015625)"/>
       <path d="M 2304 1653 
C 2304 2072 2304 2294 2035 2543 
C 1798 2752 1523 2816 1306 2816 
C 800 2816 435 2407 435 1971 
C 435 1728 627 1728 666 1728 
C 749 1728 896 1778 896 1954 
C 896 2112 774 2181 666 2181 
C 640 2181 608 2174 589 2168 
C 723 2592 1069 2714 1293 2714 
C 1613 2714 1965 2429 1965 1885 
L 1965 1600 
C 1587 1600 1133 1549 774 1357 
C 371 1133 256 813 256 570 
C 256 77 832 -64 1171 -64 
C 1523 -64 1850 139 1990 511 
C 2003 233 2182 -18 2464 -18 
C 2598 -18 2938 70 2938 567 
L 2938 920 
L 2822 920 
L 2822 562 
C 2822 178 2650 128 2566 128 
C 2304 128 2304 458 2304 738 
L 2304 1653 
z
M 1965 870 
C 1965 317 1568 38 1216 38 
C 896 38 646 275 646 570 
C 646 761 730 1100 1101 1305 
C 1408 1478 1760 1504 1965 1504 
L 1965 870 
z
" id="CMR17-61" transform="scale(0.015625)"/>
       <path d="M 2656 1933 
C 2656 2259 2592 2790 1837 2790 
C 1331 2790 1069 2400 973 2144 
L 966 2144 
L 966 2790 
L 211 2720 
L 211 2554 
C 589 2554 646 2515 646 2208 
L 646 428 
C 646 184 621 153 211 153 
L 211 -13 
C 365 0 646 0 813 0 
C 979 0 1267 0 1421 -13 
L 1421 153 
C 1011 153 986 178 986 428 
L 986 1658 
C 986 2247 1344 2688 1792 2688 
C 2266 2688 2317 2266 2317 1958 
L 2317 428 
C 2317 184 2291 153 1882 153 
L 1882 -13 
C 2035 0 2317 0 2483 0 
C 2650 0 2938 0 3091 -13 
L 3091 153 
C 2682 153 2656 178 2656 428 
L 2656 1933 
z
" id="CMR17-6e" transform="scale(0.015625)"/>
       <path d="M 2234 2240 
C 2112 2240 1933 2240 1933 2017 
C 1933 1838 2080 1787 2163 1787 
C 2208 1787 2394 1807 2394 2024 
C 2394 2467 1958 2803 1466 2803 
C 787 2803 211 2178 211 1363 
C 211 516 813 -64 1466 -64 
C 2259 -64 2458 677 2458 748 
C 2458 774 2451 793 2406 793 
C 2362 793 2355 787 2330 703 
C 2163 180 1798 51 1523 51 
C 1114 51 621 427 621 1369 
C 621 2338 1094 2688 1472 2688 
C 1722 2688 2093 2573 2234 2240 
z
" id="CMR17-63" transform="scale(0.015625)"/>
       <path d="M 2310 2605 
C 2362 2670 2362 2682 2362 2695 
C 2362 2752 2336 2752 2221 2752 
L 275 2752 
L 211 1760 
L 326 1760 
C 371 2381 442 2650 1178 2650 
L 1958 2650 
L 128 96 
C 128 0 134 0 269 0 
L 2291 0 
L 2381 1152 
L 2266 1152 
C 2214 442 2131 115 1350 115 
L 531 115 
L 2310 2605 
z
" id="CMR17-7a" transform="scale(0.015625)"/>
       <path d="M 2758 1356 
C 2758 2176 2163 2816 1466 2816 
C 768 2816 173 2176 173 1356 
C 173 551 768 -64 1466 -64 
C 2163 -64 2758 551 2758 1356 
z
M 1466 51 
C 1165 51 909 230 762 480 
C 602 767 582 1126 582 1408 
C 582 1677 595 2010 762 2298 
C 890 2509 1139 2714 1466 2714 
C 1754 2714 1997 2554 2150 2330 
C 2349 2029 2349 1607 2349 1408 
C 2349 1158 2336 775 2163 467 
C 1984 173 1709 51 1466 51 
z
" id="CMR17-6f" transform="scale(0.015625)"/>
       <path d="M 1978 2697 
C 1978 2813 1971 2819 1933 2819 
C 1907 2819 1901 2813 1824 2717 
C 1805 2691 1747 2626 1728 2601 
C 1523 2819 1235 2819 1126 2819 
C 416 2819 160 2447 160 2076 
C 160 1498 813 1365 998 1325 
C 1402 1243 1542 1217 1677 1101 
C 1760 1025 1901 884 1901 654 
C 1901 384 1747 38 1158 38 
C 602 38 403 460 288 1021 
C 269 1110 269 1117 218 1117 
C 166 1117 160 1110 160 983 
L 160 63 
C 160 -51 166 -58 205 -58 
C 237 -58 243 -51 275 0 
C 314 57 410 211 448 276 
C 576 103 800 -64 1158 -64 
C 1792 -64 2131 283 2131 784 
C 2131 1112 1958 1285 1875 1362 
C 1683 1561 1459 1606 1190 1657 
C 838 1735 390 1825 390 2217 
C 390 2383 480 2737 1126 2737 
C 1811 2737 1850 2094 1862 1888 
C 1869 1856 1901 1849 1920 1849 
C 1978 1849 1978 1869 1978 1978 
L 1978 2697 
z
" id="CMR17-73" transform="scale(0.015625)"/>
       <path d="M 1869 4326 
L 1869 4160 
C 2246 4160 2304 4122 2304 3820 
L 2304 2345 
C 2278 2377 2016 2790 1498 2790 
C 845 2790 211 2208 211 1364 
C 211 525 806 -64 1434 -64 
C 1978 -64 2259 337 2291 380 
L 2291 -63 
L 3066 -63 
L 3066 128 
C 2688 128 2630 166 2630 473 
L 2630 4396 
L 1869 4326 
z
M 2291 755 
C 2291 563 2176 390 2029 262 
C 1811 70 1594 38 1472 38 
C 1286 38 621 134 621 1356 
C 621 2612 1363 2688 1530 2688 
C 1824 2688 2061 2522 2208 2291 
C 2291 2157 2291 2138 2291 2023 
L 2291 755 
z
" id="CMR17-64" transform="scale(0.015625)"/>
       <path d="M 2438 1472 
C 2464 1498 2464 1511 2464 1576 
C 2464 2238 2118 2816 1389 2816 
C 710 2816 173 2169 173 1383 
C 173 551 781 -64 1459 -64 
C 2176 -64 2458 607 2458 740 
C 2458 784 2419 784 2406 784 
C 2362 784 2355 771 2330 696 
C 2189 265 1837 51 1504 51 
C 1229 51 954 203 781 480 
C 582 803 582 1176 582 1472 
L 2438 1472 
z
M 589 1568 
C 634 2505 1126 2714 1382 2714 
C 1818 2714 2112 2297 2118 1568 
L 589 1568 
z
" id="CMR17-65" transform="scale(0.015625)"/>
       <path d="M 710 1164 
C 832 1068 1043 960 1299 960 
C 1805 960 2240 1357 2240 1888 
C 2240 2054 2189 2310 1997 2509 
C 2176 2692 2438 2752 2586 2752 
C 2611 2752 2650 2752 2682 2734 
C 2656 2728 2598 2703 2598 2605 
C 2598 2527 2656 2471 2739 2471 
C 2835 2471 2886 2533 2886 2614 
C 2886 2731 2790 2854 2586 2854 
C 2330 2854 2106 2738 1926 2580 
C 1734 2753 1504 2816 1299 2816 
C 794 2816 358 2419 358 1888 
C 358 1522 570 1292 634 1228 
C 442 1004 442 743 442 711 
C 442 545 506 302 723 168 
C 390 85 128 -169 128 -486 
C 128 -943 736 -1280 1466 -1280 
C 2170 -1280 2803 -956 2803 -479 
C 2803 384 1856 384 1363 384 
C 1216 384 954 384 922 391 
C 723 423 589 602 589 826 
C 589 883 589 1024 710 1164 
z
M 1299 1068 
C 736 1068 736 1760 736 1889 
C 736 2016 736 2708 1299 2708 
C 1862 2708 1862 2016 1862 1889 
C 1862 1760 1862 1068 1299 1068 
z
M 1466 -1171 
C 826 -1171 384 -835 384 -486 
C 384 -289 493 -105 634 -4 
C 794 104 858 104 1293 104 
C 1818 104 2547 104 2547 -486 
C 2547 -835 2106 -1171 1466 -1171 
z
" id="CMR17-67" transform="scale(0.015625)"/>
       <path d="M 960 1497 
C 960 2112 1222 2688 1702 2688 
C 1747 2688 1792 2682 1837 2662 
C 1837 2662 1696 2617 1696 2452 
C 1696 2298 1818 2234 1914 2234 
C 1990 2234 2131 2279 2131 2458 
C 2131 2663 1926 2790 1709 2790 
C 1222 2790 1011 2317 947 2093 
L 941 2093 
L 941 2790 
L 198 2720 
L 198 2554 
C 576 2554 634 2515 634 2208 
L 634 428 
C 634 184 608 153 198 153 
L 198 -13 
C 352 0 646 0 813 0 
C 998 0 1325 0 1498 -13 
L 1498 153 
C 1037 153 960 153 960 440 
L 960 1497 
z
" id="CMR17-72" transform="scale(0.015625)"/>
      </defs>
      <use transform="scale(0.996264)" xlink:href="#CMR17-4c"/>
      <use transform="translate(57.381408 0)scale(0.996264)" xlink:href="#CMR17-61"/>
      <use transform="translate(103.071885 0)scale(0.996264)" xlink:href="#CMR17-6e"/>
      <use transform="translate(153.967255 0)scale(0.996264)" xlink:href="#CMR17-63"/>
      <use transform="translate(194.452915 0)scale(0.996264)" xlink:href="#CMR17-7a"/>
      <use transform="translate(234.938576 0)scale(0.996264)" xlink:href="#CMR17-6f"/>
      <use transform="translate(280.629053 0)scale(0.996264)" xlink:href="#CMR17-73"/>
      <use transform="translate(346.506357 0)scale(0.996264)" xlink:href="#CMR17-64"/>
      <use transform="translate(397.401727 0)scale(0.996264)" xlink:href="#CMR17-65"/>
      <use transform="translate(437.887387 0)scale(0.996264)" xlink:href="#CMR17-67"/>
      <use transform="translate(483.577864 0)scale(0.996264)" xlink:href="#CMR17-72"/>
      <use transform="translate(518.858632 0)scale(0.996264)" xlink:href="#CMR17-65"/>
      <use transform="translate(559.344292 0)scale(0.996264)" xlink:href="#CMR17-65"/>
     </g>
    </g>
   </g>
   <g id="matplotlib.axis_2">
    <g id="ytick_1">
     <g id="line2d_20">
      <path clip-path="url(#p5c6aaf554c)" d="M 69.535118 285.659638 
L 460.135118 285.659638 
" style="fill:none;stroke:#cccccc;stroke-linecap:round;"/>
     </g>
     <g id="line2d_21">
      <defs>
       <path d="M 0 0 
L -6 0 
" id="m4ba2f51bd5" style="stroke:#262626;stroke-width:1.25;"/>
      </defs>
      <g>
       <use style="fill:#262626;stroke:#262626;stroke-width:1.25;" x="69.535118" xlink:href="#m4ba2f51bd5" y="285.659638"/>
      </g>
     </g>
     <g id="text_5">
      <!-- 0.00\% -->
      <g style="fill:#262626;" transform="translate(26.413016 290.225836)scale(0.132 -0.132)">
       <defs>
        <path d="M 1062 261 
C 1062 420 934 522 800 522 
C 672 522 538 420 538 261 
C 538 102 666 0 800 0 
C 928 0 1062 102 1062 261 
z
" id="CMR17-2e" transform="scale(0.015625)"/>
        <path d="M 4640 959 
C 4640 1698 4275 2240 3846 2240 
C 3411 2240 2970 1736 2970 959 
C 2970 183 3405 -320 3846 -320 
C 4275 -320 4640 215 4640 959 
z
M 3853 -218 
C 3686 -218 3270 -66 3270 959 
C 3270 1991 3686 2138 3853 2138 
C 4205 2138 4525 1634 4525 959 
C 4525 285 4205 -218 3853 -218 
z
M 4083 4577 
C 4128 4647 4134 4653 4134 4685 
C 4134 4761 4077 4800 4026 4800 
C 3962 4800 3936 4756 3891 4706 
C 3520 4190 3008 4134 2746 4134 
C 2106 4134 1715 4494 1594 4607 
C 1510 4682 1389 4800 1171 4800 
C 736 4800 294 4296 294 3519 
C 294 2743 730 2240 1171 2240 
C 1600 2240 1965 2778 1965 3527 
C 1965 3969 1830 4270 1811 4308 
C 2202 4064 2586 4032 2752 4032 
C 3162 4032 3456 4183 3616 4289 
L 3622 4283 
L 858 -84 
C 800 -174 800 -187 800 -206 
C 800 -276 858 -320 915 -320 
C 973 -320 992 -289 1037 -218 
L 4083 4577 
z
M 1178 2342 
C 1011 2342 595 2494 595 3519 
C 595 4551 1011 4698 1178 4698 
C 1530 4698 1850 4194 1850 3519 
C 1850 2845 1530 2342 1178 2342 
z
" id="CMR17-25" transform="scale(0.015625)"/>
       </defs>
       <use transform="scale(0.996264)" xlink:href="#CMR17-30"/>
       <use transform="translate(45.690477 0)scale(0.996264)" xlink:href="#CMR17-2e"/>
       <use transform="translate(70.561536 0)scale(0.996264)" xlink:href="#CMR17-30"/>
       <use transform="translate(116.252013 0)scale(0.996264)" xlink:href="#CMR17-30"/>
       <use transform="translate(161.94249 0)scale(0.996264)" xlink:href="#CMR17-25"/>
      </g>
     </g>
    </g>
    <g id="ytick_2">
     <g id="line2d_22">
      <path clip-path="url(#p5c6aaf554c)" d="M 69.535118 252.612238 
L 460.135118 252.612238 
" style="fill:none;stroke:#cccccc;stroke-linecap:round;"/>
     </g>
     <g id="line2d_23">
      <g>
       <use style="fill:#262626;stroke:#262626;stroke-width:1.25;" x="69.535118" xlink:href="#m4ba2f51bd5" y="252.612238"/>
      </g>
     </g>
     <g id="text_6">
      <!-- 0.01\% -->
      <g style="fill:#262626;" transform="translate(26.413016 257.178436)scale(0.132 -0.132)">
       <use transform="scale(0.996264)" xlink:href="#CMR17-30"/>
       <use transform="translate(45.690477 0)scale(0.996264)" xlink:href="#CMR17-2e"/>
       <use transform="translate(70.561536 0)scale(0.996264)" xlink:href="#CMR17-30"/>
       <use transform="translate(116.252013 0)scale(0.996264)" xlink:href="#CMR17-31"/>
       <use transform="translate(161.94249 0)scale(0.996264)" xlink:href="#CMR17-25"/>
      </g>
     </g>
    </g>
    <g id="ytick_3">
     <g id="line2d_24">
      <path clip-path="url(#p5c6aaf554c)" d="M 69.535118 219.564839 
L 460.135118 219.564839 
" style="fill:none;stroke:#cccccc;stroke-linecap:round;"/>
     </g>
     <g id="line2d_25">
      <g>
       <use style="fill:#262626;stroke:#262626;stroke-width:1.25;" x="69.535118" xlink:href="#m4ba2f51bd5" y="219.564839"/>
      </g>
     </g>
     <g id="text_7">
      <!-- 0.02\% -->
      <g style="fill:#262626;" transform="translate(26.413016 224.131036)scale(0.132 -0.132)">
       <use transform="scale(0.996264)" xlink:href="#CMR17-30"/>
       <use transform="translate(45.690477 0)scale(0.996264)" xlink:href="#CMR17-2e"/>
       <use transform="translate(70.561536 0)scale(0.996264)" xlink:href="#CMR17-30"/>
       <use transform="translate(116.252013 0)scale(0.996264)" xlink:href="#CMR17-32"/>
       <use transform="translate(161.94249 0)scale(0.996264)" xlink:href="#CMR17-25"/>
      </g>
     </g>
    </g>
    <g id="ytick_4">
     <g id="line2d_26">
      <path clip-path="url(#p5c6aaf554c)" d="M 69.535118 186.517439 
L 460.135118 186.517439 
" style="fill:none;stroke:#cccccc;stroke-linecap:round;"/>
     </g>
     <g id="line2d_27">
      <g>
       <use style="fill:#262626;stroke:#262626;stroke-width:1.25;" x="69.535118" xlink:href="#m4ba2f51bd5" y="186.517439"/>
      </g>
     </g>
     <g id="text_8">
      <!-- 0.03\% -->
      <g style="fill:#262626;" transform="translate(26.413016 191.083636)scale(0.132 -0.132)">
       <use transform="scale(0.996264)" xlink:href="#CMR17-30"/>
       <use transform="translate(45.690477 0)scale(0.996264)" xlink:href="#CMR17-2e"/>
       <use transform="translate(70.561536 0)scale(0.996264)" xlink:href="#CMR17-30"/>
       <use transform="translate(116.252013 0)scale(0.996264)" xlink:href="#CMR17-33"/>
       <use transform="translate(161.94249 0)scale(0.996264)" xlink:href="#CMR17-25"/>
      </g>
     </g>
    </g>
    <g id="ytick_5">
     <g id="line2d_28">
      <path clip-path="url(#p5c6aaf554c)" d="M 69.535118 153.470039 
L 460.135118 153.470039 
" style="fill:none;stroke:#cccccc;stroke-linecap:round;"/>
     </g>
     <g id="line2d_29">
      <g>
       <use style="fill:#262626;stroke:#262626;stroke-width:1.25;" x="69.535118" xlink:href="#m4ba2f51bd5" y="153.470039"/>
      </g>
     </g>
     <g id="text_9">
      <!-- 0.04\% -->
      <g style="fill:#262626;" transform="translate(26.413016 158.036236)scale(0.132 -0.132)">
       <defs>
        <path d="M 2150 4122 
C 2150 4256 2144 4256 2029 4256 
L 128 1254 
L 128 1088 
L 1779 1088 
L 1779 457 
C 1779 224 1766 160 1318 160 
L 1197 160 
L 1197 0 
C 1402 0 1747 0 1965 0 
C 2182 0 2528 0 2733 0 
L 2733 160 
L 2611 160 
C 2163 160 2150 224 2150 457 
L 2150 1088 
L 2803 1088 
L 2803 1254 
L 2150 1254 
L 2150 4122 
z
M 1798 3703 
L 1798 1254 
L 256 1254 
L 1798 3703 
z
" id="CMR17-34" transform="scale(0.015625)"/>
       </defs>
       <use transform="scale(0.996264)" xlink:href="#CMR17-30"/>
       <use transform="translate(45.690477 0)scale(0.996264)" xlink:href="#CMR17-2e"/>
       <use transform="translate(70.561536 0)scale(0.996264)" xlink:href="#CMR17-30"/>
       <use transform="translate(116.252013 0)scale(0.996264)" xlink:href="#CMR17-34"/>
       <use transform="translate(161.94249 0)scale(0.996264)" xlink:href="#CMR17-25"/>
      </g>
     </g>
    </g>
    <g id="ytick_6">
     <g id="line2d_30">
      <path clip-path="url(#p5c6aaf554c)" d="M 69.535118 120.422639 
L 460.135118 120.422639 
" style="fill:none;stroke:#cccccc;stroke-linecap:round;"/>
     </g>
     <g id="line2d_31">
      <g>
       <use style="fill:#262626;stroke:#262626;stroke-width:1.25;" x="69.535118" xlink:href="#m4ba2f51bd5" y="120.422639"/>
      </g>
     </g>
     <g id="text_10">
      <!-- 0.05\% -->
      <g style="fill:#262626;" transform="translate(26.413016 124.988836)scale(0.132 -0.132)">
       <defs>
        <path d="M 730 3692 
C 794 3666 1056 3584 1325 3584 
C 1920 3584 2246 3911 2432 4100 
C 2432 4157 2432 4192 2394 4192 
C 2387 4192 2374 4192 2323 4163 
C 2099 4058 1837 3973 1517 3973 
C 1325 3973 1037 3999 723 4139 
C 653 4171 640 4171 634 4171 
C 602 4171 595 4164 595 4037 
L 595 2203 
C 595 2089 595 2057 659 2057 
C 691 2057 704 2070 736 2114 
C 941 2401 1222 2522 1542 2522 
C 1766 2522 2246 2382 2246 1289 
C 2246 1085 2246 715 2054 421 
C 1894 159 1645 25 1370 25 
C 947 25 518 320 403 814 
C 429 807 480 795 506 795 
C 589 795 749 840 749 1038 
C 749 1210 627 1280 506 1280 
C 358 1280 262 1190 262 1011 
C 262 454 704 -128 1382 -128 
C 2042 -128 2669 440 2669 1264 
C 2669 2030 2170 2624 1549 2624 
C 1222 2624 947 2503 730 2274 
L 730 3692 
z
" id="CMR17-35" transform="scale(0.015625)"/>
       </defs>
       <use transform="scale(0.996264)" xlink:href="#CMR17-30"/>
       <use transform="translate(45.690477 0)scale(0.996264)" xlink:href="#CMR17-2e"/>
       <use transform="translate(70.561536 0)scale(0.996264)" xlink:href="#CMR17-30"/>
       <use transform="translate(116.252013 0)scale(0.996264)" xlink:href="#CMR17-35"/>
       <use transform="translate(161.94249 0)scale(0.996264)" xlink:href="#CMR17-25"/>
      </g>
     </g>
    </g>
    <g id="ytick_7">
     <g id="line2d_32">
      <path clip-path="url(#p5c6aaf554c)" d="M 69.535118 87.375239 
L 460.135118 87.375239 
" style="fill:none;stroke:#cccccc;stroke-linecap:round;"/>
     </g>
     <g id="line2d_33">
      <g>
       <use style="fill:#262626;stroke:#262626;stroke-width:1.25;" x="69.535118" xlink:href="#m4ba2f51bd5" y="87.375239"/>
      </g>
     </g>
     <g id="text_11">
      <!-- 0.06\% -->
      <g style="fill:#262626;" transform="translate(26.413016 91.941437)scale(0.132 -0.132)">
       <defs>
        <path d="M 678 2176 
C 678 3690 1395 4032 1811 4032 
C 1946 4032 2272 4009 2400 3776 
C 2298 3776 2106 3776 2106 3553 
C 2106 3381 2246 3323 2336 3323 
C 2394 3323 2566 3348 2566 3560 
C 2566 3954 2246 4179 1805 4179 
C 1043 4179 243 3390 243 1984 
C 243 253 966 -128 1478 -128 
C 2099 -128 2688 427 2688 1283 
C 2688 2081 2170 2662 1517 2662 
C 1126 2662 838 2407 678 1960 
L 678 2176 
z
M 1478 25 
C 691 25 691 1200 691 1436 
C 691 1896 909 2560 1504 2560 
C 1613 2560 1926 2560 2138 2120 
C 2253 1870 2253 1609 2253 1289 
C 2253 944 2253 690 2118 434 
C 1978 171 1773 25 1478 25 
z
" id="CMR17-36" transform="scale(0.015625)"/>
       </defs>
       <use transform="scale(0.996264)" xlink:href="#CMR17-30"/>
       <use transform="translate(45.690477 0)scale(0.996264)" xlink:href="#CMR17-2e"/>
       <use transform="translate(70.561536 0)scale(0.996264)" xlink:href="#CMR17-30"/>
       <use transform="translate(116.252013 0)scale(0.996264)" xlink:href="#CMR17-36"/>
       <use transform="translate(161.94249 0)scale(0.996264)" xlink:href="#CMR17-25"/>
      </g>
     </g>
    </g>
    <g id="ytick_8">
     <g id="line2d_34">
      <path clip-path="url(#p5c6aaf554c)" d="M 69.535118 54.327839 
L 460.135118 54.327839 
" style="fill:none;stroke:#cccccc;stroke-linecap:round;"/>
     </g>
     <g id="line2d_35">
      <g>
       <use style="fill:#262626;stroke:#262626;stroke-width:1.25;" x="69.535118" xlink:href="#m4ba2f51bd5" y="54.327839"/>
      </g>
     </g>
     <g id="text_12">
      <!-- 0.07\% -->
      <g style="fill:#262626;" transform="translate(26.413016 58.894037)scale(0.132 -0.132)">
       <defs>
        <path d="M 2886 3941 
L 2886 4081 
L 1382 4081 
C 634 4081 621 4165 595 4288 
L 480 4288 
L 294 3094 
L 410 3094 
C 429 3215 474 3540 550 3661 
C 589 3712 1062 3712 1171 3712 
L 2579 3712 
L 1869 2661 
C 1395 1954 1069 999 1069 165 
C 1069 89 1069 -128 1299 -128 
C 1530 -128 1530 89 1530 171 
L 1530 465 
C 1530 1508 1709 2196 2003 2636 
L 2886 3941 
z
" id="CMR17-37" transform="scale(0.015625)"/>
       </defs>
       <use transform="scale(0.996264)" xlink:href="#CMR17-30"/>
       <use transform="translate(45.690477 0)scale(0.996264)" xlink:href="#CMR17-2e"/>
       <use transform="translate(70.561536 0)scale(0.996264)" xlink:href="#CMR17-30"/>
       <use transform="translate(116.252013 0)scale(0.996264)" xlink:href="#CMR17-37"/>
       <use transform="translate(161.94249 0)scale(0.996264)" xlink:href="#CMR17-25"/>
      </g>
     </g>
    </g>
    <g id="text_13">
     <!-- Relative Error of computing $\mathrm{trace}(\mathbf{A}^{-1})$ -->
     <g style="fill:#262626;" transform="translate(18.826475 281.413821)rotate(-90)scale(0.144 -0.144)">
      <defs>
       <path d="M 2509 2146 
C 3117 2268 3629 2676 3629 3186 
C 3629 3785 2950 4326 2054 4326 
L 333 4326 
L 333 4160 
C 774 4160 845 4160 845 3873 
L 845 415 
C 845 128 774 128 333 128 
L 333 -26 
C 518 -26 851 -26 1050 -26 
C 1248 -26 1581 -26 1766 -26 
L 1766 128 
C 1325 128 1254 128 1254 417 
L 1254 2112 
L 2003 2112 
C 2368 2112 2573 1964 2662 1881 
C 2918 1632 2918 1459 2918 1024 
C 2918 595 2918 377 3110 160 
C 3354 -102 3680 -128 3821 -128 
C 4294 -128 4365 396 4365 503 
C 4365 540 4365 585 4307 585 
C 4256 585 4250 547 4250 522 
C 4218 112 4032 -26 3834 -26 
C 3482 -26 3443 375 3405 764 
C 3386 898 3373 993 3360 1133 
C 3322 1452 3270 1917 2509 2146 
z
M 1984 2214 
L 1254 2214 
L 1254 3913 
C 1254 4129 1267 4160 1523 4160 
L 1990 4160 
C 2522 4160 3142 3977 3142 3190 
C 3142 2372 2464 2214 1984 2214 
z
" id="CMR17-52" transform="scale(0.015625)"/>
       <path d="M 979 4396 
L 218 4326 
L 218 4160 
C 595 4160 653 4122 653 3817 
L 653 426 
C 653 184 627 153 218 153 
L 218 -13 
C 371 0 653 0 813 0 
C 979 0 1261 0 1414 -13 
L 1414 153 
C 1005 153 979 178 979 426 
L 979 4396 
z
" id="CMR17-6c" transform="scale(0.015625)"/>
       <path d="M 966 2560 
L 1862 2560 
L 1862 2725 
L 966 2725 
L 966 3904 
L 851 3904 
C 838 3245 614 2668 70 2668 
L 70 2560 
L 627 2560 
L 627 771 
C 627 650 627 -64 1370 -64 
C 1747 -64 1965 306 1965 777 
L 1965 1140 
L 1850 1140 
L 1850 783 
C 1850 344 1677 51 1408 51 
C 1222 51 966 178 966 758 
L 966 2560 
z
" id="CMR17-74" transform="scale(0.015625)"/>
       <path d="M 992 3909 
C 992 4049 877 4170 730 4170 
C 589 4170 467 4056 467 3909 
C 467 3769 582 3648 730 3648 
C 870 3648 992 3763 992 3909 
z
M 243 2706 
L 243 2541 
C 602 2541 653 2502 653 2197 
L 653 427 
C 653 184 627 153 218 153 
L 218 -13 
C 371 0 646 0 806 0 
C 960 0 1222 0 1370 -13 
L 1370 153 
C 992 153 979 191 979 420 
L 979 2776 
L 243 2706 
z
" id="CMR17-69" transform="scale(0.015625)"/>
       <path d="M 2502 2163 
C 2560 2304 2662 2560 3034 2560 
L 3034 2726 
C 2912 2726 2752 2726 2630 2726 
C 2496 2726 2285 2726 2157 2732 
L 2157 2566 
C 2317 2553 2406 2477 2406 2311 
C 2406 2253 2406 2240 2368 2151 
L 1664 377 
L 902 2286 
C 864 2369 864 2381 864 2407 
C 864 2560 1075 2560 1171 2560 
L 1171 2732 
C 1018 2726 736 2726 576 2726 
C 403 2726 205 2726 64 2732 
L 64 2560 
C 307 2560 442 2560 518 2362 
L 1446 44 
C 1485 -51 1491 -64 1549 -64 
C 1606 -64 1613 -51 1651 44 
L 2502 2163 
z
" id="CMR17-76" transform="scale(0.015625)"/>
       <path d="M 3885 1615 
L 3770 1615 
C 3629 676 3546 166 2419 166 
L 1530 166 
C 1274 166 1261 197 1261 414 
L 1261 2176 
L 1862 2176 
C 2464 2176 2522 1960 2522 1430 
L 2637 1430 
L 2637 3081 
L 2522 3081 
C 2522 2557 2464 2342 1862 2342 
L 1261 2342 
L 1261 3913 
C 1261 4128 1274 4160 1530 4160 
L 2406 4160 
C 3398 4160 3514 3769 3603 2929 
L 3718 2929 
L 3565 4325 
L 326 4325 
L 326 4160 
C 768 4160 838 4160 838 3874 
L 838 451 
C 838 166 768 166 326 166 
L 326 0 
L 3654 0 
L 3885 1615 
z
" id="CMR17-45" transform="scale(0.015625)"/>
       <path d="M 979 2560 
L 1709 2560 
L 1709 2725 
L 966 2725 
L 966 3494 
C 966 4022 1235 4352 1510 4352 
C 1594 4352 1690 4327 1754 4282 
C 1702 4269 1568 4225 1568 4067 
C 1568 3901 1696 3850 1786 3850 
C 1875 3850 2003 3901 2003 4067 
C 2003 4308 1773 4454 1517 4454 
C 1152 4454 653 4156 653 3481 
L 653 2725 
L 141 2725 
L 141 2560 
L 653 2560 
L 653 427 
C 653 184 627 153 218 153 
L 218 -13 
C 371 0 666 0 832 0 
C 1018 0 1344 0 1517 -13 
L 1517 153 
C 1056 153 979 153 979 439 
L 979 2560 
z
" id="CMR17-66" transform="scale(0.015625)"/>
       <path d="M 4326 1933 
C 4326 2252 4269 2790 3507 2790 
C 3072 2790 2771 2496 2656 2151 
L 2650 2151 
C 2573 2676 2195 2790 1837 2790 
C 1331 2790 1069 2400 973 2144 
L 966 2144 
L 966 2790 
L 211 2720 
L 211 2554 
C 589 2554 646 2515 646 2208 
L 646 428 
C 646 184 621 153 211 153 
L 211 -13 
C 365 0 646 0 813 0 
C 979 0 1267 0 1421 -13 
L 1421 153 
C 1011 153 986 178 986 428 
L 986 1658 
C 986 2247 1344 2688 1792 2688 
C 2266 2688 2317 2266 2317 1958 
L 2317 428 
C 2317 184 2291 153 1882 153 
L 1882 -13 
C 2035 0 2317 0 2483 0 
C 2650 0 2938 0 3091 -13 
L 3091 153 
C 2682 153 2656 178 2656 428 
L 2656 1658 
C 2656 2247 3014 2688 3462 2688 
C 3936 2688 3987 2266 3987 1958 
L 3987 428 
C 3987 184 3962 153 3552 153 
L 3552 -13 
C 3706 0 3987 0 4154 0 
C 4320 0 4608 0 4762 -13 
L 4762 153 
C 4352 153 4326 178 4326 428 
L 4326 1933 
z
" id="CMR17-6d" transform="scale(0.015625)"/>
       <path d="M 1408 -1063 
C 998 -1063 973 -1037 973 -789 
L 973 402 
C 1158 134 1427 -38 1766 -38 
C 2406 -38 3053 523 3053 1388 
C 3053 2191 2496 2802 1837 2802 
C 1453 2802 1139 2592 960 2338 
L 960 2802 
L 198 2732 
L 198 2567 
C 576 2567 634 2528 634 2223 
L 634 -789 
C 634 -1031 608 -1063 198 -1063 
L 198 -1228 
C 352 -1216 634 -1216 800 -1216 
C 966 -1216 1254 -1216 1408 -1228 
L 1408 -1063 
z
M 973 2012 
C 973 2102 973 2235 1222 2471 
C 1254 2497 1472 2688 1792 2688 
C 2259 2688 2643 2108 2643 1382 
C 2643 656 2234 64 1728 64 
C 1498 64 1248 172 1056 472 
C 973 612 973 650 973 752 
L 973 2012 
z
" id="CMR17-70" transform="scale(0.015625)"/>
       <path d="M 1882 2693 
L 1882 2528 
C 2259 2528 2317 2489 2317 2186 
L 2317 1032 
C 2317 500 2029 38 1555 38 
C 1030 38 986 348 986 678 
L 986 2763 
L 211 2693 
L 211 2528 
C 467 2528 640 2528 646 2274 
L 646 1058 
C 646 633 646 361 813 183 
C 896 101 1056 -64 1517 -64 
C 2061 -64 2272 377 2323 506 
L 2330 506 
L 2330 -63 
L 3091 -63 
L 3091 128 
C 2714 128 2656 166 2656 473 
L 2656 2763 
L 1882 2693 
z
" id="CMR17-75" transform="scale(0.015625)"/>
       <path d="M 1958 -1561 
C 1958 -1555 1958 -1542 1939 -1523 
C 1645 -1224 858 -407 858 1581 
C 858 3569 1632 4379 1946 4697 
C 1946 4704 1958 4717 1958 4736 
C 1958 4755 1939 4768 1914 4768 
C 1843 4768 1299 4296 986 3594 
C 666 2887 576 2199 576 1588 
C 576 1128 621 351 1005 -471 
C 1312 -1135 1837 -1600 1914 -1600 
C 1946 -1600 1958 -1587 1958 -1561 
z
" id="CMR17-28" transform="scale(0.015625)"/>
       <path d="M 2931 4301 
C 2886 4416 2874 4448 2720 4448 
C 2560 4448 2547 4416 2502 4301 
L 915 413 
C 870 311 870 299 691 279 
C 531 260 506 260 365 260 
L 250 260 
L 250 -13 
C 416 0 800 0 986 0 
C 1158 0 1626 0 1773 -13 
L 1773 260 
C 1632 260 1389 260 1210 331 
C 1229 390 1229 402 1242 428 
L 1581 1262 
L 3296 1262 
L 3699 260 
L 3098 260 
L 3098 0 
C 3302 0 3923 0 4166 0 
C 4371 0 5024 0 5184 -13 
L 5184 260 
L 4576 260 
L 2931 4301 
z
M 2438 3367 
L 3181 1536 
L 1690 1536 
L 2438 3367 
z
" id="CMBX12-41" transform="scale(0.015625)"/>
       <path d="M 4218 1472 
C 4326 1472 4442 1472 4442 1600 
C 4442 1728 4326 1728 4218 1728 
L 755 1728 
C 646 1728 531 1728 531 1600 
C 531 1472 646 1472 755 1472 
L 4218 1472 
z
" id="CMSY10-0" transform="scale(0.015625)"/>
       <path d="M 1683 1581 
C 1683 2040 1638 2817 1254 3639 
C 947 4303 422 4768 346 4768 
C 326 4768 301 4761 301 4729 
C 301 4717 307 4710 314 4697 
C 621 4378 1402 3568 1402 1584 
C 1402 -407 627 -1217 314 -1537 
C 307 -1549 301 -1556 301 -1568 
C 301 -1600 326 -1600 346 -1600 
C 416 -1600 960 -1128 1274 -426 
C 1594 281 1683 969 1683 1581 
z
" id="CMR17-29" transform="scale(0.015625)"/>
      </defs>
      <use transform="scale(0.996264)" xlink:href="#CMR17-52"/>
      <use transform="translate(67.791102 0)scale(0.996264)" xlink:href="#CMR17-65"/>
      <use transform="translate(108.276762 0)scale(0.996264)" xlink:href="#CMR17-6c"/>
      <use transform="translate(133.147821 0)scale(0.996264)" xlink:href="#CMR17-61"/>
      <use transform="translate(178.838298 0)scale(0.996264)" xlink:href="#CMR17-74"/>
      <use transform="translate(214.119066 0)scale(0.996264)" xlink:href="#CMR17-69"/>
      <use transform="translate(238.990124 0)scale(0.996264)" xlink:href="#CMR17-76"/>
      <use transform="translate(284.680586 0)scale(0.996264)" xlink:href="#CMR17-65"/>
      <use transform="translate(355.242213 0)scale(0.996264)" xlink:href="#CMR17-45"/>
      <use transform="translate(417.828514 0)scale(0.996264)" xlink:href="#CMR17-72"/>
      <use transform="translate(453.109281 0)scale(0.996264)" xlink:href="#CMR17-72"/>
      <use transform="translate(488.390049 0)scale(0.996264)" xlink:href="#CMR17-6f"/>
      <use transform="translate(534.080526 0)scale(0.996264)" xlink:href="#CMR17-72"/>
      <use transform="translate(599.43726 0)scale(0.996264)" xlink:href="#CMR17-6f"/>
      <use transform="translate(645.127738 0)scale(0.996264)" xlink:href="#CMR17-66"/>
      <use transform="translate(702.677216 0)scale(0.996264)" xlink:href="#CMR17-63"/>
      <use transform="translate(743.162877 0)scale(0.996264)" xlink:href="#CMR17-6f"/>
      <use transform="translate(788.853354 0)scale(0.996264)" xlink:href="#CMR17-6d"/>
      <use transform="translate(865.772944 0)scale(0.996264)" xlink:href="#CMR17-70"/>
      <use transform="translate(916.668314 0)scale(0.996264)" xlink:href="#CMR17-75"/>
      <use transform="translate(967.563683 0)scale(0.996264)" xlink:href="#CMR17-74"/>
      <use transform="translate(1002.844451 0)scale(0.996264)" xlink:href="#CMR17-69"/>
      <use transform="translate(1027.71551 0)scale(0.996264)" xlink:href="#CMR17-6e"/>
      <use transform="translate(1078.610879 0)scale(0.996264)" xlink:href="#CMR17-67"/>
      <use transform="translate(1154.377323 0)scale(0.996264)" xlink:href="#CMR17-74"/>
      <use transform="translate(1189.658091 0)scale(0.996264)" xlink:href="#CMR17-72"/>
      <use transform="translate(1224.938858 0)scale(0.996264)" xlink:href="#CMR17-61"/>
      <use transform="translate(1270.629336 0)scale(0.996264)" xlink:href="#CMR17-63"/>
      <use transform="translate(1311.114996 0)scale(0.996264)" xlink:href="#CMR17-65"/>
      <use transform="translate(1351.600656 0)scale(0.996264)" xlink:href="#CMR17-28"/>
      <use transform="translate(1386.881424 0)scale(0.996264)" xlink:href="#CMBX12-41"/>
      <use transform="translate(1471.517819 36.153639)scale(0.697382)" xlink:href="#CMSY10-0"/>
      <use transform="translate(1525.758812 36.153639)scale(0.697382)" xlink:href="#CMR17-31"/>
      <use transform="translate(1558.240126 0)scale(0.996264)" xlink:href="#CMR17-29"/>
     </g>
    </g>
   </g>
   <g id="line2d_36">
    <path clip-path="url(#p5c6aaf554c)" d="M 69.535118 220.02662 
L 77.619109 262.190709 
L 91.788255 175.702358 
L 109.39975 107.053141 
L 119.389838 91.762129 
L 136.410267 268.738535 
L 147.252802 248.883663 
L 162.716899 230.690174 
L 175.791607 221.305302 
L 189.211805 201.025619 
L 202.581531 272.331377 
L 217.157477 144.928644 
L 230.867527 238.396092 
L 243.761194 234.205645 
L 257.762881 253.325215 
L 271.362777 222.825773 
L 284.437485 259.561695 
L 298.087231 237.144993 
L 311.814386 207.322425 
L 325.30589 170.077951 
L 338.736228 179.741071 
L 352.165081 244.444103 
L 365.843477 184.149454 
L 379.175598 232.329715 
L 392.783654 161.946126 
L 406.126011 206.065634 
L 419.725907 179.154873 
L 433.092788 53.14806 
L 446.649464 266.239741 
L 460.135118 213.087002 
" style="fill:none;stroke:#cd853f;stroke-linecap:round;stroke-width:1.5;"/>
    <defs>
     <path d="M 0 3 
C 0.795609 3 1.55874 2.683901 2.12132 2.12132 
C 2.683901 1.55874 3 0.795609 3 0 
C 3 -0.795609 2.683901 -1.55874 2.12132 -2.12132 
C 1.55874 -2.683901 0.795609 -3 0 -3 
C -0.795609 -3 -1.55874 -2.683901 -2.12132 -2.12132 
C -2.683901 -1.55874 -3 -0.795609 -3 0 
C -3 0.795609 -2.683901 1.55874 -2.12132 2.12132 
C -1.55874 2.683901 -0.795609 3 0 3 
z
" id="mfb26b2f0cd" style="stroke:#cd853f;"/>
    </defs>
    <g clip-path="url(#p5c6aaf554c)">
     <use style="fill:#cd853f;stroke:#cd853f;" x="69.535118" xlink:href="#mfb26b2f0cd" y="220.02662"/>
     <use style="fill:#cd853f;stroke:#cd853f;" x="77.619109" xlink:href="#mfb26b2f0cd" y="262.190709"/>
     <use style="fill:#cd853f;stroke:#cd853f;" x="91.788255" xlink:href="#mfb26b2f0cd" y="175.702358"/>
     <use style="fill:#cd853f;stroke:#cd853f;" x="109.39975" xlink:href="#mfb26b2f0cd" y="107.053141"/>
     <use style="fill:#cd853f;stroke:#cd853f;" x="119.389838" xlink:href="#mfb26b2f0cd" y="91.762129"/>
     <use style="fill:#cd853f;stroke:#cd853f;" x="136.410267" xlink:href="#mfb26b2f0cd" y="268.738535"/>
     <use style="fill:#cd853f;stroke:#cd853f;" x="147.252802" xlink:href="#mfb26b2f0cd" y="248.883663"/>
     <use style="fill:#cd853f;stroke:#cd853f;" x="162.716899" xlink:href="#mfb26b2f0cd" y="230.690174"/>
     <use style="fill:#cd853f;stroke:#cd853f;" x="175.791607" xlink:href="#mfb26b2f0cd" y="221.305302"/>
     <use style="fill:#cd853f;stroke:#cd853f;" x="189.211805" xlink:href="#mfb26b2f0cd" y="201.025619"/>
     <use style="fill:#cd853f;stroke:#cd853f;" x="202.581531" xlink:href="#mfb26b2f0cd" y="272.331377"/>
     <use style="fill:#cd853f;stroke:#cd853f;" x="217.157477" xlink:href="#mfb26b2f0cd" y="144.928644"/>
     <use style="fill:#cd853f;stroke:#cd853f;" x="230.867527" xlink:href="#mfb26b2f0cd" y="238.396092"/>
     <use style="fill:#cd853f;stroke:#cd853f;" x="243.761194" xlink:href="#mfb26b2f0cd" y="234.205645"/>
     <use style="fill:#cd853f;stroke:#cd853f;" x="257.762881" xlink:href="#mfb26b2f0cd" y="253.325215"/>
     <use style="fill:#cd853f;stroke:#cd853f;" x="271.362777" xlink:href="#mfb26b2f0cd" y="222.825773"/>
     <use style="fill:#cd853f;stroke:#cd853f;" x="284.437485" xlink:href="#mfb26b2f0cd" y="259.561695"/>
     <use style="fill:#cd853f;stroke:#cd853f;" x="298.087231" xlink:href="#mfb26b2f0cd" y="237.144993"/>
     <use style="fill:#cd853f;stroke:#cd853f;" x="311.814386" xlink:href="#mfb26b2f0cd" y="207.322425"/>
     <use style="fill:#cd853f;stroke:#cd853f;" x="325.30589" xlink:href="#mfb26b2f0cd" y="170.077951"/>
     <use style="fill:#cd853f;stroke:#cd853f;" x="338.736228" xlink:href="#mfb26b2f0cd" y="179.741071"/>
     <use style="fill:#cd853f;stroke:#cd853f;" x="352.165081" xlink:href="#mfb26b2f0cd" y="244.444103"/>
     <use style="fill:#cd853f;stroke:#cd853f;" x="365.843477" xlink:href="#mfb26b2f0cd" y="184.149454"/>
     <use style="fill:#cd853f;stroke:#cd853f;" x="379.175598" xlink:href="#mfb26b2f0cd" y="232.329715"/>
     <use style="fill:#cd853f;stroke:#cd853f;" x="392.783654" xlink:href="#mfb26b2f0cd" y="161.946126"/>
     <use style="fill:#cd853f;stroke:#cd853f;" x="406.126011" xlink:href="#mfb26b2f0cd" y="206.065634"/>
     <use style="fill:#cd853f;stroke:#cd853f;" x="419.725907" xlink:href="#mfb26b2f0cd" y="179.154873"/>
     <use style="fill:#cd853f;stroke:#cd853f;" x="433.092788" xlink:href="#mfb26b2f0cd" y="53.14806"/>
     <use style="fill:#cd853f;stroke:#cd853f;" x="446.649464" xlink:href="#mfb26b2f0cd" y="266.239741"/>
     <use style="fill:#cd853f;stroke:#cd853f;" x="460.135118" xlink:href="#mfb26b2f0cd" y="213.087002"/>
    </g>
   </g>
   <g id="line2d_37">
    <path clip-path="url(#p5c6aaf554c)" d="M 69.535118 261.154103 
L 77.619109 54.616232 
L 91.788255 132.687651 
L 109.39975 120.740913 
L 119.389838 231.170542 
L 136.410267 264.637418 
L 147.252802 143.18576 
L 162.716899 96.100496 
L 175.791607 64.416268 
L 189.211805 169.074811 
L 202.581531 79.022829 
L 217.157477 282.608079 
L 230.867527 35.51717 
L 243.761194 69.717019 
L 257.762881 235.234964 
L 271.362777 260.310633 
L 284.437485 120.608696 
L 298.087231 200.373443 
L 311.814386 266.865143 
L 325.30589 84.403306 
L 338.736228 253.709346 
L 352.165081 150.858641 
L 365.843477 178.833956 
L 379.175598 258.224595 
L 392.783654 193.701471 
L 406.126011 148.420939 
L 419.725907 233.227056 
L 433.092788 204.229437 
L 446.649464 139.645742 
L 460.135118 138.654995 
" style="fill:none;stroke:#8b0000;stroke-linecap:round;stroke-width:1.5;"/>
    <defs>
     <path d="M -3 3 
L 3 3 
L 3 -3 
L -3 -3 
z
" id="m4653898951" style="stroke:#8b0000;stroke-linejoin:miter;"/>
    </defs>
    <g clip-path="url(#p5c6aaf554c)">
     <use style="fill:#8b0000;stroke:#8b0000;stroke-linejoin:miter;" x="69.535118" xlink:href="#m4653898951" y="261.154103"/>
     <use style="fill:#8b0000;stroke:#8b0000;stroke-linejoin:miter;" x="77.619109" xlink:href="#m4653898951" y="54.616232"/>
     <use style="fill:#8b0000;stroke:#8b0000;stroke-linejoin:miter;" x="91.788255" xlink:href="#m4653898951" y="132.687651"/>
     <use style="fill:#8b0000;stroke:#8b0000;stroke-linejoin:miter;" x="109.39975" xlink:href="#m4653898951" y="120.740913"/>
     <use style="fill:#8b0000;stroke:#8b0000;stroke-linejoin:miter;" x="119.389838" xlink:href="#m4653898951" y="231.170542"/>
     <use style="fill:#8b0000;stroke:#8b0000;stroke-linejoin:miter;" x="136.410267" xlink:href="#m4653898951" y="264.637418"/>
     <use style="fill:#8b0000;stroke:#8b0000;stroke-linejoin:miter;" x="147.252802" xlink:href="#m4653898951" y="143.18576"/>
     <use style="fill:#8b0000;stroke:#8b0000;stroke-linejoin:miter;" x="162.716899" xlink:href="#m4653898951" y="96.100496"/>
     <use style="fill:#8b0000;stroke:#8b0000;stroke-linejoin:miter;" x="175.791607" xlink:href="#m4653898951" y="64.416268"/>
     <use style="fill:#8b0000;stroke:#8b0000;stroke-linejoin:miter;" x="189.211805" xlink:href="#m4653898951" y="169.074811"/>
     <use style="fill:#8b0000;stroke:#8b0000;stroke-linejoin:miter;" x="202.581531" xlink:href="#m4653898951" y="79.022829"/>
     <use style="fill:#8b0000;stroke:#8b0000;stroke-linejoin:miter;" x="217.157477" xlink:href="#m4653898951" y="282.608079"/>
     <use style="fill:#8b0000;stroke:#8b0000;stroke-linejoin:miter;" x="230.867527" xlink:href="#m4653898951" y="35.51717"/>
     <use style="fill:#8b0000;stroke:#8b0000;stroke-linejoin:miter;" x="243.761194" xlink:href="#m4653898951" y="69.717019"/>
     <use style="fill:#8b0000;stroke:#8b0000;stroke-linejoin:miter;" x="257.762881" xlink:href="#m4653898951" y="235.234964"/>
     <use style="fill:#8b0000;stroke:#8b0000;stroke-linejoin:miter;" x="271.362777" xlink:href="#m4653898951" y="260.310633"/>
     <use style="fill:#8b0000;stroke:#8b0000;stroke-linejoin:miter;" x="284.437485" xlink:href="#m4653898951" y="120.608696"/>
     <use style="fill:#8b0000;stroke:#8b0000;stroke-linejoin:miter;" x="298.087231" xlink:href="#m4653898951" y="200.373443"/>
     <use style="fill:#8b0000;stroke:#8b0000;stroke-linejoin:miter;" x="311.814386" xlink:href="#m4653898951" y="266.865143"/>
     <use style="fill:#8b0000;stroke:#8b0000;stroke-linejoin:miter;" x="325.30589" xlink:href="#m4653898951" y="84.403306"/>
     <use style="fill:#8b0000;stroke:#8b0000;stroke-linejoin:miter;" x="338.736228" xlink:href="#m4653898951" y="253.709346"/>
     <use style="fill:#8b0000;stroke:#8b0000;stroke-linejoin:miter;" x="352.165081" xlink:href="#m4653898951" y="150.858641"/>
     <use style="fill:#8b0000;stroke:#8b0000;stroke-linejoin:miter;" x="365.843477" xlink:href="#m4653898951" y="178.833956"/>
     <use style="fill:#8b0000;stroke:#8b0000;stroke-linejoin:miter;" x="379.175598" xlink:href="#m4653898951" y="258.224595"/>
     <use style="fill:#8b0000;stroke:#8b0000;stroke-linejoin:miter;" x="392.783654" xlink:href="#m4653898951" y="193.701471"/>
     <use style="fill:#8b0000;stroke:#8b0000;stroke-linejoin:miter;" x="406.126011" xlink:href="#m4653898951" y="148.420939"/>
     <use style="fill:#8b0000;stroke:#8b0000;stroke-linejoin:miter;" x="419.725907" xlink:href="#m4653898951" y="233.227056"/>
     <use style="fill:#8b0000;stroke:#8b0000;stroke-linejoin:miter;" x="433.092788" xlink:href="#m4653898951" y="204.229437"/>
     <use style="fill:#8b0000;stroke:#8b0000;stroke-linejoin:miter;" x="446.649464" xlink:href="#m4653898951" y="139.645742"/>
     <use style="fill:#8b0000;stroke:#8b0000;stroke-linejoin:miter;" x="460.135118" xlink:href="#m4653898951" y="138.654995"/>
    </g>
   </g>
   <g id="patch_3">
    <path d="M 69.535118 294.962625 
L 69.535118 23.162625 
" style="fill:none;stroke:#262626;stroke-linecap:square;stroke-linejoin:miter;stroke-width:1.25;"/>
   </g>
   <g id="patch_4">
    <path d="M 460.135118 294.962625 
L 460.135118 23.162625 
" style="fill:none;stroke:#262626;stroke-linecap:square;stroke-linejoin:miter;stroke-width:1.25;"/>
   </g>
   <g id="patch_5">
    <path d="M 69.535118 294.962625 
L 460.135118 294.962625 
" style="fill:none;stroke:#262626;stroke-linecap:square;stroke-linejoin:miter;stroke-width:1.25;"/>
   </g>
   <g id="patch_6">
    <path d="M 69.535118 23.162625 
L 460.135118 23.162625 
" style="fill:none;stroke:#262626;stroke-linecap:square;stroke-linejoin:miter;stroke-width:1.25;"/>
   </g>
   <g id="text_14">
    <!-- Effect of Lanczos Degree on Accuracy -->
    <g style="fill:#262626;" transform="translate(148.425599 17.162625)scale(0.144 -0.144)">
     <defs>
      <path d="M 2554 2560 
L 3283 2560 
L 3283 2725 
L 2541 2725 
L 2541 3494 
C 2541 4022 2810 4352 3085 4352 
C 3168 4352 3264 4327 3328 4282 
C 3277 4269 3142 4225 3142 4067 
C 3142 3901 3270 3850 3360 3850 
C 3450 3850 3578 3901 3578 4067 
C 3578 4308 3347 4454 3091 4454 
C 2842 4454 2637 4333 2477 4181 
C 2330 4390 2086 4454 1837 4454 
C 1338 4454 634 4168 634 3469 
L 634 2725 
L 122 2725 
L 122 2560 
L 634 2560 
L 634 427 
C 634 184 608 153 198 153 
L 198 -13 
C 352 0 634 0 794 0 
C 960 0 1242 0 1395 -13 
L 1395 153 
C 986 153 960 178 960 427 
L 960 2560 
L 2227 2560 
L 2227 427 
C 2227 184 2202 153 1792 153 
L 1792 -13 
C 1946 0 2240 0 2406 0 
C 2592 0 2918 0 3091 -13 
L 3091 153 
C 2630 153 2554 153 2554 439 
L 2554 2560 
z
M 947 2725 
L 947 3469 
C 947 4047 1395 4352 1824 4352 
C 1920 4352 2170 4332 2323 4187 
C 2208 4187 2099 4136 2099 3977 
C 2099 3812 2246 3767 2259 3767 
C 2227 3652 2227 3526 2227 3481 
L 2227 2725 
L 947 2725 
z
" id="CMR17-b" transform="scale(0.015625)"/>
      <path d="M 333 4352 
L 333 4186 
C 774 4186 845 4186 845 3900 
L 845 452 
C 845 166 774 166 333 166 
L 333 0 
L 2368 0 
C 3398 0 4224 943 4224 2141 
C 4224 3346 3411 4352 2368 4352 
L 333 4352 
z
M 1523 166 
C 1267 166 1254 197 1254 414 
L 1254 3938 
C 1254 4155 1267 4186 1523 4186 
L 2240 4186 
C 2771 4186 3750 3874 3750 2141 
C 3750 1242 3488 879 3366 707 
C 3213 510 2848 166 2240 166 
L 1523 166 
z
" id="CMR17-44" transform="scale(0.015625)"/>
      <path d="M 2323 4378 
C 2291 4461 2278 4480 2214 4480 
C 2150 4480 2138 4461 2106 4378 
L 749 566 
C 627 223 371 153 147 153 
L 147 -13 
C 262 0 518 0 640 0 
C 800 0 1056 0 1210 -13 
L 1210 153 
C 909 153 864 361 864 439 
C 864 497 877 530 890 569 
L 1229 1536 
L 2906 1536 
L 3290 442 
C 3322 365 3322 352 3322 327 
C 3322 153 3046 153 2925 153 
L 2925 0 
C 3110 0 3443 0 3642 0 
C 3808 0 4128 0 4282 -13 
L 4282 153 
C 3942 153 3827 153 3744 387 
L 2323 4378 
z
M 2067 3893 
L 2848 1702 
L 1286 1702 
L 2067 3893 
z
" id="CMR17-41" transform="scale(0.015625)"/>
      <path d="M 2496 2197 
C 2656 2586 2944 2586 3034 2586 
L 3034 2752 
C 2912 2752 2752 2752 2630 2752 
C 2496 2752 2285 2752 2157 2758 
L 2157 2592 
C 2400 2573 2406 2394 2406 2343 
C 2406 2280 2394 2248 2362 2171 
L 1664 449 
L 902 2306 
C 870 2382 870 2426 870 2433 
C 870 2573 1018 2586 1171 2586 
L 1171 2758 
C 1018 2752 742 2752 582 2752 
C 410 2752 205 2752 64 2758 
L 64 2586 
C 410 2586 448 2554 531 2350 
L 1485 15 
C 1197 -738 1030 -1178 627 -1178 
C 557 -1178 397 -1159 282 -1044 
C 429 -1031 493 -942 493 -833 
C 493 -725 416 -629 288 -629 
C 147 -629 77 -725 77 -840 
C 77 -1095 339 -1280 627 -1280 
C 998 -1280 1229 -922 1357 -604 
L 2496 2197 
z
" id="CMR17-79" transform="scale(0.015625)"/>
     </defs>
     <use transform="scale(0.996264)" xlink:href="#CMR17-45"/>
     <use transform="translate(62.586301 0)scale(0.996264)" xlink:href="#CMR17-b"/>
     <use transform="translate(114.930978 0)scale(0.996264)" xlink:href="#CMR17-65"/>
     <use transform="translate(155.416638 0)scale(0.996264)" xlink:href="#CMR17-63"/>
     <use transform="translate(195.902299 0)scale(0.996264)" xlink:href="#CMR17-74"/>
     <use transform="translate(261.259033 0)scale(0.996264)" xlink:href="#CMR17-6f"/>
     <use transform="translate(306.94951 0)scale(0.996264)" xlink:href="#CMR17-66"/>
     <use transform="translate(364.498989 0)scale(0.996264)" xlink:href="#CMR17-4c"/>
     <use transform="translate(421.880397 0)scale(0.996264)" xlink:href="#CMR17-61"/>
     <use transform="translate(467.570874 0)scale(0.996264)" xlink:href="#CMR17-6e"/>
     <use transform="translate(518.466244 0)scale(0.996264)" xlink:href="#CMR17-63"/>
     <use transform="translate(558.951904 0)scale(0.996264)" xlink:href="#CMR17-7a"/>
     <use transform="translate(599.437564 0)scale(0.996264)" xlink:href="#CMR17-6f"/>
     <use transform="translate(645.128042 0)scale(0.996264)" xlink:href="#CMR17-73"/>
     <use transform="translate(711.005346 0)scale(0.996264)" xlink:href="#CMR17-44"/>
     <use transform="translate(781.398901 0)scale(0.996264)" xlink:href="#CMR17-65"/>
     <use transform="translate(821.884562 0)scale(0.996264)" xlink:href="#CMR17-67"/>
     <use transform="translate(867.575039 0)scale(0.996264)" xlink:href="#CMR17-72"/>
     <use transform="translate(902.855807 0)scale(0.996264)" xlink:href="#CMR17-65"/>
     <use transform="translate(943.341467 0)scale(0.996264)" xlink:href="#CMR17-65"/>
     <use transform="translate(1013.903094 0)scale(0.996264)" xlink:href="#CMR17-6f"/>
     <use transform="translate(1059.593571 0)scale(0.996264)" xlink:href="#CMR17-6e"/>
     <use transform="translate(1140.564907 0)scale(0.996264)" xlink:href="#CMR17-41"/>
     <use transform="translate(1209.637337 0)scale(0.996264)" xlink:href="#CMR17-63"/>
     <use transform="translate(1250.122998 0)scale(0.996264)" xlink:href="#CMR17-63"/>
     <use transform="translate(1290.608658 0)scale(0.996264)" xlink:href="#CMR17-75"/>
     <use transform="translate(1341.504028 0)scale(0.996264)" xlink:href="#CMR17-72"/>
     <use transform="translate(1376.784796 0)scale(0.996264)" xlink:href="#CMR17-61"/>
     <use transform="translate(1422.475273 0)scale(0.996264)" xlink:href="#CMR17-63"/>
     <use transform="translate(1462.960933 0)scale(0.996264)" xlink:href="#CMR17-79"/>
    </g>
   </g>
   <g id="legend_1">
    <g id="patch_7">
     <path d="M 313.402043 66.194632 
L 451.738478 66.194632 
Q 454.137518 66.194632 454.137518 63.795592 
L 454.137518 31.559265 
Q 454.137518 29.160225 451.738478 29.160225 
L 313.402043 29.160225 
Q 311.003003 29.160225 311.003003 31.559265 
L 311.003003 63.795592 
Q 311.003003 66.194632 313.402043 66.194632 
z
" style="fill:#ffffff;opacity:0.8;stroke:#cccccc;stroke-linejoin:miter;"/>
    </g>
    <g id="line2d_38">
     <path d="M 315.801083 38.156625 
L 339.791483 38.156625 
" style="fill:none;stroke:#cd853f;stroke-linecap:round;stroke-width:1.5;"/>
    </g>
    <g id="line2d_39">
     <g>
      <use style="fill:#cd853f;stroke:#cd853f;" x="327.796283" xlink:href="#mfb26b2f0cd" y="38.156625"/>
     </g>
    </g>
    <g id="text_15">
     <!-- Orthogonalized -->
     <g style="fill:#262626;" transform="translate(349.387643 42.354945)scale(0.119952 -0.119952)">
      <defs>
       <path d="M 4307 2135 
C 4307 3437 3366 4416 2304 4416 
C 1216 4416 294 3424 294 2135 
C 294 845 1229 -128 2298 -128 
C 3392 -128 4307 864 4307 2135 
z
M 2304 -13 
C 1574 -13 781 711 781 2217 
C 781 3716 1651 4301 2298 4301 
C 2976 4301 3821 3698 3821 2217 
C 3821 686 3008 -13 2304 -13 
z
" id="CMR17-4f" transform="scale(0.015625)"/>
       <path d="M 2656 1933 
C 2656 2259 2592 2790 1837 2790 
C 1312 2790 1056 2368 979 2157 
L 973 2157 
L 973 4396 
L 211 4326 
L 211 4160 
C 589 4160 646 4122 646 3817 
L 646 426 
C 646 184 621 153 211 153 
L 211 -13 
C 365 0 646 0 813 0 
C 979 0 1267 0 1421 -13 
L 1421 153 
C 1011 153 986 178 986 428 
L 986 1658 
C 986 2247 1344 2688 1792 2688 
C 2266 2688 2317 2266 2317 1958 
L 2317 428 
C 2317 184 2291 153 1882 153 
L 1882 -13 
C 2035 0 2317 0 2483 0 
C 2650 0 2938 0 3091 -13 
L 3091 153 
C 2682 153 2656 178 2656 428 
L 2656 1933 
z
" id="CMR17-68" transform="scale(0.015625)"/>
      </defs>
      <use transform="scale(0.996264)" xlink:href="#CMR17-4f"/>
      <use transform="translate(71.714788 0)scale(0.996264)" xlink:href="#CMR17-72"/>
      <use transform="translate(106.995556 0)scale(0.996264)" xlink:href="#CMR17-74"/>
      <use transform="translate(142.276324 0)scale(0.996264)" xlink:href="#CMR17-68"/>
      <use transform="translate(193.171694 0)scale(0.996264)" xlink:href="#CMR17-6f"/>
      <use transform="translate(238.862171 0)scale(0.996264)" xlink:href="#CMR17-67"/>
      <use transform="translate(284.552648 0)scale(0.996264)" xlink:href="#CMR17-6f"/>
      <use transform="translate(330.243125 0)scale(0.996264)" xlink:href="#CMR17-6e"/>
      <use transform="translate(381.138495 0)scale(0.996264)" xlink:href="#CMR17-61"/>
      <use transform="translate(426.828972 0)scale(0.996264)" xlink:href="#CMR17-6c"/>
      <use transform="translate(451.700031 0)scale(0.996264)" xlink:href="#CMR17-69"/>
      <use transform="translate(476.571089 0)scale(0.996264)" xlink:href="#CMR17-7a"/>
      <use transform="translate(517.056749 0)scale(0.996264)" xlink:href="#CMR17-65"/>
      <use transform="translate(557.54241 0)scale(0.996264)" xlink:href="#CMR17-64"/>
     </g>
    </g>
    <g id="line2d_40">
     <path d="M 315.801083 54.874549 
L 339.791483 54.874549 
" style="fill:none;stroke:#8b0000;stroke-linecap:round;stroke-width:1.5;"/>
    </g>
    <g id="line2d_41">
     <g>
      <use style="fill:#8b0000;stroke:#8b0000;stroke-linejoin:miter;" x="327.796283" xlink:href="#m4653898951" y="54.874549"/>
     </g>
    </g>
    <g id="text_16">
     <!-- Not orthogonalized -->
     <g style="fill:#262626;" transform="translate(349.387643 59.072869)scale(0.119952 -0.119952)">
      <defs>
       <path d="M 1312 4250 
C 1267 4320 1261 4320 1139 4320 
L 326 4320 
L 326 4160 
L 448 4160 
C 704 4160 819 4129 838 4122 
L 838 610 
C 838 451 838 153 326 153 
L 326 -13 
C 474 0 742 0 902 0 
C 1062 0 1331 0 1478 -13 
L 1478 153 
C 966 153 966 451 966 610 
L 966 4033 
C 1011 3995 1011 3982 1056 3919 
L 3430 76 
C 3475 0 3494 0 3526 0 
C 3590 0 3590 19 3590 139 
L 3590 3705 
C 3590 3863 3590 4160 4102 4160 
L 4102 4326 
C 3955 4320 3686 4320 3526 4320 
C 3366 4320 3098 4320 2950 4326 
L 2950 4160 
C 3462 4160 3462 3862 3462 3703 
L 3462 763 
L 1312 4250 
z
" id="CMR17-4e" transform="scale(0.015625)"/>
      </defs>
      <use transform="scale(0.996264)" xlink:href="#CMR17-4e"/>
      <use transform="translate(69.07243 0)scale(0.996264)" xlink:href="#CMR17-6f"/>
      <use transform="translate(114.762907 0)scale(0.996264)" xlink:href="#CMR17-74"/>
      <use transform="translate(180.119641 0)scale(0.996264)" xlink:href="#CMR17-6f"/>
      <use transform="translate(225.810118 0)scale(0.996264)" xlink:href="#CMR17-72"/>
      <use transform="translate(261.090886 0)scale(0.996264)" xlink:href="#CMR17-74"/>
      <use transform="translate(296.371654 0)scale(0.996264)" xlink:href="#CMR17-68"/>
      <use transform="translate(347.267024 0)scale(0.996264)" xlink:href="#CMR17-6f"/>
      <use transform="translate(392.957501 0)scale(0.996264)" xlink:href="#CMR17-67"/>
      <use transform="translate(438.647978 0)scale(0.996264)" xlink:href="#CMR17-6f"/>
      <use transform="translate(484.338455 0)scale(0.996264)" xlink:href="#CMR17-6e"/>
      <use transform="translate(535.233825 0)scale(0.996264)" xlink:href="#CMR17-61"/>
      <use transform="translate(580.924302 0)scale(0.996264)" xlink:href="#CMR17-6c"/>
      <use transform="translate(605.79536 0)scale(0.996264)" xlink:href="#CMR17-69"/>
      <use transform="translate(630.666419 0)scale(0.996264)" xlink:href="#CMR17-7a"/>
      <use transform="translate(671.152079 0)scale(0.996264)" xlink:href="#CMR17-65"/>
      <use transform="translate(711.63774 0)scale(0.996264)" xlink:href="#CMR17-64"/>
     </g>
    </g>
   </g>
  </g>
 </g>
 <defs>
  <clipPath id="p5c6aaf554c">
   <rect height="271.8" width="390.6" x="69.535118" y="23.162625"/>
  </clipPath>
 </defs>
</svg>
