<?xml version="1.0" encoding="utf-8" standalone="no"?>
<!DOCTYPE svg PUBLIC "-//W3C//DTD SVG 1.1//EN"
  "http://www.w3.org/Graphics/SVG/1.1/DTD/svg11.dtd">
<!-- Created with matplotlib (https://matplotlib.org/) -->
<svg height="271.296pt" version="1.1" viewBox="0 0 631.296 271.296" width="631.296pt" xmlns="http://www.w3.org/2000/svg" xmlns:xlink="http://www.w3.org/1999/xlink">
 <metadata>
  <rdf:RDF xmlns:cc="http://creativecommons.org/ns#" xmlns:dc="http://purl.org/dc/elements/1.1/" xmlns:rdf="http://www.w3.org/1999/02/22-rdf-syntax-ns#">
   <cc:Work>
    <dc:type rdf:resource="http://purl.org/dc/dcmitype/StillImage"/>
    <dc:date>2020-12-04T09:35:50.733593</dc:date>
    <dc:format>image/svg+xml</dc:format>
    <dc:creator>
     <cc:Agent>
      <dc:title>Matplotlib v3.3.3, https://matplotlib.org/</dc:title>
     </cc:Agent>
    </dc:creator>
   </cc:Work>
  </rdf:RDF>
 </metadata>
 <defs>
  <style type="text/css">*{stroke-linecap:butt;stroke-linejoin:round;}</style>
 </defs>
 <g id="figure_1">
  <g id="patch_1">
   <path d="M 0 271.296 
L 631.296 271.296 
L 631.296 0 
L 0 0 
z
" style="fill:none;"/>
  </g>
  <g id="axes_1">
   <g id="patch_2">
    <path d="M 61.666113 226.154392 
L 287.234075 226.154392 
L 287.234075 23.162625 
L 61.666113 23.162625 
z
" style="fill:none;"/>
   </g>
   <g id="matplotlib.axis_1">
    <g id="xtick_1">
     <g id="line2d_1">
      <path clip-path="url(#pda07a63e5a)" d="M 61.666113 226.154392 
L 61.666113 23.162625 
" style="fill:none;stroke:#cccccc;stroke-linecap:round;"/>
     </g>
     <g id="line2d_2">
      <defs>
       <path d="M 0 0 
L 0 6 
" id="mbcdede2662" style="stroke:#262626;stroke-width:1.25;"/>
      </defs>
      <g>
       <use style="fill:#262626;stroke:#262626;stroke-width:1.25;" x="61.666113" xlink:href="#mbcdede2662" y="226.154392"/>
      </g>
     </g>
     <g id="text_1">
      <!-- $\mathdefault{10^{-3}}$ -->
      <g style="fill:#262626;" transform="translate(49.183276 244.786787)scale(0.132 -0.132)">
       <defs>
        <path d="M 26.59375 63.40625 
C 26.59375 65.5 26.5 65.5 25.09375 65.5 
C 21.203125 61.1875 15.296875 59.796875 9.703125 59.796875 
C 9.40625 59.796875 8.90625 59.796875 8.796875 59.5 
C 8.703125 59.296875 8.703125 59.09375 8.703125 57 
C 11.796875 57 17 57.59375 21 59.984375 
L 21 7.203125 
C 21 3.6875 20.796875 2.5 12.203125 2.5 
L 9.203125 2.5 
L 9.203125 0 
C 14 0 19 0 23.796875 0 
C 28.59375 0 33.59375 0 38.40625 0 
L 38.40625 2.5 
L 35.40625 2.5 
C 26.796875 2.5 26.59375 3.59375 26.59375 7.15625 
z
" id="CMR17-49"/>
        <path d="M 42 31.640625 
C 42 37.75 41.90625 48.125 37.703125 56.109375 
C 34 63.109375 28.09375 65.59375 22.90625 65.59375 
C 18.09375 65.59375 12 63.40625 8.203125 56.203125 
C 4.203125 48.71875 3.796875 39.4375 3.796875 31.640625 
C 3.796875 25.953125 3.90625 17.28125 7 9.671875 
C 11.296875 -0.609375 19 -2 22.90625 -2 
C 27.5 -2 34.5 -0.109375 38.59375 9.375 
C 41.59375 16.28125 42 24.359375 42 31.640625 
z
M 22.90625 -0.40625 
C 16.5 -0.40625 12.703125 5.078125 11.296875 12.6875 
C 10.203125 18.5625 10.203125 27.15625 10.203125 32.75 
C 10.203125 40.4375 10.203125 46.828125 11.5 52.921875 
C 13.40625 61.390625 19 64 22.90625 64 
C 27 64 32.296875 61.296875 34.203125 53.125 
C 35.5 47.4375 35.59375 40.734375 35.59375 32.75 
C 35.59375 26.25 35.59375 18.265625 34.40625 12.375 
C 32.296875 1.484375 26.40625 -0.40625 22.90625 -0.40625 
z
" id="CMR17-48"/>
        <path d="M 65.90625 23 
C 67.59375 23 69.40625 23 69.40625 25 
C 69.40625 27 67.59375 27 65.90625 27 
L 11.796875 27 
C 10.09375 27 8.296875 27 8.296875 25 
C 8.296875 23 10.09375 23 11.796875 23 
z
" id="CMSY10-0"/>
        <path d="M 22.09375 33.703125 
C 31 33.703125 34.90625 25.96875 34.90625 17.03125 
C 34.90625 5 28.5 0.390625 22.703125 0.390625 
C 17.40625 0.390625 8.796875 3.03125 6.09375 10.828125 
C 6.59375 10.625 7.09375 10.625 7.59375 10.625 
C 10 10.625 11.796875 12.21875 11.796875 14.8125 
C 11.796875 17.703125 9.59375 19 7.59375 19 
C 5.90625 19 3.296875 18.203125 3.296875 14.46875 
C 3.296875 5.234375 12.296875 -2 22.90625 -2 
C 34 -2 42.5 6.71875 42.5 16.953125 
C 42.5 26.671875 34.5 33.703125 25 34.796875 
C 32.59375 36.375 39.90625 43.0625 39.90625 52.015625 
C 39.90625 59.6875 32 65.296875 23 65.296875 
C 13.90625 65.296875 5.90625 59.828125 5.90625 52.015625 
C 5.90625 48.59375 8.5 48 9.796875 48 
C 11.90625 48 13.703125 49.296875 13.703125 51.890625 
C 13.703125 54.46875 11.90625 55.765625 9.796875 55.765625 
C 9.40625 55.765625 8.90625 55.765625 8.5 55.578125 
C 11.40625 61.859375 19.296875 63 22.796875 63 
C 26.296875 63 32.90625 61.328125 32.90625 51.875 
C 32.90625 49.109375 32.5 44.1875 29.09375 39.84375 
C 26.09375 36 22.703125 36 19.40625 35.6875 
C 18.90625 35.6875 16.59375 35.453125 16.203125 35.453125 
C 15.5 35.359375 15.09375 35.265625 15.09375 34.5 
C 15.09375 33.796875 15.203125 33.703125 17.203125 33.703125 
z
" id="CMR17-51"/>
       </defs>
       <use transform="scale(0.996264)" xlink:href="#CMR17-49"/>
       <use transform="translate(45.690477 0)scale(0.996264)" xlink:href="#CMR17-48"/>
       <use transform="translate(91.380954 36.153639)scale(0.697382)" xlink:href="#CMSY10-0"/>
       <use transform="translate(145.621947 36.153639)scale(0.697382)" xlink:href="#CMR17-51"/>
      </g>
     </g>
    </g>
    <g id="xtick_2">
     <g id="line2d_3">
      <path clip-path="url(#pda07a63e5a)" d="M 136.855434 226.154392 
L 136.855434 23.162625 
" style="fill:none;stroke:#cccccc;stroke-linecap:round;"/>
     </g>
     <g id="line2d_4">
      <g>
       <use style="fill:#262626;stroke:#262626;stroke-width:1.25;" x="136.855434" xlink:href="#mbcdede2662" y="226.154392"/>
      </g>
     </g>
     <g id="text_2">
      <!-- $\mathdefault{10^{-1}}$ -->
      <g style="fill:#262626;" transform="translate(124.372596 244.786787)scale(0.132 -0.132)">
       <use transform="scale(0.996264)" xlink:href="#CMR17-49"/>
       <use transform="translate(45.690477 0)scale(0.996264)" xlink:href="#CMR17-48"/>
       <use transform="translate(91.380954 36.153639)scale(0.697382)" xlink:href="#CMSY10-0"/>
       <use transform="translate(145.621947 36.153639)scale(0.697382)" xlink:href="#CMR17-49"/>
      </g>
     </g>
    </g>
    <g id="xtick_3">
     <g id="line2d_5">
      <path clip-path="url(#pda07a63e5a)" d="M 212.044755 226.154392 
L 212.044755 23.162625 
" style="fill:none;stroke:#cccccc;stroke-linecap:round;"/>
     </g>
     <g id="line2d_6">
      <g>
       <use style="fill:#262626;stroke:#262626;stroke-width:1.25;" x="212.044755" xlink:href="#mbcdede2662" y="226.154392"/>
      </g>
     </g>
     <g id="text_3">
      <!-- $\mathdefault{10^{1}}$ -->
      <g style="fill:#262626;" transform="translate(203.24122 244.786787)scale(0.132 -0.132)">
       <use transform="scale(0.996264)" xlink:href="#CMR17-49"/>
       <use transform="translate(45.690477 0)scale(0.996264)" xlink:href="#CMR17-48"/>
       <use transform="translate(91.380954 36.153639)scale(0.697382)" xlink:href="#CMR17-49"/>
      </g>
     </g>
    </g>
    <g id="xtick_4">
     <g id="line2d_7">
      <path clip-path="url(#pda07a63e5a)" d="M 287.234075 226.154392 
L 287.234075 23.162625 
" style="fill:none;stroke:#cccccc;stroke-linecap:round;"/>
     </g>
     <g id="line2d_8">
      <g>
       <use style="fill:#262626;stroke:#262626;stroke-width:1.25;" x="287.234075" xlink:href="#mbcdede2662" y="226.154392"/>
      </g>
     </g>
     <g id="text_4">
      <!-- $\mathdefault{10^{3}}$ -->
      <g style="fill:#262626;" transform="translate(278.430541 244.786787)scale(0.132 -0.132)">
       <use transform="scale(0.996264)" xlink:href="#CMR17-49"/>
       <use transform="translate(45.690477 0)scale(0.996264)" xlink:href="#CMR17-48"/>
       <use transform="translate(91.380954 36.153639)scale(0.697382)" xlink:href="#CMR17-51"/>
      </g>
     </g>
    </g>
    <g id="text_5">
     <!-- $t$ -->
     <g style="fill:#262626;" transform="translate(171.913806 261.306473)scale(0.144 -0.144)">
      <defs>
       <path d="M 20.09375 40.09375 
L 29.296875 40.09375 
C 31.203125 40.09375 32.203125 40.09375 32.203125 41.890625 
C 32.203125 43 31.59375 43 29.59375 43 
L 20.796875 43 
L 24.5 57.6875 
C 24.90625 59.078125 24.90625 59.28125 24.90625 60 
C 24.90625 61.609375 23.59375 62.5 22.296875 62.5 
C 21.5 62.5 19.203125 62.203125 18.40625 58.984375 
L 14.5 43 
L 5.09375 43 
C 3.09375 43 2.203125 43 2.203125 41.09375 
C 2.203125 40.09375 2.90625 40.09375 4.796875 40.09375 
L 13.703125 40.09375 
L 7.09375 13.765625 
C 6.296875 10.28125 6 9.28125 6 7.984375 
C 6 3.296875 9.296875 -1 14.90625 -1 
C 25 -1 30.40625 13.5625 30.40625 14.25 
C 30.40625 14.859375 30 15.15625 29.40625 15.15625 
C 29.203125 15.15625 28.796875 15.15625 28.59375 14.75 
C 28.5 14.65625 28.40625 14.546875 27.703125 12.953125 
C 25.59375 7.984375 21 1 15.203125 1 
C 12.203125 1 12 3.5 12 5.6875 
C 12 5.78125 12 7.6875 12.296875 8.875 
z
" id="CMMI12-116"/>
      </defs>
      <use transform="scale(0.996264)" xlink:href="#CMMI12-116"/>
     </g>
    </g>
   </g>
   <g id="matplotlib.axis_2">
    <g id="ytick_1">
     <g id="line2d_9">
      <path clip-path="url(#pda07a63e5a)" d="M 61.666113 216.982457 
L 287.234075 216.982457 
" style="fill:none;stroke:#cccccc;stroke-linecap:round;"/>
     </g>
     <g id="line2d_10">
      <defs>
       <path d="M 0 0 
L -6 0 
" id="ma15083bf50" style="stroke:#262626;stroke-width:1.25;"/>
      </defs>
      <g>
       <use style="fill:#262626;stroke:#262626;stroke-width:1.25;" x="61.666113" xlink:href="#ma15083bf50" y="216.982457"/>
      </g>
     </g>
     <g id="text_6">
      <!-- $\mathdefault{0}$ -->
      <g style="fill:#262626;" transform="translate(45.727839 221.548655)scale(0.132 -0.132)">
       <use transform="scale(0.996264)" xlink:href="#CMR17-48"/>
      </g>
     </g>
    </g>
    <g id="ytick_2">
     <g id="line2d_11">
      <path clip-path="url(#pda07a63e5a)" d="M 61.666113 169.289993 
L 287.234075 169.289993 
" style="fill:none;stroke:#cccccc;stroke-linecap:round;"/>
     </g>
     <g id="line2d_12">
      <g>
       <use style="fill:#262626;stroke:#262626;stroke-width:1.25;" x="61.666113" xlink:href="#ma15083bf50" y="169.289993"/>
      </g>
     </g>
     <g id="text_7">
      <!-- $\mathdefault{500}$ -->
      <g style="fill:#262626;" transform="translate(32.851291 173.85619)scale(0.132 -0.132)">
       <defs>
        <path d="M 11.40625 57.6875 
C 12.40625 57.28125 16.5 56 20.703125 56 
C 30 56 35.09375 61.109375 38 64.0625 
C 38 64.953125 38 65.5 37.40625 65.5 
C 37.296875 65.5 37.09375 65.5 36.296875 65.046875 
C 32.796875 63.40625 28.703125 62.078125 23.703125 62.078125 
C 20.703125 62.078125 16.203125 62.484375 11.296875 64.671875 
C 10.203125 65.171875 10 65.171875 9.90625 65.171875 
C 9.40625 65.171875 9.296875 65.0625 9.296875 63.078125 
L 9.296875 34.421875 
C 9.296875 32.640625 9.296875 32.140625 10.296875 32.140625 
C 10.796875 32.140625 11 32.34375 11.5 33.03125 
C 14.703125 37.515625 19.09375 39.40625 24.09375 39.40625 
C 27.59375 39.40625 35.09375 37.21875 35.09375 20.140625 
C 35.09375 16.953125 35.09375 11.171875 32.09375 6.578125 
C 29.59375 2.484375 25.703125 0.390625 21.40625 0.390625 
C 14.796875 0.390625 8.09375 5 6.296875 12.71875 
C 6.703125 12.609375 7.5 12.421875 7.90625 12.421875 
C 9.203125 12.421875 11.703125 13.125 11.703125 16.21875 
C 11.703125 18.90625 9.796875 20 7.90625 20 
C 5.59375 20 4.09375 18.59375 4.09375 15.796875 
C 4.09375 7.09375 11 -2 21.59375 -2 
C 31.90625 -2 41.703125 6.875 41.703125 19.75 
C 41.703125 31.71875 33.90625 41 24.203125 41 
C 19.09375 41 14.796875 39.109375 11.40625 35.53125 
z
" id="CMR17-53"/>
       </defs>
       <use transform="scale(0.996264)" xlink:href="#CMR17-53"/>
       <use transform="translate(45.690477 0)scale(0.996264)" xlink:href="#CMR17-48"/>
       <use transform="translate(91.380954 0)scale(0.996264)" xlink:href="#CMR17-48"/>
      </g>
     </g>
    </g>
    <g id="ytick_3">
     <g id="line2d_13">
      <path clip-path="url(#pda07a63e5a)" d="M 61.666113 121.597529 
L 287.234075 121.597529 
" style="fill:none;stroke:#cccccc;stroke-linecap:round;"/>
     </g>
     <g id="line2d_14">
      <g>
       <use style="fill:#262626;stroke:#262626;stroke-width:1.25;" x="61.666113" xlink:href="#ma15083bf50" y="121.597529"/>
      </g>
     </g>
     <g id="text_8">
      <!-- $\mathdefault{1000}$ -->
      <g style="fill:#262626;" transform="translate(26.413016 126.163726)scale(0.132 -0.132)">
       <use transform="scale(0.996264)" xlink:href="#CMR17-49"/>
       <use transform="translate(45.690477 0)scale(0.996264)" xlink:href="#CMR17-48"/>
       <use transform="translate(91.380954 0)scale(0.996264)" xlink:href="#CMR17-48"/>
       <use transform="translate(137.071431 0)scale(0.996264)" xlink:href="#CMR17-48"/>
      </g>
     </g>
    </g>
    <g id="ytick_4">
     <g id="line2d_15">
      <path clip-path="url(#pda07a63e5a)" d="M 61.666113 73.905065 
L 287.234075 73.905065 
" style="fill:none;stroke:#cccccc;stroke-linecap:round;"/>
     </g>
     <g id="line2d_16">
      <g>
       <use style="fill:#262626;stroke:#262626;stroke-width:1.25;" x="61.666113" xlink:href="#ma15083bf50" y="73.905065"/>
      </g>
     </g>
     <g id="text_9">
      <!-- $\mathdefault{1500}$ -->
      <g style="fill:#262626;" transform="translate(26.413016 78.471262)scale(0.132 -0.132)">
       <use transform="scale(0.996264)" xlink:href="#CMR17-49"/>
       <use transform="translate(45.690477 0)scale(0.996264)" xlink:href="#CMR17-53"/>
       <use transform="translate(91.380954 0)scale(0.996264)" xlink:href="#CMR17-48"/>
       <use transform="translate(137.071431 0)scale(0.996264)" xlink:href="#CMR17-48"/>
      </g>
     </g>
    </g>
    <g id="ytick_5">
     <g id="line2d_17">
      <path clip-path="url(#pda07a63e5a)" d="M 61.666113 26.2126 
L 287.234075 26.2126 
" style="fill:none;stroke:#cccccc;stroke-linecap:round;"/>
     </g>
     <g id="line2d_18">
      <g>
       <use style="fill:#262626;stroke:#262626;stroke-width:1.25;" x="61.666113" xlink:href="#ma15083bf50" y="26.2126"/>
      </g>
     </g>
     <g id="text_10">
      <!-- $\mathdefault{2000}$ -->
      <g style="fill:#262626;" transform="translate(26.413016 30.778798)scale(0.132 -0.132)">
       <defs>
        <path d="M 41.703125 15.453125 
L 39.90625 15.453125 
C 38.90625 8.375 38.09375 7.171875 37.703125 6.5625 
C 37.203125 5.765625 30 5.765625 28.59375 5.765625 
L 9.40625 5.765625 
C 13 9.671875 20 16.75 28.5 24.953125 
C 34.59375 30.734375 41.703125 37.53125 41.703125 47.421875 
C 41.703125 59.21875 32.296875 66 21.796875 66 
C 10.796875 66 4.09375 56.3125 4.09375 47.34375 
C 4.09375 43.4375 7 42.9375 8.203125 42.9375 
C 9.203125 42.9375 12.203125 43.546875 12.203125 47.03125 
C 12.203125 50.109375 9.59375 51 8.203125 51 
C 7.59375 51 7 50.90625 6.59375 50.703125 
C 8.5 59.21875 14.296875 63.40625 20.40625 63.40625 
C 29.09375 63.40625 34.796875 56.515625 34.796875 47.421875 
C 34.796875 38.734375 29.703125 31.25 24 24.75 
L 4.09375 2.28125 
L 4.09375 0 
L 39.296875 0 
z
" id="CMR17-50"/>
       </defs>
       <use transform="scale(0.996264)" xlink:href="#CMR17-50"/>
       <use transform="translate(45.690477 0)scale(0.996264)" xlink:href="#CMR17-48"/>
       <use transform="translate(91.380954 0)scale(0.996264)" xlink:href="#CMR17-48"/>
       <use transform="translate(137.071431 0)scale(0.996264)" xlink:href="#CMR17-48"/>
      </g>
     </g>
    </g>
    <g id="text_11">
     <!-- trace$(\mathbf{A} + t \mathbf{B})^{-1}$ -->
     <g style="fill:#262626;" transform="translate(18.826475 174.721763)rotate(-90)scale(0.144 -0.144)">
      <defs>
       <path d="M 15.09375 40 
L 29.09375 40 
L 29.09375 42.578125 
L 15.09375 42.578125 
L 15.09375 61 
L 13.296875 61 
C 13.09375 50.703125 9.59375 41.6875 1.09375 41.6875 
L 1.09375 40 
L 9.796875 40 
L 9.796875 12.046875 
C 9.796875 10.15625 9.796875 -1 21.40625 -1 
C 27.296875 -1 30.703125 4.78125 30.703125 12.140625 
L 30.703125 17.8125 
L 28.90625 17.8125 
L 28.90625 12.234375 
C 28.90625 5.375 26.203125 0.796875 22 0.796875 
C 19.09375 0.796875 15.09375 2.78125 15.09375 11.84375 
z
" id="CMR17-116"/>
       <path d="M 15 23.390625 
C 15 33 19.09375 42 26.59375 42 
C 27.296875 42 28 41.90625 28.703125 41.59375 
C 28.703125 41.59375 26.5 40.890625 26.5 38.3125 
C 26.5 35.90625 28.40625 34.90625 29.90625 34.90625 
C 31.09375 34.90625 33.296875 35.609375 33.296875 38.40625 
C 33.296875 41.609375 30.09375 43.59375 26.703125 43.59375 
C 19.09375 43.59375 15.796875 36.203125 14.796875 32.703125 
L 14.703125 32.703125 
L 14.703125 43.59375 
L 3.09375 42.5 
L 3.09375 39.90625 
C 9 39.90625 9.90625 39.296875 9.90625 34.5 
L 9.90625 6.6875 
C 9.90625 2.875 9.5 2.390625 3.09375 2.390625 
L 3.09375 -0.203125 
C 5.5 0 10.09375 0 12.703125 0 
C 15.59375 0 20.703125 0 23.40625 -0.203125 
L 23.40625 2.390625 
C 16.203125 2.390625 15 2.390625 15 6.875 
z
" id="CMR17-114"/>
       <path d="M 36 25.828125 
C 36 32.375 36 35.84375 31.796875 39.734375 
C 28.09375 43 23.796875 44 20.40625 44 
C 12.5 44 6.796875 37.609375 6.796875 30.796875 
C 6.796875 27 9.796875 27 10.40625 27 
C 11.703125 27 14 27.78125 14 30.53125 
C 14 33 12.09375 34.078125 10.40625 34.078125 
C 10 34.078125 9.5 33.96875 9.203125 33.875 
C 11.296875 40.5 16.703125 42.40625 20.203125 42.40625 
C 25.203125 42.40625 30.703125 37.953125 30.703125 29.453125 
L 30.703125 25 
C 24.796875 25 17.703125 24.203125 12.09375 21.203125 
C 5.796875 17.703125 4 12.703125 4 8.90625 
C 4 1.203125 13 -1 18.296875 -1 
C 23.796875 -1 28.90625 2.171875 31.09375 7.984375 
C 31.296875 3.640625 34.09375 -0.28125 38.5 -0.28125 
C 40.59375 -0.28125 45.90625 1.09375 45.90625 8.859375 
L 45.90625 14.375 
L 44.09375 14.375 
L 44.09375 8.78125 
C 44.09375 2.78125 41.40625 2 40.09375 2 
C 36 2 36 7.15625 36 11.53125 
z
M 30.703125 13.59375 
C 30.703125 4.953125 24.5 0.59375 19 0.59375 
C 14 0.59375 10.09375 4.296875 10.09375 8.90625 
C 10.09375 11.890625 11.40625 17.1875 17.203125 20.390625 
C 22 23.09375 27.5 23.5 30.703125 23.5 
z
" id="CMR17-97"/>
       <path d="M 34.90625 35 
C 33 35 30.203125 35 30.203125 31.515625 
C 30.203125 28.71875 32.5 27.921875 33.796875 27.921875 
C 34.5 27.921875 37.40625 28.234375 37.40625 31.625 
C 37.40625 38.546875 30.59375 43.796875 22.90625 43.796875 
C 12.296875 43.796875 3.296875 34.03125 3.296875 21.296875 
C 3.296875 8.0625 12.703125 -1 22.90625 -1 
C 35.296875 -1 38.40625 10.578125 38.40625 11.6875 
C 38.40625 12.09375 38.296875 12.390625 37.59375 12.390625 
C 36.90625 12.390625 36.796875 12.296875 36.40625 10.984375 
C 33.796875 2.8125 28.09375 0.796875 23.796875 0.796875 
C 17.40625 0.796875 9.703125 6.671875 9.703125 21.390625 
C 9.703125 36.53125 17.09375 42 23 42 
C 26.90625 42 32.703125 40.203125 34.90625 35 
z
" id="CMR17-99"/>
       <path d="M 38.09375 23 
C 38.5 23.40625 38.5 23.609375 38.5 24.625 
C 38.5 34.96875 33.09375 44 21.703125 44 
C 11.09375 44 2.703125 33.890625 2.703125 21.609375 
C 2.703125 8.609375 12.203125 -1 22.796875 -1 
C 34 -1 38.40625 9.484375 38.40625 11.5625 
C 38.40625 12.25 37.796875 12.25 37.59375 12.25 
C 36.90625 12.25 36.796875 12.046875 36.40625 10.875 
C 34.203125 4.140625 28.703125 0.796875 23.5 0.796875 
C 19.203125 0.796875 14.90625 3.171875 12.203125 7.5 
C 9.09375 12.546875 9.09375 18.375 9.09375 23 
z
M 9.203125 24.5 
C 9.90625 39.140625 17.59375 42.40625 21.59375 42.40625 
C 28.40625 42.40625 33 35.890625 33.09375 24.5 
z
" id="CMR17-101"/>
       <path d="M 30.59375 -24.390625 
C 30.59375 -24.296875 30.59375 -24.09375 30.296875 -23.796875 
C 25.703125 -19.125 13.40625 -6.359375 13.40625 24.703125 
C 13.40625 55.765625 25.5 68.421875 30.40625 73.390625 
C 30.40625 73.5 30.59375 73.703125 30.59375 74 
C 30.59375 74.296875 30.296875 74.5 29.90625 74.5 
C 28.796875 74.5 20.296875 67.125 15.40625 56.15625 
C 10.40625 45.109375 9 34.359375 9 24.8125 
C 9 17.625 9.703125 5.484375 15.703125 -7.359375 
C 20.5 -17.734375 28.703125 -25 29.90625 -25 
C 30.40625 -25 30.59375 -24.796875 30.59375 -24.390625 
z
" id="CMR17-40"/>
       <path d="M 45.796875 67.203125 
C 45.09375 69 44.90625 69.5 42.5 69.5 
C 40 69.5 39.796875 69 39.09375 67.203125 
L 14.296875 6.453125 
C 13.59375 4.859375 13.59375 4.671875 10.796875 4.359375 
C 8.296875 4.0625 7.90625 4.0625 5.703125 4.0625 
L 3.90625 4.0625 
L 3.90625 -0.203125 
C 6.5 0 12.5 0 15.40625 0 
C 18.09375 0 25.40625 0 27.703125 -0.203125 
L 27.703125 4.0625 
C 25.5 4.0625 21.703125 4.0625 18.90625 5.171875 
C 19.203125 6.09375 19.203125 6.28125 19.40625 6.6875 
L 24.703125 19.71875 
L 51.5 19.71875 
L 57.796875 4.0625 
L 48.40625 4.0625 
L 48.40625 0 
C 51.59375 0 61.296875 0 65.09375 0 
C 68.296875 0 78.5 0 81 -0.203125 
L 81 4.0625 
L 71.5 4.0625 
z
M 38.09375 52.609375 
L 49.703125 24 
L 26.40625 24 
z
" id="CMBX12-65"/>
       <path d="M 37.703125 23 
L 64.203125 23 
C 65.59375 23 67.296875 23 67.296875 24.6875 
C 67.296875 26.484375 65.703125 26.484375 64.203125 26.484375 
L 37.703125 26.484375 
L 37.703125 52.90625 
C 37.703125 54.296875 37.703125 56 36 56 
C 34.203125 56 34.203125 54.40625 34.203125 52.90625 
L 34.203125 26.484375 
L 7.703125 26.484375 
C 6.296875 26.484375 4.59375 26.484375 4.59375 24.796875 
C 4.59375 23 6.203125 23 7.703125 23 
L 34.203125 23 
L 34.203125 -3.40625 
C 34.203125 -4.796875 34.203125 -6.5 35.90625 -6.5 
C 37.703125 -6.5 37.703125 -4.90625 37.703125 -3.40625 
z
" id="CMR17-43"/>
       <path d="M 3.90625 68.28125 
L 3.90625 64 
L 14.5 64 
L 14.5 4.265625 
L 3.90625 4.265625 
L 3.90625 0 
L 49.09375 0 
C 65.59375 0 73.703125 8.828125 73.703125 18.34375 
C 73.703125 27.78125 65.40625 34.625 53.296875 35.515625 
C 67.703125 38.21875 70.5 46.40625 70.5 51.09375 
C 70.5 60.28125 62.09375 68.28125 46.09375 68.28125 
z
M 26.796875 37 
L 26.796875 64 
L 44.90625 64 
C 55.203125 64 57.296875 56.203125 57.296875 51.1875 
C 57.296875 44.1875 53.40625 37 41.703125 37 
z
M 26.796875 4.265625 
L 26.796875 33.71875 
L 46.703125 33.71875 
C 58.40625 33.71875 60.09375 23 60.09375 18.546875 
C 60.09375 12.296875 56.703125 4.265625 45.203125 4.265625 
z
" id="CMBX12-66"/>
       <path d="M 26.296875 24.703125 
C 26.296875 31.875 25.59375 44.015625 19.59375 56.859375 
C 14.796875 67.234375 6.59375 74.5 5.40625 74.5 
C 5.09375 74.5 4.703125 74.390625 4.703125 73.890625 
C 4.703125 73.703125 4.796875 73.59375 4.90625 73.390625 
C 9.703125 68.40625 21.90625 55.75 21.90625 24.75 
C 21.90625 -6.359375 9.796875 -19.015625 4.90625 -24.015625 
C 4.796875 -24.203125 4.703125 -24.3125 4.703125 -24.5 
C 4.703125 -25 5.09375 -25 5.40625 -25 
C 6.5 -25 15 -17.625 19.90625 -6.65625 
C 24.90625 4.390625 26.296875 15.140625 26.296875 24.703125 
z
" id="CMR17-41"/>
      </defs>
      <use transform="scale(0.996264)" xlink:href="#CMR17-116"/>
      <use transform="translate(35.280768 0)scale(0.996264)" xlink:href="#CMR17-114"/>
      <use transform="translate(70.561536 0)scale(0.996264)" xlink:href="#CMR17-97"/>
      <use transform="translate(116.252013 0)scale(0.996264)" xlink:href="#CMR17-99"/>
      <use transform="translate(156.737673 0)scale(0.996264)" xlink:href="#CMR17-101"/>
      <use transform="translate(197.223334 0)scale(0.996264)" xlink:href="#CMR17-40"/>
      <use transform="translate(232.504101 0)scale(0.996264)" xlink:href="#CMBX12-65"/>
      <use transform="translate(339.279703 0)scale(0.996264)" xlink:href="#CMR17-43"/>
      <use transform="translate(433.133698 0)scale(0.996264)" xlink:href="#CMMI12-116"/>
      <use transform="translate(468.360029 0)scale(0.996264)" xlink:href="#CMBX12-66"/>
      <use transform="translate(548.038164 0)scale(0.996264)" xlink:href="#CMR17-41"/>
      <use transform="translate(583.318932 36.153639)scale(0.697382)" xlink:href="#CMSY10-0"/>
      <use transform="translate(637.559925 36.153639)scale(0.697382)" xlink:href="#CMR17-49"/>
     </g>
    </g>
   </g>
   <g id="line2d_19">
    <path clip-path="url(#pda07a63e5a)" d="M 61.666113 32.389523 
L 63.944577 32.484737 
L 66.223041 32.594086 
L 68.501506 32.719649 
L 70.77997 32.863802 
L 73.058434 33.029261 
L 75.336898 33.219127 
L 77.615363 33.436936 
L 79.893827 33.686718 
L 82.172291 33.973057 
L 84.450755 34.301159 
L 86.72922 34.676928 
L 89.007684 35.10704 
L 91.286148 35.599031 
L 93.564613 36.161379 
L 95.843077 36.803595 
L 98.121541 37.536301 
L 100.400005 38.371312 
L 102.67847 39.3217 
L 104.956934 40.401837 
L 107.235398 41.627414 
L 109.513862 43.015417 
L 111.792327 44.584046 
L 114.070791 46.352572 
L 116.349255 48.341105 
L 118.62772 50.570252 
L 120.906184 53.060668 
L 123.184648 55.83246 
L 125.463112 58.904458 
L 127.741577 62.293342 
L 130.020041 66.012647 
L 132.298505 70.071665 
L 134.576969 74.474319 
L 136.855434 79.218054 
L 139.133898 84.292854 
L 141.412362 89.68049 
L 143.690826 95.354084 
L 145.969291 101.278123 
L 148.247755 107.408948 
L 150.526219 113.695785 
L 152.804684 120.082264 
L 155.083148 126.508355 
L 157.361612 132.912587 
L 159.640076 139.234371 
L 161.918541 145.416257 
L 164.197005 151.405936 
L 166.475469 157.15785 
L 168.753933 162.634331 
L 171.032398 167.806206 
L 173.310862 172.652919 
L 175.589326 177.162201 
L 177.867791 181.329397 
L 180.146255 185.156545 
L 182.424719 188.651313 
L 184.703183 191.825888 
L 186.981648 194.695886 
L 189.260112 197.279341 
L 191.538576 199.595814 
L 193.81704 201.66563 
L 196.095505 203.509256 
L 198.373969 205.146813 
L 200.652433 206.597705 
L 202.930897 207.880361 
L 205.209362 209.012058 
L 207.487826 210.008824 
L 209.76629 210.885398 
L 212.044755 211.655224 
L 214.323219 212.330494 
L 216.601683 212.922198 
L 218.880147 213.440196 
L 221.158612 213.893301 
L 223.437076 214.289358 
L 225.71554 214.635334 
L 227.994004 214.937395 
L 230.272469 215.200987 
L 232.550933 215.430913 
L 234.829397 215.631399 
L 237.107862 215.806158 
L 239.386326 215.958448 
L 241.66479 216.091125 
L 243.943254 216.20669 
L 246.221719 216.307331 
L 248.500183 216.394961 
L 250.778647 216.471252 
L 253.057111 216.537661 
L 255.335576 216.595463 
L 257.61404 216.645769 
L 259.892504 216.689547 
L 262.170968 216.727641 
L 264.449433 216.760787 
L 266.727897 216.789627 
L 269.006361 216.814718 
L 271.284826 216.836547 
L 273.56329 216.855538 
L 275.841754 216.872059 
L 278.120218 216.88643 
L 280.398683 216.898931 
L 282.677147 216.909806 
L 284.955611 216.919265 
L 287.234075 216.927493 
" style="fill:none;stroke:#ff0000;stroke-linecap:round;stroke-width:1.5;"/>
   </g>
   <g id="line2d_20">
    <path clip-path="url(#pda07a63e5a)" d="M 61.666113 32.389523 
L 63.944577 32.542077 
L 66.223041 32.697208 
L 68.501506 32.857813 
L 70.77997 33.027105 
L 73.058434 33.208655 
L 75.336898 33.406431 
L 77.615363 33.624853 
L 79.893827 33.868841 
L 82.172291 34.143878 
L 84.450755 34.456071 
L 86.72922 34.812223 
L 89.007684 35.219903 
L 91.286148 35.687523 
L 93.564613 36.22442 
L 95.843077 36.840928 
L 98.121541 37.548458 
L 100.400005 38.359559 
L 102.67847 39.287976 
L 104.956934 40.348677 
L 107.235398 41.55786 
L 109.513862 42.932913 
L 111.792327 44.492323 
L 114.070791 46.255516 
L 116.349255 48.242616 
L 118.62772 50.4741 
L 120.906184 52.970345 
L 123.184648 55.751035 
L 125.463112 58.83445 
L 127.741577 62.236611 
L 130.020041 65.970317 
L 132.298505 70.04409 
L 134.576969 74.461089 
L 136.855434 79.218054 
L 139.133898 84.304373 
L 141.412362 89.701366 
L 143.690826 95.381883 
L 145.969291 101.310326 
L 148.247755 107.44314 
L 150.526219 113.729813 
L 152.804684 120.114357 
L 155.083148 126.537198 
L 157.361612 132.937342 
L 159.640076 139.254651 
L 161.918541 145.432061 
L 164.197005 151.417562 
L 166.475469 157.165801 
L 168.753933 162.639221 
L 171.032398 167.808683 
L 173.310862 172.653604 
L 175.589326 177.161644 
L 177.867791 181.32806 
L 180.146255 185.154791 
L 182.424719 188.649412 
L 184.703183 191.824027 
L 186.981648 194.694181 
L 189.260112 197.277858 
L 191.538576 199.594577 
L 193.81704 201.664637 
L 196.095505 203.508488 
L 198.373969 205.146242 
L 200.652433 206.597299 
L 202.930897 207.880088 
L 205.209362 209.011888 
L 207.487826 210.008732 
L 209.76629 210.88536 
L 212.044755 211.655224 
L 214.323219 212.330518 
L 216.601683 212.922234 
L 218.880147 213.440238 
L 221.158612 213.893344 
L 223.437076 214.289399 
L 225.71554 214.63537 
L 227.994004 214.937425 
L 230.272469 215.201012 
L 232.550933 215.430933 
L 234.829397 215.631414 
L 237.107862 215.806169 
L 239.386326 215.958455 
L 241.66479 216.09113 
L 243.943254 216.206693 
L 246.221719 216.307333 
L 248.500183 216.394962 
L 250.778647 216.471251 
L 253.057111 216.53766 
L 255.335576 216.595462 
L 257.61404 216.645768 
L 259.892504 216.689546 
L 262.170968 216.72764 
L 264.449433 216.760786 
L 266.727897 216.789626 
L 269.006361 216.814718 
L 271.284826 216.836547 
L 273.56329 216.855538 
L 275.841754 216.872058 
L 278.120218 216.88643 
L 280.398683 216.898931 
L 282.677147 216.909806 
L 284.955611 216.919265 
L 287.234075 216.927493 
" style="fill:none;stroke:#000000;stroke-linecap:round;stroke-width:1.5;"/>
   </g>
   <g id="patch_3">
    <path d="M 61.666113 226.154392 
L 61.666113 23.162625 
" style="fill:none;stroke:#262626;stroke-linecap:square;stroke-linejoin:miter;stroke-width:1.25;"/>
   </g>
   <g id="patch_4">
    <path d="M 287.234075 226.154392 
L 287.234075 23.162625 
" style="fill:none;stroke:#262626;stroke-linecap:square;stroke-linejoin:miter;stroke-width:1.25;"/>
   </g>
   <g id="patch_5">
    <path d="M 61.666113 226.154392 
L 287.234075 226.154392 
" style="fill:none;stroke:#262626;stroke-linecap:square;stroke-linejoin:miter;stroke-width:1.25;"/>
   </g>
   <g id="patch_6">
    <path d="M 61.666113 23.162625 
L 287.234075 23.162625 
" style="fill:none;stroke:#262626;stroke-linecap:square;stroke-linejoin:miter;stroke-width:1.25;"/>
   </g>
   <g id="text_12">
    <!-- Trace of Inverse -->
    <g style="fill:#262626;" transform="translate(125.638752 17.162625)scale(0.144 -0.144)">
     <defs>
      <path d="M 62.203125 67.59375 
L 4.5 67.59375 
L 2.796875 45.59375 
L 4.59375 45.59375 
C 5.90625 62.125 7.296875 65 22.703125 65 
C 24.5 65 27.40625 65 28.203125 64.90625 
C 30.09375 64.609375 30.09375 63.40625 30.09375 61.125 
L 30.09375 7.171875 
C 30.09375 3.59375 29.796875 2.5 21.5 2.5 
L 18.703125 2.5 
L 18.703125 0 
C 23.5 0 28.5 0 33.40625 0 
C 38.296875 0 43.296875 0 48.09375 0 
L 48.09375 2.5 
L 45.296875 2.5 
C 37 2.5 36.703125 3.59375 36.703125 7.171875 
L 36.703125 61.125 
C 36.703125 63.3125 36.703125 64.515625 38.5 64.90625 
C 39.296875 65 42.203125 65 44 65 
C 59.296875 65 60.796875 62.125 62.09375 45.59375 
L 63.90625 45.59375 
z
" id="CMR17-84"/>
      <path d="M 43.09375 21.1875 
C 43.09375 34 33.796875 44 22.90625 44 
C 12 44 2.703125 34 2.703125 21.1875 
C 2.703125 8.609375 12 -1 22.90625 -1 
C 33.796875 -1 43.09375 8.609375 43.09375 21.1875 
z
M 22.90625 0.796875 
C 18.203125 0.796875 14.203125 3.59375 11.90625 7.5 
C 9.40625 11.984375 9.09375 17.59375 9.09375 22 
C 9.09375 26.203125 9.296875 31.40625 11.90625 35.90625 
C 13.90625 39.203125 17.796875 42.40625 22.90625 42.40625 
C 27.40625 42.40625 31.203125 39.90625 33.59375 36.40625 
C 36.703125 31.703125 36.703125 25.109375 36.703125 22 
C 36.703125 18.09375 36.5 12.109375 33.796875 7.296875 
C 31 2.703125 26.703125 0.796875 22.90625 0.796875 
z
" id="CMR17-111"/>
      <path d="M 15.296875 40 
L 26.703125 40 
L 26.703125 42.578125 
L 15.09375 42.578125 
L 15.09375 54.59375 
C 15.09375 62.84375 19.296875 68 23.59375 68 
C 24.90625 68 26.40625 67.609375 27.40625 66.90625 
C 26.59375 66.703125 24.5 66.015625 24.5 63.546875 
C 24.5 60.953125 26.5 60.15625 27.90625 60.15625 
C 29.296875 60.15625 31.296875 60.953125 31.296875 63.546875 
C 31.296875 67.3125 27.703125 69.59375 23.703125 69.59375 
C 18 69.59375 10.203125 64.9375 10.203125 54.390625 
L 10.203125 42.578125 
L 2.203125 42.578125 
L 2.203125 40 
L 10.203125 40 
L 10.203125 6.671875 
C 10.203125 2.875 9.796875 2.390625 3.40625 2.390625 
L 3.40625 -0.203125 
C 5.796875 0 10.40625 0 13 0 
C 15.90625 0 21 0 23.703125 -0.203125 
L 23.703125 2.390625 
C 16.5 2.390625 15.296875 2.390625 15.296875 6.859375 
z
" id="CMR17-102"/>
      <path d="M 19.703125 61.015625 
C 19.703125 65.5 20.90625 65.5 28.09375 65.5 
L 28.09375 68 
C 24.90625 68 19.796875 68 16.40625 68 
C 13 68 7.90625 68 4.703125 68 
L 4.703125 65.5 
C 11.90625 65.5 13.09375 65.5 13.09375 61.015625 
L 13.09375 6.984375 
C 13.09375 2.5 11.90625 2.5 4.703125 2.5 
L 4.703125 0 
C 7.90625 0 13 0 16.40625 0 
C 19.796875 0 24.90625 0 28.09375 0 
L 28.09375 2.5 
C 20.90625 2.5 19.703125 2.5 19.703125 6.984375 
z
" id="CMR17-73"/>
      <path d="M 41.5 30.203125 
C 41.5 35.296875 40.5 43.59375 28.703125 43.59375 
C 20.796875 43.59375 16.703125 37.5 15.203125 33.5 
L 15.09375 33.5 
L 15.09375 43.59375 
L 3.296875 42.5 
L 3.296875 39.90625 
C 9.203125 39.90625 10.09375 39.296875 10.09375 34.5 
L 10.09375 6.6875 
C 10.09375 2.875 9.703125 2.390625 3.296875 2.390625 
L 3.296875 -0.203125 
C 5.703125 0 10.09375 0 12.703125 0 
C 15.296875 0 19.796875 0 22.203125 -0.203125 
L 22.203125 2.390625 
C 15.796875 2.390625 15.40625 2.78125 15.40625 6.6875 
L 15.40625 25.90625 
C 15.40625 35.109375 21 42 28 42 
C 35.40625 42 36.203125 35.40625 36.203125 30.59375 
L 36.203125 6.6875 
C 36.203125 2.875 35.796875 2.390625 29.40625 2.390625 
L 29.40625 -0.203125 
C 31.796875 0 36.203125 0 38.796875 0 
C 41.40625 0 45.90625 0 48.296875 -0.203125 
L 48.296875 2.390625 
C 41.90625 2.390625 41.5 2.78125 41.5 6.6875 
z
" id="CMR17-110"/>
      <path d="M 39.09375 33.796875 
C 40 36 41.59375 40 47.40625 40 
L 47.40625 42.59375 
C 45.5 42.59375 43 42.59375 41.09375 42.59375 
C 39 42.59375 35.703125 42.59375 33.703125 42.6875 
L 33.703125 40.09375 
C 36.203125 39.890625 37.59375 38.703125 37.59375 36.109375 
C 37.59375 35.203125 37.59375 35 37 33.609375 
L 26 5.890625 
L 14.09375 35.71875 
C 13.5 37.015625 13.5 37.203125 13.5 37.609375 
C 13.5 40 16.796875 40 18.296875 40 
L 18.296875 42.6875 
C 15.90625 42.59375 11.5 42.59375 9 42.59375 
C 6.296875 42.59375 3.203125 42.59375 1 42.6875 
L 1 40 
C 4.796875 40 6.90625 40 8.09375 36.90625 
L 22.59375 0.6875 
C 23.203125 -0.796875 23.296875 -1 24.203125 -1 
C 25.09375 -1 25.203125 -0.796875 25.796875 0.6875 
z
" id="CMR17-118"/>
      <path d="M 30.90625 42.140625 
C 30.90625 43.953125 30.796875 44.046875 30.203125 44.046875 
C 29.796875 44.046875 29.703125 43.953125 28.5 42.453125 
C 28.203125 42.046875 27.296875 41.03125 27 40.640625 
C 23.796875 44.046875 19.296875 44.046875 17.59375 44.046875 
C 6.5 44.046875 2.5 38.234375 2.5 32.4375 
C 2.5 23.40625 12.703125 21.328125 15.59375 20.703125 
C 21.90625 19.421875 24.09375 19.015625 26.203125 17.203125 
C 27.5 16.015625 29.703125 13.8125 29.703125 10.21875 
C 29.703125 6 27.296875 0.59375 18.09375 0.59375 
C 9.40625 0.59375 6.296875 7.1875 4.5 15.953125 
C 4.203125 17.34375 4.203125 17.453125 3.40625 17.453125 
C 2.59375 17.453125 2.5 17.34375 2.5 15.359375 
L 2.5 0.984375 
C 2.5 -0.796875 2.59375 -0.90625 3.203125 -0.90625 
C 3.703125 -0.90625 3.796875 -0.796875 4.296875 0 
C 4.90625 0.890625 6.40625 3.296875 7 4.3125 
C 9 1.609375 12.5 -1 18.09375 -1 
C 28 -1 33.296875 4.421875 33.296875 12.25 
C 33.296875 17.375 30.59375 20.078125 29.296875 21.28125 
C 26.296875 24.390625 22.796875 25.09375 18.59375 25.890625 
C 13.09375 27.109375 6.09375 28.515625 6.09375 34.640625 
C 6.09375 37.234375 7.5 42.765625 17.59375 42.765625 
C 28.296875 42.765625 28.90625 32.71875 29.09375 29.5 
C 29.203125 29 29.703125 28.890625 30 28.890625 
C 30.90625 28.890625 30.90625 29.203125 30.90625 30.90625 
z
" id="CMR17-115"/>
     </defs>
     <use transform="scale(0.996264)" xlink:href="#CMR17-84"/>
     <use transform="translate(58.702625 0)scale(0.996264)" xlink:href="#CMR17-114"/>
     <use transform="translate(93.983393 0)scale(0.996264)" xlink:href="#CMR17-97"/>
     <use transform="translate(139.67387 0)scale(0.996264)" xlink:href="#CMR17-99"/>
     <use transform="translate(180.159531 0)scale(0.996264)" xlink:href="#CMR17-101"/>
     <use transform="translate(250.721157 0)scale(0.996264)" xlink:href="#CMR17-111"/>
     <use transform="translate(296.411634 0)scale(0.996264)" xlink:href="#CMR17-102"/>
     <use transform="translate(353.961113 0)scale(0.996264)" xlink:href="#CMR17-73"/>
     <use transform="translate(386.599522 0)scale(0.996264)" xlink:href="#CMR17-110"/>
     <use transform="translate(434.892438 0)scale(0.996264)" xlink:href="#CMR17-118"/>
     <use transform="translate(480.5829 0)scale(0.996264)" xlink:href="#CMR17-101"/>
     <use transform="translate(521.068561 0)scale(0.996264)" xlink:href="#CMR17-114"/>
     <use transform="translate(556.349328 0)scale(0.996264)" xlink:href="#CMR17-115"/>
     <use transform="translate(592.150666 0)scale(0.996264)" xlink:href="#CMR17-101"/>
    </g>
   </g>
   <g id="legend_1">
    <g id="patch_7">
     <path d="M 146.077926 85.407955 
L 278.837435 85.407955 
Q 281.236475 85.407955 281.236475 83.008915 
L 281.236475 31.559265 
Q 281.236475 29.160225 278.837435 29.160225 
L 146.077926 29.160225 
Q 143.678886 29.160225 143.678886 31.559265 
L 143.678886 83.008915 
Q 143.678886 85.407955 146.077926 85.407955 
z
" style="fill:#ffffff;opacity:0.8;stroke:#cccccc;stroke-linejoin:miter;"/>
    </g>
    <g id="line2d_21"/>
    <g id="line2d_22">
     <defs>
      <path d="M 0 3 
C 0.795609 3 1.55874 2.683901 2.12132 2.12132 
C 2.683901 1.55874 3 0.795609 3 0 
C 3 -0.795609 2.683901 -1.55874 2.12132 -2.12132 
C 1.55874 -2.683901 0.795609 -3 0 -3 
C -0.795609 -3 -1.55874 -2.683901 -2.12132 -2.12132 
C -2.683901 -1.55874 -3 -0.795609 -3 0 
C -3 0.795609 -2.683901 1.55874 -2.12132 2.12132 
C -1.55874 2.683901 -0.795609 3 0 3 
z
" id="m554ff62e32" style="stroke:#ff0000;"/>
     </defs>
     <g>
      <use style="fill:#ff0000;stroke:#ff0000;" x="160.472166" xlink:href="#m554ff62e32" y="38.874463"/>
     </g>
    </g>
    <g id="text_13">
     <!-- Interpolant points -->
     <g style="fill:#262626;" transform="translate(182.063526 43.072783)scale(0.119952 -0.119952)">
      <defs>
       <path d="M 22 -16.609375 
C 15.59375 -16.609375 15.203125 -16.203125 15.203125 -12.328125 
L 15.203125 6.28125 
C 18.09375 2.09375 22.296875 -0.59375 27.59375 -0.59375 
C 37.59375 -0.59375 47.703125 8.171875 47.703125 21.6875 
C 47.703125 34.234375 39 43.78125 28.703125 43.78125 
C 22.703125 43.78125 17.796875 40.5 15 36.53125 
L 15 43.78125 
L 3.09375 42.6875 
L 3.09375 40.109375 
C 9 40.109375 9.90625 39.5 9.90625 34.734375 
L 9.90625 -12.328125 
C 9.90625 -16.109375 9.5 -16.609375 3.09375 -16.609375 
L 3.09375 -19.1875 
C 5.5 -19 9.90625 -19 12.5 -19 
C 15.09375 -19 19.59375 -19 22 -19.1875 
z
M 15.203125 31.4375 
C 15.203125 32.84375 15.203125 34.921875 19.09375 38.609375 
C 19.59375 39.015625 23 42 28 42 
C 35.296875 42 41.296875 32.9375 41.296875 21.59375 
C 41.296875 10.25 34.90625 1 27 1 
C 23.40625 1 19.5 2.6875 16.5 7.375 
C 15.203125 9.5625 15.203125 10.15625 15.203125 11.75 
z
" id="CMR17-112"/>
       <path d="M 15.296875 68.6875 
L 3.40625 67.59375 
L 3.40625 65 
C 9.296875 65 10.203125 64.40625 10.203125 59.640625 
L 10.203125 6.65625 
C 10.203125 2.875 9.796875 2.390625 3.40625 2.390625 
L 3.40625 -0.203125 
C 5.796875 0 10.203125 0 12.703125 0 
C 15.296875 0 19.703125 0 22.09375 -0.203125 
L 22.09375 2.390625 
C 15.703125 2.390625 15.296875 2.78125 15.296875 6.65625 
z
" id="CMR17-108"/>
       <path d="M 15.5 61.078125 
C 15.5 63.265625 13.703125 65.15625 11.40625 65.15625 
C 9.203125 65.15625 7.296875 63.375 7.296875 61.078125 
C 7.296875 58.890625 9.09375 57 11.40625 57 
C 13.59375 57 15.5 58.796875 15.5 61.078125 
z
M 3.796875 42.28125 
L 3.796875 39.703125 
C 9.40625 39.703125 10.203125 39.09375 10.203125 34.328125 
L 10.203125 6.671875 
C 10.203125 2.875 9.796875 2.390625 3.40625 2.390625 
L 3.40625 -0.203125 
C 5.796875 0 10.09375 0 12.59375 0 
C 15 0 19.09375 0 21.40625 -0.203125 
L 21.40625 2.390625 
C 15.5 2.390625 15.296875 2.984375 15.296875 6.5625 
L 15.296875 43.375 
z
" id="CMR17-105"/>
      </defs>
      <use transform="scale(0.996264)" xlink:href="#CMR17-73"/>
      <use transform="translate(32.638409 0)scale(0.996264)" xlink:href="#CMR17-110"/>
      <use transform="translate(80.931325 0)scale(0.996264)" xlink:href="#CMR17-116"/>
      <use transform="translate(116.212093 0)scale(0.996264)" xlink:href="#CMR17-101"/>
      <use transform="translate(156.697753 0)scale(0.996264)" xlink:href="#CMR17-114"/>
      <use transform="translate(191.978521 0)scale(0.996264)" xlink:href="#CMR17-112"/>
      <use transform="translate(245.47633 0)scale(0.996264)" xlink:href="#CMR17-111"/>
      <use transform="translate(291.166807 0)scale(0.996264)" xlink:href="#CMR17-108"/>
      <use transform="translate(316.037865 0)scale(0.996264)" xlink:href="#CMR17-97"/>
      <use transform="translate(361.728342 0)scale(0.996264)" xlink:href="#CMR17-110"/>
      <use transform="translate(410.021258 0)scale(0.996264)" xlink:href="#CMR17-116"/>
      <use transform="translate(475.377992 0)scale(0.996264)" xlink:href="#CMR17-112"/>
      <use transform="translate(528.875801 0)scale(0.996264)" xlink:href="#CMR17-111"/>
      <use transform="translate(574.566278 0)scale(0.996264)" xlink:href="#CMR17-105"/>
      <use transform="translate(599.437336 0)scale(0.996264)" xlink:href="#CMR17-110"/>
      <use transform="translate(647.730252 0)scale(0.996264)" xlink:href="#CMR17-116"/>
      <use transform="translate(683.01102 0)scale(0.996264)" xlink:href="#CMR17-115"/>
     </g>
    </g>
    <g id="line2d_23">
     <path d="M 148.476966 56.481167 
L 172.467366 56.481167 
" style="fill:none;stroke:#ff0000;stroke-linecap:round;stroke-width:1.5;"/>
    </g>
    <g id="line2d_24"/>
    <g id="text_14">
     <!-- Exact -->
     <g style="fill:#262626;" transform="translate(182.063526 60.679487)scale(0.119952 -0.119952)">
      <defs>
       <path d="M 60.703125 25.234375 
L 58.90625 25.234375 
C 56.703125 10.5625 55.40625 2.59375 37.796875 2.59375 
L 23.90625 2.59375 
C 19.90625 2.59375 19.703125 3.078125 19.703125 6.46875 
L 19.703125 34 
L 29.09375 34 
C 38.5 34 39.40625 30.625 39.40625 22.34375 
L 41.203125 22.34375 
L 41.203125 48.140625 
L 39.40625 48.140625 
C 39.40625 39.953125 38.5 36.59375 29.09375 36.59375 
L 19.703125 36.59375 
L 19.703125 61.140625 
C 19.703125 64.5 19.90625 65 23.90625 65 
L 37.59375 65 
C 53.09375 65 54.90625 58.890625 56.296875 45.765625 
L 58.09375 45.765625 
L 55.703125 67.578125 
L 5.09375 67.578125 
L 5.09375 65 
C 12 65 13.09375 65 13.09375 60.53125 
L 13.09375 7.046875 
C 13.09375 2.59375 12 2.59375 5.09375 2.59375 
L 5.09375 0 
L 57.09375 0 
z
" id="CMR17-69"/>
       <path d="M 26 23.078125 
C 29 26.96875 32.40625 31.34375 35.203125 34.625 
C 38.5 38.40625 42.296875 40 46.703125 40 
L 46.703125 42.59375 
C 45 42.59375 41.5 42.59375 39.703125 42.59375 
C 37 42.59375 33.90625 42.59375 31.59375 42.6875 
L 31.59375 40.09375 
C 33 39.890625 33.796875 38.890625 33.796875 37.5 
C 33.796875 35.703125 32.796875 34.609375 32.296875 33.921875 
L 24.90625 24.578125 
L 16.09375 36.03125 
C 15.203125 37.125 15.203125 37.3125 15.203125 37.8125 
C 15.203125 39.015625 16.203125 40 17.90625 40 
L 17.90625 42.6875 
C 15.5 42.59375 11.203125 42.59375 8.703125 42.59375 
C 6 42.59375 2.796875 42.59375 0.59375 42.6875 
L 0.59375 40 
C 6 40 7.203125 39.59375 9.59375 36.609375 
L 21.09375 21.796875 
C 21.296875 21.59375 21.796875 21 21.796875 20.703125 
C 21.796875 20.296875 13.09375 9.671875 12 8.28125 
C 7.5 2.890625 2.796875 2.5 0.09375 2.5 
L 0.09375 0 
C 1.796875 0 5.296875 0 7.09375 0 
C 9.09375 0 13.5 0 15.296875 -0.09375 
L 15.296875 2.5 
C 14.703125 2.59375 13.09375 2.796875 13.09375 5.078125 
C 13.09375 6.875 13.90625 7.96875 14.796875 9.15625 
L 23.09375 19.3125 
L 31.796875 8 
C 32.59375 6.90625 33.796875 5.40625 33.796875 4.703125 
C 33.796875 3.296875 32.59375 2.5 31 2.5 
L 31 -0.09375 
C 33.40625 0 37.703125 0 40.203125 0 
C 42.90625 0 46.09375 0 48.296875 -0.09375 
L 48.296875 2.5 
C 43.296875 2.5 41.796875 2.6875 39.40625 5.78125 
z
" id="CMR17-120"/>
      </defs>
      <use transform="scale(0.996264)" xlink:href="#CMR17-69"/>
      <use transform="translate(62.586301 0)scale(0.996264)" xlink:href="#CMR17-120"/>
      <use transform="translate(110.879216 0)scale(0.996264)" xlink:href="#CMR17-97"/>
      <use transform="translate(156.569693 0)scale(0.996264)" xlink:href="#CMR17-99"/>
      <use transform="translate(197.055354 0)scale(0.996264)" xlink:href="#CMR17-116"/>
     </g>
    </g>
    <g id="line2d_25">
     <path d="M 148.476966 74.087872 
L 172.467366 74.087872 
" style="fill:none;stroke:#000000;stroke-linecap:round;stroke-width:1.5;"/>
    </g>
    <g id="line2d_26"/>
    <g id="text_15">
     <!-- Interpolated -->
     <g style="fill:#262626;" transform="translate(182.063526 78.286192)scale(0.119952 -0.119952)">
      <defs>
       <path d="M 29.203125 67.59375 
L 29.203125 65 
C 35.09375 65 36 64.40625 36 59.6875 
L 36 36.640625 
C 35.59375 37.140625 31.5 43.59375 23.40625 43.59375 
C 13.203125 43.59375 3.296875 34.5 3.296875 21.3125 
C 3.296875 8.203125 12.59375 -1 22.40625 -1 
C 30.90625 -1 35.296875 5.265625 35.796875 5.9375 
L 35.796875 -0.984375 
L 47.90625 -0.984375 
L 47.90625 2 
C 42 2 41.09375 2.59375 41.09375 7.390625 
L 41.09375 68.6875 
z
M 35.796875 11.796875 
C 35.796875 8.796875 34 6.09375 31.703125 4.09375 
C 28.296875 1.09375 24.90625 0.59375 23 0.59375 
C 20.09375 0.59375 9.703125 2.09375 9.703125 21.1875 
C 9.703125 40.8125 21.296875 42 23.90625 42 
C 28.5 42 32.203125 39.40625 34.5 35.796875 
C 35.796875 33.703125 35.796875 33.40625 35.796875 31.609375 
z
" id="CMR17-100"/>
      </defs>
      <use transform="scale(0.996264)" xlink:href="#CMR17-73"/>
      <use transform="translate(32.638409 0)scale(0.996264)" xlink:href="#CMR17-110"/>
      <use transform="translate(80.931325 0)scale(0.996264)" xlink:href="#CMR17-116"/>
      <use transform="translate(116.212093 0)scale(0.996264)" xlink:href="#CMR17-101"/>
      <use transform="translate(156.697753 0)scale(0.996264)" xlink:href="#CMR17-114"/>
      <use transform="translate(191.978521 0)scale(0.996264)" xlink:href="#CMR17-112"/>
      <use transform="translate(245.47633 0)scale(0.996264)" xlink:href="#CMR17-111"/>
      <use transform="translate(291.166807 0)scale(0.996264)" xlink:href="#CMR17-108"/>
      <use transform="translate(316.037865 0)scale(0.996264)" xlink:href="#CMR17-97"/>
      <use transform="translate(361.728342 0)scale(0.996264)" xlink:href="#CMR17-116"/>
      <use transform="translate(397.00911 0)scale(0.996264)" xlink:href="#CMR17-101"/>
      <use transform="translate(437.494771 0)scale(0.996264)" xlink:href="#CMR17-100"/>
     </g>
    </g>
   </g>
   <g id="line2d_27">
    <g clip-path="url(#pda07a63e5a)">
     <use style="fill:#ff0000;stroke:#ff0000;" x="61.666113" xlink:href="#m554ff62e32" y="32.389523"/>
     <use style="fill:#ff0000;stroke:#ff0000;" x="99.260773" xlink:href="#m554ff62e32" y="37.940232"/>
     <use style="fill:#ff0000;stroke:#ff0000;" x="136.855434" xlink:href="#m554ff62e32" y="79.218054"/>
     <use style="fill:#ff0000;stroke:#ff0000;" x="174.450094" xlink:href="#m554ff62e32" y="174.950199"/>
     <use style="fill:#ff0000;stroke:#ff0000;" x="212.044755" xlink:href="#m554ff62e32" y="211.655224"/>
     <use style="fill:#ff0000;stroke:#ff0000;" x="249.639415" xlink:href="#m554ff62e32" y="216.434428"/>
     <use style="fill:#ff0000;stroke:#ff0000;" x="287.234075" xlink:href="#m554ff62e32" y="216.927493"/>
    </g>
   </g>
  </g>
  <g id="axes_2">
   <g id="patch_8">
    <path d="M 389.724503 226.154392 
L 615.292465 226.154392 
L 615.292465 23.162625 
L 389.724503 23.162625 
z
" style="fill:none;"/>
   </g>
   <g id="matplotlib.axis_3">
    <g id="xtick_5">
     <g id="line2d_28">
      <path clip-path="url(#pc6e0704256)" d="M 389.724503 226.154392 
L 389.724503 23.162625 
" style="fill:none;stroke:#cccccc;stroke-linecap:round;"/>
     </g>
     <g id="line2d_29">
      <g>
       <use style="fill:#262626;stroke:#262626;stroke-width:1.25;" x="389.724503" xlink:href="#mbcdede2662" y="226.154392"/>
      </g>
     </g>
     <g id="text_16">
      <!-- $\mathdefault{10^{-3}}$ -->
      <g style="fill:#262626;" transform="translate(377.241666 244.786787)scale(0.132 -0.132)">
       <use transform="scale(0.996264)" xlink:href="#CMR17-49"/>
       <use transform="translate(45.690477 0)scale(0.996264)" xlink:href="#CMR17-48"/>
       <use transform="translate(91.380954 36.153639)scale(0.697382)" xlink:href="#CMSY10-0"/>
       <use transform="translate(145.621947 36.153639)scale(0.697382)" xlink:href="#CMR17-51"/>
      </g>
     </g>
    </g>
    <g id="xtick_6">
     <g id="line2d_30">
      <path clip-path="url(#pc6e0704256)" d="M 464.913824 226.154392 
L 464.913824 23.162625 
" style="fill:none;stroke:#cccccc;stroke-linecap:round;"/>
     </g>
     <g id="line2d_31">
      <g>
       <use style="fill:#262626;stroke:#262626;stroke-width:1.25;" x="464.913824" xlink:href="#mbcdede2662" y="226.154392"/>
      </g>
     </g>
     <g id="text_17">
      <!-- $\mathdefault{10^{-1}}$ -->
      <g style="fill:#262626;" transform="translate(452.430986 244.786787)scale(0.132 -0.132)">
       <use transform="scale(0.996264)" xlink:href="#CMR17-49"/>
       <use transform="translate(45.690477 0)scale(0.996264)" xlink:href="#CMR17-48"/>
       <use transform="translate(91.380954 36.153639)scale(0.697382)" xlink:href="#CMSY10-0"/>
       <use transform="translate(145.621947 36.153639)scale(0.697382)" xlink:href="#CMR17-49"/>
      </g>
     </g>
    </g>
    <g id="xtick_7">
     <g id="line2d_32">
      <path clip-path="url(#pc6e0704256)" d="M 540.103145 226.154392 
L 540.103145 23.162625 
" style="fill:none;stroke:#cccccc;stroke-linecap:round;"/>
     </g>
     <g id="line2d_33">
      <g>
       <use style="fill:#262626;stroke:#262626;stroke-width:1.25;" x="540.103145" xlink:href="#mbcdede2662" y="226.154392"/>
      </g>
     </g>
     <g id="text_18">
      <!-- $\mathdefault{10^{1}}$ -->
      <g style="fill:#262626;" transform="translate(531.29961 244.786787)scale(0.132 -0.132)">
       <use transform="scale(0.996264)" xlink:href="#CMR17-49"/>
       <use transform="translate(45.690477 0)scale(0.996264)" xlink:href="#CMR17-48"/>
       <use transform="translate(91.380954 36.153639)scale(0.697382)" xlink:href="#CMR17-49"/>
      </g>
     </g>
    </g>
    <g id="xtick_8">
     <g id="line2d_34">
      <path clip-path="url(#pc6e0704256)" d="M 615.292465 226.154392 
L 615.292465 23.162625 
" style="fill:none;stroke:#cccccc;stroke-linecap:round;"/>
     </g>
     <g id="line2d_35">
      <g>
       <use style="fill:#262626;stroke:#262626;stroke-width:1.25;" x="615.292465" xlink:href="#mbcdede2662" y="226.154392"/>
      </g>
     </g>
     <g id="text_19">
      <!-- $\mathdefault{10^{3}}$ -->
      <g style="fill:#262626;" transform="translate(606.488931 244.786787)scale(0.132 -0.132)">
       <use transform="scale(0.996264)" xlink:href="#CMR17-49"/>
       <use transform="translate(45.690477 0)scale(0.996264)" xlink:href="#CMR17-48"/>
       <use transform="translate(91.380954 36.153639)scale(0.697382)" xlink:href="#CMR17-51"/>
      </g>
     </g>
    </g>
    <g id="text_20">
     <!-- $t$ -->
     <g style="fill:#262626;" transform="translate(499.972196 261.306473)scale(0.144 -0.144)">
      <use transform="scale(0.996264)" xlink:href="#CMMI12-116"/>
     </g>
    </g>
   </g>
   <g id="matplotlib.axis_4">
    <g id="ytick_6">
     <g id="line2d_36">
      <path clip-path="url(#pc6e0704256)" d="M 389.724503 214.194039 
L 615.292465 214.194039 
" style="fill:none;stroke:#cccccc;stroke-linecap:round;"/>
     </g>
     <g id="line2d_37">
      <g>
       <use style="fill:#262626;stroke:#262626;stroke-width:1.25;" x="389.724503" xlink:href="#ma15083bf50" y="214.194039"/>
      </g>
     </g>
     <g id="text_21">
      <!-- 0.100\% -->
      <g style="fill:#262626;" transform="translate(329.935791 218.760237)scale(0.132 -0.132)">
       <defs>
        <path d="M 16.59375 4.078125 
C 16.59375 6.5625 14.59375 8.15625 12.5 8.15625 
C 10.5 8.15625 8.40625 6.5625 8.40625 4.078125 
C 8.40625 1.59375 10.40625 0 12.5 0 
C 14.5 0 16.59375 1.59375 16.59375 4.078125 
z
" id="CMR17-46"/>
        <path d="M 72.5 14.984375 
C 72.5 26.53125 66.796875 35 60.09375 35 
C 53.296875 35 46.40625 27.125 46.40625 14.984375 
C 46.40625 2.859375 53.203125 -5 60.09375 -5 
C 66.796875 -5 72.5 3.359375 72.5 14.984375 
z
M 60.203125 -3.40625 
C 57.59375 -3.40625 51.09375 -1.03125 51.09375 14.984375 
C 51.09375 31.109375 57.59375 33.40625 60.203125 33.40625 
C 65.703125 33.40625 70.703125 25.53125 70.703125 14.984375 
C 70.703125 4.453125 65.703125 -3.40625 60.203125 -3.40625 
z
M 63.796875 71.515625 
C 64.5 72.609375 64.59375 72.703125 64.59375 73.203125 
C 64.59375 74.390625 63.703125 75 62.90625 75 
C 61.90625 75 61.5 74.3125 60.796875 73.53125 
C 55 65.46875 47 64.59375 42.90625 64.59375 
C 32.90625 64.59375 26.796875 70.21875 24.90625 71.984375 
C 23.59375 73.15625 21.703125 75 18.296875 75 
C 11.5 75 4.59375 67.125 4.59375 54.984375 
C 4.59375 42.859375 11.40625 35 18.296875 35 
C 25 35 30.703125 43.40625 30.703125 55.109375 
C 30.703125 62.015625 28.59375 66.71875 28.296875 67.3125 
C 34.40625 63.5 40.40625 63 43 63 
C 49.40625 63 54 65.359375 56.5 67.015625 
L 56.59375 66.921875 
L 13.40625 -1.3125 
C 12.5 -2.71875 12.5 -2.921875 12.5 -3.21875 
C 12.5 -4.3125 13.40625 -5 14.296875 -5 
C 15.203125 -5 15.5 -4.515625 16.203125 -3.40625 
z
M 18.40625 36.59375 
C 15.796875 36.59375 9.296875 38.96875 9.296875 54.984375 
C 9.296875 71.109375 15.796875 73.40625 18.40625 73.40625 
C 23.90625 73.40625 28.90625 65.53125 28.90625 54.984375 
C 28.90625 44.453125 23.90625 36.59375 18.40625 36.59375 
z
" id="CMR17-37"/>
       </defs>
       <use transform="scale(0.996264)" xlink:href="#CMSY10-0"/>
       <use transform="translate(77.487468 0)scale(0.996264)" xlink:href="#CMR17-48"/>
       <use transform="translate(123.177945 0)scale(0.996264)" xlink:href="#CMR17-46"/>
       <use transform="translate(148.049003 0)scale(0.996264)" xlink:href="#CMR17-49"/>
       <use transform="translate(193.73948 0)scale(0.996264)" xlink:href="#CMR17-48"/>
       <use transform="translate(239.429957 0)scale(0.996264)" xlink:href="#CMR17-48"/>
       <use transform="translate(285.120435 0)scale(0.996264)" xlink:href="#CMR17-37"/>
      </g>
     </g>
    </g>
    <g id="ytick_7">
     <g id="line2d_38">
      <path clip-path="url(#pc6e0704256)" d="M 389.724503 156.806781 
L 615.292465 156.806781 
" style="fill:none;stroke:#cccccc;stroke-linecap:round;"/>
     </g>
     <g id="line2d_39">
      <g>
       <use style="fill:#262626;stroke:#262626;stroke-width:1.25;" x="389.724503" xlink:href="#ma15083bf50" y="156.806781"/>
      </g>
     </g>
     <g id="text_22">
      <!-- 0.050\% -->
      <g style="fill:#262626;" transform="translate(329.935791 161.372979)scale(0.132 -0.132)">
       <use transform="scale(0.996264)" xlink:href="#CMSY10-0"/>
       <use transform="translate(77.487468 0)scale(0.996264)" xlink:href="#CMR17-48"/>
       <use transform="translate(123.177945 0)scale(0.996264)" xlink:href="#CMR17-46"/>
       <use transform="translate(148.049003 0)scale(0.996264)" xlink:href="#CMR17-48"/>
       <use transform="translate(193.73948 0)scale(0.996264)" xlink:href="#CMR17-53"/>
       <use transform="translate(239.429957 0)scale(0.996264)" xlink:href="#CMR17-48"/>
       <use transform="translate(285.120435 0)scale(0.996264)" xlink:href="#CMR17-37"/>
      </g>
     </g>
    </g>
    <g id="ytick_8">
     <g id="line2d_40">
      <path clip-path="url(#pc6e0704256)" d="M 389.724503 99.419524 
L 615.292465 99.419524 
" style="fill:none;stroke:#cccccc;stroke-linecap:round;"/>
     </g>
     <g id="line2d_41">
      <g>
       <use style="fill:#262626;stroke:#262626;stroke-width:1.25;" x="389.724503" xlink:href="#ma15083bf50" y="99.419524"/>
      </g>
     </g>
     <g id="text_23">
      <!-- 0.000\% -->
      <g style="fill:#262626;" transform="translate(340.164127 103.985721)scale(0.132 -0.132)">
       <use transform="scale(0.996264)" xlink:href="#CMR17-48"/>
       <use transform="translate(45.690477 0)scale(0.996264)" xlink:href="#CMR17-46"/>
       <use transform="translate(70.561536 0)scale(0.996264)" xlink:href="#CMR17-48"/>
       <use transform="translate(116.252013 0)scale(0.996264)" xlink:href="#CMR17-48"/>
       <use transform="translate(161.94249 0)scale(0.996264)" xlink:href="#CMR17-48"/>
       <use transform="translate(207.632967 0)scale(0.996264)" xlink:href="#CMR17-37"/>
      </g>
     </g>
    </g>
    <g id="ytick_9">
     <g id="line2d_42">
      <path clip-path="url(#pc6e0704256)" d="M 389.724503 42.032266 
L 615.292465 42.032266 
" style="fill:none;stroke:#cccccc;stroke-linecap:round;"/>
     </g>
     <g id="line2d_43">
      <g>
       <use style="fill:#262626;stroke:#262626;stroke-width:1.25;" x="389.724503" xlink:href="#ma15083bf50" y="42.032266"/>
      </g>
     </g>
     <g id="text_24">
      <!-- 0.050\% -->
      <g style="fill:#262626;" transform="translate(340.164127 46.598463)scale(0.132 -0.132)">
       <use transform="scale(0.996264)" xlink:href="#CMR17-48"/>
       <use transform="translate(45.690477 0)scale(0.996264)" xlink:href="#CMR17-46"/>
       <use transform="translate(70.561536 0)scale(0.996264)" xlink:href="#CMR17-48"/>
       <use transform="translate(116.252013 0)scale(0.996264)" xlink:href="#CMR17-53"/>
       <use transform="translate(161.94249 0)scale(0.996264)" xlink:href="#CMR17-48"/>
       <use transform="translate(207.632967 0)scale(0.996264)" xlink:href="#CMR17-37"/>
      </g>
     </g>
    </g>
    <g id="text_25">
     <!-- Relative Error (in Percent) -->
     <g style="fill:#262626;" transform="translate(322.349249 207.669498)rotate(-90)scale(0.144 -0.144)">
      <defs>
       <path d="M 39.203125 33.53125 
C 48.703125 35.4375 56.703125 41.8125 56.703125 49.78125 
C 56.703125 59.140625 46.09375 67.59375 32.09375 67.59375 
L 5.203125 67.59375 
L 5.203125 65 
C 12.09375 65 13.203125 65 13.203125 60.515625 
L 13.203125 6.484375 
C 13.203125 2 12.09375 2 5.203125 2 
L 5.203125 -0.40625 
C 8.09375 -0.40625 13.296875 -0.40625 16.40625 -0.40625 
C 19.5 -0.40625 24.703125 -0.40625 27.59375 -0.40625 
L 27.59375 2 
C 20.703125 2 19.59375 2 19.59375 6.515625 
L 19.59375 33 
L 31.296875 33 
C 37 33 40.203125 30.6875 41.59375 29.390625 
C 45.59375 25.5 45.59375 22.796875 45.59375 16 
C 45.59375 9.296875 45.59375 5.890625 48.59375 2.5 
C 52.40625 -1.59375 57.5 -2 59.703125 -2 
C 67.09375 -2 68.203125 6.1875 68.203125 7.859375 
C 68.203125 8.4375 68.203125 9.140625 67.296875 9.140625 
C 66.5 9.140625 66.40625 8.546875 66.40625 8.15625 
C 65.90625 1.75 63 -0.40625 59.90625 -0.40625 
C 54.40625 -0.40625 53.796875 5.859375 53.203125 11.9375 
C 52.90625 14.03125 52.703125 15.515625 52.5 17.703125 
C 51.90625 22.6875 51.09375 29.953125 39.203125 33.53125 
z
M 31 34.59375 
L 19.59375 34.59375 
L 19.59375 61.140625 
C 19.59375 64.515625 19.796875 65 23.796875 65 
L 31.09375 65 
C 39.40625 65 49.09375 62.140625 49.09375 49.84375 
C 49.09375 37.0625 38.5 34.59375 31 34.59375 
z
" id="CMR17-82"/>
       <path d="M 19.796875 31.90625 
L 35.796875 31.90625 
C 48.703125 31.90625 58.09375 40.28125 58.09375 49.75 
C 58.09375 59.234375 48.90625 68 35.796875 68 
L 5.203125 68 
L 5.203125 65.40625 
C 12.09375 65.40625 13.203125 65.40625 13.203125 60.921875 
L 13.203125 6.96875 
C 13.203125 2.5 12.09375 2.5 5.203125 2.5 
L 5.203125 0 
C 8.09375 0 13.40625 0 16.5 0 
C 19.59375 0 24.90625 0 27.796875 0 
L 27.796875 2.5 
C 20.90625 2.5 19.796875 2.5 19.796875 6.96875 
z
M 19.59375 34 
L 19.59375 61.53125 
C 19.59375 64.921875 19.796875 65.40625 23.796875 65.40625 
L 33.90625 65.40625 
C 46.796875 65.40625 50.5 58.03125 50.5 49.75 
C 50.5 40.6875 46.09375 34 33.90625 34 
z
" id="CMR17-80"/>
      </defs>
      <use transform="scale(0.996264)" xlink:href="#CMR17-82"/>
      <use transform="translate(67.791102 0)scale(0.996264)" xlink:href="#CMR17-101"/>
      <use transform="translate(108.276762 0)scale(0.996264)" xlink:href="#CMR17-108"/>
      <use transform="translate(133.147821 0)scale(0.996264)" xlink:href="#CMR17-97"/>
      <use transform="translate(178.838298 0)scale(0.996264)" xlink:href="#CMR17-116"/>
      <use transform="translate(214.119066 0)scale(0.996264)" xlink:href="#CMR17-105"/>
      <use transform="translate(238.990124 0)scale(0.996264)" xlink:href="#CMR17-118"/>
      <use transform="translate(284.680586 0)scale(0.996264)" xlink:href="#CMR17-101"/>
      <use transform="translate(355.242213 0)scale(0.996264)" xlink:href="#CMR17-69"/>
      <use transform="translate(417.828514 0)scale(0.996264)" xlink:href="#CMR17-114"/>
      <use transform="translate(453.109281 0)scale(0.996264)" xlink:href="#CMR17-114"/>
      <use transform="translate(488.390049 0)scale(0.996264)" xlink:href="#CMR17-111"/>
      <use transform="translate(534.080526 0)scale(0.996264)" xlink:href="#CMR17-114"/>
      <use transform="translate(599.43726 0)scale(0.996264)" xlink:href="#CMR17-40"/>
      <use transform="translate(634.718028 0)scale(0.996264)" xlink:href="#CMR17-105"/>
      <use transform="translate(659.589087 0)scale(0.996264)" xlink:href="#CMR17-110"/>
      <use transform="translate(740.560423 0)scale(0.996264)" xlink:href="#CMR17-80"/>
      <use transform="translate(800.544269 0)scale(0.996264)" xlink:href="#CMR17-101"/>
      <use transform="translate(841.02993 0)scale(0.996264)" xlink:href="#CMR17-114"/>
      <use transform="translate(876.310698 0)scale(0.996264)" xlink:href="#CMR17-99"/>
      <use transform="translate(916.796358 0)scale(0.996264)" xlink:href="#CMR17-101"/>
      <use transform="translate(957.282019 0)scale(0.996264)" xlink:href="#CMR17-110"/>
      <use transform="translate(1005.574934 0)scale(0.996264)" xlink:href="#CMR17-116"/>
      <use transform="translate(1040.855702 0)scale(0.996264)" xlink:href="#CMR17-41"/>
     </g>
    </g>
   </g>
   <g id="line2d_44">
    <path clip-path="url(#pc6e0704256)" d="M 389.724503 99.419524 
L 392.002967 135.090388 
L 394.281431 163.608792 
L 396.559896 185.479597 
L 398.83836 201.218112 
L 401.116824 211.349111 
L 403.395288 216.405626 
L 405.673753 216.927493 
L 407.952217 213.459628 
L 410.230681 206.549989 
L 412.509145 196.747199 
L 414.78761 184.597793 
L 417.066074 170.643046 
L 419.344538 155.415344 
L 421.623003 139.434079 
L 423.901467 123.201024 
L 426.179931 107.195175 
L 428.458395 91.867068 
L 430.73686 77.632582 
L 433.015324 64.866298 
L 435.293788 53.894503 
L 437.572252 44.988013 
L 439.850717 38.355037 
L 442.129181 34.134397 
L 444.407645 32.389523 
L 446.686109 33.10371 
L 448.964574 36.17724 
L 451.243038 41.427021 
L 453.521502 48.589402 
L 455.799967 57.326795 
L 458.078431 67.238557 
L 460.356895 77.876345 
L 462.635359 88.763747 
L 464.913824 99.419524 
L 467.192288 109.3832 
L 469.470752 118.241242 
L 471.749216 125.651588 
L 474.027681 131.36412 
L 476.306145 135.234796 
L 478.584609 137.231661 
L 480.863074 137.431813 
L 483.141538 136.009506 
L 485.420002 133.216701 
L 487.698466 129.358357 
L 489.976931 124.765355 
L 492.255395 119.768096 
L 494.533859 114.673431 
L 496.812323 109.746886 
L 499.090788 105.201183 
L 501.369252 101.191119 
L 503.647716 97.814107 
L 505.92618 95.115128 
L 508.204645 93.094642 
L 510.483109 91.718017 
L 512.761573 90.925248 
L 515.040038 90.640043 
L 517.318502 90.777694 
L 519.596966 91.251447 
L 521.87543 91.977309 
L 524.153895 92.877426 
L 526.432359 93.882231 
L 528.710823 94.931604 
L 530.989287 95.975301 
L 533.267752 96.972852 
L 535.546216 97.893108 
L 537.82468 98.71356 
L 540.103145 99.419524 
L 542.381609 100.00324 
L 544.660073 100.462941 
L 546.938537 100.801887 
L 549.217002 101.027408 
L 551.495466 101.149962 
L 553.77393 101.182226 
L 556.052394 101.138249 
L 558.330859 101.032675 
L 560.609323 100.88007 
L 562.887787 100.694356 
L 565.166251 100.488367 
L 567.444716 100.273522 
L 569.72318 100.059619 
L 572.001644 99.854734 
L 574.280109 99.66521 
L 576.558573 99.495721 
L 578.837037 99.349395 
L 581.115501 99.227972 
L 583.393966 99.131998 
L 585.67243 99.061012 
L 587.950894 99.013751 
L 590.229358 98.988334 
L 592.507823 98.982436 
L 594.786287 98.993447 
L 597.064751 99.018603 
L 599.343216 99.055104 
L 601.62168 99.100203 
L 603.900144 99.151283 
L 606.178608 99.205912 
L 608.457073 99.261879 
L 610.735537 99.317224 
L 613.014001 99.37025 
L 615.292465 99.419524 
" style="fill:none;stroke:#000000;stroke-linecap:round;stroke-width:1.5;"/>
   </g>
   <g id="patch_9">
    <path d="M 389.724503 226.154392 
L 389.724503 23.162625 
" style="fill:none;stroke:#262626;stroke-linecap:square;stroke-linejoin:miter;stroke-width:1.25;"/>
   </g>
   <g id="patch_10">
    <path d="M 615.292465 226.154392 
L 615.292465 23.162625 
" style="fill:none;stroke:#262626;stroke-linecap:square;stroke-linejoin:miter;stroke-width:1.25;"/>
   </g>
   <g id="patch_11">
    <path d="M 389.724503 226.154392 
L 615.292465 226.154392 
" style="fill:none;stroke:#262626;stroke-linecap:square;stroke-linejoin:miter;stroke-width:1.25;"/>
   </g>
   <g id="patch_12">
    <path d="M 389.724503 23.162625 
L 615.292465 23.162625 
" style="fill:none;stroke:#262626;stroke-linecap:square;stroke-linejoin:miter;stroke-width:1.25;"/>
   </g>
   <g id="text_26">
    <!-- Relative Error -->
    <g style="fill:#262626;" transform="translate(458.613641 17.162625)scale(0.144 -0.144)">
     <use transform="scale(0.996264)" xlink:href="#CMR17-82"/>
     <use transform="translate(67.791102 0)scale(0.996264)" xlink:href="#CMR17-101"/>
     <use transform="translate(108.276762 0)scale(0.996264)" xlink:href="#CMR17-108"/>
     <use transform="translate(133.147821 0)scale(0.996264)" xlink:href="#CMR17-97"/>
     <use transform="translate(178.838298 0)scale(0.996264)" xlink:href="#CMR17-116"/>
     <use transform="translate(214.119066 0)scale(0.996264)" xlink:href="#CMR17-105"/>
     <use transform="translate(238.990124 0)scale(0.996264)" xlink:href="#CMR17-118"/>
     <use transform="translate(284.680586 0)scale(0.996264)" xlink:href="#CMR17-101"/>
     <use transform="translate(355.242213 0)scale(0.996264)" xlink:href="#CMR17-69"/>
     <use transform="translate(417.828514 0)scale(0.996264)" xlink:href="#CMR17-114"/>
     <use transform="translate(453.109281 0)scale(0.996264)" xlink:href="#CMR17-114"/>
     <use transform="translate(488.390049 0)scale(0.996264)" xlink:href="#CMR17-111"/>
     <use transform="translate(534.080526 0)scale(0.996264)" xlink:href="#CMR17-114"/>
    </g>
   </g>
   <g id="legend_2">
    <g id="patch_13">
     <path d="M 474.136316 67.801251 
L 606.895825 67.801251 
Q 609.294865 67.801251 609.294865 65.402211 
L 609.294865 31.559265 
Q 609.294865 29.160225 606.895825 29.160225 
L 474.136316 29.160225 
Q 471.737276 29.160225 471.737276 31.559265 
L 471.737276 65.402211 
Q 471.737276 67.801251 474.136316 67.801251 
z
" style="fill:#ffffff;opacity:0.8;stroke:#cccccc;stroke-linejoin:miter;"/>
    </g>
    <g id="line2d_45"/>
    <g id="line2d_46">
     <g>
      <use style="fill:#ff0000;stroke:#ff0000;" x="488.530556" xlink:href="#m554ff62e32" y="38.874463"/>
     </g>
    </g>
    <g id="text_27">
     <!-- Interpolant points -->
     <g style="fill:#262626;" transform="translate(510.121916 43.072783)scale(0.119952 -0.119952)">
      <use transform="scale(0.996264)" xlink:href="#CMR17-73"/>
      <use transform="translate(32.638409 0)scale(0.996264)" xlink:href="#CMR17-110"/>
      <use transform="translate(80.931325 0)scale(0.996264)" xlink:href="#CMR17-116"/>
      <use transform="translate(116.212093 0)scale(0.996264)" xlink:href="#CMR17-101"/>
      <use transform="translate(156.697753 0)scale(0.996264)" xlink:href="#CMR17-114"/>
      <use transform="translate(191.978521 0)scale(0.996264)" xlink:href="#CMR17-112"/>
      <use transform="translate(245.47633 0)scale(0.996264)" xlink:href="#CMR17-111"/>
      <use transform="translate(291.166807 0)scale(0.996264)" xlink:href="#CMR17-108"/>
      <use transform="translate(316.037865 0)scale(0.996264)" xlink:href="#CMR17-97"/>
      <use transform="translate(361.728342 0)scale(0.996264)" xlink:href="#CMR17-110"/>
      <use transform="translate(410.021258 0)scale(0.996264)" xlink:href="#CMR17-116"/>
      <use transform="translate(475.377992 0)scale(0.996264)" xlink:href="#CMR17-112"/>
      <use transform="translate(528.875801 0)scale(0.996264)" xlink:href="#CMR17-111"/>
      <use transform="translate(574.566278 0)scale(0.996264)" xlink:href="#CMR17-105"/>
      <use transform="translate(599.437336 0)scale(0.996264)" xlink:href="#CMR17-110"/>
      <use transform="translate(647.730252 0)scale(0.996264)" xlink:href="#CMR17-116"/>
      <use transform="translate(683.01102 0)scale(0.996264)" xlink:href="#CMR17-115"/>
     </g>
    </g>
    <g id="line2d_47">
     <path d="M 476.535356 56.481167 
L 500.525756 56.481167 
" style="fill:none;stroke:#000000;stroke-linecap:round;stroke-width:1.5;"/>
    </g>
    <g id="line2d_48"/>
    <g id="text_28">
     <!-- Interpolated -->
     <g style="fill:#262626;" transform="translate(510.121916 60.679487)scale(0.119952 -0.119952)">
      <use transform="scale(0.996264)" xlink:href="#CMR17-73"/>
      <use transform="translate(32.638409 0)scale(0.996264)" xlink:href="#CMR17-110"/>
      <use transform="translate(80.931325 0)scale(0.996264)" xlink:href="#CMR17-116"/>
      <use transform="translate(116.212093 0)scale(0.996264)" xlink:href="#CMR17-101"/>
      <use transform="translate(156.697753 0)scale(0.996264)" xlink:href="#CMR17-114"/>
      <use transform="translate(191.978521 0)scale(0.996264)" xlink:href="#CMR17-112"/>
      <use transform="translate(245.47633 0)scale(0.996264)" xlink:href="#CMR17-111"/>
      <use transform="translate(291.166807 0)scale(0.996264)" xlink:href="#CMR17-108"/>
      <use transform="translate(316.037865 0)scale(0.996264)" xlink:href="#CMR17-97"/>
      <use transform="translate(361.728342 0)scale(0.996264)" xlink:href="#CMR17-116"/>
      <use transform="translate(397.00911 0)scale(0.996264)" xlink:href="#CMR17-101"/>
      <use transform="translate(437.494771 0)scale(0.996264)" xlink:href="#CMR17-100"/>
     </g>
    </g>
   </g>
   <g id="line2d_49">
    <g clip-path="url(#pc6e0704256)">
     <use style="fill:#ff0000;stroke:#ff0000;" x="389.724503" xlink:href="#m554ff62e32" y="99.419524"/>
     <use style="fill:#ff0000;stroke:#ff0000;" x="427.319163" xlink:href="#m554ff62e32" y="99.419524"/>
     <use style="fill:#ff0000;stroke:#ff0000;" x="464.913824" xlink:href="#m554ff62e32" y="99.419524"/>
     <use style="fill:#ff0000;stroke:#ff0000;" x="502.508484" xlink:href="#m554ff62e32" y="99.419524"/>
     <use style="fill:#ff0000;stroke:#ff0000;" x="540.103145" xlink:href="#m554ff62e32" y="99.419524"/>
     <use style="fill:#ff0000;stroke:#ff0000;" x="577.697805" xlink:href="#m554ff62e32" y="99.419524"/>
     <use style="fill:#ff0000;stroke:#ff0000;" x="615.292465" xlink:href="#m554ff62e32" y="99.419524"/>
    </g>
   </g>
  </g>
 </g>
 <defs>
  <clipPath id="pda07a63e5a">
   <rect height="202.991767" width="225.567963" x="61.666113" y="23.162625"/>
  </clipPath>
  <clipPath id="pc6e0704256">
   <rect height="202.991767" width="225.567963" x="389.724503" y="23.162625"/>
  </clipPath>
 </defs>
</svg>
